G04 #@! TF.FileFunction,Copper,L1,Top,Signal*
%FSLAX46Y46*%
G04 Gerber Fmt 4.6, Leading zero omitted, Abs format (unit mm)*
G04 Created by KiCad (PCBNEW 4.0.7) date 2017 December 25, Monday 22:32:58*
%MOMM*%
%LPD*%
G01*
G04 APERTURE LIST*
%ADD10C,0.100000*%
%ADD11R,1.000000X1.000000*%
%ADD12O,1.000000X1.000000*%
%ADD13R,0.800000X0.750000*%
%ADD14R,0.650000X1.560000*%
%ADD15R,0.750000X0.800000*%
%ADD16C,1.800000*%
%ADD17R,0.500000X0.900000*%
%ADD18R,1.380000X0.450000*%
%ADD19R,2.100000X1.475000*%
%ADD20R,1.900000X2.375000*%
%ADD21R,1.900000X1.175000*%
%ADD22R,1.600000X2.000000*%
%ADD23R,0.800000X0.800000*%
%ADD24R,1.100000X0.600000*%
%ADD25R,0.650000X1.700000*%
%ADD26C,0.685800*%
%ADD27C,0.508000*%
%ADD28C,0.254000*%
%ADD29C,0.152400*%
%ADD30C,0.381000*%
G04 APERTURE END LIST*
D10*
D11*
X144526000Y-99568000D03*
D12*
X143256000Y-99568000D03*
X141986000Y-99568000D03*
X140716000Y-99568000D03*
D13*
X128294000Y-108712000D03*
X129794000Y-108712000D03*
D10*
G36*
X139971678Y-107401992D02*
X140502008Y-107932322D01*
X139936322Y-108498008D01*
X139405992Y-107967678D01*
X139971678Y-107401992D01*
X139971678Y-107401992D01*
G37*
G36*
X138911018Y-108462652D02*
X139441348Y-108992982D01*
X138875662Y-109558668D01*
X138345332Y-109028338D01*
X138911018Y-108462652D01*
X138911018Y-108462652D01*
G37*
D14*
X126360000Y-103171000D03*
X125410000Y-103171000D03*
X124460000Y-103171000D03*
X124460000Y-105871000D03*
X126360000Y-105871000D03*
D15*
X127508000Y-106172000D03*
X127508000Y-104672000D03*
D16*
X119761000Y-112141000D03*
X122301000Y-112141000D03*
X124841000Y-112141000D03*
X127381000Y-112141000D03*
X129921000Y-112141000D03*
X132461000Y-112141000D03*
X135001000Y-112141000D03*
X137541000Y-112141000D03*
X140081000Y-112141000D03*
X142621000Y-112141000D03*
X145161000Y-112141000D03*
X147701000Y-112141000D03*
X147701000Y-96901000D03*
X145161000Y-96901000D03*
X142621000Y-96901000D03*
X140081000Y-96901000D03*
X137541000Y-96901000D03*
X135001000Y-96901000D03*
X132461000Y-96901000D03*
X129921000Y-96901000D03*
X127381000Y-96901000D03*
X124841000Y-96901000D03*
X122301000Y-96901000D03*
X119761000Y-96901000D03*
D13*
X137311000Y-98679000D03*
X138811000Y-98679000D03*
D10*
G36*
X138091332Y-100013662D02*
X138621662Y-99483332D01*
X139187348Y-100049018D01*
X138657018Y-100579348D01*
X138091332Y-100013662D01*
X138091332Y-100013662D01*
G37*
G36*
X139151992Y-101074322D02*
X139682322Y-100543992D01*
X140248008Y-101109678D01*
X139717678Y-101640008D01*
X139151992Y-101074322D01*
X139151992Y-101074322D01*
G37*
D13*
X124587000Y-100965000D03*
X126087000Y-100965000D03*
D17*
X123547000Y-98806000D03*
X122047000Y-98806000D03*
D13*
X124992000Y-98425000D03*
X126492000Y-98425000D03*
D15*
X127508000Y-102132000D03*
X127508000Y-103632000D03*
D13*
X125706000Y-108839000D03*
X124206000Y-108839000D03*
D17*
X127151000Y-110236000D03*
X128651000Y-110236000D03*
D18*
X122611500Y-103221000D03*
X122611500Y-103871000D03*
X122611500Y-104521000D03*
X122611500Y-105171000D03*
X122611500Y-105821000D03*
D19*
X122251500Y-102058500D03*
X122251500Y-106983500D03*
D20*
X119951500Y-101611000D03*
X119951500Y-107431000D03*
D21*
X119951500Y-103681000D03*
X119951500Y-105361000D03*
D22*
X147574000Y-101821000D03*
X147574000Y-107221000D03*
D23*
X121107000Y-98806000D03*
X119507000Y-98806000D03*
D17*
X131167000Y-110236000D03*
X129667000Y-110236000D03*
X123547000Y-110236000D03*
X122047000Y-110236000D03*
D13*
X124992000Y-99568000D03*
X126492000Y-99568000D03*
D23*
X121069000Y-110236000D03*
X119469000Y-110236000D03*
D24*
X128270000Y-98803000D03*
X128270000Y-100203000D03*
D23*
X148209000Y-98679000D03*
X146609000Y-98679000D03*
X148158000Y-110363000D03*
X146558000Y-110363000D03*
D10*
G36*
X132691270Y-99129311D02*
X132868047Y-98952534D01*
X133787286Y-99871773D01*
X133610509Y-100048550D01*
X132691270Y-99129311D01*
X132691270Y-99129311D01*
G37*
G36*
X132337717Y-99482864D02*
X132514494Y-99306087D01*
X133433733Y-100225326D01*
X133256956Y-100402103D01*
X132337717Y-99482864D01*
X132337717Y-99482864D01*
G37*
G36*
X131984163Y-99836418D02*
X132160940Y-99659641D01*
X133080179Y-100578880D01*
X132903402Y-100755657D01*
X131984163Y-99836418D01*
X131984163Y-99836418D01*
G37*
G36*
X131630610Y-100189971D02*
X131807387Y-100013194D01*
X132726626Y-100932433D01*
X132549849Y-101109210D01*
X131630610Y-100189971D01*
X131630610Y-100189971D01*
G37*
G36*
X131277057Y-100543524D02*
X131453834Y-100366747D01*
X132373073Y-101285986D01*
X132196296Y-101462763D01*
X131277057Y-100543524D01*
X131277057Y-100543524D01*
G37*
G36*
X130923503Y-100897078D02*
X131100280Y-100720301D01*
X132019519Y-101639540D01*
X131842742Y-101816317D01*
X130923503Y-100897078D01*
X130923503Y-100897078D01*
G37*
G36*
X130569950Y-101250631D02*
X130746727Y-101073854D01*
X131665966Y-101993093D01*
X131489189Y-102169870D01*
X130569950Y-101250631D01*
X130569950Y-101250631D01*
G37*
G36*
X130216396Y-101604185D02*
X130393173Y-101427408D01*
X131312412Y-102346647D01*
X131135635Y-102523424D01*
X130216396Y-101604185D01*
X130216396Y-101604185D01*
G37*
G36*
X129862843Y-101957738D02*
X130039620Y-101780961D01*
X130958859Y-102700200D01*
X130782082Y-102876977D01*
X129862843Y-101957738D01*
X129862843Y-101957738D01*
G37*
G36*
X129509290Y-102311291D02*
X129686067Y-102134514D01*
X130605306Y-103053753D01*
X130428529Y-103230530D01*
X129509290Y-102311291D01*
X129509290Y-102311291D01*
G37*
G36*
X129155736Y-102664845D02*
X129332513Y-102488068D01*
X130251752Y-103407307D01*
X130074975Y-103584084D01*
X129155736Y-102664845D01*
X129155736Y-102664845D01*
G37*
G36*
X128802183Y-103018398D02*
X128978960Y-102841621D01*
X129898199Y-103760860D01*
X129721422Y-103937637D01*
X128802183Y-103018398D01*
X128802183Y-103018398D01*
G37*
G36*
X128978960Y-106200379D02*
X128802183Y-106023602D01*
X129721422Y-105104363D01*
X129898199Y-105281140D01*
X128978960Y-106200379D01*
X128978960Y-106200379D01*
G37*
G36*
X129332513Y-106553932D02*
X129155736Y-106377155D01*
X130074975Y-105457916D01*
X130251752Y-105634693D01*
X129332513Y-106553932D01*
X129332513Y-106553932D01*
G37*
G36*
X129686067Y-106907486D02*
X129509290Y-106730709D01*
X130428529Y-105811470D01*
X130605306Y-105988247D01*
X129686067Y-106907486D01*
X129686067Y-106907486D01*
G37*
G36*
X130039620Y-107261039D02*
X129862843Y-107084262D01*
X130782082Y-106165023D01*
X130958859Y-106341800D01*
X130039620Y-107261039D01*
X130039620Y-107261039D01*
G37*
G36*
X130393173Y-107614592D02*
X130216396Y-107437815D01*
X131135635Y-106518576D01*
X131312412Y-106695353D01*
X130393173Y-107614592D01*
X130393173Y-107614592D01*
G37*
G36*
X130746727Y-107968146D02*
X130569950Y-107791369D01*
X131489189Y-106872130D01*
X131665966Y-107048907D01*
X130746727Y-107968146D01*
X130746727Y-107968146D01*
G37*
G36*
X131100280Y-108321699D02*
X130923503Y-108144922D01*
X131842742Y-107225683D01*
X132019519Y-107402460D01*
X131100280Y-108321699D01*
X131100280Y-108321699D01*
G37*
G36*
X131453834Y-108675253D02*
X131277057Y-108498476D01*
X132196296Y-107579237D01*
X132373073Y-107756014D01*
X131453834Y-108675253D01*
X131453834Y-108675253D01*
G37*
G36*
X131807387Y-109028806D02*
X131630610Y-108852029D01*
X132549849Y-107932790D01*
X132726626Y-108109567D01*
X131807387Y-109028806D01*
X131807387Y-109028806D01*
G37*
G36*
X132160940Y-109382359D02*
X131984163Y-109205582D01*
X132903402Y-108286343D01*
X133080179Y-108463120D01*
X132160940Y-109382359D01*
X132160940Y-109382359D01*
G37*
G36*
X132514494Y-109735913D02*
X132337717Y-109559136D01*
X133256956Y-108639897D01*
X133433733Y-108816674D01*
X132514494Y-109735913D01*
X132514494Y-109735913D01*
G37*
G36*
X132868047Y-110089466D02*
X132691270Y-109912689D01*
X133610509Y-108993450D01*
X133787286Y-109170227D01*
X132868047Y-110089466D01*
X132868047Y-110089466D01*
G37*
G36*
X134954012Y-109170227D02*
X135130789Y-108993450D01*
X136050028Y-109912689D01*
X135873251Y-110089466D01*
X134954012Y-109170227D01*
X134954012Y-109170227D01*
G37*
G36*
X135307565Y-108816674D02*
X135484342Y-108639897D01*
X136403581Y-109559136D01*
X136226804Y-109735913D01*
X135307565Y-108816674D01*
X135307565Y-108816674D01*
G37*
G36*
X135661119Y-108463120D02*
X135837896Y-108286343D01*
X136757135Y-109205582D01*
X136580358Y-109382359D01*
X135661119Y-108463120D01*
X135661119Y-108463120D01*
G37*
G36*
X136014672Y-108109567D02*
X136191449Y-107932790D01*
X137110688Y-108852029D01*
X136933911Y-109028806D01*
X136014672Y-108109567D01*
X136014672Y-108109567D01*
G37*
G36*
X136368225Y-107756014D02*
X136545002Y-107579237D01*
X137464241Y-108498476D01*
X137287464Y-108675253D01*
X136368225Y-107756014D01*
X136368225Y-107756014D01*
G37*
G36*
X136721779Y-107402460D02*
X136898556Y-107225683D01*
X137817795Y-108144922D01*
X137641018Y-108321699D01*
X136721779Y-107402460D01*
X136721779Y-107402460D01*
G37*
G36*
X137075332Y-107048907D02*
X137252109Y-106872130D01*
X138171348Y-107791369D01*
X137994571Y-107968146D01*
X137075332Y-107048907D01*
X137075332Y-107048907D01*
G37*
G36*
X137428886Y-106695353D02*
X137605663Y-106518576D01*
X138524902Y-107437815D01*
X138348125Y-107614592D01*
X137428886Y-106695353D01*
X137428886Y-106695353D01*
G37*
G36*
X137782439Y-106341800D02*
X137959216Y-106165023D01*
X138878455Y-107084262D01*
X138701678Y-107261039D01*
X137782439Y-106341800D01*
X137782439Y-106341800D01*
G37*
G36*
X138135992Y-105988247D02*
X138312769Y-105811470D01*
X139232008Y-106730709D01*
X139055231Y-106907486D01*
X138135992Y-105988247D01*
X138135992Y-105988247D01*
G37*
G36*
X138489546Y-105634693D02*
X138666323Y-105457916D01*
X139585562Y-106377155D01*
X139408785Y-106553932D01*
X138489546Y-105634693D01*
X138489546Y-105634693D01*
G37*
G36*
X138843099Y-105281140D02*
X139019876Y-105104363D01*
X139939115Y-106023602D01*
X139762338Y-106200379D01*
X138843099Y-105281140D01*
X138843099Y-105281140D01*
G37*
G36*
X139019876Y-103937637D02*
X138843099Y-103760860D01*
X139762338Y-102841621D01*
X139939115Y-103018398D01*
X139019876Y-103937637D01*
X139019876Y-103937637D01*
G37*
G36*
X138666323Y-103584084D02*
X138489546Y-103407307D01*
X139408785Y-102488068D01*
X139585562Y-102664845D01*
X138666323Y-103584084D01*
X138666323Y-103584084D01*
G37*
G36*
X138312769Y-103230530D02*
X138135992Y-103053753D01*
X139055231Y-102134514D01*
X139232008Y-102311291D01*
X138312769Y-103230530D01*
X138312769Y-103230530D01*
G37*
G36*
X137959216Y-102876977D02*
X137782439Y-102700200D01*
X138701678Y-101780961D01*
X138878455Y-101957738D01*
X137959216Y-102876977D01*
X137959216Y-102876977D01*
G37*
G36*
X137605663Y-102523424D02*
X137428886Y-102346647D01*
X138348125Y-101427408D01*
X138524902Y-101604185D01*
X137605663Y-102523424D01*
X137605663Y-102523424D01*
G37*
G36*
X137252109Y-102169870D02*
X137075332Y-101993093D01*
X137994571Y-101073854D01*
X138171348Y-101250631D01*
X137252109Y-102169870D01*
X137252109Y-102169870D01*
G37*
G36*
X136898556Y-101816317D02*
X136721779Y-101639540D01*
X137641018Y-100720301D01*
X137817795Y-100897078D01*
X136898556Y-101816317D01*
X136898556Y-101816317D01*
G37*
G36*
X136545002Y-101462763D02*
X136368225Y-101285986D01*
X137287464Y-100366747D01*
X137464241Y-100543524D01*
X136545002Y-101462763D01*
X136545002Y-101462763D01*
G37*
G36*
X136191449Y-101109210D02*
X136014672Y-100932433D01*
X136933911Y-100013194D01*
X137110688Y-100189971D01*
X136191449Y-101109210D01*
X136191449Y-101109210D01*
G37*
G36*
X135837896Y-100755657D02*
X135661119Y-100578880D01*
X136580358Y-99659641D01*
X136757135Y-99836418D01*
X135837896Y-100755657D01*
X135837896Y-100755657D01*
G37*
G36*
X135484342Y-100402103D02*
X135307565Y-100225326D01*
X136226804Y-99306087D01*
X136403581Y-99482864D01*
X135484342Y-100402103D01*
X135484342Y-100402103D01*
G37*
G36*
X135130789Y-100048550D02*
X134954012Y-99871773D01*
X135873251Y-98952534D01*
X136050028Y-99129311D01*
X135130789Y-100048550D01*
X135130789Y-100048550D01*
G37*
D17*
X146697000Y-99949000D03*
X148197000Y-99949000D03*
X146685000Y-109093000D03*
X148185000Y-109093000D03*
X140335000Y-110363000D03*
X138835000Y-110363000D03*
D25*
X141351000Y-109441000D03*
X142621000Y-109441000D03*
X143891000Y-109441000D03*
X145161000Y-109441000D03*
X145161000Y-102141000D03*
X143891000Y-102141000D03*
X142621000Y-102141000D03*
X141351000Y-102141000D03*
D26*
X121579315Y-100774952D03*
X146098918Y-101013918D03*
X129757485Y-108786648D03*
X126275147Y-107679262D03*
X126136267Y-101239168D03*
X139433421Y-109036500D03*
X143891000Y-111125000D03*
X124968000Y-109982000D03*
X143872800Y-106273522D03*
X139573000Y-98933000D03*
X139665788Y-101085047D03*
X142621000Y-98679000D03*
X129314878Y-99123714D03*
X131447181Y-98799580D03*
X128045094Y-101062906D03*
X146138276Y-102652997D03*
X131215296Y-109234391D03*
X123940152Y-107246507D03*
X127508000Y-104140000D03*
X121569756Y-109086747D03*
X132931601Y-101539645D03*
X144682067Y-107985316D03*
X124992000Y-98425000D03*
X147320000Y-104140000D03*
X136861472Y-102311049D03*
X125410000Y-103171000D03*
X143145766Y-103454580D03*
X140428674Y-101833333D03*
X137201597Y-103077152D03*
X131132621Y-103232135D03*
X136855972Y-105217389D03*
X126458800Y-104595688D03*
X137678538Y-105522200D03*
X125350842Y-105965915D03*
X131758979Y-102641046D03*
X128144031Y-109308762D03*
X124076749Y-99878665D03*
X140852311Y-106350676D03*
X130458349Y-100383030D03*
X125367916Y-107248354D03*
X125732874Y-108859202D03*
X123771336Y-110011664D03*
X132429683Y-106360421D03*
X137549013Y-99666314D03*
X135976082Y-103202559D03*
X133467624Y-107838676D03*
X121956084Y-100017074D03*
X142188258Y-103650081D03*
X140350892Y-102667928D03*
X146207130Y-110364422D03*
X145802040Y-105758211D03*
X129496844Y-101335109D03*
X132676039Y-110391508D03*
X141986036Y-106586446D03*
X134610636Y-107558396D03*
X135448434Y-107532058D03*
X142780018Y-107624305D03*
X128561832Y-104863876D03*
X128683111Y-104034484D03*
X131390498Y-110647049D03*
X133919214Y-100946769D03*
X134175680Y-99030336D03*
X135180880Y-98839476D03*
X139645867Y-104358973D03*
X126779480Y-108611121D03*
X135907781Y-101524092D03*
X135367036Y-100883628D03*
X132539616Y-103937931D03*
X145161000Y-103517699D03*
X144288778Y-103525320D03*
X133345204Y-103099306D03*
X134834893Y-109755945D03*
X141293925Y-109571160D03*
X133940818Y-109872691D03*
X142628041Y-109620775D03*
D27*
X124612000Y-100965000D02*
X124587000Y-100965000D01*
X125631599Y-101984599D02*
X124612000Y-100965000D01*
X126060121Y-101984599D02*
X125631599Y-101984599D01*
X126360000Y-102284478D02*
X126060121Y-101984599D01*
X126360000Y-103171000D02*
X126360000Y-102284478D01*
X123679000Y-100965000D02*
X123488952Y-100774952D01*
X123488952Y-100774952D02*
X121579315Y-100774952D01*
X124587000Y-100965000D02*
X123679000Y-100965000D01*
X124460000Y-103171000D02*
X124460000Y-101092000D01*
X124460000Y-101092000D02*
X124587000Y-100965000D01*
X122611500Y-103221000D02*
X124410000Y-103221000D01*
X124410000Y-103221000D02*
X124460000Y-103171000D01*
X146138276Y-102652997D02*
X146138276Y-101053276D01*
X146138276Y-101053276D02*
X146098918Y-101013918D01*
X129757485Y-108786648D02*
X130767553Y-108786648D01*
X130767553Y-108786648D02*
X131215296Y-109234391D01*
D28*
X129757485Y-108786648D02*
X129757485Y-108780611D01*
X129757485Y-108780611D02*
X131117958Y-107420138D01*
X125932248Y-108022161D02*
X126275147Y-107679262D01*
X124715806Y-108022161D02*
X125932248Y-108022161D01*
X123940152Y-107246507D02*
X124715806Y-108022161D01*
D27*
X126136267Y-101014267D02*
X126136267Y-101239168D01*
X126087000Y-100965000D02*
X126136267Y-101014267D01*
D28*
X126312529Y-101062906D02*
X126136267Y-101239168D01*
X128045094Y-101062906D02*
X126312529Y-101062906D01*
X139090522Y-108693601D02*
X139433421Y-109036500D01*
D29*
X145161000Y-109441000D02*
X145161000Y-109966000D01*
X145161000Y-109966000D02*
X144002000Y-111125000D01*
X144002000Y-111125000D02*
X143891000Y-111125000D01*
X124206000Y-108839000D02*
X124206000Y-109220000D01*
X124206000Y-109220000D02*
X124968000Y-109982000D01*
D27*
X144357733Y-106273522D02*
X143872800Y-106273522D01*
X146098916Y-106570301D02*
X144654512Y-106570301D01*
X147320000Y-105349217D02*
X146098916Y-106570301D01*
X147320000Y-104140000D02*
X147320000Y-105349217D01*
X144654512Y-106570301D02*
X144357733Y-106273522D01*
X139700000Y-101092000D02*
X139693047Y-101085047D01*
X139693047Y-101085047D02*
X139665788Y-101085047D01*
D28*
X131447181Y-98799580D02*
X129639012Y-98799580D01*
X129639012Y-98799580D02*
X129314878Y-99123714D01*
X139511418Y-107467104D02*
X138893340Y-108085182D01*
X138893340Y-108496419D02*
X139090522Y-108693601D01*
X138893340Y-108085182D02*
X138893340Y-108496419D01*
D27*
X123940152Y-107145553D02*
X123940152Y-107246507D01*
X123728599Y-106934000D02*
X123940152Y-107145553D01*
X127508000Y-104672000D02*
X127508000Y-104140000D01*
X127508000Y-104140000D02*
X127508000Y-103632000D01*
X124992000Y-99568000D02*
X124992000Y-99870000D01*
X124992000Y-99870000D02*
X126087000Y-100965000D01*
X124992000Y-99568000D02*
X125017000Y-99568000D01*
X124206000Y-108839000D02*
X124206000Y-108502824D01*
X124206000Y-108502824D02*
X123728599Y-108025423D01*
X119469000Y-110236000D02*
X120618253Y-109086747D01*
X120618253Y-109086747D02*
X121569756Y-109086747D01*
X122667275Y-109086747D02*
X122054689Y-109086747D01*
X123728599Y-108025423D02*
X122667275Y-109086747D01*
X122054689Y-109086747D02*
X121569756Y-109086747D01*
D28*
X132355394Y-101445084D02*
X132837040Y-101445084D01*
X132837040Y-101445084D02*
X132931601Y-101539645D01*
X131825065Y-100914755D02*
X132355394Y-101445084D01*
D27*
X145161000Y-108083000D02*
X145063316Y-107985316D01*
X145161000Y-109441000D02*
X145161000Y-108083000D01*
X145063316Y-107985316D02*
X144682067Y-107985316D01*
X147574000Y-107221000D02*
X147574000Y-104394000D01*
X147574000Y-104394000D02*
X147320000Y-104140000D01*
D30*
X136934153Y-102311049D02*
X136861472Y-102311049D01*
X137623340Y-101621862D02*
X136934153Y-102311049D01*
D27*
X123728599Y-105941577D02*
X123728599Y-106934000D01*
X123728599Y-106934000D02*
X123728599Y-107594599D01*
X123608022Y-105821000D02*
X122611500Y-105821000D01*
D30*
X137623340Y-101621862D02*
X138160704Y-101084498D01*
X138160704Y-101084498D02*
X139062168Y-101084498D01*
X139062168Y-101084498D02*
X139069670Y-101092000D01*
X139069670Y-101092000D02*
X139700000Y-101092000D01*
D27*
X139700000Y-101092000D02*
X139700000Y-99497660D01*
X139700000Y-99497660D02*
X138776670Y-98574330D01*
D28*
X139511418Y-107467104D02*
X139511418Y-106479788D01*
X139511418Y-106479788D02*
X139037554Y-106005924D01*
D27*
X124992000Y-98425000D02*
X124457401Y-98425000D01*
X124457401Y-98425000D02*
X123833400Y-97800999D01*
X123833400Y-97800999D02*
X123200999Y-97800999D01*
X123200999Y-97800999D02*
X122301000Y-96901000D01*
X124992000Y-99568000D02*
X124992000Y-98425000D01*
X124841000Y-112141000D02*
X127381000Y-112141000D01*
X123728599Y-108025423D02*
X123728599Y-107594599D01*
X123608022Y-105821000D02*
X123728599Y-105941577D01*
X122047000Y-98806000D02*
X121107000Y-98806000D01*
D29*
X143488665Y-103797479D02*
X143145766Y-103454580D01*
X147574000Y-101821000D02*
X147574000Y-102973400D01*
X147574000Y-102973400D02*
X146280400Y-104267000D01*
X146280400Y-104267000D02*
X143958186Y-104267000D01*
X143958186Y-104267000D02*
X143488665Y-103797479D01*
X139443612Y-101798640D02*
X139573453Y-101928481D01*
X138860776Y-101798640D02*
X139443612Y-101798640D01*
X139573453Y-101928481D02*
X139848593Y-101928481D01*
X139943741Y-101833333D02*
X140428674Y-101833333D01*
X138330447Y-102328969D02*
X138860776Y-101798640D01*
X139848593Y-101928481D02*
X139943741Y-101833333D01*
X138330447Y-102328969D02*
X137582264Y-103077152D01*
X137582264Y-103077152D02*
X137201597Y-103077152D01*
D28*
X127508000Y-102132000D02*
X128137000Y-102132000D01*
X131648289Y-100030873D02*
X132178618Y-100561202D01*
X131481837Y-99864421D02*
X131648289Y-100030873D01*
X130889027Y-99864421D02*
X131481837Y-99864421D01*
X130201902Y-99732449D02*
X130757055Y-99732449D01*
X128846262Y-101422738D02*
X128846262Y-101088089D01*
X128137000Y-102132000D02*
X128846262Y-101422738D01*
X130757055Y-99732449D02*
X130889027Y-99864421D01*
X128846262Y-101088089D02*
X130201902Y-99732449D01*
X137269787Y-101268309D02*
X138506756Y-100031340D01*
X138506756Y-100031340D02*
X138639340Y-100031340D01*
D29*
X131187469Y-102398481D02*
X131187469Y-103177287D01*
X131187469Y-103177287D02*
X131132621Y-103232135D01*
X130764404Y-101975416D02*
X131187469Y-102398481D01*
X136855972Y-105702322D02*
X136855972Y-105217389D01*
X136855972Y-105757320D02*
X136855972Y-105702322D01*
X137281354Y-106182702D02*
X136855972Y-105757320D01*
X137800118Y-106182702D02*
X137281354Y-106182702D01*
X138330447Y-106713031D02*
X137800118Y-106182702D01*
X126115901Y-104252789D02*
X126458800Y-104595688D01*
X126042713Y-104179601D02*
X126115901Y-104252789D01*
X123952119Y-104179601D02*
X126042713Y-104179601D01*
X123643518Y-103871000D02*
X123952119Y-104179601D01*
X122611500Y-103871000D02*
X123643518Y-103871000D01*
X137846722Y-105522200D02*
X137678538Y-105522200D01*
X138684000Y-106359478D02*
X137846722Y-105522200D01*
X122611500Y-104521000D02*
X124564242Y-104521000D01*
X125051798Y-105008556D02*
X125051798Y-105181938D01*
X124564242Y-104521000D02*
X125051798Y-105008556D01*
X125051798Y-105181938D02*
X125350842Y-105480982D01*
X125350842Y-105480982D02*
X125350842Y-105965915D01*
X133591452Y-98768738D02*
X134330589Y-98029601D01*
X133244386Y-100737978D02*
X134015896Y-99966468D01*
X135542729Y-98029601D02*
X136671330Y-96901000D01*
X134015896Y-99966468D02*
X134015896Y-99729102D01*
X132532171Y-100207649D02*
X133062500Y-100737978D01*
X133591452Y-99304658D02*
X133591452Y-98768738D01*
X133062500Y-100737978D02*
X133244386Y-100737978D01*
X134015896Y-99729102D02*
X133591452Y-99304658D01*
X134330589Y-98029601D02*
X135542729Y-98029601D01*
X136671330Y-96901000D02*
X137541000Y-96901000D01*
X131117958Y-101621862D02*
X131758979Y-102262883D01*
X131758979Y-102262883D02*
X131758979Y-102641046D01*
D27*
X121069000Y-110236000D02*
X122047000Y-110236000D01*
X142621000Y-102141000D02*
X142621000Y-101504478D01*
X146104151Y-99949000D02*
X146455000Y-99949000D01*
X142621000Y-101504478D02*
X143381176Y-100744302D01*
X143381176Y-100744302D02*
X145308849Y-100744302D01*
X145308849Y-100744302D02*
X146104151Y-99949000D01*
D30*
X128294000Y-109468000D02*
X128294000Y-108712000D01*
X128294000Y-109879000D02*
X128294000Y-109468000D01*
X128651000Y-110236000D02*
X128294000Y-109879000D01*
D27*
X141351000Y-102141000D02*
X141188391Y-102303609D01*
X141188391Y-105710431D02*
X141209992Y-105732032D01*
X141188391Y-102303609D02*
X141188391Y-105710431D01*
X128255860Y-108712000D02*
X128144031Y-108823829D01*
X128144031Y-108823829D02*
X128144031Y-109308762D01*
X128294000Y-108712000D02*
X128255860Y-108712000D01*
X123547000Y-98806000D02*
X123547000Y-99764000D01*
X123547000Y-99764000D02*
X123661665Y-99878665D01*
X123661665Y-99878665D02*
X124076749Y-99878665D01*
X140136660Y-106350676D02*
X140367378Y-106350676D01*
X141195210Y-106007777D02*
X140852311Y-106350676D01*
X141209992Y-105992995D02*
X141195210Y-106007777D01*
X139414731Y-105628747D02*
X140136660Y-106350676D01*
X141209992Y-105732032D02*
X141209992Y-105992995D01*
X140367378Y-106350676D02*
X140852311Y-106350676D01*
X142240590Y-105732032D02*
X141209992Y-105732032D01*
X143891000Y-107382442D02*
X142240590Y-105732032D01*
X143891000Y-107716883D02*
X143891000Y-107382442D01*
D30*
X131471511Y-101268309D02*
X130586232Y-100383030D01*
X130586232Y-100383030D02*
X130458349Y-100383030D01*
D28*
X130764404Y-107066584D02*
X130079722Y-107751266D01*
X130079722Y-107751266D02*
X129279734Y-107751266D01*
X129279734Y-107751266D02*
X128319000Y-108712000D01*
X128319000Y-108712000D02*
X128294000Y-108712000D01*
D27*
X127508000Y-106172000D02*
X126661000Y-106172000D01*
X126661000Y-106172000D02*
X126360000Y-105871000D01*
X125367916Y-107248354D02*
X126360000Y-106256270D01*
X126360000Y-106256270D02*
X126360000Y-105871000D01*
X125437646Y-107248354D02*
X125367916Y-107248354D01*
X126360000Y-105871000D02*
X126360000Y-106326000D01*
X132100638Y-101922030D02*
X132528613Y-102350005D01*
X131470567Y-106360421D02*
X131944750Y-106360421D01*
X131944750Y-106360421D02*
X132429683Y-106360421D01*
X131336848Y-106494140D02*
X131470567Y-106360421D01*
X132772582Y-106017522D02*
X132429683Y-106360421D01*
X133704869Y-102350005D02*
X134094505Y-102739641D01*
X134094505Y-102739641D02*
X134094505Y-104695599D01*
X134094505Y-104695599D02*
X132772582Y-106017522D01*
X132528613Y-102350005D02*
X133704869Y-102350005D01*
D30*
X129667000Y-110236000D02*
X128651000Y-110236000D01*
D27*
X146685000Y-108893000D02*
X146685000Y-109093000D01*
X143891000Y-107667417D02*
X144322402Y-107236015D01*
X145903756Y-108111756D02*
X146685000Y-108893000D01*
X143891000Y-107716883D02*
X143891000Y-107667417D01*
X145514120Y-107236015D02*
X145903756Y-107625651D01*
X144322402Y-107236015D02*
X145514120Y-107236015D01*
X145903756Y-107625651D02*
X145903756Y-108111756D01*
X143891000Y-109441000D02*
X143891000Y-107716883D01*
D30*
X132061733Y-101858531D02*
X132100638Y-101922030D01*
X132100638Y-101922030D02*
X132001840Y-101798638D01*
X132001840Y-101798638D02*
X131471511Y-101268309D01*
D27*
X137276670Y-98574330D02*
X137276670Y-99393971D01*
X137276670Y-99393971D02*
X137549013Y-99666314D01*
D30*
X137549013Y-100151247D02*
X137549013Y-99666314D01*
X137549013Y-100281975D02*
X137549013Y-100151247D01*
X136916233Y-100914755D02*
X137549013Y-100281975D01*
D27*
X140716000Y-100148000D02*
X140716000Y-99441000D01*
X141351000Y-102141000D02*
X141351000Y-100783000D01*
X141351000Y-100783000D02*
X140716000Y-100148000D01*
D28*
X140289875Y-108285875D02*
X139954000Y-107950000D01*
X138835000Y-110363000D02*
X139221800Y-110363000D01*
X139221800Y-110363000D02*
X140289875Y-109294925D01*
X140289875Y-109294925D02*
X140289875Y-108285875D01*
D30*
X130764404Y-107066584D02*
X131336848Y-106494140D01*
D27*
X142621000Y-102141000D02*
X141351000Y-102141000D01*
D28*
X139954000Y-107950000D02*
X139954000Y-106215264D01*
X139954000Y-106215264D02*
X139391107Y-105652371D01*
X128270000Y-98803000D02*
X128924055Y-98148945D01*
X128924055Y-98148945D02*
X131887681Y-98148945D01*
X131887681Y-98148945D02*
X133239278Y-99500542D01*
X126492000Y-98425000D02*
X127892000Y-98425000D01*
X127892000Y-98425000D02*
X128270000Y-98803000D01*
X129156600Y-100203000D02*
X130033562Y-99326038D01*
X130033562Y-99326038D02*
X130925395Y-99326038D01*
X131036105Y-99436748D02*
X131830252Y-99436748D01*
X131943234Y-99323766D02*
X132355396Y-99323766D01*
X128270000Y-100203000D02*
X129156600Y-100203000D01*
X131830252Y-99436748D02*
X131943234Y-99323766D01*
X132355396Y-99323766D02*
X132885725Y-99854095D01*
X130925395Y-99326038D02*
X131036105Y-99436748D01*
X128270000Y-100203000D02*
X128520000Y-100203000D01*
X132709724Y-99678094D02*
X132885725Y-99854095D01*
X126492000Y-99568000D02*
X127635000Y-99568000D01*
X127635000Y-99568000D02*
X128270000Y-100203000D01*
X126492000Y-99568000D02*
X126738078Y-99568000D01*
D29*
X135595742Y-104933731D02*
X135976082Y-104553391D01*
X135976082Y-103687492D02*
X135976082Y-103202559D01*
X133467624Y-107429225D02*
X135595742Y-105301107D01*
X133467624Y-107838676D02*
X133467624Y-107429225D01*
X135976082Y-104553391D02*
X135976082Y-103687492D01*
X135595742Y-105301107D02*
X135595742Y-104933731D01*
X133641172Y-107838676D02*
X133467624Y-107838676D01*
X134515675Y-108713179D02*
X133641172Y-107838676D01*
X135855573Y-109187905D02*
X135380847Y-108713179D01*
X135380847Y-108713179D02*
X134515675Y-108713179D01*
X121956084Y-100017074D02*
X120165674Y-100017074D01*
X120165674Y-100017074D02*
X119507000Y-99358400D01*
X119507000Y-99358400D02*
X119507000Y-98806000D01*
D28*
X148197000Y-99949000D02*
X148197000Y-98691000D01*
X148197000Y-98691000D02*
X148209000Y-98679000D01*
D29*
X135502020Y-99500542D02*
X135988535Y-99014027D01*
X135988535Y-99014027D02*
X135988535Y-98814983D01*
X135988535Y-98814983D02*
X136728119Y-98075399D01*
X145452999Y-98075399D02*
X146056600Y-98679000D01*
X136728119Y-98075399D02*
X145452999Y-98075399D01*
X146056600Y-98679000D02*
X146609000Y-98679000D01*
D28*
X148158000Y-110363000D02*
X148158000Y-109120000D01*
X148158000Y-109120000D02*
X148185000Y-109093000D01*
D29*
X142531157Y-103992980D02*
X142188258Y-103650081D01*
X145802040Y-105758211D02*
X144296388Y-105758211D01*
X144296388Y-105758211D02*
X142531157Y-103992980D01*
X138684000Y-102682522D02*
X139107064Y-102259458D01*
X140007993Y-102325029D02*
X140350892Y-102667928D01*
X139942422Y-102259458D02*
X140007993Y-102325029D01*
X139107064Y-102259458D02*
X139942422Y-102259458D01*
X130410851Y-102328969D02*
X129496844Y-101414962D01*
X129496844Y-101414962D02*
X129496844Y-101335109D01*
X132676039Y-110391508D02*
X132676039Y-110104697D01*
X132676039Y-110104697D02*
X133239278Y-109541458D01*
X140081000Y-112141000D02*
X140980999Y-111241001D01*
X140980999Y-111241001D02*
X141137481Y-111241001D01*
X141137481Y-111241001D02*
X141986036Y-110392446D01*
X141986036Y-110392446D02*
X141986036Y-107071379D01*
X141986036Y-107071379D02*
X141986036Y-106586446D01*
X135697374Y-108103559D02*
X135155799Y-108103559D01*
X136916233Y-108127245D02*
X136385904Y-107596916D01*
X134953535Y-107901295D02*
X134610636Y-107558396D01*
X135155799Y-108103559D02*
X134953535Y-107901295D01*
X136204017Y-107596916D02*
X135697374Y-108103559D01*
X136385904Y-107596916D02*
X136204017Y-107596916D01*
X137269787Y-107773691D02*
X136739458Y-107243362D01*
X136739458Y-107243362D02*
X135737130Y-107243362D01*
X135737130Y-107243362D02*
X135448434Y-107532058D01*
X143122917Y-107967204D02*
X142780018Y-107624305D01*
X143199542Y-111562458D02*
X143199542Y-108043829D01*
X142621000Y-112141000D02*
X143199542Y-111562458D01*
X143199542Y-108043829D02*
X143122917Y-107967204D01*
X125136863Y-110707588D02*
X126591863Y-109252588D01*
X124173016Y-110707588D02*
X125136863Y-110707588D01*
X129526969Y-106889807D02*
X130057298Y-106359478D01*
X127360588Y-108027863D02*
X128498644Y-106889807D01*
X119761000Y-112141000D02*
X120939204Y-110962796D01*
X127350997Y-108885426D02*
X127350997Y-108180745D01*
X126983835Y-109252588D02*
X127350997Y-108885426D01*
X127350997Y-108180745D02*
X127360588Y-108171154D01*
X126591863Y-109252588D02*
X126983835Y-109252588D01*
X123917807Y-110962796D02*
X124173016Y-110707588D01*
X120939204Y-110962796D02*
X123917807Y-110962796D01*
X127360588Y-108171154D02*
X127360588Y-108027863D01*
X128498644Y-106889807D02*
X129526969Y-106889807D01*
X126718119Y-109557399D02*
X125263119Y-111012399D01*
X130410851Y-106713031D02*
X129728226Y-107395656D01*
X127655808Y-108248851D02*
X127655808Y-109011682D01*
X127655808Y-109011682D02*
X127110091Y-109557399D01*
X124299272Y-111012399D02*
X123170670Y-112141000D01*
X128509003Y-107395656D02*
X127655808Y-108248851D01*
X127110091Y-109557399D02*
X126718119Y-109557399D01*
X129728226Y-107395656D02*
X128509003Y-107395656D01*
X123170670Y-112141000D02*
X122301000Y-112141000D01*
X125263119Y-111012399D02*
X124299272Y-111012399D01*
X128111601Y-103137477D02*
X128111601Y-104413645D01*
X129703744Y-103036076D02*
X129173415Y-102505747D01*
X128743331Y-102505747D02*
X128111601Y-103137477D01*
X129173415Y-102505747D02*
X128743331Y-102505747D01*
X128111601Y-104413645D02*
X128218933Y-104520977D01*
X128218933Y-104520977D02*
X128561832Y-104863876D01*
X129350191Y-103389629D02*
X128705336Y-104034484D01*
X128705336Y-104034484D02*
X128683111Y-104034484D01*
X137623340Y-107420138D02*
X138153669Y-107950467D01*
X137811911Y-109249288D02*
X136616998Y-110444201D01*
X138153669Y-107950467D02*
X138153669Y-108465628D01*
X131968661Y-110963009D02*
X131690669Y-111241001D01*
X138153669Y-108465628D02*
X137811911Y-108807386D01*
X136616998Y-110444201D02*
X133466955Y-110444201D01*
X137811911Y-108807386D02*
X137811911Y-109249288D01*
X133466955Y-110444201D02*
X132948147Y-110963009D01*
X131690669Y-111241001D02*
X130820999Y-111241001D01*
X130820999Y-111241001D02*
X129921000Y-112141000D01*
X132948147Y-110963009D02*
X131968661Y-110963009D01*
X127151000Y-110236000D02*
X127553400Y-110236000D01*
X127553400Y-110236000D02*
X128558401Y-111241001D01*
X128558401Y-111241001D02*
X129021001Y-111241001D01*
X129021001Y-111241001D02*
X129921000Y-112141000D01*
X130145601Y-111916399D02*
X129921000Y-112141000D01*
X131167000Y-110236000D02*
X131167000Y-110423551D01*
X131167000Y-110423551D02*
X131390498Y-110647049D01*
X132461000Y-112141000D02*
X133852989Y-110749011D01*
X133852989Y-110749011D02*
X136743255Y-110749010D01*
X136743255Y-110749010D02*
X138116722Y-109375543D01*
X138116722Y-109375543D02*
X138116722Y-109123032D01*
X138116722Y-108933642D02*
X138116722Y-109123032D01*
X137976894Y-107066584D02*
X138507223Y-107596913D01*
X138507223Y-107596913D02*
X138507223Y-108543141D01*
X138507223Y-108543141D02*
X138116722Y-108933642D01*
X131471511Y-107773691D02*
X132001840Y-107243362D01*
X132354980Y-107243362D02*
X134681309Y-104917033D01*
X134681309Y-104917033D02*
X134681309Y-104554963D01*
X134681309Y-104554963D02*
X134684743Y-104551529D01*
X134684743Y-102197231D02*
X133919214Y-101431702D01*
X133919214Y-101431702D02*
X133919214Y-100946769D01*
X134684743Y-104551529D02*
X134684743Y-102197231D01*
X132001840Y-107243362D02*
X132354980Y-107243362D01*
X134986120Y-104681219D02*
X134989554Y-104677785D01*
X134490715Y-101328718D02*
X134490715Y-100636573D01*
X134418963Y-100564821D02*
X134418963Y-99273619D01*
X134989554Y-104677785D02*
X134989554Y-101827557D01*
X131825065Y-108127245D02*
X132355394Y-107596916D01*
X134490715Y-100636573D02*
X134418963Y-100564821D01*
X132355394Y-107596916D02*
X132432493Y-107596916D01*
X134989554Y-101827557D02*
X134490715Y-101328718D01*
X134986120Y-105043289D02*
X134986120Y-104681219D01*
X134418963Y-99273619D02*
X134175680Y-99030336D01*
X132432493Y-107596916D02*
X134986120Y-105043289D01*
X132708947Y-107950469D02*
X132708947Y-107751529D01*
X132178618Y-108480798D02*
X132708947Y-107950469D01*
X134837981Y-99182375D02*
X135180880Y-98839476D01*
X134723774Y-99296582D02*
X134837981Y-99182375D01*
X134795526Y-101186343D02*
X134795526Y-100510317D01*
X135294365Y-101685182D02*
X134795526Y-101186343D01*
X135294365Y-104804041D02*
X135294365Y-101685182D01*
X134723774Y-100438565D02*
X134723774Y-99296582D01*
X134795526Y-100510317D02*
X134723774Y-100438565D01*
X132708947Y-107751529D02*
X135290931Y-105169545D01*
X135290931Y-105169545D02*
X135290931Y-104807475D01*
X135290931Y-104807475D02*
X135294365Y-104804041D01*
X135900553Y-105059987D02*
X136601567Y-104358973D01*
X136601567Y-104358973D02*
X139160934Y-104358973D01*
X134039126Y-107805561D02*
X134039126Y-107288790D01*
X135900553Y-105427363D02*
X135900553Y-105059987D01*
X135507103Y-108408368D02*
X134641933Y-108408368D01*
X139160934Y-104358973D02*
X139645867Y-104358973D01*
X134039126Y-107288790D02*
X135900553Y-105427363D01*
X134641933Y-108408368D02*
X134039126Y-107805561D01*
X136209127Y-108834351D02*
X135783145Y-108408369D01*
X135783145Y-108408369D02*
X135507103Y-108408368D01*
X130057298Y-102682522D02*
X130480362Y-103105586D01*
X130480362Y-104022118D02*
X128188694Y-106313786D01*
X130480362Y-103105586D02*
X130480362Y-104022118D01*
X128188694Y-106313786D02*
X128188694Y-106768690D01*
X127055777Y-107901607D02*
X127055777Y-108018080D01*
X128188694Y-106768690D02*
X127055777Y-107901607D01*
X127055777Y-108018080D02*
X126779480Y-108294377D01*
X126779480Y-108294377D02*
X126779480Y-108611121D01*
X136562680Y-100561202D02*
X135907781Y-101216101D01*
X135907781Y-101216101D02*
X135907781Y-101524092D01*
X136209127Y-100207649D02*
X135533148Y-100883628D01*
X135533148Y-100883628D02*
X135367036Y-100883628D01*
X129350191Y-105652371D02*
X131064631Y-103937931D01*
X131064631Y-103937931D02*
X132054683Y-103937931D01*
X132054683Y-103937931D02*
X132539616Y-103937931D01*
X145161000Y-102141000D02*
X145161000Y-103517699D01*
X144272920Y-103525320D02*
X144288778Y-103525320D01*
X143891000Y-103143400D02*
X144272920Y-103525320D01*
X143891000Y-102141000D02*
X143891000Y-103143400D01*
X132030011Y-105475595D02*
X130234073Y-105475595D01*
X130234073Y-105475595D02*
X129703744Y-106005924D01*
X133345204Y-104160402D02*
X132030011Y-105475595D01*
X133345204Y-103099306D02*
X133345204Y-104160402D01*
X134491994Y-109413046D02*
X134834893Y-109755945D01*
X132532171Y-108834351D02*
X132956333Y-108410189D01*
X134491994Y-109120565D02*
X134491994Y-109413046D01*
X133781618Y-108410189D02*
X134491994Y-109120565D01*
X132956333Y-108410189D02*
X133781618Y-108410189D01*
X140926840Y-109571160D02*
X141293925Y-109571160D01*
X140335000Y-110163000D02*
X140926840Y-109571160D01*
X140335000Y-110363000D02*
X140335000Y-110163000D01*
X132885725Y-109187905D02*
X133308790Y-108764840D01*
X133308790Y-108764840D02*
X133705204Y-108764840D01*
X133705204Y-108764840D02*
X134174998Y-109234635D01*
X134174998Y-109234635D02*
X134174998Y-109638511D01*
X134174998Y-109638511D02*
X133940818Y-109872691D01*
D28*
G36*
X144297673Y-110650698D02*
X144476301Y-110829327D01*
X144709690Y-110926000D01*
X144875250Y-110926000D01*
X145033998Y-110767252D01*
X145033998Y-110913889D01*
X144918005Y-110913788D01*
X144466869Y-111100194D01*
X144121407Y-111445053D01*
X143934214Y-111895864D01*
X143933788Y-112383995D01*
X144120194Y-112835131D01*
X144187945Y-112903000D01*
X143594424Y-112903000D01*
X143660593Y-112836947D01*
X143847786Y-112386136D01*
X143848212Y-111898005D01*
X143661806Y-111446869D01*
X143602742Y-111387702D01*
X143602742Y-110624406D01*
X144216000Y-110624406D01*
X144281665Y-110612051D01*
X144297673Y-110650698D01*
X144297673Y-110650698D01*
G37*
X144297673Y-110650698D02*
X144476301Y-110829327D01*
X144709690Y-110926000D01*
X144875250Y-110926000D01*
X145033998Y-110767252D01*
X145033998Y-110913889D01*
X144918005Y-110913788D01*
X144466869Y-111100194D01*
X144121407Y-111445053D01*
X143934214Y-111895864D01*
X143933788Y-112383995D01*
X144120194Y-112835131D01*
X144187945Y-112903000D01*
X143594424Y-112903000D01*
X143660593Y-112836947D01*
X143847786Y-112386136D01*
X143848212Y-111898005D01*
X143661806Y-111446869D01*
X143602742Y-111387702D01*
X143602742Y-110624406D01*
X144216000Y-110624406D01*
X144281665Y-110612051D01*
X144297673Y-110650698D01*
G36*
X126567594Y-110686000D02*
X126588200Y-110795514D01*
X126566852Y-110804357D01*
X126480446Y-111060841D01*
X127381000Y-111961395D01*
X127395143Y-111947253D01*
X127574748Y-112126858D01*
X127560605Y-112141000D01*
X127574748Y-112155143D01*
X127395143Y-112334748D01*
X127381000Y-112320605D01*
X127366858Y-112334748D01*
X127187253Y-112155143D01*
X127201395Y-112141000D01*
X126300841Y-111240446D01*
X126111000Y-111304401D01*
X125921159Y-111240446D01*
X125020605Y-112141000D01*
X125034748Y-112155143D01*
X124855143Y-112334748D01*
X124841000Y-112320605D01*
X124826858Y-112334748D01*
X124647253Y-112155143D01*
X124661395Y-112141000D01*
X124647253Y-112126858D01*
X124826858Y-111947253D01*
X124841000Y-111961395D01*
X125417631Y-111384764D01*
X125548224Y-111297504D01*
X126567594Y-110278135D01*
X126567594Y-110686000D01*
X126567594Y-110686000D01*
G37*
X126567594Y-110686000D02*
X126588200Y-110795514D01*
X126566852Y-110804357D01*
X126480446Y-111060841D01*
X127381000Y-111961395D01*
X127395143Y-111947253D01*
X127574748Y-112126858D01*
X127560605Y-112141000D01*
X127574748Y-112155143D01*
X127395143Y-112334748D01*
X127381000Y-112320605D01*
X127366858Y-112334748D01*
X127187253Y-112155143D01*
X127201395Y-112141000D01*
X126300841Y-111240446D01*
X126111000Y-111304401D01*
X125921159Y-111240446D01*
X125020605Y-112141000D01*
X125034748Y-112155143D01*
X124855143Y-112334748D01*
X124841000Y-112320605D01*
X124826858Y-112334748D01*
X124647253Y-112155143D01*
X124661395Y-112141000D01*
X124647253Y-112126858D01*
X124826858Y-111947253D01*
X124841000Y-111961395D01*
X125417631Y-111384764D01*
X125548224Y-111297504D01*
X126567594Y-110278135D01*
X126567594Y-110686000D01*
G36*
X148490672Y-105586000D02*
X147859750Y-105586000D01*
X147701000Y-105744750D01*
X147701000Y-107094000D01*
X147721000Y-107094000D01*
X147721000Y-107348000D01*
X147701000Y-107348000D01*
X147701000Y-108406245D01*
X147627862Y-108513286D01*
X147601594Y-108643000D01*
X147601594Y-109543000D01*
X147623759Y-109660800D01*
X147525526Y-109724012D01*
X147450862Y-109833286D01*
X147424594Y-109963000D01*
X147424594Y-110763000D01*
X147447395Y-110884179D01*
X147466453Y-110913795D01*
X147458005Y-110913788D01*
X147093460Y-111064415D01*
X147190474Y-111001988D01*
X147265138Y-110892714D01*
X147291406Y-110763000D01*
X147291406Y-109963000D01*
X147268605Y-109841821D01*
X147199728Y-109734783D01*
X147242138Y-109672714D01*
X147268406Y-109543000D01*
X147268406Y-108856000D01*
X147288250Y-108856000D01*
X147447000Y-108697250D01*
X147447000Y-107348000D01*
X147427000Y-107348000D01*
X147427000Y-107094000D01*
X147447000Y-107094000D01*
X147447000Y-105744750D01*
X147288250Y-105586000D01*
X146647690Y-105586000D01*
X146472027Y-105658762D01*
X146472056Y-105625544D01*
X146370285Y-105379239D01*
X146182003Y-105190629D01*
X145935876Y-105088428D01*
X145669373Y-105088195D01*
X145423068Y-105189966D01*
X145257735Y-105355011D01*
X144463399Y-105355011D01*
X143232943Y-104124556D01*
X143245543Y-104124567D01*
X143673081Y-104552105D01*
X143803888Y-104639508D01*
X143958186Y-104670200D01*
X146280400Y-104670200D01*
X146434698Y-104639508D01*
X146565505Y-104552105D01*
X147859106Y-103258505D01*
X147928662Y-103154406D01*
X148374000Y-103154406D01*
X148495179Y-103131605D01*
X148499807Y-103128627D01*
X148490672Y-105586000D01*
X148490672Y-105586000D01*
G37*
X148490672Y-105586000D02*
X147859750Y-105586000D01*
X147701000Y-105744750D01*
X147701000Y-107094000D01*
X147721000Y-107094000D01*
X147721000Y-107348000D01*
X147701000Y-107348000D01*
X147701000Y-108406245D01*
X147627862Y-108513286D01*
X147601594Y-108643000D01*
X147601594Y-109543000D01*
X147623759Y-109660800D01*
X147525526Y-109724012D01*
X147450862Y-109833286D01*
X147424594Y-109963000D01*
X147424594Y-110763000D01*
X147447395Y-110884179D01*
X147466453Y-110913795D01*
X147458005Y-110913788D01*
X147093460Y-111064415D01*
X147190474Y-111001988D01*
X147265138Y-110892714D01*
X147291406Y-110763000D01*
X147291406Y-109963000D01*
X147268605Y-109841821D01*
X147199728Y-109734783D01*
X147242138Y-109672714D01*
X147268406Y-109543000D01*
X147268406Y-108856000D01*
X147288250Y-108856000D01*
X147447000Y-108697250D01*
X147447000Y-107348000D01*
X147427000Y-107348000D01*
X147427000Y-107094000D01*
X147447000Y-107094000D01*
X147447000Y-105744750D01*
X147288250Y-105586000D01*
X146647690Y-105586000D01*
X146472027Y-105658762D01*
X146472056Y-105625544D01*
X146370285Y-105379239D01*
X146182003Y-105190629D01*
X145935876Y-105088428D01*
X145669373Y-105088195D01*
X145423068Y-105189966D01*
X145257735Y-105355011D01*
X144463399Y-105355011D01*
X143232943Y-104124556D01*
X143245543Y-104124567D01*
X143673081Y-104552105D01*
X143803888Y-104639508D01*
X143958186Y-104670200D01*
X146280400Y-104670200D01*
X146434698Y-104639508D01*
X146565505Y-104552105D01*
X147859106Y-103258505D01*
X147928662Y-103154406D01*
X148374000Y-103154406D01*
X148495179Y-103131605D01*
X148499807Y-103128627D01*
X148490672Y-105586000D01*
G36*
X129921000Y-108585000D02*
X130576610Y-108585000D01*
X130620418Y-108603146D01*
X130873037Y-108603145D01*
X130909372Y-108588095D01*
X130966336Y-108627016D01*
X130970849Y-108627995D01*
X131041303Y-108734230D01*
X131218080Y-108911007D01*
X131319890Y-108980570D01*
X131324403Y-108981549D01*
X131394856Y-109087783D01*
X131571633Y-109264560D01*
X131673443Y-109334123D01*
X131677956Y-109335102D01*
X131748409Y-109441336D01*
X131925186Y-109618113D01*
X132026996Y-109687676D01*
X132031509Y-109688655D01*
X132101963Y-109794890D01*
X132213629Y-109906556D01*
X132108457Y-110011545D01*
X132006256Y-110257672D01*
X132006147Y-110382803D01*
X131958743Y-110268077D01*
X131770461Y-110079467D01*
X131750406Y-110071139D01*
X131750406Y-109786000D01*
X131727605Y-109664821D01*
X131655988Y-109553526D01*
X131546714Y-109478862D01*
X131417000Y-109452594D01*
X130917000Y-109452594D01*
X130795821Y-109475395D01*
X130684526Y-109547012D01*
X130609862Y-109656286D01*
X130583594Y-109786000D01*
X130583594Y-110686000D01*
X130606395Y-110807179D01*
X130652119Y-110878236D01*
X130535894Y-110955895D01*
X130456857Y-111034932D01*
X130166136Y-110914214D01*
X130156841Y-110914206D01*
X130224138Y-110815714D01*
X130250406Y-110686000D01*
X130250406Y-109786000D01*
X130238364Y-109722000D01*
X130320309Y-109722000D01*
X130553698Y-109625327D01*
X130732327Y-109446699D01*
X130829000Y-109213310D01*
X130829000Y-108997750D01*
X130670250Y-108839000D01*
X129921000Y-108839000D01*
X129921000Y-108859000D01*
X129667000Y-108859000D01*
X129667000Y-108839000D01*
X129647000Y-108839000D01*
X129647000Y-108585000D01*
X129667000Y-108585000D01*
X129667000Y-108565000D01*
X129921000Y-108565000D01*
X129921000Y-108585000D01*
X129921000Y-108585000D01*
G37*
X129921000Y-108585000D02*
X130576610Y-108585000D01*
X130620418Y-108603146D01*
X130873037Y-108603145D01*
X130909372Y-108588095D01*
X130966336Y-108627016D01*
X130970849Y-108627995D01*
X131041303Y-108734230D01*
X131218080Y-108911007D01*
X131319890Y-108980570D01*
X131324403Y-108981549D01*
X131394856Y-109087783D01*
X131571633Y-109264560D01*
X131673443Y-109334123D01*
X131677956Y-109335102D01*
X131748409Y-109441336D01*
X131925186Y-109618113D01*
X132026996Y-109687676D01*
X132031509Y-109688655D01*
X132101963Y-109794890D01*
X132213629Y-109906556D01*
X132108457Y-110011545D01*
X132006256Y-110257672D01*
X132006147Y-110382803D01*
X131958743Y-110268077D01*
X131770461Y-110079467D01*
X131750406Y-110071139D01*
X131750406Y-109786000D01*
X131727605Y-109664821D01*
X131655988Y-109553526D01*
X131546714Y-109478862D01*
X131417000Y-109452594D01*
X130917000Y-109452594D01*
X130795821Y-109475395D01*
X130684526Y-109547012D01*
X130609862Y-109656286D01*
X130583594Y-109786000D01*
X130583594Y-110686000D01*
X130606395Y-110807179D01*
X130652119Y-110878236D01*
X130535894Y-110955895D01*
X130456857Y-111034932D01*
X130166136Y-110914214D01*
X130156841Y-110914206D01*
X130224138Y-110815714D01*
X130250406Y-110686000D01*
X130250406Y-109786000D01*
X130238364Y-109722000D01*
X130320309Y-109722000D01*
X130553698Y-109625327D01*
X130732327Y-109446699D01*
X130829000Y-109213310D01*
X130829000Y-108997750D01*
X130670250Y-108839000D01*
X129921000Y-108839000D01*
X129921000Y-108859000D01*
X129667000Y-108859000D01*
X129667000Y-108839000D01*
X129647000Y-108839000D01*
X129647000Y-108585000D01*
X129667000Y-108585000D01*
X129667000Y-108565000D01*
X129921000Y-108565000D01*
X129921000Y-108585000D01*
G36*
X123801594Y-106651000D02*
X123824395Y-106772179D01*
X123896012Y-106883474D01*
X124005286Y-106958138D01*
X124135000Y-106984406D01*
X124752160Y-106984406D01*
X124698133Y-107114518D01*
X124697900Y-107381021D01*
X124799671Y-107627326D01*
X124987953Y-107815936D01*
X125234080Y-107918137D01*
X125500583Y-107918370D01*
X125746888Y-107816599D01*
X125935498Y-107628317D01*
X126024890Y-107413038D01*
X126453522Y-106984406D01*
X126685000Y-106984406D01*
X126806179Y-106961605D01*
X126917474Y-106889988D01*
X126949840Y-106842620D01*
X127003286Y-106879138D01*
X127133000Y-106905406D01*
X127481767Y-106905406D01*
X126770672Y-107616502D01*
X126683269Y-107747309D01*
X126665126Y-107838521D01*
X126503204Y-108000443D01*
X126400508Y-108042876D01*
X126265759Y-108177391D01*
X126235714Y-108156862D01*
X126106000Y-108130594D01*
X125306000Y-108130594D01*
X125184821Y-108153395D01*
X125168905Y-108163637D01*
X125144327Y-108104301D01*
X124965698Y-107925673D01*
X124732309Y-107829000D01*
X124491750Y-107829000D01*
X124333000Y-107987750D01*
X124333000Y-108712000D01*
X124353000Y-108712000D01*
X124353000Y-108966000D01*
X124333000Y-108966000D01*
X124333000Y-108986000D01*
X124079000Y-108986000D01*
X124079000Y-108966000D01*
X123329750Y-108966000D01*
X123171000Y-109124750D01*
X123171000Y-109340310D01*
X123223257Y-109466469D01*
X123175821Y-109475395D01*
X123064526Y-109547012D01*
X122989862Y-109656286D01*
X122963594Y-109786000D01*
X122963594Y-110559596D01*
X122630406Y-110559596D01*
X122630406Y-109786000D01*
X122607605Y-109664821D01*
X122535988Y-109553526D01*
X122426714Y-109478862D01*
X122297000Y-109452594D01*
X121797000Y-109452594D01*
X121675821Y-109475395D01*
X121594164Y-109527941D01*
X121469000Y-109502594D01*
X120669000Y-109502594D01*
X120547821Y-109525395D01*
X120452950Y-109586444D01*
X120407327Y-109476301D01*
X120228698Y-109297673D01*
X119995309Y-109201000D01*
X119754750Y-109201000D01*
X119596000Y-109359750D01*
X119596000Y-110109000D01*
X119616000Y-110109000D01*
X119616000Y-110363000D01*
X119596000Y-110363000D01*
X119596000Y-110383000D01*
X119342000Y-110383000D01*
X119342000Y-110363000D01*
X119322000Y-110363000D01*
X119322000Y-110109000D01*
X119342000Y-110109000D01*
X119342000Y-109359750D01*
X119183250Y-109201000D01*
X118999000Y-109201000D01*
X118999000Y-108951400D01*
X119001500Y-108951906D01*
X120901500Y-108951906D01*
X121022679Y-108929105D01*
X121133974Y-108857488D01*
X121208638Y-108748214D01*
X121234906Y-108618500D01*
X121234906Y-108054406D01*
X123301500Y-108054406D01*
X123321292Y-108050682D01*
X123267673Y-108104301D01*
X123171000Y-108337690D01*
X123171000Y-108553250D01*
X123329750Y-108712000D01*
X124079000Y-108712000D01*
X124079000Y-107987750D01*
X123920250Y-107829000D01*
X123679691Y-107829000D01*
X123601284Y-107861477D01*
X123608638Y-107850714D01*
X123634906Y-107721000D01*
X123634906Y-106595218D01*
X123661198Y-106584327D01*
X123801594Y-106443932D01*
X123801594Y-106651000D01*
X123801594Y-106651000D01*
G37*
X123801594Y-106651000D02*
X123824395Y-106772179D01*
X123896012Y-106883474D01*
X124005286Y-106958138D01*
X124135000Y-106984406D01*
X124752160Y-106984406D01*
X124698133Y-107114518D01*
X124697900Y-107381021D01*
X124799671Y-107627326D01*
X124987953Y-107815936D01*
X125234080Y-107918137D01*
X125500583Y-107918370D01*
X125746888Y-107816599D01*
X125935498Y-107628317D01*
X126024890Y-107413038D01*
X126453522Y-106984406D01*
X126685000Y-106984406D01*
X126806179Y-106961605D01*
X126917474Y-106889988D01*
X126949840Y-106842620D01*
X127003286Y-106879138D01*
X127133000Y-106905406D01*
X127481767Y-106905406D01*
X126770672Y-107616502D01*
X126683269Y-107747309D01*
X126665126Y-107838521D01*
X126503204Y-108000443D01*
X126400508Y-108042876D01*
X126265759Y-108177391D01*
X126235714Y-108156862D01*
X126106000Y-108130594D01*
X125306000Y-108130594D01*
X125184821Y-108153395D01*
X125168905Y-108163637D01*
X125144327Y-108104301D01*
X124965698Y-107925673D01*
X124732309Y-107829000D01*
X124491750Y-107829000D01*
X124333000Y-107987750D01*
X124333000Y-108712000D01*
X124353000Y-108712000D01*
X124353000Y-108966000D01*
X124333000Y-108966000D01*
X124333000Y-108986000D01*
X124079000Y-108986000D01*
X124079000Y-108966000D01*
X123329750Y-108966000D01*
X123171000Y-109124750D01*
X123171000Y-109340310D01*
X123223257Y-109466469D01*
X123175821Y-109475395D01*
X123064526Y-109547012D01*
X122989862Y-109656286D01*
X122963594Y-109786000D01*
X122963594Y-110559596D01*
X122630406Y-110559596D01*
X122630406Y-109786000D01*
X122607605Y-109664821D01*
X122535988Y-109553526D01*
X122426714Y-109478862D01*
X122297000Y-109452594D01*
X121797000Y-109452594D01*
X121675821Y-109475395D01*
X121594164Y-109527941D01*
X121469000Y-109502594D01*
X120669000Y-109502594D01*
X120547821Y-109525395D01*
X120452950Y-109586444D01*
X120407327Y-109476301D01*
X120228698Y-109297673D01*
X119995309Y-109201000D01*
X119754750Y-109201000D01*
X119596000Y-109359750D01*
X119596000Y-110109000D01*
X119616000Y-110109000D01*
X119616000Y-110363000D01*
X119596000Y-110363000D01*
X119596000Y-110383000D01*
X119342000Y-110383000D01*
X119342000Y-110363000D01*
X119322000Y-110363000D01*
X119322000Y-110109000D01*
X119342000Y-110109000D01*
X119342000Y-109359750D01*
X119183250Y-109201000D01*
X118999000Y-109201000D01*
X118999000Y-108951400D01*
X119001500Y-108951906D01*
X120901500Y-108951906D01*
X121022679Y-108929105D01*
X121133974Y-108857488D01*
X121208638Y-108748214D01*
X121234906Y-108618500D01*
X121234906Y-108054406D01*
X123301500Y-108054406D01*
X123321292Y-108050682D01*
X123267673Y-108104301D01*
X123171000Y-108337690D01*
X123171000Y-108553250D01*
X123329750Y-108712000D01*
X124079000Y-108712000D01*
X124079000Y-107987750D01*
X123920250Y-107829000D01*
X123679691Y-107829000D01*
X123601284Y-107861477D01*
X123608638Y-107850714D01*
X123634906Y-107721000D01*
X123634906Y-106595218D01*
X123661198Y-106584327D01*
X123801594Y-106443932D01*
X123801594Y-106651000D01*
G36*
X125176286Y-109521138D02*
X125306000Y-109547406D01*
X125726834Y-109547406D01*
X124969853Y-110304388D01*
X124375143Y-110304388D01*
X124441119Y-110145500D01*
X124441352Y-109878997D01*
X124384743Y-109741993D01*
X124491750Y-109849000D01*
X124732309Y-109849000D01*
X124965698Y-109752327D01*
X125144327Y-109573699D01*
X125168346Y-109515713D01*
X125176286Y-109521138D01*
X125176286Y-109521138D01*
G37*
X125176286Y-109521138D02*
X125306000Y-109547406D01*
X125726834Y-109547406D01*
X124969853Y-110304388D01*
X124375143Y-110304388D01*
X124441119Y-110145500D01*
X124441352Y-109878997D01*
X124384743Y-109741993D01*
X124491750Y-109849000D01*
X124732309Y-109849000D01*
X124965698Y-109752327D01*
X125144327Y-109573699D01*
X125168346Y-109515713D01*
X125176286Y-109521138D01*
G36*
X145322756Y-107866309D02*
X145322756Y-108079994D01*
X145288000Y-108114750D01*
X145288000Y-109314000D01*
X145308000Y-109314000D01*
X145308000Y-109568000D01*
X145288000Y-109568000D01*
X145288000Y-109588000D01*
X145034000Y-109588000D01*
X145034000Y-109568000D01*
X145014000Y-109568000D01*
X145014000Y-109314000D01*
X145034000Y-109314000D01*
X145034000Y-108114750D01*
X144875250Y-107956000D01*
X144709690Y-107956000D01*
X144476301Y-108052673D01*
X144472000Y-108056974D01*
X144472000Y-107908075D01*
X144563060Y-107817015D01*
X145273462Y-107817015D01*
X145322756Y-107866309D01*
X145322756Y-107866309D01*
G37*
X145322756Y-107866309D02*
X145322756Y-108079994D01*
X145288000Y-108114750D01*
X145288000Y-109314000D01*
X145308000Y-109314000D01*
X145308000Y-109568000D01*
X145288000Y-109568000D01*
X145288000Y-109588000D01*
X145034000Y-109588000D01*
X145034000Y-109568000D01*
X145014000Y-109568000D01*
X145014000Y-109314000D01*
X145034000Y-109314000D01*
X145034000Y-108114750D01*
X144875250Y-107956000D01*
X144709690Y-107956000D01*
X144476301Y-108052673D01*
X144472000Y-108056974D01*
X144472000Y-107908075D01*
X144563060Y-107817015D01*
X145273462Y-107817015D01*
X145322756Y-107866309D01*
G36*
X139087088Y-108996518D02*
X139072945Y-109010660D01*
X139087088Y-109024803D01*
X138907483Y-109204408D01*
X138893340Y-109190265D01*
X138879198Y-109204408D01*
X138699593Y-109024803D01*
X138713735Y-109010660D01*
X138699593Y-108996518D01*
X138879198Y-108816913D01*
X138893340Y-108831055D01*
X138907483Y-108816913D01*
X139087088Y-108996518D01*
X139087088Y-108996518D01*
G37*
X139087088Y-108996518D02*
X139072945Y-109010660D01*
X139087088Y-109024803D01*
X138907483Y-109204408D01*
X138893340Y-109190265D01*
X138879198Y-109204408D01*
X138699593Y-109024803D01*
X138713735Y-109010660D01*
X138699593Y-108996518D01*
X138879198Y-108816913D01*
X138893340Y-108831055D01*
X138907483Y-108816913D01*
X139087088Y-108996518D01*
G36*
X141808295Y-104217663D02*
X142054422Y-104319864D01*
X142288035Y-104320068D01*
X144011283Y-106043317D01*
X144133263Y-106124821D01*
X144142090Y-106130719D01*
X144296388Y-106161411D01*
X145257981Y-106161411D01*
X145422077Y-106325793D01*
X145668204Y-106427994D01*
X145934707Y-106428227D01*
X146139000Y-106343815D01*
X146139000Y-106935250D01*
X146297748Y-107093998D01*
X146193761Y-107093998D01*
X145924949Y-106825186D01*
X145736459Y-106699241D01*
X145514120Y-106655015D01*
X144322402Y-106655015D01*
X144100063Y-106699241D01*
X144057738Y-106727522D01*
X142651419Y-105321203D01*
X142462929Y-105195258D01*
X142240590Y-105151032D01*
X141769391Y-105151032D01*
X141769391Y-104178691D01*
X141808295Y-104217663D01*
X141808295Y-104217663D01*
G37*
X141808295Y-104217663D02*
X142054422Y-104319864D01*
X142288035Y-104320068D01*
X144011283Y-106043317D01*
X144133263Y-106124821D01*
X144142090Y-106130719D01*
X144296388Y-106161411D01*
X145257981Y-106161411D01*
X145422077Y-106325793D01*
X145668204Y-106427994D01*
X145934707Y-106428227D01*
X146139000Y-106343815D01*
X146139000Y-106935250D01*
X146297748Y-107093998D01*
X146193761Y-107093998D01*
X145924949Y-106825186D01*
X145736459Y-106699241D01*
X145514120Y-106655015D01*
X144322402Y-106655015D01*
X144100063Y-106699241D01*
X144057738Y-106727522D01*
X142651419Y-105321203D01*
X142462929Y-105195258D01*
X142240590Y-105151032D01*
X141769391Y-105151032D01*
X141769391Y-104178691D01*
X141808295Y-104217663D01*
G36*
X121588094Y-103446000D02*
X121607601Y-103549673D01*
X121588094Y-103646000D01*
X121588094Y-104096000D01*
X121607601Y-104199673D01*
X121588094Y-104296000D01*
X121588094Y-104746000D01*
X121607601Y-104849673D01*
X121588094Y-104946000D01*
X121588094Y-105046782D01*
X121561802Y-105057673D01*
X121383173Y-105236301D01*
X121286500Y-105469690D01*
X121286500Y-105549750D01*
X121445250Y-105708500D01*
X121818264Y-105708500D01*
X121921500Y-105729406D01*
X122758500Y-105729406D01*
X122758500Y-105912594D01*
X121234906Y-105912594D01*
X121234906Y-104773500D01*
X121212105Y-104652321D01*
X121140488Y-104541026D01*
X121112051Y-104521595D01*
X121133974Y-104507488D01*
X121208638Y-104398214D01*
X121234906Y-104268500D01*
X121234906Y-103129406D01*
X121588094Y-103129406D01*
X121588094Y-103446000D01*
X121588094Y-103446000D01*
G37*
X121588094Y-103446000D02*
X121607601Y-103549673D01*
X121588094Y-103646000D01*
X121588094Y-104096000D01*
X121607601Y-104199673D01*
X121588094Y-104296000D01*
X121588094Y-104746000D01*
X121607601Y-104849673D01*
X121588094Y-104946000D01*
X121588094Y-105046782D01*
X121561802Y-105057673D01*
X121383173Y-105236301D01*
X121286500Y-105469690D01*
X121286500Y-105549750D01*
X121445250Y-105708500D01*
X121818264Y-105708500D01*
X121921500Y-105729406D01*
X122758500Y-105729406D01*
X122758500Y-105912594D01*
X121234906Y-105912594D01*
X121234906Y-104773500D01*
X121212105Y-104652321D01*
X121140488Y-104541026D01*
X121112051Y-104521595D01*
X121133974Y-104507488D01*
X121208638Y-104398214D01*
X121234906Y-104268500D01*
X121234906Y-103129406D01*
X121588094Y-103129406D01*
X121588094Y-103446000D01*
G36*
X127635000Y-103505000D02*
X127655000Y-103505000D01*
X127655000Y-103759000D01*
X127635000Y-103759000D01*
X127635000Y-104545000D01*
X127655000Y-104545000D01*
X127655000Y-104799000D01*
X127635000Y-104799000D01*
X127635000Y-104819000D01*
X127381000Y-104819000D01*
X127381000Y-104799000D01*
X127361000Y-104799000D01*
X127361000Y-104545000D01*
X127381000Y-104545000D01*
X127381000Y-103759000D01*
X127361000Y-103759000D01*
X127361000Y-103505000D01*
X127381000Y-103505000D01*
X127381000Y-103485000D01*
X127635000Y-103485000D01*
X127635000Y-103505000D01*
X127635000Y-103505000D01*
G37*
X127635000Y-103505000D02*
X127655000Y-103505000D01*
X127655000Y-103759000D01*
X127635000Y-103759000D01*
X127635000Y-104545000D01*
X127655000Y-104545000D01*
X127655000Y-104799000D01*
X127635000Y-104799000D01*
X127635000Y-104819000D01*
X127381000Y-104819000D01*
X127381000Y-104799000D01*
X127361000Y-104799000D01*
X127361000Y-104545000D01*
X127381000Y-104545000D01*
X127381000Y-103759000D01*
X127361000Y-103759000D01*
X127361000Y-103505000D01*
X127381000Y-103505000D01*
X127381000Y-103485000D01*
X127635000Y-103485000D01*
X127635000Y-103505000D01*
G36*
X146317286Y-100706138D02*
X146447000Y-100732406D01*
X146458535Y-100732406D01*
X146440594Y-100821000D01*
X146440594Y-102821000D01*
X146463395Y-102942179D01*
X146535012Y-103053474D01*
X146644286Y-103128138D01*
X146774000Y-103154406D01*
X146822783Y-103154406D01*
X146113390Y-103863800D01*
X145742643Y-103863800D01*
X145830783Y-103651535D01*
X145831016Y-103385032D01*
X145748684Y-103185774D01*
X145793138Y-103120714D01*
X145819406Y-102991000D01*
X145819406Y-101291000D01*
X145796605Y-101169821D01*
X145760733Y-101114076D01*
X146228997Y-100645812D01*
X146317286Y-100706138D01*
X146317286Y-100706138D01*
G37*
X146317286Y-100706138D02*
X146447000Y-100732406D01*
X146458535Y-100732406D01*
X146440594Y-100821000D01*
X146440594Y-102821000D01*
X146463395Y-102942179D01*
X146535012Y-103053474D01*
X146644286Y-103128138D01*
X146774000Y-103154406D01*
X146822783Y-103154406D01*
X146113390Y-103863800D01*
X145742643Y-103863800D01*
X145830783Y-103651535D01*
X145831016Y-103385032D01*
X145748684Y-103185774D01*
X145793138Y-103120714D01*
X145819406Y-102991000D01*
X145819406Y-101291000D01*
X145796605Y-101169821D01*
X145760733Y-101114076D01*
X146228997Y-100645812D01*
X146317286Y-100706138D01*
G36*
X125537000Y-103044000D02*
X125557000Y-103044000D01*
X125557000Y-103298000D01*
X125537000Y-103298000D01*
X125537000Y-103318000D01*
X125283000Y-103318000D01*
X125283000Y-103298000D01*
X125263000Y-103298000D01*
X125263000Y-103044000D01*
X125283000Y-103044000D01*
X125283000Y-103024000D01*
X125537000Y-103024000D01*
X125537000Y-103044000D01*
X125537000Y-103044000D01*
G37*
X125537000Y-103044000D02*
X125557000Y-103044000D01*
X125557000Y-103298000D01*
X125537000Y-103298000D01*
X125537000Y-103318000D01*
X125283000Y-103318000D01*
X125283000Y-103298000D01*
X125263000Y-103298000D01*
X125263000Y-103044000D01*
X125283000Y-103044000D01*
X125283000Y-103024000D01*
X125537000Y-103024000D01*
X125537000Y-103044000D01*
G36*
X137756697Y-101547329D02*
X137193132Y-102110893D01*
X137129354Y-102204237D01*
X136871155Y-102462435D01*
X136871155Y-102488855D01*
X136822625Y-102508907D01*
X136757816Y-102573603D01*
X136634015Y-102697189D01*
X136562883Y-102868495D01*
X136544327Y-102823587D01*
X136356045Y-102634977D01*
X136109918Y-102532776D01*
X135843415Y-102532543D01*
X135697565Y-102592807D01*
X135697565Y-102374047D01*
X136558260Y-102374047D01*
X136621222Y-102437009D01*
X136558261Y-102374047D01*
X136558260Y-102374047D01*
X135697565Y-102374047D01*
X135697565Y-102162159D01*
X135773945Y-102193875D01*
X136040448Y-102194108D01*
X136286753Y-102092337D01*
X136440333Y-101939024D01*
X136440332Y-102119402D01*
X136537005Y-102352791D01*
X136558261Y-102374047D01*
X136782767Y-102374047D01*
X137046524Y-102110290D01*
X137134310Y-102052071D01*
X137697875Y-101488507D01*
X137756697Y-101547329D01*
X137756697Y-101547329D01*
G37*
X137756697Y-101547329D02*
X137193132Y-102110893D01*
X137129354Y-102204237D01*
X136871155Y-102462435D01*
X136871155Y-102488855D01*
X136822625Y-102508907D01*
X136757816Y-102573603D01*
X136634015Y-102697189D01*
X136562883Y-102868495D01*
X136544327Y-102823587D01*
X136356045Y-102634977D01*
X136109918Y-102532776D01*
X135843415Y-102532543D01*
X135697565Y-102592807D01*
X135697565Y-102374047D01*
X136558260Y-102374047D01*
X136621222Y-102437009D01*
X136558261Y-102374047D01*
X136558260Y-102374047D01*
X135697565Y-102374047D01*
X135697565Y-102162159D01*
X135773945Y-102193875D01*
X136040448Y-102194108D01*
X136286753Y-102092337D01*
X136440333Y-101939024D01*
X136440332Y-102119402D01*
X136537005Y-102352791D01*
X136558261Y-102374047D01*
X136782767Y-102374047D01*
X137046524Y-102110290D01*
X137134310Y-102052071D01*
X137697875Y-101488507D01*
X137756697Y-101547329D01*
G36*
X127386594Y-100503000D02*
X127409395Y-100624179D01*
X127481012Y-100735474D01*
X127590286Y-100810138D01*
X127720000Y-100836406D01*
X128478902Y-100836406D01*
X128426821Y-100914351D01*
X128392262Y-101088089D01*
X128392262Y-101234685D01*
X128124115Y-101502832D01*
X128121988Y-101499526D01*
X128012714Y-101424862D01*
X127883000Y-101398594D01*
X127133000Y-101398594D01*
X127122000Y-101400664D01*
X127122000Y-101250750D01*
X126963250Y-101092000D01*
X126214000Y-101092000D01*
X126214000Y-101112000D01*
X125960000Y-101112000D01*
X125960000Y-101092000D01*
X125940000Y-101092000D01*
X125940000Y-100838000D01*
X125960000Y-100838000D01*
X125960000Y-100818000D01*
X126214000Y-100818000D01*
X126214000Y-100838000D01*
X126963250Y-100838000D01*
X127122000Y-100679250D01*
X127122000Y-100463690D01*
X127030392Y-100242529D01*
X127124474Y-100181988D01*
X127199138Y-100072714D01*
X127209408Y-100022000D01*
X127386594Y-100022000D01*
X127386594Y-100503000D01*
X127386594Y-100503000D01*
G37*
X127386594Y-100503000D02*
X127409395Y-100624179D01*
X127481012Y-100735474D01*
X127590286Y-100810138D01*
X127720000Y-100836406D01*
X128478902Y-100836406D01*
X128426821Y-100914351D01*
X128392262Y-101088089D01*
X128392262Y-101234685D01*
X128124115Y-101502832D01*
X128121988Y-101499526D01*
X128012714Y-101424862D01*
X127883000Y-101398594D01*
X127133000Y-101398594D01*
X127122000Y-101400664D01*
X127122000Y-101250750D01*
X126963250Y-101092000D01*
X126214000Y-101092000D01*
X126214000Y-101112000D01*
X125960000Y-101112000D01*
X125960000Y-101092000D01*
X125940000Y-101092000D01*
X125940000Y-100838000D01*
X125960000Y-100838000D01*
X125960000Y-100818000D01*
X126214000Y-100818000D01*
X126214000Y-100838000D01*
X126963250Y-100838000D01*
X127122000Y-100679250D01*
X127122000Y-100463690D01*
X127030392Y-100242529D01*
X127124474Y-100181988D01*
X127199138Y-100072714D01*
X127209408Y-100022000D01*
X127386594Y-100022000D01*
X127386594Y-100503000D01*
G36*
X139893748Y-101077858D02*
X139879605Y-101092000D01*
X139893748Y-101106143D01*
X139714143Y-101285748D01*
X139700000Y-101271605D01*
X139685858Y-101285748D01*
X139506253Y-101106143D01*
X139520395Y-101092000D01*
X139506253Y-101077858D01*
X139685858Y-100898253D01*
X139700000Y-100912395D01*
X139714143Y-100898253D01*
X139893748Y-101077858D01*
X139893748Y-101077858D01*
G37*
X139893748Y-101077858D02*
X139879605Y-101092000D01*
X139893748Y-101106143D01*
X139714143Y-101285748D01*
X139700000Y-101271605D01*
X139685858Y-101285748D01*
X139506253Y-101106143D01*
X139520395Y-101092000D01*
X139506253Y-101077858D01*
X139685858Y-100898253D01*
X139700000Y-100912395D01*
X139714143Y-100898253D01*
X139893748Y-101077858D01*
G36*
X143666301Y-98529673D02*
X143487673Y-98708302D01*
X143463725Y-98766117D01*
X143256000Y-98724798D01*
X142939521Y-98787750D01*
X142671223Y-98967021D01*
X142621000Y-99042185D01*
X142570777Y-98967021D01*
X142302479Y-98787750D01*
X141986000Y-98724798D01*
X141669521Y-98787750D01*
X141401223Y-98967021D01*
X141351000Y-99042185D01*
X141300777Y-98967021D01*
X141032479Y-98787750D01*
X140716000Y-98724798D01*
X140399521Y-98787750D01*
X140131223Y-98967021D01*
X139951952Y-99235319D01*
X139889000Y-99551798D01*
X139889000Y-99584202D01*
X139951952Y-99900681D01*
X140014477Y-99994256D01*
X139808632Y-99908993D01*
X139556013Y-99908992D01*
X139498027Y-99933011D01*
X139496249Y-99923560D01*
X139423102Y-99813264D01*
X139298838Y-99689000D01*
X139337309Y-99689000D01*
X139570698Y-99592327D01*
X139749327Y-99413699D01*
X139846000Y-99180310D01*
X139846000Y-98964750D01*
X139687250Y-98806000D01*
X138938000Y-98806000D01*
X138938000Y-98826000D01*
X138684000Y-98826000D01*
X138684000Y-98806000D01*
X138664000Y-98806000D01*
X138664000Y-98552000D01*
X138684000Y-98552000D01*
X138684000Y-98532000D01*
X138938000Y-98532000D01*
X138938000Y-98552000D01*
X139687250Y-98552000D01*
X139760651Y-98478599D01*
X143789604Y-98478599D01*
X143666301Y-98529673D01*
X143666301Y-98529673D01*
G37*
X143666301Y-98529673D02*
X143487673Y-98708302D01*
X143463725Y-98766117D01*
X143256000Y-98724798D01*
X142939521Y-98787750D01*
X142671223Y-98967021D01*
X142621000Y-99042185D01*
X142570777Y-98967021D01*
X142302479Y-98787750D01*
X141986000Y-98724798D01*
X141669521Y-98787750D01*
X141401223Y-98967021D01*
X141351000Y-99042185D01*
X141300777Y-98967021D01*
X141032479Y-98787750D01*
X140716000Y-98724798D01*
X140399521Y-98787750D01*
X140131223Y-98967021D01*
X139951952Y-99235319D01*
X139889000Y-99551798D01*
X139889000Y-99584202D01*
X139951952Y-99900681D01*
X140014477Y-99994256D01*
X139808632Y-99908993D01*
X139556013Y-99908992D01*
X139498027Y-99933011D01*
X139496249Y-99923560D01*
X139423102Y-99813264D01*
X139298838Y-99689000D01*
X139337309Y-99689000D01*
X139570698Y-99592327D01*
X139749327Y-99413699D01*
X139846000Y-99180310D01*
X139846000Y-98964750D01*
X139687250Y-98806000D01*
X138938000Y-98806000D01*
X138938000Y-98826000D01*
X138684000Y-98826000D01*
X138684000Y-98806000D01*
X138664000Y-98806000D01*
X138664000Y-98552000D01*
X138684000Y-98552000D01*
X138684000Y-98532000D01*
X138938000Y-98532000D01*
X138938000Y-98552000D01*
X139687250Y-98552000D01*
X139760651Y-98478599D01*
X143789604Y-98478599D01*
X143666301Y-98529673D01*
G36*
X145771495Y-98964106D02*
X145875594Y-99033662D01*
X145875594Y-99079000D01*
X145898395Y-99200179D01*
X145970012Y-99311474D01*
X146064332Y-99375920D01*
X145881812Y-99412226D01*
X145693322Y-99538171D01*
X145519372Y-99712122D01*
X145502250Y-99695000D01*
X144653000Y-99695000D01*
X144653000Y-99715000D01*
X144399000Y-99715000D01*
X144399000Y-99695000D01*
X144379000Y-99695000D01*
X144379000Y-99441000D01*
X144399000Y-99441000D01*
X144399000Y-99421000D01*
X144653000Y-99421000D01*
X144653000Y-99441000D01*
X145502250Y-99441000D01*
X145661000Y-99282250D01*
X145661000Y-98941691D01*
X145598718Y-98791328D01*
X145771495Y-98964106D01*
X145771495Y-98964106D01*
G37*
X145771495Y-98964106D02*
X145875594Y-99033662D01*
X145875594Y-99079000D01*
X145898395Y-99200179D01*
X145970012Y-99311474D01*
X146064332Y-99375920D01*
X145881812Y-99412226D01*
X145693322Y-99538171D01*
X145519372Y-99712122D01*
X145502250Y-99695000D01*
X144653000Y-99695000D01*
X144653000Y-99715000D01*
X144399000Y-99715000D01*
X144399000Y-99695000D01*
X144379000Y-99695000D01*
X144379000Y-99441000D01*
X144399000Y-99441000D01*
X144399000Y-99421000D01*
X144653000Y-99421000D01*
X144653000Y-99441000D01*
X145502250Y-99441000D01*
X145661000Y-99282250D01*
X145661000Y-98941691D01*
X145598718Y-98791328D01*
X145771495Y-98964106D01*
G36*
X125119000Y-98298000D02*
X125139000Y-98298000D01*
X125139000Y-98552000D01*
X125119000Y-98552000D01*
X125119000Y-99441000D01*
X125139000Y-99441000D01*
X125139000Y-99695000D01*
X125119000Y-99695000D01*
X125119000Y-99715000D01*
X124865000Y-99715000D01*
X124865000Y-99695000D01*
X124845000Y-99695000D01*
X124845000Y-99441000D01*
X124865000Y-99441000D01*
X124865000Y-98552000D01*
X124845000Y-98552000D01*
X124845000Y-98298000D01*
X124865000Y-98298000D01*
X124865000Y-98278000D01*
X125119000Y-98278000D01*
X125119000Y-98298000D01*
X125119000Y-98298000D01*
G37*
X125119000Y-98298000D02*
X125139000Y-98298000D01*
X125139000Y-98552000D01*
X125119000Y-98552000D01*
X125119000Y-99441000D01*
X125139000Y-99441000D01*
X125139000Y-99695000D01*
X125119000Y-99695000D01*
X125119000Y-99715000D01*
X124865000Y-99715000D01*
X124865000Y-99695000D01*
X124845000Y-99695000D01*
X124845000Y-99441000D01*
X124865000Y-99441000D01*
X124865000Y-98552000D01*
X124845000Y-98552000D01*
X124845000Y-98298000D01*
X124865000Y-98298000D01*
X124865000Y-98278000D01*
X125119000Y-98278000D01*
X125119000Y-98298000D01*
G36*
X131966450Y-98869766D02*
X131943234Y-98869766D01*
X131769496Y-98904325D01*
X131652127Y-98982748D01*
X131213101Y-98982748D01*
X131099133Y-98906597D01*
X131087213Y-98904226D01*
X130925395Y-98872038D01*
X130033562Y-98872038D01*
X129859824Y-98906597D01*
X129712536Y-99005011D01*
X129051879Y-99665669D01*
X128949714Y-99595862D01*
X128820000Y-99569594D01*
X128278647Y-99569594D01*
X128145458Y-99436406D01*
X128820000Y-99436406D01*
X128941179Y-99413605D01*
X129052474Y-99341988D01*
X129127138Y-99232714D01*
X129153406Y-99103000D01*
X129153406Y-98602945D01*
X131699629Y-98602945D01*
X131966450Y-98869766D01*
X131966450Y-98869766D01*
G37*
X131966450Y-98869766D02*
X131943234Y-98869766D01*
X131769496Y-98904325D01*
X131652127Y-98982748D01*
X131213101Y-98982748D01*
X131099133Y-98906597D01*
X131087213Y-98904226D01*
X130925395Y-98872038D01*
X130033562Y-98872038D01*
X129859824Y-98906597D01*
X129712536Y-99005011D01*
X129051879Y-99665669D01*
X128949714Y-99595862D01*
X128820000Y-99569594D01*
X128278647Y-99569594D01*
X128145458Y-99436406D01*
X128820000Y-99436406D01*
X128941179Y-99413605D01*
X129052474Y-99341988D01*
X129127138Y-99232714D01*
X129153406Y-99103000D01*
X129153406Y-98602945D01*
X131699629Y-98602945D01*
X131966450Y-98869766D01*
G36*
X122494748Y-96886858D02*
X122480605Y-96901000D01*
X123381159Y-97801554D01*
X123637643Y-97715148D01*
X123737269Y-97442841D01*
X123800194Y-97595131D01*
X124007199Y-97802498D01*
X123957000Y-97923690D01*
X123957000Y-98069556D01*
X123926714Y-98048862D01*
X123797000Y-98022594D01*
X123297000Y-98022594D01*
X123180191Y-98044573D01*
X123201554Y-97981159D01*
X122301000Y-97080605D01*
X121400446Y-97981159D01*
X121431249Y-98072594D01*
X120707000Y-98072594D01*
X120585821Y-98095395D01*
X120474526Y-98167012D01*
X120399862Y-98276286D01*
X120373594Y-98406000D01*
X120373594Y-99206000D01*
X120396395Y-99327179D01*
X120468012Y-99438474D01*
X120577286Y-99513138D01*
X120707000Y-99539406D01*
X121486377Y-99539406D01*
X121411779Y-99613874D01*
X120332685Y-99613874D01*
X120149348Y-99430537D01*
X120214138Y-99335714D01*
X120240406Y-99206000D01*
X120240406Y-98406000D01*
X120217605Y-98284821D01*
X120145988Y-98173526D01*
X120051152Y-98108727D01*
X120455131Y-97941806D01*
X120800593Y-97596947D01*
X120858065Y-97458538D01*
X120964357Y-97715148D01*
X121220841Y-97801554D01*
X122121395Y-96901000D01*
X122107253Y-96886858D01*
X122286858Y-96707253D01*
X122301000Y-96721395D01*
X122315143Y-96707253D01*
X122494748Y-96886858D01*
X122494748Y-96886858D01*
G37*
X122494748Y-96886858D02*
X122480605Y-96901000D01*
X123381159Y-97801554D01*
X123637643Y-97715148D01*
X123737269Y-97442841D01*
X123800194Y-97595131D01*
X124007199Y-97802498D01*
X123957000Y-97923690D01*
X123957000Y-98069556D01*
X123926714Y-98048862D01*
X123797000Y-98022594D01*
X123297000Y-98022594D01*
X123180191Y-98044573D01*
X123201554Y-97981159D01*
X122301000Y-97080605D01*
X121400446Y-97981159D01*
X121431249Y-98072594D01*
X120707000Y-98072594D01*
X120585821Y-98095395D01*
X120474526Y-98167012D01*
X120399862Y-98276286D01*
X120373594Y-98406000D01*
X120373594Y-99206000D01*
X120396395Y-99327179D01*
X120468012Y-99438474D01*
X120577286Y-99513138D01*
X120707000Y-99539406D01*
X121486377Y-99539406D01*
X121411779Y-99613874D01*
X120332685Y-99613874D01*
X120149348Y-99430537D01*
X120214138Y-99335714D01*
X120240406Y-99206000D01*
X120240406Y-98406000D01*
X120217605Y-98284821D01*
X120145988Y-98173526D01*
X120051152Y-98108727D01*
X120455131Y-97941806D01*
X120800593Y-97596947D01*
X120858065Y-97458538D01*
X120964357Y-97715148D01*
X121220841Y-97801554D01*
X122121395Y-96901000D01*
X122107253Y-96886858D01*
X122286858Y-96707253D01*
X122301000Y-96721395D01*
X122315143Y-96707253D01*
X122494748Y-96886858D01*
M02*
