G04 #@! TF.FileFunction,Copper,L2,Bot,Signal*
%FSLAX46Y46*%
G04 Gerber Fmt 4.6, Leading zero omitted, Abs format (unit mm)*
G04 Created by KiCad (PCBNEW 4.0.7) date 2017 December 25, Monday 22:32:58*
%MOMM*%
%LPD*%
G01*
G04 APERTURE LIST*
%ADD10C,0.100000*%
%ADD11R,1.000000X1.000000*%
%ADD12O,1.000000X1.000000*%
%ADD13C,1.800000*%
%ADD14C,0.685800*%
%ADD15C,0.508000*%
%ADD16C,0.152400*%
%ADD17C,0.254000*%
%ADD18C,0.381000*%
G04 APERTURE END LIST*
D10*
D11*
X144526000Y-99568000D03*
D12*
X143256000Y-99568000D03*
X141986000Y-99568000D03*
X140716000Y-99568000D03*
D13*
X119761000Y-112141000D03*
X122301000Y-112141000D03*
X124841000Y-112141000D03*
X127381000Y-112141000D03*
X129921000Y-112141000D03*
X132461000Y-112141000D03*
X135001000Y-112141000D03*
X137541000Y-112141000D03*
X140081000Y-112141000D03*
X142621000Y-112141000D03*
X145161000Y-112141000D03*
X147701000Y-112141000D03*
X147701000Y-96901000D03*
X145161000Y-96901000D03*
X142621000Y-96901000D03*
X140081000Y-96901000D03*
X137541000Y-96901000D03*
X135001000Y-96901000D03*
X132461000Y-96901000D03*
X129921000Y-96901000D03*
X127381000Y-96901000D03*
X124841000Y-96901000D03*
X122301000Y-96901000D03*
X119761000Y-96901000D03*
D14*
X121579315Y-100774952D03*
X146098918Y-101013918D03*
X129757485Y-108786648D03*
X126275147Y-107679262D03*
X126136267Y-101239168D03*
X139433421Y-109036500D03*
X143891000Y-111125000D03*
X124968000Y-109982000D03*
X143872800Y-106273522D03*
X139573000Y-98933000D03*
X139665788Y-101085047D03*
X142621000Y-98679000D03*
X129314878Y-99123714D03*
X131447181Y-98799580D03*
X128045094Y-101062906D03*
X146138276Y-102652997D03*
X131215296Y-109234391D03*
X123940152Y-107246507D03*
X127508000Y-104140000D03*
X121569756Y-109086747D03*
X132931601Y-101539645D03*
X144682067Y-107985316D03*
X124992000Y-98425000D03*
X147320000Y-104140000D03*
X136861472Y-102311049D03*
X125410000Y-103171000D03*
X143145766Y-103454580D03*
X140428674Y-101833333D03*
X137201597Y-103077152D03*
X131132621Y-103232135D03*
X136855972Y-105217389D03*
X126458800Y-104595688D03*
X137678538Y-105522200D03*
X125350842Y-105965915D03*
X131758979Y-102641046D03*
X128144031Y-109308762D03*
X124076749Y-99878665D03*
X140852311Y-106350676D03*
X130458349Y-100383030D03*
X125367916Y-107248354D03*
X125732874Y-108859202D03*
X123771336Y-110011664D03*
X132429683Y-106360421D03*
X137549013Y-99666314D03*
X135976082Y-103202559D03*
X133467624Y-107838676D03*
X121956084Y-100017074D03*
X142188258Y-103650081D03*
X140350892Y-102667928D03*
X146207130Y-110364422D03*
X145802040Y-105758211D03*
X129496844Y-101335109D03*
X132676039Y-110391508D03*
X141986036Y-106586446D03*
X134610636Y-107558396D03*
X135448434Y-107532058D03*
X142780018Y-107624305D03*
X128561832Y-104863876D03*
X128683111Y-104034484D03*
X131390498Y-110647049D03*
X133919214Y-100946769D03*
X134175680Y-99030336D03*
X135180880Y-98839476D03*
X139645867Y-104358973D03*
X126779480Y-108611121D03*
X135907781Y-101524092D03*
X135367036Y-100883628D03*
X132539616Y-103937931D03*
X145161000Y-103517699D03*
X144288778Y-103525320D03*
X133345204Y-103099306D03*
X134834893Y-109755945D03*
X141293925Y-109571160D03*
X133940818Y-109872691D03*
X142628041Y-109620775D03*
D15*
X121236416Y-100432053D02*
X121579315Y-100774952D01*
X119761000Y-98956637D02*
X121236416Y-100432053D01*
X119761000Y-96901000D02*
X119761000Y-98956637D01*
X146098918Y-100132918D02*
X146098918Y-100528985D01*
X146098918Y-100528985D02*
X146098918Y-101013918D01*
X145534000Y-99568000D02*
X146098918Y-100132918D01*
X144526000Y-99568000D02*
X145534000Y-99568000D01*
X129757485Y-109271581D02*
X129757485Y-108786648D01*
X129757485Y-109764515D02*
X129757485Y-109271581D01*
X127381000Y-112141000D02*
X129757485Y-109764515D01*
X126322440Y-101791170D02*
X126203336Y-101791170D01*
X126203336Y-101791170D02*
X126136267Y-101724101D01*
X126136267Y-101724101D02*
X126136267Y-101239168D01*
X144682067Y-107082789D02*
X144215699Y-106616421D01*
X144682067Y-107985316D02*
X144682067Y-107082789D01*
X144215699Y-106616421D02*
X143872800Y-106273522D01*
D16*
X142621000Y-98679000D02*
X139827000Y-98679000D01*
X139827000Y-98679000D02*
X139573000Y-98933000D01*
D15*
X140150721Y-101085047D02*
X139665788Y-101085047D01*
X140151745Y-101084023D02*
X140150721Y-101085047D01*
X144017977Y-101084023D02*
X140151745Y-101084023D01*
X144526000Y-100576000D02*
X144017977Y-101084023D01*
X144526000Y-99568000D02*
X144526000Y-100576000D01*
D16*
X144526000Y-99568000D02*
X144526000Y-98915600D01*
X144526000Y-98915600D02*
X144289400Y-98679000D01*
X144289400Y-98679000D02*
X142621000Y-98679000D01*
D17*
X128045094Y-101062906D02*
X128045094Y-100393498D01*
X128045094Y-100393498D02*
X128971979Y-99466613D01*
X128971979Y-99466613D02*
X129314878Y-99123714D01*
D15*
X147320000Y-104140000D02*
X147320000Y-103834721D01*
X147320000Y-103834721D02*
X146138276Y-102652997D01*
X139433421Y-109036500D02*
X139090522Y-108693601D01*
X131558195Y-108891492D02*
X131215296Y-109234391D01*
X131756086Y-108693601D02*
X131558195Y-108891492D01*
X139090522Y-108693601D02*
X131756086Y-108693601D01*
X123940152Y-106761574D02*
X123940152Y-107246507D01*
X123940152Y-105928848D02*
X123940152Y-106761574D01*
X125410000Y-104459000D02*
X123940152Y-105928848D01*
X125410000Y-103171000D02*
X125410000Y-104459000D01*
X127508000Y-104140000D02*
X126322440Y-102954440D01*
X125410000Y-103171000D02*
X125410000Y-102716000D01*
X126322440Y-101803560D02*
X126322440Y-101791170D01*
X125410000Y-102716000D02*
X126322440Y-101803560D01*
X126322440Y-102954440D02*
X126322440Y-101791170D01*
D18*
X136762371Y-102211948D02*
X134315490Y-102211948D01*
X136861472Y-102311049D02*
X136762371Y-102211948D01*
X134315490Y-102211948D02*
X133907424Y-101803882D01*
X133416534Y-101539645D02*
X132931601Y-101539645D01*
X133680771Y-101803882D02*
X133416534Y-101539645D01*
X133907424Y-101803882D02*
X133680771Y-101803882D01*
D15*
X121786747Y-109086747D02*
X121569756Y-109086747D01*
X124841000Y-112141000D02*
X121786747Y-109086747D01*
X139433421Y-109036500D02*
X140056420Y-108413501D01*
X140056420Y-108413501D02*
X144253882Y-108413501D01*
X144253882Y-108413501D02*
X144339168Y-108328215D01*
X144339168Y-108328215D02*
X144682067Y-107985316D01*
D16*
X142802867Y-103111681D02*
X143145766Y-103454580D01*
X140428674Y-101833333D02*
X141524519Y-101833333D01*
X141524519Y-101833333D02*
X142802867Y-103111681D01*
X123505239Y-98236761D02*
X123941001Y-97800999D01*
X124295877Y-100467765D02*
X123802418Y-100467765D01*
X124751236Y-100012406D02*
X124295877Y-100467765D01*
X126183713Y-100012406D02*
X124751236Y-100012406D01*
X131398372Y-103817081D02*
X129988388Y-103817081D01*
X123505239Y-100170586D02*
X123505239Y-98236761D01*
X136250403Y-102631058D02*
X134141888Y-102631058D01*
X137201597Y-103077152D02*
X136696497Y-103077152D01*
X136696497Y-103077152D02*
X136250403Y-102631058D01*
X133733823Y-102222993D02*
X132884833Y-102222993D01*
X132325388Y-102890065D02*
X131398372Y-103817081D01*
X123941001Y-97800999D02*
X124841000Y-96901000D01*
X123802418Y-100467765D02*
X123505239Y-100170586D01*
X129988388Y-103817081D02*
X126183713Y-100012406D01*
X132325388Y-102782438D02*
X132325388Y-102890065D01*
X132884833Y-102222993D02*
X132325388Y-102782438D01*
X134141888Y-102631058D02*
X133733823Y-102222993D01*
X131132621Y-101360577D02*
X131132621Y-102747202D01*
X131132621Y-102747202D02*
X131132621Y-103232135D01*
X132461000Y-96901000D02*
X132461000Y-100032198D01*
X132461000Y-100032198D02*
X131132621Y-101360577D01*
X136371039Y-105217389D02*
X136855972Y-105217389D01*
X127287312Y-105424200D02*
X128241317Y-105424200D01*
X126458800Y-104595688D02*
X127287312Y-105424200D01*
X128827228Y-105461469D02*
X129071308Y-105217389D01*
X128241317Y-105424200D02*
X128278586Y-105461469D01*
X128278586Y-105461469D02*
X128827228Y-105461469D01*
X129071308Y-105217389D02*
X136371039Y-105217389D01*
X125835775Y-105965915D02*
X126071079Y-105730611D01*
X136526662Y-105788899D02*
X137411839Y-105788899D01*
X128989153Y-105730611D02*
X136468374Y-105730611D01*
X128152330Y-105766280D02*
X128953484Y-105766280D01*
X128953484Y-105766280D02*
X128989153Y-105730611D01*
X128116661Y-105730611D02*
X128152330Y-105766280D01*
X125350842Y-105965915D02*
X125835775Y-105965915D01*
X136468374Y-105730611D02*
X136526662Y-105788899D01*
X137411839Y-105788899D02*
X137678538Y-105522200D01*
X126071079Y-105730611D02*
X128116661Y-105730611D01*
X131758979Y-102641046D02*
X131758979Y-101165285D01*
X134196936Y-96946729D02*
X134955271Y-96946729D01*
X131758979Y-101165285D02*
X132770376Y-100153888D01*
X132770376Y-100153888D02*
X132770376Y-98373289D01*
X132770376Y-98373289D02*
X134196936Y-96946729D01*
X134955271Y-96946729D02*
X135001000Y-96901000D01*
D15*
X127801132Y-109651661D02*
X128144031Y-109308762D01*
X125732874Y-108859202D02*
X126525333Y-109651661D01*
X126255849Y-106360421D02*
X131944750Y-106360421D01*
X125367916Y-107248354D02*
X126255849Y-106360421D01*
X126525333Y-109651661D02*
X127801132Y-109651661D01*
X131944750Y-106360421D02*
X132429683Y-106360421D01*
X124425619Y-99529795D02*
X124419648Y-99535766D01*
X127381000Y-98173792D02*
X126024997Y-99529795D01*
X124419648Y-99535766D02*
X124076749Y-99878665D01*
X127381000Y-96901000D02*
X127381000Y-98173792D01*
X126024997Y-99529795D02*
X124425619Y-99529795D01*
X140842566Y-106360421D02*
X140852311Y-106350676D01*
X132429683Y-106360421D02*
X140842566Y-106360421D01*
X140716000Y-99441000D02*
X140430885Y-99726115D01*
X140430885Y-99726115D02*
X137608814Y-99726115D01*
X137608814Y-99726115D02*
X137549013Y-99666314D01*
X127381000Y-96901000D02*
X128854413Y-98374413D01*
X130064179Y-99988860D02*
X130115450Y-100040131D01*
X128854413Y-98374413D02*
X129674543Y-98374413D01*
X130064179Y-98764049D02*
X130064179Y-99988860D01*
X129674543Y-98374413D02*
X130064179Y-98764049D01*
X130115450Y-100040131D02*
X130458349Y-100383030D01*
X125367916Y-107248354D02*
X125367916Y-108494244D01*
X125367916Y-108494244D02*
X125732874Y-108859202D01*
X125247941Y-108859202D02*
X125732874Y-108859202D01*
X123771336Y-110011664D02*
X123771336Y-109526731D01*
X124438865Y-108859202D02*
X125247941Y-108859202D01*
X123771336Y-109526731D02*
X124438865Y-108859202D01*
D16*
X121956084Y-100017074D02*
X122711586Y-100772576D01*
X133607567Y-102527804D02*
X134282322Y-103202559D01*
X122711586Y-100772576D02*
X124422133Y-100772576D01*
X124422133Y-100772576D02*
X124877492Y-100317217D01*
X124877492Y-100317217D02*
X126057457Y-100317217D01*
X126057457Y-100317217D02*
X129862132Y-104121892D01*
X134282322Y-103202559D02*
X135491149Y-103202559D01*
X135491149Y-103202559D02*
X135976082Y-103202559D01*
X129862132Y-104121892D02*
X131524628Y-104121892D01*
X131524628Y-104121892D02*
X132630199Y-103016321D01*
X132630199Y-103016321D02*
X132630199Y-102956528D01*
X132630199Y-102956528D02*
X133058923Y-102527804D01*
X133058923Y-102527804D02*
X133607567Y-102527804D01*
X121956084Y-100017074D02*
X122598044Y-100659034D01*
X141703325Y-103650081D02*
X142188258Y-103650081D01*
X140350892Y-102667928D02*
X141333045Y-103650081D01*
X141333045Y-103650081D02*
X141703325Y-103650081D01*
X146207130Y-109879489D02*
X146207130Y-110364422D01*
X145802040Y-105758211D02*
X146207130Y-106163301D01*
X146207130Y-106163301D02*
X146207130Y-109879489D01*
X129921000Y-96901000D02*
X130571467Y-97551467D01*
X130571467Y-97551467D02*
X130571467Y-99562923D01*
X131361508Y-100700623D02*
X130727022Y-101335109D01*
X129981777Y-101335109D02*
X129496844Y-101335109D01*
X130571467Y-99562923D02*
X131361508Y-100352964D01*
X131361508Y-100352964D02*
X131361508Y-100700623D01*
X130727022Y-101335109D02*
X129981777Y-101335109D01*
X133863743Y-111012399D02*
X133242852Y-110391508D01*
X133242852Y-110391508D02*
X133160972Y-110391508D01*
X133160972Y-110391508D02*
X132676039Y-110391508D01*
X136412399Y-111012399D02*
X133863743Y-111012399D01*
X137541000Y-112141000D02*
X136412399Y-111012399D01*
X141501103Y-106586446D02*
X141986036Y-106586446D01*
X135246846Y-106922186D02*
X141165363Y-106922186D01*
X141165363Y-106922186D02*
X141501103Y-106586446D01*
X134610636Y-107558396D02*
X135246846Y-106922186D01*
X135753495Y-107226997D02*
X135448434Y-107532058D01*
X142780018Y-107624305D02*
X142382710Y-107226997D01*
X142382710Y-107226997D02*
X135753495Y-107226997D01*
X145253577Y-106532114D02*
X144423475Y-105702012D01*
X129046765Y-104863876D02*
X128561832Y-104863876D01*
X140705577Y-105702012D02*
X140562681Y-105844908D01*
X136363661Y-104863876D02*
X129046765Y-104863876D01*
X136581650Y-104645887D02*
X136363661Y-104863876D01*
X137648049Y-104645887D02*
X136581650Y-104645887D01*
X138847070Y-105844908D02*
X137648049Y-104645887D01*
X140562681Y-105844908D02*
X138847070Y-105844908D01*
X144423475Y-105702012D02*
X140705577Y-105702012D01*
X145161000Y-110868208D02*
X145253577Y-110775631D01*
X145161000Y-112141000D02*
X145161000Y-110868208D01*
X145253577Y-110775631D02*
X145253577Y-106532114D01*
X146801001Y-111241001D02*
X146048158Y-111241001D01*
X136455394Y-104341076D02*
X136284133Y-104512337D01*
X136284133Y-104512337D02*
X129160964Y-104512337D01*
X137774305Y-104341076D02*
X136455394Y-104341076D01*
X138973326Y-105540097D02*
X137774305Y-104341076D01*
X140436425Y-105540097D02*
X138973326Y-105540097D01*
X140579321Y-105397201D02*
X140436425Y-105540097D01*
X145558388Y-106405858D02*
X144549731Y-105397201D01*
X145558388Y-110751231D02*
X145558388Y-106405858D01*
X146048158Y-111241001D02*
X145558388Y-110751231D01*
X147701000Y-112141000D02*
X146801001Y-111241001D01*
X129160964Y-104512337D02*
X129026010Y-104377383D01*
X129026010Y-104377383D02*
X128683111Y-104034484D01*
X144549731Y-105397201D02*
X140579321Y-105397201D01*
X131390498Y-111070498D02*
X131390498Y-110647049D01*
X132461000Y-112141000D02*
X131390498Y-111070498D01*
X140791443Y-98334411D02*
X141096253Y-98029601D01*
X141096253Y-98029601D02*
X144032399Y-98029601D01*
X133919214Y-100946769D02*
X136140939Y-98725044D01*
X136140939Y-98725044D02*
X138256956Y-98725044D01*
X144032399Y-98029601D02*
X144261001Y-97800999D01*
X138256956Y-98725044D02*
X138647589Y-98334411D01*
X138647589Y-98334411D02*
X140791443Y-98334411D01*
X144261001Y-97800999D02*
X145161000Y-96901000D01*
X140081000Y-96901000D02*
X139155452Y-96901000D01*
X139155452Y-96901000D02*
X138026851Y-98029601D01*
X138026851Y-98029601D02*
X134691482Y-98029601D01*
X134691482Y-98029601D02*
X134175680Y-98545403D01*
X134175680Y-98545403D02*
X134175680Y-99030336D01*
X141793788Y-96901000D02*
X142621000Y-96901000D01*
X138457917Y-98029601D02*
X140665187Y-98029601D01*
X138067285Y-98420233D02*
X138457917Y-98029601D01*
X135600123Y-98420233D02*
X138067285Y-98420233D01*
X135180880Y-98839476D02*
X135600123Y-98420233D01*
X140665187Y-98029601D02*
X141793788Y-96901000D01*
X143717268Y-103728902D02*
X143087197Y-104358973D01*
X146373239Y-101585419D02*
X145312107Y-101585419D01*
X145312107Y-101585419D02*
X143717268Y-103180258D01*
X140130800Y-104358973D02*
X139645867Y-104358973D01*
X147701000Y-96901000D02*
X147701000Y-100257658D01*
X147701000Y-100257658D02*
X146373239Y-101585419D01*
X143087197Y-104358973D02*
X140130800Y-104358973D01*
X143717268Y-103180258D02*
X143717268Y-103728902D01*
X132900236Y-110963010D02*
X132399504Y-110963010D01*
X132399504Y-110963010D02*
X132086833Y-110650339D01*
X127122379Y-108268222D02*
X126779480Y-108611121D01*
X127175455Y-108215146D02*
X127122379Y-108268222D01*
X130356827Y-109186252D02*
X130356827Y-108512326D01*
X131484573Y-109862189D02*
X131032764Y-109862189D01*
X131032764Y-109862189D02*
X130356827Y-109186252D01*
X132086833Y-110650339D02*
X132086833Y-110464449D01*
X135001000Y-112141000D02*
X134078226Y-112141000D01*
X132086833Y-110464449D02*
X131484573Y-109862189D01*
X130356827Y-108512326D02*
X130059647Y-108215146D01*
X134078226Y-112141000D02*
X132900236Y-110963010D01*
X130059647Y-108215146D02*
X127175455Y-108215146D01*
X136392714Y-101524092D02*
X135907781Y-101524092D01*
X143256000Y-99568000D02*
X142222588Y-100601412D01*
X142222588Y-100601412D02*
X140240015Y-100601412D01*
X140240015Y-100601412D02*
X140152140Y-100513537D01*
X138356405Y-101524092D02*
X136392714Y-101524092D01*
X139366960Y-100513537D02*
X138356405Y-101524092D01*
X140152140Y-100513537D02*
X139366960Y-100513537D01*
X138565802Y-100883628D02*
X135851969Y-100883628D01*
X135851969Y-100883628D02*
X135367036Y-100883628D01*
X141257399Y-100296601D02*
X140366271Y-100296601D01*
X140366271Y-100296601D02*
X140278396Y-100208726D01*
X139240704Y-100208726D02*
X138565802Y-100883628D01*
X140278396Y-100208726D02*
X139240704Y-100208726D01*
X141986000Y-99568000D02*
X141257399Y-100296601D01*
X145161000Y-103517699D02*
X143586309Y-105092390D01*
X143586309Y-105092390D02*
X140453065Y-105092390D01*
X140453065Y-105092390D02*
X140310169Y-105235286D01*
X133024549Y-103937931D02*
X132539616Y-103937931D01*
X133165498Y-104078880D02*
X133024549Y-103937931D01*
X136286523Y-104078880D02*
X133165498Y-104078880D01*
X137900561Y-104036265D02*
X136329138Y-104036265D01*
X140310169Y-105235286D02*
X139099581Y-105235286D01*
X139099581Y-105235286D02*
X137900561Y-104036265D01*
X136329138Y-104036265D02*
X136286523Y-104078880D01*
X134019967Y-103774069D02*
X136160267Y-103774069D01*
X144288778Y-103917023D02*
X144288778Y-103525320D01*
X139225837Y-104930475D02*
X140183913Y-104930475D01*
X136160267Y-103774069D02*
X136202882Y-103731454D01*
X140326809Y-104787579D02*
X143418222Y-104787579D01*
X133345204Y-103099306D02*
X134019967Y-103774069D01*
X140183913Y-104930475D02*
X140326809Y-104787579D01*
X143418222Y-104787579D02*
X144288778Y-103917023D01*
X138026817Y-103731454D02*
X139225837Y-104930475D01*
X136202882Y-103731454D02*
X138026817Y-103731454D01*
X141293925Y-109571160D02*
X140951026Y-109914059D01*
X140951026Y-109914059D02*
X134993007Y-109914059D01*
X134993007Y-109914059D02*
X134837578Y-109758630D01*
X134837578Y-109758630D02*
X134834893Y-109755945D01*
X134427010Y-110358883D02*
X134283717Y-110215590D01*
X134283717Y-110215590D02*
X133940818Y-109872691D01*
X141889933Y-110358883D02*
X134427010Y-110358883D01*
X142628041Y-109620775D02*
X141889933Y-110358883D01*
D17*
G36*
X144850377Y-106699125D02*
X144850377Y-110621293D01*
X144788492Y-110713910D01*
X144757800Y-110868208D01*
X144757800Y-110979984D01*
X144466869Y-111100194D01*
X144121407Y-111445053D01*
X143934214Y-111895864D01*
X143933788Y-112383995D01*
X144120194Y-112835131D01*
X144187945Y-112903000D01*
X143594424Y-112903000D01*
X143660593Y-112836947D01*
X143847786Y-112386136D01*
X143848212Y-111898005D01*
X143661806Y-111446869D01*
X143316947Y-111101407D01*
X142866136Y-110914214D01*
X142378005Y-110913788D01*
X141926869Y-111100194D01*
X141581407Y-111445053D01*
X141394214Y-111895864D01*
X141393788Y-112383995D01*
X141580194Y-112835131D01*
X141647945Y-112903000D01*
X141054424Y-112903000D01*
X141120593Y-112836947D01*
X141307786Y-112386136D01*
X141308212Y-111898005D01*
X141121806Y-111446869D01*
X140776947Y-111101407D01*
X140326136Y-110914214D01*
X139838005Y-110913788D01*
X139386869Y-111100194D01*
X139041407Y-111445053D01*
X138854214Y-111895864D01*
X138853788Y-112383995D01*
X139040194Y-112835131D01*
X139107945Y-112903000D01*
X138514424Y-112903000D01*
X138580593Y-112836947D01*
X138767786Y-112386136D01*
X138768212Y-111898005D01*
X138581806Y-111446869D01*
X138236947Y-111101407D01*
X137786136Y-110914214D01*
X137298005Y-110913788D01*
X137005047Y-111034836D01*
X136732293Y-110762083D01*
X141889933Y-110762083D01*
X142044231Y-110731391D01*
X142175038Y-110643988D01*
X142528439Y-110290588D01*
X142760708Y-110290791D01*
X143007013Y-110189020D01*
X143195623Y-110000738D01*
X143297824Y-109754611D01*
X143298057Y-109488108D01*
X143196286Y-109241803D01*
X143008004Y-109053193D01*
X142761877Y-108950992D01*
X142495374Y-108950759D01*
X142249069Y-109052530D01*
X142060459Y-109240812D01*
X141963911Y-109473326D01*
X141963941Y-109438493D01*
X141862170Y-109192188D01*
X141673888Y-109003578D01*
X141427761Y-108901377D01*
X141161258Y-108901144D01*
X140914953Y-109002915D01*
X140726343Y-109191197D01*
X140624142Y-109437324D01*
X140624078Y-109510859D01*
X135458458Y-109510859D01*
X135403138Y-109376973D01*
X135214856Y-109188363D01*
X134968729Y-109086162D01*
X134702226Y-109085929D01*
X134455921Y-109187700D01*
X134329529Y-109313872D01*
X134320781Y-109305109D01*
X134074654Y-109202908D01*
X133808151Y-109202675D01*
X133561846Y-109304446D01*
X133373236Y-109492728D01*
X133271035Y-109738855D01*
X133270812Y-109993870D01*
X133242852Y-109988308D01*
X133220098Y-109988308D01*
X133056002Y-109823926D01*
X132809875Y-109721725D01*
X132543372Y-109721492D01*
X132297067Y-109823263D01*
X132156340Y-109963745D01*
X131769678Y-109577084D01*
X131638871Y-109489681D01*
X131625086Y-109486939D01*
X131484573Y-109458989D01*
X131199775Y-109458989D01*
X130760027Y-109019242D01*
X130760027Y-108512326D01*
X130729335Y-108358028D01*
X130641932Y-108227221D01*
X130344752Y-107930041D01*
X130213945Y-107842638D01*
X130059647Y-107811946D01*
X127175455Y-107811946D01*
X127021157Y-107842638D01*
X126890350Y-107930040D01*
X126879082Y-107941308D01*
X126646813Y-107941105D01*
X126400508Y-108042876D01*
X126211898Y-108231158D01*
X126165067Y-108343941D01*
X126112837Y-108291620D01*
X125948916Y-108223554D01*
X125948916Y-107596003D01*
X126024890Y-107413038D01*
X126496507Y-106941421D01*
X132082034Y-106941421D01*
X132295847Y-107030204D01*
X132562350Y-107030437D01*
X132777785Y-106941421D01*
X134349600Y-106941421D01*
X134231664Y-106990151D01*
X134043054Y-107178433D01*
X133958459Y-107382159D01*
X133847587Y-107271094D01*
X133601460Y-107168893D01*
X133334957Y-107168660D01*
X133088652Y-107270431D01*
X132900042Y-107458713D01*
X132797841Y-107704840D01*
X132797608Y-107971343D01*
X132899379Y-108217648D01*
X133087661Y-108406258D01*
X133333788Y-108508459D01*
X133600291Y-108508692D01*
X133846596Y-108406921D01*
X134035206Y-108218639D01*
X134119801Y-108014913D01*
X134230673Y-108125978D01*
X134476800Y-108228179D01*
X134743303Y-108228412D01*
X134989608Y-108126641D01*
X135042609Y-108073733D01*
X135068471Y-108099640D01*
X135314598Y-108201841D01*
X135581101Y-108202074D01*
X135827406Y-108100303D01*
X136016016Y-107912021D01*
X136118217Y-107665894D01*
X136118248Y-107630197D01*
X142110113Y-107630197D01*
X142110002Y-107756972D01*
X142211773Y-108003277D01*
X142400055Y-108191887D01*
X142646182Y-108294088D01*
X142912685Y-108294321D01*
X143158990Y-108192550D01*
X143347600Y-108004268D01*
X143449801Y-107758141D01*
X143450034Y-107491638D01*
X143348263Y-107245333D01*
X143159981Y-107056723D01*
X142913854Y-106954522D01*
X142680241Y-106954318D01*
X142667815Y-106941892D01*
X142586390Y-106887485D01*
X142655819Y-106720282D01*
X142656052Y-106453779D01*
X142554281Y-106207474D01*
X142452197Y-106105212D01*
X144256465Y-106105212D01*
X144850377Y-106699125D01*
X144850377Y-106699125D01*
G37*
X144850377Y-106699125D02*
X144850377Y-110621293D01*
X144788492Y-110713910D01*
X144757800Y-110868208D01*
X144757800Y-110979984D01*
X144466869Y-111100194D01*
X144121407Y-111445053D01*
X143934214Y-111895864D01*
X143933788Y-112383995D01*
X144120194Y-112835131D01*
X144187945Y-112903000D01*
X143594424Y-112903000D01*
X143660593Y-112836947D01*
X143847786Y-112386136D01*
X143848212Y-111898005D01*
X143661806Y-111446869D01*
X143316947Y-111101407D01*
X142866136Y-110914214D01*
X142378005Y-110913788D01*
X141926869Y-111100194D01*
X141581407Y-111445053D01*
X141394214Y-111895864D01*
X141393788Y-112383995D01*
X141580194Y-112835131D01*
X141647945Y-112903000D01*
X141054424Y-112903000D01*
X141120593Y-112836947D01*
X141307786Y-112386136D01*
X141308212Y-111898005D01*
X141121806Y-111446869D01*
X140776947Y-111101407D01*
X140326136Y-110914214D01*
X139838005Y-110913788D01*
X139386869Y-111100194D01*
X139041407Y-111445053D01*
X138854214Y-111895864D01*
X138853788Y-112383995D01*
X139040194Y-112835131D01*
X139107945Y-112903000D01*
X138514424Y-112903000D01*
X138580593Y-112836947D01*
X138767786Y-112386136D01*
X138768212Y-111898005D01*
X138581806Y-111446869D01*
X138236947Y-111101407D01*
X137786136Y-110914214D01*
X137298005Y-110913788D01*
X137005047Y-111034836D01*
X136732293Y-110762083D01*
X141889933Y-110762083D01*
X142044231Y-110731391D01*
X142175038Y-110643988D01*
X142528439Y-110290588D01*
X142760708Y-110290791D01*
X143007013Y-110189020D01*
X143195623Y-110000738D01*
X143297824Y-109754611D01*
X143298057Y-109488108D01*
X143196286Y-109241803D01*
X143008004Y-109053193D01*
X142761877Y-108950992D01*
X142495374Y-108950759D01*
X142249069Y-109052530D01*
X142060459Y-109240812D01*
X141963911Y-109473326D01*
X141963941Y-109438493D01*
X141862170Y-109192188D01*
X141673888Y-109003578D01*
X141427761Y-108901377D01*
X141161258Y-108901144D01*
X140914953Y-109002915D01*
X140726343Y-109191197D01*
X140624142Y-109437324D01*
X140624078Y-109510859D01*
X135458458Y-109510859D01*
X135403138Y-109376973D01*
X135214856Y-109188363D01*
X134968729Y-109086162D01*
X134702226Y-109085929D01*
X134455921Y-109187700D01*
X134329529Y-109313872D01*
X134320781Y-109305109D01*
X134074654Y-109202908D01*
X133808151Y-109202675D01*
X133561846Y-109304446D01*
X133373236Y-109492728D01*
X133271035Y-109738855D01*
X133270812Y-109993870D01*
X133242852Y-109988308D01*
X133220098Y-109988308D01*
X133056002Y-109823926D01*
X132809875Y-109721725D01*
X132543372Y-109721492D01*
X132297067Y-109823263D01*
X132156340Y-109963745D01*
X131769678Y-109577084D01*
X131638871Y-109489681D01*
X131625086Y-109486939D01*
X131484573Y-109458989D01*
X131199775Y-109458989D01*
X130760027Y-109019242D01*
X130760027Y-108512326D01*
X130729335Y-108358028D01*
X130641932Y-108227221D01*
X130344752Y-107930041D01*
X130213945Y-107842638D01*
X130059647Y-107811946D01*
X127175455Y-107811946D01*
X127021157Y-107842638D01*
X126890350Y-107930040D01*
X126879082Y-107941308D01*
X126646813Y-107941105D01*
X126400508Y-108042876D01*
X126211898Y-108231158D01*
X126165067Y-108343941D01*
X126112837Y-108291620D01*
X125948916Y-108223554D01*
X125948916Y-107596003D01*
X126024890Y-107413038D01*
X126496507Y-106941421D01*
X132082034Y-106941421D01*
X132295847Y-107030204D01*
X132562350Y-107030437D01*
X132777785Y-106941421D01*
X134349600Y-106941421D01*
X134231664Y-106990151D01*
X134043054Y-107178433D01*
X133958459Y-107382159D01*
X133847587Y-107271094D01*
X133601460Y-107168893D01*
X133334957Y-107168660D01*
X133088652Y-107270431D01*
X132900042Y-107458713D01*
X132797841Y-107704840D01*
X132797608Y-107971343D01*
X132899379Y-108217648D01*
X133087661Y-108406258D01*
X133333788Y-108508459D01*
X133600291Y-108508692D01*
X133846596Y-108406921D01*
X134035206Y-108218639D01*
X134119801Y-108014913D01*
X134230673Y-108125978D01*
X134476800Y-108228179D01*
X134743303Y-108228412D01*
X134989608Y-108126641D01*
X135042609Y-108073733D01*
X135068471Y-108099640D01*
X135314598Y-108201841D01*
X135581101Y-108202074D01*
X135827406Y-108100303D01*
X136016016Y-107912021D01*
X136118217Y-107665894D01*
X136118248Y-107630197D01*
X142110113Y-107630197D01*
X142110002Y-107756972D01*
X142211773Y-108003277D01*
X142400055Y-108191887D01*
X142646182Y-108294088D01*
X142912685Y-108294321D01*
X143158990Y-108192550D01*
X143347600Y-108004268D01*
X143449801Y-107758141D01*
X143450034Y-107491638D01*
X143348263Y-107245333D01*
X143159981Y-107056723D01*
X142913854Y-106954522D01*
X142680241Y-106954318D01*
X142667815Y-106941892D01*
X142586390Y-106887485D01*
X142655819Y-106720282D01*
X142656052Y-106453779D01*
X142554281Y-106207474D01*
X142452197Y-106105212D01*
X144256465Y-106105212D01*
X144850377Y-106699125D01*
G36*
X119065053Y-97940593D02*
X119180000Y-97988323D01*
X119180000Y-98956637D01*
X119224226Y-99178976D01*
X119350171Y-99367466D01*
X120922660Y-100939955D01*
X121011070Y-101153924D01*
X121199352Y-101342534D01*
X121445479Y-101444735D01*
X121711982Y-101444968D01*
X121958287Y-101343197D01*
X122146897Y-101154915D01*
X122249098Y-100908788D01*
X122249123Y-100880324D01*
X122426480Y-101057681D01*
X122521082Y-101120892D01*
X122557288Y-101145084D01*
X122711586Y-101175776D01*
X124422133Y-101175776D01*
X124576431Y-101145084D01*
X124707238Y-101057681D01*
X125044503Y-100720417D01*
X125890447Y-100720417D01*
X128539160Y-103369130D01*
X128304139Y-103466239D01*
X128115529Y-103654521D01*
X128013328Y-103900648D01*
X128013095Y-104167151D01*
X128100254Y-104378093D01*
X127994250Y-104483913D01*
X127892049Y-104730040D01*
X127891816Y-104996543D01*
X127901921Y-105021000D01*
X127454323Y-105021000D01*
X127128613Y-104695290D01*
X127128816Y-104463021D01*
X127027045Y-104216716D01*
X126838763Y-104028106D01*
X126592636Y-103925905D01*
X126326133Y-103925672D01*
X126079828Y-104027443D01*
X125891218Y-104215725D01*
X125789017Y-104461852D01*
X125788784Y-104728355D01*
X125890555Y-104974660D01*
X126078837Y-105163270D01*
X126324964Y-105265471D01*
X126558577Y-105265675D01*
X126620312Y-105327411D01*
X126071079Y-105327411D01*
X125916781Y-105358103D01*
X125785973Y-105445506D01*
X125781931Y-105449548D01*
X125730805Y-105398333D01*
X125484678Y-105296132D01*
X125218175Y-105295899D01*
X124971870Y-105397670D01*
X124783260Y-105585952D01*
X124681059Y-105832079D01*
X124680826Y-106098582D01*
X124782597Y-106344887D01*
X124970879Y-106533497D01*
X125156865Y-106610725D01*
X124988944Y-106680109D01*
X124800334Y-106868391D01*
X124698133Y-107114518D01*
X124697900Y-107381021D01*
X124786916Y-107596456D01*
X124786916Y-108278202D01*
X124438865Y-108278202D01*
X124216526Y-108322428D01*
X124028036Y-108448373D01*
X123360507Y-109115902D01*
X123234562Y-109304392D01*
X123190336Y-109526731D01*
X123190336Y-109664015D01*
X123101553Y-109877828D01*
X123101320Y-110144331D01*
X123203091Y-110390636D01*
X123391373Y-110579246D01*
X123637500Y-110681447D01*
X123904003Y-110681680D01*
X124150308Y-110579909D01*
X124338918Y-110391627D01*
X124441119Y-110145500D01*
X124441352Y-109878997D01*
X124382693Y-109737032D01*
X124679523Y-109440202D01*
X125385225Y-109440202D01*
X125568190Y-109516176D01*
X126114504Y-110062490D01*
X126302994Y-110188435D01*
X126525333Y-110232661D01*
X127801132Y-110232661D01*
X128023471Y-110188435D01*
X128211961Y-110062490D01*
X128309034Y-109965417D01*
X128523003Y-109877007D01*
X128711613Y-109688725D01*
X128813814Y-109442598D01*
X128814047Y-109176095D01*
X128712276Y-108929790D01*
X128523994Y-108741180D01*
X128277867Y-108638979D01*
X128011364Y-108638746D01*
X127765059Y-108740517D01*
X127576449Y-108928799D01*
X127517543Y-109070661D01*
X127267346Y-109070661D01*
X127347062Y-108991084D01*
X127449263Y-108744957D01*
X127449374Y-108618346D01*
X129892637Y-108618346D01*
X129953627Y-108679336D01*
X129953627Y-109186252D01*
X129977996Y-109308762D01*
X129984319Y-109340550D01*
X130071722Y-109471357D01*
X130747658Y-110147294D01*
X130864625Y-110225449D01*
X130822916Y-110267086D01*
X130720715Y-110513213D01*
X130720482Y-110779716D01*
X130822253Y-111026021D01*
X131010535Y-111214631D01*
X131016457Y-111217090D01*
X131017990Y-111224796D01*
X131105393Y-111355603D01*
X131354932Y-111605142D01*
X131234214Y-111895864D01*
X131233788Y-112383995D01*
X131420194Y-112835131D01*
X131487945Y-112903000D01*
X130894424Y-112903000D01*
X130960593Y-112836947D01*
X131147786Y-112386136D01*
X131148212Y-111898005D01*
X130961806Y-111446869D01*
X130616947Y-111101407D01*
X130166136Y-110914214D01*
X129678005Y-110913788D01*
X129226869Y-111100194D01*
X128881407Y-111445053D01*
X128823935Y-111583462D01*
X128717643Y-111326852D01*
X128461159Y-111240446D01*
X127560605Y-112141000D01*
X127574748Y-112155143D01*
X127395143Y-112334748D01*
X127381000Y-112320605D01*
X127366858Y-112334748D01*
X127187253Y-112155143D01*
X127201395Y-112141000D01*
X126300841Y-111240446D01*
X126111000Y-111304401D01*
X125921159Y-111240446D01*
X125020605Y-112141000D01*
X125034748Y-112155143D01*
X124855143Y-112334748D01*
X124841000Y-112320605D01*
X124826858Y-112334748D01*
X124647253Y-112155143D01*
X124661395Y-112141000D01*
X123760841Y-111240446D01*
X123504357Y-111326852D01*
X123404731Y-111599159D01*
X123341806Y-111446869D01*
X122996947Y-111101407D01*
X122899254Y-111060841D01*
X123940446Y-111060841D01*
X124841000Y-111961395D01*
X125741554Y-111060841D01*
X126480446Y-111060841D01*
X127381000Y-111961395D01*
X128281554Y-111060841D01*
X128195148Y-110804357D01*
X127621664Y-110594542D01*
X127011540Y-110620161D01*
X126566852Y-110804357D01*
X126480446Y-111060841D01*
X125741554Y-111060841D01*
X125655148Y-110804357D01*
X125081664Y-110594542D01*
X124471540Y-110620161D01*
X124026852Y-110804357D01*
X123940446Y-111060841D01*
X122899254Y-111060841D01*
X122546136Y-110914214D01*
X122058005Y-110913788D01*
X121606869Y-111100194D01*
X121261407Y-111445053D01*
X121074214Y-111895864D01*
X121073788Y-112383995D01*
X121260194Y-112835131D01*
X121327945Y-112903000D01*
X120734424Y-112903000D01*
X120800593Y-112836947D01*
X120987786Y-112386136D01*
X120988212Y-111898005D01*
X120801806Y-111446869D01*
X120456947Y-111101407D01*
X120006136Y-110914214D01*
X119518005Y-110913788D01*
X119066869Y-111100194D01*
X118999000Y-111167945D01*
X118999000Y-97874424D01*
X119065053Y-97940593D01*
X119065053Y-97940593D01*
G37*
X119065053Y-97940593D02*
X119180000Y-97988323D01*
X119180000Y-98956637D01*
X119224226Y-99178976D01*
X119350171Y-99367466D01*
X120922660Y-100939955D01*
X121011070Y-101153924D01*
X121199352Y-101342534D01*
X121445479Y-101444735D01*
X121711982Y-101444968D01*
X121958287Y-101343197D01*
X122146897Y-101154915D01*
X122249098Y-100908788D01*
X122249123Y-100880324D01*
X122426480Y-101057681D01*
X122521082Y-101120892D01*
X122557288Y-101145084D01*
X122711586Y-101175776D01*
X124422133Y-101175776D01*
X124576431Y-101145084D01*
X124707238Y-101057681D01*
X125044503Y-100720417D01*
X125890447Y-100720417D01*
X128539160Y-103369130D01*
X128304139Y-103466239D01*
X128115529Y-103654521D01*
X128013328Y-103900648D01*
X128013095Y-104167151D01*
X128100254Y-104378093D01*
X127994250Y-104483913D01*
X127892049Y-104730040D01*
X127891816Y-104996543D01*
X127901921Y-105021000D01*
X127454323Y-105021000D01*
X127128613Y-104695290D01*
X127128816Y-104463021D01*
X127027045Y-104216716D01*
X126838763Y-104028106D01*
X126592636Y-103925905D01*
X126326133Y-103925672D01*
X126079828Y-104027443D01*
X125891218Y-104215725D01*
X125789017Y-104461852D01*
X125788784Y-104728355D01*
X125890555Y-104974660D01*
X126078837Y-105163270D01*
X126324964Y-105265471D01*
X126558577Y-105265675D01*
X126620312Y-105327411D01*
X126071079Y-105327411D01*
X125916781Y-105358103D01*
X125785973Y-105445506D01*
X125781931Y-105449548D01*
X125730805Y-105398333D01*
X125484678Y-105296132D01*
X125218175Y-105295899D01*
X124971870Y-105397670D01*
X124783260Y-105585952D01*
X124681059Y-105832079D01*
X124680826Y-106098582D01*
X124782597Y-106344887D01*
X124970879Y-106533497D01*
X125156865Y-106610725D01*
X124988944Y-106680109D01*
X124800334Y-106868391D01*
X124698133Y-107114518D01*
X124697900Y-107381021D01*
X124786916Y-107596456D01*
X124786916Y-108278202D01*
X124438865Y-108278202D01*
X124216526Y-108322428D01*
X124028036Y-108448373D01*
X123360507Y-109115902D01*
X123234562Y-109304392D01*
X123190336Y-109526731D01*
X123190336Y-109664015D01*
X123101553Y-109877828D01*
X123101320Y-110144331D01*
X123203091Y-110390636D01*
X123391373Y-110579246D01*
X123637500Y-110681447D01*
X123904003Y-110681680D01*
X124150308Y-110579909D01*
X124338918Y-110391627D01*
X124441119Y-110145500D01*
X124441352Y-109878997D01*
X124382693Y-109737032D01*
X124679523Y-109440202D01*
X125385225Y-109440202D01*
X125568190Y-109516176D01*
X126114504Y-110062490D01*
X126302994Y-110188435D01*
X126525333Y-110232661D01*
X127801132Y-110232661D01*
X128023471Y-110188435D01*
X128211961Y-110062490D01*
X128309034Y-109965417D01*
X128523003Y-109877007D01*
X128711613Y-109688725D01*
X128813814Y-109442598D01*
X128814047Y-109176095D01*
X128712276Y-108929790D01*
X128523994Y-108741180D01*
X128277867Y-108638979D01*
X128011364Y-108638746D01*
X127765059Y-108740517D01*
X127576449Y-108928799D01*
X127517543Y-109070661D01*
X127267346Y-109070661D01*
X127347062Y-108991084D01*
X127449263Y-108744957D01*
X127449374Y-108618346D01*
X129892637Y-108618346D01*
X129953627Y-108679336D01*
X129953627Y-109186252D01*
X129977996Y-109308762D01*
X129984319Y-109340550D01*
X130071722Y-109471357D01*
X130747658Y-110147294D01*
X130864625Y-110225449D01*
X130822916Y-110267086D01*
X130720715Y-110513213D01*
X130720482Y-110779716D01*
X130822253Y-111026021D01*
X131010535Y-111214631D01*
X131016457Y-111217090D01*
X131017990Y-111224796D01*
X131105393Y-111355603D01*
X131354932Y-111605142D01*
X131234214Y-111895864D01*
X131233788Y-112383995D01*
X131420194Y-112835131D01*
X131487945Y-112903000D01*
X130894424Y-112903000D01*
X130960593Y-112836947D01*
X131147786Y-112386136D01*
X131148212Y-111898005D01*
X130961806Y-111446869D01*
X130616947Y-111101407D01*
X130166136Y-110914214D01*
X129678005Y-110913788D01*
X129226869Y-111100194D01*
X128881407Y-111445053D01*
X128823935Y-111583462D01*
X128717643Y-111326852D01*
X128461159Y-111240446D01*
X127560605Y-112141000D01*
X127574748Y-112155143D01*
X127395143Y-112334748D01*
X127381000Y-112320605D01*
X127366858Y-112334748D01*
X127187253Y-112155143D01*
X127201395Y-112141000D01*
X126300841Y-111240446D01*
X126111000Y-111304401D01*
X125921159Y-111240446D01*
X125020605Y-112141000D01*
X125034748Y-112155143D01*
X124855143Y-112334748D01*
X124841000Y-112320605D01*
X124826858Y-112334748D01*
X124647253Y-112155143D01*
X124661395Y-112141000D01*
X123760841Y-111240446D01*
X123504357Y-111326852D01*
X123404731Y-111599159D01*
X123341806Y-111446869D01*
X122996947Y-111101407D01*
X122899254Y-111060841D01*
X123940446Y-111060841D01*
X124841000Y-111961395D01*
X125741554Y-111060841D01*
X126480446Y-111060841D01*
X127381000Y-111961395D01*
X128281554Y-111060841D01*
X128195148Y-110804357D01*
X127621664Y-110594542D01*
X127011540Y-110620161D01*
X126566852Y-110804357D01*
X126480446Y-111060841D01*
X125741554Y-111060841D01*
X125655148Y-110804357D01*
X125081664Y-110594542D01*
X124471540Y-110620161D01*
X124026852Y-110804357D01*
X123940446Y-111060841D01*
X122899254Y-111060841D01*
X122546136Y-110914214D01*
X122058005Y-110913788D01*
X121606869Y-111100194D01*
X121261407Y-111445053D01*
X121074214Y-111895864D01*
X121073788Y-112383995D01*
X121260194Y-112835131D01*
X121327945Y-112903000D01*
X120734424Y-112903000D01*
X120800593Y-112836947D01*
X120987786Y-112386136D01*
X120988212Y-111898005D01*
X120801806Y-111446869D01*
X120456947Y-111101407D01*
X120006136Y-110914214D01*
X119518005Y-110913788D01*
X119066869Y-111100194D01*
X118999000Y-111167945D01*
X118999000Y-97874424D01*
X119065053Y-97940593D01*
G36*
X148469897Y-111174484D02*
X148396947Y-111101407D01*
X147946136Y-110914214D01*
X147458005Y-110913788D01*
X147165046Y-111034836D01*
X147086106Y-110955896D01*
X146955299Y-110868493D01*
X146951051Y-110867648D01*
X146801001Y-110837801D01*
X146681133Y-110837801D01*
X146774712Y-110744385D01*
X146876913Y-110498258D01*
X146877146Y-110231755D01*
X146775375Y-109985450D01*
X146610330Y-109820117D01*
X146610330Y-106163301D01*
X146579638Y-106009003D01*
X146560565Y-105980458D01*
X146492236Y-105878196D01*
X146471853Y-105857813D01*
X146472056Y-105625544D01*
X146370285Y-105379239D01*
X146182003Y-105190629D01*
X145935876Y-105088428D01*
X145669373Y-105088195D01*
X145423068Y-105189966D01*
X145234458Y-105378248D01*
X145195297Y-105472557D01*
X144834836Y-105112096D01*
X144704029Y-105024693D01*
X144685463Y-105021000D01*
X144549731Y-104994001D01*
X144254908Y-104994001D01*
X145061398Y-104187512D01*
X145293667Y-104187715D01*
X145539972Y-104085944D01*
X145728582Y-103897662D01*
X145830783Y-103651535D01*
X145831016Y-103385032D01*
X145729245Y-103138727D01*
X145540963Y-102950117D01*
X145294836Y-102847916D01*
X145028333Y-102847683D01*
X144782028Y-102949454D01*
X144721144Y-103010232D01*
X144668741Y-102957738D01*
X144556574Y-102911162D01*
X145479117Y-101988619D01*
X146373239Y-101988619D01*
X146527537Y-101957927D01*
X146658344Y-101870524D01*
X147986106Y-100542763D01*
X148050595Y-100446247D01*
X148073508Y-100411956D01*
X148104200Y-100257658D01*
X148104200Y-98062016D01*
X148395131Y-97941806D01*
X148519551Y-97817603D01*
X148469897Y-111174484D01*
X148469897Y-111174484D01*
G37*
X148469897Y-111174484D02*
X148396947Y-111101407D01*
X147946136Y-110914214D01*
X147458005Y-110913788D01*
X147165046Y-111034836D01*
X147086106Y-110955896D01*
X146955299Y-110868493D01*
X146951051Y-110867648D01*
X146801001Y-110837801D01*
X146681133Y-110837801D01*
X146774712Y-110744385D01*
X146876913Y-110498258D01*
X146877146Y-110231755D01*
X146775375Y-109985450D01*
X146610330Y-109820117D01*
X146610330Y-106163301D01*
X146579638Y-106009003D01*
X146560565Y-105980458D01*
X146492236Y-105878196D01*
X146471853Y-105857813D01*
X146472056Y-105625544D01*
X146370285Y-105379239D01*
X146182003Y-105190629D01*
X145935876Y-105088428D01*
X145669373Y-105088195D01*
X145423068Y-105189966D01*
X145234458Y-105378248D01*
X145195297Y-105472557D01*
X144834836Y-105112096D01*
X144704029Y-105024693D01*
X144685463Y-105021000D01*
X144549731Y-104994001D01*
X144254908Y-104994001D01*
X145061398Y-104187512D01*
X145293667Y-104187715D01*
X145539972Y-104085944D01*
X145728582Y-103897662D01*
X145830783Y-103651535D01*
X145831016Y-103385032D01*
X145729245Y-103138727D01*
X145540963Y-102950117D01*
X145294836Y-102847916D01*
X145028333Y-102847683D01*
X144782028Y-102949454D01*
X144721144Y-103010232D01*
X144668741Y-102957738D01*
X144556574Y-102911162D01*
X145479117Y-101988619D01*
X146373239Y-101988619D01*
X146527537Y-101957927D01*
X146658344Y-101870524D01*
X147986106Y-100542763D01*
X148050595Y-100446247D01*
X148073508Y-100411956D01*
X148104200Y-100257658D01*
X148104200Y-98062016D01*
X148395131Y-97941806D01*
X148519551Y-97817603D01*
X148469897Y-111174484D01*
G36*
X146661407Y-96205053D02*
X146474214Y-96655864D01*
X146473788Y-97143995D01*
X146660194Y-97595131D01*
X147005053Y-97940593D01*
X147297800Y-98062152D01*
X147297800Y-100090647D01*
X146206229Y-101182219D01*
X145312107Y-101182219D01*
X145157809Y-101212911D01*
X145027002Y-101300314D01*
X143465378Y-102861938D01*
X143279602Y-102784797D01*
X143045990Y-102784593D01*
X141809624Y-101548228D01*
X141678817Y-101460825D01*
X141524519Y-101430133D01*
X140972733Y-101430133D01*
X140808637Y-101265751D01*
X140562510Y-101163550D01*
X140296007Y-101163317D01*
X140049702Y-101265088D01*
X139861092Y-101453370D01*
X139758891Y-101699497D01*
X139758658Y-101966000D01*
X139860041Y-102211367D01*
X139783310Y-102287965D01*
X139681109Y-102534092D01*
X139680876Y-102800595D01*
X139782647Y-103046900D01*
X139970929Y-103235510D01*
X140217056Y-103337711D01*
X140450669Y-103337915D01*
X141047939Y-103935186D01*
X141078750Y-103955773D01*
X140189926Y-103955773D01*
X140025830Y-103791391D01*
X139779703Y-103689190D01*
X139513200Y-103688957D01*
X139266895Y-103790728D01*
X139078285Y-103979010D01*
X139009716Y-104144142D01*
X138311923Y-103446349D01*
X138181115Y-103358946D01*
X138168285Y-103356394D01*
X138026817Y-103328254D01*
X137822687Y-103328254D01*
X137871380Y-103210988D01*
X137871613Y-102944485D01*
X137769842Y-102698180D01*
X137581560Y-102509570D01*
X137335433Y-102407369D01*
X137068930Y-102407136D01*
X136822625Y-102508907D01*
X136760490Y-102570934D01*
X136535508Y-102345953D01*
X136404701Y-102258550D01*
X136250403Y-102227858D01*
X134308898Y-102227858D01*
X134018928Y-101937888D01*
X133888121Y-101850485D01*
X133733823Y-101819793D01*
X132884833Y-101819793D01*
X132730535Y-101850485D01*
X132599728Y-101937887D01*
X132301405Y-102236210D01*
X132162179Y-102096741D01*
X132162179Y-101332295D01*
X133055481Y-100438994D01*
X133142884Y-100308186D01*
X133151894Y-100262889D01*
X133173576Y-100153888D01*
X133173576Y-98540299D01*
X134039400Y-97674476D01*
X134257708Y-97893165D01*
X133890575Y-98260298D01*
X133803172Y-98391105D01*
X133787155Y-98471627D01*
X133608098Y-98650373D01*
X133505897Y-98896500D01*
X133505664Y-99163003D01*
X133607435Y-99409308D01*
X133795717Y-99597918D01*
X134041844Y-99700119D01*
X134308347Y-99700352D01*
X134554652Y-99598581D01*
X134743262Y-99410299D01*
X134761149Y-99367221D01*
X134800917Y-99407058D01*
X134862954Y-99432818D01*
X134018817Y-100276956D01*
X133786547Y-100276753D01*
X133540242Y-100378524D01*
X133351632Y-100566806D01*
X133249431Y-100812933D01*
X133249198Y-101079436D01*
X133350969Y-101325741D01*
X133539251Y-101514351D01*
X133785378Y-101616552D01*
X134051881Y-101616785D01*
X134298186Y-101515014D01*
X134486796Y-101326732D01*
X134588997Y-101080605D01*
X134589201Y-100846992D01*
X134704959Y-100731234D01*
X134697253Y-100749792D01*
X134697020Y-101016295D01*
X134798791Y-101262600D01*
X134987073Y-101451210D01*
X135233200Y-101553411D01*
X135237855Y-101553415D01*
X135237765Y-101656759D01*
X135339536Y-101903064D01*
X135527818Y-102091674D01*
X135773945Y-102193875D01*
X136040448Y-102194108D01*
X136286753Y-102092337D01*
X136452086Y-101927292D01*
X138356405Y-101927292D01*
X138510703Y-101896600D01*
X138641510Y-101809197D01*
X139533971Y-100916737D01*
X140000137Y-100916737D01*
X140085717Y-100973920D01*
X140240015Y-101004612D01*
X142222588Y-101004612D01*
X142376886Y-100973920D01*
X142507693Y-100886517D01*
X143028301Y-100365910D01*
X143256000Y-100411202D01*
X143463725Y-100369883D01*
X143487673Y-100427698D01*
X143666301Y-100606327D01*
X143899690Y-100703000D01*
X144240250Y-100703000D01*
X144399000Y-100544250D01*
X144399000Y-99695000D01*
X144653000Y-99695000D01*
X144653000Y-100544250D01*
X144811750Y-100703000D01*
X145152310Y-100703000D01*
X145385699Y-100606327D01*
X145564327Y-100427698D01*
X145661000Y-100194309D01*
X145661000Y-99853750D01*
X145502250Y-99695000D01*
X144653000Y-99695000D01*
X144399000Y-99695000D01*
X144379000Y-99695000D01*
X144379000Y-99441000D01*
X144399000Y-99441000D01*
X144399000Y-98591750D01*
X144653000Y-98591750D01*
X144653000Y-99441000D01*
X145502250Y-99441000D01*
X145661000Y-99282250D01*
X145661000Y-98941691D01*
X145564327Y-98708302D01*
X145385699Y-98529673D01*
X145152310Y-98433000D01*
X144811750Y-98433000D01*
X144653000Y-98591750D01*
X144399000Y-98591750D01*
X144240250Y-98433000D01*
X143899690Y-98433000D01*
X143666301Y-98529673D01*
X143487673Y-98708302D01*
X143463725Y-98766117D01*
X143256000Y-98724798D01*
X142939521Y-98787750D01*
X142671223Y-98967021D01*
X142621000Y-99042185D01*
X142570777Y-98967021D01*
X142302479Y-98787750D01*
X141986000Y-98724798D01*
X141669521Y-98787750D01*
X141401223Y-98967021D01*
X141351000Y-99042185D01*
X141300777Y-98967021D01*
X141032479Y-98787750D01*
X140780415Y-98737611D01*
X140791443Y-98737611D01*
X140945741Y-98706919D01*
X141076548Y-98619516D01*
X141263264Y-98432801D01*
X144032399Y-98432801D01*
X144186697Y-98402109D01*
X144317504Y-98314706D01*
X144625142Y-98007068D01*
X144915864Y-98127786D01*
X145403995Y-98128212D01*
X145855131Y-97941806D01*
X146200593Y-97596947D01*
X146387786Y-97146136D01*
X146388212Y-96658005D01*
X146201806Y-96206869D01*
X146070666Y-96075500D01*
X146791187Y-96075500D01*
X146661407Y-96205053D01*
X146661407Y-96205053D01*
G37*
X146661407Y-96205053D02*
X146474214Y-96655864D01*
X146473788Y-97143995D01*
X146660194Y-97595131D01*
X147005053Y-97940593D01*
X147297800Y-98062152D01*
X147297800Y-100090647D01*
X146206229Y-101182219D01*
X145312107Y-101182219D01*
X145157809Y-101212911D01*
X145027002Y-101300314D01*
X143465378Y-102861938D01*
X143279602Y-102784797D01*
X143045990Y-102784593D01*
X141809624Y-101548228D01*
X141678817Y-101460825D01*
X141524519Y-101430133D01*
X140972733Y-101430133D01*
X140808637Y-101265751D01*
X140562510Y-101163550D01*
X140296007Y-101163317D01*
X140049702Y-101265088D01*
X139861092Y-101453370D01*
X139758891Y-101699497D01*
X139758658Y-101966000D01*
X139860041Y-102211367D01*
X139783310Y-102287965D01*
X139681109Y-102534092D01*
X139680876Y-102800595D01*
X139782647Y-103046900D01*
X139970929Y-103235510D01*
X140217056Y-103337711D01*
X140450669Y-103337915D01*
X141047939Y-103935186D01*
X141078750Y-103955773D01*
X140189926Y-103955773D01*
X140025830Y-103791391D01*
X139779703Y-103689190D01*
X139513200Y-103688957D01*
X139266895Y-103790728D01*
X139078285Y-103979010D01*
X139009716Y-104144142D01*
X138311923Y-103446349D01*
X138181115Y-103358946D01*
X138168285Y-103356394D01*
X138026817Y-103328254D01*
X137822687Y-103328254D01*
X137871380Y-103210988D01*
X137871613Y-102944485D01*
X137769842Y-102698180D01*
X137581560Y-102509570D01*
X137335433Y-102407369D01*
X137068930Y-102407136D01*
X136822625Y-102508907D01*
X136760490Y-102570934D01*
X136535508Y-102345953D01*
X136404701Y-102258550D01*
X136250403Y-102227858D01*
X134308898Y-102227858D01*
X134018928Y-101937888D01*
X133888121Y-101850485D01*
X133733823Y-101819793D01*
X132884833Y-101819793D01*
X132730535Y-101850485D01*
X132599728Y-101937887D01*
X132301405Y-102236210D01*
X132162179Y-102096741D01*
X132162179Y-101332295D01*
X133055481Y-100438994D01*
X133142884Y-100308186D01*
X133151894Y-100262889D01*
X133173576Y-100153888D01*
X133173576Y-98540299D01*
X134039400Y-97674476D01*
X134257708Y-97893165D01*
X133890575Y-98260298D01*
X133803172Y-98391105D01*
X133787155Y-98471627D01*
X133608098Y-98650373D01*
X133505897Y-98896500D01*
X133505664Y-99163003D01*
X133607435Y-99409308D01*
X133795717Y-99597918D01*
X134041844Y-99700119D01*
X134308347Y-99700352D01*
X134554652Y-99598581D01*
X134743262Y-99410299D01*
X134761149Y-99367221D01*
X134800917Y-99407058D01*
X134862954Y-99432818D01*
X134018817Y-100276956D01*
X133786547Y-100276753D01*
X133540242Y-100378524D01*
X133351632Y-100566806D01*
X133249431Y-100812933D01*
X133249198Y-101079436D01*
X133350969Y-101325741D01*
X133539251Y-101514351D01*
X133785378Y-101616552D01*
X134051881Y-101616785D01*
X134298186Y-101515014D01*
X134486796Y-101326732D01*
X134588997Y-101080605D01*
X134589201Y-100846992D01*
X134704959Y-100731234D01*
X134697253Y-100749792D01*
X134697020Y-101016295D01*
X134798791Y-101262600D01*
X134987073Y-101451210D01*
X135233200Y-101553411D01*
X135237855Y-101553415D01*
X135237765Y-101656759D01*
X135339536Y-101903064D01*
X135527818Y-102091674D01*
X135773945Y-102193875D01*
X136040448Y-102194108D01*
X136286753Y-102092337D01*
X136452086Y-101927292D01*
X138356405Y-101927292D01*
X138510703Y-101896600D01*
X138641510Y-101809197D01*
X139533971Y-100916737D01*
X140000137Y-100916737D01*
X140085717Y-100973920D01*
X140240015Y-101004612D01*
X142222588Y-101004612D01*
X142376886Y-100973920D01*
X142507693Y-100886517D01*
X143028301Y-100365910D01*
X143256000Y-100411202D01*
X143463725Y-100369883D01*
X143487673Y-100427698D01*
X143666301Y-100606327D01*
X143899690Y-100703000D01*
X144240250Y-100703000D01*
X144399000Y-100544250D01*
X144399000Y-99695000D01*
X144653000Y-99695000D01*
X144653000Y-100544250D01*
X144811750Y-100703000D01*
X145152310Y-100703000D01*
X145385699Y-100606327D01*
X145564327Y-100427698D01*
X145661000Y-100194309D01*
X145661000Y-99853750D01*
X145502250Y-99695000D01*
X144653000Y-99695000D01*
X144399000Y-99695000D01*
X144379000Y-99695000D01*
X144379000Y-99441000D01*
X144399000Y-99441000D01*
X144399000Y-98591750D01*
X144653000Y-98591750D01*
X144653000Y-99441000D01*
X145502250Y-99441000D01*
X145661000Y-99282250D01*
X145661000Y-98941691D01*
X145564327Y-98708302D01*
X145385699Y-98529673D01*
X145152310Y-98433000D01*
X144811750Y-98433000D01*
X144653000Y-98591750D01*
X144399000Y-98591750D01*
X144240250Y-98433000D01*
X143899690Y-98433000D01*
X143666301Y-98529673D01*
X143487673Y-98708302D01*
X143463725Y-98766117D01*
X143256000Y-98724798D01*
X142939521Y-98787750D01*
X142671223Y-98967021D01*
X142621000Y-99042185D01*
X142570777Y-98967021D01*
X142302479Y-98787750D01*
X141986000Y-98724798D01*
X141669521Y-98787750D01*
X141401223Y-98967021D01*
X141351000Y-99042185D01*
X141300777Y-98967021D01*
X141032479Y-98787750D01*
X140780415Y-98737611D01*
X140791443Y-98737611D01*
X140945741Y-98706919D01*
X141076548Y-98619516D01*
X141263264Y-98432801D01*
X144032399Y-98432801D01*
X144186697Y-98402109D01*
X144317504Y-98314706D01*
X144625142Y-98007068D01*
X144915864Y-98127786D01*
X145403995Y-98128212D01*
X145855131Y-97941806D01*
X146200593Y-97596947D01*
X146387786Y-97146136D01*
X146388212Y-96658005D01*
X146201806Y-96206869D01*
X146070666Y-96075500D01*
X146791187Y-96075500D01*
X146661407Y-96205053D01*
G36*
X128443584Y-98785242D02*
X128632074Y-98911187D01*
X128854413Y-98955413D01*
X129433885Y-98955413D01*
X129483179Y-99004707D01*
X129483179Y-99988860D01*
X129527405Y-100211199D01*
X129653350Y-100399689D01*
X129801694Y-100548033D01*
X129890104Y-100762002D01*
X130059716Y-100931909D01*
X130040903Y-100931909D01*
X129876807Y-100767527D01*
X129630680Y-100665326D01*
X129364177Y-100665093D01*
X129117872Y-100766864D01*
X128929262Y-100955146D01*
X128827061Y-101201273D01*
X128826828Y-101467776D01*
X128928599Y-101714081D01*
X129116881Y-101902691D01*
X129363008Y-102004892D01*
X129629511Y-102005125D01*
X129875816Y-101903354D01*
X130041149Y-101738309D01*
X130727022Y-101738309D01*
X130729421Y-101737832D01*
X130729421Y-102688076D01*
X130565039Y-102852172D01*
X130462838Y-103098299D01*
X130462605Y-103364802D01*
X130482884Y-103413881D01*
X130155398Y-103413881D01*
X126558984Y-99817467D01*
X127791829Y-98584621D01*
X127917774Y-98396131D01*
X127940454Y-98282112D01*
X128443584Y-98785242D01*
X128443584Y-98785242D01*
G37*
X128443584Y-98785242D02*
X128632074Y-98911187D01*
X128854413Y-98955413D01*
X129433885Y-98955413D01*
X129483179Y-99004707D01*
X129483179Y-99988860D01*
X129527405Y-100211199D01*
X129653350Y-100399689D01*
X129801694Y-100548033D01*
X129890104Y-100762002D01*
X130059716Y-100931909D01*
X130040903Y-100931909D01*
X129876807Y-100767527D01*
X129630680Y-100665326D01*
X129364177Y-100665093D01*
X129117872Y-100766864D01*
X128929262Y-100955146D01*
X128827061Y-101201273D01*
X128826828Y-101467776D01*
X128928599Y-101714081D01*
X129116881Y-101902691D01*
X129363008Y-102004892D01*
X129629511Y-102005125D01*
X129875816Y-101903354D01*
X130041149Y-101738309D01*
X130727022Y-101738309D01*
X130729421Y-101737832D01*
X130729421Y-102688076D01*
X130565039Y-102852172D01*
X130462838Y-103098299D01*
X130462605Y-103364802D01*
X130482884Y-103413881D01*
X130155398Y-103413881D01*
X126558984Y-99817467D01*
X127791829Y-98584621D01*
X127917774Y-98396131D01*
X127940454Y-98282112D01*
X128443584Y-98785242D01*
G36*
X122494748Y-96886858D02*
X122480605Y-96901000D01*
X122494748Y-96915143D01*
X122315143Y-97094748D01*
X122301000Y-97080605D01*
X121400446Y-97981159D01*
X121486852Y-98237643D01*
X122060336Y-98447458D01*
X122670460Y-98421839D01*
X123102039Y-98243073D01*
X123102039Y-100170586D01*
X123127105Y-100296601D01*
X123132731Y-100324884D01*
X123162460Y-100369376D01*
X122878597Y-100369376D01*
X122625897Y-100116676D01*
X122626100Y-99884407D01*
X122524329Y-99638102D01*
X122336047Y-99449492D01*
X122089920Y-99347291D01*
X121823417Y-99347058D01*
X121577112Y-99448829D01*
X121388502Y-99637111D01*
X121351718Y-99725697D01*
X120342000Y-98715979D01*
X120342000Y-97988551D01*
X120455131Y-97941806D01*
X120800593Y-97596947D01*
X120858065Y-97458538D01*
X120964357Y-97715148D01*
X121220841Y-97801554D01*
X122121395Y-96901000D01*
X122107253Y-96886858D01*
X122286858Y-96707253D01*
X122301000Y-96721395D01*
X122315143Y-96707253D01*
X122494748Y-96886858D01*
X122494748Y-96886858D01*
G37*
X122494748Y-96886858D02*
X122480605Y-96901000D01*
X122494748Y-96915143D01*
X122315143Y-97094748D01*
X122301000Y-97080605D01*
X121400446Y-97981159D01*
X121486852Y-98237643D01*
X122060336Y-98447458D01*
X122670460Y-98421839D01*
X123102039Y-98243073D01*
X123102039Y-100170586D01*
X123127105Y-100296601D01*
X123132731Y-100324884D01*
X123162460Y-100369376D01*
X122878597Y-100369376D01*
X122625897Y-100116676D01*
X122626100Y-99884407D01*
X122524329Y-99638102D01*
X122336047Y-99449492D01*
X122089920Y-99347291D01*
X121823417Y-99347058D01*
X121577112Y-99448829D01*
X121388502Y-99637111D01*
X121351718Y-99725697D01*
X120342000Y-98715979D01*
X120342000Y-97988551D01*
X120455131Y-97941806D01*
X120800593Y-97596947D01*
X120858065Y-97458538D01*
X120964357Y-97715148D01*
X121220841Y-97801554D01*
X122121395Y-96901000D01*
X122107253Y-96886858D01*
X122286858Y-96707253D01*
X122301000Y-96721395D01*
X122315143Y-96707253D01*
X122494748Y-96886858D01*
G36*
X131421407Y-96205053D02*
X131234214Y-96655864D01*
X131233788Y-97143995D01*
X131420194Y-97595131D01*
X131765053Y-97940593D01*
X132057800Y-98062152D01*
X132057800Y-99865187D01*
X131730133Y-100192854D01*
X131715779Y-100171372D01*
X131646614Y-100067859D01*
X130974667Y-99395913D01*
X130974667Y-97563053D01*
X131147786Y-97146136D01*
X131148212Y-96658005D01*
X130961806Y-96206869D01*
X130830666Y-96075500D01*
X131551187Y-96075500D01*
X131421407Y-96205053D01*
X131421407Y-96205053D01*
G37*
X131421407Y-96205053D02*
X131234214Y-96655864D01*
X131233788Y-97143995D01*
X131420194Y-97595131D01*
X131765053Y-97940593D01*
X132057800Y-98062152D01*
X132057800Y-99865187D01*
X131730133Y-100192854D01*
X131715779Y-100171372D01*
X131646614Y-100067859D01*
X130974667Y-99395913D01*
X130974667Y-97563053D01*
X131147786Y-97146136D01*
X131148212Y-96658005D01*
X130961806Y-96206869D01*
X130830666Y-96075500D01*
X131551187Y-96075500D01*
X131421407Y-96205053D01*
G36*
X126341407Y-96205053D02*
X126154214Y-96655864D01*
X126153788Y-97143995D01*
X126340194Y-97595131D01*
X126685053Y-97940593D01*
X126761004Y-97972130D01*
X125784339Y-98948795D01*
X124425619Y-98948795D01*
X124203280Y-98993021D01*
X124014790Y-99118966D01*
X123911746Y-99222010D01*
X123908439Y-99223376D01*
X123908439Y-98403771D01*
X124226107Y-98086104D01*
X124226109Y-98086101D01*
X124305142Y-98007068D01*
X124595864Y-98127786D01*
X125083995Y-98128212D01*
X125535131Y-97941806D01*
X125880593Y-97596947D01*
X126067786Y-97146136D01*
X126068212Y-96658005D01*
X125881806Y-96206869D01*
X125750666Y-96075500D01*
X126471187Y-96075500D01*
X126341407Y-96205053D01*
X126341407Y-96205053D01*
G37*
X126341407Y-96205053D02*
X126154214Y-96655864D01*
X126153788Y-97143995D01*
X126340194Y-97595131D01*
X126685053Y-97940593D01*
X126761004Y-97972130D01*
X125784339Y-98948795D01*
X124425619Y-98948795D01*
X124203280Y-98993021D01*
X124014790Y-99118966D01*
X123911746Y-99222010D01*
X123908439Y-99223376D01*
X123908439Y-98403771D01*
X124226107Y-98086104D01*
X124226109Y-98086101D01*
X124305142Y-98007068D01*
X124595864Y-98127786D01*
X125083995Y-98128212D01*
X125535131Y-97941806D01*
X125880593Y-97596947D01*
X126067786Y-97146136D01*
X126068212Y-96658005D01*
X125881806Y-96206869D01*
X125750666Y-96075500D01*
X126471187Y-96075500D01*
X126341407Y-96205053D01*
G36*
X140399521Y-98787750D02*
X140131223Y-98967021D01*
X140012224Y-99145115D01*
X137975278Y-99145115D01*
X137958437Y-99128244D01*
X138256956Y-99128244D01*
X138411254Y-99097552D01*
X138542061Y-99010149D01*
X138814600Y-98737611D01*
X140651585Y-98737611D01*
X140399521Y-98787750D01*
X140399521Y-98787750D01*
G37*
X140399521Y-98787750D02*
X140131223Y-98967021D01*
X140012224Y-99145115D01*
X137975278Y-99145115D01*
X137958437Y-99128244D01*
X138256956Y-99128244D01*
X138411254Y-99097552D01*
X138542061Y-99010149D01*
X138814600Y-98737611D01*
X140651585Y-98737611D01*
X140399521Y-98787750D01*
M02*
