G04 #@! TF.FileFunction,Soldermask,Top*
%FSLAX46Y46*%
G04 Gerber Fmt 4.6, Leading zero omitted, Abs format (unit mm)*
G04 Created by KiCad (PCBNEW 4.0.7) date 2017 December 25, Monday 22:32:58*
%MOMM*%
%LPD*%
G01*
G04 APERTURE LIST*
%ADD10C,0.100000*%
%ADD11R,1.200000X1.200000*%
%ADD12O,1.200000X1.200000*%
%ADD13R,1.000000X0.950000*%
%ADD14R,0.850000X1.760000*%
%ADD15R,0.950000X1.000000*%
%ADD16C,2.000000*%
%ADD17R,0.700000X1.100000*%
%ADD18R,1.580000X0.650000*%
%ADD19R,2.300000X1.675000*%
%ADD20R,2.100000X2.575000*%
%ADD21R,2.100000X1.375000*%
%ADD22R,1.800000X2.200000*%
%ADD23R,1.000000X1.000000*%
%ADD24R,1.300000X0.800000*%
%ADD25R,0.850000X1.900000*%
G04 APERTURE END LIST*
D10*
D11*
X144526000Y-99568000D03*
D12*
X143256000Y-99568000D03*
X141986000Y-99568000D03*
X140716000Y-99568000D03*
D13*
X128294000Y-108712000D03*
X129794000Y-108712000D03*
D10*
G36*
X139971678Y-107260571D02*
X140643429Y-107932322D01*
X139936322Y-108639429D01*
X139264571Y-107967678D01*
X139971678Y-107260571D01*
X139971678Y-107260571D01*
G37*
G36*
X138911018Y-108321231D02*
X139582769Y-108992982D01*
X138875662Y-109700089D01*
X138203911Y-109028338D01*
X138911018Y-108321231D01*
X138911018Y-108321231D01*
G37*
D14*
X126360000Y-103171000D03*
X125410000Y-103171000D03*
X124460000Y-103171000D03*
X124460000Y-105871000D03*
X126360000Y-105871000D03*
D15*
X127508000Y-106172000D03*
X127508000Y-104672000D03*
D16*
X119761000Y-112141000D03*
X122301000Y-112141000D03*
X124841000Y-112141000D03*
X127381000Y-112141000D03*
X129921000Y-112141000D03*
X132461000Y-112141000D03*
X135001000Y-112141000D03*
X137541000Y-112141000D03*
X140081000Y-112141000D03*
X142621000Y-112141000D03*
X145161000Y-112141000D03*
X147701000Y-112141000D03*
X147701000Y-96901000D03*
X145161000Y-96901000D03*
X142621000Y-96901000D03*
X140081000Y-96901000D03*
X137541000Y-96901000D03*
X135001000Y-96901000D03*
X132461000Y-96901000D03*
X129921000Y-96901000D03*
X127381000Y-96901000D03*
X124841000Y-96901000D03*
X122301000Y-96901000D03*
X119761000Y-96901000D03*
D13*
X137311000Y-98679000D03*
X138811000Y-98679000D03*
D10*
G36*
X137949911Y-100013662D02*
X138621662Y-99341911D01*
X139328769Y-100049018D01*
X138657018Y-100720769D01*
X137949911Y-100013662D01*
X137949911Y-100013662D01*
G37*
G36*
X139010571Y-101074322D02*
X139682322Y-100402571D01*
X140389429Y-101109678D01*
X139717678Y-101781429D01*
X139010571Y-101074322D01*
X139010571Y-101074322D01*
G37*
D13*
X124587000Y-100965000D03*
X126087000Y-100965000D03*
D17*
X123547000Y-98806000D03*
X122047000Y-98806000D03*
D13*
X124992000Y-98425000D03*
X126492000Y-98425000D03*
D15*
X127508000Y-102132000D03*
X127508000Y-103632000D03*
D13*
X125706000Y-108839000D03*
X124206000Y-108839000D03*
D17*
X127151000Y-110236000D03*
X128651000Y-110236000D03*
D18*
X122611500Y-103221000D03*
X122611500Y-103871000D03*
X122611500Y-104521000D03*
X122611500Y-105171000D03*
X122611500Y-105821000D03*
D19*
X122251500Y-102058500D03*
X122251500Y-106983500D03*
D20*
X119951500Y-101611000D03*
X119951500Y-107431000D03*
D21*
X119951500Y-103681000D03*
X119951500Y-105361000D03*
D22*
X147574000Y-101821000D03*
X147574000Y-107221000D03*
D23*
X121107000Y-98806000D03*
X119507000Y-98806000D03*
D17*
X131167000Y-110236000D03*
X129667000Y-110236000D03*
X123547000Y-110236000D03*
X122047000Y-110236000D03*
D13*
X124992000Y-99568000D03*
X126492000Y-99568000D03*
D23*
X121069000Y-110236000D03*
X119469000Y-110236000D03*
D24*
X128270000Y-98803000D03*
X128270000Y-100203000D03*
D23*
X148209000Y-98679000D03*
X146609000Y-98679000D03*
X148158000Y-110363000D03*
X146558000Y-110363000D03*
D10*
G36*
X132549849Y-99129311D02*
X132868047Y-98811113D01*
X133928707Y-99871773D01*
X133610509Y-100189971D01*
X132549849Y-99129311D01*
X132549849Y-99129311D01*
G37*
G36*
X132196296Y-99482864D02*
X132514494Y-99164666D01*
X133575154Y-100225326D01*
X133256956Y-100543524D01*
X132196296Y-99482864D01*
X132196296Y-99482864D01*
G37*
G36*
X131842742Y-99836418D02*
X132160940Y-99518220D01*
X133221600Y-100578880D01*
X132903402Y-100897078D01*
X131842742Y-99836418D01*
X131842742Y-99836418D01*
G37*
G36*
X131489189Y-100189971D02*
X131807387Y-99871773D01*
X132868047Y-100932433D01*
X132549849Y-101250631D01*
X131489189Y-100189971D01*
X131489189Y-100189971D01*
G37*
G36*
X131135636Y-100543524D02*
X131453834Y-100225326D01*
X132514494Y-101285986D01*
X132196296Y-101604184D01*
X131135636Y-100543524D01*
X131135636Y-100543524D01*
G37*
G36*
X130782082Y-100897078D02*
X131100280Y-100578880D01*
X132160940Y-101639540D01*
X131842742Y-101957738D01*
X130782082Y-100897078D01*
X130782082Y-100897078D01*
G37*
G36*
X130428529Y-101250631D02*
X130746727Y-100932433D01*
X131807387Y-101993093D01*
X131489189Y-102311291D01*
X130428529Y-101250631D01*
X130428529Y-101250631D01*
G37*
G36*
X130074975Y-101604185D02*
X130393173Y-101285987D01*
X131453833Y-102346647D01*
X131135635Y-102664845D01*
X130074975Y-101604185D01*
X130074975Y-101604185D01*
G37*
G36*
X129721422Y-101957738D02*
X130039620Y-101639540D01*
X131100280Y-102700200D01*
X130782082Y-103018398D01*
X129721422Y-101957738D01*
X129721422Y-101957738D01*
G37*
G36*
X129367869Y-102311291D02*
X129686067Y-101993093D01*
X130746727Y-103053753D01*
X130428529Y-103371951D01*
X129367869Y-102311291D01*
X129367869Y-102311291D01*
G37*
G36*
X129014315Y-102664845D02*
X129332513Y-102346647D01*
X130393173Y-103407307D01*
X130074975Y-103725505D01*
X129014315Y-102664845D01*
X129014315Y-102664845D01*
G37*
G36*
X128660762Y-103018398D02*
X128978960Y-102700200D01*
X130039620Y-103760860D01*
X129721422Y-104079058D01*
X128660762Y-103018398D01*
X128660762Y-103018398D01*
G37*
G36*
X128978960Y-106341800D02*
X128660762Y-106023602D01*
X129721422Y-104962942D01*
X130039620Y-105281140D01*
X128978960Y-106341800D01*
X128978960Y-106341800D01*
G37*
G36*
X129332513Y-106695353D02*
X129014315Y-106377155D01*
X130074975Y-105316495D01*
X130393173Y-105634693D01*
X129332513Y-106695353D01*
X129332513Y-106695353D01*
G37*
G36*
X129686067Y-107048907D02*
X129367869Y-106730709D01*
X130428529Y-105670049D01*
X130746727Y-105988247D01*
X129686067Y-107048907D01*
X129686067Y-107048907D01*
G37*
G36*
X130039620Y-107402460D02*
X129721422Y-107084262D01*
X130782082Y-106023602D01*
X131100280Y-106341800D01*
X130039620Y-107402460D01*
X130039620Y-107402460D01*
G37*
G36*
X130393173Y-107756013D02*
X130074975Y-107437815D01*
X131135635Y-106377155D01*
X131453833Y-106695353D01*
X130393173Y-107756013D01*
X130393173Y-107756013D01*
G37*
G36*
X130746727Y-108109567D02*
X130428529Y-107791369D01*
X131489189Y-106730709D01*
X131807387Y-107048907D01*
X130746727Y-108109567D01*
X130746727Y-108109567D01*
G37*
G36*
X131100280Y-108463120D02*
X130782082Y-108144922D01*
X131842742Y-107084262D01*
X132160940Y-107402460D01*
X131100280Y-108463120D01*
X131100280Y-108463120D01*
G37*
G36*
X131453834Y-108816674D02*
X131135636Y-108498476D01*
X132196296Y-107437816D01*
X132514494Y-107756014D01*
X131453834Y-108816674D01*
X131453834Y-108816674D01*
G37*
G36*
X131807387Y-109170227D02*
X131489189Y-108852029D01*
X132549849Y-107791369D01*
X132868047Y-108109567D01*
X131807387Y-109170227D01*
X131807387Y-109170227D01*
G37*
G36*
X132160940Y-109523780D02*
X131842742Y-109205582D01*
X132903402Y-108144922D01*
X133221600Y-108463120D01*
X132160940Y-109523780D01*
X132160940Y-109523780D01*
G37*
G36*
X132514494Y-109877334D02*
X132196296Y-109559136D01*
X133256956Y-108498476D01*
X133575154Y-108816674D01*
X132514494Y-109877334D01*
X132514494Y-109877334D01*
G37*
G36*
X132868047Y-110230887D02*
X132549849Y-109912689D01*
X133610509Y-108852029D01*
X133928707Y-109170227D01*
X132868047Y-110230887D01*
X132868047Y-110230887D01*
G37*
G36*
X134812591Y-109170227D02*
X135130789Y-108852029D01*
X136191449Y-109912689D01*
X135873251Y-110230887D01*
X134812591Y-109170227D01*
X134812591Y-109170227D01*
G37*
G36*
X135166144Y-108816674D02*
X135484342Y-108498476D01*
X136545002Y-109559136D01*
X136226804Y-109877334D01*
X135166144Y-108816674D01*
X135166144Y-108816674D01*
G37*
G36*
X135519698Y-108463120D02*
X135837896Y-108144922D01*
X136898556Y-109205582D01*
X136580358Y-109523780D01*
X135519698Y-108463120D01*
X135519698Y-108463120D01*
G37*
G36*
X135873251Y-108109567D02*
X136191449Y-107791369D01*
X137252109Y-108852029D01*
X136933911Y-109170227D01*
X135873251Y-108109567D01*
X135873251Y-108109567D01*
G37*
G36*
X136226804Y-107756014D02*
X136545002Y-107437816D01*
X137605662Y-108498476D01*
X137287464Y-108816674D01*
X136226804Y-107756014D01*
X136226804Y-107756014D01*
G37*
G36*
X136580358Y-107402460D02*
X136898556Y-107084262D01*
X137959216Y-108144922D01*
X137641018Y-108463120D01*
X136580358Y-107402460D01*
X136580358Y-107402460D01*
G37*
G36*
X136933911Y-107048907D02*
X137252109Y-106730709D01*
X138312769Y-107791369D01*
X137994571Y-108109567D01*
X136933911Y-107048907D01*
X136933911Y-107048907D01*
G37*
G36*
X137287465Y-106695353D02*
X137605663Y-106377155D01*
X138666323Y-107437815D01*
X138348125Y-107756013D01*
X137287465Y-106695353D01*
X137287465Y-106695353D01*
G37*
G36*
X137641018Y-106341800D02*
X137959216Y-106023602D01*
X139019876Y-107084262D01*
X138701678Y-107402460D01*
X137641018Y-106341800D01*
X137641018Y-106341800D01*
G37*
G36*
X137994571Y-105988247D02*
X138312769Y-105670049D01*
X139373429Y-106730709D01*
X139055231Y-107048907D01*
X137994571Y-105988247D01*
X137994571Y-105988247D01*
G37*
G36*
X138348125Y-105634693D02*
X138666323Y-105316495D01*
X139726983Y-106377155D01*
X139408785Y-106695353D01*
X138348125Y-105634693D01*
X138348125Y-105634693D01*
G37*
G36*
X138701678Y-105281140D02*
X139019876Y-104962942D01*
X140080536Y-106023602D01*
X139762338Y-106341800D01*
X138701678Y-105281140D01*
X138701678Y-105281140D01*
G37*
G36*
X139019876Y-104079058D02*
X138701678Y-103760860D01*
X139762338Y-102700200D01*
X140080536Y-103018398D01*
X139019876Y-104079058D01*
X139019876Y-104079058D01*
G37*
G36*
X138666323Y-103725505D02*
X138348125Y-103407307D01*
X139408785Y-102346647D01*
X139726983Y-102664845D01*
X138666323Y-103725505D01*
X138666323Y-103725505D01*
G37*
G36*
X138312769Y-103371951D02*
X137994571Y-103053753D01*
X139055231Y-101993093D01*
X139373429Y-102311291D01*
X138312769Y-103371951D01*
X138312769Y-103371951D01*
G37*
G36*
X137959216Y-103018398D02*
X137641018Y-102700200D01*
X138701678Y-101639540D01*
X139019876Y-101957738D01*
X137959216Y-103018398D01*
X137959216Y-103018398D01*
G37*
G36*
X137605663Y-102664845D02*
X137287465Y-102346647D01*
X138348125Y-101285987D01*
X138666323Y-101604185D01*
X137605663Y-102664845D01*
X137605663Y-102664845D01*
G37*
G36*
X137252109Y-102311291D02*
X136933911Y-101993093D01*
X137994571Y-100932433D01*
X138312769Y-101250631D01*
X137252109Y-102311291D01*
X137252109Y-102311291D01*
G37*
G36*
X136898556Y-101957738D02*
X136580358Y-101639540D01*
X137641018Y-100578880D01*
X137959216Y-100897078D01*
X136898556Y-101957738D01*
X136898556Y-101957738D01*
G37*
G36*
X136545002Y-101604184D02*
X136226804Y-101285986D01*
X137287464Y-100225326D01*
X137605662Y-100543524D01*
X136545002Y-101604184D01*
X136545002Y-101604184D01*
G37*
G36*
X136191449Y-101250631D02*
X135873251Y-100932433D01*
X136933911Y-99871773D01*
X137252109Y-100189971D01*
X136191449Y-101250631D01*
X136191449Y-101250631D01*
G37*
G36*
X135837896Y-100897078D02*
X135519698Y-100578880D01*
X136580358Y-99518220D01*
X136898556Y-99836418D01*
X135837896Y-100897078D01*
X135837896Y-100897078D01*
G37*
G36*
X135484342Y-100543524D02*
X135166144Y-100225326D01*
X136226804Y-99164666D01*
X136545002Y-99482864D01*
X135484342Y-100543524D01*
X135484342Y-100543524D01*
G37*
G36*
X135130789Y-100189971D02*
X134812591Y-99871773D01*
X135873251Y-98811113D01*
X136191449Y-99129311D01*
X135130789Y-100189971D01*
X135130789Y-100189971D01*
G37*
D17*
X146697000Y-99949000D03*
X148197000Y-99949000D03*
X146685000Y-109093000D03*
X148185000Y-109093000D03*
X140335000Y-110363000D03*
X138835000Y-110363000D03*
D25*
X141351000Y-109441000D03*
X142621000Y-109441000D03*
X143891000Y-109441000D03*
X145161000Y-109441000D03*
X145161000Y-102141000D03*
X143891000Y-102141000D03*
X142621000Y-102141000D03*
X141351000Y-102141000D03*
M02*
