G04 #@! TF.FileFunction,Legend,Bot*
%FSLAX46Y46*%
G04 Gerber Fmt 4.6, Leading zero omitted, Abs format (unit mm)*
G04 Created by KiCad (PCBNEW 4.0.7) date 2017 December 25, Monday 22:32:58*
%MOMM*%
%LPD*%
G01*
G04 APERTURE LIST*
%ADD10C,0.100000*%
%ADD11C,0.095250*%
%ADD12C,0.200000*%
%ADD13C,0.300000*%
%ADD14C,0.010000*%
G04 APERTURE END LIST*
D10*
D11*
X145161000Y-100647500D02*
X145197286Y-100629357D01*
X145251715Y-100629357D01*
X145306143Y-100647500D01*
X145342429Y-100683786D01*
X145360572Y-100720071D01*
X145378715Y-100792643D01*
X145378715Y-100847071D01*
X145360572Y-100919643D01*
X145342429Y-100955929D01*
X145306143Y-100992214D01*
X145251715Y-101010357D01*
X145215429Y-101010357D01*
X145161000Y-100992214D01*
X145142857Y-100974071D01*
X145142857Y-100847071D01*
X145215429Y-100847071D01*
X144979572Y-101010357D02*
X144979572Y-100629357D01*
X144761857Y-101010357D01*
X144761857Y-100629357D01*
X144580429Y-101010357D02*
X144580429Y-100629357D01*
X144489714Y-100629357D01*
X144435286Y-100647500D01*
X144399000Y-100683786D01*
X144380857Y-100720071D01*
X144362714Y-100792643D01*
X144362714Y-100847071D01*
X144380857Y-100919643D01*
X144399000Y-100955929D01*
X144435286Y-100992214D01*
X144489714Y-101010357D01*
X144580429Y-101010357D01*
X143691428Y-100974071D02*
X143709571Y-100992214D01*
X143764000Y-101010357D01*
X143800286Y-101010357D01*
X143854714Y-100992214D01*
X143891000Y-100955929D01*
X143909143Y-100919643D01*
X143927286Y-100847071D01*
X143927286Y-100792643D01*
X143909143Y-100720071D01*
X143891000Y-100683786D01*
X143854714Y-100647500D01*
X143800286Y-100629357D01*
X143764000Y-100629357D01*
X143709571Y-100647500D01*
X143691428Y-100665643D01*
X143346714Y-101010357D02*
X143528143Y-101010357D01*
X143528143Y-100629357D01*
X143219714Y-101010357D02*
X143219714Y-100629357D01*
X143001999Y-101010357D02*
X143165285Y-100792643D01*
X143001999Y-100629357D02*
X143219714Y-100847071D01*
X142548428Y-101010357D02*
X142548428Y-100629357D01*
X142457713Y-100629357D01*
X142403285Y-100647500D01*
X142366999Y-100683786D01*
X142348856Y-100720071D01*
X142330713Y-100792643D01*
X142330713Y-100847071D01*
X142348856Y-100919643D01*
X142366999Y-100955929D01*
X142403285Y-100992214D01*
X142457713Y-101010357D01*
X142548428Y-101010357D01*
X142167428Y-101010357D02*
X142167428Y-100629357D01*
X141913427Y-100629357D02*
X141840856Y-100629357D01*
X141804570Y-100647500D01*
X141768284Y-100683786D01*
X141750142Y-100756357D01*
X141750142Y-100883357D01*
X141768284Y-100955929D01*
X141804570Y-100992214D01*
X141840856Y-101010357D01*
X141913427Y-101010357D01*
X141949713Y-100992214D01*
X141985999Y-100955929D01*
X142004142Y-100883357D01*
X142004142Y-100756357D01*
X141985999Y-100683786D01*
X141949713Y-100647500D01*
X141913427Y-100629357D01*
X141350998Y-100629357D02*
X141223998Y-101010357D01*
X141096998Y-100629357D01*
X140752284Y-100974071D02*
X140770427Y-100992214D01*
X140824856Y-101010357D01*
X140861142Y-101010357D01*
X140915570Y-100992214D01*
X140951856Y-100955929D01*
X140969999Y-100919643D01*
X140988142Y-100847071D01*
X140988142Y-100792643D01*
X140969999Y-100720071D01*
X140951856Y-100683786D01*
X140915570Y-100647500D01*
X140861142Y-100629357D01*
X140824856Y-100629357D01*
X140770427Y-100647500D01*
X140752284Y-100665643D01*
X140371284Y-100974071D02*
X140389427Y-100992214D01*
X140443856Y-101010357D01*
X140480142Y-101010357D01*
X140534570Y-100992214D01*
X140570856Y-100955929D01*
X140588999Y-100919643D01*
X140607142Y-100847071D01*
X140607142Y-100792643D01*
X140588999Y-100720071D01*
X140570856Y-100683786D01*
X140534570Y-100647500D01*
X140480142Y-100629357D01*
X140443856Y-100629357D01*
X140389427Y-100647500D01*
X140371284Y-100665643D01*
D12*
X146764476Y-107005381D02*
X147097810Y-106529190D01*
X147335905Y-107005381D02*
X147335905Y-106005381D01*
X146954952Y-106005381D01*
X146859714Y-106053000D01*
X146812095Y-106100619D01*
X146764476Y-106195857D01*
X146764476Y-106338714D01*
X146812095Y-106433952D01*
X146859714Y-106481571D01*
X146954952Y-106529190D01*
X147335905Y-106529190D01*
X145954952Y-106957762D02*
X146050190Y-107005381D01*
X146240667Y-107005381D01*
X146335905Y-106957762D01*
X146383524Y-106862524D01*
X146383524Y-106481571D01*
X146335905Y-106386333D01*
X146240667Y-106338714D01*
X146050190Y-106338714D01*
X145954952Y-106386333D01*
X145907333Y-106481571D01*
X145907333Y-106576810D01*
X146383524Y-106672048D01*
X145574000Y-106338714D02*
X145335905Y-107005381D01*
X145097809Y-106338714D01*
X143431142Y-107005381D02*
X144002571Y-107005381D01*
X143716857Y-107005381D02*
X143716857Y-106005381D01*
X143812095Y-106148238D01*
X143907333Y-106243476D01*
X144002571Y-106291095D01*
X143002571Y-106910143D02*
X142954952Y-106957762D01*
X143002571Y-107005381D01*
X143050190Y-106957762D01*
X143002571Y-106910143D01*
X143002571Y-107005381D01*
X142002571Y-107005381D02*
X142574000Y-107005381D01*
X142288286Y-107005381D02*
X142288286Y-106005381D01*
X142383524Y-106148238D01*
X142478762Y-106243476D01*
X142574000Y-106291095D01*
X140050190Y-107005381D02*
X140050190Y-106005381D01*
X139812095Y-106005381D01*
X139669237Y-106053000D01*
X139573999Y-106148238D01*
X139526380Y-106243476D01*
X139478761Y-106433952D01*
X139478761Y-106576810D01*
X139526380Y-106767286D01*
X139573999Y-106862524D01*
X139669237Y-106957762D01*
X139812095Y-107005381D01*
X140050190Y-107005381D01*
X138669237Y-106957762D02*
X138764475Y-107005381D01*
X138954952Y-107005381D01*
X139050190Y-106957762D01*
X139097809Y-106862524D01*
X139097809Y-106481571D01*
X139050190Y-106386333D01*
X138954952Y-106338714D01*
X138764475Y-106338714D01*
X138669237Y-106386333D01*
X138621618Y-106481571D01*
X138621618Y-106576810D01*
X139097809Y-106672048D01*
X137764475Y-106957762D02*
X137859713Y-107005381D01*
X138050190Y-107005381D01*
X138145428Y-106957762D01*
X138193047Y-106910143D01*
X138240666Y-106814905D01*
X138240666Y-106529190D01*
X138193047Y-106433952D01*
X138145428Y-106386333D01*
X138050190Y-106338714D01*
X137859713Y-106338714D01*
X137764475Y-106386333D01*
X136621618Y-106100619D02*
X136573999Y-106053000D01*
X136478761Y-106005381D01*
X136240665Y-106005381D01*
X136145427Y-106053000D01*
X136097808Y-106100619D01*
X136050189Y-106195857D01*
X136050189Y-106291095D01*
X136097808Y-106433952D01*
X136669237Y-107005381D01*
X136050189Y-107005381D01*
X135145427Y-106005381D02*
X135621618Y-106005381D01*
X135669237Y-106481571D01*
X135621618Y-106433952D01*
X135526380Y-106386333D01*
X135288284Y-106386333D01*
X135193046Y-106433952D01*
X135145427Y-106481571D01*
X135097808Y-106576810D01*
X135097808Y-106814905D01*
X135145427Y-106910143D01*
X135193046Y-106957762D01*
X135288284Y-107005381D01*
X135526380Y-107005381D01*
X135621618Y-106957762D01*
X135669237Y-106910143D01*
X134621618Y-106957762D02*
X134621618Y-107005381D01*
X134669237Y-107100619D01*
X134716856Y-107148238D01*
X133478761Y-106100619D02*
X133431142Y-106053000D01*
X133335904Y-106005381D01*
X133097808Y-106005381D01*
X133002570Y-106053000D01*
X132954951Y-106100619D01*
X132907332Y-106195857D01*
X132907332Y-106291095D01*
X132954951Y-106433952D01*
X133526380Y-107005381D01*
X132907332Y-107005381D01*
X132288285Y-106005381D02*
X132193046Y-106005381D01*
X132097808Y-106053000D01*
X132050189Y-106100619D01*
X132002570Y-106195857D01*
X131954951Y-106386333D01*
X131954951Y-106624429D01*
X132002570Y-106814905D01*
X132050189Y-106910143D01*
X132097808Y-106957762D01*
X132193046Y-107005381D01*
X132288285Y-107005381D01*
X132383523Y-106957762D01*
X132431142Y-106910143D01*
X132478761Y-106814905D01*
X132526380Y-106624429D01*
X132526380Y-106386333D01*
X132478761Y-106195857D01*
X132431142Y-106100619D01*
X132383523Y-106053000D01*
X132288285Y-106005381D01*
X131002570Y-107005381D02*
X131573999Y-107005381D01*
X131288285Y-107005381D02*
X131288285Y-106005381D01*
X131383523Y-106148238D01*
X131478761Y-106243476D01*
X131573999Y-106291095D01*
X130669237Y-106005381D02*
X130002570Y-106005381D01*
X130431142Y-107005381D01*
D13*
X147518476Y-102315095D02*
X147518476Y-101015095D01*
X147518476Y-101634143D02*
X146775619Y-101634143D01*
X146775619Y-102315095D02*
X146775619Y-101015095D01*
X145599428Y-102315095D02*
X145599428Y-101634143D01*
X145661333Y-101510333D01*
X145785143Y-101448429D01*
X146032762Y-101448429D01*
X146156571Y-101510333D01*
X145599428Y-102253190D02*
X145723238Y-102315095D01*
X146032762Y-102315095D01*
X146156571Y-102253190D01*
X146218476Y-102129381D01*
X146218476Y-102005571D01*
X146156571Y-101881762D01*
X146032762Y-101819857D01*
X145723238Y-101819857D01*
X145599428Y-101757952D01*
X144980381Y-101448429D02*
X144980381Y-102315095D01*
X144980381Y-101572238D02*
X144918476Y-101510333D01*
X144794667Y-101448429D01*
X144608953Y-101448429D01*
X144485143Y-101510333D01*
X144423238Y-101634143D01*
X144423238Y-102315095D01*
X143928001Y-101448429D02*
X143618477Y-102315095D01*
X143308953Y-101448429D02*
X143618477Y-102315095D01*
X143742286Y-102624619D01*
X143804191Y-102686524D01*
X143928001Y-102748429D01*
X142256572Y-102315095D02*
X142256572Y-101634143D01*
X142318477Y-101510333D01*
X142442287Y-101448429D01*
X142689906Y-101448429D01*
X142813715Y-101510333D01*
X142256572Y-102253190D02*
X142380382Y-102315095D01*
X142689906Y-102315095D01*
X142813715Y-102253190D01*
X142875620Y-102129381D01*
X142875620Y-102005571D01*
X142813715Y-101881762D01*
X142689906Y-101819857D01*
X142380382Y-101819857D01*
X142256572Y-101757952D01*
X141080382Y-102315095D02*
X141080382Y-101015095D01*
X141080382Y-102253190D02*
X141204192Y-102315095D01*
X141451811Y-102315095D01*
X141575620Y-102253190D01*
X141637525Y-102191286D01*
X141699430Y-102067476D01*
X141699430Y-101696048D01*
X141637525Y-101572238D01*
X141575620Y-101510333D01*
X141451811Y-101448429D01*
X141204192Y-101448429D01*
X141080382Y-101510333D01*
X139904192Y-101448429D02*
X139904192Y-102315095D01*
X140461335Y-101448429D02*
X140461335Y-102129381D01*
X140399430Y-102253190D01*
X140275621Y-102315095D01*
X140089907Y-102315095D01*
X139966097Y-102253190D01*
X139904192Y-102191286D01*
X139285145Y-102315095D02*
X139285145Y-101448429D01*
X139285145Y-101015095D02*
X139347050Y-101077000D01*
X139285145Y-101138905D01*
X139223240Y-101077000D01*
X139285145Y-101015095D01*
X139285145Y-101138905D01*
X138666097Y-101448429D02*
X138666097Y-102315095D01*
X138666097Y-101572238D02*
X138604192Y-101510333D01*
X138480383Y-101448429D01*
X138294669Y-101448429D01*
X138170859Y-101510333D01*
X138108954Y-101634143D01*
X138108954Y-102315095D01*
X137304193Y-102315095D02*
X137428002Y-102253190D01*
X137489907Y-102191286D01*
X137551812Y-102067476D01*
X137551812Y-101696048D01*
X137489907Y-101572238D01*
X137428002Y-101510333D01*
X137304193Y-101448429D01*
X137118479Y-101448429D01*
X136994669Y-101510333D01*
X136932764Y-101572238D01*
X136870860Y-101696048D01*
X136870860Y-102067476D01*
X136932764Y-102191286D01*
X136994669Y-102253190D01*
X137118479Y-102315095D01*
X137304193Y-102315095D01*
X135323241Y-102315095D02*
X135323241Y-101015095D01*
X134889908Y-101943667D01*
X134456575Y-101015095D01*
X134456575Y-102315095D01*
X133589908Y-101015095D02*
X133466099Y-101015095D01*
X133342289Y-101077000D01*
X133280384Y-101138905D01*
X133218480Y-101262714D01*
X133156575Y-101510333D01*
X133156575Y-101819857D01*
X133218480Y-102067476D01*
X133280384Y-102191286D01*
X133342289Y-102253190D01*
X133466099Y-102315095D01*
X133589908Y-102315095D01*
X133713718Y-102253190D01*
X133775622Y-102191286D01*
X133837527Y-102067476D01*
X133899432Y-101819857D01*
X133899432Y-101510333D01*
X133837527Y-101262714D01*
X133775622Y-101138905D01*
X133713718Y-101077000D01*
X133589908Y-101015095D01*
X131608956Y-101634143D02*
X131175623Y-101634143D01*
X130989909Y-102315095D02*
X131608956Y-102315095D01*
X131608956Y-101015095D01*
X130989909Y-101015095D01*
X130556576Y-102315095D02*
X129875623Y-101448429D01*
X130556576Y-101448429D02*
X129875623Y-102315095D01*
X129380385Y-101448429D02*
X129380385Y-102748429D01*
X129380385Y-101510333D02*
X129256576Y-101448429D01*
X129008957Y-101448429D01*
X128885147Y-101510333D01*
X128823242Y-101572238D01*
X128761338Y-101696048D01*
X128761338Y-102067476D01*
X128823242Y-102191286D01*
X128885147Y-102253190D01*
X129008957Y-102315095D01*
X129256576Y-102315095D01*
X129380385Y-102253190D01*
X128204195Y-102315095D02*
X128204195Y-101448429D01*
X128204195Y-101696048D02*
X128142290Y-101572238D01*
X128080386Y-101510333D01*
X127956576Y-101448429D01*
X127832767Y-101448429D01*
X126904195Y-102253190D02*
X127028005Y-102315095D01*
X127275624Y-102315095D01*
X127399433Y-102253190D01*
X127461338Y-102129381D01*
X127461338Y-101634143D01*
X127399433Y-101510333D01*
X127275624Y-101448429D01*
X127028005Y-101448429D01*
X126904195Y-101510333D01*
X126842290Y-101634143D01*
X126842290Y-101757952D01*
X127461338Y-101881762D01*
X126347052Y-102253190D02*
X126223242Y-102315095D01*
X125975623Y-102315095D01*
X125851814Y-102253190D01*
X125789909Y-102129381D01*
X125789909Y-102067476D01*
X125851814Y-101943667D01*
X125975623Y-101881762D01*
X126161338Y-101881762D01*
X126285147Y-101819857D01*
X126347052Y-101696048D01*
X126347052Y-101634143D01*
X126285147Y-101510333D01*
X126161338Y-101448429D01*
X125975623Y-101448429D01*
X125851814Y-101510333D01*
X125294671Y-102253190D02*
X125170861Y-102315095D01*
X124923242Y-102315095D01*
X124799433Y-102253190D01*
X124737528Y-102129381D01*
X124737528Y-102067476D01*
X124799433Y-101943667D01*
X124923242Y-101881762D01*
X125108957Y-101881762D01*
X125232766Y-101819857D01*
X125294671Y-101696048D01*
X125294671Y-101634143D01*
X125232766Y-101510333D01*
X125108957Y-101448429D01*
X124923242Y-101448429D01*
X124799433Y-101510333D01*
D12*
X142271857Y-108307190D02*
X142319476Y-108259571D01*
X142414714Y-108211952D01*
X142509952Y-108211952D01*
X142605190Y-108259571D01*
X142652810Y-108307190D01*
X142700429Y-108402429D01*
X142700429Y-108497667D01*
X142652810Y-108592905D01*
X142605190Y-108640524D01*
X142509952Y-108688143D01*
X142414714Y-108688143D01*
X142319476Y-108640524D01*
X142271857Y-108592905D01*
X142271857Y-108211952D02*
X142271857Y-108592905D01*
X142224238Y-108640524D01*
X142176619Y-108640524D01*
X142081381Y-108592905D01*
X142033762Y-108497667D01*
X142033762Y-108259571D01*
X142129000Y-108116714D01*
X142271857Y-108021476D01*
X142462333Y-107973857D01*
X142652810Y-108021476D01*
X142795667Y-108116714D01*
X142890905Y-108259571D01*
X142938524Y-108450048D01*
X142890905Y-108640524D01*
X142795667Y-108783381D01*
X142652810Y-108878619D01*
X142462333Y-108926238D01*
X142271857Y-108878619D01*
X142129000Y-108783381D01*
X141605191Y-108783381D02*
X141605191Y-107783381D01*
X141176619Y-108783381D02*
X141176619Y-108259571D01*
X141224238Y-108164333D01*
X141319476Y-108116714D01*
X141462334Y-108116714D01*
X141557572Y-108164333D01*
X141605191Y-108211952D01*
X140271857Y-108783381D02*
X140271857Y-108259571D01*
X140319476Y-108164333D01*
X140414714Y-108116714D01*
X140605191Y-108116714D01*
X140700429Y-108164333D01*
X140271857Y-108735762D02*
X140367095Y-108783381D01*
X140605191Y-108783381D01*
X140700429Y-108735762D01*
X140748048Y-108640524D01*
X140748048Y-108545286D01*
X140700429Y-108450048D01*
X140605191Y-108402429D01*
X140367095Y-108402429D01*
X140271857Y-108354810D01*
X139795667Y-108116714D02*
X139795667Y-108783381D01*
X139795667Y-108211952D02*
X139748048Y-108164333D01*
X139652810Y-108116714D01*
X139509952Y-108116714D01*
X139414714Y-108164333D01*
X139367095Y-108259571D01*
X139367095Y-108783381D01*
X138986143Y-108116714D02*
X138748048Y-108783381D01*
X138509952Y-108116714D02*
X138748048Y-108783381D01*
X138843286Y-109021476D01*
X138890905Y-109069095D01*
X138986143Y-109116714D01*
X137700428Y-108783381D02*
X137700428Y-108259571D01*
X137748047Y-108164333D01*
X137843285Y-108116714D01*
X138033762Y-108116714D01*
X138129000Y-108164333D01*
X137700428Y-108735762D02*
X137795666Y-108783381D01*
X138033762Y-108783381D01*
X138129000Y-108735762D01*
X138176619Y-108640524D01*
X138176619Y-108545286D01*
X138129000Y-108450048D01*
X138033762Y-108402429D01*
X137795666Y-108402429D01*
X137700428Y-108354810D01*
X137319476Y-108116714D02*
X136795666Y-108116714D01*
X137319476Y-108783381D01*
X136795666Y-108783381D01*
X136271857Y-108783381D02*
X136367095Y-108735762D01*
X136414714Y-108688143D01*
X136462333Y-108592905D01*
X136462333Y-108307190D01*
X136414714Y-108211952D01*
X136367095Y-108164333D01*
X136271857Y-108116714D01*
X136128999Y-108116714D01*
X136033761Y-108164333D01*
X135986142Y-108211952D01*
X135938523Y-108307190D01*
X135938523Y-108592905D01*
X135986142Y-108688143D01*
X136033761Y-108735762D01*
X136128999Y-108783381D01*
X136271857Y-108783381D01*
X135081380Y-108116714D02*
X135081380Y-108783381D01*
X135509952Y-108116714D02*
X135509952Y-108640524D01*
X135462333Y-108735762D01*
X135367095Y-108783381D01*
X135224237Y-108783381D01*
X135128999Y-108735762D01*
X135081380Y-108688143D01*
D14*
G36*
X123955759Y-106498184D02*
X123929247Y-106511282D01*
X123896553Y-106534106D01*
X123872725Y-106558996D01*
X123856406Y-106590249D01*
X123846240Y-106632166D01*
X123840872Y-106689044D01*
X123838944Y-106765184D01*
X123838831Y-106797917D01*
X123839161Y-106869656D01*
X123840527Y-106920927D01*
X123843500Y-106956404D01*
X123848649Y-106980763D01*
X123856543Y-106998680D01*
X123864757Y-107010902D01*
X123917187Y-107062905D01*
X123978930Y-107094184D01*
X124045536Y-107103592D01*
X124112558Y-107089980D01*
X124133792Y-107080354D01*
X124184624Y-107053859D01*
X124184624Y-107469052D01*
X124147525Y-107449868D01*
X124098643Y-107435025D01*
X124038561Y-107431222D01*
X123978564Y-107438243D01*
X123933256Y-107454013D01*
X123895675Y-107484047D01*
X123863564Y-107527024D01*
X123861150Y-107531436D01*
X123850967Y-107552221D01*
X123843530Y-107573170D01*
X123838411Y-107598548D01*
X123835181Y-107632618D01*
X123833413Y-107679641D01*
X123832677Y-107743882D01*
X123832544Y-107816176D01*
X123832544Y-108046822D01*
X123970861Y-108046822D01*
X123970861Y-107621533D01*
X124009549Y-107588979D01*
X124049738Y-107562940D01*
X124087797Y-107558205D01*
X124126066Y-107570389D01*
X124146462Y-107582320D01*
X124161642Y-107599313D01*
X124172438Y-107624995D01*
X124179683Y-107662991D01*
X124184208Y-107716926D01*
X124186844Y-107790425D01*
X124187772Y-107839347D01*
X124190911Y-108040535D01*
X124256926Y-108044336D01*
X124322940Y-108048136D01*
X124322940Y-106799650D01*
X124184624Y-106799650D01*
X124181097Y-106869254D01*
X124169215Y-106917569D01*
X124147020Y-106947631D01*
X124112559Y-106962471D01*
X124077742Y-106965436D01*
X124038329Y-106962028D01*
X124012171Y-106948617D01*
X123995814Y-106930896D01*
X123982937Y-106911835D01*
X123975272Y-106890601D01*
X123971861Y-106860849D01*
X123971749Y-106816236D01*
X123972897Y-106778880D01*
X123975532Y-106722604D01*
X123979456Y-106685658D01*
X123986063Y-106662223D01*
X123996749Y-106646480D01*
X124006833Y-106637380D01*
X124048970Y-106617537D01*
X124098840Y-106614332D01*
X124127476Y-106621168D01*
X124155828Y-106645464D01*
X124174609Y-106692728D01*
X124183712Y-106762624D01*
X124184624Y-106799650D01*
X124322940Y-106799650D01*
X124322940Y-106487614D01*
X124253782Y-106487614D01*
X124212260Y-106489256D01*
X124190838Y-106495087D01*
X124184626Y-106506461D01*
X124184624Y-106506798D01*
X124181742Y-106517938D01*
X124169030Y-106516673D01*
X124143757Y-106504433D01*
X124084869Y-106485707D01*
X124018615Y-106483739D01*
X123955759Y-106498184D01*
X123955759Y-106498184D01*
G37*
X123955759Y-106498184D02*
X123929247Y-106511282D01*
X123896553Y-106534106D01*
X123872725Y-106558996D01*
X123856406Y-106590249D01*
X123846240Y-106632166D01*
X123840872Y-106689044D01*
X123838944Y-106765184D01*
X123838831Y-106797917D01*
X123839161Y-106869656D01*
X123840527Y-106920927D01*
X123843500Y-106956404D01*
X123848649Y-106980763D01*
X123856543Y-106998680D01*
X123864757Y-107010902D01*
X123917187Y-107062905D01*
X123978930Y-107094184D01*
X124045536Y-107103592D01*
X124112558Y-107089980D01*
X124133792Y-107080354D01*
X124184624Y-107053859D01*
X124184624Y-107469052D01*
X124147525Y-107449868D01*
X124098643Y-107435025D01*
X124038561Y-107431222D01*
X123978564Y-107438243D01*
X123933256Y-107454013D01*
X123895675Y-107484047D01*
X123863564Y-107527024D01*
X123861150Y-107531436D01*
X123850967Y-107552221D01*
X123843530Y-107573170D01*
X123838411Y-107598548D01*
X123835181Y-107632618D01*
X123833413Y-107679641D01*
X123832677Y-107743882D01*
X123832544Y-107816176D01*
X123832544Y-108046822D01*
X123970861Y-108046822D01*
X123970861Y-107621533D01*
X124009549Y-107588979D01*
X124049738Y-107562940D01*
X124087797Y-107558205D01*
X124126066Y-107570389D01*
X124146462Y-107582320D01*
X124161642Y-107599313D01*
X124172438Y-107624995D01*
X124179683Y-107662991D01*
X124184208Y-107716926D01*
X124186844Y-107790425D01*
X124187772Y-107839347D01*
X124190911Y-108040535D01*
X124256926Y-108044336D01*
X124322940Y-108048136D01*
X124322940Y-106799650D01*
X124184624Y-106799650D01*
X124181097Y-106869254D01*
X124169215Y-106917569D01*
X124147020Y-106947631D01*
X124112559Y-106962471D01*
X124077742Y-106965436D01*
X124038329Y-106962028D01*
X124012171Y-106948617D01*
X123995814Y-106930896D01*
X123982937Y-106911835D01*
X123975272Y-106890601D01*
X123971861Y-106860849D01*
X123971749Y-106816236D01*
X123972897Y-106778880D01*
X123975532Y-106722604D01*
X123979456Y-106685658D01*
X123986063Y-106662223D01*
X123996749Y-106646480D01*
X124006833Y-106637380D01*
X124048970Y-106617537D01*
X124098840Y-106614332D01*
X124127476Y-106621168D01*
X124155828Y-106645464D01*
X124174609Y-106692728D01*
X124183712Y-106762624D01*
X124184624Y-106799650D01*
X124322940Y-106799650D01*
X124322940Y-106487614D01*
X124253782Y-106487614D01*
X124212260Y-106489256D01*
X124190838Y-106495087D01*
X124184626Y-106506461D01*
X124184624Y-106506798D01*
X124181742Y-106517938D01*
X124169030Y-106516673D01*
X124143757Y-106504433D01*
X124084869Y-106485707D01*
X124018615Y-106483739D01*
X123955759Y-106498184D01*
G36*
X123431210Y-107435555D02*
X123372055Y-107451339D01*
X123327023Y-107479948D01*
X123295246Y-107517419D01*
X123285366Y-107533411D01*
X123278073Y-107550163D01*
X123272974Y-107571592D01*
X123269679Y-107601616D01*
X123267797Y-107644154D01*
X123266937Y-107703122D01*
X123266707Y-107782440D01*
X123266703Y-107803484D01*
X123266703Y-108046822D01*
X123327059Y-108046822D01*
X123365557Y-108044126D01*
X123394023Y-108037295D01*
X123401155Y-108033083D01*
X123420652Y-108025813D01*
X123440566Y-108033083D01*
X123473353Y-108042160D01*
X123520978Y-108045813D01*
X123573764Y-108044228D01*
X123622036Y-108037589D01*
X123650218Y-108029072D01*
X123704753Y-107994063D01*
X123738835Y-107945479D01*
X123754157Y-107880882D01*
X123754299Y-107879223D01*
X123752955Y-107850566D01*
X123631356Y-107850566D01*
X123620726Y-107883161D01*
X123603410Y-107901505D01*
X123568652Y-107915379D01*
X123522773Y-107920917D01*
X123475988Y-107918191D01*
X123438514Y-107907274D01*
X123428015Y-107900269D01*
X123409668Y-107867904D01*
X123405020Y-107831111D01*
X123405020Y-107782763D01*
X123474582Y-107782763D01*
X123540667Y-107787850D01*
X123590764Y-107802263D01*
X123621929Y-107824729D01*
X123631356Y-107850566D01*
X123752955Y-107850566D01*
X123750987Y-107808647D01*
X123727710Y-107752845D01*
X123683948Y-107710647D01*
X123677899Y-107706808D01*
X123651907Y-107694309D01*
X123619735Y-107686740D01*
X123574760Y-107683061D01*
X123521331Y-107682216D01*
X123405020Y-107682169D01*
X123405020Y-107633411D01*
X123409953Y-107595581D01*
X123422543Y-107570236D01*
X123424017Y-107568887D01*
X123452034Y-107557800D01*
X123494326Y-107553503D01*
X123541064Y-107555615D01*
X123582418Y-107563756D01*
X123606957Y-107575965D01*
X123620253Y-107585746D01*
X123634294Y-107587613D01*
X123653671Y-107579600D01*
X123682976Y-107559739D01*
X123726803Y-107526063D01*
X123730825Y-107522909D01*
X123728764Y-107511236D01*
X123711568Y-107491822D01*
X123685433Y-107470248D01*
X123656552Y-107452096D01*
X123647478Y-107447809D01*
X123614380Y-107439256D01*
X123565880Y-107433155D01*
X123511695Y-107430708D01*
X123509161Y-107430703D01*
X123431210Y-107435555D01*
X123431210Y-107435555D01*
G37*
X123431210Y-107435555D02*
X123372055Y-107451339D01*
X123327023Y-107479948D01*
X123295246Y-107517419D01*
X123285366Y-107533411D01*
X123278073Y-107550163D01*
X123272974Y-107571592D01*
X123269679Y-107601616D01*
X123267797Y-107644154D01*
X123266937Y-107703122D01*
X123266707Y-107782440D01*
X123266703Y-107803484D01*
X123266703Y-108046822D01*
X123327059Y-108046822D01*
X123365557Y-108044126D01*
X123394023Y-108037295D01*
X123401155Y-108033083D01*
X123420652Y-108025813D01*
X123440566Y-108033083D01*
X123473353Y-108042160D01*
X123520978Y-108045813D01*
X123573764Y-108044228D01*
X123622036Y-108037589D01*
X123650218Y-108029072D01*
X123704753Y-107994063D01*
X123738835Y-107945479D01*
X123754157Y-107880882D01*
X123754299Y-107879223D01*
X123752955Y-107850566D01*
X123631356Y-107850566D01*
X123620726Y-107883161D01*
X123603410Y-107901505D01*
X123568652Y-107915379D01*
X123522773Y-107920917D01*
X123475988Y-107918191D01*
X123438514Y-107907274D01*
X123428015Y-107900269D01*
X123409668Y-107867904D01*
X123405020Y-107831111D01*
X123405020Y-107782763D01*
X123474582Y-107782763D01*
X123540667Y-107787850D01*
X123590764Y-107802263D01*
X123621929Y-107824729D01*
X123631356Y-107850566D01*
X123752955Y-107850566D01*
X123750987Y-107808647D01*
X123727710Y-107752845D01*
X123683948Y-107710647D01*
X123677899Y-107706808D01*
X123651907Y-107694309D01*
X123619735Y-107686740D01*
X123574760Y-107683061D01*
X123521331Y-107682216D01*
X123405020Y-107682169D01*
X123405020Y-107633411D01*
X123409953Y-107595581D01*
X123422543Y-107570236D01*
X123424017Y-107568887D01*
X123452034Y-107557800D01*
X123494326Y-107553503D01*
X123541064Y-107555615D01*
X123582418Y-107563756D01*
X123606957Y-107575965D01*
X123620253Y-107585746D01*
X123634294Y-107587613D01*
X123653671Y-107579600D01*
X123682976Y-107559739D01*
X123726803Y-107526063D01*
X123730825Y-107522909D01*
X123728764Y-107511236D01*
X123711568Y-107491822D01*
X123685433Y-107470248D01*
X123656552Y-107452096D01*
X123647478Y-107447809D01*
X123614380Y-107439256D01*
X123565880Y-107433155D01*
X123511695Y-107430708D01*
X123509161Y-107430703D01*
X123431210Y-107435555D01*
G36*
X123040356Y-107432020D02*
X123021539Y-107437660D01*
X123015473Y-107450053D01*
X123015218Y-107455647D01*
X123014129Y-107471230D01*
X123006632Y-107473676D01*
X122986381Y-107462993D01*
X122974351Y-107455694D01*
X122936400Y-107440063D01*
X122891072Y-107432334D01*
X122843544Y-107431740D01*
X122798995Y-107437513D01*
X122762602Y-107448884D01*
X122739543Y-107465088D01*
X122734996Y-107485355D01*
X122737291Y-107490843D01*
X122754020Y-107513626D01*
X122779963Y-107541647D01*
X122784655Y-107546177D01*
X122809383Y-107567005D01*
X122830718Y-107573735D01*
X122860555Y-107569038D01*
X122872508Y-107565917D01*
X122909705Y-107558421D01*
X122935859Y-107561792D01*
X122957946Y-107573681D01*
X122978178Y-107589635D01*
X122993079Y-107609700D01*
X123003434Y-107637702D01*
X123010029Y-107677467D01*
X123013649Y-107732823D01*
X123015078Y-107807594D01*
X123015218Y-107852740D01*
X123015218Y-108046822D01*
X123140960Y-108046822D01*
X123140960Y-107430683D01*
X123078089Y-107430683D01*
X123040356Y-107432020D01*
X123040356Y-107432020D01*
G37*
X123040356Y-107432020D02*
X123021539Y-107437660D01*
X123015473Y-107450053D01*
X123015218Y-107455647D01*
X123014129Y-107471230D01*
X123006632Y-107473676D01*
X122986381Y-107462993D01*
X122974351Y-107455694D01*
X122936400Y-107440063D01*
X122891072Y-107432334D01*
X122843544Y-107431740D01*
X122798995Y-107437513D01*
X122762602Y-107448884D01*
X122739543Y-107465088D01*
X122734996Y-107485355D01*
X122737291Y-107490843D01*
X122754020Y-107513626D01*
X122779963Y-107541647D01*
X122784655Y-107546177D01*
X122809383Y-107567005D01*
X122830718Y-107573735D01*
X122860555Y-107569038D01*
X122872508Y-107565917D01*
X122909705Y-107558421D01*
X122935859Y-107561792D01*
X122957946Y-107573681D01*
X122978178Y-107589635D01*
X122993079Y-107609700D01*
X123003434Y-107637702D01*
X123010029Y-107677467D01*
X123013649Y-107732823D01*
X123015078Y-107807594D01*
X123015218Y-107852740D01*
X123015218Y-108046822D01*
X123140960Y-108046822D01*
X123140960Y-107430683D01*
X123078089Y-107430683D01*
X123040356Y-107432020D01*
G36*
X122248188Y-108046822D02*
X122317346Y-108046822D01*
X122357488Y-108045645D01*
X122378394Y-108040772D01*
X122385922Y-108030186D01*
X122386505Y-108023029D01*
X122387774Y-108008676D01*
X122395779Y-108005923D01*
X122416815Y-108014771D01*
X122433173Y-108023029D01*
X122495977Y-108042597D01*
X122564248Y-108043729D01*
X122619752Y-108029135D01*
X122671438Y-107993877D01*
X122710838Y-107941835D01*
X122732413Y-107880450D01*
X122732962Y-107877018D01*
X122736167Y-107839571D01*
X122737761Y-107785813D01*
X122737633Y-107745155D01*
X122600279Y-107745155D01*
X122597097Y-107799194D01*
X122589859Y-107843735D01*
X122580060Y-107868888D01*
X122542989Y-107903260D01*
X122498974Y-107915582D01*
X122453584Y-107905618D01*
X122414797Y-107875895D01*
X122400108Y-107855905D01*
X122391519Y-107832050D01*
X122387496Y-107797230D01*
X122386505Y-107744930D01*
X122388278Y-107693139D01*
X122392963Y-107647634D01*
X122399603Y-107617181D01*
X122400710Y-107614452D01*
X122427491Y-107582000D01*
X122466579Y-107564183D01*
X122510315Y-107561306D01*
X122551038Y-107573674D01*
X122581087Y-107601593D01*
X122584204Y-107607148D01*
X122593961Y-107641022D01*
X122599277Y-107689728D01*
X122600279Y-107745155D01*
X122737633Y-107745155D01*
X122737568Y-107724540D01*
X122736664Y-107691563D01*
X122730514Y-107609981D01*
X122717733Y-107548730D01*
X122696471Y-107503449D01*
X122664878Y-107469779D01*
X122634207Y-107450014D01*
X122591354Y-107436120D01*
X122538056Y-107431354D01*
X122483480Y-107435236D01*
X122436792Y-107447282D01*
X122412124Y-107461693D01*
X122386505Y-107484878D01*
X122386505Y-107191773D01*
X122248188Y-107191773D01*
X122248188Y-108046822D01*
X122248188Y-108046822D01*
G37*
X122248188Y-108046822D02*
X122317346Y-108046822D01*
X122357488Y-108045645D01*
X122378394Y-108040772D01*
X122385922Y-108030186D01*
X122386505Y-108023029D01*
X122387774Y-108008676D01*
X122395779Y-108005923D01*
X122416815Y-108014771D01*
X122433173Y-108023029D01*
X122495977Y-108042597D01*
X122564248Y-108043729D01*
X122619752Y-108029135D01*
X122671438Y-107993877D01*
X122710838Y-107941835D01*
X122732413Y-107880450D01*
X122732962Y-107877018D01*
X122736167Y-107839571D01*
X122737761Y-107785813D01*
X122737633Y-107745155D01*
X122600279Y-107745155D01*
X122597097Y-107799194D01*
X122589859Y-107843735D01*
X122580060Y-107868888D01*
X122542989Y-107903260D01*
X122498974Y-107915582D01*
X122453584Y-107905618D01*
X122414797Y-107875895D01*
X122400108Y-107855905D01*
X122391519Y-107832050D01*
X122387496Y-107797230D01*
X122386505Y-107744930D01*
X122388278Y-107693139D01*
X122392963Y-107647634D01*
X122399603Y-107617181D01*
X122400710Y-107614452D01*
X122427491Y-107582000D01*
X122466579Y-107564183D01*
X122510315Y-107561306D01*
X122551038Y-107573674D01*
X122581087Y-107601593D01*
X122584204Y-107607148D01*
X122593961Y-107641022D01*
X122599277Y-107689728D01*
X122600279Y-107745155D01*
X122737633Y-107745155D01*
X122737568Y-107724540D01*
X122736664Y-107691563D01*
X122730514Y-107609981D01*
X122717733Y-107548730D01*
X122696471Y-107503449D01*
X122664878Y-107469779D01*
X122634207Y-107450014D01*
X122591354Y-107436120D01*
X122538056Y-107431354D01*
X122483480Y-107435236D01*
X122436792Y-107447282D01*
X122412124Y-107461693D01*
X122386505Y-107484878D01*
X122386505Y-107191773D01*
X122248188Y-107191773D01*
X122248188Y-108046822D01*
G36*
X121765476Y-107433237D02*
X121715745Y-107436971D01*
X121585709Y-107826773D01*
X121565322Y-107757614D01*
X121553054Y-107714874D01*
X121536915Y-107657115D01*
X121519488Y-107593625D01*
X121510274Y-107559570D01*
X121475612Y-107430683D01*
X121332609Y-107430683D01*
X121375354Y-107565857D01*
X121396404Y-107632342D01*
X121421833Y-107712539D01*
X121448390Y-107796193D01*
X121472098Y-107870782D01*
X121526098Y-108040535D01*
X121584402Y-108044328D01*
X121642705Y-108048122D01*
X121674321Y-107943734D01*
X121693818Y-107878889D01*
X121715096Y-107807400D01*
X121733692Y-107744263D01*
X121734426Y-107741750D01*
X121748316Y-107698969D01*
X121760571Y-107669779D01*
X121769154Y-107658741D01*
X121770918Y-107660018D01*
X121777109Y-107677130D01*
X121788872Y-107713787D01*
X121804775Y-107765378D01*
X121823386Y-107827294D01*
X121833457Y-107861352D01*
X121887993Y-108046822D01*
X122003736Y-108046822D01*
X122096263Y-107754471D01*
X122122256Y-107672462D01*
X122145934Y-107597987D01*
X122166180Y-107534544D01*
X122181874Y-107485632D01*
X122191898Y-107454749D01*
X122194945Y-107445726D01*
X122192533Y-107436487D01*
X122173592Y-107432441D01*
X122134177Y-107432846D01*
X122128007Y-107433152D01*
X122054914Y-107436971D01*
X122007043Y-107613010D01*
X121989447Y-107677211D01*
X121973723Y-107733649D01*
X121961254Y-107777422D01*
X121953426Y-107803630D01*
X121951980Y-107807903D01*
X121945986Y-107802990D01*
X121933899Y-107777532D01*
X121917107Y-107734997D01*
X121896997Y-107678850D01*
X121879997Y-107628130D01*
X121815206Y-107429504D01*
X121765476Y-107433237D01*
X121765476Y-107433237D01*
G37*
X121765476Y-107433237D02*
X121715745Y-107436971D01*
X121585709Y-107826773D01*
X121565322Y-107757614D01*
X121553054Y-107714874D01*
X121536915Y-107657115D01*
X121519488Y-107593625D01*
X121510274Y-107559570D01*
X121475612Y-107430683D01*
X121332609Y-107430683D01*
X121375354Y-107565857D01*
X121396404Y-107632342D01*
X121421833Y-107712539D01*
X121448390Y-107796193D01*
X121472098Y-107870782D01*
X121526098Y-108040535D01*
X121584402Y-108044328D01*
X121642705Y-108048122D01*
X121674321Y-107943734D01*
X121693818Y-107878889D01*
X121715096Y-107807400D01*
X121733692Y-107744263D01*
X121734426Y-107741750D01*
X121748316Y-107698969D01*
X121760571Y-107669779D01*
X121769154Y-107658741D01*
X121770918Y-107660018D01*
X121777109Y-107677130D01*
X121788872Y-107713787D01*
X121804775Y-107765378D01*
X121823386Y-107827294D01*
X121833457Y-107861352D01*
X121887993Y-108046822D01*
X122003736Y-108046822D01*
X122096263Y-107754471D01*
X122122256Y-107672462D01*
X122145934Y-107597987D01*
X122166180Y-107534544D01*
X122181874Y-107485632D01*
X122191898Y-107454749D01*
X122194945Y-107445726D01*
X122192533Y-107436487D01*
X122173592Y-107432441D01*
X122134177Y-107432846D01*
X122128007Y-107433152D01*
X122054914Y-107436971D01*
X122007043Y-107613010D01*
X121989447Y-107677211D01*
X121973723Y-107733649D01*
X121961254Y-107777422D01*
X121953426Y-107803630D01*
X121951980Y-107807903D01*
X121945986Y-107802990D01*
X121933899Y-107777532D01*
X121917107Y-107734997D01*
X121896997Y-107678850D01*
X121879997Y-107628130D01*
X121815206Y-107429504D01*
X121765476Y-107433237D01*
G36*
X121008589Y-107434417D02*
X120955589Y-107447290D01*
X120940269Y-107454110D01*
X120910572Y-107471974D01*
X120887780Y-107492093D01*
X120870917Y-107517962D01*
X120859002Y-107553073D01*
X120851058Y-107600920D01*
X120846106Y-107664996D01*
X120843169Y-107748794D01*
X120842053Y-107804768D01*
X120837948Y-108046822D01*
X120908068Y-108046822D01*
X120950607Y-108045038D01*
X120972524Y-108038942D01*
X120978188Y-108028706D01*
X120981179Y-108017637D01*
X120994549Y-108019754D01*
X121012767Y-108028629D01*
X121058376Y-108042233D01*
X121116993Y-108045899D01*
X121178646Y-108039903D01*
X121233362Y-108024521D01*
X121238270Y-108022386D01*
X121288277Y-107987255D01*
X121321244Y-107938419D01*
X121336413Y-107881333D01*
X121335254Y-107860824D01*
X121211492Y-107860824D01*
X121200587Y-107888425D01*
X121168255Y-107908204D01*
X121116090Y-107918819D01*
X121088213Y-107920228D01*
X121041753Y-107916620D01*
X121010871Y-107902597D01*
X121003336Y-107895931D01*
X120982924Y-107859666D01*
X120978188Y-107826773D01*
X120978188Y-107782763D01*
X121039487Y-107782763D01*
X121110744Y-107786395D01*
X121160724Y-107797818D01*
X121192304Y-107817824D01*
X121199374Y-107826743D01*
X121211492Y-107860824D01*
X121335254Y-107860824D01*
X121333029Y-107821456D01*
X121310337Y-107764244D01*
X121279376Y-107725580D01*
X121260624Y-107708864D01*
X121242267Y-107697878D01*
X121218381Y-107691180D01*
X121183043Y-107687326D01*
X121130331Y-107684873D01*
X121109423Y-107684168D01*
X120978188Y-107679879D01*
X120978380Y-107640158D01*
X120983463Y-107598405D01*
X121001838Y-107573158D01*
X121038961Y-107557030D01*
X121039957Y-107556742D01*
X121092590Y-107550400D01*
X121144094Y-107558684D01*
X121182370Y-107578827D01*
X121197728Y-107588773D01*
X121214270Y-107587397D01*
X121239725Y-107572987D01*
X121254672Y-107562817D01*
X121283909Y-107541088D01*
X121302020Y-107524800D01*
X121304926Y-107520137D01*
X121292960Y-107496005D01*
X121257604Y-107467185D01*
X121242247Y-107457461D01*
X121198099Y-107440714D01*
X121138602Y-107431227D01*
X121072513Y-107429095D01*
X121008589Y-107434417D01*
X121008589Y-107434417D01*
G37*
X121008589Y-107434417D02*
X120955589Y-107447290D01*
X120940269Y-107454110D01*
X120910572Y-107471974D01*
X120887780Y-107492093D01*
X120870917Y-107517962D01*
X120859002Y-107553073D01*
X120851058Y-107600920D01*
X120846106Y-107664996D01*
X120843169Y-107748794D01*
X120842053Y-107804768D01*
X120837948Y-108046822D01*
X120908068Y-108046822D01*
X120950607Y-108045038D01*
X120972524Y-108038942D01*
X120978188Y-108028706D01*
X120981179Y-108017637D01*
X120994549Y-108019754D01*
X121012767Y-108028629D01*
X121058376Y-108042233D01*
X121116993Y-108045899D01*
X121178646Y-108039903D01*
X121233362Y-108024521D01*
X121238270Y-108022386D01*
X121288277Y-107987255D01*
X121321244Y-107938419D01*
X121336413Y-107881333D01*
X121335254Y-107860824D01*
X121211492Y-107860824D01*
X121200587Y-107888425D01*
X121168255Y-107908204D01*
X121116090Y-107918819D01*
X121088213Y-107920228D01*
X121041753Y-107916620D01*
X121010871Y-107902597D01*
X121003336Y-107895931D01*
X120982924Y-107859666D01*
X120978188Y-107826773D01*
X120978188Y-107782763D01*
X121039487Y-107782763D01*
X121110744Y-107786395D01*
X121160724Y-107797818D01*
X121192304Y-107817824D01*
X121199374Y-107826743D01*
X121211492Y-107860824D01*
X121335254Y-107860824D01*
X121333029Y-107821456D01*
X121310337Y-107764244D01*
X121279376Y-107725580D01*
X121260624Y-107708864D01*
X121242267Y-107697878D01*
X121218381Y-107691180D01*
X121183043Y-107687326D01*
X121130331Y-107684873D01*
X121109423Y-107684168D01*
X120978188Y-107679879D01*
X120978380Y-107640158D01*
X120983463Y-107598405D01*
X121001838Y-107573158D01*
X121038961Y-107557030D01*
X121039957Y-107556742D01*
X121092590Y-107550400D01*
X121144094Y-107558684D01*
X121182370Y-107578827D01*
X121197728Y-107588773D01*
X121214270Y-107587397D01*
X121239725Y-107572987D01*
X121254672Y-107562817D01*
X121283909Y-107541088D01*
X121302020Y-107524800D01*
X121304926Y-107520137D01*
X121292960Y-107496005D01*
X121257604Y-107467185D01*
X121242247Y-107457461D01*
X121198099Y-107440714D01*
X121138602Y-107431227D01*
X121072513Y-107429095D01*
X121008589Y-107434417D01*
G36*
X120411745Y-107430486D02*
X120363405Y-107440015D01*
X120335886Y-107454125D01*
X120306936Y-107477568D01*
X120348124Y-107529571D01*
X120373518Y-107561064D01*
X120390762Y-107576428D01*
X120407898Y-107578776D01*
X120432973Y-107571217D01*
X120444743Y-107566941D01*
X120492730Y-107560631D01*
X120536676Y-107574156D01*
X120568940Y-107604710D01*
X120574181Y-107614452D01*
X120579888Y-107640258D01*
X120584294Y-107687817D01*
X120587189Y-107753758D01*
X120588369Y-107834710D01*
X120588386Y-107846226D01*
X120588386Y-108046822D01*
X120726703Y-108046822D01*
X120726703Y-107430683D01*
X120657544Y-107430683D01*
X120617667Y-107431725D01*
X120596893Y-107436358D01*
X120589211Y-107446849D01*
X120588386Y-107456745D01*
X120588386Y-107482806D01*
X120555255Y-107456745D01*
X120517265Y-107438965D01*
X120466230Y-107430174D01*
X120411745Y-107430486D01*
X120411745Y-107430486D01*
G37*
X120411745Y-107430486D02*
X120363405Y-107440015D01*
X120335886Y-107454125D01*
X120306936Y-107477568D01*
X120348124Y-107529571D01*
X120373518Y-107561064D01*
X120390762Y-107576428D01*
X120407898Y-107578776D01*
X120432973Y-107571217D01*
X120444743Y-107566941D01*
X120492730Y-107560631D01*
X120536676Y-107574156D01*
X120568940Y-107604710D01*
X120574181Y-107614452D01*
X120579888Y-107640258D01*
X120584294Y-107687817D01*
X120587189Y-107753758D01*
X120588369Y-107834710D01*
X120588386Y-107846226D01*
X120588386Y-108046822D01*
X120726703Y-108046822D01*
X120726703Y-107430683D01*
X120657544Y-107430683D01*
X120617667Y-107431725D01*
X120596893Y-107436358D01*
X120589211Y-107446849D01*
X120588386Y-107456745D01*
X120588386Y-107482806D01*
X120555255Y-107456745D01*
X120517265Y-107438965D01*
X120466230Y-107430174D01*
X120411745Y-107430486D01*
G36*
X120014419Y-107433970D02*
X119954315Y-107449597D01*
X119903979Y-107481848D01*
X119879607Y-107505940D01*
X119839655Y-107562895D01*
X119816758Y-107628965D01*
X119808892Y-107710182D01*
X119808852Y-107716748D01*
X119808782Y-107782763D01*
X120188736Y-107782763D01*
X120180637Y-107817342D01*
X120166013Y-107848659D01*
X120140419Y-107881291D01*
X120135065Y-107886500D01*
X120089057Y-107914694D01*
X120036590Y-107919475D01*
X119976197Y-107900926D01*
X119965960Y-107895931D01*
X119934561Y-107880745D01*
X119913530Y-107872094D01*
X119909861Y-107871293D01*
X119897052Y-107879063D01*
X119872622Y-107898072D01*
X119860221Y-107908460D01*
X119834524Y-107932321D01*
X119826085Y-107948077D01*
X119831942Y-107962571D01*
X119835072Y-107966534D01*
X119856275Y-107983879D01*
X119891262Y-108004959D01*
X119915663Y-108017265D01*
X119984928Y-108038946D01*
X120061612Y-108045971D01*
X120134235Y-108037647D01*
X120154574Y-108031686D01*
X120217524Y-107997952D01*
X120264185Y-107946045D01*
X120294827Y-107875459D01*
X120309718Y-107785692D01*
X120311353Y-107738753D01*
X120306579Y-107670413D01*
X120186010Y-107670413D01*
X120174348Y-107675465D01*
X120143002Y-107679429D01*
X120097429Y-107681768D01*
X120066554Y-107682169D01*
X120011019Y-107681783D01*
X119975967Y-107679975D01*
X119956738Y-107675773D01*
X119948670Y-107668203D01*
X119947099Y-107657218D01*
X119957879Y-107623381D01*
X119985020Y-107589940D01*
X120020723Y-107564272D01*
X120056440Y-107553772D01*
X120104952Y-107563086D01*
X120146947Y-107590013D01*
X120176064Y-107628827D01*
X120186010Y-107670413D01*
X120306579Y-107670413D01*
X120304401Y-107639236D01*
X120282945Y-107559949D01*
X120246530Y-107500263D01*
X120194703Y-107459549D01*
X120127010Y-107437179D01*
X120090338Y-107432871D01*
X120014419Y-107433970D01*
X120014419Y-107433970D01*
G37*
X120014419Y-107433970D02*
X119954315Y-107449597D01*
X119903979Y-107481848D01*
X119879607Y-107505940D01*
X119839655Y-107562895D01*
X119816758Y-107628965D01*
X119808892Y-107710182D01*
X119808852Y-107716748D01*
X119808782Y-107782763D01*
X120188736Y-107782763D01*
X120180637Y-107817342D01*
X120166013Y-107848659D01*
X120140419Y-107881291D01*
X120135065Y-107886500D01*
X120089057Y-107914694D01*
X120036590Y-107919475D01*
X119976197Y-107900926D01*
X119965960Y-107895931D01*
X119934561Y-107880745D01*
X119913530Y-107872094D01*
X119909861Y-107871293D01*
X119897052Y-107879063D01*
X119872622Y-107898072D01*
X119860221Y-107908460D01*
X119834524Y-107932321D01*
X119826085Y-107948077D01*
X119831942Y-107962571D01*
X119835072Y-107966534D01*
X119856275Y-107983879D01*
X119891262Y-108004959D01*
X119915663Y-108017265D01*
X119984928Y-108038946D01*
X120061612Y-108045971D01*
X120134235Y-108037647D01*
X120154574Y-108031686D01*
X120217524Y-107997952D01*
X120264185Y-107946045D01*
X120294827Y-107875459D01*
X120309718Y-107785692D01*
X120311353Y-107738753D01*
X120306579Y-107670413D01*
X120186010Y-107670413D01*
X120174348Y-107675465D01*
X120143002Y-107679429D01*
X120097429Y-107681768D01*
X120066554Y-107682169D01*
X120011019Y-107681783D01*
X119975967Y-107679975D01*
X119956738Y-107675773D01*
X119948670Y-107668203D01*
X119947099Y-107657218D01*
X119957879Y-107623381D01*
X119985020Y-107589940D01*
X120020723Y-107564272D01*
X120056440Y-107553772D01*
X120104952Y-107563086D01*
X120146947Y-107590013D01*
X120176064Y-107628827D01*
X120186010Y-107670413D01*
X120306579Y-107670413D01*
X120304401Y-107639236D01*
X120282945Y-107559949D01*
X120246530Y-107500263D01*
X120194703Y-107459549D01*
X120127010Y-107437179D01*
X120090338Y-107432871D01*
X120014419Y-107433970D01*
G36*
X124585261Y-106494148D02*
X124519479Y-106523231D01*
X124469540Y-106571793D01*
X124435374Y-106639908D01*
X124416907Y-106727651D01*
X124415583Y-106741351D01*
X124414546Y-106837939D01*
X124427993Y-106922602D01*
X124455108Y-106991221D01*
X124469627Y-107013294D01*
X124520201Y-107060011D01*
X124584609Y-107090268D01*
X124656666Y-107102824D01*
X124730185Y-107096439D01*
X124786072Y-107076772D01*
X124834132Y-107043629D01*
X124873412Y-107000175D01*
X124874092Y-106999158D01*
X124890044Y-106972338D01*
X124900410Y-106945368D01*
X124906688Y-106911332D01*
X124910373Y-106863310D01*
X124911997Y-106823931D01*
X124912672Y-106788219D01*
X124786955Y-106788219D01*
X124785726Y-106823770D01*
X124781266Y-106871094D01*
X124773397Y-106901465D01*
X124759207Y-106923072D01*
X124745917Y-106935694D01*
X124698802Y-106962122D01*
X124649505Y-106965653D01*
X124603593Y-106946639D01*
X124580638Y-106925331D01*
X124564096Y-106903859D01*
X124554421Y-106883313D01*
X124550174Y-106856574D01*
X124549920Y-106816523D01*
X124551228Y-106779638D01*
X124554043Y-106726947D01*
X124558505Y-106692772D01*
X124566548Y-106670480D01*
X124580103Y-106653442D01*
X124590845Y-106643703D01*
X124635777Y-106618123D01*
X124684249Y-106616847D01*
X124724894Y-106631999D01*
X124759567Y-106663642D01*
X124780224Y-106715620D01*
X124786955Y-106788219D01*
X124912672Y-106788219D01*
X124913479Y-106745621D01*
X124910948Y-106687056D01*
X124903362Y-106643007D01*
X124889681Y-106608248D01*
X124868865Y-106577551D01*
X124861147Y-106568436D01*
X124812889Y-106523021D01*
X124761128Y-106496493D01*
X124697828Y-106485379D01*
X124666961Y-106484471D01*
X124585261Y-106494148D01*
X124585261Y-106494148D01*
G37*
X124585261Y-106494148D02*
X124519479Y-106523231D01*
X124469540Y-106571793D01*
X124435374Y-106639908D01*
X124416907Y-106727651D01*
X124415583Y-106741351D01*
X124414546Y-106837939D01*
X124427993Y-106922602D01*
X124455108Y-106991221D01*
X124469627Y-107013294D01*
X124520201Y-107060011D01*
X124584609Y-107090268D01*
X124656666Y-107102824D01*
X124730185Y-107096439D01*
X124786072Y-107076772D01*
X124834132Y-107043629D01*
X124873412Y-107000175D01*
X124874092Y-106999158D01*
X124890044Y-106972338D01*
X124900410Y-106945368D01*
X124906688Y-106911332D01*
X124910373Y-106863310D01*
X124911997Y-106823931D01*
X124912672Y-106788219D01*
X124786955Y-106788219D01*
X124785726Y-106823770D01*
X124781266Y-106871094D01*
X124773397Y-106901465D01*
X124759207Y-106923072D01*
X124745917Y-106935694D01*
X124698802Y-106962122D01*
X124649505Y-106965653D01*
X124603593Y-106946639D01*
X124580638Y-106925331D01*
X124564096Y-106903859D01*
X124554421Y-106883313D01*
X124550174Y-106856574D01*
X124549920Y-106816523D01*
X124551228Y-106779638D01*
X124554043Y-106726947D01*
X124558505Y-106692772D01*
X124566548Y-106670480D01*
X124580103Y-106653442D01*
X124590845Y-106643703D01*
X124635777Y-106618123D01*
X124684249Y-106616847D01*
X124724894Y-106631999D01*
X124759567Y-106663642D01*
X124780224Y-106715620D01*
X124786955Y-106788219D01*
X124912672Y-106788219D01*
X124913479Y-106745621D01*
X124910948Y-106687056D01*
X124903362Y-106643007D01*
X124889681Y-106608248D01*
X124868865Y-106577551D01*
X124861147Y-106568436D01*
X124812889Y-106523021D01*
X124761128Y-106496493D01*
X124697828Y-106485379D01*
X124666961Y-106484471D01*
X124585261Y-106494148D01*
G36*
X123403699Y-106501614D02*
X123391168Y-106507514D01*
X123347799Y-106539283D01*
X123306790Y-106585646D01*
X123276168Y-106636696D01*
X123267459Y-106660166D01*
X123259512Y-106702091D01*
X123254774Y-106752757D01*
X123254199Y-106773679D01*
X123254129Y-106839693D01*
X123634083Y-106839693D01*
X123625983Y-106874273D01*
X123606104Y-106915170D01*
X123571347Y-106950514D01*
X123529998Y-106973282D01*
X123503649Y-106978010D01*
X123467916Y-106972273D01*
X123425282Y-106957882D01*
X123410799Y-106951262D01*
X123357240Y-106924513D01*
X123311533Y-106959376D01*
X123285158Y-106982955D01*
X123271124Y-107002417D01*
X123270414Y-107008129D01*
X123282951Y-107021973D01*
X123310428Y-107043012D01*
X123335366Y-107059425D01*
X123402664Y-107088930D01*
X123478110Y-107102284D01*
X123552888Y-107098812D01*
X123612495Y-107080663D01*
X123673941Y-107041784D01*
X123717608Y-106990595D01*
X123744926Y-106924367D01*
X123757322Y-106840371D01*
X123758421Y-106801936D01*
X123754022Y-106713861D01*
X123753482Y-106711299D01*
X123627582Y-106711299D01*
X123624115Y-106719558D01*
X123609863Y-106724113D01*
X123580470Y-106726065D01*
X123531575Y-106726517D01*
X123512748Y-106726525D01*
X123455467Y-106725843D01*
X123419141Y-106723364D01*
X123399604Y-106718443D01*
X123392690Y-106710434D01*
X123392445Y-106707862D01*
X123400336Y-106687423D01*
X123420085Y-106658789D01*
X123428575Y-106648763D01*
X123460094Y-106620408D01*
X123492949Y-106609259D01*
X123510651Y-106608327D01*
X123558539Y-106619981D01*
X123598699Y-106651285D01*
X123624173Y-106696752D01*
X123624625Y-106698233D01*
X123627582Y-106711299D01*
X123753482Y-106711299D01*
X123739392Y-106644510D01*
X123713038Y-106589025D01*
X123680807Y-106549639D01*
X123621217Y-106506931D01*
X123551168Y-106484109D01*
X123476661Y-106482046D01*
X123403699Y-106501614D01*
X123403699Y-106501614D01*
G37*
X123403699Y-106501614D02*
X123391168Y-106507514D01*
X123347799Y-106539283D01*
X123306790Y-106585646D01*
X123276168Y-106636696D01*
X123267459Y-106660166D01*
X123259512Y-106702091D01*
X123254774Y-106752757D01*
X123254199Y-106773679D01*
X123254129Y-106839693D01*
X123634083Y-106839693D01*
X123625983Y-106874273D01*
X123606104Y-106915170D01*
X123571347Y-106950514D01*
X123529998Y-106973282D01*
X123503649Y-106978010D01*
X123467916Y-106972273D01*
X123425282Y-106957882D01*
X123410799Y-106951262D01*
X123357240Y-106924513D01*
X123311533Y-106959376D01*
X123285158Y-106982955D01*
X123271124Y-107002417D01*
X123270414Y-107008129D01*
X123282951Y-107021973D01*
X123310428Y-107043012D01*
X123335366Y-107059425D01*
X123402664Y-107088930D01*
X123478110Y-107102284D01*
X123552888Y-107098812D01*
X123612495Y-107080663D01*
X123673941Y-107041784D01*
X123717608Y-106990595D01*
X123744926Y-106924367D01*
X123757322Y-106840371D01*
X123758421Y-106801936D01*
X123754022Y-106713861D01*
X123753482Y-106711299D01*
X123627582Y-106711299D01*
X123624115Y-106719558D01*
X123609863Y-106724113D01*
X123580470Y-106726065D01*
X123531575Y-106726517D01*
X123512748Y-106726525D01*
X123455467Y-106725843D01*
X123419141Y-106723364D01*
X123399604Y-106718443D01*
X123392690Y-106710434D01*
X123392445Y-106707862D01*
X123400336Y-106687423D01*
X123420085Y-106658789D01*
X123428575Y-106648763D01*
X123460094Y-106620408D01*
X123492949Y-106609259D01*
X123510651Y-106608327D01*
X123558539Y-106619981D01*
X123598699Y-106651285D01*
X123624173Y-106696752D01*
X123624625Y-106698233D01*
X123627582Y-106711299D01*
X123753482Y-106711299D01*
X123739392Y-106644510D01*
X123713038Y-106589025D01*
X123680807Y-106549639D01*
X123621217Y-106506931D01*
X123551168Y-106484109D01*
X123476661Y-106482046D01*
X123403699Y-106501614D01*
G36*
X122032983Y-106485452D02*
X121985366Y-106494482D01*
X121935966Y-106513370D01*
X121930688Y-106515777D01*
X121893226Y-106535476D01*
X121867283Y-106553781D01*
X121858897Y-106565508D01*
X121866883Y-106584632D01*
X121886280Y-106612850D01*
X121894890Y-106623384D01*
X121930372Y-106664847D01*
X121976115Y-106637858D01*
X122019650Y-106619878D01*
X122069950Y-106610267D01*
X122118188Y-106609660D01*
X122155533Y-106618691D01*
X122164495Y-106624327D01*
X122181563Y-106650171D01*
X122183637Y-106679941D01*
X122170866Y-106703197D01*
X122163312Y-106707708D01*
X122140675Y-106713309D01*
X122100885Y-106719892D01*
X122051834Y-106726183D01*
X122042785Y-106727170D01*
X121964004Y-106740798D01*
X121906864Y-106763946D01*
X121868970Y-106798752D01*
X121847921Y-106847354D01*
X121841365Y-106906718D01*
X121850423Y-106974198D01*
X121879836Y-107027188D01*
X121929722Y-107065783D01*
X122000200Y-107090081D01*
X122078435Y-107099667D01*
X122142234Y-107099552D01*
X122193984Y-107090845D01*
X122229327Y-107078825D01*
X122273983Y-107057880D01*
X122315253Y-107033574D01*
X122329921Y-107022876D01*
X122367643Y-106992084D01*
X122322148Y-106946049D01*
X122276653Y-106900013D01*
X122224928Y-106934243D01*
X122173048Y-106959952D01*
X122117649Y-106973399D01*
X122064395Y-106974818D01*
X122018951Y-106964443D01*
X121986984Y-106942507D01*
X121976662Y-106923998D01*
X121978211Y-106894314D01*
X122003860Y-106871615D01*
X122053540Y-106855940D01*
X122107969Y-106848695D01*
X122191736Y-106834873D01*
X122253967Y-106808796D01*
X122295493Y-106769699D01*
X122317147Y-106716820D01*
X122320147Y-106654126D01*
X122305329Y-106588642D01*
X122271546Y-106539144D01*
X122218495Y-106505408D01*
X122145874Y-106487207D01*
X122092072Y-106483639D01*
X122032983Y-106485452D01*
X122032983Y-106485452D01*
G37*
X122032983Y-106485452D02*
X121985366Y-106494482D01*
X121935966Y-106513370D01*
X121930688Y-106515777D01*
X121893226Y-106535476D01*
X121867283Y-106553781D01*
X121858897Y-106565508D01*
X121866883Y-106584632D01*
X121886280Y-106612850D01*
X121894890Y-106623384D01*
X121930372Y-106664847D01*
X121976115Y-106637858D01*
X122019650Y-106619878D01*
X122069950Y-106610267D01*
X122118188Y-106609660D01*
X122155533Y-106618691D01*
X122164495Y-106624327D01*
X122181563Y-106650171D01*
X122183637Y-106679941D01*
X122170866Y-106703197D01*
X122163312Y-106707708D01*
X122140675Y-106713309D01*
X122100885Y-106719892D01*
X122051834Y-106726183D01*
X122042785Y-106727170D01*
X121964004Y-106740798D01*
X121906864Y-106763946D01*
X121868970Y-106798752D01*
X121847921Y-106847354D01*
X121841365Y-106906718D01*
X121850423Y-106974198D01*
X121879836Y-107027188D01*
X121929722Y-107065783D01*
X122000200Y-107090081D01*
X122078435Y-107099667D01*
X122142234Y-107099552D01*
X122193984Y-107090845D01*
X122229327Y-107078825D01*
X122273983Y-107057880D01*
X122315253Y-107033574D01*
X122329921Y-107022876D01*
X122367643Y-106992084D01*
X122322148Y-106946049D01*
X122276653Y-106900013D01*
X122224928Y-106934243D01*
X122173048Y-106959952D01*
X122117649Y-106973399D01*
X122064395Y-106974818D01*
X122018951Y-106964443D01*
X121986984Y-106942507D01*
X121976662Y-106923998D01*
X121978211Y-106894314D01*
X122003860Y-106871615D01*
X122053540Y-106855940D01*
X122107969Y-106848695D01*
X122191736Y-106834873D01*
X122253967Y-106808796D01*
X122295493Y-106769699D01*
X122317147Y-106716820D01*
X122320147Y-106654126D01*
X122305329Y-106588642D01*
X122271546Y-106539144D01*
X122218495Y-106505408D01*
X122145874Y-106487207D01*
X122092072Y-106483639D01*
X122032983Y-106485452D01*
G36*
X121436238Y-106495055D02*
X121372637Y-106529692D01*
X121322877Y-106584372D01*
X121299432Y-106628842D01*
X121289366Y-106668121D01*
X121282844Y-106724116D01*
X121280049Y-106788621D01*
X121281164Y-106853429D01*
X121286374Y-106910334D01*
X121292459Y-106940727D01*
X121312986Y-106982306D01*
X121348537Y-107026468D01*
X121391381Y-107065087D01*
X121433789Y-107090034D01*
X121434823Y-107090430D01*
X121487447Y-107101331D01*
X121549812Y-107101601D01*
X121609076Y-107091676D01*
X121631960Y-107083722D01*
X121690898Y-107050300D01*
X121733110Y-107006511D01*
X121760844Y-106948538D01*
X121776349Y-106872565D01*
X121779857Y-106832771D01*
X121779410Y-106782766D01*
X121644624Y-106782766D01*
X121640083Y-106855732D01*
X121627014Y-106911334D01*
X121606244Y-106946861D01*
X121591448Y-106957020D01*
X121553536Y-106964104D01*
X121508473Y-106962007D01*
X121469513Y-106951812D01*
X121459296Y-106946204D01*
X121432341Y-106913538D01*
X121414549Y-106863545D01*
X121406976Y-106802705D01*
X121410675Y-106737497D01*
X121418943Y-106698253D01*
X121442680Y-106652805D01*
X121480151Y-106624396D01*
X121525280Y-106614573D01*
X121571989Y-106624887D01*
X121607868Y-106650112D01*
X121626723Y-106670925D01*
X121637728Y-106691439D01*
X121642974Y-106719203D01*
X121644551Y-106761762D01*
X121644624Y-106782766D01*
X121779410Y-106782766D01*
X121778906Y-106726580D01*
X121761612Y-106639501D01*
X121727971Y-106571530D01*
X121677982Y-106522664D01*
X121611644Y-106492899D01*
X121597399Y-106489448D01*
X121511790Y-106481345D01*
X121436238Y-106495055D01*
X121436238Y-106495055D01*
G37*
X121436238Y-106495055D02*
X121372637Y-106529692D01*
X121322877Y-106584372D01*
X121299432Y-106628842D01*
X121289366Y-106668121D01*
X121282844Y-106724116D01*
X121280049Y-106788621D01*
X121281164Y-106853429D01*
X121286374Y-106910334D01*
X121292459Y-106940727D01*
X121312986Y-106982306D01*
X121348537Y-107026468D01*
X121391381Y-107065087D01*
X121433789Y-107090034D01*
X121434823Y-107090430D01*
X121487447Y-107101331D01*
X121549812Y-107101601D01*
X121609076Y-107091676D01*
X121631960Y-107083722D01*
X121690898Y-107050300D01*
X121733110Y-107006511D01*
X121760844Y-106948538D01*
X121776349Y-106872565D01*
X121779857Y-106832771D01*
X121779410Y-106782766D01*
X121644624Y-106782766D01*
X121640083Y-106855732D01*
X121627014Y-106911334D01*
X121606244Y-106946861D01*
X121591448Y-106957020D01*
X121553536Y-106964104D01*
X121508473Y-106962007D01*
X121469513Y-106951812D01*
X121459296Y-106946204D01*
X121432341Y-106913538D01*
X121414549Y-106863545D01*
X121406976Y-106802705D01*
X121410675Y-106737497D01*
X121418943Y-106698253D01*
X121442680Y-106652805D01*
X121480151Y-106624396D01*
X121525280Y-106614573D01*
X121571989Y-106624887D01*
X121607868Y-106650112D01*
X121626723Y-106670925D01*
X121637728Y-106691439D01*
X121642974Y-106719203D01*
X121644551Y-106761762D01*
X121644624Y-106782766D01*
X121779410Y-106782766D01*
X121778906Y-106726580D01*
X121761612Y-106639501D01*
X121727971Y-106571530D01*
X121677982Y-106522664D01*
X121611644Y-106492899D01*
X121597399Y-106489448D01*
X121511790Y-106481345D01*
X121436238Y-106495055D01*
G36*
X121053633Y-106683342D02*
X121052445Y-106775563D01*
X121048103Y-106845610D01*
X121039442Y-106896381D01*
X121025296Y-106930772D01*
X121004500Y-106951679D01*
X120975890Y-106962000D01*
X120940465Y-106964636D01*
X120903364Y-106961682D01*
X120875182Y-106950889D01*
X120854757Y-106929360D01*
X120840921Y-106894199D01*
X120832509Y-106842510D01*
X120828357Y-106771394D01*
X120827297Y-106683342D01*
X120827297Y-106487614D01*
X120688980Y-106487614D01*
X120688980Y-107091179D01*
X120758138Y-107091179D01*
X120799830Y-107089489D01*
X120821299Y-107083556D01*
X120827297Y-107072293D01*
X120830909Y-107062261D01*
X120845286Y-107064383D01*
X120874264Y-107078580D01*
X120940681Y-107100480D01*
X121011125Y-107098928D01*
X121078623Y-107075147D01*
X121110767Y-107056362D01*
X121135285Y-107036022D01*
X121153196Y-107010573D01*
X121165521Y-106976458D01*
X121173277Y-106930121D01*
X121177484Y-106868007D01*
X121179160Y-106786561D01*
X121179376Y-106723578D01*
X121179376Y-106487614D01*
X121053633Y-106487614D01*
X121053633Y-106683342D01*
X121053633Y-106683342D01*
G37*
X121053633Y-106683342D02*
X121052445Y-106775563D01*
X121048103Y-106845610D01*
X121039442Y-106896381D01*
X121025296Y-106930772D01*
X121004500Y-106951679D01*
X120975890Y-106962000D01*
X120940465Y-106964636D01*
X120903364Y-106961682D01*
X120875182Y-106950889D01*
X120854757Y-106929360D01*
X120840921Y-106894199D01*
X120832509Y-106842510D01*
X120828357Y-106771394D01*
X120827297Y-106683342D01*
X120827297Y-106487614D01*
X120688980Y-106487614D01*
X120688980Y-107091179D01*
X120758138Y-107091179D01*
X120799830Y-107089489D01*
X120821299Y-107083556D01*
X120827297Y-107072293D01*
X120830909Y-107062261D01*
X120845286Y-107064383D01*
X120874264Y-107078580D01*
X120940681Y-107100480D01*
X121011125Y-107098928D01*
X121078623Y-107075147D01*
X121110767Y-107056362D01*
X121135285Y-107036022D01*
X121153196Y-107010573D01*
X121165521Y-106976458D01*
X121173277Y-106930121D01*
X121177484Y-106868007D01*
X121179160Y-106786561D01*
X121179376Y-106723578D01*
X121179376Y-106487614D01*
X121053633Y-106487614D01*
X121053633Y-106683342D01*
G36*
X119829774Y-106492880D02*
X119756920Y-106523830D01*
X119733973Y-106538895D01*
X119704646Y-106562048D01*
X119686236Y-106580253D01*
X119683039Y-106586183D01*
X119692065Y-106599340D01*
X119715163Y-106621667D01*
X119733656Y-106637250D01*
X119784272Y-106677926D01*
X119824240Y-106644295D01*
X119855126Y-106622584D01*
X119885241Y-106615090D01*
X119919708Y-106616920D01*
X119974439Y-106630528D01*
X120012114Y-106658772D01*
X120035009Y-106704433D01*
X120045403Y-106770289D01*
X120045405Y-106770331D01*
X120044506Y-106843939D01*
X120030537Y-106897946D01*
X120002672Y-106934716D01*
X119983675Y-106947168D01*
X119933224Y-106962673D01*
X119879337Y-106962683D01*
X119832454Y-106947638D01*
X119821356Y-106940287D01*
X119793524Y-106921511D01*
X119771764Y-106918434D01*
X119748296Y-106932409D01*
X119722351Y-106957510D01*
X119681284Y-106999880D01*
X119726879Y-107037464D01*
X119797326Y-107079882D01*
X119876767Y-107100785D01*
X119959785Y-107099272D01*
X120014306Y-107085411D01*
X120078030Y-107051135D01*
X120128995Y-106997212D01*
X120152149Y-106959149D01*
X120170901Y-106904536D01*
X120180285Y-106835369D01*
X120180357Y-106760407D01*
X120171176Y-106688409D01*
X120152801Y-106628137D01*
X120149907Y-106621958D01*
X120107048Y-106561351D01*
X120049021Y-106517224D01*
X119980409Y-106490493D01*
X119905799Y-106482073D01*
X119829774Y-106492880D01*
X119829774Y-106492880D01*
G37*
X119829774Y-106492880D02*
X119756920Y-106523830D01*
X119733973Y-106538895D01*
X119704646Y-106562048D01*
X119686236Y-106580253D01*
X119683039Y-106586183D01*
X119692065Y-106599340D01*
X119715163Y-106621667D01*
X119733656Y-106637250D01*
X119784272Y-106677926D01*
X119824240Y-106644295D01*
X119855126Y-106622584D01*
X119885241Y-106615090D01*
X119919708Y-106616920D01*
X119974439Y-106630528D01*
X120012114Y-106658772D01*
X120035009Y-106704433D01*
X120045403Y-106770289D01*
X120045405Y-106770331D01*
X120044506Y-106843939D01*
X120030537Y-106897946D01*
X120002672Y-106934716D01*
X119983675Y-106947168D01*
X119933224Y-106962673D01*
X119879337Y-106962683D01*
X119832454Y-106947638D01*
X119821356Y-106940287D01*
X119793524Y-106921511D01*
X119771764Y-106918434D01*
X119748296Y-106932409D01*
X119722351Y-106957510D01*
X119681284Y-106999880D01*
X119726879Y-107037464D01*
X119797326Y-107079882D01*
X119876767Y-107100785D01*
X119959785Y-107099272D01*
X120014306Y-107085411D01*
X120078030Y-107051135D01*
X120128995Y-106997212D01*
X120152149Y-106959149D01*
X120170901Y-106904536D01*
X120180285Y-106835369D01*
X120180357Y-106760407D01*
X120171176Y-106688409D01*
X120152801Y-106628137D01*
X120149907Y-106621958D01*
X120107048Y-106561351D01*
X120049021Y-106517224D01*
X119980409Y-106490493D01*
X119905799Y-106482073D01*
X119829774Y-106492880D01*
G36*
X119369102Y-106485457D02*
X119336904Y-106493279D01*
X119275175Y-106521921D01*
X119222390Y-106565667D01*
X119185859Y-106618117D01*
X119180840Y-106629893D01*
X119173955Y-106660740D01*
X119169136Y-106706371D01*
X119167495Y-106752492D01*
X119167495Y-106839693D01*
X119349822Y-106839693D01*
X119425021Y-106839978D01*
X119477997Y-106841704D01*
X119511675Y-106846181D01*
X119528980Y-106854720D01*
X119532837Y-106868630D01*
X119526171Y-106889222D01*
X119514230Y-106913315D01*
X119480920Y-106953525D01*
X119434632Y-106973558D01*
X119378056Y-106972905D01*
X119313969Y-106951101D01*
X119258583Y-106924193D01*
X119212625Y-106960532D01*
X119166667Y-106996872D01*
X119209904Y-107036819D01*
X119267626Y-107074563D01*
X119338614Y-107097320D01*
X119414971Y-107103688D01*
X119488801Y-107092268D01*
X119500713Y-107088393D01*
X119565601Y-107054506D01*
X119613870Y-107003986D01*
X119646535Y-106935325D01*
X119664615Y-106847014D01*
X119664825Y-106845121D01*
X119666444Y-106748878D01*
X119659900Y-106714542D01*
X119532148Y-106714542D01*
X119520416Y-106719822D01*
X119488562Y-106723867D01*
X119441603Y-106726176D01*
X119411846Y-106726525D01*
X119356352Y-106726306D01*
X119321654Y-106724916D01*
X119303399Y-106721251D01*
X119297234Y-106714210D01*
X119298805Y-106702690D01*
X119300122Y-106698233D01*
X119322618Y-106656355D01*
X119357997Y-106622604D01*
X119389220Y-106607773D01*
X119430699Y-106608668D01*
X119472731Y-106627164D01*
X119507988Y-106657786D01*
X119529146Y-106695062D01*
X119532148Y-106714542D01*
X119659900Y-106714542D01*
X119650310Y-106664229D01*
X119618302Y-106593191D01*
X119572299Y-106537779D01*
X119514179Y-106500009D01*
X119445820Y-106481896D01*
X119369102Y-106485457D01*
X119369102Y-106485457D01*
G37*
X119369102Y-106485457D02*
X119336904Y-106493279D01*
X119275175Y-106521921D01*
X119222390Y-106565667D01*
X119185859Y-106618117D01*
X119180840Y-106629893D01*
X119173955Y-106660740D01*
X119169136Y-106706371D01*
X119167495Y-106752492D01*
X119167495Y-106839693D01*
X119349822Y-106839693D01*
X119425021Y-106839978D01*
X119477997Y-106841704D01*
X119511675Y-106846181D01*
X119528980Y-106854720D01*
X119532837Y-106868630D01*
X119526171Y-106889222D01*
X119514230Y-106913315D01*
X119480920Y-106953525D01*
X119434632Y-106973558D01*
X119378056Y-106972905D01*
X119313969Y-106951101D01*
X119258583Y-106924193D01*
X119212625Y-106960532D01*
X119166667Y-106996872D01*
X119209904Y-107036819D01*
X119267626Y-107074563D01*
X119338614Y-107097320D01*
X119414971Y-107103688D01*
X119488801Y-107092268D01*
X119500713Y-107088393D01*
X119565601Y-107054506D01*
X119613870Y-107003986D01*
X119646535Y-106935325D01*
X119664615Y-106847014D01*
X119664825Y-106845121D01*
X119666444Y-106748878D01*
X119659900Y-106714542D01*
X119532148Y-106714542D01*
X119520416Y-106719822D01*
X119488562Y-106723867D01*
X119441603Y-106726176D01*
X119411846Y-106726525D01*
X119356352Y-106726306D01*
X119321654Y-106724916D01*
X119303399Y-106721251D01*
X119297234Y-106714210D01*
X119298805Y-106702690D01*
X119300122Y-106698233D01*
X119322618Y-106656355D01*
X119357997Y-106622604D01*
X119389220Y-106607773D01*
X119430699Y-106608668D01*
X119472731Y-106627164D01*
X119507988Y-106657786D01*
X119529146Y-106695062D01*
X119532148Y-106714542D01*
X119659900Y-106714542D01*
X119650310Y-106664229D01*
X119618302Y-106593191D01*
X119572299Y-106537779D01*
X119514179Y-106500009D01*
X119445820Y-106481896D01*
X119369102Y-106485457D01*
G36*
X122801012Y-106498002D02*
X122769717Y-106512950D01*
X122739409Y-106534541D01*
X122716318Y-106559391D01*
X122699500Y-106591087D01*
X122688006Y-106633214D01*
X122680891Y-106689358D01*
X122677207Y-106763106D01*
X122676008Y-106858044D01*
X122675989Y-106867985D01*
X122675713Y-107091179D01*
X122814030Y-107091179D01*
X122814030Y-106885418D01*
X122814128Y-106809189D01*
X122814809Y-106753939D01*
X122816651Y-106715501D01*
X122820233Y-106689706D01*
X122826132Y-106672384D01*
X122834927Y-106659368D01*
X122847180Y-106646507D01*
X122890047Y-106618873D01*
X122936843Y-106613745D01*
X122981424Y-106631217D01*
X122996928Y-106644221D01*
X123008310Y-106656447D01*
X123016481Y-106669540D01*
X123021974Y-106687615D01*
X123025320Y-106714787D01*
X123027051Y-106755170D01*
X123027697Y-106812879D01*
X123027792Y-106883132D01*
X123027792Y-107091179D01*
X123166109Y-107091179D01*
X123166109Y-106487614D01*
X123096950Y-106487614D01*
X123055428Y-106489256D01*
X123034006Y-106495087D01*
X123027795Y-106506461D01*
X123027792Y-106506798D01*
X123024910Y-106517938D01*
X123012199Y-106516674D01*
X122986926Y-106504434D01*
X122929605Y-106486424D01*
X122864037Y-106484421D01*
X122801012Y-106498002D01*
X122801012Y-106498002D01*
G37*
X122801012Y-106498002D02*
X122769717Y-106512950D01*
X122739409Y-106534541D01*
X122716318Y-106559391D01*
X122699500Y-106591087D01*
X122688006Y-106633214D01*
X122680891Y-106689358D01*
X122677207Y-106763106D01*
X122676008Y-106858044D01*
X122675989Y-106867985D01*
X122675713Y-107091179D01*
X122814030Y-107091179D01*
X122814030Y-106885418D01*
X122814128Y-106809189D01*
X122814809Y-106753939D01*
X122816651Y-106715501D01*
X122820233Y-106689706D01*
X122826132Y-106672384D01*
X122834927Y-106659368D01*
X122847180Y-106646507D01*
X122890047Y-106618873D01*
X122936843Y-106613745D01*
X122981424Y-106631217D01*
X122996928Y-106644221D01*
X123008310Y-106656447D01*
X123016481Y-106669540D01*
X123021974Y-106687615D01*
X123025320Y-106714787D01*
X123027051Y-106755170D01*
X123027697Y-106812879D01*
X123027792Y-106883132D01*
X123027792Y-107091179D01*
X123166109Y-107091179D01*
X123166109Y-106487614D01*
X123096950Y-106487614D01*
X123055428Y-106489256D01*
X123034006Y-106495087D01*
X123027795Y-106506461D01*
X123027792Y-106506798D01*
X123024910Y-106517938D01*
X123012199Y-106516674D01*
X122986926Y-106504434D01*
X122929605Y-106486424D01*
X122864037Y-106484421D01*
X122801012Y-106498002D01*
G36*
X120247540Y-106487030D02*
X120204289Y-106500245D01*
X120176442Y-106516941D01*
X120167371Y-106530145D01*
X120169868Y-106545797D01*
X120186069Y-106570385D01*
X120199768Y-106587800D01*
X120228008Y-106619283D01*
X120249225Y-106632529D01*
X120267312Y-106631664D01*
X120320965Y-106618010D01*
X120360370Y-106618630D01*
X120392368Y-106634104D01*
X120403110Y-106643161D01*
X120437495Y-106675027D01*
X120437495Y-107091179D01*
X120575812Y-107091179D01*
X120575812Y-106487614D01*
X120506653Y-106487614D01*
X120465131Y-106489256D01*
X120443709Y-106495087D01*
X120437498Y-106506461D01*
X120437495Y-106506798D01*
X120434561Y-106518713D01*
X120421296Y-106517159D01*
X120402916Y-106508563D01*
X120364954Y-106492568D01*
X120334128Y-106482945D01*
X120294464Y-106480478D01*
X120247540Y-106487030D01*
X120247540Y-106487030D01*
G37*
X120247540Y-106487030D02*
X120204289Y-106500245D01*
X120176442Y-106516941D01*
X120167371Y-106530145D01*
X120169868Y-106545797D01*
X120186069Y-106570385D01*
X120199768Y-106587800D01*
X120228008Y-106619283D01*
X120249225Y-106632529D01*
X120267312Y-106631664D01*
X120320965Y-106618010D01*
X120360370Y-106618630D01*
X120392368Y-106634104D01*
X120403110Y-106643161D01*
X120437495Y-106675027D01*
X120437495Y-107091179D01*
X120575812Y-107091179D01*
X120575812Y-106487614D01*
X120506653Y-106487614D01*
X120465131Y-106489256D01*
X120443709Y-106495087D01*
X120437498Y-106506461D01*
X120437495Y-106506798D01*
X120434561Y-106518713D01*
X120421296Y-106517159D01*
X120402916Y-106508563D01*
X120364954Y-106492568D01*
X120334128Y-106482945D01*
X120294464Y-106480478D01*
X120247540Y-106487030D01*
G36*
X121670036Y-102319018D02*
X121613188Y-102620570D01*
X121193662Y-102793512D01*
X120942016Y-102622395D01*
X120871542Y-102574750D01*
X120807837Y-102532210D01*
X120753874Y-102496715D01*
X120712627Y-102470210D01*
X120687066Y-102454636D01*
X120680105Y-102451278D01*
X120667565Y-102459914D01*
X120640769Y-102483792D01*
X120602720Y-102519859D01*
X120556421Y-102565067D01*
X120504877Y-102616364D01*
X120451091Y-102670701D01*
X120398065Y-102725028D01*
X120348805Y-102776295D01*
X120306313Y-102821451D01*
X120273593Y-102857446D01*
X120253649Y-102881230D01*
X120248881Y-102889190D01*
X120255743Y-102903865D01*
X120274980Y-102936014D01*
X120304570Y-102982492D01*
X120342490Y-103040156D01*
X120386718Y-103105860D01*
X120412346Y-103143336D01*
X120459059Y-103211768D01*
X120500568Y-103273520D01*
X120534860Y-103325519D01*
X120559920Y-103364692D01*
X120573736Y-103387965D01*
X120575812Y-103392855D01*
X120571105Y-103406755D01*
X120558277Y-103439150D01*
X120539262Y-103485485D01*
X120515997Y-103541206D01*
X120490416Y-103601758D01*
X120464455Y-103662586D01*
X120440050Y-103719136D01*
X120419137Y-103766852D01*
X120403651Y-103801181D01*
X120395528Y-103817568D01*
X120395048Y-103818212D01*
X120382293Y-103821341D01*
X120348323Y-103828321D01*
X120296660Y-103838467D01*
X120230824Y-103851092D01*
X120154336Y-103865509D01*
X120109710Y-103873823D01*
X120027979Y-103889384D01*
X119954157Y-103904192D01*
X119891979Y-103917436D01*
X119845178Y-103928305D01*
X119817491Y-103935989D01*
X119811926Y-103938427D01*
X119806474Y-103954930D01*
X119802076Y-103992200D01*
X119798728Y-104045880D01*
X119796426Y-104111612D01*
X119795168Y-104185037D01*
X119794952Y-104261796D01*
X119795773Y-104337532D01*
X119797629Y-104407886D01*
X119800518Y-104468500D01*
X119804435Y-104515016D01*
X119809378Y-104543075D01*
X119812343Y-104548916D01*
X119830066Y-104555917D01*
X119867619Y-104565927D01*
X119920036Y-104577769D01*
X119982348Y-104590267D01*
X120004100Y-104594310D01*
X120108976Y-104613520D01*
X120191820Y-104628991D01*
X120255370Y-104641337D01*
X120302363Y-104651173D01*
X120335537Y-104659114D01*
X120357629Y-104665776D01*
X120371376Y-104671773D01*
X120379516Y-104677719D01*
X120380655Y-104678894D01*
X120392023Y-104697826D01*
X120409365Y-104734669D01*
X120430950Y-104784913D01*
X120455046Y-104844046D01*
X120479921Y-104907556D01*
X120503843Y-104970932D01*
X120525081Y-105029662D01*
X120541903Y-105079235D01*
X120552578Y-105115139D01*
X120555373Y-105132862D01*
X120555140Y-105133483D01*
X120545669Y-105147970D01*
X120524182Y-105179844D01*
X120492937Y-105225789D01*
X120454193Y-105282485D01*
X120410207Y-105346617D01*
X120397681Y-105364842D01*
X120353016Y-105430914D01*
X120313712Y-105491200D01*
X120281912Y-105542235D01*
X120259755Y-105580560D01*
X120249383Y-105602711D01*
X120248881Y-105605432D01*
X120257595Y-105619736D01*
X120281675Y-105648072D01*
X120318024Y-105687396D01*
X120363547Y-105734661D01*
X120415148Y-105786823D01*
X120469733Y-105840835D01*
X120524206Y-105893653D01*
X120575471Y-105942231D01*
X120620433Y-105983523D01*
X120655996Y-106014485D01*
X120679065Y-106032070D01*
X120685446Y-106034941D01*
X120700301Y-106028178D01*
X120730714Y-106009939D01*
X120771732Y-105983297D01*
X120803291Y-105961852D01*
X120860475Y-105922503D01*
X120928194Y-105876171D01*
X120996120Y-105829913D01*
X121032639Y-105805155D01*
X121156248Y-105721547D01*
X121260009Y-105777650D01*
X121307280Y-105802228D01*
X121347477Y-105821331D01*
X121374674Y-105832227D01*
X121381598Y-105833743D01*
X121389923Y-105822549D01*
X121406346Y-105790917D01*
X121429643Y-105741765D01*
X121458586Y-105678010D01*
X121491950Y-105602571D01*
X121528509Y-105518364D01*
X121567036Y-105428308D01*
X121606306Y-105335321D01*
X121645092Y-105242320D01*
X121682170Y-105152223D01*
X121716311Y-105067948D01*
X121746292Y-104992413D01*
X121770884Y-104928534D01*
X121788864Y-104879231D01*
X121799003Y-104847421D01*
X121800634Y-104836496D01*
X121787709Y-104822561D01*
X121759411Y-104799940D01*
X121721654Y-104773333D01*
X121718485Y-104771228D01*
X121620900Y-104693114D01*
X121542214Y-104601982D01*
X121483109Y-104500745D01*
X121444268Y-104392318D01*
X121426372Y-104279614D01*
X121430103Y-104165548D01*
X121456143Y-104053034D01*
X121505175Y-103944985D01*
X121519600Y-103921345D01*
X121594631Y-103825887D01*
X121683270Y-103749232D01*
X121782451Y-103691780D01*
X121889105Y-103653929D01*
X122000164Y-103636078D01*
X122112561Y-103638625D01*
X122223227Y-103661970D01*
X122329094Y-103706510D01*
X122427095Y-103772645D01*
X122457410Y-103799487D01*
X122534562Y-103883512D01*
X122590782Y-103971966D01*
X122629347Y-104071115D01*
X122650826Y-104169303D01*
X122656128Y-104279697D01*
X122638448Y-104390640D01*
X122599581Y-104498381D01*
X122541323Y-104599169D01*
X122465469Y-104689256D01*
X122373817Y-104764892D01*
X122361772Y-104772864D01*
X122323611Y-104798974D01*
X122294601Y-104821595D01*
X122280732Y-104836039D01*
X122280531Y-104836496D01*
X122283508Y-104852121D01*
X122295311Y-104887582D01*
X122314714Y-104939962D01*
X122340488Y-105006345D01*
X122371409Y-105083814D01*
X122406249Y-105169450D01*
X122443783Y-105260337D01*
X122482783Y-105353559D01*
X122522023Y-105446197D01*
X122560276Y-105535335D01*
X122596317Y-105618055D01*
X122628917Y-105691441D01*
X122656852Y-105752575D01*
X122678895Y-105798541D01*
X122693818Y-105826421D01*
X122699828Y-105833743D01*
X122718191Y-105828041D01*
X122752552Y-105812749D01*
X122796984Y-105790599D01*
X122821417Y-105777650D01*
X122925178Y-105721547D01*
X123048787Y-105805155D01*
X123111886Y-105847987D01*
X123180970Y-105895122D01*
X123245707Y-105939503D01*
X123278134Y-105961852D01*
X123323741Y-105992477D01*
X123362360Y-106016747D01*
X123388952Y-106031587D01*
X123397590Y-106034724D01*
X123410161Y-106026261D01*
X123437984Y-106002636D01*
X123478361Y-105966302D01*
X123528595Y-105919711D01*
X123585988Y-105865317D01*
X123622286Y-105830392D01*
X123685790Y-105767996D01*
X123740673Y-105712188D01*
X123784714Y-105665354D01*
X123815695Y-105629882D01*
X123831398Y-105608161D01*
X123832905Y-105603752D01*
X123825914Y-105586985D01*
X123806594Y-105553082D01*
X123777091Y-105505476D01*
X123739545Y-105447599D01*
X123696100Y-105382884D01*
X123683745Y-105364842D01*
X123638727Y-105299267D01*
X123598340Y-105240228D01*
X123564840Y-105191042D01*
X123540486Y-105155028D01*
X123527536Y-105135502D01*
X123526285Y-105133483D01*
X123528156Y-105117922D01*
X123538087Y-105083709D01*
X123554347Y-105035355D01*
X123575205Y-104977371D01*
X123598927Y-104914270D01*
X123623784Y-104850563D01*
X123648042Y-104790761D01*
X123669971Y-104739376D01*
X123687838Y-104700919D01*
X123699913Y-104679902D01*
X123700771Y-104678894D01*
X123708154Y-104672888D01*
X123720625Y-104666948D01*
X123740920Y-104660460D01*
X123771778Y-104652809D01*
X123815934Y-104643380D01*
X123876126Y-104631559D01*
X123955093Y-104616729D01*
X124055570Y-104598277D01*
X124077325Y-104594310D01*
X124141802Y-104581853D01*
X124198011Y-104569666D01*
X124240987Y-104558926D01*
X124265760Y-104550809D01*
X124269082Y-104548916D01*
X124274556Y-104532138D01*
X124279006Y-104494645D01*
X124282428Y-104440794D01*
X124284819Y-104374944D01*
X124286177Y-104301453D01*
X124286499Y-104224680D01*
X124285781Y-104148983D01*
X124284021Y-104078720D01*
X124281216Y-104018250D01*
X124277362Y-103971930D01*
X124272457Y-103944119D01*
X124269500Y-103938427D01*
X124253037Y-103932686D01*
X124215551Y-103923345D01*
X124160775Y-103911215D01*
X124092445Y-103897107D01*
X124014294Y-103881830D01*
X123971716Y-103873823D01*
X123890929Y-103858721D01*
X123818887Y-103845040D01*
X123759111Y-103833467D01*
X123715121Y-103824687D01*
X123690439Y-103819387D01*
X123686377Y-103818212D01*
X123679511Y-103804965D01*
X123664998Y-103773057D01*
X123644771Y-103727047D01*
X123620766Y-103671492D01*
X123594918Y-103610953D01*
X123569160Y-103549986D01*
X123545427Y-103493151D01*
X123525654Y-103445006D01*
X123511776Y-103410110D01*
X123505726Y-103393021D01*
X123505614Y-103392274D01*
X123512472Y-103378793D01*
X123531698Y-103347770D01*
X123561272Y-103302289D01*
X123599173Y-103245432D01*
X123643380Y-103180283D01*
X123669079Y-103142862D01*
X123715907Y-103074247D01*
X123757499Y-103011952D01*
X123791825Y-102959129D01*
X123816857Y-102918927D01*
X123830565Y-102894500D01*
X123832544Y-102889024D01*
X123824034Y-102876278D01*
X123800507Y-102849063D01*
X123764968Y-102810428D01*
X123720423Y-102763423D01*
X123669877Y-102711095D01*
X123616336Y-102656495D01*
X123562805Y-102602670D01*
X123512289Y-102552670D01*
X123467794Y-102509543D01*
X123432325Y-102476339D01*
X123408887Y-102456106D01*
X123401046Y-102451278D01*
X123388280Y-102458067D01*
X123357744Y-102477142D01*
X123312410Y-102506561D01*
X123255244Y-102544381D01*
X123189216Y-102588661D01*
X123139410Y-102622395D01*
X122887764Y-102793512D01*
X122678001Y-102707041D01*
X122468237Y-102620570D01*
X122411389Y-102319018D01*
X122354540Y-102017466D01*
X121726885Y-102017466D01*
X121670036Y-102319018D01*
X121670036Y-102319018D01*
G37*
X121670036Y-102319018D02*
X121613188Y-102620570D01*
X121193662Y-102793512D01*
X120942016Y-102622395D01*
X120871542Y-102574750D01*
X120807837Y-102532210D01*
X120753874Y-102496715D01*
X120712627Y-102470210D01*
X120687066Y-102454636D01*
X120680105Y-102451278D01*
X120667565Y-102459914D01*
X120640769Y-102483792D01*
X120602720Y-102519859D01*
X120556421Y-102565067D01*
X120504877Y-102616364D01*
X120451091Y-102670701D01*
X120398065Y-102725028D01*
X120348805Y-102776295D01*
X120306313Y-102821451D01*
X120273593Y-102857446D01*
X120253649Y-102881230D01*
X120248881Y-102889190D01*
X120255743Y-102903865D01*
X120274980Y-102936014D01*
X120304570Y-102982492D01*
X120342490Y-103040156D01*
X120386718Y-103105860D01*
X120412346Y-103143336D01*
X120459059Y-103211768D01*
X120500568Y-103273520D01*
X120534860Y-103325519D01*
X120559920Y-103364692D01*
X120573736Y-103387965D01*
X120575812Y-103392855D01*
X120571105Y-103406755D01*
X120558277Y-103439150D01*
X120539262Y-103485485D01*
X120515997Y-103541206D01*
X120490416Y-103601758D01*
X120464455Y-103662586D01*
X120440050Y-103719136D01*
X120419137Y-103766852D01*
X120403651Y-103801181D01*
X120395528Y-103817568D01*
X120395048Y-103818212D01*
X120382293Y-103821341D01*
X120348323Y-103828321D01*
X120296660Y-103838467D01*
X120230824Y-103851092D01*
X120154336Y-103865509D01*
X120109710Y-103873823D01*
X120027979Y-103889384D01*
X119954157Y-103904192D01*
X119891979Y-103917436D01*
X119845178Y-103928305D01*
X119817491Y-103935989D01*
X119811926Y-103938427D01*
X119806474Y-103954930D01*
X119802076Y-103992200D01*
X119798728Y-104045880D01*
X119796426Y-104111612D01*
X119795168Y-104185037D01*
X119794952Y-104261796D01*
X119795773Y-104337532D01*
X119797629Y-104407886D01*
X119800518Y-104468500D01*
X119804435Y-104515016D01*
X119809378Y-104543075D01*
X119812343Y-104548916D01*
X119830066Y-104555917D01*
X119867619Y-104565927D01*
X119920036Y-104577769D01*
X119982348Y-104590267D01*
X120004100Y-104594310D01*
X120108976Y-104613520D01*
X120191820Y-104628991D01*
X120255370Y-104641337D01*
X120302363Y-104651173D01*
X120335537Y-104659114D01*
X120357629Y-104665776D01*
X120371376Y-104671773D01*
X120379516Y-104677719D01*
X120380655Y-104678894D01*
X120392023Y-104697826D01*
X120409365Y-104734669D01*
X120430950Y-104784913D01*
X120455046Y-104844046D01*
X120479921Y-104907556D01*
X120503843Y-104970932D01*
X120525081Y-105029662D01*
X120541903Y-105079235D01*
X120552578Y-105115139D01*
X120555373Y-105132862D01*
X120555140Y-105133483D01*
X120545669Y-105147970D01*
X120524182Y-105179844D01*
X120492937Y-105225789D01*
X120454193Y-105282485D01*
X120410207Y-105346617D01*
X120397681Y-105364842D01*
X120353016Y-105430914D01*
X120313712Y-105491200D01*
X120281912Y-105542235D01*
X120259755Y-105580560D01*
X120249383Y-105602711D01*
X120248881Y-105605432D01*
X120257595Y-105619736D01*
X120281675Y-105648072D01*
X120318024Y-105687396D01*
X120363547Y-105734661D01*
X120415148Y-105786823D01*
X120469733Y-105840835D01*
X120524206Y-105893653D01*
X120575471Y-105942231D01*
X120620433Y-105983523D01*
X120655996Y-106014485D01*
X120679065Y-106032070D01*
X120685446Y-106034941D01*
X120700301Y-106028178D01*
X120730714Y-106009939D01*
X120771732Y-105983297D01*
X120803291Y-105961852D01*
X120860475Y-105922503D01*
X120928194Y-105876171D01*
X120996120Y-105829913D01*
X121032639Y-105805155D01*
X121156248Y-105721547D01*
X121260009Y-105777650D01*
X121307280Y-105802228D01*
X121347477Y-105821331D01*
X121374674Y-105832227D01*
X121381598Y-105833743D01*
X121389923Y-105822549D01*
X121406346Y-105790917D01*
X121429643Y-105741765D01*
X121458586Y-105678010D01*
X121491950Y-105602571D01*
X121528509Y-105518364D01*
X121567036Y-105428308D01*
X121606306Y-105335321D01*
X121645092Y-105242320D01*
X121682170Y-105152223D01*
X121716311Y-105067948D01*
X121746292Y-104992413D01*
X121770884Y-104928534D01*
X121788864Y-104879231D01*
X121799003Y-104847421D01*
X121800634Y-104836496D01*
X121787709Y-104822561D01*
X121759411Y-104799940D01*
X121721654Y-104773333D01*
X121718485Y-104771228D01*
X121620900Y-104693114D01*
X121542214Y-104601982D01*
X121483109Y-104500745D01*
X121444268Y-104392318D01*
X121426372Y-104279614D01*
X121430103Y-104165548D01*
X121456143Y-104053034D01*
X121505175Y-103944985D01*
X121519600Y-103921345D01*
X121594631Y-103825887D01*
X121683270Y-103749232D01*
X121782451Y-103691780D01*
X121889105Y-103653929D01*
X122000164Y-103636078D01*
X122112561Y-103638625D01*
X122223227Y-103661970D01*
X122329094Y-103706510D01*
X122427095Y-103772645D01*
X122457410Y-103799487D01*
X122534562Y-103883512D01*
X122590782Y-103971966D01*
X122629347Y-104071115D01*
X122650826Y-104169303D01*
X122656128Y-104279697D01*
X122638448Y-104390640D01*
X122599581Y-104498381D01*
X122541323Y-104599169D01*
X122465469Y-104689256D01*
X122373817Y-104764892D01*
X122361772Y-104772864D01*
X122323611Y-104798974D01*
X122294601Y-104821595D01*
X122280732Y-104836039D01*
X122280531Y-104836496D01*
X122283508Y-104852121D01*
X122295311Y-104887582D01*
X122314714Y-104939962D01*
X122340488Y-105006345D01*
X122371409Y-105083814D01*
X122406249Y-105169450D01*
X122443783Y-105260337D01*
X122482783Y-105353559D01*
X122522023Y-105446197D01*
X122560276Y-105535335D01*
X122596317Y-105618055D01*
X122628917Y-105691441D01*
X122656852Y-105752575D01*
X122678895Y-105798541D01*
X122693818Y-105826421D01*
X122699828Y-105833743D01*
X122718191Y-105828041D01*
X122752552Y-105812749D01*
X122796984Y-105790599D01*
X122821417Y-105777650D01*
X122925178Y-105721547D01*
X123048787Y-105805155D01*
X123111886Y-105847987D01*
X123180970Y-105895122D01*
X123245707Y-105939503D01*
X123278134Y-105961852D01*
X123323741Y-105992477D01*
X123362360Y-106016747D01*
X123388952Y-106031587D01*
X123397590Y-106034724D01*
X123410161Y-106026261D01*
X123437984Y-106002636D01*
X123478361Y-105966302D01*
X123528595Y-105919711D01*
X123585988Y-105865317D01*
X123622286Y-105830392D01*
X123685790Y-105767996D01*
X123740673Y-105712188D01*
X123784714Y-105665354D01*
X123815695Y-105629882D01*
X123831398Y-105608161D01*
X123832905Y-105603752D01*
X123825914Y-105586985D01*
X123806594Y-105553082D01*
X123777091Y-105505476D01*
X123739545Y-105447599D01*
X123696100Y-105382884D01*
X123683745Y-105364842D01*
X123638727Y-105299267D01*
X123598340Y-105240228D01*
X123564840Y-105191042D01*
X123540486Y-105155028D01*
X123527536Y-105135502D01*
X123526285Y-105133483D01*
X123528156Y-105117922D01*
X123538087Y-105083709D01*
X123554347Y-105035355D01*
X123575205Y-104977371D01*
X123598927Y-104914270D01*
X123623784Y-104850563D01*
X123648042Y-104790761D01*
X123669971Y-104739376D01*
X123687838Y-104700919D01*
X123699913Y-104679902D01*
X123700771Y-104678894D01*
X123708154Y-104672888D01*
X123720625Y-104666948D01*
X123740920Y-104660460D01*
X123771778Y-104652809D01*
X123815934Y-104643380D01*
X123876126Y-104631559D01*
X123955093Y-104616729D01*
X124055570Y-104598277D01*
X124077325Y-104594310D01*
X124141802Y-104581853D01*
X124198011Y-104569666D01*
X124240987Y-104558926D01*
X124265760Y-104550809D01*
X124269082Y-104548916D01*
X124274556Y-104532138D01*
X124279006Y-104494645D01*
X124282428Y-104440794D01*
X124284819Y-104374944D01*
X124286177Y-104301453D01*
X124286499Y-104224680D01*
X124285781Y-104148983D01*
X124284021Y-104078720D01*
X124281216Y-104018250D01*
X124277362Y-103971930D01*
X124272457Y-103944119D01*
X124269500Y-103938427D01*
X124253037Y-103932686D01*
X124215551Y-103923345D01*
X124160775Y-103911215D01*
X124092445Y-103897107D01*
X124014294Y-103881830D01*
X123971716Y-103873823D01*
X123890929Y-103858721D01*
X123818887Y-103845040D01*
X123759111Y-103833467D01*
X123715121Y-103824687D01*
X123690439Y-103819387D01*
X123686377Y-103818212D01*
X123679511Y-103804965D01*
X123664998Y-103773057D01*
X123644771Y-103727047D01*
X123620766Y-103671492D01*
X123594918Y-103610953D01*
X123569160Y-103549986D01*
X123545427Y-103493151D01*
X123525654Y-103445006D01*
X123511776Y-103410110D01*
X123505726Y-103393021D01*
X123505614Y-103392274D01*
X123512472Y-103378793D01*
X123531698Y-103347770D01*
X123561272Y-103302289D01*
X123599173Y-103245432D01*
X123643380Y-103180283D01*
X123669079Y-103142862D01*
X123715907Y-103074247D01*
X123757499Y-103011952D01*
X123791825Y-102959129D01*
X123816857Y-102918927D01*
X123830565Y-102894500D01*
X123832544Y-102889024D01*
X123824034Y-102876278D01*
X123800507Y-102849063D01*
X123764968Y-102810428D01*
X123720423Y-102763423D01*
X123669877Y-102711095D01*
X123616336Y-102656495D01*
X123562805Y-102602670D01*
X123512289Y-102552670D01*
X123467794Y-102509543D01*
X123432325Y-102476339D01*
X123408887Y-102456106D01*
X123401046Y-102451278D01*
X123388280Y-102458067D01*
X123357744Y-102477142D01*
X123312410Y-102506561D01*
X123255244Y-102544381D01*
X123189216Y-102588661D01*
X123139410Y-102622395D01*
X122887764Y-102793512D01*
X122678001Y-102707041D01*
X122468237Y-102620570D01*
X122411389Y-102319018D01*
X122354540Y-102017466D01*
X121726885Y-102017466D01*
X121670036Y-102319018D01*
D12*
X148291476Y-110978905D02*
X148291476Y-110178905D01*
X148101000Y-110178905D01*
X147986714Y-110217000D01*
X147910523Y-110293190D01*
X147872428Y-110369381D01*
X147834333Y-110521762D01*
X147834333Y-110636048D01*
X147872428Y-110788429D01*
X147910523Y-110864619D01*
X147986714Y-110940810D01*
X148101000Y-110978905D01*
X148291476Y-110978905D01*
X147453381Y-110978905D02*
X147301000Y-110978905D01*
X147224809Y-110940810D01*
X147186714Y-110902714D01*
X147110523Y-110788429D01*
X147072428Y-110636048D01*
X147072428Y-110331286D01*
X147110523Y-110255095D01*
X147148619Y-110217000D01*
X147224809Y-110178905D01*
X147377190Y-110178905D01*
X147453381Y-110217000D01*
X147491476Y-110255095D01*
X147529571Y-110331286D01*
X147529571Y-110521762D01*
X147491476Y-110597952D01*
X147453381Y-110636048D01*
X147377190Y-110674143D01*
X147224809Y-110674143D01*
X147148619Y-110636048D01*
X147110523Y-110597952D01*
X147072428Y-110521762D01*
X145751476Y-110978905D02*
X145751476Y-110178905D01*
X145561000Y-110178905D01*
X145446714Y-110217000D01*
X145370523Y-110293190D01*
X145332428Y-110369381D01*
X145294333Y-110521762D01*
X145294333Y-110636048D01*
X145332428Y-110788429D01*
X145370523Y-110864619D01*
X145446714Y-110940810D01*
X145561000Y-110978905D01*
X145751476Y-110978905D01*
X144837190Y-110521762D02*
X144913381Y-110483667D01*
X144951476Y-110445571D01*
X144989571Y-110369381D01*
X144989571Y-110331286D01*
X144951476Y-110255095D01*
X144913381Y-110217000D01*
X144837190Y-110178905D01*
X144684809Y-110178905D01*
X144608619Y-110217000D01*
X144570523Y-110255095D01*
X144532428Y-110331286D01*
X144532428Y-110369381D01*
X144570523Y-110445571D01*
X144608619Y-110483667D01*
X144684809Y-110521762D01*
X144837190Y-110521762D01*
X144913381Y-110559857D01*
X144951476Y-110597952D01*
X144989571Y-110674143D01*
X144989571Y-110826524D01*
X144951476Y-110902714D01*
X144913381Y-110940810D01*
X144837190Y-110978905D01*
X144684809Y-110978905D01*
X144608619Y-110940810D01*
X144570523Y-110902714D01*
X144532428Y-110826524D01*
X144532428Y-110674143D01*
X144570523Y-110597952D01*
X144608619Y-110559857D01*
X144684809Y-110521762D01*
X143211476Y-110978905D02*
X143211476Y-110178905D01*
X143021000Y-110178905D01*
X142906714Y-110217000D01*
X142830523Y-110293190D01*
X142792428Y-110369381D01*
X142754333Y-110521762D01*
X142754333Y-110636048D01*
X142792428Y-110788429D01*
X142830523Y-110864619D01*
X142906714Y-110940810D01*
X143021000Y-110978905D01*
X143211476Y-110978905D01*
X142487666Y-110178905D02*
X141954333Y-110178905D01*
X142297190Y-110978905D01*
X140671476Y-110978905D02*
X140671476Y-110178905D01*
X140481000Y-110178905D01*
X140366714Y-110217000D01*
X140290523Y-110293190D01*
X140252428Y-110369381D01*
X140214333Y-110521762D01*
X140214333Y-110636048D01*
X140252428Y-110788429D01*
X140290523Y-110864619D01*
X140366714Y-110940810D01*
X140481000Y-110978905D01*
X140671476Y-110978905D01*
X139528619Y-110178905D02*
X139681000Y-110178905D01*
X139757190Y-110217000D01*
X139795285Y-110255095D01*
X139871476Y-110369381D01*
X139909571Y-110521762D01*
X139909571Y-110826524D01*
X139871476Y-110902714D01*
X139833381Y-110940810D01*
X139757190Y-110978905D01*
X139604809Y-110978905D01*
X139528619Y-110940810D01*
X139490523Y-110902714D01*
X139452428Y-110826524D01*
X139452428Y-110636048D01*
X139490523Y-110559857D01*
X139528619Y-110521762D01*
X139604809Y-110483667D01*
X139757190Y-110483667D01*
X139833381Y-110521762D01*
X139871476Y-110559857D01*
X139909571Y-110636048D01*
X138131476Y-110978905D02*
X138131476Y-110178905D01*
X137941000Y-110178905D01*
X137826714Y-110217000D01*
X137750523Y-110293190D01*
X137712428Y-110369381D01*
X137674333Y-110521762D01*
X137674333Y-110636048D01*
X137712428Y-110788429D01*
X137750523Y-110864619D01*
X137826714Y-110940810D01*
X137941000Y-110978905D01*
X138131476Y-110978905D01*
X136950523Y-110178905D02*
X137331476Y-110178905D01*
X137369571Y-110559857D01*
X137331476Y-110521762D01*
X137255285Y-110483667D01*
X137064809Y-110483667D01*
X136988619Y-110521762D01*
X136950523Y-110559857D01*
X136912428Y-110636048D01*
X136912428Y-110826524D01*
X136950523Y-110902714D01*
X136988619Y-110940810D01*
X137064809Y-110978905D01*
X137255285Y-110978905D01*
X137331476Y-110940810D01*
X137369571Y-110902714D01*
X135591476Y-110978905D02*
X135591476Y-110178905D01*
X135401000Y-110178905D01*
X135286714Y-110217000D01*
X135210523Y-110293190D01*
X135172428Y-110369381D01*
X135134333Y-110521762D01*
X135134333Y-110636048D01*
X135172428Y-110788429D01*
X135210523Y-110864619D01*
X135286714Y-110940810D01*
X135401000Y-110978905D01*
X135591476Y-110978905D01*
X134448619Y-110445571D02*
X134448619Y-110978905D01*
X134639095Y-110140810D02*
X134829571Y-110712238D01*
X134334333Y-110712238D01*
X133413381Y-110940810D02*
X133299095Y-110978905D01*
X133108619Y-110978905D01*
X133032429Y-110940810D01*
X132994333Y-110902714D01*
X132956238Y-110826524D01*
X132956238Y-110750333D01*
X132994333Y-110674143D01*
X133032429Y-110636048D01*
X133108619Y-110597952D01*
X133261000Y-110559857D01*
X133337191Y-110521762D01*
X133375286Y-110483667D01*
X133413381Y-110407476D01*
X133413381Y-110331286D01*
X133375286Y-110255095D01*
X133337191Y-110217000D01*
X133261000Y-110178905D01*
X133070524Y-110178905D01*
X132956238Y-110217000D01*
X132156238Y-110902714D02*
X132194333Y-110940810D01*
X132308619Y-110978905D01*
X132384809Y-110978905D01*
X132499095Y-110940810D01*
X132575286Y-110864619D01*
X132613381Y-110788429D01*
X132651476Y-110636048D01*
X132651476Y-110521762D01*
X132613381Y-110369381D01*
X132575286Y-110293190D01*
X132499095Y-110217000D01*
X132384809Y-110178905D01*
X132308619Y-110178905D01*
X132194333Y-110217000D01*
X132156238Y-110255095D01*
X131432428Y-110978905D02*
X131813381Y-110978905D01*
X131813381Y-110178905D01*
X130892428Y-110940810D02*
X130778142Y-110978905D01*
X130587666Y-110978905D01*
X130511476Y-110940810D01*
X130473380Y-110902714D01*
X130435285Y-110826524D01*
X130435285Y-110750333D01*
X130473380Y-110674143D01*
X130511476Y-110636048D01*
X130587666Y-110597952D01*
X130740047Y-110559857D01*
X130816238Y-110521762D01*
X130854333Y-110483667D01*
X130892428Y-110407476D01*
X130892428Y-110331286D01*
X130854333Y-110255095D01*
X130816238Y-110217000D01*
X130740047Y-110178905D01*
X130549571Y-110178905D01*
X130435285Y-110217000D01*
X130092428Y-110978905D02*
X130092428Y-110178905D01*
X129901952Y-110178905D01*
X129787666Y-110217000D01*
X129711475Y-110293190D01*
X129673380Y-110369381D01*
X129635285Y-110521762D01*
X129635285Y-110636048D01*
X129673380Y-110788429D01*
X129711475Y-110864619D01*
X129787666Y-110940810D01*
X129901952Y-110978905D01*
X130092428Y-110978905D01*
X129330523Y-110750333D02*
X128949571Y-110750333D01*
X129406714Y-110978905D02*
X129140047Y-110178905D01*
X128873380Y-110978905D01*
X127990523Y-110217000D02*
X128066714Y-110178905D01*
X128180999Y-110178905D01*
X128295285Y-110217000D01*
X128371476Y-110293190D01*
X128409571Y-110369381D01*
X128447666Y-110521762D01*
X128447666Y-110636048D01*
X128409571Y-110788429D01*
X128371476Y-110864619D01*
X128295285Y-110940810D01*
X128180999Y-110978905D01*
X128104809Y-110978905D01*
X127990523Y-110940810D01*
X127952428Y-110902714D01*
X127952428Y-110636048D01*
X128104809Y-110636048D01*
X127609571Y-110978905D02*
X127609571Y-110178905D01*
X127152428Y-110978905D01*
X127152428Y-110178905D01*
X126771476Y-110978905D02*
X126771476Y-110178905D01*
X126581000Y-110178905D01*
X126466714Y-110217000D01*
X126390523Y-110293190D01*
X126352428Y-110369381D01*
X126314333Y-110521762D01*
X126314333Y-110636048D01*
X126352428Y-110788429D01*
X126390523Y-110864619D01*
X126466714Y-110940810D01*
X126581000Y-110978905D01*
X126771476Y-110978905D01*
X125450523Y-110217000D02*
X125526714Y-110178905D01*
X125640999Y-110178905D01*
X125755285Y-110217000D01*
X125831476Y-110293190D01*
X125869571Y-110369381D01*
X125907666Y-110521762D01*
X125907666Y-110636048D01*
X125869571Y-110788429D01*
X125831476Y-110864619D01*
X125755285Y-110940810D01*
X125640999Y-110978905D01*
X125564809Y-110978905D01*
X125450523Y-110940810D01*
X125412428Y-110902714D01*
X125412428Y-110636048D01*
X125564809Y-110636048D01*
X125069571Y-110978905D02*
X125069571Y-110178905D01*
X124612428Y-110978905D01*
X124612428Y-110178905D01*
X124231476Y-110978905D02*
X124231476Y-110178905D01*
X124041000Y-110178905D01*
X123926714Y-110217000D01*
X123850523Y-110293190D01*
X123812428Y-110369381D01*
X123774333Y-110521762D01*
X123774333Y-110636048D01*
X123812428Y-110788429D01*
X123850523Y-110864619D01*
X123926714Y-110940810D01*
X124041000Y-110978905D01*
X124231476Y-110978905D01*
X123120048Y-110178905D02*
X123043857Y-110178905D01*
X122967667Y-110217000D01*
X122929572Y-110255095D01*
X122891476Y-110331286D01*
X122853381Y-110483667D01*
X122853381Y-110674143D01*
X122891476Y-110826524D01*
X122929572Y-110902714D01*
X122967667Y-110940810D01*
X123043857Y-110978905D01*
X123120048Y-110978905D01*
X123196238Y-110940810D01*
X123234334Y-110902714D01*
X123272429Y-110826524D01*
X123310524Y-110674143D01*
X123310524Y-110483667D01*
X123272429Y-110331286D01*
X123234334Y-110255095D01*
X123196238Y-110217000D01*
X123120048Y-110178905D01*
X122053381Y-110978905D02*
X122320048Y-110597952D01*
X122510524Y-110978905D02*
X122510524Y-110178905D01*
X122205762Y-110178905D01*
X122129571Y-110217000D01*
X122091476Y-110255095D01*
X122053381Y-110331286D01*
X122053381Y-110445571D01*
X122091476Y-110521762D01*
X122129571Y-110559857D01*
X122205762Y-110597952D01*
X122510524Y-110597952D01*
X121786714Y-110178905D02*
X121253381Y-110978905D01*
X121253381Y-110178905D02*
X121786714Y-110978905D01*
X120218143Y-110978905D02*
X120675286Y-110978905D01*
X120446715Y-110978905D02*
X120446715Y-110178905D01*
X120522905Y-110293190D01*
X120599096Y-110369381D01*
X120675286Y-110407476D01*
X119989572Y-110178905D02*
X119532429Y-110178905D01*
X119761000Y-110978905D02*
X119761000Y-110178905D01*
X119341952Y-110178905D02*
X118808619Y-110978905D01*
X118808619Y-110178905D02*
X119341952Y-110978905D01*
X148672429Y-98913905D02*
X148672429Y-98113905D01*
X148481953Y-98113905D01*
X148367667Y-98152000D01*
X148291476Y-98228190D01*
X148253381Y-98304381D01*
X148215286Y-98456762D01*
X148215286Y-98571048D01*
X148253381Y-98723429D01*
X148291476Y-98799619D01*
X148367667Y-98875810D01*
X148481953Y-98913905D01*
X148672429Y-98913905D01*
X147453381Y-98913905D02*
X147910524Y-98913905D01*
X147681953Y-98913905D02*
X147681953Y-98113905D01*
X147758143Y-98228190D01*
X147834334Y-98304381D01*
X147910524Y-98342476D01*
X146958143Y-98113905D02*
X146881952Y-98113905D01*
X146805762Y-98152000D01*
X146767667Y-98190095D01*
X146729571Y-98266286D01*
X146691476Y-98418667D01*
X146691476Y-98609143D01*
X146729571Y-98761524D01*
X146767667Y-98837714D01*
X146805762Y-98875810D01*
X146881952Y-98913905D01*
X146958143Y-98913905D01*
X147034333Y-98875810D01*
X147072429Y-98837714D01*
X147110524Y-98761524D01*
X147148619Y-98609143D01*
X147148619Y-98418667D01*
X147110524Y-98266286D01*
X147072429Y-98190095D01*
X147034333Y-98152000D01*
X146958143Y-98113905D01*
X145846714Y-98913905D02*
X145846714Y-98113905D01*
X145580047Y-98685333D01*
X145313380Y-98113905D01*
X145313380Y-98913905D01*
X144780047Y-98113905D02*
X144627666Y-98113905D01*
X144551475Y-98152000D01*
X144475285Y-98228190D01*
X144437190Y-98380571D01*
X144437190Y-98647238D01*
X144475285Y-98799619D01*
X144551475Y-98875810D01*
X144627666Y-98913905D01*
X144780047Y-98913905D01*
X144856237Y-98875810D01*
X144932428Y-98799619D01*
X144970523Y-98647238D01*
X144970523Y-98380571D01*
X144932428Y-98228190D01*
X144856237Y-98152000D01*
X144780047Y-98113905D01*
X143268619Y-98875810D02*
X143154333Y-98913905D01*
X142963857Y-98913905D01*
X142887667Y-98875810D01*
X142849571Y-98837714D01*
X142811476Y-98761524D01*
X142811476Y-98685333D01*
X142849571Y-98609143D01*
X142887667Y-98571048D01*
X142963857Y-98532952D01*
X143116238Y-98494857D01*
X143192429Y-98456762D01*
X143230524Y-98418667D01*
X143268619Y-98342476D01*
X143268619Y-98266286D01*
X143230524Y-98190095D01*
X143192429Y-98152000D01*
X143116238Y-98113905D01*
X142925762Y-98113905D01*
X142811476Y-98152000D01*
X142316238Y-98113905D02*
X142163857Y-98113905D01*
X142087666Y-98152000D01*
X142011476Y-98228190D01*
X141973381Y-98380571D01*
X141973381Y-98647238D01*
X142011476Y-98799619D01*
X142087666Y-98875810D01*
X142163857Y-98913905D01*
X142316238Y-98913905D01*
X142392428Y-98875810D01*
X142468619Y-98799619D01*
X142506714Y-98647238D01*
X142506714Y-98380571D01*
X142468619Y-98228190D01*
X142392428Y-98152000D01*
X142316238Y-98113905D01*
X141109571Y-98875810D02*
X140995285Y-98913905D01*
X140804809Y-98913905D01*
X140728619Y-98875810D01*
X140690523Y-98837714D01*
X140652428Y-98761524D01*
X140652428Y-98685333D01*
X140690523Y-98609143D01*
X140728619Y-98571048D01*
X140804809Y-98532952D01*
X140957190Y-98494857D01*
X141033381Y-98456762D01*
X141071476Y-98418667D01*
X141109571Y-98342476D01*
X141109571Y-98266286D01*
X141071476Y-98190095D01*
X141033381Y-98152000D01*
X140957190Y-98113905D01*
X140766714Y-98113905D01*
X140652428Y-98152000D01*
X139852428Y-98837714D02*
X139890523Y-98875810D01*
X140004809Y-98913905D01*
X140080999Y-98913905D01*
X140195285Y-98875810D01*
X140271476Y-98799619D01*
X140309571Y-98723429D01*
X140347666Y-98571048D01*
X140347666Y-98456762D01*
X140309571Y-98304381D01*
X140271476Y-98228190D01*
X140195285Y-98152000D01*
X140080999Y-98113905D01*
X140004809Y-98113905D01*
X139890523Y-98152000D01*
X139852428Y-98190095D01*
X139509571Y-98913905D02*
X139509571Y-98113905D01*
X139052428Y-98913905D02*
X139395285Y-98456762D01*
X139052428Y-98113905D02*
X139509571Y-98571048D01*
X138112428Y-98685333D02*
X137731476Y-98685333D01*
X138188619Y-98913905D02*
X137921952Y-98113905D01*
X137655285Y-98913905D01*
X137236238Y-98113905D02*
X137160047Y-98113905D01*
X137083857Y-98152000D01*
X137045762Y-98190095D01*
X137007666Y-98266286D01*
X136969571Y-98418667D01*
X136969571Y-98609143D01*
X137007666Y-98761524D01*
X137045762Y-98837714D01*
X137083857Y-98875810D01*
X137160047Y-98913905D01*
X137236238Y-98913905D01*
X137312428Y-98875810D01*
X137350524Y-98837714D01*
X137388619Y-98761524D01*
X137426714Y-98609143D01*
X137426714Y-98418667D01*
X137388619Y-98266286D01*
X137350524Y-98190095D01*
X137312428Y-98152000D01*
X137236238Y-98113905D01*
X135572428Y-98685333D02*
X135191476Y-98685333D01*
X135648619Y-98913905D02*
X135381952Y-98113905D01*
X135115285Y-98913905D01*
X134429571Y-98913905D02*
X134886714Y-98913905D01*
X134658143Y-98913905D02*
X134658143Y-98113905D01*
X134734333Y-98228190D01*
X134810524Y-98304381D01*
X134886714Y-98342476D01*
X133032428Y-98685333D02*
X132651476Y-98685333D01*
X133108619Y-98913905D02*
X132841952Y-98113905D01*
X132575285Y-98913905D01*
X132346714Y-98190095D02*
X132308619Y-98152000D01*
X132232428Y-98113905D01*
X132041952Y-98113905D01*
X131965762Y-98152000D01*
X131927666Y-98190095D01*
X131889571Y-98266286D01*
X131889571Y-98342476D01*
X131927666Y-98456762D01*
X132384809Y-98913905D01*
X131889571Y-98913905D01*
X130492428Y-98685333D02*
X130111476Y-98685333D01*
X130568619Y-98913905D02*
X130301952Y-98113905D01*
X130035285Y-98913905D01*
X129844809Y-98113905D02*
X129349571Y-98113905D01*
X129616238Y-98418667D01*
X129501952Y-98418667D01*
X129425762Y-98456762D01*
X129387666Y-98494857D01*
X129349571Y-98571048D01*
X129349571Y-98761524D01*
X129387666Y-98837714D01*
X129425762Y-98875810D01*
X129501952Y-98913905D01*
X129730524Y-98913905D01*
X129806714Y-98875810D01*
X129844809Y-98837714D01*
X128447667Y-98113905D02*
X128181000Y-98913905D01*
X127914333Y-98113905D01*
X127190524Y-98837714D02*
X127228619Y-98875810D01*
X127342905Y-98913905D01*
X127419095Y-98913905D01*
X127533381Y-98875810D01*
X127609572Y-98799619D01*
X127647667Y-98723429D01*
X127685762Y-98571048D01*
X127685762Y-98456762D01*
X127647667Y-98304381D01*
X127609572Y-98228190D01*
X127533381Y-98152000D01*
X127419095Y-98113905D01*
X127342905Y-98113905D01*
X127228619Y-98152000D01*
X127190524Y-98190095D01*
X126390524Y-98837714D02*
X126428619Y-98875810D01*
X126542905Y-98913905D01*
X126619095Y-98913905D01*
X126733381Y-98875810D01*
X126809572Y-98799619D01*
X126847667Y-98723429D01*
X126885762Y-98571048D01*
X126885762Y-98456762D01*
X126847667Y-98304381D01*
X126809572Y-98228190D01*
X126733381Y-98152000D01*
X126619095Y-98113905D01*
X126542905Y-98113905D01*
X126428619Y-98152000D01*
X126390524Y-98190095D01*
X125279095Y-98913905D02*
X125545762Y-98532952D01*
X125736238Y-98913905D02*
X125736238Y-98113905D01*
X125431476Y-98113905D01*
X125355285Y-98152000D01*
X125317190Y-98190095D01*
X125279095Y-98266286D01*
X125279095Y-98380571D01*
X125317190Y-98456762D01*
X125355285Y-98494857D01*
X125431476Y-98532952D01*
X125736238Y-98532952D01*
X124974333Y-98875810D02*
X124860047Y-98913905D01*
X124669571Y-98913905D01*
X124593381Y-98875810D01*
X124555285Y-98837714D01*
X124517190Y-98761524D01*
X124517190Y-98685333D01*
X124555285Y-98609143D01*
X124593381Y-98571048D01*
X124669571Y-98532952D01*
X124821952Y-98494857D01*
X124898143Y-98456762D01*
X124936238Y-98418667D01*
X124974333Y-98342476D01*
X124974333Y-98266286D01*
X124936238Y-98190095D01*
X124898143Y-98152000D01*
X124821952Y-98113905D01*
X124631476Y-98113905D01*
X124517190Y-98152000D01*
X124288619Y-98113905D02*
X123831476Y-98113905D01*
X124060047Y-98913905D02*
X124060047Y-98113905D01*
X122910523Y-98152000D02*
X122986714Y-98113905D01*
X123100999Y-98113905D01*
X123215285Y-98152000D01*
X123291476Y-98228190D01*
X123329571Y-98304381D01*
X123367666Y-98456762D01*
X123367666Y-98571048D01*
X123329571Y-98723429D01*
X123291476Y-98799619D01*
X123215285Y-98875810D01*
X123100999Y-98913905D01*
X123024809Y-98913905D01*
X122910523Y-98875810D01*
X122872428Y-98837714D01*
X122872428Y-98571048D01*
X123024809Y-98571048D01*
X122529571Y-98913905D02*
X122529571Y-98113905D01*
X122072428Y-98913905D01*
X122072428Y-98113905D01*
X121691476Y-98913905D02*
X121691476Y-98113905D01*
X121501000Y-98113905D01*
X121386714Y-98152000D01*
X121310523Y-98228190D01*
X121272428Y-98304381D01*
X121234333Y-98456762D01*
X121234333Y-98571048D01*
X121272428Y-98723429D01*
X121310523Y-98799619D01*
X121386714Y-98875810D01*
X121501000Y-98913905D01*
X121691476Y-98913905D01*
X120580048Y-98113905D02*
X120313381Y-98913905D01*
X120046714Y-98113905D01*
X119780048Y-98913905D02*
X119780048Y-98380571D01*
X119780048Y-98113905D02*
X119818143Y-98152000D01*
X119780048Y-98190095D01*
X119741953Y-98152000D01*
X119780048Y-98113905D01*
X119780048Y-98190095D01*
X119399096Y-98380571D02*
X119399096Y-98913905D01*
X119399096Y-98456762D02*
X119361001Y-98418667D01*
X119284810Y-98380571D01*
X119170524Y-98380571D01*
X119094334Y-98418667D01*
X119056239Y-98494857D01*
X119056239Y-98913905D01*
M02*
