M48
;DRILL file {KiCad 4.0.7} date 2017 December 25, Monday 22:29:33
;FORMAT={-:-/ absolute / inch / decimal}
FMAT,2
INCH,TZ
T1C0.013
T2C0.026
T3C0.039
%
G90
G05
M72
T1
X4.7862Y-4.2948
X4.7866Y-3.9675
X4.8014Y-3.9377
X4.8729Y-4.3312
X4.8795Y-4.2223
X4.8849Y-3.9322
X4.92Y-4.33
X4.9209Y-3.875
X4.9351Y-4.1719
X4.9357Y-4.2224
X4.9374Y-4.0619
X4.9501Y-4.2858
X4.966Y-3.9858
X4.9715Y-4.2393
X4.9787Y-4.1179
X4.9913Y-4.276
X5.02Y-4.1
X5.0411Y-3.9789
X5.045Y-4.3035
X5.0615Y-4.1285
X5.0663Y-4.0958
X5.0911Y-3.9025
X5.0983Y-3.9896
X5.1086Y-4.2829
X5.1362Y-3.9521
X5.1627Y-4.0643
X5.166Y-4.3006
X5.1729Y-4.3562
X5.1751Y-3.8897
X5.1874Y-4.041
X5.2138Y-4.1874
X5.2181Y-4.092
X5.2235Y-4.3461
X5.2335Y-3.9976
X5.2498Y-4.059
X5.2546Y-4.2456
X5.2724Y-3.9743
X5.2733Y-4.3257
X5.2825Y-3.8988
X5.2996Y-4.2346
X5.3085Y-4.3211
X5.3221Y-3.8913
X5.3294Y-3.9718
X5.3326Y-4.2335
X5.3507Y-3.997
X5.3534Y-4.0631
X5.388Y-4.1424
X5.3882Y-4.028
X5.4016Y-4.0582
X5.4153Y-3.9239
X5.4204Y-4.1544
X5.4895Y-4.2928
X5.495Y-3.895
X5.4979Y-4.1086
X5.4987Y-3.9797
X5.5256Y-4.042
X5.5287Y-4.0092
X5.5454Y-4.187
X5.5628Y-4.3138
X5.59Y-4.1963
X5.598Y-4.0807
X5.615Y-3.885
X5.6153Y-4.3158
X5.6213Y-4.2372
X5.6357Y-4.073
X5.6643Y-4.184
X5.665Y-4.375
X5.6807Y-4.0758
X5.6961Y-4.2514
X5.715Y-4.0755
X5.7402Y-4.1637
X5.7519Y-3.9769
X5.7535Y-4.0415
X5.7562Y-4.3451
X5.8Y-4.1
T2
X5.54Y-3.92
X5.59Y-3.92
X5.64Y-3.92
X5.69Y-3.92
T3
X4.715Y-3.815
X4.715Y-4.415
X4.815Y-3.815
X4.815Y-4.415
X4.915Y-3.815
X4.915Y-4.415
X5.015Y-3.815
X5.015Y-4.415
X5.115Y-3.815
X5.115Y-4.415
X5.215Y-3.815
X5.215Y-4.415
X5.315Y-3.815
X5.315Y-4.415
X5.415Y-3.815
X5.415Y-4.415
X5.515Y-3.815
X5.515Y-4.415
X5.615Y-3.815
X5.615Y-4.415
X5.715Y-3.815
X5.715Y-4.415
X5.815Y-3.815
X5.815Y-4.415
T0
M30
