M48
;DRILL file {KiCad 4.0.7} date 2017 October 09, Monday 22:10:04
;FORMAT={-:-/ absolute / inch / decimal}
FMAT,2
INCH,TZ
T1C0.016
T2C0.030
T3C0.031
T4C0.039
T5C0.040
%
G90
G05
M72
T1
X6.5164Y-2.094
X6.5335Y-2.1762
X6.6391Y-1.9601
X6.6769Y-1.8447
X6.6892Y-1.7092
X6.751Y-2.6772
X6.8908Y-2.8392
X6.9476Y-2.675
X6.9604Y-1.8643
X7.01Y-1.76
X7.0859Y-2.19
X7.1584Y-2.111
X7.1941Y-2.19
X7.2005Y-2.1118
X7.2197Y-2.689
X7.3353Y-2.0812
X7.3506Y-3.4542
X7.4Y-2.74
X7.5555Y-3.1415
X7.5561Y-2.7973
X7.5561Y-3.0153
X7.6219Y-2.1454
X7.6414Y-2.2007
X7.6722Y-3.4207
X7.7023Y-2.7608
X7.726Y-2.9248
X7.7324Y-2.8007
X7.7513Y-2.6728
X7.7571Y-3.0604
X7.7977Y-1.8727
X7.8402Y-2.1659
X7.9Y-2.
X7.9481Y-2.6288
X7.953Y-2.704
X7.97Y-3.32
X7.9983Y-3.4037
X8.0242Y-2.2282
X8.03Y-2.73
X8.04Y-1.88
X8.0635Y-2.7016
X8.08Y-2.28
X8.1012Y-2.1512
X8.127Y-2.0113
X8.1799Y-1.7524
X8.18Y-1.95
X8.1992Y-2.0095
X8.2866Y-2.2267
X8.34Y-2.
X8.3498Y-2.741
X8.3894Y-2.2904
X8.4474Y-2.6916
X8.45Y-2.99
T2
X7.73Y-1.76
X7.73Y-1.8387
X7.73Y-1.9175
X7.73Y-1.9962
X7.99Y-1.76
X7.99Y-1.8387
X7.99Y-1.9175
X7.99Y-1.9962
T3
X6.6016Y-2.1
X6.7Y-2.1
T4
X6.1Y-2.3
X6.1Y-2.4
X6.1Y-2.5
X6.1Y-2.6
X6.2Y-2.3
X6.2Y-2.4
X6.2Y-2.5
X6.2Y-2.6
X6.3Y-2.3
X6.3Y-2.4
X6.3Y-2.5
X6.3Y-2.6
X6.4Y-2.3
X6.4Y-2.4
X6.4Y-2.5
X6.4Y-2.6
X6.5Y-2.3
X6.5Y-2.4
X6.5Y-2.5
X6.5Y-2.6
X6.6Y-2.3
X6.6Y-2.4
X6.6Y-2.5
X6.6Y-2.6
X6.7Y-2.3
X6.7Y-2.4
X6.7Y-2.5
X6.7Y-2.6
X6.7Y-2.75
X6.7Y-2.85
X6.7Y-2.95
X6.7Y-3.15
X6.7Y-3.25
X6.7Y-3.35
X6.8Y-2.3
X6.8Y-2.4
X6.8Y-2.5
X6.8Y-2.6
X6.82Y-1.77
X6.82Y-1.87
X6.82Y-1.97
X6.82Y-2.07
X6.9Y-2.3
X6.9Y-2.4
X6.9Y-2.5
X6.9Y-2.6
X7.Y-2.3
X7.Y-2.4
X7.Y-2.5
X7.Y-2.6
X7.1Y-2.3
X7.1Y-2.4
X7.1Y-2.5
X7.1Y-2.6
X7.2Y-2.3
X7.2Y-2.4
X7.2Y-2.5
X7.2Y-2.6
X7.3Y-2.3
X7.3Y-2.4
X7.3Y-2.5
X7.3Y-2.6
X7.4Y-2.3
X7.4Y-2.4
X7.4Y-2.5
X7.4Y-2.6
X7.5Y-2.3
X7.5Y-2.4
X7.5Y-2.5
X7.5Y-2.6
X7.5Y-2.75
X7.5Y-2.85
X7.5Y-2.95
X7.5Y-3.15
X7.5Y-3.25
X7.5Y-3.35
X7.6Y-2.3
X7.6Y-2.4
X7.6Y-2.5
X7.6Y-2.6
X7.7Y-2.3
X7.7Y-2.4
X7.7Y-2.5
X7.7Y-2.6
X7.8Y-2.3
X7.8Y-2.4
X7.8Y-2.5
X7.8Y-2.6
X7.85Y-2.8
X7.85Y-2.9
X7.85Y-3.
X7.85Y-3.1
X7.85Y-3.2
X7.85Y-3.3
X7.9Y-2.3
X7.9Y-2.4
X7.9Y-2.5
X7.9Y-2.6
X8.Y-2.3
X8.Y-2.4
X8.Y-2.5
X8.Y-2.6
X8.2Y-1.87
X8.2Y-2.1
X8.3Y-1.87
X8.3Y-2.1
X8.4Y-1.87
X8.4Y-2.1
T5
X6.64Y-1.6
X6.74Y-1.6
X6.84Y-1.6
X6.94Y-1.6
X7.Y-3.5
X7.04Y-1.6
X7.1Y-3.5
X7.14Y-1.6
X7.2Y-3.5
X7.24Y-1.6
X7.3Y-3.5
X7.34Y-1.6
X7.4Y-3.5
X7.44Y-1.6
X7.5Y-3.5
X7.54Y-1.6
X7.6Y-3.5
X7.7Y-1.6
X7.7Y-3.5
X7.8Y-1.6
X7.9Y-1.6
X7.9Y-3.5
X8.Y-1.6
X8.Y-3.5
X8.1Y-1.6
X8.1Y-3.5
X8.2Y-1.6
X8.2Y-3.5
X8.3Y-1.6
X8.3Y-3.5
X8.4Y-1.6
X8.4Y-2.4
X8.4Y-2.5
X8.4Y-2.6
X8.4Y-3.5
X8.5Y-2.4
X8.5Y-2.5
X8.5Y-2.6
T4
X6.1Y-1.9006G85X6.1Y-1.9794
G05
X6.1787Y-2.125G85X6.2575Y-2.125
G05
X6.3362Y-1.9006G85X6.3362Y-1.9794
G05
T0
M30
