G04 #@! TF.FileFunction,Other,Fab,Bot*
%FSLAX46Y46*%
G04 Gerber Fmt 4.6, Leading zero omitted, Abs format (unit mm)*
G04 Created by KiCad (PCBNEW 4.0.7) date 2017 October 09, Monday 22:10:02*
%MOMM*%
%LPD*%
G01*
G04 APERTURE LIST*
%ADD10C,0.100000*%
%ADD11C,0.150000*%
G04 APERTURE END LIST*
D10*
X204470000Y-60960000D02*
X204470000Y-57150000D01*
X204470000Y-57150000D02*
X153670000Y-57150000D01*
X153670000Y-57150000D02*
X153670000Y-62230000D01*
X153670000Y-62230000D02*
X203200000Y-62230000D01*
X203200000Y-62230000D02*
X204470000Y-60960000D01*
D11*
X153062381Y-52785238D02*
X152586190Y-52451904D01*
X153062381Y-52213809D02*
X152062381Y-52213809D01*
X152062381Y-52594762D01*
X152110000Y-52690000D01*
X152157619Y-52737619D01*
X152252857Y-52785238D01*
X152395714Y-52785238D01*
X152490952Y-52737619D01*
X152538571Y-52690000D01*
X152586190Y-52594762D01*
X152586190Y-52213809D01*
X153062381Y-53642381D02*
X152538571Y-53642381D01*
X152443333Y-53594762D01*
X152395714Y-53499524D01*
X152395714Y-53309047D01*
X152443333Y-53213809D01*
X153014762Y-53642381D02*
X153062381Y-53547143D01*
X153062381Y-53309047D01*
X153014762Y-53213809D01*
X152919524Y-53166190D01*
X152824286Y-53166190D01*
X152729048Y-53213809D01*
X152681429Y-53309047D01*
X152681429Y-53547143D01*
X152633810Y-53642381D01*
X153014762Y-54070952D02*
X153062381Y-54166190D01*
X153062381Y-54356666D01*
X153014762Y-54451905D01*
X152919524Y-54499524D01*
X152871905Y-54499524D01*
X152776667Y-54451905D01*
X152729048Y-54356666D01*
X152729048Y-54213809D01*
X152681429Y-54118571D01*
X152586190Y-54070952D01*
X152538571Y-54070952D01*
X152443333Y-54118571D01*
X152395714Y-54213809D01*
X152395714Y-54356666D01*
X152443333Y-54451905D01*
X153062381Y-54928095D02*
X152062381Y-54928095D01*
X152062381Y-55309048D01*
X152110000Y-55404286D01*
X152157619Y-55451905D01*
X152252857Y-55499524D01*
X152395714Y-55499524D01*
X152490952Y-55451905D01*
X152538571Y-55404286D01*
X152586190Y-55309048D01*
X152586190Y-54928095D01*
X153062381Y-55928095D02*
X152062381Y-55928095D01*
X153157619Y-56166190D02*
X153157619Y-56928095D01*
X153062381Y-57166190D02*
X152062381Y-57166190D01*
X152062381Y-57832856D02*
X152062381Y-58023333D01*
X152110000Y-58118571D01*
X152205238Y-58213809D01*
X152395714Y-58261428D01*
X152729048Y-58261428D01*
X152919524Y-58213809D01*
X153014762Y-58118571D01*
X153062381Y-58023333D01*
X153062381Y-57832856D01*
X153014762Y-57737618D01*
X152919524Y-57642380D01*
X152729048Y-57594761D01*
X152395714Y-57594761D01*
X152205238Y-57642380D01*
X152110000Y-57737618D01*
X152062381Y-57832856D01*
X153157619Y-58451904D02*
X153157619Y-59213809D01*
X153062381Y-59451904D02*
X152062381Y-59451904D01*
X152538571Y-59451904D02*
X152538571Y-60023333D01*
X153062381Y-60023333D02*
X152062381Y-60023333D01*
X153014762Y-60880476D02*
X153062381Y-60785238D01*
X153062381Y-60594761D01*
X153014762Y-60499523D01*
X152919524Y-60451904D01*
X152538571Y-60451904D01*
X152443333Y-60499523D01*
X152395714Y-60594761D01*
X152395714Y-60785238D01*
X152443333Y-60880476D01*
X152538571Y-60928095D01*
X152633810Y-60928095D01*
X152729048Y-60451904D01*
X153062381Y-61785238D02*
X152538571Y-61785238D01*
X152443333Y-61737619D01*
X152395714Y-61642381D01*
X152395714Y-61451904D01*
X152443333Y-61356666D01*
X153014762Y-61785238D02*
X153062381Y-61690000D01*
X153062381Y-61451904D01*
X153014762Y-61356666D01*
X152919524Y-61309047D01*
X152824286Y-61309047D01*
X152729048Y-61356666D01*
X152681429Y-61451904D01*
X152681429Y-61690000D01*
X152633810Y-61785238D01*
X153062381Y-62690000D02*
X152062381Y-62690000D01*
X153014762Y-62690000D02*
X153062381Y-62594762D01*
X153062381Y-62404285D01*
X153014762Y-62309047D01*
X152967143Y-62261428D01*
X152871905Y-62213809D01*
X152586190Y-62213809D01*
X152490952Y-62261428D01*
X152443333Y-62309047D01*
X152395714Y-62404285D01*
X152395714Y-62594762D01*
X152443333Y-62690000D01*
X153014762Y-63547143D02*
X153062381Y-63451905D01*
X153062381Y-63261428D01*
X153014762Y-63166190D01*
X152919524Y-63118571D01*
X152538571Y-63118571D01*
X152443333Y-63166190D01*
X152395714Y-63261428D01*
X152395714Y-63451905D01*
X152443333Y-63547143D01*
X152538571Y-63594762D01*
X152633810Y-63594762D01*
X152729048Y-63118571D01*
X153062381Y-64023333D02*
X152395714Y-64023333D01*
X152586190Y-64023333D02*
X152490952Y-64070952D01*
X152443333Y-64118571D01*
X152395714Y-64213809D01*
X152395714Y-64309048D01*
X153157619Y-64404286D02*
X153157619Y-65166191D01*
X152538571Y-65737620D02*
X152586190Y-65880477D01*
X152633810Y-65928096D01*
X152729048Y-65975715D01*
X152871905Y-65975715D01*
X152967143Y-65928096D01*
X153014762Y-65880477D01*
X153062381Y-65785239D01*
X153062381Y-65404286D01*
X152062381Y-65404286D01*
X152062381Y-65737620D01*
X152110000Y-65832858D01*
X152157619Y-65880477D01*
X152252857Y-65928096D01*
X152348095Y-65928096D01*
X152443333Y-65880477D01*
X152490952Y-65832858D01*
X152538571Y-65737620D01*
X152538571Y-65404286D01*
X152681429Y-66404286D02*
X152681429Y-67166191D01*
X153062381Y-66785239D02*
X152300476Y-66785239D01*
X179403333Y-59142381D02*
X179403333Y-59856667D01*
X179450953Y-59999524D01*
X179546191Y-60094762D01*
X179689048Y-60142381D01*
X179784286Y-60142381D01*
X178974762Y-59237619D02*
X178927143Y-59190000D01*
X178831905Y-59142381D01*
X178593809Y-59142381D01*
X178498571Y-59190000D01*
X178450952Y-59237619D01*
X178403333Y-59332857D01*
X178403333Y-59428095D01*
X178450952Y-59570952D01*
X179022381Y-60142381D01*
X178403333Y-60142381D01*
M02*
