G04 #@! TF.FileFunction,Other,Fab,Top*
%FSLAX46Y46*%
G04 Gerber Fmt 4.6, Leading zero omitted, Abs format (unit mm)*
G04 Created by KiCad (PCBNEW 4.0.7) date 2017 October 09, Monday 22:10:02*
%MOMM*%
%LPD*%
G01*
G04 APERTURE LIST*
%ADD10C,0.100000*%
%ADD11C,0.300000*%
%ADD12C,0.150000*%
%ADD13C,0.105000*%
G04 APERTURE END LIST*
D10*
D11*
X222778571Y-72103570D02*
X222778571Y-72817856D01*
X223492857Y-72889285D01*
X223421429Y-72817856D01*
X223350000Y-72674999D01*
X223350000Y-72317856D01*
X223421429Y-72174999D01*
X223492857Y-72103570D01*
X223635714Y-72032142D01*
X223992857Y-72032142D01*
X224135714Y-72103570D01*
X224207143Y-72174999D01*
X224278571Y-72317856D01*
X224278571Y-72674999D01*
X224207143Y-72817856D01*
X224135714Y-72889285D01*
X222778571Y-71532142D02*
X222778571Y-70532142D01*
X224278571Y-71174999D01*
X224135714Y-69960714D02*
X224207143Y-69889286D01*
X224278571Y-69960714D01*
X224207143Y-70032143D01*
X224135714Y-69960714D01*
X224278571Y-69960714D01*
X224278571Y-68460714D02*
X224278571Y-69317857D01*
X224278571Y-68889285D02*
X222778571Y-68889285D01*
X222992857Y-69032142D01*
X223135714Y-69175000D01*
X223207143Y-69317857D01*
X222778571Y-67103571D02*
X222778571Y-67817857D01*
X223492857Y-67889286D01*
X223421429Y-67817857D01*
X223350000Y-67675000D01*
X223350000Y-67317857D01*
X223421429Y-67175000D01*
X223492857Y-67103571D01*
X223635714Y-67032143D01*
X223992857Y-67032143D01*
X224135714Y-67103571D01*
X224207143Y-67175000D01*
X224278571Y-67317857D01*
X224278571Y-67675000D01*
X224207143Y-67817857D01*
X224135714Y-67889286D01*
X222778571Y-66103572D02*
X222778571Y-65960715D01*
X222850000Y-65817858D01*
X222921429Y-65746429D01*
X223064286Y-65675000D01*
X223350000Y-65603572D01*
X223707143Y-65603572D01*
X223992857Y-65675000D01*
X224135714Y-65746429D01*
X224207143Y-65817858D01*
X224278571Y-65960715D01*
X224278571Y-66103572D01*
X224207143Y-66246429D01*
X224135714Y-66317858D01*
X223992857Y-66389286D01*
X223707143Y-66460715D01*
X223350000Y-66460715D01*
X223064286Y-66389286D01*
X222921429Y-66317858D01*
X222850000Y-66246429D01*
X222778571Y-66103572D01*
X224278571Y-63817858D02*
X223278571Y-63817858D01*
X223421429Y-63817858D02*
X223350000Y-63746430D01*
X223278571Y-63603572D01*
X223278571Y-63389287D01*
X223350000Y-63246430D01*
X223492857Y-63175001D01*
X224278571Y-63175001D01*
X223492857Y-63175001D02*
X223350000Y-63103572D01*
X223278571Y-62960715D01*
X223278571Y-62746430D01*
X223350000Y-62603572D01*
X223492857Y-62532144D01*
X224278571Y-62532144D01*
X224278571Y-61817858D02*
X223278571Y-61817858D01*
X223421429Y-61817858D02*
X223350000Y-61746430D01*
X223278571Y-61603572D01*
X223278571Y-61389287D01*
X223350000Y-61246430D01*
X223492857Y-61175001D01*
X224278571Y-61175001D01*
X223492857Y-61175001D02*
X223350000Y-61103572D01*
X223278571Y-60960715D01*
X223278571Y-60746430D01*
X223350000Y-60603572D01*
X223492857Y-60532144D01*
X224278571Y-60532144D01*
X222250000Y-95250000D02*
X222250000Y-38100000D01*
X219710000Y-95250000D02*
X224950000Y-95250000D01*
X219710000Y-38100000D02*
X224950000Y-38100000D01*
X222250000Y-38100000D02*
X222836421Y-39226504D01*
X222250000Y-38100000D02*
X221663579Y-39226504D01*
X222250000Y-95250000D02*
X222836421Y-94123496D01*
X222250000Y-95250000D02*
X221663579Y-94123496D01*
X176467287Y-95778571D02*
X177467287Y-95778571D01*
X176824430Y-97278571D01*
X178824429Y-97278571D02*
X177967286Y-97278571D01*
X178395858Y-97278571D02*
X178395858Y-95778571D01*
X178253001Y-95992857D01*
X178110143Y-96135714D01*
X177967286Y-96207143D01*
X179467286Y-97135714D02*
X179538714Y-97207143D01*
X179467286Y-97278571D01*
X179395857Y-97207143D01*
X179467286Y-97135714D01*
X179467286Y-97278571D01*
X180038715Y-95778571D02*
X180967286Y-95778571D01*
X180467286Y-96350000D01*
X180681572Y-96350000D01*
X180824429Y-96421429D01*
X180895858Y-96492857D01*
X180967286Y-96635714D01*
X180967286Y-96992857D01*
X180895858Y-97135714D01*
X180824429Y-97207143D01*
X180681572Y-97278571D01*
X180253000Y-97278571D01*
X180110143Y-97207143D01*
X180038715Y-97135714D01*
X181467286Y-95778571D02*
X182467286Y-95778571D01*
X181824429Y-97278571D01*
X183681571Y-96278571D02*
X183681571Y-97278571D01*
X183324428Y-95707143D02*
X182967285Y-96778571D01*
X183895857Y-96778571D01*
X185610142Y-97278571D02*
X185610142Y-96278571D01*
X185610142Y-96421429D02*
X185681570Y-96350000D01*
X185824428Y-96278571D01*
X186038713Y-96278571D01*
X186181570Y-96350000D01*
X186252999Y-96492857D01*
X186252999Y-97278571D01*
X186252999Y-96492857D02*
X186324428Y-96350000D01*
X186467285Y-96278571D01*
X186681570Y-96278571D01*
X186824428Y-96350000D01*
X186895856Y-96492857D01*
X186895856Y-97278571D01*
X187610142Y-97278571D02*
X187610142Y-96278571D01*
X187610142Y-96421429D02*
X187681570Y-96350000D01*
X187824428Y-96278571D01*
X188038713Y-96278571D01*
X188181570Y-96350000D01*
X188252999Y-96492857D01*
X188252999Y-97278571D01*
X188252999Y-96492857D02*
X188324428Y-96350000D01*
X188467285Y-96278571D01*
X188681570Y-96278571D01*
X188824428Y-96350000D01*
X188895856Y-96492857D01*
X188895856Y-97278571D01*
X147066000Y-95250000D02*
X218440000Y-95250000D01*
X147066000Y-92710000D02*
X147066000Y-97950000D01*
X218440000Y-92710000D02*
X218440000Y-97950000D01*
X218440000Y-95250000D02*
X217313496Y-95836421D01*
X218440000Y-95250000D02*
X217313496Y-94663579D01*
X147066000Y-95250000D02*
X148192504Y-95836421D01*
X147066000Y-95250000D02*
X148192504Y-94663579D01*
X140041429Y-77484285D02*
X139970000Y-77412856D01*
X139898571Y-77269999D01*
X139898571Y-76912856D01*
X139970000Y-76769999D01*
X140041429Y-76698570D01*
X140184286Y-76627142D01*
X140327143Y-76627142D01*
X140541429Y-76698570D01*
X141398571Y-77555713D01*
X141398571Y-76627142D01*
X139898571Y-76127142D02*
X139898571Y-75198571D01*
X140470000Y-75698571D01*
X140470000Y-75484285D01*
X140541429Y-75341428D01*
X140612857Y-75269999D01*
X140755714Y-75198571D01*
X141112857Y-75198571D01*
X141255714Y-75269999D01*
X141327143Y-75341428D01*
X141398571Y-75484285D01*
X141398571Y-75912857D01*
X141327143Y-76055714D01*
X141255714Y-76127142D01*
X141255714Y-74555714D02*
X141327143Y-74484286D01*
X141398571Y-74555714D01*
X141327143Y-74627143D01*
X141255714Y-74555714D01*
X141398571Y-74555714D01*
X139898571Y-73555714D02*
X139898571Y-73412857D01*
X139970000Y-73270000D01*
X140041429Y-73198571D01*
X140184286Y-73127142D01*
X140470000Y-73055714D01*
X140827143Y-73055714D01*
X141112857Y-73127142D01*
X141255714Y-73198571D01*
X141327143Y-73270000D01*
X141398571Y-73412857D01*
X141398571Y-73555714D01*
X141327143Y-73698571D01*
X141255714Y-73770000D01*
X141112857Y-73841428D01*
X140827143Y-73912857D01*
X140470000Y-73912857D01*
X140184286Y-73841428D01*
X140041429Y-73770000D01*
X139970000Y-73698571D01*
X139898571Y-73555714D01*
X139898571Y-72127143D02*
X139898571Y-71984286D01*
X139970000Y-71841429D01*
X140041429Y-71770000D01*
X140184286Y-71698571D01*
X140470000Y-71627143D01*
X140827143Y-71627143D01*
X141112857Y-71698571D01*
X141255714Y-71770000D01*
X141327143Y-71841429D01*
X141398571Y-71984286D01*
X141398571Y-72127143D01*
X141327143Y-72270000D01*
X141255714Y-72341429D01*
X141112857Y-72412857D01*
X140827143Y-72484286D01*
X140470000Y-72484286D01*
X140184286Y-72412857D01*
X140041429Y-72341429D01*
X139970000Y-72270000D01*
X139898571Y-72127143D01*
X139898571Y-70698572D02*
X139898571Y-70555715D01*
X139970000Y-70412858D01*
X140041429Y-70341429D01*
X140184286Y-70270000D01*
X140470000Y-70198572D01*
X140827143Y-70198572D01*
X141112857Y-70270000D01*
X141255714Y-70341429D01*
X141327143Y-70412858D01*
X141398571Y-70555715D01*
X141398571Y-70698572D01*
X141327143Y-70841429D01*
X141255714Y-70912858D01*
X141112857Y-70984286D01*
X140827143Y-71055715D01*
X140470000Y-71055715D01*
X140184286Y-70984286D01*
X140041429Y-70912858D01*
X139970000Y-70841429D01*
X139898571Y-70698572D01*
X141398571Y-68412858D02*
X140398571Y-68412858D01*
X140541429Y-68412858D02*
X140470000Y-68341430D01*
X140398571Y-68198572D01*
X140398571Y-67984287D01*
X140470000Y-67841430D01*
X140612857Y-67770001D01*
X141398571Y-67770001D01*
X140612857Y-67770001D02*
X140470000Y-67698572D01*
X140398571Y-67555715D01*
X140398571Y-67341430D01*
X140470000Y-67198572D01*
X140612857Y-67127144D01*
X141398571Y-67127144D01*
X141398571Y-66412858D02*
X140398571Y-66412858D01*
X140541429Y-66412858D02*
X140470000Y-66341430D01*
X140398571Y-66198572D01*
X140398571Y-65984287D01*
X140470000Y-65841430D01*
X140612857Y-65770001D01*
X141398571Y-65770001D01*
X140612857Y-65770001D02*
X140470000Y-65698572D01*
X140398571Y-65555715D01*
X140398571Y-65341430D01*
X140470000Y-65198572D01*
X140612857Y-65127144D01*
X141398571Y-65127144D01*
X142070000Y-82770000D02*
X142070000Y-59770000D01*
X148070000Y-82770000D02*
X139370000Y-82770000D01*
X148070000Y-59770000D02*
X139370000Y-59770000D01*
X142070000Y-59770000D02*
X142656421Y-60896504D01*
X142070000Y-59770000D02*
X141483579Y-60896504D01*
X142070000Y-82770000D02*
X142656421Y-81643496D01*
X142070000Y-82770000D02*
X141483579Y-81643496D01*
X213098571Y-65055715D02*
X213170000Y-65127144D01*
X213241429Y-65270001D01*
X213241429Y-65627144D01*
X213170000Y-65770001D01*
X213098571Y-65841430D01*
X212955714Y-65912858D01*
X212812857Y-65912858D01*
X212598571Y-65841430D01*
X211741429Y-64984287D01*
X211741429Y-65912858D01*
X213241429Y-66412858D02*
X213241429Y-67341429D01*
X212670000Y-66841429D01*
X212670000Y-67055715D01*
X212598571Y-67198572D01*
X212527143Y-67270001D01*
X212384286Y-67341429D01*
X212027143Y-67341429D01*
X211884286Y-67270001D01*
X211812857Y-67198572D01*
X211741429Y-67055715D01*
X211741429Y-66627143D01*
X211812857Y-66484286D01*
X211884286Y-66412858D01*
X211884286Y-67984286D02*
X211812857Y-68055714D01*
X211741429Y-67984286D01*
X211812857Y-67912857D01*
X211884286Y-67984286D01*
X211741429Y-67984286D01*
X213241429Y-68984286D02*
X213241429Y-69127143D01*
X213170000Y-69270000D01*
X213098571Y-69341429D01*
X212955714Y-69412858D01*
X212670000Y-69484286D01*
X212312857Y-69484286D01*
X212027143Y-69412858D01*
X211884286Y-69341429D01*
X211812857Y-69270000D01*
X211741429Y-69127143D01*
X211741429Y-68984286D01*
X211812857Y-68841429D01*
X211884286Y-68770000D01*
X212027143Y-68698572D01*
X212312857Y-68627143D01*
X212670000Y-68627143D01*
X212955714Y-68698572D01*
X213098571Y-68770000D01*
X213170000Y-68841429D01*
X213241429Y-68984286D01*
X213241429Y-70412857D02*
X213241429Y-70555714D01*
X213170000Y-70698571D01*
X213098571Y-70770000D01*
X212955714Y-70841429D01*
X212670000Y-70912857D01*
X212312857Y-70912857D01*
X212027143Y-70841429D01*
X211884286Y-70770000D01*
X211812857Y-70698571D01*
X211741429Y-70555714D01*
X211741429Y-70412857D01*
X211812857Y-70270000D01*
X211884286Y-70198571D01*
X212027143Y-70127143D01*
X212312857Y-70055714D01*
X212670000Y-70055714D01*
X212955714Y-70127143D01*
X213098571Y-70198571D01*
X213170000Y-70270000D01*
X213241429Y-70412857D01*
X213241429Y-71841428D02*
X213241429Y-71984285D01*
X213170000Y-72127142D01*
X213098571Y-72198571D01*
X212955714Y-72270000D01*
X212670000Y-72341428D01*
X212312857Y-72341428D01*
X212027143Y-72270000D01*
X211884286Y-72198571D01*
X211812857Y-72127142D01*
X211741429Y-71984285D01*
X211741429Y-71841428D01*
X211812857Y-71698571D01*
X211884286Y-71627142D01*
X212027143Y-71555714D01*
X212312857Y-71484285D01*
X212670000Y-71484285D01*
X212955714Y-71555714D01*
X213098571Y-71627142D01*
X213170000Y-71698571D01*
X213241429Y-71841428D01*
X211741429Y-74127142D02*
X212741429Y-74127142D01*
X212598571Y-74127142D02*
X212670000Y-74198570D01*
X212741429Y-74341428D01*
X212741429Y-74555713D01*
X212670000Y-74698570D01*
X212527143Y-74769999D01*
X211741429Y-74769999D01*
X212527143Y-74769999D02*
X212670000Y-74841428D01*
X212741429Y-74984285D01*
X212741429Y-75198570D01*
X212670000Y-75341428D01*
X212527143Y-75412856D01*
X211741429Y-75412856D01*
X211741429Y-76127142D02*
X212741429Y-76127142D01*
X212598571Y-76127142D02*
X212670000Y-76198570D01*
X212741429Y-76341428D01*
X212741429Y-76555713D01*
X212670000Y-76698570D01*
X212527143Y-76769999D01*
X211741429Y-76769999D01*
X212527143Y-76769999D02*
X212670000Y-76841428D01*
X212741429Y-76984285D01*
X212741429Y-77198570D01*
X212670000Y-77341428D01*
X212527143Y-77412856D01*
X211741429Y-77412856D01*
X211070000Y-59770000D02*
X211070000Y-82770000D01*
X209070000Y-59770000D02*
X213770000Y-59770000D01*
X209070000Y-82770000D02*
X213770000Y-82770000D01*
X211070000Y-82770000D02*
X210483579Y-81643496D01*
X211070000Y-82770000D02*
X211656421Y-81643496D01*
X211070000Y-59770000D02*
X210483579Y-60896504D01*
X211070000Y-59770000D02*
X211656421Y-60896504D01*
X187355715Y-69441429D02*
X187427144Y-69370000D01*
X187570001Y-69298571D01*
X187927144Y-69298571D01*
X188070001Y-69370000D01*
X188141430Y-69441429D01*
X188212858Y-69584286D01*
X188212858Y-69727143D01*
X188141430Y-69941429D01*
X187284287Y-70798571D01*
X188212858Y-70798571D01*
X188927143Y-70798571D02*
X189212858Y-70798571D01*
X189355715Y-70727143D01*
X189427143Y-70655714D01*
X189570001Y-70441429D01*
X189641429Y-70155714D01*
X189641429Y-69584286D01*
X189570001Y-69441429D01*
X189498572Y-69370000D01*
X189355715Y-69298571D01*
X189070001Y-69298571D01*
X188927143Y-69370000D01*
X188855715Y-69441429D01*
X188784286Y-69584286D01*
X188784286Y-69941429D01*
X188855715Y-70084286D01*
X188927143Y-70155714D01*
X189070001Y-70227143D01*
X189355715Y-70227143D01*
X189498572Y-70155714D01*
X189570001Y-70084286D01*
X189641429Y-69941429D01*
X190284286Y-70655714D02*
X190355714Y-70727143D01*
X190284286Y-70798571D01*
X190212857Y-70727143D01*
X190284286Y-70655714D01*
X190284286Y-70798571D01*
X191284286Y-69298571D02*
X191427143Y-69298571D01*
X191570000Y-69370000D01*
X191641429Y-69441429D01*
X191712858Y-69584286D01*
X191784286Y-69870000D01*
X191784286Y-70227143D01*
X191712858Y-70512857D01*
X191641429Y-70655714D01*
X191570000Y-70727143D01*
X191427143Y-70798571D01*
X191284286Y-70798571D01*
X191141429Y-70727143D01*
X191070000Y-70655714D01*
X190998572Y-70512857D01*
X190927143Y-70227143D01*
X190927143Y-69870000D01*
X190998572Y-69584286D01*
X191070000Y-69441429D01*
X191141429Y-69370000D01*
X191284286Y-69298571D01*
X192712857Y-69298571D02*
X192855714Y-69298571D01*
X192998571Y-69370000D01*
X193070000Y-69441429D01*
X193141429Y-69584286D01*
X193212857Y-69870000D01*
X193212857Y-70227143D01*
X193141429Y-70512857D01*
X193070000Y-70655714D01*
X192998571Y-70727143D01*
X192855714Y-70798571D01*
X192712857Y-70798571D01*
X192570000Y-70727143D01*
X192498571Y-70655714D01*
X192427143Y-70512857D01*
X192355714Y-70227143D01*
X192355714Y-69870000D01*
X192427143Y-69584286D01*
X192498571Y-69441429D01*
X192570000Y-69370000D01*
X192712857Y-69298571D01*
X194141428Y-69298571D02*
X194284285Y-69298571D01*
X194427142Y-69370000D01*
X194498571Y-69441429D01*
X194570000Y-69584286D01*
X194641428Y-69870000D01*
X194641428Y-70227143D01*
X194570000Y-70512857D01*
X194498571Y-70655714D01*
X194427142Y-70727143D01*
X194284285Y-70798571D01*
X194141428Y-70798571D01*
X193998571Y-70727143D01*
X193927142Y-70655714D01*
X193855714Y-70512857D01*
X193784285Y-70227143D01*
X193784285Y-69870000D01*
X193855714Y-69584286D01*
X193927142Y-69441429D01*
X193998571Y-69370000D01*
X194141428Y-69298571D01*
X196427142Y-70798571D02*
X196427142Y-69798571D01*
X196427142Y-69941429D02*
X196498570Y-69870000D01*
X196641428Y-69798571D01*
X196855713Y-69798571D01*
X196998570Y-69870000D01*
X197069999Y-70012857D01*
X197069999Y-70798571D01*
X197069999Y-70012857D02*
X197141428Y-69870000D01*
X197284285Y-69798571D01*
X197498570Y-69798571D01*
X197641428Y-69870000D01*
X197712856Y-70012857D01*
X197712856Y-70798571D01*
X198427142Y-70798571D02*
X198427142Y-69798571D01*
X198427142Y-69941429D02*
X198498570Y-69870000D01*
X198641428Y-69798571D01*
X198855713Y-69798571D01*
X198998570Y-69870000D01*
X199069999Y-70012857D01*
X199069999Y-70798571D01*
X199069999Y-70012857D02*
X199141428Y-69870000D01*
X199284285Y-69798571D01*
X199498570Y-69798571D01*
X199641428Y-69870000D01*
X199712856Y-70012857D01*
X199712856Y-70798571D01*
X179070000Y-68770000D02*
X208070000Y-68770000D01*
X179070000Y-65770000D02*
X179070000Y-71470000D01*
X208070000Y-65770000D02*
X208070000Y-71470000D01*
X208070000Y-68770000D02*
X206943496Y-69356421D01*
X208070000Y-68770000D02*
X206943496Y-68183579D01*
X179070000Y-68770000D02*
X180196504Y-69356421D01*
X179070000Y-68770000D02*
X180196504Y-68183579D01*
X144041429Y-59484285D02*
X143970000Y-59412856D01*
X143898571Y-59269999D01*
X143898571Y-58912856D01*
X143970000Y-58769999D01*
X144041429Y-58698570D01*
X144184286Y-58627142D01*
X144327143Y-58627142D01*
X144541429Y-58698570D01*
X145398571Y-59555713D01*
X145398571Y-58627142D01*
X143898571Y-58127142D02*
X143898571Y-57198571D01*
X144470000Y-57698571D01*
X144470000Y-57484285D01*
X144541429Y-57341428D01*
X144612857Y-57269999D01*
X144755714Y-57198571D01*
X145112857Y-57198571D01*
X145255714Y-57269999D01*
X145327143Y-57341428D01*
X145398571Y-57484285D01*
X145398571Y-57912857D01*
X145327143Y-58055714D01*
X145255714Y-58127142D01*
X145255714Y-56555714D02*
X145327143Y-56484286D01*
X145398571Y-56555714D01*
X145327143Y-56627143D01*
X145255714Y-56555714D01*
X145398571Y-56555714D01*
X143898571Y-55555714D02*
X143898571Y-55412857D01*
X143970000Y-55270000D01*
X144041429Y-55198571D01*
X144184286Y-55127142D01*
X144470000Y-55055714D01*
X144827143Y-55055714D01*
X145112857Y-55127142D01*
X145255714Y-55198571D01*
X145327143Y-55270000D01*
X145398571Y-55412857D01*
X145398571Y-55555714D01*
X145327143Y-55698571D01*
X145255714Y-55770000D01*
X145112857Y-55841428D01*
X144827143Y-55912857D01*
X144470000Y-55912857D01*
X144184286Y-55841428D01*
X144041429Y-55770000D01*
X143970000Y-55698571D01*
X143898571Y-55555714D01*
X143898571Y-54127143D02*
X143898571Y-53984286D01*
X143970000Y-53841429D01*
X144041429Y-53770000D01*
X144184286Y-53698571D01*
X144470000Y-53627143D01*
X144827143Y-53627143D01*
X145112857Y-53698571D01*
X145255714Y-53770000D01*
X145327143Y-53841429D01*
X145398571Y-53984286D01*
X145398571Y-54127143D01*
X145327143Y-54270000D01*
X145255714Y-54341429D01*
X145112857Y-54412857D01*
X144827143Y-54484286D01*
X144470000Y-54484286D01*
X144184286Y-54412857D01*
X144041429Y-54341429D01*
X143970000Y-54270000D01*
X143898571Y-54127143D01*
X143898571Y-52698572D02*
X143898571Y-52555715D01*
X143970000Y-52412858D01*
X144041429Y-52341429D01*
X144184286Y-52270000D01*
X144470000Y-52198572D01*
X144827143Y-52198572D01*
X145112857Y-52270000D01*
X145255714Y-52341429D01*
X145327143Y-52412858D01*
X145398571Y-52555715D01*
X145398571Y-52698572D01*
X145327143Y-52841429D01*
X145255714Y-52912858D01*
X145112857Y-52984286D01*
X144827143Y-53055715D01*
X144470000Y-53055715D01*
X144184286Y-52984286D01*
X144041429Y-52912858D01*
X143970000Y-52841429D01*
X143898571Y-52698572D01*
X145398571Y-50412858D02*
X144398571Y-50412858D01*
X144541429Y-50412858D02*
X144470000Y-50341430D01*
X144398571Y-50198572D01*
X144398571Y-49984287D01*
X144470000Y-49841430D01*
X144612857Y-49770001D01*
X145398571Y-49770001D01*
X144612857Y-49770001D02*
X144470000Y-49698572D01*
X144398571Y-49555715D01*
X144398571Y-49341430D01*
X144470000Y-49198572D01*
X144612857Y-49127144D01*
X145398571Y-49127144D01*
X145398571Y-48412858D02*
X144398571Y-48412858D01*
X144541429Y-48412858D02*
X144470000Y-48341430D01*
X144398571Y-48198572D01*
X144398571Y-47984287D01*
X144470000Y-47841430D01*
X144612857Y-47770001D01*
X145398571Y-47770001D01*
X144612857Y-47770001D02*
X144470000Y-47698572D01*
X144398571Y-47555715D01*
X144398571Y-47341430D01*
X144470000Y-47198572D01*
X144612857Y-47127144D01*
X145398571Y-47127144D01*
X146070000Y-64770000D02*
X146070000Y-41770000D01*
X149070000Y-64770000D02*
X143370000Y-64770000D01*
X149070000Y-41770000D02*
X143370000Y-41770000D01*
X146070000Y-41770000D02*
X146656421Y-42896504D01*
X146070000Y-41770000D02*
X145483579Y-42896504D01*
X146070000Y-64770000D02*
X146656421Y-63643496D01*
X146070000Y-64770000D02*
X145483579Y-63643496D01*
X158355715Y-69441429D02*
X158427144Y-69370000D01*
X158570001Y-69298571D01*
X158927144Y-69298571D01*
X159070001Y-69370000D01*
X159141430Y-69441429D01*
X159212858Y-69584286D01*
X159212858Y-69727143D01*
X159141430Y-69941429D01*
X158284287Y-70798571D01*
X159212858Y-70798571D01*
X159927143Y-70798571D02*
X160212858Y-70798571D01*
X160355715Y-70727143D01*
X160427143Y-70655714D01*
X160570001Y-70441429D01*
X160641429Y-70155714D01*
X160641429Y-69584286D01*
X160570001Y-69441429D01*
X160498572Y-69370000D01*
X160355715Y-69298571D01*
X160070001Y-69298571D01*
X159927143Y-69370000D01*
X159855715Y-69441429D01*
X159784286Y-69584286D01*
X159784286Y-69941429D01*
X159855715Y-70084286D01*
X159927143Y-70155714D01*
X160070001Y-70227143D01*
X160355715Y-70227143D01*
X160498572Y-70155714D01*
X160570001Y-70084286D01*
X160641429Y-69941429D01*
X161284286Y-70655714D02*
X161355714Y-70727143D01*
X161284286Y-70798571D01*
X161212857Y-70727143D01*
X161284286Y-70655714D01*
X161284286Y-70798571D01*
X162284286Y-69298571D02*
X162427143Y-69298571D01*
X162570000Y-69370000D01*
X162641429Y-69441429D01*
X162712858Y-69584286D01*
X162784286Y-69870000D01*
X162784286Y-70227143D01*
X162712858Y-70512857D01*
X162641429Y-70655714D01*
X162570000Y-70727143D01*
X162427143Y-70798571D01*
X162284286Y-70798571D01*
X162141429Y-70727143D01*
X162070000Y-70655714D01*
X161998572Y-70512857D01*
X161927143Y-70227143D01*
X161927143Y-69870000D01*
X161998572Y-69584286D01*
X162070000Y-69441429D01*
X162141429Y-69370000D01*
X162284286Y-69298571D01*
X163712857Y-69298571D02*
X163855714Y-69298571D01*
X163998571Y-69370000D01*
X164070000Y-69441429D01*
X164141429Y-69584286D01*
X164212857Y-69870000D01*
X164212857Y-70227143D01*
X164141429Y-70512857D01*
X164070000Y-70655714D01*
X163998571Y-70727143D01*
X163855714Y-70798571D01*
X163712857Y-70798571D01*
X163570000Y-70727143D01*
X163498571Y-70655714D01*
X163427143Y-70512857D01*
X163355714Y-70227143D01*
X163355714Y-69870000D01*
X163427143Y-69584286D01*
X163498571Y-69441429D01*
X163570000Y-69370000D01*
X163712857Y-69298571D01*
X165141428Y-69298571D02*
X165284285Y-69298571D01*
X165427142Y-69370000D01*
X165498571Y-69441429D01*
X165570000Y-69584286D01*
X165641428Y-69870000D01*
X165641428Y-70227143D01*
X165570000Y-70512857D01*
X165498571Y-70655714D01*
X165427142Y-70727143D01*
X165284285Y-70798571D01*
X165141428Y-70798571D01*
X164998571Y-70727143D01*
X164927142Y-70655714D01*
X164855714Y-70512857D01*
X164784285Y-70227143D01*
X164784285Y-69870000D01*
X164855714Y-69584286D01*
X164927142Y-69441429D01*
X164998571Y-69370000D01*
X165141428Y-69298571D01*
X167427142Y-70798571D02*
X167427142Y-69798571D01*
X167427142Y-69941429D02*
X167498570Y-69870000D01*
X167641428Y-69798571D01*
X167855713Y-69798571D01*
X167998570Y-69870000D01*
X168069999Y-70012857D01*
X168069999Y-70798571D01*
X168069999Y-70012857D02*
X168141428Y-69870000D01*
X168284285Y-69798571D01*
X168498570Y-69798571D01*
X168641428Y-69870000D01*
X168712856Y-70012857D01*
X168712856Y-70798571D01*
X169427142Y-70798571D02*
X169427142Y-69798571D01*
X169427142Y-69941429D02*
X169498570Y-69870000D01*
X169641428Y-69798571D01*
X169855713Y-69798571D01*
X169998570Y-69870000D01*
X170069999Y-70012857D01*
X170069999Y-70798571D01*
X170069999Y-70012857D02*
X170141428Y-69870000D01*
X170284285Y-69798571D01*
X170498570Y-69798571D01*
X170641428Y-69870000D01*
X170712856Y-70012857D01*
X170712856Y-70798571D01*
X179070000Y-68770000D02*
X150070000Y-68770000D01*
X179070000Y-65770000D02*
X179070000Y-71470000D01*
X150070000Y-65770000D02*
X150070000Y-71470000D01*
X150070000Y-68770000D02*
X151196504Y-68183579D01*
X150070000Y-68770000D02*
X151196504Y-69356421D01*
X179070000Y-68770000D02*
X177943496Y-68183579D01*
X179070000Y-68770000D02*
X177943496Y-69356421D01*
D10*
X168045000Y-86360000D02*
X166140000Y-86360000D01*
X166140000Y-86360000D02*
X166140000Y-78740000D01*
X166140000Y-78740000D02*
X168680000Y-78740000D01*
X168680000Y-78740000D02*
X168680000Y-85725000D01*
X168680000Y-85725000D02*
X168045000Y-86360000D01*
X170500000Y-85410000D02*
X168680000Y-85410000D01*
X170500000Y-85410000D02*
X170500000Y-84770000D01*
X170500000Y-84770000D02*
X168680000Y-84770000D01*
X166140000Y-85410000D02*
X160140000Y-85410000D01*
X160140000Y-85410000D02*
X160140000Y-84770000D01*
X166140000Y-84770000D02*
X160140000Y-84770000D01*
X170500000Y-82870000D02*
X168680000Y-82870000D01*
X170500000Y-82870000D02*
X170500000Y-82230000D01*
X170500000Y-82230000D02*
X168680000Y-82230000D01*
X166140000Y-82870000D02*
X160140000Y-82870000D01*
X160140000Y-82870000D02*
X160140000Y-82230000D01*
X166140000Y-82230000D02*
X160140000Y-82230000D01*
X170500000Y-80330000D02*
X168680000Y-80330000D01*
X170500000Y-80330000D02*
X170500000Y-79690000D01*
X170500000Y-79690000D02*
X168680000Y-79690000D01*
X166140000Y-80330000D02*
X160140000Y-80330000D01*
X160140000Y-80330000D02*
X160140000Y-79690000D01*
X166140000Y-79690000D02*
X160140000Y-79690000D01*
X150740000Y-44776000D02*
X150740000Y-53776000D01*
X147240000Y-44776000D02*
X147240000Y-53776000D01*
X147240000Y-53776000D02*
X161740000Y-53776000D01*
X161740000Y-53776000D02*
X161740000Y-44776000D01*
X161740000Y-44776000D02*
X147240000Y-44776000D01*
X210224066Y-59770000D02*
G75*
G03X210224066Y-59770000I-2154066J0D01*
G01*
X171430000Y-53340000D02*
G75*
G03X171430000Y-53340000I-2500000J0D01*
G01*
X165480000Y-53340000D02*
X166680000Y-53340000D01*
X166080000Y-52690000D02*
X166080000Y-53990000D01*
X200046000Y-42604000D02*
X205146000Y-42604000D01*
X205146000Y-42604000D02*
X205146000Y-52804000D01*
X205146000Y-52804000D02*
X200046000Y-52804000D01*
X200046000Y-52804000D02*
X200046000Y-42604000D01*
X207010000Y-53975000D02*
X207010000Y-52070000D01*
X207010000Y-52070000D02*
X214630000Y-52070000D01*
X214630000Y-52070000D02*
X214630000Y-54610000D01*
X214630000Y-54610000D02*
X207645000Y-54610000D01*
X207645000Y-54610000D02*
X207010000Y-53975000D01*
X200025000Y-85090000D02*
X198120000Y-85090000D01*
X198120000Y-85090000D02*
X198120000Y-69850000D01*
X198120000Y-69850000D02*
X200660000Y-69850000D01*
X200660000Y-69850000D02*
X200660000Y-84455000D01*
X200660000Y-84455000D02*
X200025000Y-85090000D01*
X204470000Y-63500000D02*
X204470000Y-67310000D01*
X204470000Y-67310000D02*
X153670000Y-67310000D01*
X153670000Y-67310000D02*
X153670000Y-62230000D01*
X153670000Y-62230000D02*
X203200000Y-62230000D01*
X203200000Y-62230000D02*
X204470000Y-63500000D01*
X193442000Y-42604000D02*
X198542000Y-42604000D01*
X198542000Y-42604000D02*
X198542000Y-52804000D01*
X198542000Y-52804000D02*
X193442000Y-52804000D01*
X193442000Y-52804000D02*
X193442000Y-42604000D01*
X168045000Y-76200000D02*
X166140000Y-76200000D01*
X166140000Y-76200000D02*
X166140000Y-68580000D01*
X166140000Y-68580000D02*
X168680000Y-68580000D01*
X168680000Y-68580000D02*
X168680000Y-75565000D01*
X168680000Y-75565000D02*
X168045000Y-76200000D01*
X170500000Y-75250000D02*
X168680000Y-75250000D01*
X170500000Y-75250000D02*
X170500000Y-74610000D01*
X170500000Y-74610000D02*
X168680000Y-74610000D01*
X166140000Y-75250000D02*
X160140000Y-75250000D01*
X160140000Y-75250000D02*
X160140000Y-74610000D01*
X166140000Y-74610000D02*
X160140000Y-74610000D01*
X170500000Y-72710000D02*
X168680000Y-72710000D01*
X170500000Y-72710000D02*
X170500000Y-72070000D01*
X170500000Y-72070000D02*
X168680000Y-72070000D01*
X166140000Y-72710000D02*
X160140000Y-72710000D01*
X160140000Y-72710000D02*
X160140000Y-72070000D01*
X166140000Y-72070000D02*
X160140000Y-72070000D01*
X170500000Y-70170000D02*
X168680000Y-70170000D01*
X170500000Y-70170000D02*
X170500000Y-69530000D01*
X170500000Y-69530000D02*
X168680000Y-69530000D01*
X166140000Y-70170000D02*
X160140000Y-70170000D01*
X160140000Y-70170000D02*
X160140000Y-69530000D01*
X166140000Y-69530000D02*
X160140000Y-69530000D01*
X188365000Y-76200000D02*
X186460000Y-76200000D01*
X186460000Y-76200000D02*
X186460000Y-68580000D01*
X186460000Y-68580000D02*
X189000000Y-68580000D01*
X189000000Y-68580000D02*
X189000000Y-75565000D01*
X189000000Y-75565000D02*
X188365000Y-76200000D01*
X190820000Y-75250000D02*
X189000000Y-75250000D01*
X190820000Y-75250000D02*
X190820000Y-74610000D01*
X190820000Y-74610000D02*
X189000000Y-74610000D01*
X186460000Y-75250000D02*
X180460000Y-75250000D01*
X180460000Y-75250000D02*
X180460000Y-74610000D01*
X186460000Y-74610000D02*
X180460000Y-74610000D01*
X190820000Y-72710000D02*
X189000000Y-72710000D01*
X190820000Y-72710000D02*
X190820000Y-72070000D01*
X190820000Y-72070000D02*
X189000000Y-72070000D01*
X186460000Y-72710000D02*
X180460000Y-72710000D01*
X180460000Y-72710000D02*
X180460000Y-72070000D01*
X186460000Y-72070000D02*
X180460000Y-72070000D01*
X190820000Y-70170000D02*
X189000000Y-70170000D01*
X190820000Y-70170000D02*
X190820000Y-69530000D01*
X190820000Y-69530000D02*
X189000000Y-69530000D01*
X186460000Y-70170000D02*
X180460000Y-70170000D01*
X180460000Y-70170000D02*
X180460000Y-69530000D01*
X186460000Y-69530000D02*
X180460000Y-69530000D01*
X188365000Y-86360000D02*
X186460000Y-86360000D01*
X186460000Y-86360000D02*
X186460000Y-78740000D01*
X186460000Y-78740000D02*
X189000000Y-78740000D01*
X189000000Y-78740000D02*
X189000000Y-85725000D01*
X189000000Y-85725000D02*
X188365000Y-86360000D01*
X190820000Y-85410000D02*
X189000000Y-85410000D01*
X190820000Y-85410000D02*
X190820000Y-84770000D01*
X190820000Y-84770000D02*
X189000000Y-84770000D01*
X186460000Y-85410000D02*
X180460000Y-85410000D01*
X180460000Y-85410000D02*
X180460000Y-84770000D01*
X186460000Y-84770000D02*
X180460000Y-84770000D01*
X190820000Y-82870000D02*
X189000000Y-82870000D01*
X190820000Y-82870000D02*
X190820000Y-82230000D01*
X190820000Y-82230000D02*
X189000000Y-82230000D01*
X186460000Y-82870000D02*
X180460000Y-82870000D01*
X180460000Y-82870000D02*
X180460000Y-82230000D01*
X186460000Y-82230000D02*
X180460000Y-82230000D01*
X190820000Y-80330000D02*
X189000000Y-80330000D01*
X190820000Y-80330000D02*
X190820000Y-79690000D01*
X190820000Y-79690000D02*
X189000000Y-79690000D01*
X186460000Y-80330000D02*
X180460000Y-80330000D01*
X180460000Y-80330000D02*
X180460000Y-79690000D01*
X186460000Y-79690000D02*
X180460000Y-79690000D01*
X207010000Y-48133000D02*
X207010000Y-46228000D01*
X207010000Y-46228000D02*
X214630000Y-46228000D01*
X214630000Y-46228000D02*
X214630000Y-48768000D01*
X214630000Y-48768000D02*
X207645000Y-48768000D01*
X207645000Y-48768000D02*
X207010000Y-48133000D01*
X161442000Y-41790000D02*
X154992000Y-41790000D01*
X154992000Y-41790000D02*
X154992000Y-39490000D01*
X154992000Y-39490000D02*
X161442000Y-39490000D01*
X161442000Y-39490000D02*
X161442000Y-41790000D01*
X179756000Y-54826000D02*
X179756000Y-56426000D01*
X179756000Y-56426000D02*
X182956000Y-56426000D01*
X182956000Y-56426000D02*
X182956000Y-54826000D01*
X182956000Y-54826000D02*
X179756000Y-54826000D01*
X180076000Y-54826000D02*
X180076000Y-56426000D01*
X180236000Y-54826000D02*
X180236000Y-56426000D01*
X186288000Y-43768000D02*
X192688000Y-43768000D01*
X192688000Y-43768000D02*
X192688000Y-53768000D01*
X192688000Y-53768000D02*
X186288000Y-53768000D01*
X186288000Y-53768000D02*
X186288000Y-43768000D01*
X177038000Y-43768000D02*
X186288000Y-43768000D01*
X186288000Y-43768000D02*
X186288000Y-53768000D01*
X186288000Y-53768000D02*
X177038000Y-53768000D01*
X177038000Y-53768000D02*
X177038000Y-43768000D01*
X177038000Y-44958000D02*
X173228000Y-44958000D01*
X177038000Y-47498000D02*
X173228000Y-47498000D01*
X177038000Y-50038000D02*
X173228000Y-50038000D01*
X177038000Y-52578000D02*
X173228000Y-52578000D01*
X191738000Y-48768000D02*
G75*
G03X191738000Y-48768000I-1850000J0D01*
G01*
X152224066Y-64770000D02*
G75*
G03X152224066Y-64770000I-2154066J0D01*
G01*
X152224066Y-82770000D02*
G75*
G03X152224066Y-82770000I-2154066J0D01*
G01*
X152224066Y-59770000D02*
G75*
G03X152224066Y-59770000I-2154066J0D01*
G01*
X152224066Y-41770000D02*
G75*
G03X152224066Y-41770000I-2154066J0D01*
G01*
X210224066Y-64770000D02*
G75*
G03X210224066Y-64770000I-2154066J0D01*
G01*
X210224066Y-82770000D02*
G75*
G03X210224066Y-82770000I-2154066J0D01*
G01*
D12*
X163152142Y-78144762D02*
X163247380Y-78192381D01*
X163437856Y-78192381D01*
X163533095Y-78144762D01*
X163580714Y-78049524D01*
X163580714Y-78001905D01*
X163533095Y-77906667D01*
X163437856Y-77859048D01*
X163294999Y-77859048D01*
X163199761Y-77811429D01*
X163152142Y-77716190D01*
X163152142Y-77668571D01*
X163199761Y-77573333D01*
X163294999Y-77525714D01*
X163437856Y-77525714D01*
X163533095Y-77573333D01*
X164390238Y-78144762D02*
X164295000Y-78192381D01*
X164104523Y-78192381D01*
X164009285Y-78144762D01*
X163961666Y-78049524D01*
X163961666Y-77668571D01*
X164009285Y-77573333D01*
X164104523Y-77525714D01*
X164295000Y-77525714D01*
X164390238Y-77573333D01*
X164437857Y-77668571D01*
X164437857Y-77763810D01*
X163961666Y-77859048D01*
X164866428Y-78192381D02*
X164866428Y-77525714D01*
X164866428Y-77716190D02*
X164914047Y-77620952D01*
X164961666Y-77573333D01*
X165056904Y-77525714D01*
X165152143Y-77525714D01*
X165390238Y-77525714D02*
X165628333Y-78192381D01*
X165866429Y-77525714D01*
X166390238Y-78192381D02*
X166295000Y-78144762D01*
X166247381Y-78097143D01*
X166199762Y-78001905D01*
X166199762Y-77716190D01*
X166247381Y-77620952D01*
X166295000Y-77573333D01*
X166390238Y-77525714D01*
X166533096Y-77525714D01*
X166628334Y-77573333D01*
X166675953Y-77620952D01*
X166723572Y-77716190D01*
X166723572Y-78001905D01*
X166675953Y-78097143D01*
X166628334Y-78144762D01*
X166533096Y-78192381D01*
X166390238Y-78192381D01*
X168437858Y-78192381D02*
X167866429Y-78192381D01*
X168152143Y-78192381D02*
X168152143Y-77192381D01*
X168056905Y-77335238D01*
X167961667Y-77430476D01*
X167866429Y-77478095D01*
X166862381Y-86359523D02*
X167576667Y-86359523D01*
X167719524Y-86407143D01*
X167814762Y-86502381D01*
X167862381Y-86645238D01*
X167862381Y-86740476D01*
X167862381Y-85835714D02*
X167862381Y-85645238D01*
X167814762Y-85549999D01*
X167767143Y-85502380D01*
X167624286Y-85407142D01*
X167433810Y-85359523D01*
X167052857Y-85359523D01*
X166957619Y-85407142D01*
X166910000Y-85454761D01*
X166862381Y-85549999D01*
X166862381Y-85740476D01*
X166910000Y-85835714D01*
X166957619Y-85883333D01*
X167052857Y-85930952D01*
X167290952Y-85930952D01*
X167386190Y-85883333D01*
X167433810Y-85835714D01*
X167481429Y-85740476D01*
X167481429Y-85549999D01*
X167433810Y-85454761D01*
X167386190Y-85407142D01*
X167290952Y-85359523D01*
X166910000Y-83645237D02*
X166862381Y-83740475D01*
X166862381Y-83883332D01*
X166910000Y-84026190D01*
X167005238Y-84121428D01*
X167100476Y-84169047D01*
X167290952Y-84216666D01*
X167433810Y-84216666D01*
X167624286Y-84169047D01*
X167719524Y-84121428D01*
X167814762Y-84026190D01*
X167862381Y-83883332D01*
X167862381Y-83788094D01*
X167814762Y-83645237D01*
X167767143Y-83597618D01*
X167433810Y-83597618D01*
X167433810Y-83788094D01*
X167862381Y-83169047D02*
X166862381Y-83169047D01*
X166862381Y-82788094D01*
X166910000Y-82692856D01*
X166957619Y-82645237D01*
X167052857Y-82597618D01*
X167195714Y-82597618D01*
X167290952Y-82645237D01*
X167338571Y-82692856D01*
X167386190Y-82788094D01*
X167386190Y-83169047D01*
X167862381Y-82169047D02*
X166862381Y-82169047D01*
X166862381Y-81502381D02*
X166862381Y-81311904D01*
X166910000Y-81216666D01*
X167005238Y-81121428D01*
X167195714Y-81073809D01*
X167529048Y-81073809D01*
X167719524Y-81121428D01*
X167814762Y-81216666D01*
X167862381Y-81311904D01*
X167862381Y-81502381D01*
X167814762Y-81597619D01*
X167719524Y-81692857D01*
X167529048Y-81740476D01*
X167195714Y-81740476D01*
X167005238Y-81692857D01*
X166910000Y-81597619D01*
X166862381Y-81502381D01*
X167862381Y-79359523D02*
X167862381Y-79930952D01*
X167862381Y-79645238D02*
X166862381Y-79645238D01*
X167005238Y-79740476D01*
X167100476Y-79835714D01*
X167148095Y-79930952D01*
X167290952Y-78788095D02*
X167243333Y-78883333D01*
X167195714Y-78930952D01*
X167100476Y-78978571D01*
X167052857Y-78978571D01*
X166957619Y-78930952D01*
X166910000Y-78883333D01*
X166862381Y-78788095D01*
X166862381Y-78597618D01*
X166910000Y-78502380D01*
X166957619Y-78454761D01*
X167052857Y-78407142D01*
X167100476Y-78407142D01*
X167195714Y-78454761D01*
X167243333Y-78502380D01*
X167290952Y-78597618D01*
X167290952Y-78788095D01*
X167338571Y-78883333D01*
X167386190Y-78930952D01*
X167481429Y-78978571D01*
X167671905Y-78978571D01*
X167767143Y-78930952D01*
X167814762Y-78883333D01*
X167862381Y-78788095D01*
X167862381Y-78597618D01*
X167814762Y-78502380D01*
X167767143Y-78454761D01*
X167671905Y-78407142D01*
X167481429Y-78407142D01*
X167386190Y-78454761D01*
X167338571Y-78502380D01*
X167290952Y-78597618D01*
X147995238Y-55554571D02*
X148138095Y-55602190D01*
X148185714Y-55649810D01*
X148233333Y-55745048D01*
X148233333Y-55887905D01*
X148185714Y-55983143D01*
X148138095Y-56030762D01*
X148042857Y-56078381D01*
X147661904Y-56078381D01*
X147661904Y-55078381D01*
X147995238Y-55078381D01*
X148090476Y-55126000D01*
X148138095Y-55173619D01*
X148185714Y-55268857D01*
X148185714Y-55364095D01*
X148138095Y-55459333D01*
X148090476Y-55506952D01*
X147995238Y-55554571D01*
X147661904Y-55554571D01*
X148614285Y-55792667D02*
X149090476Y-55792667D01*
X148519047Y-56078381D02*
X148852380Y-55078381D01*
X149185714Y-56078381D01*
X150090476Y-56078381D02*
X149757142Y-55602190D01*
X149519047Y-56078381D02*
X149519047Y-55078381D01*
X149900000Y-55078381D01*
X149995238Y-55126000D01*
X150042857Y-55173619D01*
X150090476Y-55268857D01*
X150090476Y-55411714D01*
X150042857Y-55506952D01*
X149995238Y-55554571D01*
X149900000Y-55602190D01*
X149519047Y-55602190D01*
X151090476Y-56078381D02*
X150757142Y-55602190D01*
X150519047Y-56078381D02*
X150519047Y-55078381D01*
X150900000Y-55078381D01*
X150995238Y-55126000D01*
X151042857Y-55173619D01*
X151090476Y-55268857D01*
X151090476Y-55411714D01*
X151042857Y-55506952D01*
X150995238Y-55554571D01*
X150900000Y-55602190D01*
X150519047Y-55602190D01*
X151519047Y-55554571D02*
X151852381Y-55554571D01*
X151995238Y-56078381D02*
X151519047Y-56078381D01*
X151519047Y-55078381D01*
X151995238Y-55078381D01*
X152900000Y-56078381D02*
X152423809Y-56078381D01*
X152423809Y-55078381D01*
X152995238Y-56173619D02*
X153757143Y-56173619D01*
X154280953Y-55078381D02*
X154280953Y-55792667D01*
X154233333Y-55935524D01*
X154138095Y-56030762D01*
X153995238Y-56078381D01*
X153900000Y-56078381D01*
X154709524Y-55792667D02*
X155185715Y-55792667D01*
X154614286Y-56078381D02*
X154947619Y-55078381D01*
X155280953Y-56078381D01*
X156185715Y-55983143D02*
X156138096Y-56030762D01*
X155995239Y-56078381D01*
X155900001Y-56078381D01*
X155757143Y-56030762D01*
X155661905Y-55935524D01*
X155614286Y-55840286D01*
X155566667Y-55649810D01*
X155566667Y-55506952D01*
X155614286Y-55316476D01*
X155661905Y-55221238D01*
X155757143Y-55126000D01*
X155900001Y-55078381D01*
X155995239Y-55078381D01*
X156138096Y-55126000D01*
X156185715Y-55173619D01*
X156614286Y-56078381D02*
X156614286Y-55078381D01*
X157185715Y-56078381D02*
X156757143Y-55506952D01*
X157185715Y-55078381D02*
X156614286Y-55649810D01*
X206403334Y-63032381D02*
X207022382Y-63032381D01*
X206689048Y-63413333D01*
X206831906Y-63413333D01*
X206927144Y-63460952D01*
X206974763Y-63508571D01*
X207022382Y-63603810D01*
X207022382Y-63841905D01*
X206974763Y-63937143D01*
X206927144Y-63984762D01*
X206831906Y-64032381D01*
X206546191Y-64032381D01*
X206450953Y-63984762D01*
X206403334Y-63937143D01*
X207450953Y-64032381D02*
X207450953Y-63365714D01*
X207450953Y-63460952D02*
X207498572Y-63413333D01*
X207593810Y-63365714D01*
X207736668Y-63365714D01*
X207831906Y-63413333D01*
X207879525Y-63508571D01*
X207879525Y-64032381D01*
X207879525Y-63508571D02*
X207927144Y-63413333D01*
X208022382Y-63365714D01*
X208165239Y-63365714D01*
X208260477Y-63413333D01*
X208308096Y-63508571D01*
X208308096Y-64032381D01*
X208784286Y-64032381D02*
X208784286Y-63365714D01*
X208784286Y-63460952D02*
X208831905Y-63413333D01*
X208927143Y-63365714D01*
X209070001Y-63365714D01*
X209165239Y-63413333D01*
X209212858Y-63508571D01*
X209212858Y-64032381D01*
X209212858Y-63508571D02*
X209260477Y-63413333D01*
X209355715Y-63365714D01*
X209498572Y-63365714D01*
X209593810Y-63413333D01*
X209641429Y-63508571D01*
X209641429Y-64032381D01*
X168763334Y-53697143D02*
X168715715Y-53744762D01*
X168572858Y-53792381D01*
X168477620Y-53792381D01*
X168334762Y-53744762D01*
X168239524Y-53649524D01*
X168191905Y-53554286D01*
X168144286Y-53363810D01*
X168144286Y-53220952D01*
X168191905Y-53030476D01*
X168239524Y-52935238D01*
X168334762Y-52840000D01*
X168477620Y-52792381D01*
X168572858Y-52792381D01*
X168715715Y-52840000D01*
X168763334Y-52887619D01*
X169715715Y-53792381D02*
X169144286Y-53792381D01*
X169430000Y-53792381D02*
X169430000Y-52792381D01*
X169334762Y-52935238D01*
X169239524Y-53030476D01*
X169144286Y-53078095D01*
X199334381Y-44060190D02*
X198334381Y-44060190D01*
X198429619Y-43631619D02*
X198382000Y-43584000D01*
X198334381Y-43488762D01*
X198334381Y-43250666D01*
X198382000Y-43155428D01*
X198429619Y-43107809D01*
X198524857Y-43060190D01*
X198620095Y-43060190D01*
X198762952Y-43107809D01*
X199334381Y-43679238D01*
X199334381Y-43060190D01*
X199239143Y-42060190D02*
X199286762Y-42107809D01*
X199334381Y-42250666D01*
X199334381Y-42345904D01*
X199286762Y-42488762D01*
X199191524Y-42584000D01*
X199096286Y-42631619D01*
X198905810Y-42679238D01*
X198762952Y-42679238D01*
X198572476Y-42631619D01*
X198477238Y-42584000D01*
X198382000Y-42488762D01*
X198334381Y-42345904D01*
X198334381Y-42250666D01*
X198382000Y-42107809D01*
X198429619Y-42060190D01*
X209986667Y-52792381D02*
X209986667Y-53506667D01*
X209939047Y-53649524D01*
X209843809Y-53744762D01*
X209700952Y-53792381D01*
X209605714Y-53792381D01*
X210462857Y-53792381D02*
X210462857Y-52792381D01*
X210843810Y-52792381D01*
X210939048Y-52840000D01*
X210986667Y-52887619D01*
X211034286Y-52982857D01*
X211034286Y-53125714D01*
X210986667Y-53220952D01*
X210939048Y-53268571D01*
X210843810Y-53316190D01*
X210462857Y-53316190D01*
X211986667Y-53792381D02*
X211415238Y-53792381D01*
X211700952Y-53792381D02*
X211700952Y-52792381D01*
X211605714Y-52935238D01*
X211510476Y-53030476D01*
X211415238Y-53078095D01*
X195651904Y-68242381D02*
X195651904Y-69051905D01*
X195699523Y-69147143D01*
X195747142Y-69194762D01*
X195842380Y-69242381D01*
X196032857Y-69242381D01*
X196128095Y-69194762D01*
X196175714Y-69147143D01*
X196223333Y-69051905D01*
X196223333Y-68242381D01*
X196651904Y-69194762D02*
X196794761Y-69242381D01*
X197032857Y-69242381D01*
X197128095Y-69194762D01*
X197175714Y-69147143D01*
X197223333Y-69051905D01*
X197223333Y-68956667D01*
X197175714Y-68861429D01*
X197128095Y-68813810D01*
X197032857Y-68766190D01*
X196842380Y-68718571D01*
X196747142Y-68670952D01*
X196699523Y-68623333D01*
X196651904Y-68528095D01*
X196651904Y-68432857D01*
X196699523Y-68337619D01*
X196747142Y-68290000D01*
X196842380Y-68242381D01*
X197080476Y-68242381D01*
X197223333Y-68290000D01*
X197985238Y-68718571D02*
X198128095Y-68766190D01*
X198175714Y-68813810D01*
X198223333Y-68909048D01*
X198223333Y-69051905D01*
X198175714Y-69147143D01*
X198128095Y-69194762D01*
X198032857Y-69242381D01*
X197651904Y-69242381D01*
X197651904Y-68242381D01*
X197985238Y-68242381D01*
X198080476Y-68290000D01*
X198128095Y-68337619D01*
X198175714Y-68432857D01*
X198175714Y-68528095D01*
X198128095Y-68623333D01*
X198080476Y-68670952D01*
X197985238Y-68718571D01*
X197651904Y-68718571D01*
X199366190Y-69194762D02*
X199461428Y-69242381D01*
X199651904Y-69242381D01*
X199747143Y-69194762D01*
X199794762Y-69099524D01*
X199794762Y-69051905D01*
X199747143Y-68956667D01*
X199651904Y-68909048D01*
X199509047Y-68909048D01*
X199413809Y-68861429D01*
X199366190Y-68766190D01*
X199366190Y-68718571D01*
X199413809Y-68623333D01*
X199509047Y-68575714D01*
X199651904Y-68575714D01*
X199747143Y-68623333D01*
X200604286Y-69194762D02*
X200509048Y-69242381D01*
X200318571Y-69242381D01*
X200223333Y-69194762D01*
X200175714Y-69099524D01*
X200175714Y-68718571D01*
X200223333Y-68623333D01*
X200318571Y-68575714D01*
X200509048Y-68575714D01*
X200604286Y-68623333D01*
X200651905Y-68718571D01*
X200651905Y-68813810D01*
X200175714Y-68909048D01*
X201080476Y-69242381D02*
X201080476Y-68575714D01*
X201080476Y-68766190D02*
X201128095Y-68670952D01*
X201175714Y-68623333D01*
X201270952Y-68575714D01*
X201366191Y-68575714D01*
X201699524Y-69242381D02*
X201699524Y-68575714D01*
X201699524Y-68242381D02*
X201651905Y-68290000D01*
X201699524Y-68337619D01*
X201747143Y-68290000D01*
X201699524Y-68242381D01*
X201699524Y-68337619D01*
X202604286Y-69242381D02*
X202604286Y-68718571D01*
X202556667Y-68623333D01*
X202461429Y-68575714D01*
X202270952Y-68575714D01*
X202175714Y-68623333D01*
X202604286Y-69194762D02*
X202509048Y-69242381D01*
X202270952Y-69242381D01*
X202175714Y-69194762D01*
X202128095Y-69099524D01*
X202128095Y-69004286D01*
X202175714Y-68909048D01*
X202270952Y-68861429D01*
X202509048Y-68861429D01*
X202604286Y-68813810D01*
X203223333Y-69242381D02*
X203128095Y-69194762D01*
X203080476Y-69099524D01*
X203080476Y-68242381D01*
X198842381Y-77803333D02*
X199556667Y-77803333D01*
X199699524Y-77850953D01*
X199794762Y-77946191D01*
X199842381Y-78089048D01*
X199842381Y-78184286D01*
X199175714Y-76898571D02*
X199842381Y-76898571D01*
X198794762Y-77136667D02*
X199509048Y-77374762D01*
X199509048Y-76755714D01*
X153062381Y-71674762D02*
X152586190Y-72008096D01*
X153062381Y-72246191D02*
X152062381Y-72246191D01*
X152062381Y-71865238D01*
X152110000Y-71770000D01*
X152157619Y-71722381D01*
X152252857Y-71674762D01*
X152395714Y-71674762D01*
X152490952Y-71722381D01*
X152538571Y-71770000D01*
X152586190Y-71865238D01*
X152586190Y-72246191D01*
X153062381Y-70817619D02*
X152538571Y-70817619D01*
X152443333Y-70865238D01*
X152395714Y-70960476D01*
X152395714Y-71150953D01*
X152443333Y-71246191D01*
X153014762Y-70817619D02*
X153062381Y-70912857D01*
X153062381Y-71150953D01*
X153014762Y-71246191D01*
X152919524Y-71293810D01*
X152824286Y-71293810D01*
X152729048Y-71246191D01*
X152681429Y-71150953D01*
X152681429Y-70912857D01*
X152633810Y-70817619D01*
X153014762Y-70389048D02*
X153062381Y-70293810D01*
X153062381Y-70103334D01*
X153014762Y-70008095D01*
X152919524Y-69960476D01*
X152871905Y-69960476D01*
X152776667Y-70008095D01*
X152729048Y-70103334D01*
X152729048Y-70246191D01*
X152681429Y-70341429D01*
X152586190Y-70389048D01*
X152538571Y-70389048D01*
X152443333Y-70341429D01*
X152395714Y-70246191D01*
X152395714Y-70103334D01*
X152443333Y-70008095D01*
X153062381Y-69531905D02*
X152062381Y-69531905D01*
X152062381Y-69150952D01*
X152110000Y-69055714D01*
X152157619Y-69008095D01*
X152252857Y-68960476D01*
X152395714Y-68960476D01*
X152490952Y-69008095D01*
X152538571Y-69055714D01*
X152586190Y-69150952D01*
X152586190Y-69531905D01*
X153062381Y-68531905D02*
X152062381Y-68531905D01*
X153157619Y-68293810D02*
X153157619Y-67531905D01*
X153062381Y-67293810D02*
X152062381Y-67293810D01*
X152062381Y-66627144D02*
X152062381Y-66436667D01*
X152110000Y-66341429D01*
X152205238Y-66246191D01*
X152395714Y-66198572D01*
X152729048Y-66198572D01*
X152919524Y-66246191D01*
X153014762Y-66341429D01*
X153062381Y-66436667D01*
X153062381Y-66627144D01*
X153014762Y-66722382D01*
X152919524Y-66817620D01*
X152729048Y-66865239D01*
X152395714Y-66865239D01*
X152205238Y-66817620D01*
X152110000Y-66722382D01*
X152062381Y-66627144D01*
X153157619Y-66008096D02*
X153157619Y-65246191D01*
X153062381Y-65008096D02*
X152062381Y-65008096D01*
X152538571Y-65008096D02*
X152538571Y-64436667D01*
X153062381Y-64436667D02*
X152062381Y-64436667D01*
X153014762Y-63579524D02*
X153062381Y-63674762D01*
X153062381Y-63865239D01*
X153014762Y-63960477D01*
X152919524Y-64008096D01*
X152538571Y-64008096D01*
X152443333Y-63960477D01*
X152395714Y-63865239D01*
X152395714Y-63674762D01*
X152443333Y-63579524D01*
X152538571Y-63531905D01*
X152633810Y-63531905D01*
X152729048Y-64008096D01*
X153062381Y-62674762D02*
X152538571Y-62674762D01*
X152443333Y-62722381D01*
X152395714Y-62817619D01*
X152395714Y-63008096D01*
X152443333Y-63103334D01*
X153014762Y-62674762D02*
X153062381Y-62770000D01*
X153062381Y-63008096D01*
X153014762Y-63103334D01*
X152919524Y-63150953D01*
X152824286Y-63150953D01*
X152729048Y-63103334D01*
X152681429Y-63008096D01*
X152681429Y-62770000D01*
X152633810Y-62674762D01*
X153062381Y-61770000D02*
X152062381Y-61770000D01*
X153014762Y-61770000D02*
X153062381Y-61865238D01*
X153062381Y-62055715D01*
X153014762Y-62150953D01*
X152967143Y-62198572D01*
X152871905Y-62246191D01*
X152586190Y-62246191D01*
X152490952Y-62198572D01*
X152443333Y-62150953D01*
X152395714Y-62055715D01*
X152395714Y-61865238D01*
X152443333Y-61770000D01*
X153014762Y-60912857D02*
X153062381Y-61008095D01*
X153062381Y-61198572D01*
X153014762Y-61293810D01*
X152919524Y-61341429D01*
X152538571Y-61341429D01*
X152443333Y-61293810D01*
X152395714Y-61198572D01*
X152395714Y-61008095D01*
X152443333Y-60912857D01*
X152538571Y-60865238D01*
X152633810Y-60865238D01*
X152729048Y-61341429D01*
X153062381Y-60436667D02*
X152395714Y-60436667D01*
X152586190Y-60436667D02*
X152490952Y-60389048D01*
X152443333Y-60341429D01*
X152395714Y-60246191D01*
X152395714Y-60150952D01*
X153157619Y-60055714D02*
X153157619Y-59293809D01*
X152538571Y-58722380D02*
X152586190Y-58579523D01*
X152633810Y-58531904D01*
X152729048Y-58484285D01*
X152871905Y-58484285D01*
X152967143Y-58531904D01*
X153014762Y-58579523D01*
X153062381Y-58674761D01*
X153062381Y-59055714D01*
X152062381Y-59055714D01*
X152062381Y-58722380D01*
X152110000Y-58627142D01*
X152157619Y-58579523D01*
X152252857Y-58531904D01*
X152348095Y-58531904D01*
X152443333Y-58579523D01*
X152490952Y-58627142D01*
X152538571Y-58722380D01*
X152538571Y-59055714D01*
X152681429Y-58055714D02*
X152681429Y-57293809D01*
X153062381Y-57674761D02*
X152300476Y-57674761D01*
X178736667Y-64222381D02*
X178736667Y-64936667D01*
X178689047Y-65079524D01*
X178593809Y-65174762D01*
X178450952Y-65222381D01*
X178355714Y-65222381D01*
X179117619Y-64222381D02*
X179736667Y-64222381D01*
X179403333Y-64603333D01*
X179546191Y-64603333D01*
X179641429Y-64650952D01*
X179689048Y-64698571D01*
X179736667Y-64793810D01*
X179736667Y-65031905D01*
X179689048Y-65127143D01*
X179641429Y-65174762D01*
X179546191Y-65222381D01*
X179260476Y-65222381D01*
X179165238Y-65174762D01*
X179117619Y-65127143D01*
X192730381Y-44060190D02*
X191730381Y-44060190D01*
X191825619Y-43631619D02*
X191778000Y-43584000D01*
X191730381Y-43488762D01*
X191730381Y-43250666D01*
X191778000Y-43155428D01*
X191825619Y-43107809D01*
X191920857Y-43060190D01*
X192016095Y-43060190D01*
X192158952Y-43107809D01*
X192730381Y-43679238D01*
X192730381Y-43060190D01*
X192635143Y-42060190D02*
X192682762Y-42107809D01*
X192730381Y-42250666D01*
X192730381Y-42345904D01*
X192682762Y-42488762D01*
X192587524Y-42584000D01*
X192492286Y-42631619D01*
X192301810Y-42679238D01*
X192158952Y-42679238D01*
X191968476Y-42631619D01*
X191873238Y-42584000D01*
X191778000Y-42488762D01*
X191730381Y-42345904D01*
X191730381Y-42250666D01*
X191778000Y-42107809D01*
X191825619Y-42060190D01*
X163152142Y-67984762D02*
X163247380Y-68032381D01*
X163437856Y-68032381D01*
X163533095Y-67984762D01*
X163580714Y-67889524D01*
X163580714Y-67841905D01*
X163533095Y-67746667D01*
X163437856Y-67699048D01*
X163294999Y-67699048D01*
X163199761Y-67651429D01*
X163152142Y-67556190D01*
X163152142Y-67508571D01*
X163199761Y-67413333D01*
X163294999Y-67365714D01*
X163437856Y-67365714D01*
X163533095Y-67413333D01*
X164390238Y-67984762D02*
X164295000Y-68032381D01*
X164104523Y-68032381D01*
X164009285Y-67984762D01*
X163961666Y-67889524D01*
X163961666Y-67508571D01*
X164009285Y-67413333D01*
X164104523Y-67365714D01*
X164295000Y-67365714D01*
X164390238Y-67413333D01*
X164437857Y-67508571D01*
X164437857Y-67603810D01*
X163961666Y-67699048D01*
X164866428Y-68032381D02*
X164866428Y-67365714D01*
X164866428Y-67556190D02*
X164914047Y-67460952D01*
X164961666Y-67413333D01*
X165056904Y-67365714D01*
X165152143Y-67365714D01*
X165390238Y-67365714D02*
X165628333Y-68032381D01*
X165866429Y-67365714D01*
X166390238Y-68032381D02*
X166295000Y-67984762D01*
X166247381Y-67937143D01*
X166199762Y-67841905D01*
X166199762Y-67556190D01*
X166247381Y-67460952D01*
X166295000Y-67413333D01*
X166390238Y-67365714D01*
X166533096Y-67365714D01*
X166628334Y-67413333D01*
X166675953Y-67460952D01*
X166723572Y-67556190D01*
X166723572Y-67841905D01*
X166675953Y-67937143D01*
X166628334Y-67984762D01*
X166533096Y-68032381D01*
X166390238Y-68032381D01*
X168104524Y-67032381D02*
X168199763Y-67032381D01*
X168295001Y-67080000D01*
X168342620Y-67127619D01*
X168390239Y-67222857D01*
X168437858Y-67413333D01*
X168437858Y-67651429D01*
X168390239Y-67841905D01*
X168342620Y-67937143D01*
X168295001Y-67984762D01*
X168199763Y-68032381D01*
X168104524Y-68032381D01*
X168009286Y-67984762D01*
X167961667Y-67937143D01*
X167914048Y-67841905D01*
X167866429Y-67651429D01*
X167866429Y-67413333D01*
X167914048Y-67222857D01*
X167961667Y-67127619D01*
X168009286Y-67080000D01*
X168104524Y-67032381D01*
X166910000Y-74342380D02*
X166862381Y-74437618D01*
X166862381Y-74580475D01*
X166910000Y-74723333D01*
X167005238Y-74818571D01*
X167100476Y-74866190D01*
X167290952Y-74913809D01*
X167433810Y-74913809D01*
X167624286Y-74866190D01*
X167719524Y-74818571D01*
X167814762Y-74723333D01*
X167862381Y-74580475D01*
X167862381Y-74485237D01*
X167814762Y-74342380D01*
X167767143Y-74294761D01*
X167433810Y-74294761D01*
X167433810Y-74485237D01*
X167862381Y-73866190D02*
X166862381Y-73866190D01*
X166862381Y-73485237D01*
X166910000Y-73389999D01*
X166957619Y-73342380D01*
X167052857Y-73294761D01*
X167195714Y-73294761D01*
X167290952Y-73342380D01*
X167338571Y-73389999D01*
X167386190Y-73485237D01*
X167386190Y-73866190D01*
X167862381Y-72866190D02*
X166862381Y-72866190D01*
X166862381Y-72199524D02*
X166862381Y-72009047D01*
X166910000Y-71913809D01*
X167005238Y-71818571D01*
X167195714Y-71770952D01*
X167529048Y-71770952D01*
X167719524Y-71818571D01*
X167814762Y-71913809D01*
X167862381Y-72009047D01*
X167862381Y-72199524D01*
X167814762Y-72294762D01*
X167719524Y-72390000D01*
X167529048Y-72437619D01*
X167195714Y-72437619D01*
X167005238Y-72390000D01*
X166910000Y-72294762D01*
X166862381Y-72199524D01*
X167862381Y-70818571D02*
X167862381Y-71390000D01*
X167862381Y-71104286D02*
X166862381Y-71104286D01*
X167005238Y-71199524D01*
X167100476Y-71294762D01*
X167148095Y-71390000D01*
X166862381Y-70485238D02*
X166862381Y-69866190D01*
X167243333Y-70199524D01*
X167243333Y-70056666D01*
X167290952Y-69961428D01*
X167338571Y-69913809D01*
X167433810Y-69866190D01*
X167671905Y-69866190D01*
X167767143Y-69913809D01*
X167814762Y-69961428D01*
X167862381Y-70056666D01*
X167862381Y-70342381D01*
X167814762Y-70437619D01*
X167767143Y-70485238D01*
X183472142Y-67984762D02*
X183567380Y-68032381D01*
X183757856Y-68032381D01*
X183853095Y-67984762D01*
X183900714Y-67889524D01*
X183900714Y-67841905D01*
X183853095Y-67746667D01*
X183757856Y-67699048D01*
X183614999Y-67699048D01*
X183519761Y-67651429D01*
X183472142Y-67556190D01*
X183472142Y-67508571D01*
X183519761Y-67413333D01*
X183614999Y-67365714D01*
X183757856Y-67365714D01*
X183853095Y-67413333D01*
X184710238Y-67984762D02*
X184615000Y-68032381D01*
X184424523Y-68032381D01*
X184329285Y-67984762D01*
X184281666Y-67889524D01*
X184281666Y-67508571D01*
X184329285Y-67413333D01*
X184424523Y-67365714D01*
X184615000Y-67365714D01*
X184710238Y-67413333D01*
X184757857Y-67508571D01*
X184757857Y-67603810D01*
X184281666Y-67699048D01*
X185186428Y-68032381D02*
X185186428Y-67365714D01*
X185186428Y-67556190D02*
X185234047Y-67460952D01*
X185281666Y-67413333D01*
X185376904Y-67365714D01*
X185472143Y-67365714D01*
X185710238Y-67365714D02*
X185948333Y-68032381D01*
X186186429Y-67365714D01*
X186710238Y-68032381D02*
X186615000Y-67984762D01*
X186567381Y-67937143D01*
X186519762Y-67841905D01*
X186519762Y-67556190D01*
X186567381Y-67460952D01*
X186615000Y-67413333D01*
X186710238Y-67365714D01*
X186853096Y-67365714D01*
X186948334Y-67413333D01*
X186995953Y-67460952D01*
X187043572Y-67556190D01*
X187043572Y-67841905D01*
X186995953Y-67937143D01*
X186948334Y-67984762D01*
X186853096Y-68032381D01*
X186710238Y-68032381D01*
X188186429Y-67127619D02*
X188234048Y-67080000D01*
X188329286Y-67032381D01*
X188567382Y-67032381D01*
X188662620Y-67080000D01*
X188710239Y-67127619D01*
X188757858Y-67222857D01*
X188757858Y-67318095D01*
X188710239Y-67460952D01*
X188138810Y-68032381D01*
X188757858Y-68032381D01*
X187230000Y-74342380D02*
X187182381Y-74437618D01*
X187182381Y-74580475D01*
X187230000Y-74723333D01*
X187325238Y-74818571D01*
X187420476Y-74866190D01*
X187610952Y-74913809D01*
X187753810Y-74913809D01*
X187944286Y-74866190D01*
X188039524Y-74818571D01*
X188134762Y-74723333D01*
X188182381Y-74580475D01*
X188182381Y-74485237D01*
X188134762Y-74342380D01*
X188087143Y-74294761D01*
X187753810Y-74294761D01*
X187753810Y-74485237D01*
X188182381Y-73866190D02*
X187182381Y-73866190D01*
X187182381Y-73485237D01*
X187230000Y-73389999D01*
X187277619Y-73342380D01*
X187372857Y-73294761D01*
X187515714Y-73294761D01*
X187610952Y-73342380D01*
X187658571Y-73389999D01*
X187706190Y-73485237D01*
X187706190Y-73866190D01*
X188182381Y-72866190D02*
X187182381Y-72866190D01*
X187182381Y-72199524D02*
X187182381Y-72009047D01*
X187230000Y-71913809D01*
X187325238Y-71818571D01*
X187515714Y-71770952D01*
X187849048Y-71770952D01*
X188039524Y-71818571D01*
X188134762Y-71913809D01*
X188182381Y-72009047D01*
X188182381Y-72199524D01*
X188134762Y-72294762D01*
X188039524Y-72390000D01*
X187849048Y-72437619D01*
X187515714Y-72437619D01*
X187325238Y-72390000D01*
X187230000Y-72294762D01*
X187182381Y-72199524D01*
X188182381Y-70818571D02*
X188182381Y-71390000D01*
X188182381Y-71104286D02*
X187182381Y-71104286D01*
X187325238Y-71199524D01*
X187420476Y-71294762D01*
X187468095Y-71390000D01*
X187277619Y-70437619D02*
X187230000Y-70390000D01*
X187182381Y-70294762D01*
X187182381Y-70056666D01*
X187230000Y-69961428D01*
X187277619Y-69913809D01*
X187372857Y-69866190D01*
X187468095Y-69866190D01*
X187610952Y-69913809D01*
X188182381Y-70485238D01*
X188182381Y-69866190D01*
X183472142Y-78144762D02*
X183567380Y-78192381D01*
X183757856Y-78192381D01*
X183853095Y-78144762D01*
X183900714Y-78049524D01*
X183900714Y-78001905D01*
X183853095Y-77906667D01*
X183757856Y-77859048D01*
X183614999Y-77859048D01*
X183519761Y-77811429D01*
X183472142Y-77716190D01*
X183472142Y-77668571D01*
X183519761Y-77573333D01*
X183614999Y-77525714D01*
X183757856Y-77525714D01*
X183853095Y-77573333D01*
X184710238Y-78144762D02*
X184615000Y-78192381D01*
X184424523Y-78192381D01*
X184329285Y-78144762D01*
X184281666Y-78049524D01*
X184281666Y-77668571D01*
X184329285Y-77573333D01*
X184424523Y-77525714D01*
X184615000Y-77525714D01*
X184710238Y-77573333D01*
X184757857Y-77668571D01*
X184757857Y-77763810D01*
X184281666Y-77859048D01*
X185186428Y-78192381D02*
X185186428Y-77525714D01*
X185186428Y-77716190D02*
X185234047Y-77620952D01*
X185281666Y-77573333D01*
X185376904Y-77525714D01*
X185472143Y-77525714D01*
X185710238Y-77525714D02*
X185948333Y-78192381D01*
X186186429Y-77525714D01*
X186710238Y-78192381D02*
X186615000Y-78144762D01*
X186567381Y-78097143D01*
X186519762Y-78001905D01*
X186519762Y-77716190D01*
X186567381Y-77620952D01*
X186615000Y-77573333D01*
X186710238Y-77525714D01*
X186853096Y-77525714D01*
X186948334Y-77573333D01*
X186995953Y-77620952D01*
X187043572Y-77716190D01*
X187043572Y-78001905D01*
X186995953Y-78097143D01*
X186948334Y-78144762D01*
X186853096Y-78192381D01*
X186710238Y-78192381D01*
X188138810Y-77192381D02*
X188757858Y-77192381D01*
X188424524Y-77573333D01*
X188567382Y-77573333D01*
X188662620Y-77620952D01*
X188710239Y-77668571D01*
X188757858Y-77763810D01*
X188757858Y-78001905D01*
X188710239Y-78097143D01*
X188662620Y-78144762D01*
X188567382Y-78192381D01*
X188281667Y-78192381D01*
X188186429Y-78144762D01*
X188138810Y-78097143D01*
X187182381Y-86454761D02*
X187896667Y-86454761D01*
X188039524Y-86502381D01*
X188134762Y-86597619D01*
X188182381Y-86740476D01*
X188182381Y-86835714D01*
X188182381Y-85454761D02*
X188182381Y-86026190D01*
X188182381Y-85740476D02*
X187182381Y-85740476D01*
X187325238Y-85835714D01*
X187420476Y-85930952D01*
X187468095Y-86026190D01*
X188182381Y-84502380D02*
X188182381Y-85073809D01*
X188182381Y-84788095D02*
X187182381Y-84788095D01*
X187325238Y-84883333D01*
X187420476Y-84978571D01*
X187468095Y-85073809D01*
X187230000Y-82788094D02*
X187182381Y-82883332D01*
X187182381Y-83026189D01*
X187230000Y-83169047D01*
X187325238Y-83264285D01*
X187420476Y-83311904D01*
X187610952Y-83359523D01*
X187753810Y-83359523D01*
X187944286Y-83311904D01*
X188039524Y-83264285D01*
X188134762Y-83169047D01*
X188182381Y-83026189D01*
X188182381Y-82930951D01*
X188134762Y-82788094D01*
X188087143Y-82740475D01*
X187753810Y-82740475D01*
X187753810Y-82930951D01*
X188182381Y-82311904D02*
X187182381Y-82311904D01*
X187182381Y-81930951D01*
X187230000Y-81835713D01*
X187277619Y-81788094D01*
X187372857Y-81740475D01*
X187515714Y-81740475D01*
X187610952Y-81788094D01*
X187658571Y-81835713D01*
X187706190Y-81930951D01*
X187706190Y-82311904D01*
X188182381Y-81311904D02*
X187182381Y-81311904D01*
X187182381Y-80645238D02*
X187182381Y-80454761D01*
X187230000Y-80359523D01*
X187325238Y-80264285D01*
X187515714Y-80216666D01*
X187849048Y-80216666D01*
X188039524Y-80264285D01*
X188134762Y-80359523D01*
X188182381Y-80454761D01*
X188182381Y-80645238D01*
X188134762Y-80740476D01*
X188039524Y-80835714D01*
X187849048Y-80883333D01*
X187515714Y-80883333D01*
X187325238Y-80835714D01*
X187230000Y-80740476D01*
X187182381Y-80645238D01*
X188182381Y-79264285D02*
X188182381Y-79835714D01*
X188182381Y-79550000D02*
X187182381Y-79550000D01*
X187325238Y-79645238D01*
X187420476Y-79740476D01*
X187468095Y-79835714D01*
X188182381Y-78788095D02*
X188182381Y-78597619D01*
X188134762Y-78502380D01*
X188087143Y-78454761D01*
X187944286Y-78359523D01*
X187753810Y-78311904D01*
X187372857Y-78311904D01*
X187277619Y-78359523D01*
X187230000Y-78407142D01*
X187182381Y-78502380D01*
X187182381Y-78692857D01*
X187230000Y-78788095D01*
X187277619Y-78835714D01*
X187372857Y-78883333D01*
X187610952Y-78883333D01*
X187706190Y-78835714D01*
X187753810Y-78788095D01*
X187801429Y-78692857D01*
X187801429Y-78502380D01*
X187753810Y-78407142D01*
X187706190Y-78359523D01*
X187610952Y-78311904D01*
X209986667Y-46950381D02*
X209986667Y-47664667D01*
X209939047Y-47807524D01*
X209843809Y-47902762D01*
X209700952Y-47950381D01*
X209605714Y-47950381D01*
X210462857Y-47950381D02*
X210462857Y-46950381D01*
X210843810Y-46950381D01*
X210939048Y-46998000D01*
X210986667Y-47045619D01*
X211034286Y-47140857D01*
X211034286Y-47283714D01*
X210986667Y-47378952D01*
X210939048Y-47426571D01*
X210843810Y-47474190D01*
X210462857Y-47474190D01*
X211415238Y-47045619D02*
X211462857Y-46998000D01*
X211558095Y-46950381D01*
X211796191Y-46950381D01*
X211891429Y-46998000D01*
X211939048Y-47045619D01*
X211986667Y-47140857D01*
X211986667Y-47236095D01*
X211939048Y-47378952D01*
X211367619Y-47950381D01*
X211986667Y-47950381D01*
X153162095Y-43584762D02*
X153304952Y-43632381D01*
X153543048Y-43632381D01*
X153638286Y-43584762D01*
X153685905Y-43537143D01*
X153733524Y-43441905D01*
X153733524Y-43346667D01*
X153685905Y-43251429D01*
X153638286Y-43203810D01*
X153543048Y-43156190D01*
X153352571Y-43108571D01*
X153257333Y-43060952D01*
X153209714Y-43013333D01*
X153162095Y-42918095D01*
X153162095Y-42822857D01*
X153209714Y-42727619D01*
X153257333Y-42680000D01*
X153352571Y-42632381D01*
X153590667Y-42632381D01*
X153733524Y-42680000D01*
X154685905Y-43632381D02*
X154114476Y-43632381D01*
X154400190Y-43632381D02*
X154400190Y-42632381D01*
X154304952Y-42775238D01*
X154209714Y-42870476D01*
X154114476Y-42918095D01*
D13*
X181239334Y-55876000D02*
X181206000Y-55909333D01*
X181106000Y-55942667D01*
X181039334Y-55942667D01*
X180939334Y-55909333D01*
X180872667Y-55842667D01*
X180839334Y-55776000D01*
X180806000Y-55642667D01*
X180806000Y-55542667D01*
X180839334Y-55409333D01*
X180872667Y-55342667D01*
X180939334Y-55276000D01*
X181039334Y-55242667D01*
X181106000Y-55242667D01*
X181206000Y-55276000D01*
X181239334Y-55309333D01*
X181506000Y-55309333D02*
X181539334Y-55276000D01*
X181606000Y-55242667D01*
X181772667Y-55242667D01*
X181839334Y-55276000D01*
X181872667Y-55309333D01*
X181906000Y-55376000D01*
X181906000Y-55442667D01*
X181872667Y-55542667D01*
X181472667Y-55942667D01*
X181906000Y-55942667D01*
D12*
X169378381Y-49783905D02*
X170187905Y-49783905D01*
X170283143Y-49736286D01*
X170330762Y-49688667D01*
X170378381Y-49593429D01*
X170378381Y-49402952D01*
X170330762Y-49307714D01*
X170283143Y-49260095D01*
X170187905Y-49212476D01*
X169378381Y-49212476D01*
X170378381Y-48212476D02*
X170378381Y-48783905D01*
X170378381Y-48498191D02*
X169378381Y-48498191D01*
X169521238Y-48593429D01*
X169616476Y-48688667D01*
X169664095Y-48783905D01*
X148403334Y-68032381D02*
X149022382Y-68032381D01*
X148689048Y-68413333D01*
X148831906Y-68413333D01*
X148927144Y-68460952D01*
X148974763Y-68508571D01*
X149022382Y-68603810D01*
X149022382Y-68841905D01*
X148974763Y-68937143D01*
X148927144Y-68984762D01*
X148831906Y-69032381D01*
X148546191Y-69032381D01*
X148450953Y-68984762D01*
X148403334Y-68937143D01*
X149450953Y-69032381D02*
X149450953Y-68365714D01*
X149450953Y-68460952D02*
X149498572Y-68413333D01*
X149593810Y-68365714D01*
X149736668Y-68365714D01*
X149831906Y-68413333D01*
X149879525Y-68508571D01*
X149879525Y-69032381D01*
X149879525Y-68508571D02*
X149927144Y-68413333D01*
X150022382Y-68365714D01*
X150165239Y-68365714D01*
X150260477Y-68413333D01*
X150308096Y-68508571D01*
X150308096Y-69032381D01*
X150784286Y-69032381D02*
X150784286Y-68365714D01*
X150784286Y-68460952D02*
X150831905Y-68413333D01*
X150927143Y-68365714D01*
X151070001Y-68365714D01*
X151165239Y-68413333D01*
X151212858Y-68508571D01*
X151212858Y-69032381D01*
X151212858Y-68508571D02*
X151260477Y-68413333D01*
X151355715Y-68365714D01*
X151498572Y-68365714D01*
X151593810Y-68413333D01*
X151641429Y-68508571D01*
X151641429Y-69032381D01*
X148403334Y-86032381D02*
X149022382Y-86032381D01*
X148689048Y-86413333D01*
X148831906Y-86413333D01*
X148927144Y-86460952D01*
X148974763Y-86508571D01*
X149022382Y-86603810D01*
X149022382Y-86841905D01*
X148974763Y-86937143D01*
X148927144Y-86984762D01*
X148831906Y-87032381D01*
X148546191Y-87032381D01*
X148450953Y-86984762D01*
X148403334Y-86937143D01*
X149450953Y-87032381D02*
X149450953Y-86365714D01*
X149450953Y-86460952D02*
X149498572Y-86413333D01*
X149593810Y-86365714D01*
X149736668Y-86365714D01*
X149831906Y-86413333D01*
X149879525Y-86508571D01*
X149879525Y-87032381D01*
X149879525Y-86508571D02*
X149927144Y-86413333D01*
X150022382Y-86365714D01*
X150165239Y-86365714D01*
X150260477Y-86413333D01*
X150308096Y-86508571D01*
X150308096Y-87032381D01*
X150784286Y-87032381D02*
X150784286Y-86365714D01*
X150784286Y-86460952D02*
X150831905Y-86413333D01*
X150927143Y-86365714D01*
X151070001Y-86365714D01*
X151165239Y-86413333D01*
X151212858Y-86508571D01*
X151212858Y-87032381D01*
X151212858Y-86508571D02*
X151260477Y-86413333D01*
X151355715Y-86365714D01*
X151498572Y-86365714D01*
X151593810Y-86413333D01*
X151641429Y-86508571D01*
X151641429Y-87032381D01*
X148403334Y-63032381D02*
X149022382Y-63032381D01*
X148689048Y-63413333D01*
X148831906Y-63413333D01*
X148927144Y-63460952D01*
X148974763Y-63508571D01*
X149022382Y-63603810D01*
X149022382Y-63841905D01*
X148974763Y-63937143D01*
X148927144Y-63984762D01*
X148831906Y-64032381D01*
X148546191Y-64032381D01*
X148450953Y-63984762D01*
X148403334Y-63937143D01*
X149450953Y-64032381D02*
X149450953Y-63365714D01*
X149450953Y-63460952D02*
X149498572Y-63413333D01*
X149593810Y-63365714D01*
X149736668Y-63365714D01*
X149831906Y-63413333D01*
X149879525Y-63508571D01*
X149879525Y-64032381D01*
X149879525Y-63508571D02*
X149927144Y-63413333D01*
X150022382Y-63365714D01*
X150165239Y-63365714D01*
X150260477Y-63413333D01*
X150308096Y-63508571D01*
X150308096Y-64032381D01*
X150784286Y-64032381D02*
X150784286Y-63365714D01*
X150784286Y-63460952D02*
X150831905Y-63413333D01*
X150927143Y-63365714D01*
X151070001Y-63365714D01*
X151165239Y-63413333D01*
X151212858Y-63508571D01*
X151212858Y-64032381D01*
X151212858Y-63508571D02*
X151260477Y-63413333D01*
X151355715Y-63365714D01*
X151498572Y-63365714D01*
X151593810Y-63413333D01*
X151641429Y-63508571D01*
X151641429Y-64032381D01*
X148403334Y-45032381D02*
X149022382Y-45032381D01*
X148689048Y-45413333D01*
X148831906Y-45413333D01*
X148927144Y-45460952D01*
X148974763Y-45508571D01*
X149022382Y-45603810D01*
X149022382Y-45841905D01*
X148974763Y-45937143D01*
X148927144Y-45984762D01*
X148831906Y-46032381D01*
X148546191Y-46032381D01*
X148450953Y-45984762D01*
X148403334Y-45937143D01*
X149450953Y-46032381D02*
X149450953Y-45365714D01*
X149450953Y-45460952D02*
X149498572Y-45413333D01*
X149593810Y-45365714D01*
X149736668Y-45365714D01*
X149831906Y-45413333D01*
X149879525Y-45508571D01*
X149879525Y-46032381D01*
X149879525Y-45508571D02*
X149927144Y-45413333D01*
X150022382Y-45365714D01*
X150165239Y-45365714D01*
X150260477Y-45413333D01*
X150308096Y-45508571D01*
X150308096Y-46032381D01*
X150784286Y-46032381D02*
X150784286Y-45365714D01*
X150784286Y-45460952D02*
X150831905Y-45413333D01*
X150927143Y-45365714D01*
X151070001Y-45365714D01*
X151165239Y-45413333D01*
X151212858Y-45508571D01*
X151212858Y-46032381D01*
X151212858Y-45508571D02*
X151260477Y-45413333D01*
X151355715Y-45365714D01*
X151498572Y-45365714D01*
X151593810Y-45413333D01*
X151641429Y-45508571D01*
X151641429Y-46032381D01*
X206403334Y-68032381D02*
X207022382Y-68032381D01*
X206689048Y-68413333D01*
X206831906Y-68413333D01*
X206927144Y-68460952D01*
X206974763Y-68508571D01*
X207022382Y-68603810D01*
X207022382Y-68841905D01*
X206974763Y-68937143D01*
X206927144Y-68984762D01*
X206831906Y-69032381D01*
X206546191Y-69032381D01*
X206450953Y-68984762D01*
X206403334Y-68937143D01*
X207450953Y-69032381D02*
X207450953Y-68365714D01*
X207450953Y-68460952D02*
X207498572Y-68413333D01*
X207593810Y-68365714D01*
X207736668Y-68365714D01*
X207831906Y-68413333D01*
X207879525Y-68508571D01*
X207879525Y-69032381D01*
X207879525Y-68508571D02*
X207927144Y-68413333D01*
X208022382Y-68365714D01*
X208165239Y-68365714D01*
X208260477Y-68413333D01*
X208308096Y-68508571D01*
X208308096Y-69032381D01*
X208784286Y-69032381D02*
X208784286Y-68365714D01*
X208784286Y-68460952D02*
X208831905Y-68413333D01*
X208927143Y-68365714D01*
X209070001Y-68365714D01*
X209165239Y-68413333D01*
X209212858Y-68508571D01*
X209212858Y-69032381D01*
X209212858Y-68508571D02*
X209260477Y-68413333D01*
X209355715Y-68365714D01*
X209498572Y-68365714D01*
X209593810Y-68413333D01*
X209641429Y-68508571D01*
X209641429Y-69032381D01*
X206403334Y-86032381D02*
X207022382Y-86032381D01*
X206689048Y-86413333D01*
X206831906Y-86413333D01*
X206927144Y-86460952D01*
X206974763Y-86508571D01*
X207022382Y-86603810D01*
X207022382Y-86841905D01*
X206974763Y-86937143D01*
X206927144Y-86984762D01*
X206831906Y-87032381D01*
X206546191Y-87032381D01*
X206450953Y-86984762D01*
X206403334Y-86937143D01*
X207450953Y-87032381D02*
X207450953Y-86365714D01*
X207450953Y-86460952D02*
X207498572Y-86413333D01*
X207593810Y-86365714D01*
X207736668Y-86365714D01*
X207831906Y-86413333D01*
X207879525Y-86508571D01*
X207879525Y-87032381D01*
X207879525Y-86508571D02*
X207927144Y-86413333D01*
X208022382Y-86365714D01*
X208165239Y-86365714D01*
X208260477Y-86413333D01*
X208308096Y-86508571D01*
X208308096Y-87032381D01*
X208784286Y-87032381D02*
X208784286Y-86365714D01*
X208784286Y-86460952D02*
X208831905Y-86413333D01*
X208927143Y-86365714D01*
X209070001Y-86365714D01*
X209165239Y-86413333D01*
X209212858Y-86508571D01*
X209212858Y-87032381D01*
X209212858Y-86508571D02*
X209260477Y-86413333D01*
X209355715Y-86365714D01*
X209498572Y-86365714D01*
X209593810Y-86413333D01*
X209641429Y-86508571D01*
X209641429Y-87032381D01*
M02*
