G04 #@! TF.FileFunction,Legend,Bot*
%FSLAX46Y46*%
G04 Gerber Fmt 4.6, Leading zero omitted, Abs format (unit mm)*
G04 Created by KiCad (PCBNEW 4.0.7) date 2018 March 18, Sunday 16:32:36*
%MOMM*%
%LPD*%
G01*
G04 APERTURE LIST*
%ADD10C,0.150000*%
%ADD11C,0.200000*%
G04 APERTURE END LIST*
D10*
D11*
X129287810Y-100787714D02*
X129325905Y-100711524D01*
X129325905Y-100559143D01*
X129287810Y-100482952D01*
X129211619Y-100444857D01*
X128906857Y-100444857D01*
X128830667Y-100482952D01*
X128792571Y-100559143D01*
X128792571Y-100711524D01*
X128830667Y-100787714D01*
X128906857Y-100825809D01*
X128983048Y-100825809D01*
X129059238Y-100444857D01*
X129325905Y-101168666D02*
X128525905Y-101168666D01*
X128525905Y-101473428D01*
X128564000Y-101549619D01*
X128602095Y-101587714D01*
X128678286Y-101625809D01*
X128792571Y-101625809D01*
X128868762Y-101587714D01*
X128906857Y-101549619D01*
X128944952Y-101473428D01*
X128944952Y-101168666D01*
X129325905Y-102311523D02*
X128906857Y-102311523D01*
X128830667Y-102273428D01*
X128792571Y-102197238D01*
X128792571Y-102044857D01*
X128830667Y-101968666D01*
X129287810Y-102311523D02*
X129325905Y-102235333D01*
X129325905Y-102044857D01*
X129287810Y-101968666D01*
X129211619Y-101930571D01*
X129135429Y-101930571D01*
X129059238Y-101968666D01*
X129021143Y-102044857D01*
X129021143Y-102235333D01*
X128983048Y-102311523D01*
X128792571Y-102692476D02*
X129592571Y-102692476D01*
X128830667Y-102692476D02*
X128792571Y-102768667D01*
X128792571Y-102921048D01*
X128830667Y-102997238D01*
X128868762Y-103035333D01*
X128944952Y-103073429D01*
X129173524Y-103073429D01*
X129249714Y-103035333D01*
X129287810Y-102997238D01*
X129325905Y-102921048D01*
X129325905Y-102768667D01*
X129287810Y-102692476D01*
X129287810Y-103721048D02*
X129325905Y-103644858D01*
X129325905Y-103492477D01*
X129287810Y-103416286D01*
X129211619Y-103378191D01*
X128906857Y-103378191D01*
X128830667Y-103416286D01*
X128792571Y-103492477D01*
X128792571Y-103644858D01*
X128830667Y-103721048D01*
X128906857Y-103759143D01*
X128983048Y-103759143D01*
X129059238Y-103378191D01*
X129325905Y-104102000D02*
X128792571Y-104102000D01*
X128944952Y-104102000D02*
X128868762Y-104140095D01*
X128830667Y-104178191D01*
X128792571Y-104254381D01*
X128792571Y-104330572D01*
X129097333Y-105168667D02*
X129097333Y-105549619D01*
X129325905Y-105092476D02*
X128525905Y-105359143D01*
X129325905Y-105625810D01*
X129325905Y-106235333D02*
X128525905Y-106235333D01*
X129287810Y-106235333D02*
X129325905Y-106159143D01*
X129325905Y-106006762D01*
X129287810Y-105930571D01*
X129249714Y-105892476D01*
X129173524Y-105854381D01*
X128944952Y-105854381D01*
X128868762Y-105892476D01*
X128830667Y-105930571D01*
X128792571Y-106006762D01*
X128792571Y-106159143D01*
X128830667Y-106235333D01*
X129325905Y-106959143D02*
X128906857Y-106959143D01*
X128830667Y-106921048D01*
X128792571Y-106844858D01*
X128792571Y-106692477D01*
X128830667Y-106616286D01*
X129287810Y-106959143D02*
X129325905Y-106882953D01*
X129325905Y-106692477D01*
X129287810Y-106616286D01*
X129211619Y-106578191D01*
X129135429Y-106578191D01*
X129059238Y-106616286D01*
X129021143Y-106692477D01*
X129021143Y-106882953D01*
X128983048Y-106959143D01*
X128792571Y-107340096D02*
X129592571Y-107340096D01*
X128830667Y-107340096D02*
X128792571Y-107416287D01*
X128792571Y-107568668D01*
X128830667Y-107644858D01*
X128868762Y-107682953D01*
X128944952Y-107721049D01*
X129173524Y-107721049D01*
X129249714Y-107682953D01*
X129287810Y-107644858D01*
X129325905Y-107568668D01*
X129325905Y-107416287D01*
X129287810Y-107340096D01*
X128792571Y-107949620D02*
X128792571Y-108254382D01*
X128525905Y-108063906D02*
X129211619Y-108063906D01*
X129287810Y-108102001D01*
X129325905Y-108178192D01*
X129325905Y-108254382D01*
X129287810Y-108825811D02*
X129325905Y-108749621D01*
X129325905Y-108597240D01*
X129287810Y-108521049D01*
X129211619Y-108482954D01*
X128906857Y-108482954D01*
X128830667Y-108521049D01*
X128792571Y-108597240D01*
X128792571Y-108749621D01*
X128830667Y-108825811D01*
X128906857Y-108863906D01*
X128983048Y-108863906D01*
X129059238Y-108482954D01*
X129325905Y-109206763D02*
X128792571Y-109206763D01*
X128944952Y-109206763D02*
X128868762Y-109244858D01*
X128830667Y-109282954D01*
X128792571Y-109359144D01*
X128792571Y-109435335D01*
X130192571Y-98978189D02*
X130192571Y-99282951D01*
X130725905Y-99092475D02*
X130040190Y-99092475D01*
X129964000Y-99130570D01*
X129925905Y-99206761D01*
X129925905Y-99282951D01*
X130725905Y-99663904D02*
X130687810Y-99587713D01*
X130649714Y-99549618D01*
X130573524Y-99511523D01*
X130344952Y-99511523D01*
X130268762Y-99549618D01*
X130230667Y-99587713D01*
X130192571Y-99663904D01*
X130192571Y-99778190D01*
X130230667Y-99854380D01*
X130268762Y-99892475D01*
X130344952Y-99930571D01*
X130573524Y-99930571D01*
X130649714Y-99892475D01*
X130687810Y-99854380D01*
X130725905Y-99778190D01*
X130725905Y-99663904D01*
X130725905Y-100273428D02*
X130192571Y-100273428D01*
X130344952Y-100273428D02*
X130268762Y-100311523D01*
X130230667Y-100349619D01*
X130192571Y-100425809D01*
X130192571Y-100502000D01*
X130497333Y-101340095D02*
X130497333Y-101721047D01*
X130725905Y-101263904D02*
X129925905Y-101530571D01*
X130725905Y-101797238D01*
X130725905Y-102406761D02*
X129925905Y-102406761D01*
X130687810Y-102406761D02*
X130725905Y-102330571D01*
X130725905Y-102178190D01*
X130687810Y-102101999D01*
X130649714Y-102063904D01*
X130573524Y-102025809D01*
X130344952Y-102025809D01*
X130268762Y-102063904D01*
X130230667Y-102101999D01*
X130192571Y-102178190D01*
X130192571Y-102330571D01*
X130230667Y-102406761D01*
X130725905Y-103130571D02*
X130306857Y-103130571D01*
X130230667Y-103092476D01*
X130192571Y-103016286D01*
X130192571Y-102863905D01*
X130230667Y-102787714D01*
X130687810Y-103130571D02*
X130725905Y-103054381D01*
X130725905Y-102863905D01*
X130687810Y-102787714D01*
X130611619Y-102749619D01*
X130535429Y-102749619D01*
X130459238Y-102787714D01*
X130421143Y-102863905D01*
X130421143Y-103054381D01*
X130383048Y-103130571D01*
X130192571Y-103397238D02*
X130192571Y-103702000D01*
X130725905Y-103511524D02*
X130040190Y-103511524D01*
X129964000Y-103549619D01*
X129925905Y-103625810D01*
X129925905Y-103702000D01*
X130725905Y-103968667D02*
X130192571Y-103968667D01*
X130344952Y-103968667D02*
X130268762Y-104006762D01*
X130230667Y-104044858D01*
X130192571Y-104121048D01*
X130192571Y-104197239D01*
X130192571Y-104806762D02*
X130725905Y-104806762D01*
X130192571Y-104463905D02*
X130611619Y-104463905D01*
X130687810Y-104502000D01*
X130725905Y-104578191D01*
X130725905Y-104692477D01*
X130687810Y-104768667D01*
X130649714Y-104806762D01*
X130725905Y-105187715D02*
X130192571Y-105187715D01*
X129925905Y-105187715D02*
X129964000Y-105149620D01*
X130002095Y-105187715D01*
X129964000Y-105225810D01*
X129925905Y-105187715D01*
X130002095Y-105187715D01*
X130192571Y-105454381D02*
X130192571Y-105759143D01*
X129925905Y-105568667D02*
X130611619Y-105568667D01*
X130687810Y-105606762D01*
X130725905Y-105682953D01*
X130725905Y-105759143D01*
X130306857Y-106902001D02*
X130306857Y-106635334D01*
X130725905Y-106635334D02*
X129925905Y-106635334D01*
X129925905Y-107016287D01*
X130687810Y-107625810D02*
X130725905Y-107549620D01*
X130725905Y-107397239D01*
X130687810Y-107321048D01*
X130611619Y-107282953D01*
X130306857Y-107282953D01*
X130230667Y-107321048D01*
X130192571Y-107397239D01*
X130192571Y-107549620D01*
X130230667Y-107625810D01*
X130306857Y-107663905D01*
X130383048Y-107663905D01*
X130459238Y-107282953D01*
X130725905Y-108349619D02*
X130306857Y-108349619D01*
X130230667Y-108311524D01*
X130192571Y-108235334D01*
X130192571Y-108082953D01*
X130230667Y-108006762D01*
X130687810Y-108349619D02*
X130725905Y-108273429D01*
X130725905Y-108082953D01*
X130687810Y-108006762D01*
X130611619Y-107968667D01*
X130535429Y-107968667D01*
X130459238Y-108006762D01*
X130421143Y-108082953D01*
X130421143Y-108273429D01*
X130383048Y-108349619D01*
X130192571Y-108616286D02*
X130192571Y-108921048D01*
X129925905Y-108730572D02*
X130611619Y-108730572D01*
X130687810Y-108768667D01*
X130725905Y-108844858D01*
X130725905Y-108921048D01*
X130725905Y-109187715D02*
X129925905Y-109187715D01*
X130725905Y-109530572D02*
X130306857Y-109530572D01*
X130230667Y-109492477D01*
X130192571Y-109416287D01*
X130192571Y-109302001D01*
X130230667Y-109225810D01*
X130268762Y-109187715D01*
X130687810Y-110216287D02*
X130725905Y-110140097D01*
X130725905Y-109987716D01*
X130687810Y-109911525D01*
X130611619Y-109873430D01*
X130306857Y-109873430D01*
X130230667Y-109911525D01*
X130192571Y-109987716D01*
X130192571Y-110140097D01*
X130230667Y-110216287D01*
X130306857Y-110254382D01*
X130383048Y-110254382D01*
X130459238Y-109873430D01*
X130725905Y-110597239D02*
X130192571Y-110597239D01*
X130344952Y-110597239D02*
X130268762Y-110635334D01*
X130230667Y-110673430D01*
X130192571Y-110749620D01*
X130192571Y-110825811D01*
X132125905Y-97378189D02*
X131744952Y-97111522D01*
X132125905Y-96921046D02*
X131325905Y-96921046D01*
X131325905Y-97225808D01*
X131364000Y-97301999D01*
X131402095Y-97340094D01*
X131478286Y-97378189D01*
X131592571Y-97378189D01*
X131668762Y-97340094D01*
X131706857Y-97301999D01*
X131744952Y-97225808D01*
X131744952Y-96921046D01*
X132087810Y-98025808D02*
X132125905Y-97949618D01*
X132125905Y-97797237D01*
X132087810Y-97721046D01*
X132011619Y-97682951D01*
X131706857Y-97682951D01*
X131630667Y-97721046D01*
X131592571Y-97797237D01*
X131592571Y-97949618D01*
X131630667Y-98025808D01*
X131706857Y-98063903D01*
X131783048Y-98063903D01*
X131859238Y-97682951D01*
X131592571Y-98330570D02*
X132125905Y-98521046D01*
X131592571Y-98711522D01*
X131325905Y-99778189D02*
X131325905Y-99854380D01*
X131364000Y-99930570D01*
X131402095Y-99968665D01*
X131478286Y-100006761D01*
X131630667Y-100044856D01*
X131821143Y-100044856D01*
X131973524Y-100006761D01*
X132049714Y-99968665D01*
X132087810Y-99930570D01*
X132125905Y-99854380D01*
X132125905Y-99778189D01*
X132087810Y-99701999D01*
X132049714Y-99663903D01*
X131973524Y-99625808D01*
X131821143Y-99587713D01*
X131630667Y-99587713D01*
X131478286Y-99625808D01*
X131402095Y-99663903D01*
X131364000Y-99701999D01*
X131325905Y-99778189D01*
X132049714Y-100387713D02*
X132087810Y-100425808D01*
X132125905Y-100387713D01*
X132087810Y-100349618D01*
X132049714Y-100387713D01*
X132125905Y-100387713D01*
X132125905Y-100806760D02*
X132125905Y-100959141D01*
X132087810Y-101035332D01*
X132049714Y-101073427D01*
X131935429Y-101149618D01*
X131783048Y-101187713D01*
X131478286Y-101187713D01*
X131402095Y-101149618D01*
X131364000Y-101111522D01*
X131325905Y-101035332D01*
X131325905Y-100882951D01*
X131364000Y-100806760D01*
X131402095Y-100768665D01*
X131478286Y-100730570D01*
X131668762Y-100730570D01*
X131744952Y-100768665D01*
X131783048Y-100806760D01*
X131821143Y-100882951D01*
X131821143Y-101035332D01*
X131783048Y-101111522D01*
X131744952Y-101149618D01*
X131668762Y-101187713D01*
X132087810Y-102101999D02*
X132125905Y-102216285D01*
X132125905Y-102406761D01*
X132087810Y-102482951D01*
X132049714Y-102521047D01*
X131973524Y-102559142D01*
X131897333Y-102559142D01*
X131821143Y-102521047D01*
X131783048Y-102482951D01*
X131744952Y-102406761D01*
X131706857Y-102254380D01*
X131668762Y-102178189D01*
X131630667Y-102140094D01*
X131554476Y-102101999D01*
X131478286Y-102101999D01*
X131402095Y-102140094D01*
X131364000Y-102178189D01*
X131325905Y-102254380D01*
X131325905Y-102444856D01*
X131364000Y-102559142D01*
X131592571Y-103244856D02*
X132125905Y-103244856D01*
X131592571Y-102901999D02*
X132011619Y-102901999D01*
X132087810Y-102940094D01*
X132125905Y-103016285D01*
X132125905Y-103130571D01*
X132087810Y-103206761D01*
X132049714Y-103244856D01*
X131592571Y-103625809D02*
X132125905Y-103625809D01*
X131668762Y-103625809D02*
X131630667Y-103663904D01*
X131592571Y-103740095D01*
X131592571Y-103854381D01*
X131630667Y-103930571D01*
X131706857Y-103968666D01*
X132125905Y-103968666D01*
X132125905Y-104959143D02*
X131325905Y-104959143D01*
X131897333Y-105225810D01*
X131325905Y-105492477D01*
X132125905Y-105492477D01*
X132125905Y-106216286D02*
X131706857Y-106216286D01*
X131630667Y-106178191D01*
X131592571Y-106102001D01*
X131592571Y-105949620D01*
X131630667Y-105873429D01*
X132087810Y-106216286D02*
X132125905Y-106140096D01*
X132125905Y-105949620D01*
X132087810Y-105873429D01*
X132011619Y-105835334D01*
X131935429Y-105835334D01*
X131859238Y-105873429D01*
X131821143Y-105949620D01*
X131821143Y-106140096D01*
X131783048Y-106216286D01*
X132125905Y-106597239D02*
X131592571Y-106597239D01*
X131744952Y-106597239D02*
X131668762Y-106635334D01*
X131630667Y-106673430D01*
X131592571Y-106749620D01*
X131592571Y-106825811D01*
X132125905Y-108121049D02*
X132125905Y-107663906D01*
X132125905Y-107892477D02*
X131325905Y-107892477D01*
X131440190Y-107816287D01*
X131516381Y-107740096D01*
X131554476Y-107663906D01*
X131668762Y-108578192D02*
X131630667Y-108502001D01*
X131592571Y-108463906D01*
X131516381Y-108425811D01*
X131478286Y-108425811D01*
X131402095Y-108463906D01*
X131364000Y-108502001D01*
X131325905Y-108578192D01*
X131325905Y-108730573D01*
X131364000Y-108806763D01*
X131402095Y-108844859D01*
X131478286Y-108882954D01*
X131516381Y-108882954D01*
X131592571Y-108844859D01*
X131630667Y-108806763D01*
X131668762Y-108730573D01*
X131668762Y-108578192D01*
X131706857Y-108502001D01*
X131744952Y-108463906D01*
X131821143Y-108425811D01*
X131973524Y-108425811D01*
X132049714Y-108463906D01*
X132087810Y-108502001D01*
X132125905Y-108578192D01*
X132125905Y-108730573D01*
X132087810Y-108806763D01*
X132049714Y-108844859D01*
X131973524Y-108882954D01*
X131821143Y-108882954D01*
X131744952Y-108844859D01*
X131706857Y-108806763D01*
X131668762Y-108730573D01*
X132087810Y-109263906D02*
X132125905Y-109263906D01*
X132202095Y-109225811D01*
X132240190Y-109187716D01*
X131402095Y-110178192D02*
X131364000Y-110216287D01*
X131325905Y-110292478D01*
X131325905Y-110482954D01*
X131364000Y-110559144D01*
X131402095Y-110597240D01*
X131478286Y-110635335D01*
X131554476Y-110635335D01*
X131668762Y-110597240D01*
X132125905Y-110140097D01*
X132125905Y-110635335D01*
X131325905Y-111130573D02*
X131325905Y-111206764D01*
X131364000Y-111282954D01*
X131402095Y-111321049D01*
X131478286Y-111359145D01*
X131630667Y-111397240D01*
X131821143Y-111397240D01*
X131973524Y-111359145D01*
X132049714Y-111321049D01*
X132087810Y-111282954D01*
X132125905Y-111206764D01*
X132125905Y-111130573D01*
X132087810Y-111054383D01*
X132049714Y-111016287D01*
X131973524Y-110978192D01*
X131821143Y-110940097D01*
X131630667Y-110940097D01*
X131478286Y-110978192D01*
X131402095Y-111016287D01*
X131364000Y-111054383D01*
X131325905Y-111130573D01*
X132125905Y-112159145D02*
X132125905Y-111702002D01*
X132125905Y-111930573D02*
X131325905Y-111930573D01*
X131440190Y-111854383D01*
X131516381Y-111778192D01*
X131554476Y-111702002D01*
X131668762Y-112616288D02*
X131630667Y-112540097D01*
X131592571Y-112502002D01*
X131516381Y-112463907D01*
X131478286Y-112463907D01*
X131402095Y-112502002D01*
X131364000Y-112540097D01*
X131325905Y-112616288D01*
X131325905Y-112768669D01*
X131364000Y-112844859D01*
X131402095Y-112882955D01*
X131478286Y-112921050D01*
X131516381Y-112921050D01*
X131592571Y-112882955D01*
X131630667Y-112844859D01*
X131668762Y-112768669D01*
X131668762Y-112616288D01*
X131706857Y-112540097D01*
X131744952Y-112502002D01*
X131821143Y-112463907D01*
X131973524Y-112463907D01*
X132049714Y-112502002D01*
X132087810Y-112540097D01*
X132125905Y-112616288D01*
X132125905Y-112768669D01*
X132087810Y-112844859D01*
X132049714Y-112882955D01*
X131973524Y-112921050D01*
X131821143Y-112921050D01*
X131744952Y-112882955D01*
X131706857Y-112844859D01*
X131668762Y-112768669D01*
X133144952Y-99530569D02*
X133106857Y-99492474D01*
X133068762Y-99416284D01*
X133068762Y-99340093D01*
X133106857Y-99263903D01*
X133144952Y-99225807D01*
X133221143Y-99187712D01*
X133297333Y-99187712D01*
X133373524Y-99225807D01*
X133411619Y-99263903D01*
X133449714Y-99340093D01*
X133449714Y-99416284D01*
X133411619Y-99492474D01*
X133373524Y-99530569D01*
X133068762Y-99530569D02*
X133373524Y-99530569D01*
X133411619Y-99568665D01*
X133411619Y-99606760D01*
X133373524Y-99682950D01*
X133297333Y-99721045D01*
X133106857Y-99721045D01*
X132992571Y-99644855D01*
X132916381Y-99530569D01*
X132878286Y-99378188D01*
X132916381Y-99225807D01*
X132992571Y-99111522D01*
X133106857Y-99035331D01*
X133259238Y-98997236D01*
X133411619Y-99035331D01*
X133525905Y-99111522D01*
X133602095Y-99225807D01*
X133640190Y-99378188D01*
X133602095Y-99530569D01*
X133525905Y-99644855D01*
X133525905Y-100063902D02*
X132725905Y-100063902D01*
X133525905Y-100406759D02*
X133106857Y-100406759D01*
X133030667Y-100368664D01*
X132992571Y-100292474D01*
X132992571Y-100178188D01*
X133030667Y-100101997D01*
X133068762Y-100063902D01*
X133525905Y-101130569D02*
X133106857Y-101130569D01*
X133030667Y-101092474D01*
X132992571Y-101016284D01*
X132992571Y-100863903D01*
X133030667Y-100787712D01*
X133487810Y-101130569D02*
X133525905Y-101054379D01*
X133525905Y-100863903D01*
X133487810Y-100787712D01*
X133411619Y-100749617D01*
X133335429Y-100749617D01*
X133259238Y-100787712D01*
X133221143Y-100863903D01*
X133221143Y-101054379D01*
X133183048Y-101130569D01*
X132992571Y-101511522D02*
X133525905Y-101511522D01*
X133068762Y-101511522D02*
X133030667Y-101549617D01*
X132992571Y-101625808D01*
X132992571Y-101740094D01*
X133030667Y-101816284D01*
X133106857Y-101854379D01*
X133525905Y-101854379D01*
X132992571Y-102159142D02*
X133525905Y-102349618D01*
X132992571Y-102540094D02*
X133525905Y-102349618D01*
X133716381Y-102273427D01*
X133754476Y-102235332D01*
X133792571Y-102159142D01*
X133525905Y-103187713D02*
X133106857Y-103187713D01*
X133030667Y-103149618D01*
X132992571Y-103073428D01*
X132992571Y-102921047D01*
X133030667Y-102844856D01*
X133487810Y-103187713D02*
X133525905Y-103111523D01*
X133525905Y-102921047D01*
X133487810Y-102844856D01*
X133411619Y-102806761D01*
X133335429Y-102806761D01*
X133259238Y-102844856D01*
X133221143Y-102921047D01*
X133221143Y-103111523D01*
X133183048Y-103187713D01*
X132992571Y-103492476D02*
X132992571Y-103911523D01*
X133525905Y-103492476D01*
X133525905Y-103911523D01*
X133525905Y-104330571D02*
X133487810Y-104254380D01*
X133449714Y-104216285D01*
X133373524Y-104178190D01*
X133144952Y-104178190D01*
X133068762Y-104216285D01*
X133030667Y-104254380D01*
X132992571Y-104330571D01*
X132992571Y-104444857D01*
X133030667Y-104521047D01*
X133068762Y-104559142D01*
X133144952Y-104597238D01*
X133373524Y-104597238D01*
X133449714Y-104559142D01*
X133487810Y-104521047D01*
X133525905Y-104444857D01*
X133525905Y-104330571D01*
X132992571Y-105282952D02*
X133525905Y-105282952D01*
X132992571Y-104940095D02*
X133411619Y-104940095D01*
X133487810Y-104978190D01*
X133525905Y-105054381D01*
X133525905Y-105168667D01*
X133487810Y-105244857D01*
X133449714Y-105282952D01*
D10*
X125857000Y-115570000D02*
G75*
G02X123317000Y-113030000I0J2540000D01*
G01*
X123317000Y-95250000D02*
G75*
G02X125857000Y-92710000I2540000J0D01*
G01*
X171577000Y-92710000D02*
G75*
G02X174117000Y-95250000I0J-2540000D01*
G01*
X174117000Y-113030000D02*
G75*
G02X171577000Y-115570000I-2540000J0D01*
G01*
X174117000Y-113030000D02*
X174117000Y-95250000D01*
X125857000Y-115570000D02*
X171577000Y-115570000D01*
X123317000Y-95250000D02*
X123317000Y-113030000D01*
X125857000Y-92710000D02*
X171577000Y-92710000D01*
X171577000Y-92710000D02*
X125857000Y-92710000D01*
X142933666Y-113092667D02*
X143167000Y-112759333D01*
X143333666Y-113092667D02*
X143333666Y-112392667D01*
X143067000Y-112392667D01*
X143000333Y-112426000D01*
X142967000Y-112459333D01*
X142933666Y-112526000D01*
X142933666Y-112626000D01*
X142967000Y-112692667D01*
X143000333Y-112726000D01*
X143067000Y-112759333D01*
X143333666Y-112759333D01*
X142367000Y-113059333D02*
X142433666Y-113092667D01*
X142567000Y-113092667D01*
X142633666Y-113059333D01*
X142667000Y-112992667D01*
X142667000Y-112726000D01*
X142633666Y-112659333D01*
X142567000Y-112626000D01*
X142433666Y-112626000D01*
X142367000Y-112659333D01*
X142333666Y-112726000D01*
X142333666Y-112792667D01*
X142667000Y-112859333D01*
X141733666Y-112626000D02*
X141733666Y-113192667D01*
X141767000Y-113259333D01*
X141800333Y-113292667D01*
X141867000Y-113326000D01*
X141967000Y-113326000D01*
X142033666Y-113292667D01*
X141733666Y-113059333D02*
X141800333Y-113092667D01*
X141933666Y-113092667D01*
X142000333Y-113059333D01*
X142033666Y-113026000D01*
X142067000Y-112959333D01*
X142067000Y-112759333D01*
X142033666Y-112692667D01*
X142000333Y-112659333D01*
X141933666Y-112626000D01*
X141800333Y-112626000D01*
X141733666Y-112659333D01*
X141400333Y-113026000D02*
X141367000Y-113059333D01*
X141400333Y-113092667D01*
X141433667Y-113059333D01*
X141400333Y-113026000D01*
X141400333Y-113092667D01*
X140976999Y-112392667D02*
X140743666Y-113092667D01*
X140510333Y-112392667D01*
X140043666Y-112726000D02*
X139943666Y-112759333D01*
X139910333Y-112792667D01*
X139876999Y-112859333D01*
X139876999Y-112959333D01*
X139910333Y-113026000D01*
X139943666Y-113059333D01*
X140010333Y-113092667D01*
X140276999Y-113092667D01*
X140276999Y-112392667D01*
X140043666Y-112392667D01*
X139976999Y-112426000D01*
X139943666Y-112459333D01*
X139910333Y-112526000D01*
X139910333Y-112592667D01*
X139943666Y-112659333D01*
X139976999Y-112692667D01*
X140043666Y-112726000D01*
X140276999Y-112726000D01*
X139610333Y-112892667D02*
X139276999Y-112892667D01*
X139676999Y-113092667D02*
X139443666Y-112392667D01*
X139210333Y-113092667D01*
X139076999Y-112392667D02*
X138676999Y-112392667D01*
X138876999Y-113092667D02*
X138876999Y-112392667D01*
X142833666Y-111862400D02*
X142600333Y-111862400D01*
X142500333Y-112229067D02*
X142833666Y-112229067D01*
X142833666Y-111529067D01*
X142500333Y-111529067D01*
X142200333Y-111762400D02*
X142200333Y-112229067D01*
X142200333Y-111829067D02*
X142167000Y-111795733D01*
X142100333Y-111762400D01*
X142000333Y-111762400D01*
X141933667Y-111795733D01*
X141900333Y-111862400D01*
X141900333Y-112229067D01*
X146190333Y-112392667D02*
X145957000Y-113092667D01*
X145723667Y-112392667D01*
X145257000Y-112726000D02*
X145157000Y-112759333D01*
X145123667Y-112792667D01*
X145090333Y-112859333D01*
X145090333Y-112959333D01*
X145123667Y-113026000D01*
X145157000Y-113059333D01*
X145223667Y-113092667D01*
X145490333Y-113092667D01*
X145490333Y-112392667D01*
X145257000Y-112392667D01*
X145190333Y-112426000D01*
X145157000Y-112459333D01*
X145123667Y-112526000D01*
X145123667Y-112592667D01*
X145157000Y-112659333D01*
X145190333Y-112692667D01*
X145257000Y-112726000D01*
X145490333Y-112726000D01*
X144790333Y-112392667D02*
X144790333Y-112959333D01*
X144757000Y-113026000D01*
X144723667Y-113059333D01*
X144657000Y-113092667D01*
X144523667Y-113092667D01*
X144457000Y-113059333D01*
X144423667Y-113026000D01*
X144390333Y-112959333D01*
X144390333Y-112392667D01*
X144090334Y-113059333D02*
X143990334Y-113092667D01*
X143823667Y-113092667D01*
X143757000Y-113059333D01*
X143723667Y-113026000D01*
X143690334Y-112959333D01*
X143690334Y-112892667D01*
X143723667Y-112826000D01*
X143757000Y-112792667D01*
X143823667Y-112759333D01*
X143957000Y-112726000D01*
X144023667Y-112692667D01*
X144057000Y-112659333D01*
X144090334Y-112592667D01*
X144090334Y-112526000D01*
X144057000Y-112459333D01*
X144023667Y-112426000D01*
X143957000Y-112392667D01*
X143790334Y-112392667D01*
X143690334Y-112426000D01*
X148418429Y-113137905D02*
X148418429Y-112337905D01*
X148227953Y-112337905D01*
X148113667Y-112376000D01*
X148037476Y-112452190D01*
X147999381Y-112528381D01*
X147961286Y-112680762D01*
X147961286Y-112795048D01*
X147999381Y-112947429D01*
X148037476Y-113023619D01*
X148113667Y-113099810D01*
X148227953Y-113137905D01*
X148418429Y-113137905D01*
X147199381Y-113137905D02*
X147656524Y-113137905D01*
X147427953Y-113137905D02*
X147427953Y-112337905D01*
X147504143Y-112452190D01*
X147580334Y-112528381D01*
X147656524Y-112566476D01*
X146932714Y-112337905D02*
X146437476Y-112337905D01*
X146704143Y-112642667D01*
X146589857Y-112642667D01*
X146513667Y-112680762D01*
X146475571Y-112718857D01*
X146437476Y-112795048D01*
X146437476Y-112985524D01*
X146475571Y-113061714D01*
X146513667Y-113099810D01*
X146589857Y-113137905D01*
X146818429Y-113137905D01*
X146894619Y-113099810D01*
X146932714Y-113061714D01*
X150907629Y-113137905D02*
X150907629Y-112337905D01*
X150717153Y-112337905D01*
X150602867Y-112376000D01*
X150526676Y-112452190D01*
X150488581Y-112528381D01*
X150450486Y-112680762D01*
X150450486Y-112795048D01*
X150488581Y-112947429D01*
X150526676Y-113023619D01*
X150602867Y-113099810D01*
X150717153Y-113137905D01*
X150907629Y-113137905D01*
X149688581Y-113137905D02*
X150145724Y-113137905D01*
X149917153Y-113137905D02*
X149917153Y-112337905D01*
X149993343Y-112452190D01*
X150069534Y-112528381D01*
X150145724Y-112566476D01*
X149383819Y-112414095D02*
X149345724Y-112376000D01*
X149269533Y-112337905D01*
X149079057Y-112337905D01*
X149002867Y-112376000D01*
X148964771Y-112414095D01*
X148926676Y-112490286D01*
X148926676Y-112566476D01*
X148964771Y-112680762D01*
X149421914Y-113137905D01*
X148926676Y-113137905D01*
X153498429Y-113137905D02*
X153498429Y-112337905D01*
X153307953Y-112337905D01*
X153193667Y-112376000D01*
X153117476Y-112452190D01*
X153079381Y-112528381D01*
X153041286Y-112680762D01*
X153041286Y-112795048D01*
X153079381Y-112947429D01*
X153117476Y-113023619D01*
X153193667Y-113099810D01*
X153307953Y-113137905D01*
X153498429Y-113137905D01*
X152279381Y-113137905D02*
X152736524Y-113137905D01*
X152507953Y-113137905D02*
X152507953Y-112337905D01*
X152584143Y-112452190D01*
X152660334Y-112528381D01*
X152736524Y-112566476D01*
X151517476Y-113137905D02*
X151974619Y-113137905D01*
X151746048Y-113137905D02*
X151746048Y-112337905D01*
X151822238Y-112452190D01*
X151898429Y-112528381D01*
X151974619Y-112566476D01*
X156038429Y-113137905D02*
X156038429Y-112337905D01*
X155847953Y-112337905D01*
X155733667Y-112376000D01*
X155657476Y-112452190D01*
X155619381Y-112528381D01*
X155581286Y-112680762D01*
X155581286Y-112795048D01*
X155619381Y-112947429D01*
X155657476Y-113023619D01*
X155733667Y-113099810D01*
X155847953Y-113137905D01*
X156038429Y-113137905D01*
X154819381Y-113137905D02*
X155276524Y-113137905D01*
X155047953Y-113137905D02*
X155047953Y-112337905D01*
X155124143Y-112452190D01*
X155200334Y-112528381D01*
X155276524Y-112566476D01*
X154324143Y-112337905D02*
X154247952Y-112337905D01*
X154171762Y-112376000D01*
X154133667Y-112414095D01*
X154095571Y-112490286D01*
X154057476Y-112642667D01*
X154057476Y-112833143D01*
X154095571Y-112985524D01*
X154133667Y-113061714D01*
X154171762Y-113099810D01*
X154247952Y-113137905D01*
X154324143Y-113137905D01*
X154400333Y-113099810D01*
X154438429Y-113061714D01*
X154476524Y-112985524D01*
X154514619Y-112833143D01*
X154514619Y-112642667D01*
X154476524Y-112490286D01*
X154438429Y-112414095D01*
X154400333Y-112376000D01*
X154324143Y-112337905D01*
X158197476Y-113137905D02*
X158197476Y-112337905D01*
X158007000Y-112337905D01*
X157892714Y-112376000D01*
X157816523Y-112452190D01*
X157778428Y-112528381D01*
X157740333Y-112680762D01*
X157740333Y-112795048D01*
X157778428Y-112947429D01*
X157816523Y-113023619D01*
X157892714Y-113099810D01*
X158007000Y-113137905D01*
X158197476Y-113137905D01*
X157359381Y-113137905D02*
X157207000Y-113137905D01*
X157130809Y-113099810D01*
X157092714Y-113061714D01*
X157016523Y-112947429D01*
X156978428Y-112795048D01*
X156978428Y-112490286D01*
X157016523Y-112414095D01*
X157054619Y-112376000D01*
X157130809Y-112337905D01*
X157283190Y-112337905D01*
X157359381Y-112376000D01*
X157397476Y-112414095D01*
X157435571Y-112490286D01*
X157435571Y-112680762D01*
X157397476Y-112756952D01*
X157359381Y-112795048D01*
X157283190Y-112833143D01*
X157130809Y-112833143D01*
X157054619Y-112795048D01*
X157016523Y-112756952D01*
X156978428Y-112680762D01*
X160737476Y-113137905D02*
X160737476Y-112337905D01*
X160547000Y-112337905D01*
X160432714Y-112376000D01*
X160356523Y-112452190D01*
X160318428Y-112528381D01*
X160280333Y-112680762D01*
X160280333Y-112795048D01*
X160318428Y-112947429D01*
X160356523Y-113023619D01*
X160432714Y-113099810D01*
X160547000Y-113137905D01*
X160737476Y-113137905D01*
X159594619Y-112337905D02*
X159747000Y-112337905D01*
X159823190Y-112376000D01*
X159861285Y-112414095D01*
X159937476Y-112528381D01*
X159975571Y-112680762D01*
X159975571Y-112985524D01*
X159937476Y-113061714D01*
X159899381Y-113099810D01*
X159823190Y-113137905D01*
X159670809Y-113137905D01*
X159594619Y-113099810D01*
X159556523Y-113061714D01*
X159518428Y-112985524D01*
X159518428Y-112795048D01*
X159556523Y-112718857D01*
X159594619Y-112680762D01*
X159670809Y-112642667D01*
X159823190Y-112642667D01*
X159899381Y-112680762D01*
X159937476Y-112718857D01*
X159975571Y-112795048D01*
X163277476Y-113137905D02*
X163277476Y-112337905D01*
X163087000Y-112337905D01*
X162972714Y-112376000D01*
X162896523Y-112452190D01*
X162858428Y-112528381D01*
X162820333Y-112680762D01*
X162820333Y-112795048D01*
X162858428Y-112947429D01*
X162896523Y-113023619D01*
X162972714Y-113099810D01*
X163087000Y-113137905D01*
X163277476Y-113137905D01*
X162096523Y-112337905D02*
X162477476Y-112337905D01*
X162515571Y-112718857D01*
X162477476Y-112680762D01*
X162401285Y-112642667D01*
X162210809Y-112642667D01*
X162134619Y-112680762D01*
X162096523Y-112718857D01*
X162058428Y-112795048D01*
X162058428Y-112985524D01*
X162096523Y-113061714D01*
X162134619Y-113099810D01*
X162210809Y-113137905D01*
X162401285Y-113137905D01*
X162477476Y-113099810D01*
X162515571Y-113061714D01*
X166179381Y-113099810D02*
X166065095Y-113137905D01*
X165874619Y-113137905D01*
X165798429Y-113099810D01*
X165760333Y-113061714D01*
X165722238Y-112985524D01*
X165722238Y-112909333D01*
X165760333Y-112833143D01*
X165798429Y-112795048D01*
X165874619Y-112756952D01*
X166027000Y-112718857D01*
X166103191Y-112680762D01*
X166141286Y-112642667D01*
X166179381Y-112566476D01*
X166179381Y-112490286D01*
X166141286Y-112414095D01*
X166103191Y-112376000D01*
X166027000Y-112337905D01*
X165836524Y-112337905D01*
X165722238Y-112376000D01*
X164922238Y-113061714D02*
X164960333Y-113099810D01*
X165074619Y-113137905D01*
X165150809Y-113137905D01*
X165265095Y-113099810D01*
X165341286Y-113023619D01*
X165379381Y-112947429D01*
X165417476Y-112795048D01*
X165417476Y-112680762D01*
X165379381Y-112528381D01*
X165341286Y-112452190D01*
X165265095Y-112376000D01*
X165150809Y-112337905D01*
X165074619Y-112337905D01*
X164960333Y-112376000D01*
X164922238Y-112414095D01*
X164198428Y-113137905D02*
X164579381Y-113137905D01*
X164579381Y-112337905D01*
X168738428Y-113099810D02*
X168624142Y-113137905D01*
X168433666Y-113137905D01*
X168357476Y-113099810D01*
X168319380Y-113061714D01*
X168281285Y-112985524D01*
X168281285Y-112909333D01*
X168319380Y-112833143D01*
X168357476Y-112795048D01*
X168433666Y-112756952D01*
X168586047Y-112718857D01*
X168662238Y-112680762D01*
X168700333Y-112642667D01*
X168738428Y-112566476D01*
X168738428Y-112490286D01*
X168700333Y-112414095D01*
X168662238Y-112376000D01*
X168586047Y-112337905D01*
X168395571Y-112337905D01*
X168281285Y-112376000D01*
X167938428Y-113137905D02*
X167938428Y-112337905D01*
X167747952Y-112337905D01*
X167633666Y-112376000D01*
X167557475Y-112452190D01*
X167519380Y-112528381D01*
X167481285Y-112680762D01*
X167481285Y-112795048D01*
X167519380Y-112947429D01*
X167557475Y-113023619D01*
X167633666Y-113099810D01*
X167747952Y-113137905D01*
X167938428Y-113137905D01*
X167176523Y-112909333D02*
X166795571Y-112909333D01*
X167252714Y-113137905D02*
X166986047Y-112337905D01*
X166719380Y-113137905D01*
X168376523Y-95358000D02*
X168452714Y-95319905D01*
X168566999Y-95319905D01*
X168681285Y-95358000D01*
X168757476Y-95434190D01*
X168795571Y-95510381D01*
X168833666Y-95662762D01*
X168833666Y-95777048D01*
X168795571Y-95929429D01*
X168757476Y-96005619D01*
X168681285Y-96081810D01*
X168566999Y-96119905D01*
X168490809Y-96119905D01*
X168376523Y-96081810D01*
X168338428Y-96043714D01*
X168338428Y-95777048D01*
X168490809Y-95777048D01*
X167995571Y-96119905D02*
X167995571Y-95319905D01*
X167538428Y-96119905D01*
X167538428Y-95319905D01*
X167157476Y-96119905D02*
X167157476Y-95319905D01*
X166967000Y-95319905D01*
X166852714Y-95358000D01*
X166776523Y-95434190D01*
X166738428Y-95510381D01*
X166700333Y-95662762D01*
X166700333Y-95777048D01*
X166738428Y-95929429D01*
X166776523Y-96005619D01*
X166852714Y-96081810D01*
X166967000Y-96119905D01*
X167157476Y-96119905D01*
X165836524Y-95319905D02*
X165379381Y-95319905D01*
X165607952Y-96119905D02*
X165607952Y-95319905D01*
X165188904Y-95319905D02*
X164655571Y-96119905D01*
X164655571Y-95319905D02*
X165188904Y-96119905D01*
X162871133Y-96119905D02*
X163137800Y-95738952D01*
X163328276Y-96119905D02*
X163328276Y-95319905D01*
X163023514Y-95319905D01*
X162947323Y-95358000D01*
X162909228Y-95396095D01*
X162871133Y-95472286D01*
X162871133Y-95586571D01*
X162909228Y-95662762D01*
X162947323Y-95700857D01*
X163023514Y-95738952D01*
X163328276Y-95738952D01*
X162604466Y-95319905D02*
X162071133Y-96119905D01*
X162071133Y-95319905D02*
X162604466Y-96119905D01*
X161246999Y-96074667D02*
X161246999Y-95374667D01*
X161013666Y-95874667D01*
X160780333Y-95374667D01*
X160780333Y-96074667D01*
X160446999Y-96074667D02*
X160446999Y-95374667D01*
X160147000Y-96041333D02*
X160047000Y-96074667D01*
X159880333Y-96074667D01*
X159813666Y-96041333D01*
X159780333Y-96008000D01*
X159747000Y-95941333D01*
X159747000Y-95874667D01*
X159780333Y-95808000D01*
X159813666Y-95774667D01*
X159880333Y-95741333D01*
X160013666Y-95708000D01*
X160080333Y-95674667D01*
X160113666Y-95641333D01*
X160147000Y-95574667D01*
X160147000Y-95508000D01*
X160113666Y-95441333D01*
X160080333Y-95408000D01*
X160013666Y-95374667D01*
X159847000Y-95374667D01*
X159747000Y-95408000D01*
X159313666Y-95374667D02*
X159180333Y-95374667D01*
X159113666Y-95408000D01*
X159046999Y-95474667D01*
X159013666Y-95608000D01*
X159013666Y-95841333D01*
X159046999Y-95974667D01*
X159113666Y-96041333D01*
X159180333Y-96074667D01*
X159313666Y-96074667D01*
X159380333Y-96041333D01*
X159446999Y-95974667D01*
X159480333Y-95841333D01*
X159480333Y-95608000D01*
X159446999Y-95474667D01*
X159380333Y-95408000D01*
X159313666Y-95374667D01*
X158706999Y-96074667D02*
X158706999Y-95374667D01*
X158473666Y-95874667D01*
X158240333Y-95374667D01*
X158240333Y-96074667D01*
X157773666Y-95374667D02*
X157640333Y-95374667D01*
X157573666Y-95408000D01*
X157506999Y-95474667D01*
X157473666Y-95608000D01*
X157473666Y-95841333D01*
X157506999Y-95974667D01*
X157573666Y-96041333D01*
X157640333Y-96074667D01*
X157773666Y-96074667D01*
X157840333Y-96041333D01*
X157906999Y-95974667D01*
X157940333Y-95841333D01*
X157940333Y-95608000D01*
X157906999Y-95474667D01*
X157840333Y-95408000D01*
X157773666Y-95374667D01*
X157207000Y-96041333D02*
X157107000Y-96074667D01*
X156940333Y-96074667D01*
X156873666Y-96041333D01*
X156840333Y-96008000D01*
X156807000Y-95941333D01*
X156807000Y-95874667D01*
X156840333Y-95808000D01*
X156873666Y-95774667D01*
X156940333Y-95741333D01*
X157073666Y-95708000D01*
X157140333Y-95674667D01*
X157173666Y-95641333D01*
X157207000Y-95574667D01*
X157207000Y-95508000D01*
X157173666Y-95441333D01*
X157140333Y-95408000D01*
X157073666Y-95374667D01*
X156907000Y-95374667D01*
X156807000Y-95408000D01*
X156506999Y-96074667D02*
X156506999Y-95374667D01*
X156250334Y-96041333D02*
X156150334Y-96074667D01*
X155983667Y-96074667D01*
X155917000Y-96041333D01*
X155883667Y-96008000D01*
X155850334Y-95941333D01*
X155850334Y-95874667D01*
X155883667Y-95808000D01*
X155917000Y-95774667D01*
X155983667Y-95741333D01*
X156117000Y-95708000D01*
X156183667Y-95674667D01*
X156217000Y-95641333D01*
X156250334Y-95574667D01*
X156250334Y-95508000D01*
X156217000Y-95441333D01*
X156183667Y-95408000D01*
X156117000Y-95374667D01*
X155950334Y-95374667D01*
X155850334Y-95408000D01*
X155150333Y-96008000D02*
X155183667Y-96041333D01*
X155283667Y-96074667D01*
X155350333Y-96074667D01*
X155450333Y-96041333D01*
X155517000Y-95974667D01*
X155550333Y-95908000D01*
X155583667Y-95774667D01*
X155583667Y-95674667D01*
X155550333Y-95541333D01*
X155517000Y-95474667D01*
X155450333Y-95408000D01*
X155350333Y-95374667D01*
X155283667Y-95374667D01*
X155183667Y-95408000D01*
X155150333Y-95441333D01*
X154517000Y-96074667D02*
X154850333Y-96074667D01*
X154850333Y-95374667D01*
X154283666Y-96074667D02*
X154283666Y-95374667D01*
X153883666Y-96074667D02*
X154183666Y-95674667D01*
X153883666Y-95374667D02*
X154283666Y-95774667D01*
X153098428Y-95891333D02*
X152717476Y-95891333D01*
X153174619Y-96119905D02*
X152907952Y-95319905D01*
X152641285Y-96119905D01*
X151993666Y-95319905D02*
X152374619Y-95319905D01*
X152412714Y-95700857D01*
X152374619Y-95662762D01*
X152298428Y-95624667D01*
X152107952Y-95624667D01*
X152031762Y-95662762D01*
X151993666Y-95700857D01*
X151955571Y-95777048D01*
X151955571Y-95967524D01*
X151993666Y-96043714D01*
X152031762Y-96081810D01*
X152107952Y-96119905D01*
X152298428Y-96119905D01*
X152374619Y-96081810D01*
X152412714Y-96043714D01*
X150558428Y-95891333D02*
X150177476Y-95891333D01*
X150634619Y-96119905D02*
X150367952Y-95319905D01*
X150101285Y-96119905D01*
X149491762Y-95586571D02*
X149491762Y-96119905D01*
X149682238Y-95281810D02*
X149872714Y-95853238D01*
X149377476Y-95853238D01*
X148018428Y-95891333D02*
X147637476Y-95891333D01*
X148094619Y-96119905D02*
X147827952Y-95319905D01*
X147561285Y-96119905D01*
X147370809Y-95319905D02*
X146875571Y-95319905D01*
X147142238Y-95624667D01*
X147027952Y-95624667D01*
X146951762Y-95662762D01*
X146913666Y-95700857D01*
X146875571Y-95777048D01*
X146875571Y-95967524D01*
X146913666Y-96043714D01*
X146951762Y-96081810D01*
X147027952Y-96119905D01*
X147256524Y-96119905D01*
X147332714Y-96081810D01*
X147370809Y-96043714D01*
X145478428Y-95891333D02*
X145097476Y-95891333D01*
X145554619Y-96119905D02*
X145287952Y-95319905D01*
X145021285Y-96119905D01*
X144792714Y-95396095D02*
X144754619Y-95358000D01*
X144678428Y-95319905D01*
X144487952Y-95319905D01*
X144411762Y-95358000D01*
X144373666Y-95396095D01*
X144335571Y-95472286D01*
X144335571Y-95548476D01*
X144373666Y-95662762D01*
X144830809Y-96119905D01*
X144335571Y-96119905D01*
X142938428Y-95891333D02*
X142557476Y-95891333D01*
X143014619Y-96119905D02*
X142747952Y-95319905D01*
X142481285Y-96119905D01*
X141795571Y-96119905D02*
X142252714Y-96119905D01*
X142024143Y-96119905D02*
X142024143Y-95319905D01*
X142100333Y-95434190D01*
X142176524Y-95510381D01*
X142252714Y-95548476D01*
X140398428Y-95891333D02*
X140017476Y-95891333D01*
X140474619Y-96119905D02*
X140207952Y-95319905D01*
X139941285Y-96119905D01*
X139522238Y-95319905D02*
X139446047Y-95319905D01*
X139369857Y-95358000D01*
X139331762Y-95396095D01*
X139293666Y-95472286D01*
X139255571Y-95624667D01*
X139255571Y-95815143D01*
X139293666Y-95967524D01*
X139331762Y-96043714D01*
X139369857Y-96081810D01*
X139446047Y-96119905D01*
X139522238Y-96119905D01*
X139598428Y-96081810D01*
X139636524Y-96043714D01*
X139674619Y-95967524D01*
X139712714Y-95815143D01*
X139712714Y-95624667D01*
X139674619Y-95472286D01*
X139636524Y-95396095D01*
X139598428Y-95358000D01*
X139522238Y-95319905D01*
X137896523Y-95358000D02*
X137972714Y-95319905D01*
X138086999Y-95319905D01*
X138201285Y-95358000D01*
X138277476Y-95434190D01*
X138315571Y-95510381D01*
X138353666Y-95662762D01*
X138353666Y-95777048D01*
X138315571Y-95929429D01*
X138277476Y-96005619D01*
X138201285Y-96081810D01*
X138086999Y-96119905D01*
X138010809Y-96119905D01*
X137896523Y-96081810D01*
X137858428Y-96043714D01*
X137858428Y-95777048D01*
X138010809Y-95777048D01*
X137515571Y-96119905D02*
X137515571Y-95319905D01*
X137058428Y-96119905D01*
X137058428Y-95319905D01*
X136677476Y-96119905D02*
X136677476Y-95319905D01*
X136487000Y-95319905D01*
X136372714Y-95358000D01*
X136296523Y-95434190D01*
X136258428Y-95510381D01*
X136220333Y-95662762D01*
X136220333Y-95777048D01*
X136258428Y-95929429D01*
X136296523Y-96005619D01*
X136372714Y-96081810D01*
X136487000Y-96119905D01*
X136677476Y-96119905D01*
X135880333Y-95874667D02*
X135546999Y-95874667D01*
X135946999Y-96074667D02*
X135713666Y-95374667D01*
X135480333Y-96074667D01*
X134846999Y-96074667D02*
X135080333Y-95741333D01*
X135246999Y-96074667D02*
X135246999Y-95374667D01*
X134980333Y-95374667D01*
X134913666Y-95408000D01*
X134880333Y-95441333D01*
X134846999Y-95508000D01*
X134846999Y-95608000D01*
X134880333Y-95674667D01*
X134913666Y-95708000D01*
X134980333Y-95741333D01*
X135246999Y-95741333D01*
X134546999Y-95708000D02*
X134313666Y-95708000D01*
X134213666Y-96074667D02*
X134546999Y-96074667D01*
X134546999Y-95374667D01*
X134213666Y-95374667D01*
X133680333Y-95708000D02*
X133913666Y-95708000D01*
X133913666Y-96074667D02*
X133913666Y-95374667D01*
X133580333Y-95374667D01*
X133197476Y-95319905D02*
X132702238Y-95319905D01*
X132968905Y-95624667D01*
X132854619Y-95624667D01*
X132778429Y-95662762D01*
X132740333Y-95700857D01*
X132702238Y-95777048D01*
X132702238Y-95967524D01*
X132740333Y-96043714D01*
X132778429Y-96081810D01*
X132854619Y-96119905D01*
X133083191Y-96119905D01*
X133159381Y-96081810D01*
X133197476Y-96043714D01*
X132473667Y-95319905D02*
X132207000Y-96119905D01*
X131940333Y-95319905D01*
X131749857Y-95319905D02*
X131254619Y-95319905D01*
X131521286Y-95624667D01*
X131407000Y-95624667D01*
X131330810Y-95662762D01*
X131292714Y-95700857D01*
X131254619Y-95777048D01*
X131254619Y-95967524D01*
X131292714Y-96043714D01*
X131330810Y-96081810D01*
X131407000Y-96119905D01*
X131635572Y-96119905D01*
X131711762Y-96081810D01*
X131749857Y-96043714D01*
X130105095Y-96119905D02*
X130371762Y-95738952D01*
X130562238Y-96119905D02*
X130562238Y-95319905D01*
X130257476Y-95319905D01*
X130181285Y-95358000D01*
X130143190Y-95396095D01*
X130105095Y-95472286D01*
X130105095Y-95586571D01*
X130143190Y-95662762D01*
X130181285Y-95700857D01*
X130257476Y-95738952D01*
X130562238Y-95738952D01*
X129800333Y-96081810D02*
X129686047Y-96119905D01*
X129495571Y-96119905D01*
X129419381Y-96081810D01*
X129381285Y-96043714D01*
X129343190Y-95967524D01*
X129343190Y-95891333D01*
X129381285Y-95815143D01*
X129419381Y-95777048D01*
X129495571Y-95738952D01*
X129647952Y-95700857D01*
X129724143Y-95662762D01*
X129762238Y-95624667D01*
X129800333Y-95548476D01*
X129800333Y-95472286D01*
X129762238Y-95396095D01*
X129724143Y-95358000D01*
X129647952Y-95319905D01*
X129457476Y-95319905D01*
X129343190Y-95358000D01*
X129114619Y-95319905D02*
X128657476Y-95319905D01*
X128886047Y-96119905D02*
X128886047Y-95319905D01*
X161352667Y-103756667D02*
X161019333Y-103523333D01*
X161352667Y-103356667D02*
X160652667Y-103356667D01*
X160652667Y-103623333D01*
X160686000Y-103690000D01*
X160719333Y-103723333D01*
X160786000Y-103756667D01*
X160886000Y-103756667D01*
X160952667Y-103723333D01*
X160986000Y-103690000D01*
X161019333Y-103623333D01*
X161019333Y-103356667D01*
X161319333Y-104023333D02*
X161352667Y-104123333D01*
X161352667Y-104290000D01*
X161319333Y-104356667D01*
X161286000Y-104390000D01*
X161219333Y-104423333D01*
X161152667Y-104423333D01*
X161086000Y-104390000D01*
X161052667Y-104356667D01*
X161019333Y-104290000D01*
X160986000Y-104156667D01*
X160952667Y-104090000D01*
X160919333Y-104056667D01*
X160852667Y-104023333D01*
X160786000Y-104023333D01*
X160719333Y-104056667D01*
X160686000Y-104090000D01*
X160652667Y-104156667D01*
X160652667Y-104323333D01*
X160686000Y-104423333D01*
X160652667Y-104623334D02*
X160652667Y-105023334D01*
X161352667Y-104823334D02*
X160652667Y-104823334D01*
X161352667Y-97960001D02*
X160652667Y-97960001D01*
X161152667Y-98193334D01*
X160652667Y-98426667D01*
X161352667Y-98426667D01*
X161352667Y-98760001D02*
X160652667Y-98760001D01*
X161319333Y-99060000D02*
X161352667Y-99160000D01*
X161352667Y-99326667D01*
X161319333Y-99393334D01*
X161286000Y-99426667D01*
X161219333Y-99460000D01*
X161152667Y-99460000D01*
X161086000Y-99426667D01*
X161052667Y-99393334D01*
X161019333Y-99326667D01*
X160986000Y-99193334D01*
X160952667Y-99126667D01*
X160919333Y-99093334D01*
X160852667Y-99060000D01*
X160786000Y-99060000D01*
X160719333Y-99093334D01*
X160686000Y-99126667D01*
X160652667Y-99193334D01*
X160652667Y-99360000D01*
X160686000Y-99460000D01*
X160652667Y-99893334D02*
X160652667Y-100026667D01*
X160686000Y-100093334D01*
X160752667Y-100160001D01*
X160886000Y-100193334D01*
X161119333Y-100193334D01*
X161252667Y-100160001D01*
X161319333Y-100093334D01*
X161352667Y-100026667D01*
X161352667Y-99893334D01*
X161319333Y-99826667D01*
X161252667Y-99760001D01*
X161119333Y-99726667D01*
X160886000Y-99726667D01*
X160752667Y-99760001D01*
X160686000Y-99826667D01*
X160652667Y-99893334D01*
X166940667Y-100500001D02*
X166240667Y-100500001D01*
X166740667Y-100733334D01*
X166240667Y-100966667D01*
X166940667Y-100966667D01*
X166240667Y-101433334D02*
X166240667Y-101566667D01*
X166274000Y-101633334D01*
X166340667Y-101700001D01*
X166474000Y-101733334D01*
X166707333Y-101733334D01*
X166840667Y-101700001D01*
X166907333Y-101633334D01*
X166940667Y-101566667D01*
X166940667Y-101433334D01*
X166907333Y-101366667D01*
X166840667Y-101300001D01*
X166707333Y-101266667D01*
X166474000Y-101266667D01*
X166340667Y-101300001D01*
X166274000Y-101366667D01*
X166240667Y-101433334D01*
X166907333Y-102000000D02*
X166940667Y-102100000D01*
X166940667Y-102266667D01*
X166907333Y-102333334D01*
X166874000Y-102366667D01*
X166807333Y-102400000D01*
X166740667Y-102400000D01*
X166674000Y-102366667D01*
X166640667Y-102333334D01*
X166607333Y-102266667D01*
X166574000Y-102133334D01*
X166540667Y-102066667D01*
X166507333Y-102033334D01*
X166440667Y-102000000D01*
X166374000Y-102000000D01*
X166307333Y-102033334D01*
X166274000Y-102066667D01*
X166240667Y-102133334D01*
X166240667Y-102300000D01*
X166274000Y-102400000D01*
X166940667Y-102700001D02*
X166240667Y-102700001D01*
X161319333Y-100416666D02*
X161352667Y-100516666D01*
X161352667Y-100683333D01*
X161319333Y-100750000D01*
X161286000Y-100783333D01*
X161219333Y-100816666D01*
X161152667Y-100816666D01*
X161086000Y-100783333D01*
X161052667Y-100750000D01*
X161019333Y-100683333D01*
X160986000Y-100550000D01*
X160952667Y-100483333D01*
X160919333Y-100450000D01*
X160852667Y-100416666D01*
X160786000Y-100416666D01*
X160719333Y-100450000D01*
X160686000Y-100483333D01*
X160652667Y-100550000D01*
X160652667Y-100716666D01*
X160686000Y-100816666D01*
X161286000Y-101516667D02*
X161319333Y-101483333D01*
X161352667Y-101383333D01*
X161352667Y-101316667D01*
X161319333Y-101216667D01*
X161252667Y-101150000D01*
X161186000Y-101116667D01*
X161052667Y-101083333D01*
X160952667Y-101083333D01*
X160819333Y-101116667D01*
X160752667Y-101150000D01*
X160686000Y-101216667D01*
X160652667Y-101316667D01*
X160652667Y-101383333D01*
X160686000Y-101483333D01*
X160719333Y-101516667D01*
X161352667Y-102150000D02*
X161352667Y-101816667D01*
X160652667Y-101816667D01*
X161352667Y-102383334D02*
X160652667Y-102383334D01*
X161352667Y-102783334D02*
X160952667Y-102483334D01*
X160652667Y-102783334D02*
X161052667Y-102383334D01*
X166224000Y-103530477D02*
X166185905Y-103454286D01*
X166185905Y-103340001D01*
X166224000Y-103225715D01*
X166300190Y-103149524D01*
X166376381Y-103111429D01*
X166528762Y-103073334D01*
X166643048Y-103073334D01*
X166795429Y-103111429D01*
X166871619Y-103149524D01*
X166947810Y-103225715D01*
X166985905Y-103340001D01*
X166985905Y-103416191D01*
X166947810Y-103530477D01*
X166909714Y-103568572D01*
X166643048Y-103568572D01*
X166643048Y-103416191D01*
X166985905Y-103911429D02*
X166185905Y-103911429D01*
X166985905Y-104368572D01*
X166185905Y-104368572D01*
X166985905Y-104749524D02*
X166185905Y-104749524D01*
X166185905Y-104940000D01*
X166224000Y-105054286D01*
X166300190Y-105130477D01*
X166376381Y-105168572D01*
X166528762Y-105206667D01*
X166643048Y-105206667D01*
X166795429Y-105168572D01*
X166871619Y-105130477D01*
X166947810Y-105054286D01*
X166985905Y-104940000D01*
X166985905Y-104749524D01*
X166185905Y-97993333D02*
X166985905Y-98260000D01*
X166185905Y-98526667D01*
X166909714Y-99250476D02*
X166947810Y-99212381D01*
X166985905Y-99098095D01*
X166985905Y-99021905D01*
X166947810Y-98907619D01*
X166871619Y-98831428D01*
X166795429Y-98793333D01*
X166643048Y-98755238D01*
X166528762Y-98755238D01*
X166376381Y-98793333D01*
X166300190Y-98831428D01*
X166224000Y-98907619D01*
X166185905Y-99021905D01*
X166185905Y-99098095D01*
X166224000Y-99212381D01*
X166262095Y-99250476D01*
X166909714Y-100050476D02*
X166947810Y-100012381D01*
X166985905Y-99898095D01*
X166985905Y-99821905D01*
X166947810Y-99707619D01*
X166871619Y-99631428D01*
X166795429Y-99593333D01*
X166643048Y-99555238D01*
X166528762Y-99555238D01*
X166376381Y-99593333D01*
X166300190Y-99631428D01*
X166224000Y-99707619D01*
X166185905Y-99821905D01*
X166185905Y-99898095D01*
X166224000Y-100012381D01*
X166262095Y-100050476D01*
X161286000Y-106563334D02*
X161319333Y-106530000D01*
X161352667Y-106430000D01*
X161352667Y-106363334D01*
X161319333Y-106263334D01*
X161252667Y-106196667D01*
X161186000Y-106163334D01*
X161052667Y-106130000D01*
X160952667Y-106130000D01*
X160819333Y-106163334D01*
X160752667Y-106196667D01*
X160686000Y-106263334D01*
X160652667Y-106363334D01*
X160652667Y-106430000D01*
X160686000Y-106530000D01*
X160719333Y-106563334D01*
X161319333Y-106830000D02*
X161352667Y-106930000D01*
X161352667Y-107096667D01*
X161319333Y-107163334D01*
X161286000Y-107196667D01*
X161219333Y-107230000D01*
X161152667Y-107230000D01*
X161086000Y-107196667D01*
X161052667Y-107163334D01*
X161019333Y-107096667D01*
X160986000Y-106963334D01*
X160952667Y-106896667D01*
X160919333Y-106863334D01*
X160852667Y-106830000D01*
X160786000Y-106830000D01*
X160719333Y-106863334D01*
X160686000Y-106896667D01*
X160652667Y-106963334D01*
X160652667Y-107130000D01*
X160686000Y-107230000D01*
X166985905Y-105956191D02*
X166185905Y-105956191D01*
X166985905Y-106337143D02*
X166185905Y-106337143D01*
X166985905Y-106794286D01*
X166185905Y-106794286D01*
X166185905Y-107060952D02*
X166185905Y-107518095D01*
X166985905Y-107289524D02*
X166185905Y-107289524D01*
M02*
