G04 #@! TF.FileFunction,Legend,Top*
%FSLAX46Y46*%
G04 Gerber Fmt 4.6, Leading zero omitted, Abs format (unit mm)*
G04 Created by KiCad (PCBNEW 4.0.7) date 2018 March 18, Sunday 16:32:36*
%MOMM*%
%LPD*%
G01*
G04 APERTURE LIST*
%ADD10C,0.150000*%
%ADD11C,0.125000*%
%ADD12C,0.120000*%
%ADD13C,0.152400*%
G04 APERTURE END LIST*
D10*
X168468000Y-111354286D02*
X168468000Y-111068572D01*
X168639429Y-111411429D02*
X168039429Y-111211429D01*
X168639429Y-111011429D01*
X168639429Y-110554286D02*
X168039429Y-110554286D01*
X168610857Y-110554286D02*
X168639429Y-110611429D01*
X168639429Y-110725715D01*
X168610857Y-110782857D01*
X168582286Y-110811429D01*
X168525143Y-110840000D01*
X168353714Y-110840000D01*
X168296571Y-110811429D01*
X168268000Y-110782857D01*
X168239429Y-110725715D01*
X168239429Y-110611429D01*
X168268000Y-110554286D01*
X168639429Y-110011429D02*
X168325143Y-110011429D01*
X168268000Y-110040000D01*
X168239429Y-110097143D01*
X168239429Y-110211429D01*
X168268000Y-110268572D01*
X168610857Y-110011429D02*
X168639429Y-110068572D01*
X168639429Y-110211429D01*
X168610857Y-110268572D01*
X168553714Y-110297143D01*
X168496571Y-110297143D01*
X168439429Y-110268572D01*
X168410857Y-110211429D01*
X168410857Y-110068572D01*
X168382286Y-110011429D01*
X168239429Y-109811429D02*
X168239429Y-109582858D01*
X168639429Y-109725715D02*
X168125143Y-109725715D01*
X168068000Y-109697143D01*
X168039429Y-109640001D01*
X168039429Y-109582858D01*
X168639429Y-109382858D02*
X168239429Y-109382858D01*
X168353714Y-109382858D02*
X168296571Y-109354286D01*
X168268000Y-109325715D01*
X168239429Y-109268572D01*
X168239429Y-109211429D01*
X168239429Y-108754286D02*
X168639429Y-108754286D01*
X168239429Y-109011429D02*
X168553714Y-109011429D01*
X168610857Y-108982857D01*
X168639429Y-108925715D01*
X168639429Y-108840000D01*
X168610857Y-108782857D01*
X168582286Y-108754286D01*
X168639429Y-108468572D02*
X168239429Y-108468572D01*
X168039429Y-108468572D02*
X168068000Y-108497143D01*
X168096571Y-108468572D01*
X168068000Y-108440000D01*
X168039429Y-108468572D01*
X168096571Y-108468572D01*
X168239429Y-108268572D02*
X168239429Y-108040001D01*
X168039429Y-108182858D02*
X168553714Y-108182858D01*
X168610857Y-108154286D01*
X168639429Y-108097144D01*
X168639429Y-108040001D01*
X168325143Y-107182858D02*
X168325143Y-107382858D01*
X168639429Y-107382858D02*
X168039429Y-107382858D01*
X168039429Y-107097144D01*
X168610857Y-106640000D02*
X168639429Y-106697143D01*
X168639429Y-106811429D01*
X168610857Y-106868572D01*
X168553714Y-106897143D01*
X168325143Y-106897143D01*
X168268000Y-106868572D01*
X168239429Y-106811429D01*
X168239429Y-106697143D01*
X168268000Y-106640000D01*
X168325143Y-106611429D01*
X168382286Y-106611429D01*
X168439429Y-106897143D01*
X168639429Y-106097143D02*
X168325143Y-106097143D01*
X168268000Y-106125714D01*
X168239429Y-106182857D01*
X168239429Y-106297143D01*
X168268000Y-106354286D01*
X168610857Y-106097143D02*
X168639429Y-106154286D01*
X168639429Y-106297143D01*
X168610857Y-106354286D01*
X168553714Y-106382857D01*
X168496571Y-106382857D01*
X168439429Y-106354286D01*
X168410857Y-106297143D01*
X168410857Y-106154286D01*
X168382286Y-106097143D01*
X168239429Y-105897143D02*
X168239429Y-105668572D01*
X168039429Y-105811429D02*
X168553714Y-105811429D01*
X168610857Y-105782857D01*
X168639429Y-105725715D01*
X168639429Y-105668572D01*
X168639429Y-105468572D02*
X168039429Y-105468572D01*
X168639429Y-105211429D02*
X168325143Y-105211429D01*
X168268000Y-105240000D01*
X168239429Y-105297143D01*
X168239429Y-105382858D01*
X168268000Y-105440000D01*
X168296571Y-105468572D01*
X168610857Y-104697143D02*
X168639429Y-104754286D01*
X168639429Y-104868572D01*
X168610857Y-104925715D01*
X168553714Y-104954286D01*
X168325143Y-104954286D01*
X168268000Y-104925715D01*
X168239429Y-104868572D01*
X168239429Y-104754286D01*
X168268000Y-104697143D01*
X168325143Y-104668572D01*
X168382286Y-104668572D01*
X168439429Y-104954286D01*
X168639429Y-104411429D02*
X168239429Y-104411429D01*
X168353714Y-104411429D02*
X168296571Y-104382857D01*
X168268000Y-104354286D01*
X168239429Y-104297143D01*
X168239429Y-104240000D01*
X168610857Y-103354285D02*
X168639429Y-103411428D01*
X168639429Y-103525714D01*
X168610857Y-103582857D01*
X168553714Y-103611428D01*
X168325143Y-103611428D01*
X168268000Y-103582857D01*
X168239429Y-103525714D01*
X168239429Y-103411428D01*
X168268000Y-103354285D01*
X168325143Y-103325714D01*
X168382286Y-103325714D01*
X168439429Y-103611428D01*
X168639429Y-103068571D02*
X168039429Y-103068571D01*
X168039429Y-102839999D01*
X168068000Y-102782857D01*
X168096571Y-102754285D01*
X168153714Y-102725714D01*
X168239429Y-102725714D01*
X168296571Y-102754285D01*
X168325143Y-102782857D01*
X168353714Y-102839999D01*
X168353714Y-103068571D01*
X168639429Y-102211428D02*
X168325143Y-102211428D01*
X168268000Y-102239999D01*
X168239429Y-102297142D01*
X168239429Y-102411428D01*
X168268000Y-102468571D01*
X168610857Y-102211428D02*
X168639429Y-102268571D01*
X168639429Y-102411428D01*
X168610857Y-102468571D01*
X168553714Y-102497142D01*
X168496571Y-102497142D01*
X168439429Y-102468571D01*
X168410857Y-102411428D01*
X168410857Y-102268571D01*
X168382286Y-102211428D01*
X168239429Y-101925714D02*
X168839429Y-101925714D01*
X168268000Y-101925714D02*
X168239429Y-101868571D01*
X168239429Y-101754285D01*
X168268000Y-101697142D01*
X168296571Y-101668571D01*
X168353714Y-101640000D01*
X168525143Y-101640000D01*
X168582286Y-101668571D01*
X168610857Y-101697142D01*
X168639429Y-101754285D01*
X168639429Y-101868571D01*
X168610857Y-101925714D01*
X168610857Y-101154285D02*
X168639429Y-101211428D01*
X168639429Y-101325714D01*
X168610857Y-101382857D01*
X168553714Y-101411428D01*
X168325143Y-101411428D01*
X168268000Y-101382857D01*
X168239429Y-101325714D01*
X168239429Y-101211428D01*
X168268000Y-101154285D01*
X168325143Y-101125714D01*
X168382286Y-101125714D01*
X168439429Y-101411428D01*
X168639429Y-100868571D02*
X168239429Y-100868571D01*
X168353714Y-100868571D02*
X168296571Y-100839999D01*
X168268000Y-100811428D01*
X168239429Y-100754285D01*
X168239429Y-100697142D01*
X168468000Y-100068570D02*
X168468000Y-99782856D01*
X168639429Y-100125713D02*
X168039429Y-99925713D01*
X168639429Y-99725713D01*
X168639429Y-99268570D02*
X168039429Y-99268570D01*
X168610857Y-99268570D02*
X168639429Y-99325713D01*
X168639429Y-99439999D01*
X168610857Y-99497141D01*
X168582286Y-99525713D01*
X168525143Y-99554284D01*
X168353714Y-99554284D01*
X168296571Y-99525713D01*
X168268000Y-99497141D01*
X168239429Y-99439999D01*
X168239429Y-99325713D01*
X168268000Y-99268570D01*
X168639429Y-98725713D02*
X168325143Y-98725713D01*
X168268000Y-98754284D01*
X168239429Y-98811427D01*
X168239429Y-98925713D01*
X168268000Y-98982856D01*
X168610857Y-98725713D02*
X168639429Y-98782856D01*
X168639429Y-98925713D01*
X168610857Y-98982856D01*
X168553714Y-99011427D01*
X168496571Y-99011427D01*
X168439429Y-98982856D01*
X168410857Y-98925713D01*
X168410857Y-98782856D01*
X168382286Y-98725713D01*
X168239429Y-98439999D02*
X168839429Y-98439999D01*
X168268000Y-98439999D02*
X168239429Y-98382856D01*
X168239429Y-98268570D01*
X168268000Y-98211427D01*
X168296571Y-98182856D01*
X168353714Y-98154285D01*
X168525143Y-98154285D01*
X168582286Y-98182856D01*
X168610857Y-98211427D01*
X168639429Y-98268570D01*
X168639429Y-98382856D01*
X168610857Y-98439999D01*
X168239429Y-97982856D02*
X168239429Y-97754285D01*
X168039429Y-97897142D02*
X168553714Y-97897142D01*
X168610857Y-97868570D01*
X168639429Y-97811428D01*
X168639429Y-97754285D01*
X168610857Y-97325713D02*
X168639429Y-97382856D01*
X168639429Y-97497142D01*
X168610857Y-97554285D01*
X168553714Y-97582856D01*
X168325143Y-97582856D01*
X168268000Y-97554285D01*
X168239429Y-97497142D01*
X168239429Y-97382856D01*
X168268000Y-97325713D01*
X168325143Y-97297142D01*
X168382286Y-97297142D01*
X168439429Y-97582856D01*
X168639429Y-97039999D02*
X168239429Y-97039999D01*
X168353714Y-97039999D02*
X168296571Y-97011427D01*
X168268000Y-96982856D01*
X168239429Y-96925713D01*
X168239429Y-96868570D01*
X169689429Y-109782859D02*
X169403714Y-109982859D01*
X169689429Y-110125716D02*
X169089429Y-110125716D01*
X169089429Y-109897144D01*
X169118000Y-109840002D01*
X169146571Y-109811430D01*
X169203714Y-109782859D01*
X169289429Y-109782859D01*
X169346571Y-109811430D01*
X169375143Y-109840002D01*
X169403714Y-109897144D01*
X169403714Y-110125716D01*
X169660857Y-109297144D02*
X169689429Y-109354287D01*
X169689429Y-109468573D01*
X169660857Y-109525716D01*
X169603714Y-109554287D01*
X169375143Y-109554287D01*
X169318000Y-109525716D01*
X169289429Y-109468573D01*
X169289429Y-109354287D01*
X169318000Y-109297144D01*
X169375143Y-109268573D01*
X169432286Y-109268573D01*
X169489429Y-109554287D01*
X169289429Y-109068573D02*
X169689429Y-108925716D01*
X169289429Y-108782858D01*
X169089429Y-107982858D02*
X169089429Y-107925715D01*
X169118000Y-107868572D01*
X169146571Y-107840001D01*
X169203714Y-107811430D01*
X169318000Y-107782858D01*
X169460857Y-107782858D01*
X169575143Y-107811430D01*
X169632286Y-107840001D01*
X169660857Y-107868572D01*
X169689429Y-107925715D01*
X169689429Y-107982858D01*
X169660857Y-108040001D01*
X169632286Y-108068572D01*
X169575143Y-108097144D01*
X169460857Y-108125715D01*
X169318000Y-108125715D01*
X169203714Y-108097144D01*
X169146571Y-108068572D01*
X169118000Y-108040001D01*
X169089429Y-107982858D01*
X169632286Y-107525715D02*
X169660857Y-107497143D01*
X169689429Y-107525715D01*
X169660857Y-107554286D01*
X169632286Y-107525715D01*
X169689429Y-107525715D01*
X169689429Y-107211429D02*
X169689429Y-107097144D01*
X169660857Y-107040001D01*
X169632286Y-107011429D01*
X169546571Y-106954287D01*
X169432286Y-106925715D01*
X169203714Y-106925715D01*
X169146571Y-106954287D01*
X169118000Y-106982858D01*
X169089429Y-107040001D01*
X169089429Y-107154287D01*
X169118000Y-107211429D01*
X169146571Y-107240001D01*
X169203714Y-107268572D01*
X169346571Y-107268572D01*
X169403714Y-107240001D01*
X169432286Y-107211429D01*
X169460857Y-107154287D01*
X169460857Y-107040001D01*
X169432286Y-106982858D01*
X169403714Y-106954287D01*
X169346571Y-106925715D01*
X169660857Y-106240000D02*
X169689429Y-106154286D01*
X169689429Y-106011429D01*
X169660857Y-105954286D01*
X169632286Y-105925715D01*
X169575143Y-105897143D01*
X169518000Y-105897143D01*
X169460857Y-105925715D01*
X169432286Y-105954286D01*
X169403714Y-106011429D01*
X169375143Y-106125715D01*
X169346571Y-106182857D01*
X169318000Y-106211429D01*
X169260857Y-106240000D01*
X169203714Y-106240000D01*
X169146571Y-106211429D01*
X169118000Y-106182857D01*
X169089429Y-106125715D01*
X169089429Y-105982857D01*
X169118000Y-105897143D01*
X169289429Y-105382857D02*
X169689429Y-105382857D01*
X169289429Y-105640000D02*
X169603714Y-105640000D01*
X169660857Y-105611428D01*
X169689429Y-105554286D01*
X169689429Y-105468571D01*
X169660857Y-105411428D01*
X169632286Y-105382857D01*
X169289429Y-105097143D02*
X169689429Y-105097143D01*
X169346571Y-105097143D02*
X169318000Y-105068571D01*
X169289429Y-105011429D01*
X169289429Y-104925714D01*
X169318000Y-104868571D01*
X169375143Y-104840000D01*
X169689429Y-104840000D01*
X169689429Y-104097143D02*
X169089429Y-104097143D01*
X169518000Y-103897143D01*
X169089429Y-103697143D01*
X169689429Y-103697143D01*
X169689429Y-103154286D02*
X169375143Y-103154286D01*
X169318000Y-103182857D01*
X169289429Y-103240000D01*
X169289429Y-103354286D01*
X169318000Y-103411429D01*
X169660857Y-103154286D02*
X169689429Y-103211429D01*
X169689429Y-103354286D01*
X169660857Y-103411429D01*
X169603714Y-103440000D01*
X169546571Y-103440000D01*
X169489429Y-103411429D01*
X169460857Y-103354286D01*
X169460857Y-103211429D01*
X169432286Y-103154286D01*
X169689429Y-102868572D02*
X169289429Y-102868572D01*
X169403714Y-102868572D02*
X169346571Y-102840000D01*
X169318000Y-102811429D01*
X169289429Y-102754286D01*
X169289429Y-102697143D01*
X169689429Y-101725714D02*
X169689429Y-102068571D01*
X169689429Y-101897143D02*
X169089429Y-101897143D01*
X169175143Y-101954286D01*
X169232286Y-102011428D01*
X169260857Y-102068571D01*
X169346571Y-101382857D02*
X169318000Y-101439999D01*
X169289429Y-101468571D01*
X169232286Y-101497142D01*
X169203714Y-101497142D01*
X169146571Y-101468571D01*
X169118000Y-101439999D01*
X169089429Y-101382857D01*
X169089429Y-101268571D01*
X169118000Y-101211428D01*
X169146571Y-101182857D01*
X169203714Y-101154285D01*
X169232286Y-101154285D01*
X169289429Y-101182857D01*
X169318000Y-101211428D01*
X169346571Y-101268571D01*
X169346571Y-101382857D01*
X169375143Y-101439999D01*
X169403714Y-101468571D01*
X169460857Y-101497142D01*
X169575143Y-101497142D01*
X169632286Y-101468571D01*
X169660857Y-101439999D01*
X169689429Y-101382857D01*
X169689429Y-101268571D01*
X169660857Y-101211428D01*
X169632286Y-101182857D01*
X169575143Y-101154285D01*
X169460857Y-101154285D01*
X169403714Y-101182857D01*
X169375143Y-101211428D01*
X169346571Y-101268571D01*
X169660857Y-100868570D02*
X169689429Y-100868570D01*
X169746571Y-100897142D01*
X169775143Y-100925713D01*
X169146571Y-100182856D02*
X169118000Y-100154285D01*
X169089429Y-100097142D01*
X169089429Y-99954285D01*
X169118000Y-99897142D01*
X169146571Y-99868571D01*
X169203714Y-99839999D01*
X169260857Y-99839999D01*
X169346571Y-99868571D01*
X169689429Y-100211428D01*
X169689429Y-99839999D01*
X169089429Y-99468570D02*
X169089429Y-99411427D01*
X169118000Y-99354284D01*
X169146571Y-99325713D01*
X169203714Y-99297142D01*
X169318000Y-99268570D01*
X169460857Y-99268570D01*
X169575143Y-99297142D01*
X169632286Y-99325713D01*
X169660857Y-99354284D01*
X169689429Y-99411427D01*
X169689429Y-99468570D01*
X169660857Y-99525713D01*
X169632286Y-99554284D01*
X169575143Y-99582856D01*
X169460857Y-99611427D01*
X169318000Y-99611427D01*
X169203714Y-99582856D01*
X169146571Y-99554284D01*
X169118000Y-99525713D01*
X169089429Y-99468570D01*
X169689429Y-98697141D02*
X169689429Y-99039998D01*
X169689429Y-98868570D02*
X169089429Y-98868570D01*
X169175143Y-98925713D01*
X169232286Y-98982855D01*
X169260857Y-99039998D01*
X169346571Y-98354284D02*
X169318000Y-98411426D01*
X169289429Y-98439998D01*
X169232286Y-98468569D01*
X169203714Y-98468569D01*
X169146571Y-98439998D01*
X169118000Y-98411426D01*
X169089429Y-98354284D01*
X169089429Y-98239998D01*
X169118000Y-98182855D01*
X169146571Y-98154284D01*
X169203714Y-98125712D01*
X169232286Y-98125712D01*
X169289429Y-98154284D01*
X169318000Y-98182855D01*
X169346571Y-98239998D01*
X169346571Y-98354284D01*
X169375143Y-98411426D01*
X169403714Y-98439998D01*
X169460857Y-98468569D01*
X169575143Y-98468569D01*
X169632286Y-98439998D01*
X169660857Y-98411426D01*
X169689429Y-98354284D01*
X169689429Y-98239998D01*
X169660857Y-98182855D01*
X169632286Y-98154284D01*
X169575143Y-98125712D01*
X169460857Y-98125712D01*
X169403714Y-98154284D01*
X169375143Y-98182855D01*
X169346571Y-98239998D01*
X170453714Y-106111428D02*
X170425143Y-106140000D01*
X170396571Y-106197143D01*
X170396571Y-106254285D01*
X170425143Y-106311428D01*
X170453714Y-106340000D01*
X170510857Y-106368571D01*
X170568000Y-106368571D01*
X170625143Y-106340000D01*
X170653714Y-106311428D01*
X170682286Y-106254285D01*
X170682286Y-106197143D01*
X170653714Y-106140000D01*
X170625143Y-106111428D01*
X170396571Y-106111428D02*
X170625143Y-106111428D01*
X170653714Y-106082857D01*
X170653714Y-106054285D01*
X170625143Y-105997143D01*
X170568000Y-105968571D01*
X170425143Y-105968571D01*
X170339429Y-106025714D01*
X170282286Y-106111428D01*
X170253714Y-106225714D01*
X170282286Y-106340000D01*
X170339429Y-106425714D01*
X170425143Y-106482857D01*
X170539429Y-106511428D01*
X170653714Y-106482857D01*
X170739429Y-106425714D01*
X170796571Y-106340000D01*
X170825143Y-106225714D01*
X170796571Y-106111428D01*
X170739429Y-106025714D01*
X170739429Y-105711428D02*
X170139429Y-105711428D01*
X170739429Y-105454285D02*
X170425143Y-105454285D01*
X170368000Y-105482856D01*
X170339429Y-105539999D01*
X170339429Y-105625714D01*
X170368000Y-105682856D01*
X170396571Y-105711428D01*
X170739429Y-104911428D02*
X170425143Y-104911428D01*
X170368000Y-104939999D01*
X170339429Y-104997142D01*
X170339429Y-105111428D01*
X170368000Y-105168571D01*
X170710857Y-104911428D02*
X170739429Y-104968571D01*
X170739429Y-105111428D01*
X170710857Y-105168571D01*
X170653714Y-105197142D01*
X170596571Y-105197142D01*
X170539429Y-105168571D01*
X170510857Y-105111428D01*
X170510857Y-104968571D01*
X170482286Y-104911428D01*
X170339429Y-104625714D02*
X170739429Y-104625714D01*
X170396571Y-104625714D02*
X170368000Y-104597142D01*
X170339429Y-104540000D01*
X170339429Y-104454285D01*
X170368000Y-104397142D01*
X170425143Y-104368571D01*
X170739429Y-104368571D01*
X170339429Y-104140000D02*
X170739429Y-103997143D01*
X170339429Y-103854285D02*
X170739429Y-103997143D01*
X170882286Y-104054285D01*
X170910857Y-104082857D01*
X170939429Y-104140000D01*
X170739429Y-103368571D02*
X170425143Y-103368571D01*
X170368000Y-103397142D01*
X170339429Y-103454285D01*
X170339429Y-103568571D01*
X170368000Y-103625714D01*
X170710857Y-103368571D02*
X170739429Y-103425714D01*
X170739429Y-103568571D01*
X170710857Y-103625714D01*
X170653714Y-103654285D01*
X170596571Y-103654285D01*
X170539429Y-103625714D01*
X170510857Y-103568571D01*
X170510857Y-103425714D01*
X170482286Y-103368571D01*
X170339429Y-103140000D02*
X170339429Y-102825714D01*
X170739429Y-103140000D01*
X170739429Y-102825714D01*
X170739429Y-102511429D02*
X170710857Y-102568571D01*
X170682286Y-102597143D01*
X170625143Y-102625714D01*
X170453714Y-102625714D01*
X170396571Y-102597143D01*
X170368000Y-102568571D01*
X170339429Y-102511429D01*
X170339429Y-102425714D01*
X170368000Y-102368571D01*
X170396571Y-102340000D01*
X170453714Y-102311429D01*
X170625143Y-102311429D01*
X170682286Y-102340000D01*
X170710857Y-102368571D01*
X170739429Y-102425714D01*
X170739429Y-102511429D01*
X170339429Y-101797143D02*
X170739429Y-101797143D01*
X170339429Y-102054286D02*
X170653714Y-102054286D01*
X170710857Y-102025714D01*
X170739429Y-101968572D01*
X170739429Y-101882857D01*
X170710857Y-101825714D01*
X170682286Y-101797143D01*
X125909429Y-111168571D02*
X125909429Y-111111428D01*
X125938000Y-111054285D01*
X125966571Y-111025714D01*
X126023714Y-110997143D01*
X126138000Y-110968571D01*
X126280857Y-110968571D01*
X126395143Y-110997143D01*
X126452286Y-111025714D01*
X126480857Y-111054285D01*
X126509429Y-111111428D01*
X126509429Y-111168571D01*
X126480857Y-111225714D01*
X126452286Y-111254285D01*
X126395143Y-111282857D01*
X126280857Y-111311428D01*
X126138000Y-111311428D01*
X126023714Y-111282857D01*
X125966571Y-111254285D01*
X125938000Y-111225714D01*
X125909429Y-111168571D01*
X126452286Y-110711428D02*
X126480857Y-110682856D01*
X126509429Y-110711428D01*
X126480857Y-110739999D01*
X126452286Y-110711428D01*
X126509429Y-110711428D01*
X125909429Y-110140000D02*
X125909429Y-110425714D01*
X126195143Y-110454285D01*
X126166571Y-110425714D01*
X126138000Y-110368571D01*
X126138000Y-110225714D01*
X126166571Y-110168571D01*
X126195143Y-110140000D01*
X126252286Y-110111428D01*
X126395143Y-110111428D01*
X126452286Y-110140000D01*
X126480857Y-110168571D01*
X126509429Y-110225714D01*
X126509429Y-110368571D01*
X126480857Y-110425714D01*
X126452286Y-110454285D01*
X126509429Y-109854285D02*
X126109429Y-109854285D01*
X126166571Y-109854285D02*
X126138000Y-109825713D01*
X126109429Y-109768571D01*
X126109429Y-109682856D01*
X126138000Y-109625713D01*
X126195143Y-109597142D01*
X126509429Y-109597142D01*
X126195143Y-109597142D02*
X126138000Y-109568571D01*
X126109429Y-109511428D01*
X126109429Y-109425713D01*
X126138000Y-109368571D01*
X126195143Y-109339999D01*
X126509429Y-109339999D01*
X126509429Y-109054285D02*
X126109429Y-109054285D01*
X126166571Y-109054285D02*
X126138000Y-109025713D01*
X126109429Y-108968571D01*
X126109429Y-108882856D01*
X126138000Y-108825713D01*
X126195143Y-108797142D01*
X126509429Y-108797142D01*
X126195143Y-108797142D02*
X126138000Y-108768571D01*
X126109429Y-108711428D01*
X126109429Y-108625713D01*
X126138000Y-108568571D01*
X126195143Y-108539999D01*
X126509429Y-108539999D01*
X126109429Y-107797142D02*
X126709429Y-107797142D01*
X126138000Y-107797142D02*
X126109429Y-107739999D01*
X126109429Y-107625713D01*
X126138000Y-107568570D01*
X126166571Y-107539999D01*
X126223714Y-107511428D01*
X126395143Y-107511428D01*
X126452286Y-107539999D01*
X126480857Y-107568570D01*
X126509429Y-107625713D01*
X126509429Y-107739999D01*
X126480857Y-107797142D01*
X126509429Y-107254285D02*
X126109429Y-107254285D01*
X125909429Y-107254285D02*
X125938000Y-107282856D01*
X125966571Y-107254285D01*
X125938000Y-107225713D01*
X125909429Y-107254285D01*
X125966571Y-107254285D01*
X126109429Y-107054285D02*
X126109429Y-106825714D01*
X125909429Y-106968571D02*
X126423714Y-106968571D01*
X126480857Y-106939999D01*
X126509429Y-106882857D01*
X126509429Y-106825714D01*
X126480857Y-106368571D02*
X126509429Y-106425714D01*
X126509429Y-106540000D01*
X126480857Y-106597142D01*
X126452286Y-106625714D01*
X126395143Y-106654285D01*
X126223714Y-106654285D01*
X126166571Y-106625714D01*
X126138000Y-106597142D01*
X126109429Y-106540000D01*
X126109429Y-106425714D01*
X126138000Y-106368571D01*
X126509429Y-106111428D02*
X125909429Y-106111428D01*
X126509429Y-105854285D02*
X126195143Y-105854285D01*
X126138000Y-105882856D01*
X126109429Y-105939999D01*
X126109429Y-106025714D01*
X126138000Y-106082856D01*
X126166571Y-106111428D01*
X125966571Y-105139999D02*
X125938000Y-105111428D01*
X125909429Y-105054285D01*
X125909429Y-104911428D01*
X125938000Y-104854285D01*
X125966571Y-104825714D01*
X126023714Y-104797142D01*
X126080857Y-104797142D01*
X126166571Y-104825714D01*
X126509429Y-105168571D01*
X126509429Y-104797142D01*
X126109429Y-104282856D02*
X126509429Y-104282856D01*
X125880857Y-104425713D02*
X126309429Y-104568570D01*
X126309429Y-104197142D01*
X126109429Y-103968570D02*
X126709429Y-103968570D01*
X126138000Y-103968570D02*
X126109429Y-103911427D01*
X126109429Y-103797141D01*
X126138000Y-103739998D01*
X126166571Y-103711427D01*
X126223714Y-103682856D01*
X126395143Y-103682856D01*
X126452286Y-103711427D01*
X126480857Y-103739998D01*
X126509429Y-103797141D01*
X126509429Y-103911427D01*
X126480857Y-103968570D01*
X126509429Y-103425713D02*
X126109429Y-103425713D01*
X125909429Y-103425713D02*
X125938000Y-103454284D01*
X125966571Y-103425713D01*
X125938000Y-103397141D01*
X125909429Y-103425713D01*
X125966571Y-103425713D01*
X126109429Y-103139999D02*
X126509429Y-103139999D01*
X126166571Y-103139999D02*
X126138000Y-103111427D01*
X126109429Y-103054285D01*
X126109429Y-102968570D01*
X126138000Y-102911427D01*
X126195143Y-102882856D01*
X126509429Y-102882856D01*
X125909429Y-102225713D02*
X125909429Y-101882856D01*
X126509429Y-102054285D02*
X125909429Y-102054285D01*
X126509429Y-101597142D02*
X126480857Y-101654284D01*
X126452286Y-101682856D01*
X126395143Y-101711427D01*
X126223714Y-101711427D01*
X126166571Y-101682856D01*
X126138000Y-101654284D01*
X126109429Y-101597142D01*
X126109429Y-101511427D01*
X126138000Y-101454284D01*
X126166571Y-101425713D01*
X126223714Y-101397142D01*
X126395143Y-101397142D01*
X126452286Y-101425713D01*
X126480857Y-101454284D01*
X126509429Y-101511427D01*
X126509429Y-101597142D01*
X126109429Y-101139999D02*
X126709429Y-101139999D01*
X126138000Y-101139999D02*
X126109429Y-101082856D01*
X126109429Y-100968570D01*
X126138000Y-100911427D01*
X126166571Y-100882856D01*
X126223714Y-100854285D01*
X126395143Y-100854285D01*
X126452286Y-100882856D01*
X126480857Y-100911427D01*
X126509429Y-100968570D01*
X126509429Y-101082856D01*
X126480857Y-101139999D01*
X126452286Y-99797142D02*
X126480857Y-99825713D01*
X126509429Y-99911427D01*
X126509429Y-99968570D01*
X126480857Y-100054285D01*
X126423714Y-100111427D01*
X126366571Y-100139999D01*
X126252286Y-100168570D01*
X126166571Y-100168570D01*
X126052286Y-100139999D01*
X125995143Y-100111427D01*
X125938000Y-100054285D01*
X125909429Y-99968570D01*
X125909429Y-99911427D01*
X125938000Y-99825713D01*
X125966571Y-99797142D01*
X126509429Y-99454285D02*
X126480857Y-99511427D01*
X126452286Y-99539999D01*
X126395143Y-99568570D01*
X126223714Y-99568570D01*
X126166571Y-99539999D01*
X126138000Y-99511427D01*
X126109429Y-99454285D01*
X126109429Y-99368570D01*
X126138000Y-99311427D01*
X126166571Y-99282856D01*
X126223714Y-99254285D01*
X126395143Y-99254285D01*
X126452286Y-99282856D01*
X126480857Y-99311427D01*
X126509429Y-99368570D01*
X126509429Y-99454285D01*
X126109429Y-98997142D02*
X126509429Y-98997142D01*
X126166571Y-98997142D02*
X126138000Y-98968570D01*
X126109429Y-98911428D01*
X126109429Y-98825713D01*
X126138000Y-98768570D01*
X126195143Y-98739999D01*
X126509429Y-98739999D01*
X126109429Y-98539999D02*
X126109429Y-98311428D01*
X125909429Y-98454285D02*
X126423714Y-98454285D01*
X126480857Y-98425713D01*
X126509429Y-98368571D01*
X126509429Y-98311428D01*
X126509429Y-97854285D02*
X126195143Y-97854285D01*
X126138000Y-97882856D01*
X126109429Y-97939999D01*
X126109429Y-98054285D01*
X126138000Y-98111428D01*
X126480857Y-97854285D02*
X126509429Y-97911428D01*
X126509429Y-98054285D01*
X126480857Y-98111428D01*
X126423714Y-98139999D01*
X126366571Y-98139999D01*
X126309429Y-98111428D01*
X126280857Y-98054285D01*
X126280857Y-97911428D01*
X126252286Y-97854285D01*
X126480857Y-97311428D02*
X126509429Y-97368571D01*
X126509429Y-97482857D01*
X126480857Y-97539999D01*
X126452286Y-97568571D01*
X126395143Y-97597142D01*
X126223714Y-97597142D01*
X126166571Y-97568571D01*
X126138000Y-97539999D01*
X126109429Y-97482857D01*
X126109429Y-97368571D01*
X126138000Y-97311428D01*
X126109429Y-97139999D02*
X126109429Y-96911428D01*
X125909429Y-97054285D02*
X126423714Y-97054285D01*
X126480857Y-97025713D01*
X126509429Y-96968571D01*
X126509429Y-96911428D01*
D11*
X158730190Y-105271047D02*
X158730190Y-105366285D01*
X158754000Y-105413904D01*
X158777810Y-105437713D01*
X158849238Y-105485332D01*
X158944476Y-105509142D01*
X159134952Y-105509142D01*
X159182571Y-105485332D01*
X159206381Y-105461523D01*
X159230190Y-105413904D01*
X159230190Y-105318666D01*
X159206381Y-105271047D01*
X159182571Y-105247237D01*
X159134952Y-105223428D01*
X159015905Y-105223428D01*
X158968286Y-105247237D01*
X158944476Y-105271047D01*
X158920667Y-105318666D01*
X158920667Y-105413904D01*
X158944476Y-105461523D01*
X158968286Y-105485332D01*
X159015905Y-105509142D01*
X158944476Y-104937714D02*
X158920667Y-104985333D01*
X158896857Y-105009142D01*
X158849238Y-105032952D01*
X158825429Y-105032952D01*
X158777810Y-105009142D01*
X158754000Y-104985333D01*
X158730190Y-104937714D01*
X158730190Y-104842476D01*
X158754000Y-104794857D01*
X158777810Y-104771047D01*
X158825429Y-104747238D01*
X158849238Y-104747238D01*
X158896857Y-104771047D01*
X158920667Y-104794857D01*
X158944476Y-104842476D01*
X158944476Y-104937714D01*
X158968286Y-104985333D01*
X158992095Y-105009142D01*
X159039714Y-105032952D01*
X159134952Y-105032952D01*
X159182571Y-105009142D01*
X159206381Y-104985333D01*
X159230190Y-104937714D01*
X159230190Y-104842476D01*
X159206381Y-104794857D01*
X159182571Y-104771047D01*
X159134952Y-104747238D01*
X159039714Y-104747238D01*
X158992095Y-104771047D01*
X158968286Y-104794857D01*
X158944476Y-104842476D01*
X158896857Y-104318667D02*
X159230190Y-104318667D01*
X158896857Y-104532952D02*
X159158762Y-104532952D01*
X159206381Y-104509143D01*
X159230190Y-104461524D01*
X159230190Y-104390095D01*
X159206381Y-104342476D01*
X159182571Y-104318667D01*
X157666667Y-97682857D02*
X157666667Y-98016190D01*
X157547620Y-97492381D02*
X157428572Y-97849524D01*
X157738096Y-97849524D01*
X158142857Y-97682857D02*
X158142857Y-98016190D01*
X157928572Y-97682857D02*
X157928572Y-97944762D01*
X157952381Y-97992381D01*
X158000000Y-98016190D01*
X158071429Y-98016190D01*
X158119048Y-97992381D01*
X158142857Y-97968571D01*
X158333334Y-97516190D02*
X158666667Y-97516190D01*
X158452381Y-98016190D01*
X159214285Y-97492381D02*
X158785714Y-98135238D01*
X159595238Y-97516190D02*
X159500000Y-97516190D01*
X159452381Y-97540000D01*
X159428572Y-97563810D01*
X159380953Y-97635238D01*
X159357143Y-97730476D01*
X159357143Y-97920952D01*
X159380953Y-97968571D01*
X159404762Y-97992381D01*
X159452381Y-98016190D01*
X159547619Y-98016190D01*
X159595238Y-97992381D01*
X159619048Y-97968571D01*
X159642857Y-97920952D01*
X159642857Y-97801905D01*
X159619048Y-97754286D01*
X159595238Y-97730476D01*
X159547619Y-97706667D01*
X159452381Y-97706667D01*
X159404762Y-97730476D01*
X159380953Y-97754286D01*
X159357143Y-97801905D01*
X159785714Y-97516190D02*
X159952381Y-98016190D01*
X160119047Y-97516190D01*
X150784762Y-110716190D02*
X150499048Y-110716190D01*
X150641905Y-110716190D02*
X150641905Y-110216190D01*
X150594286Y-110287619D01*
X150546667Y-110335238D01*
X150499048Y-110359048D01*
X151094286Y-110216190D02*
X151141905Y-110216190D01*
X151189524Y-110240000D01*
X151213333Y-110263810D01*
X151237143Y-110311429D01*
X151260952Y-110406667D01*
X151260952Y-110525714D01*
X151237143Y-110620952D01*
X151213333Y-110668571D01*
X151189524Y-110692381D01*
X151141905Y-110716190D01*
X151094286Y-110716190D01*
X151046667Y-110692381D01*
X151022857Y-110668571D01*
X150999048Y-110620952D01*
X150975238Y-110525714D01*
X150975238Y-110406667D01*
X150999048Y-110311429D01*
X151022857Y-110263810D01*
X151046667Y-110240000D01*
X151094286Y-110216190D01*
X151475238Y-110716190D02*
X151475238Y-110216190D01*
X151760952Y-110716190D02*
X151546666Y-110430476D01*
X151760952Y-110216190D02*
X151475238Y-110501905D01*
X150713334Y-105644190D02*
X151022857Y-105644190D01*
X150856191Y-105834667D01*
X150927619Y-105834667D01*
X150975238Y-105858476D01*
X150999048Y-105882286D01*
X151022857Y-105929905D01*
X151022857Y-106048952D01*
X150999048Y-106096571D01*
X150975238Y-106120381D01*
X150927619Y-106144190D01*
X150784762Y-106144190D01*
X150737143Y-106120381D01*
X150713334Y-106096571D01*
X151522857Y-106144190D02*
X151356190Y-105906095D01*
X151237143Y-106144190D02*
X151237143Y-105644190D01*
X151427619Y-105644190D01*
X151475238Y-105668000D01*
X151499047Y-105691810D01*
X151522857Y-105739429D01*
X151522857Y-105810857D01*
X151499047Y-105858476D01*
X151475238Y-105882286D01*
X151427619Y-105906095D01*
X151237143Y-105906095D01*
X150570572Y-99206857D02*
X150570572Y-99540190D01*
X150451525Y-99016381D02*
X150332477Y-99373524D01*
X150642001Y-99373524D01*
X151046762Y-99206857D02*
X151046762Y-99540190D01*
X150832477Y-99206857D02*
X150832477Y-99468762D01*
X150856286Y-99516381D01*
X150903905Y-99540190D01*
X150975334Y-99540190D01*
X151022953Y-99516381D01*
X151046762Y-99492571D01*
X151237239Y-99040190D02*
X151570572Y-99040190D01*
X151356286Y-99540190D01*
X152118190Y-99016381D02*
X151689619Y-99659238D01*
X152522953Y-99040190D02*
X152284858Y-99040190D01*
X152261048Y-99278286D01*
X152284858Y-99254476D01*
X152332477Y-99230667D01*
X152451524Y-99230667D01*
X152499143Y-99254476D01*
X152522953Y-99278286D01*
X152546762Y-99325905D01*
X152546762Y-99444952D01*
X152522953Y-99492571D01*
X152499143Y-99516381D01*
X152451524Y-99540190D01*
X152332477Y-99540190D01*
X152284858Y-99516381D01*
X152261048Y-99492571D01*
X152856286Y-99040190D02*
X152903905Y-99040190D01*
X152951524Y-99064000D01*
X152975333Y-99087810D01*
X152999143Y-99135429D01*
X153022952Y-99230667D01*
X153022952Y-99349714D01*
X152999143Y-99444952D01*
X152975333Y-99492571D01*
X152951524Y-99516381D01*
X152903905Y-99540190D01*
X152856286Y-99540190D01*
X152808667Y-99516381D01*
X152784857Y-99492571D01*
X152761048Y-99444952D01*
X152737238Y-99349714D01*
X152737238Y-99230667D01*
X152761048Y-99135429D01*
X152784857Y-99087810D01*
X152808667Y-99064000D01*
X152856286Y-99040190D01*
X153165809Y-99040190D02*
X153332476Y-99540190D01*
X153499142Y-99040190D01*
X142474286Y-111224190D02*
X142188572Y-111224190D01*
X142331429Y-111224190D02*
X142331429Y-110724190D01*
X142283810Y-110795619D01*
X142236191Y-110843238D01*
X142188572Y-110867048D01*
X142902857Y-110890857D02*
X142902857Y-111224190D01*
X142688572Y-110890857D02*
X142688572Y-111152762D01*
X142712381Y-111200381D01*
X142760000Y-111224190D01*
X142831429Y-111224190D01*
X142879048Y-111200381D01*
X142902857Y-111176571D01*
X143498095Y-110700381D02*
X143069524Y-111343238D01*
X143902858Y-110724190D02*
X143664763Y-110724190D01*
X143640953Y-110962286D01*
X143664763Y-110938476D01*
X143712382Y-110914667D01*
X143831429Y-110914667D01*
X143879048Y-110938476D01*
X143902858Y-110962286D01*
X143926667Y-111009905D01*
X143926667Y-111128952D01*
X143902858Y-111176571D01*
X143879048Y-111200381D01*
X143831429Y-111224190D01*
X143712382Y-111224190D01*
X143664763Y-111200381D01*
X143640953Y-111176571D01*
X144236191Y-110724190D02*
X144283810Y-110724190D01*
X144331429Y-110748000D01*
X144355238Y-110771810D01*
X144379048Y-110819429D01*
X144402857Y-110914667D01*
X144402857Y-111033714D01*
X144379048Y-111128952D01*
X144355238Y-111176571D01*
X144331429Y-111200381D01*
X144283810Y-111224190D01*
X144236191Y-111224190D01*
X144188572Y-111200381D01*
X144164762Y-111176571D01*
X144140953Y-111128952D01*
X144117143Y-111033714D01*
X144117143Y-110914667D01*
X144140953Y-110819429D01*
X144164762Y-110771810D01*
X144188572Y-110748000D01*
X144236191Y-110724190D01*
X144545714Y-110724190D02*
X144712381Y-111224190D01*
X144879047Y-110724190D01*
X142474286Y-109446190D02*
X142188572Y-109446190D01*
X142331429Y-109446190D02*
X142331429Y-108946190D01*
X142283810Y-109017619D01*
X142236191Y-109065238D01*
X142188572Y-109089048D01*
X142902857Y-109112857D02*
X142902857Y-109446190D01*
X142688572Y-109112857D02*
X142688572Y-109374762D01*
X142712381Y-109422381D01*
X142760000Y-109446190D01*
X142831429Y-109446190D01*
X142879048Y-109422381D01*
X142902857Y-109398571D01*
X143498095Y-108922381D02*
X143069524Y-109565238D01*
X143902858Y-108946190D02*
X143664763Y-108946190D01*
X143640953Y-109184286D01*
X143664763Y-109160476D01*
X143712382Y-109136667D01*
X143831429Y-109136667D01*
X143879048Y-109160476D01*
X143902858Y-109184286D01*
X143926667Y-109231905D01*
X143926667Y-109350952D01*
X143902858Y-109398571D01*
X143879048Y-109422381D01*
X143831429Y-109446190D01*
X143712382Y-109446190D01*
X143664763Y-109422381D01*
X143640953Y-109398571D01*
X144236191Y-108946190D02*
X144283810Y-108946190D01*
X144331429Y-108970000D01*
X144355238Y-108993810D01*
X144379048Y-109041429D01*
X144402857Y-109136667D01*
X144402857Y-109255714D01*
X144379048Y-109350952D01*
X144355238Y-109398571D01*
X144331429Y-109422381D01*
X144283810Y-109446190D01*
X144236191Y-109446190D01*
X144188572Y-109422381D01*
X144164762Y-109398571D01*
X144140953Y-109350952D01*
X144117143Y-109255714D01*
X144117143Y-109136667D01*
X144140953Y-109041429D01*
X144164762Y-108993810D01*
X144188572Y-108970000D01*
X144236191Y-108946190D01*
X144545714Y-108946190D02*
X144712381Y-109446190D01*
X144879047Y-108946190D01*
X142474286Y-107414190D02*
X142188572Y-107414190D01*
X142331429Y-107414190D02*
X142331429Y-106914190D01*
X142283810Y-106985619D01*
X142236191Y-107033238D01*
X142188572Y-107057048D01*
X142902857Y-107080857D02*
X142902857Y-107414190D01*
X142688572Y-107080857D02*
X142688572Y-107342762D01*
X142712381Y-107390381D01*
X142760000Y-107414190D01*
X142831429Y-107414190D01*
X142879048Y-107390381D01*
X142902857Y-107366571D01*
X143498095Y-106890381D02*
X143069524Y-107533238D01*
X143902858Y-106914190D02*
X143664763Y-106914190D01*
X143640953Y-107152286D01*
X143664763Y-107128476D01*
X143712382Y-107104667D01*
X143831429Y-107104667D01*
X143879048Y-107128476D01*
X143902858Y-107152286D01*
X143926667Y-107199905D01*
X143926667Y-107318952D01*
X143902858Y-107366571D01*
X143879048Y-107390381D01*
X143831429Y-107414190D01*
X143712382Y-107414190D01*
X143664763Y-107390381D01*
X143640953Y-107366571D01*
X144236191Y-106914190D02*
X144283810Y-106914190D01*
X144331429Y-106938000D01*
X144355238Y-106961810D01*
X144379048Y-107009429D01*
X144402857Y-107104667D01*
X144402857Y-107223714D01*
X144379048Y-107318952D01*
X144355238Y-107366571D01*
X144331429Y-107390381D01*
X144283810Y-107414190D01*
X144236191Y-107414190D01*
X144188572Y-107390381D01*
X144164762Y-107366571D01*
X144140953Y-107318952D01*
X144117143Y-107223714D01*
X144117143Y-107104667D01*
X144140953Y-107009429D01*
X144164762Y-106961810D01*
X144188572Y-106938000D01*
X144236191Y-106914190D01*
X144545714Y-106914190D02*
X144712381Y-107414190D01*
X144879047Y-106914190D01*
X142474286Y-105382190D02*
X142188572Y-105382190D01*
X142331429Y-105382190D02*
X142331429Y-104882190D01*
X142283810Y-104953619D01*
X142236191Y-105001238D01*
X142188572Y-105025048D01*
X142902857Y-105048857D02*
X142902857Y-105382190D01*
X142688572Y-105048857D02*
X142688572Y-105310762D01*
X142712381Y-105358381D01*
X142760000Y-105382190D01*
X142831429Y-105382190D01*
X142879048Y-105358381D01*
X142902857Y-105334571D01*
X143498095Y-104858381D02*
X143069524Y-105501238D01*
X143902858Y-104882190D02*
X143664763Y-104882190D01*
X143640953Y-105120286D01*
X143664763Y-105096476D01*
X143712382Y-105072667D01*
X143831429Y-105072667D01*
X143879048Y-105096476D01*
X143902858Y-105120286D01*
X143926667Y-105167905D01*
X143926667Y-105286952D01*
X143902858Y-105334571D01*
X143879048Y-105358381D01*
X143831429Y-105382190D01*
X143712382Y-105382190D01*
X143664763Y-105358381D01*
X143640953Y-105334571D01*
X144236191Y-104882190D02*
X144283810Y-104882190D01*
X144331429Y-104906000D01*
X144355238Y-104929810D01*
X144379048Y-104977429D01*
X144402857Y-105072667D01*
X144402857Y-105191714D01*
X144379048Y-105286952D01*
X144355238Y-105334571D01*
X144331429Y-105358381D01*
X144283810Y-105382190D01*
X144236191Y-105382190D01*
X144188572Y-105358381D01*
X144164762Y-105334571D01*
X144140953Y-105286952D01*
X144117143Y-105191714D01*
X144117143Y-105072667D01*
X144140953Y-104977429D01*
X144164762Y-104929810D01*
X144188572Y-104906000D01*
X144236191Y-104882190D01*
X144545714Y-104882190D02*
X144712381Y-105382190D01*
X144879047Y-104882190D01*
X142474286Y-103350190D02*
X142188572Y-103350190D01*
X142331429Y-103350190D02*
X142331429Y-102850190D01*
X142283810Y-102921619D01*
X142236191Y-102969238D01*
X142188572Y-102993048D01*
X142902857Y-103016857D02*
X142902857Y-103350190D01*
X142688572Y-103016857D02*
X142688572Y-103278762D01*
X142712381Y-103326381D01*
X142760000Y-103350190D01*
X142831429Y-103350190D01*
X142879048Y-103326381D01*
X142902857Y-103302571D01*
X143498095Y-102826381D02*
X143069524Y-103469238D01*
X143902858Y-102850190D02*
X143664763Y-102850190D01*
X143640953Y-103088286D01*
X143664763Y-103064476D01*
X143712382Y-103040667D01*
X143831429Y-103040667D01*
X143879048Y-103064476D01*
X143902858Y-103088286D01*
X143926667Y-103135905D01*
X143926667Y-103254952D01*
X143902858Y-103302571D01*
X143879048Y-103326381D01*
X143831429Y-103350190D01*
X143712382Y-103350190D01*
X143664763Y-103326381D01*
X143640953Y-103302571D01*
X144236191Y-102850190D02*
X144283810Y-102850190D01*
X144331429Y-102874000D01*
X144355238Y-102897810D01*
X144379048Y-102945429D01*
X144402857Y-103040667D01*
X144402857Y-103159714D01*
X144379048Y-103254952D01*
X144355238Y-103302571D01*
X144331429Y-103326381D01*
X144283810Y-103350190D01*
X144236191Y-103350190D01*
X144188572Y-103326381D01*
X144164762Y-103302571D01*
X144140953Y-103254952D01*
X144117143Y-103159714D01*
X144117143Y-103040667D01*
X144140953Y-102945429D01*
X144164762Y-102897810D01*
X144188572Y-102874000D01*
X144236191Y-102850190D01*
X144545714Y-102850190D02*
X144712381Y-103350190D01*
X144879047Y-102850190D01*
X142204477Y-98833810D02*
X142228287Y-98810000D01*
X142275906Y-98786190D01*
X142394953Y-98786190D01*
X142442572Y-98810000D01*
X142466382Y-98833810D01*
X142490191Y-98881429D01*
X142490191Y-98929048D01*
X142466382Y-99000476D01*
X142180668Y-99286190D01*
X142490191Y-99286190D01*
X142918762Y-98952857D02*
X142918762Y-99286190D01*
X142704477Y-98952857D02*
X142704477Y-99214762D01*
X142728286Y-99262381D01*
X142775905Y-99286190D01*
X142847334Y-99286190D01*
X142894953Y-99262381D01*
X142918762Y-99238571D01*
X143133048Y-98833810D02*
X143156858Y-98810000D01*
X143204477Y-98786190D01*
X143323524Y-98786190D01*
X143371143Y-98810000D01*
X143394953Y-98833810D01*
X143418762Y-98881429D01*
X143418762Y-98929048D01*
X143394953Y-99000476D01*
X143109239Y-99286190D01*
X143418762Y-99286190D01*
X143990190Y-98762381D02*
X143561619Y-99405238D01*
X144394953Y-98786190D02*
X144156858Y-98786190D01*
X144133048Y-99024286D01*
X144156858Y-99000476D01*
X144204477Y-98976667D01*
X144323524Y-98976667D01*
X144371143Y-99000476D01*
X144394953Y-99024286D01*
X144418762Y-99071905D01*
X144418762Y-99190952D01*
X144394953Y-99238571D01*
X144371143Y-99262381D01*
X144323524Y-99286190D01*
X144204477Y-99286190D01*
X144156858Y-99262381D01*
X144133048Y-99238571D01*
X144728286Y-98786190D02*
X144775905Y-98786190D01*
X144823524Y-98810000D01*
X144847333Y-98833810D01*
X144871143Y-98881429D01*
X144894952Y-98976667D01*
X144894952Y-99095714D01*
X144871143Y-99190952D01*
X144847333Y-99238571D01*
X144823524Y-99262381D01*
X144775905Y-99286190D01*
X144728286Y-99286190D01*
X144680667Y-99262381D01*
X144656857Y-99238571D01*
X144633048Y-99190952D01*
X144609238Y-99095714D01*
X144609238Y-98976667D01*
X144633048Y-98881429D01*
X144656857Y-98833810D01*
X144680667Y-98810000D01*
X144728286Y-98786190D01*
X145037809Y-98786190D02*
X145204476Y-99286190D01*
X145371142Y-98786190D01*
X142474286Y-101318190D02*
X142188572Y-101318190D01*
X142331429Y-101318190D02*
X142331429Y-100818190D01*
X142283810Y-100889619D01*
X142236191Y-100937238D01*
X142188572Y-100961048D01*
X142902857Y-100984857D02*
X142902857Y-101318190D01*
X142688572Y-100984857D02*
X142688572Y-101246762D01*
X142712381Y-101294381D01*
X142760000Y-101318190D01*
X142831429Y-101318190D01*
X142879048Y-101294381D01*
X142902857Y-101270571D01*
X143498095Y-100794381D02*
X143069524Y-101437238D01*
X143902858Y-100818190D02*
X143664763Y-100818190D01*
X143640953Y-101056286D01*
X143664763Y-101032476D01*
X143712382Y-101008667D01*
X143831429Y-101008667D01*
X143879048Y-101032476D01*
X143902858Y-101056286D01*
X143926667Y-101103905D01*
X143926667Y-101222952D01*
X143902858Y-101270571D01*
X143879048Y-101294381D01*
X143831429Y-101318190D01*
X143712382Y-101318190D01*
X143664763Y-101294381D01*
X143640953Y-101270571D01*
X144236191Y-100818190D02*
X144283810Y-100818190D01*
X144331429Y-100842000D01*
X144355238Y-100865810D01*
X144379048Y-100913429D01*
X144402857Y-101008667D01*
X144402857Y-101127714D01*
X144379048Y-101222952D01*
X144355238Y-101270571D01*
X144331429Y-101294381D01*
X144283810Y-101318190D01*
X144236191Y-101318190D01*
X144188572Y-101294381D01*
X144164762Y-101270571D01*
X144140953Y-101222952D01*
X144117143Y-101127714D01*
X144117143Y-101008667D01*
X144140953Y-100913429D01*
X144164762Y-100865810D01*
X144188572Y-100842000D01*
X144236191Y-100818190D01*
X144545714Y-100818190D02*
X144712381Y-101318190D01*
X144879047Y-100818190D01*
X142474286Y-97254190D02*
X142188572Y-97254190D01*
X142331429Y-97254190D02*
X142331429Y-96754190D01*
X142283810Y-96825619D01*
X142236191Y-96873238D01*
X142188572Y-96897048D01*
X142902857Y-96920857D02*
X142902857Y-97254190D01*
X142688572Y-96920857D02*
X142688572Y-97182762D01*
X142712381Y-97230381D01*
X142760000Y-97254190D01*
X142831429Y-97254190D01*
X142879048Y-97230381D01*
X142902857Y-97206571D01*
X143498095Y-96730381D02*
X143069524Y-97373238D01*
X143902858Y-96754190D02*
X143664763Y-96754190D01*
X143640953Y-96992286D01*
X143664763Y-96968476D01*
X143712382Y-96944667D01*
X143831429Y-96944667D01*
X143879048Y-96968476D01*
X143902858Y-96992286D01*
X143926667Y-97039905D01*
X143926667Y-97158952D01*
X143902858Y-97206571D01*
X143879048Y-97230381D01*
X143831429Y-97254190D01*
X143712382Y-97254190D01*
X143664763Y-97230381D01*
X143640953Y-97206571D01*
X144236191Y-96754190D02*
X144283810Y-96754190D01*
X144331429Y-96778000D01*
X144355238Y-96801810D01*
X144379048Y-96849429D01*
X144402857Y-96944667D01*
X144402857Y-97063714D01*
X144379048Y-97158952D01*
X144355238Y-97206571D01*
X144331429Y-97230381D01*
X144283810Y-97254190D01*
X144236191Y-97254190D01*
X144188572Y-97230381D01*
X144164762Y-97206571D01*
X144140953Y-97158952D01*
X144117143Y-97063714D01*
X144117143Y-96944667D01*
X144140953Y-96849429D01*
X144164762Y-96801810D01*
X144188572Y-96778000D01*
X144236191Y-96754190D01*
X144545714Y-96754190D02*
X144712381Y-97254190D01*
X144879047Y-96754190D01*
D12*
X157998000Y-100574000D02*
X157998000Y-105674000D01*
X152898000Y-100574000D02*
X152898000Y-105674000D01*
X154844000Y-97698000D02*
X155544000Y-97698000D01*
X155544000Y-98898000D02*
X154844000Y-98898000D01*
X148328000Y-101004000D02*
X147328000Y-101004000D01*
X147328000Y-102704000D02*
X148328000Y-102704000D01*
X139284000Y-102778000D02*
X139984000Y-102778000D01*
X139984000Y-103978000D02*
X139284000Y-103978000D01*
X140220000Y-98464000D02*
X139220000Y-98464000D01*
X139220000Y-100164000D02*
X140220000Y-100164000D01*
X139350000Y-110906000D02*
X140050000Y-110906000D01*
X140050000Y-112106000D02*
X139350000Y-112106000D01*
X139350000Y-108874000D02*
X140050000Y-108874000D01*
X140050000Y-110074000D02*
X139350000Y-110074000D01*
X139350000Y-106842000D02*
X140050000Y-106842000D01*
X140050000Y-108042000D02*
X139350000Y-108042000D01*
X139350000Y-104810000D02*
X140050000Y-104810000D01*
X140050000Y-106010000D02*
X139350000Y-106010000D01*
X139284000Y-100746000D02*
X139984000Y-100746000D01*
X139984000Y-101946000D02*
X139284000Y-101946000D01*
X139350000Y-96682000D02*
X140050000Y-96682000D01*
X140050000Y-97882000D02*
X139350000Y-97882000D01*
X145578000Y-103140000D02*
X145578000Y-105140000D01*
X145578000Y-105140000D02*
X149478000Y-105140000D01*
X145578000Y-103140000D02*
X149478000Y-103140000D01*
X150079000Y-98282000D02*
X150079000Y-96282000D01*
X150079000Y-96282000D02*
X146179000Y-96282000D01*
X150079000Y-98282000D02*
X146179000Y-98282000D01*
X145578000Y-98822000D02*
X145578000Y-100822000D01*
X145578000Y-100822000D02*
X149478000Y-100822000D01*
X145578000Y-98822000D02*
X149478000Y-98822000D01*
D10*
X125492000Y-94250000D02*
X125492000Y-110250000D01*
X129492000Y-94250000D02*
X125492000Y-94250000D01*
X125492000Y-113750000D02*
X125492000Y-110250000D01*
X129492000Y-113750000D02*
X125492000Y-113750000D01*
X129492000Y-98250000D02*
X129492000Y-94250000D01*
X129492000Y-98250000D02*
X129492000Y-113750000D01*
X124992000Y-112250000D02*
X125492000Y-112250000D01*
X124992000Y-113250000D02*
X124992000Y-112250000D01*
X124492000Y-113250000D02*
X124992000Y-113250000D01*
X123992000Y-113250000D02*
X124492000Y-113250000D01*
X123992000Y-94750000D02*
X123992000Y-113250000D01*
X124992000Y-94750000D02*
X123992000Y-94750000D01*
X124992000Y-95750000D02*
X124992000Y-94750000D01*
X125492000Y-95750000D02*
X124992000Y-95750000D01*
D12*
X148574000Y-109212000D02*
X148574000Y-109872000D01*
X148574000Y-107552000D02*
X148574000Y-108212000D01*
X148574000Y-107552000D02*
X146544000Y-107552000D01*
X147164000Y-109872000D02*
X148574000Y-109872000D01*
X148412000Y-106852000D02*
X147412000Y-106852000D01*
X147412000Y-105492000D02*
X148412000Y-105492000D01*
X148328000Y-111932000D02*
X147328000Y-111932000D01*
X147328000Y-110572000D02*
X148328000Y-110572000D01*
D10*
X165608000Y-97790000D02*
X166116000Y-98298000D01*
X161798000Y-97790000D02*
X161290000Y-98298000D01*
X165608000Y-97790000D02*
X161798000Y-97790000D01*
X161798000Y-97790000D02*
X165608000Y-97790000D01*
X165608000Y-107950000D02*
X166116000Y-107696000D01*
X161798000Y-107950000D02*
X161290000Y-107442000D01*
X162052000Y-107950000D02*
X165608000Y-107950000D01*
X165608000Y-107950000D02*
X161798000Y-107950000D01*
X138677001Y-112392667D02*
X138910334Y-113092667D01*
X139143667Y-112392667D01*
X139610334Y-112726000D02*
X139710334Y-112759333D01*
X139743667Y-112792667D01*
X139777001Y-112859333D01*
X139777001Y-112959333D01*
X139743667Y-113026000D01*
X139710334Y-113059333D01*
X139643667Y-113092667D01*
X139377001Y-113092667D01*
X139377001Y-112392667D01*
X139610334Y-112392667D01*
X139677001Y-112426000D01*
X139710334Y-112459333D01*
X139743667Y-112526000D01*
X139743667Y-112592667D01*
X139710334Y-112659333D01*
X139677001Y-112692667D01*
X139610334Y-112726000D01*
X139377001Y-112726000D01*
X140043667Y-112892667D02*
X140377001Y-112892667D01*
X139977001Y-113092667D02*
X140210334Y-112392667D01*
X140443667Y-113092667D01*
X140577001Y-112392667D02*
X140977001Y-112392667D01*
X140777001Y-113092667D02*
X140777001Y-112392667D01*
X141800334Y-113092667D02*
X141567000Y-112759333D01*
X141400334Y-113092667D02*
X141400334Y-112392667D01*
X141667000Y-112392667D01*
X141733667Y-112426000D01*
X141767000Y-112459333D01*
X141800334Y-112526000D01*
X141800334Y-112626000D01*
X141767000Y-112692667D01*
X141733667Y-112726000D01*
X141667000Y-112759333D01*
X141400334Y-112759333D01*
X142367000Y-113059333D02*
X142300334Y-113092667D01*
X142167000Y-113092667D01*
X142100334Y-113059333D01*
X142067000Y-112992667D01*
X142067000Y-112726000D01*
X142100334Y-112659333D01*
X142167000Y-112626000D01*
X142300334Y-112626000D01*
X142367000Y-112659333D01*
X142400334Y-112726000D01*
X142400334Y-112792667D01*
X142067000Y-112859333D01*
X143000334Y-112626000D02*
X143000334Y-113192667D01*
X142967000Y-113259333D01*
X142933667Y-113292667D01*
X142867000Y-113326000D01*
X142767000Y-113326000D01*
X142700334Y-113292667D01*
X143000334Y-113059333D02*
X142933667Y-113092667D01*
X142800334Y-113092667D01*
X142733667Y-113059333D01*
X142700334Y-113026000D01*
X142667000Y-112959333D01*
X142667000Y-112759333D01*
X142700334Y-112692667D01*
X142733667Y-112659333D01*
X142800334Y-112626000D01*
X142933667Y-112626000D01*
X143000334Y-112659333D01*
X143333667Y-113026000D02*
X143367000Y-113059333D01*
X143333667Y-113092667D01*
X143300333Y-113059333D01*
X143333667Y-113026000D01*
X143333667Y-113092667D01*
X141900334Y-111862400D02*
X142133667Y-111862400D01*
X142233667Y-112229067D02*
X141900334Y-112229067D01*
X141900334Y-111529067D01*
X142233667Y-111529067D01*
X142533667Y-111762400D02*
X142533667Y-112229067D01*
X142533667Y-111829067D02*
X142567000Y-111795733D01*
X142633667Y-111762400D01*
X142733667Y-111762400D01*
X142800333Y-111795733D01*
X142833667Y-111862400D01*
X142833667Y-112229067D01*
X159047001Y-96074667D02*
X159047001Y-95374667D01*
X159280334Y-95874667D01*
X159513667Y-95374667D01*
X159513667Y-96074667D01*
X159847001Y-96074667D02*
X159847001Y-95374667D01*
X160147000Y-96041333D02*
X160247000Y-96074667D01*
X160413667Y-96074667D01*
X160480334Y-96041333D01*
X160513667Y-96008000D01*
X160547000Y-95941333D01*
X160547000Y-95874667D01*
X160513667Y-95808000D01*
X160480334Y-95774667D01*
X160413667Y-95741333D01*
X160280334Y-95708000D01*
X160213667Y-95674667D01*
X160180334Y-95641333D01*
X160147000Y-95574667D01*
X160147000Y-95508000D01*
X160180334Y-95441333D01*
X160213667Y-95408000D01*
X160280334Y-95374667D01*
X160447000Y-95374667D01*
X160547000Y-95408000D01*
X160980334Y-95374667D02*
X161113667Y-95374667D01*
X161180334Y-95408000D01*
X161247001Y-95474667D01*
X161280334Y-95608000D01*
X161280334Y-95841333D01*
X161247001Y-95974667D01*
X161180334Y-96041333D01*
X161113667Y-96074667D01*
X160980334Y-96074667D01*
X160913667Y-96041333D01*
X160847001Y-95974667D01*
X160813667Y-95841333D01*
X160813667Y-95608000D01*
X160847001Y-95474667D01*
X160913667Y-95408000D01*
X160980334Y-95374667D01*
X156507001Y-96074667D02*
X156507001Y-95374667D01*
X156740334Y-95874667D01*
X156973667Y-95374667D01*
X156973667Y-96074667D01*
X157440334Y-95374667D02*
X157573667Y-95374667D01*
X157640334Y-95408000D01*
X157707001Y-95474667D01*
X157740334Y-95608000D01*
X157740334Y-95841333D01*
X157707001Y-95974667D01*
X157640334Y-96041333D01*
X157573667Y-96074667D01*
X157440334Y-96074667D01*
X157373667Y-96041333D01*
X157307001Y-95974667D01*
X157273667Y-95841333D01*
X157273667Y-95608000D01*
X157307001Y-95474667D01*
X157373667Y-95408000D01*
X157440334Y-95374667D01*
X158007000Y-96041333D02*
X158107000Y-96074667D01*
X158273667Y-96074667D01*
X158340334Y-96041333D01*
X158373667Y-96008000D01*
X158407000Y-95941333D01*
X158407000Y-95874667D01*
X158373667Y-95808000D01*
X158340334Y-95774667D01*
X158273667Y-95741333D01*
X158140334Y-95708000D01*
X158073667Y-95674667D01*
X158040334Y-95641333D01*
X158007000Y-95574667D01*
X158007000Y-95508000D01*
X158040334Y-95441333D01*
X158073667Y-95408000D01*
X158140334Y-95374667D01*
X158307000Y-95374667D01*
X158407000Y-95408000D01*
X158707001Y-96074667D02*
X158707001Y-95374667D01*
X153883666Y-96041333D02*
X153983666Y-96074667D01*
X154150333Y-96074667D01*
X154217000Y-96041333D01*
X154250333Y-96008000D01*
X154283666Y-95941333D01*
X154283666Y-95874667D01*
X154250333Y-95808000D01*
X154217000Y-95774667D01*
X154150333Y-95741333D01*
X154017000Y-95708000D01*
X153950333Y-95674667D01*
X153917000Y-95641333D01*
X153883666Y-95574667D01*
X153883666Y-95508000D01*
X153917000Y-95441333D01*
X153950333Y-95408000D01*
X154017000Y-95374667D01*
X154183666Y-95374667D01*
X154283666Y-95408000D01*
X154983667Y-96008000D02*
X154950333Y-96041333D01*
X154850333Y-96074667D01*
X154783667Y-96074667D01*
X154683667Y-96041333D01*
X154617000Y-95974667D01*
X154583667Y-95908000D01*
X154550333Y-95774667D01*
X154550333Y-95674667D01*
X154583667Y-95541333D01*
X154617000Y-95474667D01*
X154683667Y-95408000D01*
X154783667Y-95374667D01*
X154850333Y-95374667D01*
X154950333Y-95408000D01*
X154983667Y-95441333D01*
X155617000Y-96074667D02*
X155283667Y-96074667D01*
X155283667Y-95374667D01*
X155850334Y-96074667D02*
X155850334Y-95374667D01*
X156250334Y-96074667D02*
X155950334Y-95674667D01*
X156250334Y-95374667D02*
X155850334Y-95774667D01*
X133613667Y-95874667D02*
X133947001Y-95874667D01*
X133547001Y-96074667D02*
X133780334Y-95374667D01*
X134013667Y-96074667D01*
X134647001Y-96074667D02*
X134413667Y-95741333D01*
X134247001Y-96074667D02*
X134247001Y-95374667D01*
X134513667Y-95374667D01*
X134580334Y-95408000D01*
X134613667Y-95441333D01*
X134647001Y-95508000D01*
X134647001Y-95608000D01*
X134613667Y-95674667D01*
X134580334Y-95708000D01*
X134513667Y-95741333D01*
X134247001Y-95741333D01*
X134947001Y-95708000D02*
X135180334Y-95708000D01*
X135280334Y-96074667D02*
X134947001Y-96074667D01*
X134947001Y-95374667D01*
X135280334Y-95374667D01*
X135813667Y-95708000D02*
X135580334Y-95708000D01*
X135580334Y-96074667D02*
X135580334Y-95374667D01*
X135913667Y-95374667D01*
X167157477Y-95358000D02*
X167081286Y-95319905D01*
X166967001Y-95319905D01*
X166852715Y-95358000D01*
X166776524Y-95434190D01*
X166738429Y-95510381D01*
X166700334Y-95662762D01*
X166700334Y-95777048D01*
X166738429Y-95929429D01*
X166776524Y-96005619D01*
X166852715Y-96081810D01*
X166967001Y-96119905D01*
X167043191Y-96119905D01*
X167157477Y-96081810D01*
X167195572Y-96043714D01*
X167195572Y-95777048D01*
X167043191Y-95777048D01*
X167538429Y-96119905D02*
X167538429Y-95319905D01*
X167995572Y-96119905D01*
X167995572Y-95319905D01*
X168376524Y-96119905D02*
X168376524Y-95319905D01*
X168567000Y-95319905D01*
X168681286Y-95358000D01*
X168757477Y-95434190D01*
X168795572Y-95510381D01*
X168833667Y-95662762D01*
X168833667Y-95777048D01*
X168795572Y-95929429D01*
X168757477Y-96005619D01*
X168681286Y-96081810D01*
X168567000Y-96119905D01*
X168376524Y-96119905D01*
X164617476Y-95319905D02*
X165074619Y-95319905D01*
X164846048Y-96119905D02*
X164846048Y-95319905D01*
X165265096Y-95319905D02*
X165798429Y-96119905D01*
X165798429Y-95319905D02*
X165265096Y-96119905D01*
X162553667Y-96119905D02*
X162287000Y-95738952D01*
X162096524Y-96119905D02*
X162096524Y-95319905D01*
X162401286Y-95319905D01*
X162477477Y-95358000D01*
X162515572Y-95396095D01*
X162553667Y-95472286D01*
X162553667Y-95586571D01*
X162515572Y-95662762D01*
X162477477Y-95700857D01*
X162401286Y-95738952D01*
X162096524Y-95738952D01*
X162820334Y-95319905D02*
X163353667Y-96119905D01*
X163353667Y-95319905D02*
X162820334Y-96119905D01*
X151955572Y-95891333D02*
X152336524Y-95891333D01*
X151879381Y-96119905D02*
X152146048Y-95319905D01*
X152412715Y-96119905D01*
X153060334Y-95319905D02*
X152679381Y-95319905D01*
X152641286Y-95700857D01*
X152679381Y-95662762D01*
X152755572Y-95624667D01*
X152946048Y-95624667D01*
X153022238Y-95662762D01*
X153060334Y-95700857D01*
X153098429Y-95777048D01*
X153098429Y-95967524D01*
X153060334Y-96043714D01*
X153022238Y-96081810D01*
X152946048Y-96119905D01*
X152755572Y-96119905D01*
X152679381Y-96081810D01*
X152641286Y-96043714D01*
X149415572Y-95891333D02*
X149796524Y-95891333D01*
X149339381Y-96119905D02*
X149606048Y-95319905D01*
X149872715Y-96119905D01*
X150482238Y-95586571D02*
X150482238Y-96119905D01*
X150291762Y-95281810D02*
X150101286Y-95853238D01*
X150596524Y-95853238D01*
X146875572Y-95891333D02*
X147256524Y-95891333D01*
X146799381Y-96119905D02*
X147066048Y-95319905D01*
X147332715Y-96119905D01*
X147523191Y-95319905D02*
X148018429Y-95319905D01*
X147751762Y-95624667D01*
X147866048Y-95624667D01*
X147942238Y-95662762D01*
X147980334Y-95700857D01*
X148018429Y-95777048D01*
X148018429Y-95967524D01*
X147980334Y-96043714D01*
X147942238Y-96081810D01*
X147866048Y-96119905D01*
X147637476Y-96119905D01*
X147561286Y-96081810D01*
X147523191Y-96043714D01*
X144335572Y-95891333D02*
X144716524Y-95891333D01*
X144259381Y-96119905D02*
X144526048Y-95319905D01*
X144792715Y-96119905D01*
X145021286Y-95396095D02*
X145059381Y-95358000D01*
X145135572Y-95319905D01*
X145326048Y-95319905D01*
X145402238Y-95358000D01*
X145440334Y-95396095D01*
X145478429Y-95472286D01*
X145478429Y-95548476D01*
X145440334Y-95662762D01*
X144983191Y-96119905D01*
X145478429Y-96119905D01*
X141795572Y-95891333D02*
X142176524Y-95891333D01*
X141719381Y-96119905D02*
X141986048Y-95319905D01*
X142252715Y-96119905D01*
X142938429Y-96119905D02*
X142481286Y-96119905D01*
X142709857Y-96119905D02*
X142709857Y-95319905D01*
X142633667Y-95434190D01*
X142557476Y-95510381D01*
X142481286Y-95548476D01*
X139255572Y-95891333D02*
X139636524Y-95891333D01*
X139179381Y-96119905D02*
X139446048Y-95319905D01*
X139712715Y-96119905D01*
X140131762Y-95319905D02*
X140207953Y-95319905D01*
X140284143Y-95358000D01*
X140322238Y-95396095D01*
X140360334Y-95472286D01*
X140398429Y-95624667D01*
X140398429Y-95815143D01*
X140360334Y-95967524D01*
X140322238Y-96043714D01*
X140284143Y-96081810D01*
X140207953Y-96119905D01*
X140131762Y-96119905D01*
X140055572Y-96081810D01*
X140017476Y-96043714D01*
X139979381Y-95967524D01*
X139941286Y-95815143D01*
X139941286Y-95624667D01*
X139979381Y-95472286D01*
X140017476Y-95396095D01*
X140055572Y-95358000D01*
X140131762Y-95319905D01*
X136677477Y-95358000D02*
X136601286Y-95319905D01*
X136487001Y-95319905D01*
X136372715Y-95358000D01*
X136296524Y-95434190D01*
X136258429Y-95510381D01*
X136220334Y-95662762D01*
X136220334Y-95777048D01*
X136258429Y-95929429D01*
X136296524Y-96005619D01*
X136372715Y-96081810D01*
X136487001Y-96119905D01*
X136563191Y-96119905D01*
X136677477Y-96081810D01*
X136715572Y-96043714D01*
X136715572Y-95777048D01*
X136563191Y-95777048D01*
X137058429Y-96119905D02*
X137058429Y-95319905D01*
X137515572Y-96119905D01*
X137515572Y-95319905D01*
X137896524Y-96119905D02*
X137896524Y-95319905D01*
X138087000Y-95319905D01*
X138201286Y-95358000D01*
X138277477Y-95434190D01*
X138315572Y-95510381D01*
X138353667Y-95662762D01*
X138353667Y-95777048D01*
X138315572Y-95929429D01*
X138277477Y-96005619D01*
X138201286Y-96081810D01*
X138087000Y-96119905D01*
X137896524Y-96119905D01*
X131216524Y-95319905D02*
X131711762Y-95319905D01*
X131445095Y-95624667D01*
X131559381Y-95624667D01*
X131635571Y-95662762D01*
X131673667Y-95700857D01*
X131711762Y-95777048D01*
X131711762Y-95967524D01*
X131673667Y-96043714D01*
X131635571Y-96081810D01*
X131559381Y-96119905D01*
X131330809Y-96119905D01*
X131254619Y-96081810D01*
X131216524Y-96043714D01*
X131940333Y-95319905D02*
X132207000Y-96119905D01*
X132473667Y-95319905D01*
X132664143Y-95319905D02*
X133159381Y-95319905D01*
X132892714Y-95624667D01*
X133007000Y-95624667D01*
X133083190Y-95662762D01*
X133121286Y-95700857D01*
X133159381Y-95777048D01*
X133159381Y-95967524D01*
X133121286Y-96043714D01*
X133083190Y-96081810D01*
X133007000Y-96119905D01*
X132778428Y-96119905D01*
X132702238Y-96081810D01*
X132664143Y-96043714D01*
X129228905Y-96119905D02*
X128962238Y-95738952D01*
X128771762Y-96119905D02*
X128771762Y-95319905D01*
X129076524Y-95319905D01*
X129152715Y-95358000D01*
X129190810Y-95396095D01*
X129228905Y-95472286D01*
X129228905Y-95586571D01*
X129190810Y-95662762D01*
X129152715Y-95700857D01*
X129076524Y-95738952D01*
X128771762Y-95738952D01*
X129533667Y-96081810D02*
X129647953Y-96119905D01*
X129838429Y-96119905D01*
X129914619Y-96081810D01*
X129952715Y-96043714D01*
X129990810Y-95967524D01*
X129990810Y-95891333D01*
X129952715Y-95815143D01*
X129914619Y-95777048D01*
X129838429Y-95738952D01*
X129686048Y-95700857D01*
X129609857Y-95662762D01*
X129571762Y-95624667D01*
X129533667Y-95548476D01*
X129533667Y-95472286D01*
X129571762Y-95396095D01*
X129609857Y-95358000D01*
X129686048Y-95319905D01*
X129876524Y-95319905D01*
X129990810Y-95358000D01*
X130219381Y-95319905D02*
X130676524Y-95319905D01*
X130447953Y-96119905D02*
X130447953Y-95319905D01*
X143623667Y-112392667D02*
X143857000Y-113092667D01*
X144090333Y-112392667D01*
X144557000Y-112726000D02*
X144657000Y-112759333D01*
X144690333Y-112792667D01*
X144723667Y-112859333D01*
X144723667Y-112959333D01*
X144690333Y-113026000D01*
X144657000Y-113059333D01*
X144590333Y-113092667D01*
X144323667Y-113092667D01*
X144323667Y-112392667D01*
X144557000Y-112392667D01*
X144623667Y-112426000D01*
X144657000Y-112459333D01*
X144690333Y-112526000D01*
X144690333Y-112592667D01*
X144657000Y-112659333D01*
X144623667Y-112692667D01*
X144557000Y-112726000D01*
X144323667Y-112726000D01*
X145023667Y-112392667D02*
X145023667Y-112959333D01*
X145057000Y-113026000D01*
X145090333Y-113059333D01*
X145157000Y-113092667D01*
X145290333Y-113092667D01*
X145357000Y-113059333D01*
X145390333Y-113026000D01*
X145423667Y-112959333D01*
X145423667Y-112392667D01*
X145723666Y-113059333D02*
X145823666Y-113092667D01*
X145990333Y-113092667D01*
X146057000Y-113059333D01*
X146090333Y-113026000D01*
X146123666Y-112959333D01*
X146123666Y-112892667D01*
X146090333Y-112826000D01*
X146057000Y-112792667D01*
X145990333Y-112759333D01*
X145857000Y-112726000D01*
X145790333Y-112692667D01*
X145757000Y-112659333D01*
X145723666Y-112592667D01*
X145723666Y-112526000D01*
X145757000Y-112459333D01*
X145790333Y-112426000D01*
X145857000Y-112392667D01*
X146023666Y-112392667D01*
X146123666Y-112426000D01*
X146475571Y-113137905D02*
X146475571Y-112337905D01*
X146666047Y-112337905D01*
X146780333Y-112376000D01*
X146856524Y-112452190D01*
X146894619Y-112528381D01*
X146932714Y-112680762D01*
X146932714Y-112795048D01*
X146894619Y-112947429D01*
X146856524Y-113023619D01*
X146780333Y-113099810D01*
X146666047Y-113137905D01*
X146475571Y-113137905D01*
X147694619Y-113137905D02*
X147237476Y-113137905D01*
X147466047Y-113137905D02*
X147466047Y-112337905D01*
X147389857Y-112452190D01*
X147313666Y-112528381D01*
X147237476Y-112566476D01*
X147961286Y-112337905D02*
X148456524Y-112337905D01*
X148189857Y-112642667D01*
X148304143Y-112642667D01*
X148380333Y-112680762D01*
X148418429Y-112718857D01*
X148456524Y-112795048D01*
X148456524Y-112985524D01*
X148418429Y-113061714D01*
X148380333Y-113099810D01*
X148304143Y-113137905D01*
X148075571Y-113137905D01*
X147999381Y-113099810D01*
X147961286Y-113061714D01*
X149015571Y-113137905D02*
X149015571Y-112337905D01*
X149206047Y-112337905D01*
X149320333Y-112376000D01*
X149396524Y-112452190D01*
X149434619Y-112528381D01*
X149472714Y-112680762D01*
X149472714Y-112795048D01*
X149434619Y-112947429D01*
X149396524Y-113023619D01*
X149320333Y-113099810D01*
X149206047Y-113137905D01*
X149015571Y-113137905D01*
X150234619Y-113137905D02*
X149777476Y-113137905D01*
X150006047Y-113137905D02*
X150006047Y-112337905D01*
X149929857Y-112452190D01*
X149853666Y-112528381D01*
X149777476Y-112566476D01*
X150539381Y-112414095D02*
X150577476Y-112376000D01*
X150653667Y-112337905D01*
X150844143Y-112337905D01*
X150920333Y-112376000D01*
X150958429Y-112414095D01*
X150996524Y-112490286D01*
X150996524Y-112566476D01*
X150958429Y-112680762D01*
X150501286Y-113137905D01*
X150996524Y-113137905D01*
X151555571Y-113137905D02*
X151555571Y-112337905D01*
X151746047Y-112337905D01*
X151860333Y-112376000D01*
X151936524Y-112452190D01*
X151974619Y-112528381D01*
X152012714Y-112680762D01*
X152012714Y-112795048D01*
X151974619Y-112947429D01*
X151936524Y-113023619D01*
X151860333Y-113099810D01*
X151746047Y-113137905D01*
X151555571Y-113137905D01*
X152774619Y-113137905D02*
X152317476Y-113137905D01*
X152546047Y-113137905D02*
X152546047Y-112337905D01*
X152469857Y-112452190D01*
X152393666Y-112528381D01*
X152317476Y-112566476D01*
X153536524Y-113137905D02*
X153079381Y-113137905D01*
X153307952Y-113137905D02*
X153307952Y-112337905D01*
X153231762Y-112452190D01*
X153155571Y-112528381D01*
X153079381Y-112566476D01*
X154095571Y-113137905D02*
X154095571Y-112337905D01*
X154286047Y-112337905D01*
X154400333Y-112376000D01*
X154476524Y-112452190D01*
X154514619Y-112528381D01*
X154552714Y-112680762D01*
X154552714Y-112795048D01*
X154514619Y-112947429D01*
X154476524Y-113023619D01*
X154400333Y-113099810D01*
X154286047Y-113137905D01*
X154095571Y-113137905D01*
X155314619Y-113137905D02*
X154857476Y-113137905D01*
X155086047Y-113137905D02*
X155086047Y-112337905D01*
X155009857Y-112452190D01*
X154933666Y-112528381D01*
X154857476Y-112566476D01*
X155809857Y-112337905D02*
X155886048Y-112337905D01*
X155962238Y-112376000D01*
X156000333Y-112414095D01*
X156038429Y-112490286D01*
X156076524Y-112642667D01*
X156076524Y-112833143D01*
X156038429Y-112985524D01*
X156000333Y-113061714D01*
X155962238Y-113099810D01*
X155886048Y-113137905D01*
X155809857Y-113137905D01*
X155733667Y-113099810D01*
X155695571Y-113061714D01*
X155657476Y-112985524D01*
X155619381Y-112833143D01*
X155619381Y-112642667D01*
X155657476Y-112490286D01*
X155695571Y-112414095D01*
X155733667Y-112376000D01*
X155809857Y-112337905D01*
X157016524Y-113137905D02*
X157016524Y-112337905D01*
X157207000Y-112337905D01*
X157321286Y-112376000D01*
X157397477Y-112452190D01*
X157435572Y-112528381D01*
X157473667Y-112680762D01*
X157473667Y-112795048D01*
X157435572Y-112947429D01*
X157397477Y-113023619D01*
X157321286Y-113099810D01*
X157207000Y-113137905D01*
X157016524Y-113137905D01*
X157854619Y-113137905D02*
X158007000Y-113137905D01*
X158083191Y-113099810D01*
X158121286Y-113061714D01*
X158197477Y-112947429D01*
X158235572Y-112795048D01*
X158235572Y-112490286D01*
X158197477Y-112414095D01*
X158159381Y-112376000D01*
X158083191Y-112337905D01*
X157930810Y-112337905D01*
X157854619Y-112376000D01*
X157816524Y-112414095D01*
X157778429Y-112490286D01*
X157778429Y-112680762D01*
X157816524Y-112756952D01*
X157854619Y-112795048D01*
X157930810Y-112833143D01*
X158083191Y-112833143D01*
X158159381Y-112795048D01*
X158197477Y-112756952D01*
X158235572Y-112680762D01*
X159556524Y-113137905D02*
X159556524Y-112337905D01*
X159747000Y-112337905D01*
X159861286Y-112376000D01*
X159937477Y-112452190D01*
X159975572Y-112528381D01*
X160013667Y-112680762D01*
X160013667Y-112795048D01*
X159975572Y-112947429D01*
X159937477Y-113023619D01*
X159861286Y-113099810D01*
X159747000Y-113137905D01*
X159556524Y-113137905D01*
X160699381Y-112337905D02*
X160547000Y-112337905D01*
X160470810Y-112376000D01*
X160432715Y-112414095D01*
X160356524Y-112528381D01*
X160318429Y-112680762D01*
X160318429Y-112985524D01*
X160356524Y-113061714D01*
X160394619Y-113099810D01*
X160470810Y-113137905D01*
X160623191Y-113137905D01*
X160699381Y-113099810D01*
X160737477Y-113061714D01*
X160775572Y-112985524D01*
X160775572Y-112795048D01*
X160737477Y-112718857D01*
X160699381Y-112680762D01*
X160623191Y-112642667D01*
X160470810Y-112642667D01*
X160394619Y-112680762D01*
X160356524Y-112718857D01*
X160318429Y-112795048D01*
X162096524Y-113137905D02*
X162096524Y-112337905D01*
X162287000Y-112337905D01*
X162401286Y-112376000D01*
X162477477Y-112452190D01*
X162515572Y-112528381D01*
X162553667Y-112680762D01*
X162553667Y-112795048D01*
X162515572Y-112947429D01*
X162477477Y-113023619D01*
X162401286Y-113099810D01*
X162287000Y-113137905D01*
X162096524Y-113137905D01*
X163277477Y-112337905D02*
X162896524Y-112337905D01*
X162858429Y-112718857D01*
X162896524Y-112680762D01*
X162972715Y-112642667D01*
X163163191Y-112642667D01*
X163239381Y-112680762D01*
X163277477Y-112718857D01*
X163315572Y-112795048D01*
X163315572Y-112985524D01*
X163277477Y-113061714D01*
X163239381Y-113099810D01*
X163163191Y-113137905D01*
X162972715Y-113137905D01*
X162896524Y-113099810D01*
X162858429Y-113061714D01*
X164274619Y-113099810D02*
X164388905Y-113137905D01*
X164579381Y-113137905D01*
X164655571Y-113099810D01*
X164693667Y-113061714D01*
X164731762Y-112985524D01*
X164731762Y-112909333D01*
X164693667Y-112833143D01*
X164655571Y-112795048D01*
X164579381Y-112756952D01*
X164427000Y-112718857D01*
X164350809Y-112680762D01*
X164312714Y-112642667D01*
X164274619Y-112566476D01*
X164274619Y-112490286D01*
X164312714Y-112414095D01*
X164350809Y-112376000D01*
X164427000Y-112337905D01*
X164617476Y-112337905D01*
X164731762Y-112376000D01*
X165531762Y-113061714D02*
X165493667Y-113099810D01*
X165379381Y-113137905D01*
X165303191Y-113137905D01*
X165188905Y-113099810D01*
X165112714Y-113023619D01*
X165074619Y-112947429D01*
X165036524Y-112795048D01*
X165036524Y-112680762D01*
X165074619Y-112528381D01*
X165112714Y-112452190D01*
X165188905Y-112376000D01*
X165303191Y-112337905D01*
X165379381Y-112337905D01*
X165493667Y-112376000D01*
X165531762Y-112414095D01*
X166255572Y-113137905D02*
X165874619Y-113137905D01*
X165874619Y-112337905D01*
X166795572Y-113099810D02*
X166909858Y-113137905D01*
X167100334Y-113137905D01*
X167176524Y-113099810D01*
X167214620Y-113061714D01*
X167252715Y-112985524D01*
X167252715Y-112909333D01*
X167214620Y-112833143D01*
X167176524Y-112795048D01*
X167100334Y-112756952D01*
X166947953Y-112718857D01*
X166871762Y-112680762D01*
X166833667Y-112642667D01*
X166795572Y-112566476D01*
X166795572Y-112490286D01*
X166833667Y-112414095D01*
X166871762Y-112376000D01*
X166947953Y-112337905D01*
X167138429Y-112337905D01*
X167252715Y-112376000D01*
X167595572Y-113137905D02*
X167595572Y-112337905D01*
X167786048Y-112337905D01*
X167900334Y-112376000D01*
X167976525Y-112452190D01*
X168014620Y-112528381D01*
X168052715Y-112680762D01*
X168052715Y-112795048D01*
X168014620Y-112947429D01*
X167976525Y-113023619D01*
X167900334Y-113099810D01*
X167786048Y-113137905D01*
X167595572Y-113137905D01*
X168357477Y-112909333D02*
X168738429Y-112909333D01*
X168281286Y-113137905D02*
X168547953Y-112337905D01*
X168814620Y-113137905D01*
X159350381Y-103290666D02*
X159350381Y-103766857D01*
X158350381Y-103766857D01*
X159350381Y-102433523D02*
X159350381Y-103004952D01*
X159350381Y-102719238D02*
X158350381Y-102719238D01*
X158493238Y-102814476D01*
X158588476Y-102909714D01*
X158636095Y-103004952D01*
D11*
X158031667Y-98984571D02*
X158007857Y-99008381D01*
X157936429Y-99032190D01*
X157888810Y-99032190D01*
X157817381Y-99008381D01*
X157769762Y-98960762D01*
X157745953Y-98913143D01*
X157722143Y-98817905D01*
X157722143Y-98746476D01*
X157745953Y-98651238D01*
X157769762Y-98603619D01*
X157817381Y-98556000D01*
X157888810Y-98532190D01*
X157936429Y-98532190D01*
X158007857Y-98556000D01*
X158031667Y-98579810D01*
X158507857Y-99032190D02*
X158222143Y-99032190D01*
X158365000Y-99032190D02*
X158365000Y-98532190D01*
X158317381Y-98603619D01*
X158269762Y-98651238D01*
X158222143Y-98675048D01*
X151046667Y-102413571D02*
X151022857Y-102437381D01*
X150951429Y-102461190D01*
X150903810Y-102461190D01*
X150832381Y-102437381D01*
X150784762Y-102389762D01*
X150760953Y-102342143D01*
X150737143Y-102246905D01*
X150737143Y-102175476D01*
X150760953Y-102080238D01*
X150784762Y-102032619D01*
X150832381Y-101985000D01*
X150903810Y-101961190D01*
X150951429Y-101961190D01*
X151022857Y-101985000D01*
X151046667Y-102008810D01*
X151237143Y-102008810D02*
X151260953Y-101985000D01*
X151308572Y-101961190D01*
X151427619Y-101961190D01*
X151475238Y-101985000D01*
X151499048Y-102008810D01*
X151522857Y-102056429D01*
X151522857Y-102104048D01*
X151499048Y-102175476D01*
X151213334Y-102461190D01*
X151522857Y-102461190D01*
X143934667Y-104064571D02*
X143910857Y-104088381D01*
X143839429Y-104112190D01*
X143791810Y-104112190D01*
X143720381Y-104088381D01*
X143672762Y-104040762D01*
X143648953Y-103993143D01*
X143625143Y-103897905D01*
X143625143Y-103826476D01*
X143648953Y-103731238D01*
X143672762Y-103683619D01*
X143720381Y-103636000D01*
X143791810Y-103612190D01*
X143839429Y-103612190D01*
X143910857Y-103636000D01*
X143934667Y-103659810D01*
X144101334Y-103612190D02*
X144410857Y-103612190D01*
X144244191Y-103802667D01*
X144315619Y-103802667D01*
X144363238Y-103826476D01*
X144387048Y-103850286D01*
X144410857Y-103897905D01*
X144410857Y-104016952D01*
X144387048Y-104064571D01*
X144363238Y-104088381D01*
X144315619Y-104112190D01*
X144172762Y-104112190D01*
X144125143Y-104088381D01*
X144101334Y-104064571D01*
X143934667Y-100000571D02*
X143910857Y-100024381D01*
X143839429Y-100048190D01*
X143791810Y-100048190D01*
X143720381Y-100024381D01*
X143672762Y-99976762D01*
X143648953Y-99929143D01*
X143625143Y-99833905D01*
X143625143Y-99762476D01*
X143648953Y-99667238D01*
X143672762Y-99619619D01*
X143720381Y-99572000D01*
X143791810Y-99548190D01*
X143839429Y-99548190D01*
X143910857Y-99572000D01*
X143934667Y-99595810D01*
X144363238Y-99714857D02*
X144363238Y-100048190D01*
X144244191Y-99524381D02*
X144125143Y-99881524D01*
X144434667Y-99881524D01*
X143934667Y-111938571D02*
X143910857Y-111962381D01*
X143839429Y-111986190D01*
X143791810Y-111986190D01*
X143720381Y-111962381D01*
X143672762Y-111914762D01*
X143648953Y-111867143D01*
X143625143Y-111771905D01*
X143625143Y-111700476D01*
X143648953Y-111605238D01*
X143672762Y-111557619D01*
X143720381Y-111510000D01*
X143791810Y-111486190D01*
X143839429Y-111486190D01*
X143910857Y-111510000D01*
X143934667Y-111533810D01*
X144387048Y-111486190D02*
X144148953Y-111486190D01*
X144125143Y-111724286D01*
X144148953Y-111700476D01*
X144196572Y-111676667D01*
X144315619Y-111676667D01*
X144363238Y-111700476D01*
X144387048Y-111724286D01*
X144410857Y-111771905D01*
X144410857Y-111890952D01*
X144387048Y-111938571D01*
X144363238Y-111962381D01*
X144315619Y-111986190D01*
X144196572Y-111986190D01*
X144148953Y-111962381D01*
X144125143Y-111938571D01*
X143934667Y-110160571D02*
X143910857Y-110184381D01*
X143839429Y-110208190D01*
X143791810Y-110208190D01*
X143720381Y-110184381D01*
X143672762Y-110136762D01*
X143648953Y-110089143D01*
X143625143Y-109993905D01*
X143625143Y-109922476D01*
X143648953Y-109827238D01*
X143672762Y-109779619D01*
X143720381Y-109732000D01*
X143791810Y-109708190D01*
X143839429Y-109708190D01*
X143910857Y-109732000D01*
X143934667Y-109755810D01*
X144363238Y-109708190D02*
X144268000Y-109708190D01*
X144220381Y-109732000D01*
X144196572Y-109755810D01*
X144148953Y-109827238D01*
X144125143Y-109922476D01*
X144125143Y-110112952D01*
X144148953Y-110160571D01*
X144172762Y-110184381D01*
X144220381Y-110208190D01*
X144315619Y-110208190D01*
X144363238Y-110184381D01*
X144387048Y-110160571D01*
X144410857Y-110112952D01*
X144410857Y-109993905D01*
X144387048Y-109946286D01*
X144363238Y-109922476D01*
X144315619Y-109898667D01*
X144220381Y-109898667D01*
X144172762Y-109922476D01*
X144148953Y-109946286D01*
X144125143Y-109993905D01*
X143934667Y-108128571D02*
X143910857Y-108152381D01*
X143839429Y-108176190D01*
X143791810Y-108176190D01*
X143720381Y-108152381D01*
X143672762Y-108104762D01*
X143648953Y-108057143D01*
X143625143Y-107961905D01*
X143625143Y-107890476D01*
X143648953Y-107795238D01*
X143672762Y-107747619D01*
X143720381Y-107700000D01*
X143791810Y-107676190D01*
X143839429Y-107676190D01*
X143910857Y-107700000D01*
X143934667Y-107723810D01*
X144101334Y-107676190D02*
X144434667Y-107676190D01*
X144220381Y-108176190D01*
X143934667Y-106096571D02*
X143910857Y-106120381D01*
X143839429Y-106144190D01*
X143791810Y-106144190D01*
X143720381Y-106120381D01*
X143672762Y-106072762D01*
X143648953Y-106025143D01*
X143625143Y-105929905D01*
X143625143Y-105858476D01*
X143648953Y-105763238D01*
X143672762Y-105715619D01*
X143720381Y-105668000D01*
X143791810Y-105644190D01*
X143839429Y-105644190D01*
X143910857Y-105668000D01*
X143934667Y-105691810D01*
X144220381Y-105858476D02*
X144172762Y-105834667D01*
X144148953Y-105810857D01*
X144125143Y-105763238D01*
X144125143Y-105739429D01*
X144148953Y-105691810D01*
X144172762Y-105668000D01*
X144220381Y-105644190D01*
X144315619Y-105644190D01*
X144363238Y-105668000D01*
X144387048Y-105691810D01*
X144410857Y-105739429D01*
X144410857Y-105763238D01*
X144387048Y-105810857D01*
X144363238Y-105834667D01*
X144315619Y-105858476D01*
X144220381Y-105858476D01*
X144172762Y-105882286D01*
X144148953Y-105906095D01*
X144125143Y-105953714D01*
X144125143Y-106048952D01*
X144148953Y-106096571D01*
X144172762Y-106120381D01*
X144220381Y-106144190D01*
X144315619Y-106144190D01*
X144363238Y-106120381D01*
X144387048Y-106096571D01*
X144410857Y-106048952D01*
X144410857Y-105953714D01*
X144387048Y-105906095D01*
X144363238Y-105882286D01*
X144315619Y-105858476D01*
X143934667Y-102032571D02*
X143910857Y-102056381D01*
X143839429Y-102080190D01*
X143791810Y-102080190D01*
X143720381Y-102056381D01*
X143672762Y-102008762D01*
X143648953Y-101961143D01*
X143625143Y-101865905D01*
X143625143Y-101794476D01*
X143648953Y-101699238D01*
X143672762Y-101651619D01*
X143720381Y-101604000D01*
X143791810Y-101580190D01*
X143839429Y-101580190D01*
X143910857Y-101604000D01*
X143934667Y-101627810D01*
X144172762Y-102080190D02*
X144268000Y-102080190D01*
X144315619Y-102056381D01*
X144339429Y-102032571D01*
X144387048Y-101961143D01*
X144410857Y-101865905D01*
X144410857Y-101675429D01*
X144387048Y-101627810D01*
X144363238Y-101604000D01*
X144315619Y-101580190D01*
X144220381Y-101580190D01*
X144172762Y-101604000D01*
X144148953Y-101627810D01*
X144125143Y-101675429D01*
X144125143Y-101794476D01*
X144148953Y-101842095D01*
X144172762Y-101865905D01*
X144220381Y-101889714D01*
X144315619Y-101889714D01*
X144363238Y-101865905D01*
X144387048Y-101842095D01*
X144410857Y-101794476D01*
X143950572Y-97968571D02*
X143926762Y-97992381D01*
X143855334Y-98016190D01*
X143807715Y-98016190D01*
X143736286Y-97992381D01*
X143688667Y-97944762D01*
X143664858Y-97897143D01*
X143641048Y-97801905D01*
X143641048Y-97730476D01*
X143664858Y-97635238D01*
X143688667Y-97587619D01*
X143736286Y-97540000D01*
X143807715Y-97516190D01*
X143855334Y-97516190D01*
X143926762Y-97540000D01*
X143950572Y-97563810D01*
X144426762Y-98016190D02*
X144141048Y-98016190D01*
X144283905Y-98016190D02*
X144283905Y-97516190D01*
X144236286Y-97587619D01*
X144188667Y-97635238D01*
X144141048Y-97659048D01*
X144736286Y-97516190D02*
X144783905Y-97516190D01*
X144831524Y-97540000D01*
X144855333Y-97563810D01*
X144879143Y-97611429D01*
X144902952Y-97706667D01*
X144902952Y-97825714D01*
X144879143Y-97920952D01*
X144855333Y-97968571D01*
X144831524Y-97992381D01*
X144783905Y-98016190D01*
X144736286Y-98016190D01*
X144688667Y-97992381D01*
X144664857Y-97968571D01*
X144641048Y-97920952D01*
X144617238Y-97825714D01*
X144617238Y-97706667D01*
X144641048Y-97611429D01*
X144664857Y-97563810D01*
X144688667Y-97540000D01*
X144736286Y-97516190D01*
X150760953Y-105001190D02*
X150760953Y-104501190D01*
X150880000Y-104501190D01*
X150951429Y-104525000D01*
X150999048Y-104572619D01*
X151022857Y-104620238D01*
X151046667Y-104715476D01*
X151046667Y-104786905D01*
X151022857Y-104882143D01*
X150999048Y-104929762D01*
X150951429Y-104977381D01*
X150880000Y-105001190D01*
X150760953Y-105001190D01*
X151237143Y-104548810D02*
X151260953Y-104525000D01*
X151308572Y-104501190D01*
X151427619Y-104501190D01*
X151475238Y-104525000D01*
X151499048Y-104548810D01*
X151522857Y-104596429D01*
X151522857Y-104644048D01*
X151499048Y-104715476D01*
X151213334Y-105001190D01*
X151522857Y-105001190D01*
X151268953Y-100556190D02*
X151268953Y-100056190D01*
X151388000Y-100056190D01*
X151459429Y-100080000D01*
X151507048Y-100127619D01*
X151530857Y-100175238D01*
X151554667Y-100270476D01*
X151554667Y-100341905D01*
X151530857Y-100437143D01*
X151507048Y-100484762D01*
X151459429Y-100532381D01*
X151388000Y-100556190D01*
X151268953Y-100556190D01*
X151721334Y-100056190D02*
X152030857Y-100056190D01*
X151864191Y-100246667D01*
X151935619Y-100246667D01*
X151983238Y-100270476D01*
X152007048Y-100294286D01*
X152030857Y-100341905D01*
X152030857Y-100460952D01*
X152007048Y-100508571D01*
X151983238Y-100532381D01*
X151935619Y-100556190D01*
X151792762Y-100556190D01*
X151745143Y-100532381D01*
X151721334Y-100508571D01*
X150506953Y-98270190D02*
X150506953Y-97770190D01*
X150626000Y-97770190D01*
X150697429Y-97794000D01*
X150745048Y-97841619D01*
X150768857Y-97889238D01*
X150792667Y-97984476D01*
X150792667Y-98055905D01*
X150768857Y-98151143D01*
X150745048Y-98198762D01*
X150697429Y-98246381D01*
X150626000Y-98270190D01*
X150506953Y-98270190D01*
X151221238Y-97936857D02*
X151221238Y-98270190D01*
X151102191Y-97746381D02*
X150983143Y-98103524D01*
X151292667Y-98103524D01*
D13*
X129825572Y-113906714D02*
X129825572Y-113144714D01*
X130115857Y-113144714D01*
X130188429Y-113181000D01*
X130224714Y-113217286D01*
X130261000Y-113289857D01*
X130261000Y-113398714D01*
X130224714Y-113471286D01*
X130188429Y-113507571D01*
X130115857Y-113543857D01*
X129825572Y-113543857D01*
X130986714Y-113906714D02*
X130551286Y-113906714D01*
X130769000Y-113906714D02*
X130769000Y-113144714D01*
X130696429Y-113253571D01*
X130623857Y-113326143D01*
X130551286Y-113362429D01*
D11*
X151082381Y-108985810D02*
X151034762Y-108962000D01*
X150987143Y-108914381D01*
X150915714Y-108842952D01*
X150868095Y-108819143D01*
X150820476Y-108819143D01*
X150844286Y-108938190D02*
X150796667Y-108914381D01*
X150749048Y-108866762D01*
X150725238Y-108771524D01*
X150725238Y-108604857D01*
X150749048Y-108509619D01*
X150796667Y-108462000D01*
X150844286Y-108438190D01*
X150939524Y-108438190D01*
X150987143Y-108462000D01*
X151034762Y-108509619D01*
X151058571Y-108604857D01*
X151058571Y-108771524D01*
X151034762Y-108866762D01*
X150987143Y-108914381D01*
X150939524Y-108938190D01*
X150844286Y-108938190D01*
X151534762Y-108938190D02*
X151249048Y-108938190D01*
X151391905Y-108938190D02*
X151391905Y-108438190D01*
X151344286Y-108509619D01*
X151296667Y-108557238D01*
X151249048Y-108581048D01*
X151046667Y-106906190D02*
X150880000Y-106668095D01*
X150760953Y-106906190D02*
X150760953Y-106406190D01*
X150951429Y-106406190D01*
X150999048Y-106430000D01*
X151022857Y-106453810D01*
X151046667Y-106501429D01*
X151046667Y-106572857D01*
X151022857Y-106620476D01*
X150999048Y-106644286D01*
X150951429Y-106668095D01*
X150760953Y-106668095D01*
X151522857Y-106906190D02*
X151237143Y-106906190D01*
X151380000Y-106906190D02*
X151380000Y-106406190D01*
X151332381Y-106477619D01*
X151284762Y-106525238D01*
X151237143Y-106549048D01*
X151808667Y-111732190D02*
X151642000Y-111494095D01*
X151522953Y-111732190D02*
X151522953Y-111232190D01*
X151713429Y-111232190D01*
X151761048Y-111256000D01*
X151784857Y-111279810D01*
X151808667Y-111327429D01*
X151808667Y-111398857D01*
X151784857Y-111446476D01*
X151761048Y-111470286D01*
X151713429Y-111494095D01*
X151522953Y-111494095D01*
X151999143Y-111279810D02*
X152022953Y-111256000D01*
X152070572Y-111232190D01*
X152189619Y-111232190D01*
X152237238Y-111256000D01*
X152261048Y-111279810D01*
X152284857Y-111327429D01*
X152284857Y-111375048D01*
X152261048Y-111446476D01*
X151975334Y-111732190D01*
X152284857Y-111732190D01*
D10*
X160742381Y-109553333D02*
X161456667Y-109553333D01*
X161599524Y-109600953D01*
X161694762Y-109696191D01*
X161742381Y-109839048D01*
X161742381Y-109934286D01*
X160742381Y-109172381D02*
X160742381Y-108553333D01*
X161123333Y-108886667D01*
X161123333Y-108743809D01*
X161170952Y-108648571D01*
X161218571Y-108600952D01*
X161313810Y-108553333D01*
X161551905Y-108553333D01*
X161647143Y-108600952D01*
X161694762Y-108648571D01*
X161742381Y-108743809D01*
X161742381Y-109029524D01*
X161694762Y-109124762D01*
X161647143Y-109172381D01*
X161352667Y-104523333D02*
X161019333Y-104756667D01*
X161352667Y-104923333D02*
X160652667Y-104923333D01*
X160652667Y-104656667D01*
X160686000Y-104590000D01*
X160719333Y-104556667D01*
X160786000Y-104523333D01*
X160886000Y-104523333D01*
X160952667Y-104556667D01*
X160986000Y-104590000D01*
X161019333Y-104656667D01*
X161019333Y-104923333D01*
X161319333Y-104256667D02*
X161352667Y-104156667D01*
X161352667Y-103990000D01*
X161319333Y-103923333D01*
X161286000Y-103890000D01*
X161219333Y-103856667D01*
X161152667Y-103856667D01*
X161086000Y-103890000D01*
X161052667Y-103923333D01*
X161019333Y-103990000D01*
X160986000Y-104123333D01*
X160952667Y-104190000D01*
X160919333Y-104223333D01*
X160852667Y-104256667D01*
X160786000Y-104256667D01*
X160719333Y-104223333D01*
X160686000Y-104190000D01*
X160652667Y-104123333D01*
X160652667Y-103956667D01*
X160686000Y-103856667D01*
X160652667Y-103656666D02*
X160652667Y-103256666D01*
X161352667Y-103456666D02*
X160652667Y-103456666D01*
X161286000Y-106796666D02*
X161319333Y-106830000D01*
X161352667Y-106930000D01*
X161352667Y-106996666D01*
X161319333Y-107096666D01*
X161252667Y-107163333D01*
X161186000Y-107196666D01*
X161052667Y-107230000D01*
X160952667Y-107230000D01*
X160819333Y-107196666D01*
X160752667Y-107163333D01*
X160686000Y-107096666D01*
X160652667Y-106996666D01*
X160652667Y-106930000D01*
X160686000Y-106830000D01*
X160719333Y-106796666D01*
X161319333Y-106530000D02*
X161352667Y-106430000D01*
X161352667Y-106263333D01*
X161319333Y-106196666D01*
X161286000Y-106163333D01*
X161219333Y-106130000D01*
X161152667Y-106130000D01*
X161086000Y-106163333D01*
X161052667Y-106196666D01*
X161019333Y-106263333D01*
X160986000Y-106396666D01*
X160952667Y-106463333D01*
X160919333Y-106496666D01*
X160852667Y-106530000D01*
X160786000Y-106530000D01*
X160719333Y-106496666D01*
X160686000Y-106463333D01*
X160652667Y-106396666D01*
X160652667Y-106230000D01*
X160686000Y-106130000D01*
X166985905Y-107403809D02*
X166185905Y-107403809D01*
X166985905Y-107022857D02*
X166185905Y-107022857D01*
X166985905Y-106565714D01*
X166185905Y-106565714D01*
X166185905Y-106299048D02*
X166185905Y-105841905D01*
X166985905Y-106070476D02*
X166185905Y-106070476D01*
X161352667Y-100159999D02*
X160652667Y-100159999D01*
X161152667Y-99926666D01*
X160652667Y-99693333D01*
X161352667Y-99693333D01*
X161352667Y-99359999D02*
X160652667Y-99359999D01*
X161319333Y-99060000D02*
X161352667Y-98960000D01*
X161352667Y-98793333D01*
X161319333Y-98726666D01*
X161286000Y-98693333D01*
X161219333Y-98660000D01*
X161152667Y-98660000D01*
X161086000Y-98693333D01*
X161052667Y-98726666D01*
X161019333Y-98793333D01*
X160986000Y-98926666D01*
X160952667Y-98993333D01*
X160919333Y-99026666D01*
X160852667Y-99060000D01*
X160786000Y-99060000D01*
X160719333Y-99026666D01*
X160686000Y-98993333D01*
X160652667Y-98926666D01*
X160652667Y-98760000D01*
X160686000Y-98660000D01*
X160652667Y-98226666D02*
X160652667Y-98093333D01*
X160686000Y-98026666D01*
X160752667Y-97959999D01*
X160886000Y-97926666D01*
X161119333Y-97926666D01*
X161252667Y-97959999D01*
X161319333Y-98026666D01*
X161352667Y-98093333D01*
X161352667Y-98226666D01*
X161319333Y-98293333D01*
X161252667Y-98359999D01*
X161119333Y-98393333D01*
X160886000Y-98393333D01*
X160752667Y-98359999D01*
X160686000Y-98293333D01*
X160652667Y-98226666D01*
X166940667Y-102699999D02*
X166240667Y-102699999D01*
X166740667Y-102466666D01*
X166240667Y-102233333D01*
X166940667Y-102233333D01*
X166240667Y-101766666D02*
X166240667Y-101633333D01*
X166274000Y-101566666D01*
X166340667Y-101499999D01*
X166474000Y-101466666D01*
X166707333Y-101466666D01*
X166840667Y-101499999D01*
X166907333Y-101566666D01*
X166940667Y-101633333D01*
X166940667Y-101766666D01*
X166907333Y-101833333D01*
X166840667Y-101899999D01*
X166707333Y-101933333D01*
X166474000Y-101933333D01*
X166340667Y-101899999D01*
X166274000Y-101833333D01*
X166240667Y-101766666D01*
X166907333Y-101200000D02*
X166940667Y-101100000D01*
X166940667Y-100933333D01*
X166907333Y-100866666D01*
X166874000Y-100833333D01*
X166807333Y-100800000D01*
X166740667Y-100800000D01*
X166674000Y-100833333D01*
X166640667Y-100866666D01*
X166607333Y-100933333D01*
X166574000Y-101066666D01*
X166540667Y-101133333D01*
X166507333Y-101166666D01*
X166440667Y-101200000D01*
X166374000Y-101200000D01*
X166307333Y-101166666D01*
X166274000Y-101133333D01*
X166240667Y-101066666D01*
X166240667Y-100900000D01*
X166274000Y-100800000D01*
X166940667Y-100499999D02*
X166240667Y-100499999D01*
X161319333Y-102783334D02*
X161352667Y-102683334D01*
X161352667Y-102516667D01*
X161319333Y-102450000D01*
X161286000Y-102416667D01*
X161219333Y-102383334D01*
X161152667Y-102383334D01*
X161086000Y-102416667D01*
X161052667Y-102450000D01*
X161019333Y-102516667D01*
X160986000Y-102650000D01*
X160952667Y-102716667D01*
X160919333Y-102750000D01*
X160852667Y-102783334D01*
X160786000Y-102783334D01*
X160719333Y-102750000D01*
X160686000Y-102716667D01*
X160652667Y-102650000D01*
X160652667Y-102483334D01*
X160686000Y-102383334D01*
X161286000Y-101683333D02*
X161319333Y-101716667D01*
X161352667Y-101816667D01*
X161352667Y-101883333D01*
X161319333Y-101983333D01*
X161252667Y-102050000D01*
X161186000Y-102083333D01*
X161052667Y-102116667D01*
X160952667Y-102116667D01*
X160819333Y-102083333D01*
X160752667Y-102050000D01*
X160686000Y-101983333D01*
X160652667Y-101883333D01*
X160652667Y-101816667D01*
X160686000Y-101716667D01*
X160719333Y-101683333D01*
X161352667Y-101050000D02*
X161352667Y-101383333D01*
X160652667Y-101383333D01*
X161352667Y-100816666D02*
X160652667Y-100816666D01*
X161352667Y-100416666D02*
X160952667Y-100716666D01*
X160652667Y-100416666D02*
X161052667Y-100816666D01*
X166224000Y-104749523D02*
X166185905Y-104825714D01*
X166185905Y-104939999D01*
X166224000Y-105054285D01*
X166300190Y-105130476D01*
X166376381Y-105168571D01*
X166528762Y-105206666D01*
X166643048Y-105206666D01*
X166795429Y-105168571D01*
X166871619Y-105130476D01*
X166947810Y-105054285D01*
X166985905Y-104939999D01*
X166985905Y-104863809D01*
X166947810Y-104749523D01*
X166909714Y-104711428D01*
X166643048Y-104711428D01*
X166643048Y-104863809D01*
X166985905Y-104368571D02*
X166185905Y-104368571D01*
X166985905Y-103911428D01*
X166185905Y-103911428D01*
X166985905Y-103530476D02*
X166185905Y-103530476D01*
X166185905Y-103340000D01*
X166224000Y-103225714D01*
X166300190Y-103149523D01*
X166376381Y-103111428D01*
X166528762Y-103073333D01*
X166643048Y-103073333D01*
X166795429Y-103111428D01*
X166871619Y-103149523D01*
X166947810Y-103225714D01*
X166985905Y-103340000D01*
X166985905Y-103530476D01*
X166185905Y-100126667D02*
X166985905Y-99860000D01*
X166185905Y-99593333D01*
X166909714Y-98869524D02*
X166947810Y-98907619D01*
X166985905Y-99021905D01*
X166985905Y-99098095D01*
X166947810Y-99212381D01*
X166871619Y-99288572D01*
X166795429Y-99326667D01*
X166643048Y-99364762D01*
X166528762Y-99364762D01*
X166376381Y-99326667D01*
X166300190Y-99288572D01*
X166224000Y-99212381D01*
X166185905Y-99098095D01*
X166185905Y-99021905D01*
X166224000Y-98907619D01*
X166262095Y-98869524D01*
X166909714Y-98069524D02*
X166947810Y-98107619D01*
X166985905Y-98221905D01*
X166985905Y-98298095D01*
X166947810Y-98412381D01*
X166871619Y-98488572D01*
X166795429Y-98526667D01*
X166643048Y-98564762D01*
X166528762Y-98564762D01*
X166376381Y-98526667D01*
X166300190Y-98488572D01*
X166224000Y-98412381D01*
X166185905Y-98298095D01*
X166185905Y-98221905D01*
X166224000Y-98107619D01*
X166262095Y-98069524D01*
M02*
