G04 #@! TF.FileFunction,Paste,Top*
%FSLAX46Y46*%
G04 Gerber Fmt 4.6, Leading zero omitted, Abs format (unit mm)*
G04 Created by KiCad (PCBNEW 4.0.7) date 2018 March 24, Saturday 15:13:57*
%MOMM*%
%LPD*%
G01*
G04 APERTURE LIST*
%ADD10C,0.150000*%
%ADD11R,0.900000X0.800000*%
%ADD12R,4.200000X1.500000*%
%ADD13R,1.200000X0.750000*%
%ADD14R,1.500000X1.250000*%
%ADD15R,0.900000X1.200000*%
%ADD16R,3.000000X1.500000*%
%ADD17R,1.000760X0.269240*%
%ADD18R,1.200000X0.900000*%
G04 APERTURE END LIST*
D10*
D11*
X147082000Y-107762000D03*
X147082000Y-109662000D03*
X149082000Y-108712000D03*
D12*
X155448000Y-101324000D03*
X155448000Y-104924000D03*
D13*
X154244000Y-98298000D03*
X156144000Y-98298000D03*
D14*
X146578000Y-101854000D03*
X149078000Y-101854000D03*
D13*
X138684000Y-103378000D03*
X140584000Y-103378000D03*
D14*
X138470000Y-99314000D03*
X140970000Y-99314000D03*
D13*
X138750000Y-111506000D03*
X140650000Y-111506000D03*
X138750000Y-109474000D03*
X140650000Y-109474000D03*
X138750000Y-107442000D03*
X140650000Y-107442000D03*
X138750000Y-105410000D03*
X140650000Y-105410000D03*
X138684000Y-101346000D03*
X140584000Y-101346000D03*
X138750000Y-97282000D03*
X140650000Y-97282000D03*
D15*
X146178000Y-104140000D03*
X149478000Y-104140000D03*
X149479000Y-97282000D03*
X146179000Y-97282000D03*
X146178000Y-99822000D03*
X149478000Y-99822000D03*
D16*
X126492000Y-112750000D03*
X126492000Y-95250000D03*
D17*
X128492000Y-98250000D03*
X128492000Y-98750000D03*
X128492000Y-99250000D03*
X128492000Y-99750000D03*
X128492000Y-100250000D03*
X128492000Y-100750000D03*
X128492000Y-101250000D03*
X128492000Y-101750000D03*
X128492000Y-102250000D03*
X128492000Y-102750000D03*
X128492000Y-103250000D03*
X128492000Y-103750000D03*
X128492000Y-104250000D03*
X128492000Y-104750000D03*
X128492000Y-105250000D03*
X128492000Y-105750000D03*
X128492000Y-106250000D03*
X128492000Y-106750000D03*
X128492000Y-107250000D03*
X128492000Y-107750000D03*
X128492000Y-108250000D03*
X128492000Y-108750000D03*
X128492000Y-109250000D03*
X128492000Y-109750000D03*
D18*
X146812000Y-106172000D03*
X149012000Y-106172000D03*
X146728000Y-111252000D03*
X148928000Y-111252000D03*
M02*
