G04 #@! TF.FileFunction,Copper,L1,Top,Signal*
%FSLAX46Y46*%
G04 Gerber Fmt 4.6, Leading zero omitted, Abs format (unit mm)*
G04 Created by KiCad (PCBNEW 4.0.7) date 2018 March 18, Sunday 16:32:36*
%MOMM*%
%LPD*%
G01*
G04 APERTURE LIST*
%ADD10C,0.150000*%
%ADD11C,1.800000*%
%ADD12C,3.556000*%
%ADD13R,4.200000X1.500000*%
%ADD14R,1.200000X0.750000*%
%ADD15R,1.500000X1.250000*%
%ADD16R,0.900000X1.200000*%
%ADD17R,3.000000X1.500000*%
%ADD18R,1.000760X0.269240*%
%ADD19R,0.700000X0.450000*%
%ADD20R,1.200000X0.900000*%
%ADD21C,0.609600*%
%ADD22C,0.508000*%
%ADD23C,0.254000*%
G04 APERTURE END LIST*
D10*
D11*
X129667000Y-93980000D03*
X132207000Y-93980000D03*
X134747000Y-93980000D03*
X137287000Y-93980000D03*
X139827000Y-93980000D03*
X142367000Y-93980000D03*
X144907000Y-93980000D03*
X147447000Y-93980000D03*
X149987000Y-93980000D03*
X152527000Y-93980000D03*
X155067000Y-93980000D03*
X157607000Y-93980000D03*
X160147000Y-93980000D03*
X162687000Y-93980000D03*
X165227000Y-93980000D03*
X167767000Y-93980000D03*
X167767000Y-114300000D03*
X165227000Y-114300000D03*
X162687000Y-114300000D03*
X160147000Y-114300000D03*
X157607000Y-114300000D03*
X155067000Y-114300000D03*
X152527000Y-114300000D03*
X149987000Y-114300000D03*
X147447000Y-114300000D03*
X144907000Y-114300000D03*
X142367000Y-114300000D03*
X139827000Y-114300000D03*
D12*
X171577000Y-113030000D03*
X171577000Y-95250000D03*
D13*
X155448000Y-101324000D03*
X155448000Y-104924000D03*
D14*
X154244000Y-98298000D03*
X156144000Y-98298000D03*
D15*
X146578000Y-101854000D03*
X149078000Y-101854000D03*
D14*
X138684000Y-103378000D03*
X140584000Y-103378000D03*
D15*
X138470000Y-99314000D03*
X140970000Y-99314000D03*
D14*
X138750000Y-111506000D03*
X140650000Y-111506000D03*
X138750000Y-109474000D03*
X140650000Y-109474000D03*
X138750000Y-107442000D03*
X140650000Y-107442000D03*
X138750000Y-105410000D03*
X140650000Y-105410000D03*
X138684000Y-101346000D03*
X140584000Y-101346000D03*
X138750000Y-97282000D03*
X140650000Y-97282000D03*
D16*
X146178000Y-104140000D03*
X149478000Y-104140000D03*
X149479000Y-97282000D03*
X146179000Y-97282000D03*
X146178000Y-99822000D03*
X149478000Y-99822000D03*
D17*
X126492000Y-112750000D03*
X126492000Y-95250000D03*
D18*
X128492000Y-98250000D03*
X128492000Y-98750000D03*
X128492000Y-99250000D03*
X128492000Y-99750000D03*
X128492000Y-100250000D03*
X128492000Y-100750000D03*
X128492000Y-101250000D03*
X128492000Y-101750000D03*
X128492000Y-102250000D03*
X128492000Y-102750000D03*
X128492000Y-103250000D03*
X128492000Y-103750000D03*
X128492000Y-104250000D03*
X128492000Y-104750000D03*
X128492000Y-105250000D03*
X128492000Y-105750000D03*
X128492000Y-106250000D03*
X128492000Y-106750000D03*
X128492000Y-107250000D03*
X128492000Y-107750000D03*
X128492000Y-108250000D03*
X128492000Y-108750000D03*
X128492000Y-109250000D03*
X128492000Y-109750000D03*
D19*
X146844000Y-108062000D03*
X146844000Y-109362000D03*
X148844000Y-108712000D03*
D20*
X146812000Y-106172000D03*
X149012000Y-106172000D03*
X146728000Y-111252000D03*
X148928000Y-111252000D03*
D11*
X162560000Y-99060000D03*
X165100000Y-99060000D03*
X162560000Y-101600000D03*
X165100000Y-101600000D03*
X162560000Y-104140000D03*
X165100000Y-104140000D03*
X162560000Y-106680000D03*
X165100000Y-106680000D03*
D21*
X135341360Y-96728280D03*
X134405136Y-101925786D03*
X153670000Y-96012000D03*
X140716000Y-96012000D03*
X127000000Y-109855000D03*
X127000000Y-104140000D03*
X127000000Y-98425000D03*
X129540000Y-97155000D03*
X133350000Y-97155000D03*
X129540000Y-113665000D03*
X129540000Y-111125000D03*
X134620000Y-111125000D03*
X134620000Y-113665000D03*
X167132000Y-101600000D03*
X167005000Y-97790000D03*
X171450000Y-97790000D03*
X171450000Y-101600000D03*
X171450000Y-104140000D03*
X171450000Y-107950000D03*
X171450000Y-110490000D03*
X167640000Y-110490000D03*
X167132000Y-107950000D03*
X151765000Y-97407880D03*
X151130000Y-102870000D03*
X151130000Y-102870000D03*
X160020000Y-101600000D03*
X160020000Y-104775000D03*
X156210000Y-107950000D03*
X156210000Y-111125000D03*
X158242000Y-98250247D03*
X150835780Y-107624035D03*
X160020000Y-111760000D03*
X163830000Y-112014000D03*
X133390707Y-106648496D03*
X135399738Y-102548834D03*
X167132000Y-104140000D03*
X161036000Y-97282000D03*
X143280946Y-104616630D03*
X143256000Y-107580833D03*
X143256000Y-103329902D03*
X150876000Y-111252000D03*
X143256000Y-111506000D03*
X143256000Y-109474000D03*
X143256000Y-101346000D03*
X143271719Y-97407880D03*
X143256000Y-99314000D03*
X150876000Y-99822000D03*
X144780000Y-101854000D03*
X136107900Y-103153377D03*
X136157665Y-104129722D03*
X156147717Y-112365791D03*
X158111815Y-112371146D03*
X136907797Y-106132237D03*
X136078004Y-105497227D03*
X134557237Y-105743428D03*
X136131111Y-106625749D03*
X137305155Y-110485155D03*
X139700000Y-110490000D03*
D22*
X135646159Y-96423481D02*
X135341360Y-96728280D01*
X136057640Y-96012000D02*
X135646159Y-96423481D01*
X140716000Y-96012000D02*
X136057640Y-96012000D01*
D23*
X128492000Y-102250000D02*
X130810000Y-102250000D01*
X130810000Y-102250000D02*
X134080922Y-102250000D01*
X130310000Y-102750000D02*
X130810000Y-102250000D01*
X128492000Y-102750000D02*
X130310000Y-102750000D01*
X134080922Y-102250000D02*
X134405136Y-101925786D01*
D22*
X153670000Y-96012000D02*
X153670000Y-97724000D01*
X153670000Y-97724000D02*
X154244000Y-98298000D01*
X154244000Y-98298000D02*
X154469000Y-98298000D01*
X154244000Y-98298000D02*
X154244000Y-100120000D01*
X154244000Y-100120000D02*
X155448000Y-101324000D01*
X127000000Y-104140000D02*
X127000000Y-109855000D01*
X129540000Y-97155000D02*
X128270000Y-97155000D01*
X128270000Y-97155000D02*
X127000000Y-98425000D01*
X137287000Y-93980000D02*
X136387001Y-94879999D01*
X136387001Y-94879999D02*
X135855659Y-94879999D01*
X135855659Y-94879999D02*
X133580658Y-97155000D01*
X133580658Y-97155000D02*
X133350000Y-97155000D01*
X129540000Y-111125000D02*
X129540000Y-113665000D01*
X134620000Y-113665000D02*
X134620000Y-111125000D01*
X167132000Y-99083342D02*
X167132000Y-101600000D01*
X167132000Y-101600000D02*
X167132000Y-104140000D01*
X167005000Y-97790000D02*
X167005000Y-101473000D01*
X167005000Y-101473000D02*
X167132000Y-101600000D01*
X171450000Y-101600000D02*
X171450000Y-97790000D01*
X171450000Y-107950000D02*
X171450000Y-104140000D01*
X171450000Y-110490000D02*
X171450000Y-107950000D01*
X167640000Y-110490000D02*
X171450000Y-110490000D01*
X167132000Y-107950000D02*
X167132000Y-109982000D01*
X167132000Y-109982000D02*
X167640000Y-110490000D01*
D23*
X167132000Y-107950000D02*
X167132000Y-108712000D01*
D22*
X167132000Y-104140000D02*
X167132000Y-107950000D01*
X151130000Y-102870000D02*
X151765000Y-102235000D01*
X151765000Y-102235000D02*
X151765000Y-100060762D01*
X151765000Y-100060762D02*
X151765000Y-97407880D01*
X156210000Y-107950000D02*
X156845000Y-107950000D01*
X156845000Y-107950000D02*
X160020000Y-104775000D01*
X150876000Y-111252000D02*
X156083000Y-111252000D01*
X156083000Y-111252000D02*
X156210000Y-111125000D01*
X158194247Y-98298000D02*
X158242000Y-98250247D01*
X156144000Y-98298000D02*
X158194247Y-98298000D01*
X150614035Y-107624035D02*
X150835780Y-107624035D01*
X149012000Y-106172000D02*
X149162000Y-106172000D01*
X149162000Y-106172000D02*
X150614035Y-107624035D01*
D23*
X167132000Y-108712000D02*
X163830000Y-112014000D01*
X133085908Y-106343697D02*
X133390707Y-106648496D01*
X132992211Y-106250000D02*
X133085908Y-106343697D01*
X128492000Y-106250000D02*
X132992211Y-106250000D01*
X132322592Y-101750000D02*
X132781808Y-101290784D01*
X132781808Y-101290784D02*
X134685888Y-101290784D01*
X128492000Y-101750000D02*
X132322592Y-101750000D01*
X135399738Y-102117782D02*
X135399738Y-102548834D01*
X135399738Y-102004634D02*
X135399738Y-102117782D01*
X134685888Y-101290784D02*
X135399738Y-102004634D01*
D22*
X143271719Y-97407880D02*
X140775880Y-97407880D01*
X140775880Y-97407880D02*
X140650000Y-97282000D01*
X161036000Y-97282000D02*
X165330658Y-97282000D01*
X165330658Y-97282000D02*
X167132000Y-99083342D01*
X143256000Y-104641576D02*
X143280946Y-104616630D01*
X143256000Y-107580833D02*
X143256000Y-104641576D01*
X142976147Y-104921429D02*
X143280946Y-104616630D01*
X140584000Y-103378000D02*
X143207902Y-103378000D01*
X143117167Y-107442000D02*
X143256000Y-107580833D01*
X140650000Y-107442000D02*
X143117167Y-107442000D01*
X143256000Y-109474000D02*
X143256000Y-107580833D01*
X140650000Y-105410000D02*
X142487576Y-105410000D01*
X143207902Y-103378000D02*
X143256000Y-103329902D01*
X143256000Y-101346000D02*
X143256000Y-103329902D01*
X142487576Y-105410000D02*
X142976147Y-104921429D01*
X143256000Y-101346000D02*
X143256000Y-99314000D01*
X146178000Y-99822000D02*
X143764000Y-99822000D01*
X143764000Y-99822000D02*
X143256000Y-99314000D01*
X148928000Y-111252000D02*
X150876000Y-111252000D01*
X140650000Y-111506000D02*
X143256000Y-111506000D01*
X140650000Y-109474000D02*
X143256000Y-109474000D01*
X140584000Y-101346000D02*
X143256000Y-101346000D01*
X140970000Y-99314000D02*
X143256000Y-99314000D01*
X149478000Y-99822000D02*
X149478000Y-97283000D01*
X149478000Y-97283000D02*
X149479000Y-97282000D01*
X150876000Y-99822000D02*
X149478000Y-99822000D01*
X146578000Y-101854000D02*
X144780000Y-101854000D01*
X152840000Y-107532000D02*
X152840000Y-106182000D01*
X151660000Y-108712000D02*
X152840000Y-107532000D01*
X148844000Y-108712000D02*
X151660000Y-108712000D01*
X152840000Y-106182000D02*
X154098000Y-104924000D01*
X154098000Y-104924000D02*
X155448000Y-104924000D01*
X149478000Y-104140000D02*
X149478000Y-102254000D01*
X149478000Y-102254000D02*
X149078000Y-101854000D01*
X155448000Y-104924000D02*
X150262000Y-104924000D01*
X150262000Y-104924000D02*
X149478000Y-104140000D01*
D23*
X138684000Y-103378000D02*
X138459000Y-103378000D01*
X138459000Y-103378000D02*
X137830000Y-102749000D01*
X137830000Y-102749000D02*
X137830000Y-102457792D01*
X137830000Y-102457792D02*
X135122208Y-99750000D01*
X135122208Y-99750000D02*
X129246380Y-99750000D01*
X129246380Y-99750000D02*
X128492000Y-99750000D01*
X145298912Y-103964912D02*
X145474000Y-104140000D01*
X142976142Y-103964912D02*
X145298912Y-103964912D01*
X138684000Y-103378000D02*
X138909000Y-103378000D01*
X138909000Y-103378000D02*
X139629641Y-104098641D01*
X139629641Y-104098641D02*
X142842413Y-104098641D01*
X145474000Y-104140000D02*
X146178000Y-104140000D01*
X142842413Y-104098641D02*
X142976142Y-103964912D01*
X129246380Y-98750000D02*
X128492000Y-98750000D01*
X136902000Y-98750000D02*
X129246380Y-98750000D01*
X137466000Y-99314000D02*
X136902000Y-98750000D01*
X138470000Y-99314000D02*
X137466000Y-99314000D01*
D22*
X138470000Y-99314000D02*
X138595000Y-99314000D01*
X138595000Y-99314000D02*
X139677201Y-98231799D01*
X139677201Y-98231799D02*
X144271201Y-98231799D01*
X144271201Y-98231799D02*
X145221000Y-97282000D01*
X145221000Y-97282000D02*
X146179000Y-97282000D01*
D23*
X136067353Y-108302693D02*
X130946106Y-108302693D01*
X130946106Y-108302693D02*
X130893413Y-108250000D01*
X129246380Y-108250000D02*
X128492000Y-108250000D01*
X130893413Y-108250000D02*
X129246380Y-108250000D01*
X138750000Y-111506000D02*
X138750000Y-110985340D01*
X138750000Y-110985340D02*
X136067353Y-108302693D01*
X137896000Y-109474000D02*
X136267482Y-107845482D01*
X136267482Y-107845482D02*
X131135488Y-107845482D01*
X131040006Y-107750000D02*
X129246380Y-107750000D01*
X131135488Y-107845482D02*
X131040006Y-107750000D01*
X138750000Y-109474000D02*
X137896000Y-109474000D01*
X129246380Y-107750000D02*
X128492000Y-107750000D01*
X136742901Y-102701205D02*
X134875270Y-100833574D01*
X132176000Y-101250000D02*
X129246380Y-101250000D01*
X137695483Y-106120985D02*
X137695483Y-104727738D01*
X136742901Y-103775156D02*
X136742901Y-102701205D01*
X132592426Y-100833574D02*
X132176000Y-101250000D01*
X138525000Y-107442000D02*
X137896000Y-106813000D01*
X137896000Y-106813000D02*
X137896000Y-106321502D01*
X129246380Y-101250000D02*
X128492000Y-101250000D01*
X134875270Y-100833574D02*
X132592426Y-100833574D01*
X137896000Y-106321502D02*
X137695483Y-106120985D01*
X138750000Y-107442000D02*
X138525000Y-107442000D01*
X137695483Y-104727738D02*
X136742901Y-103775156D01*
X138750000Y-105410000D02*
X138750000Y-105035850D01*
X134975616Y-100250000D02*
X129246380Y-100250000D01*
X138750000Y-105035850D02*
X137296660Y-103582510D01*
X137296660Y-103582510D02*
X137296659Y-102571043D01*
X137296659Y-102571043D02*
X134975616Y-100250000D01*
X129246380Y-100250000D02*
X128492000Y-100250000D01*
X138684000Y-101346000D02*
X137364800Y-101346000D01*
X137364800Y-101346000D02*
X135268800Y-99250000D01*
X135268800Y-99250000D02*
X129246380Y-99250000D01*
X129246380Y-99250000D02*
X128492000Y-99250000D01*
X138684000Y-101346000D02*
X138459000Y-101346000D01*
X138750000Y-97282000D02*
X137782000Y-98250000D01*
X137782000Y-98250000D02*
X134916790Y-98250000D01*
X134916790Y-98250000D02*
X128492000Y-98250000D01*
X136107900Y-103153377D02*
X135676848Y-103153377D01*
X135676848Y-103153377D02*
X135580225Y-103250000D01*
X135580225Y-103250000D02*
X129246380Y-103250000D01*
X129246380Y-103250000D02*
X128492000Y-103250000D01*
X128492000Y-103750000D02*
X128513652Y-103771652D01*
X128513652Y-103771652D02*
X135368543Y-103771652D01*
X135368543Y-103771652D02*
X135726613Y-104129722D01*
X135726613Y-104129722D02*
X136157665Y-104129722D01*
X162560000Y-101600000D02*
X154940000Y-93980000D01*
X155842918Y-112670590D02*
X156147717Y-112365791D01*
X154940000Y-113573508D02*
X155842918Y-112670590D01*
X154940000Y-114300000D02*
X154940000Y-113573508D01*
X162560000Y-106680000D02*
X161422304Y-106680000D01*
X158111815Y-109990489D02*
X158111815Y-111940094D01*
X161422304Y-106680000D02*
X158111815Y-109990489D01*
X158111815Y-111940094D02*
X158111815Y-112371146D01*
X136907797Y-105387218D02*
X136907797Y-105701185D01*
X135715022Y-104764723D02*
X136285302Y-104764723D01*
X135200299Y-104250000D02*
X135715022Y-104764723D01*
X136285302Y-104764723D02*
X136907797Y-105387218D01*
X136907797Y-105701185D02*
X136907797Y-106132237D01*
X128492000Y-104250000D02*
X135200299Y-104250000D01*
X136078004Y-105497227D02*
X135212170Y-105497227D01*
X135212170Y-105497227D02*
X134464943Y-104750000D01*
X134464943Y-104750000D02*
X129246380Y-104750000D01*
X129246380Y-104750000D02*
X128492000Y-104750000D01*
X157480000Y-114300000D02*
X157474463Y-114294463D01*
X161660001Y-105039999D02*
X162560000Y-104140000D01*
X157474463Y-114294463D02*
X157474463Y-109913645D01*
X157474463Y-109913645D02*
X161660001Y-105728107D01*
X161660001Y-105728107D02*
X161660001Y-105039999D01*
X134252438Y-105438629D02*
X134557237Y-105743428D01*
X129246380Y-105250000D02*
X129287205Y-105209175D01*
X128492000Y-105250000D02*
X129246380Y-105250000D01*
X134022984Y-105209175D02*
X134252438Y-105438629D01*
X129287205Y-105209175D02*
X134022984Y-105209175D01*
X160147000Y-114300000D02*
X163869799Y-110577201D01*
X163869799Y-110577201D02*
X163869799Y-100369799D01*
X163869799Y-100369799D02*
X163459999Y-99959999D01*
X163459999Y-99959999D02*
X162560000Y-99060000D01*
X136131111Y-106625749D02*
X134456523Y-106625749D01*
X129246380Y-105750000D02*
X128492000Y-105750000D01*
X134456523Y-106625749D02*
X133580774Y-105750000D01*
X133580774Y-105750000D02*
X129246380Y-105750000D01*
X137000356Y-110180356D02*
X137305155Y-110485155D01*
X129256284Y-108759904D02*
X135579904Y-108759904D01*
X128492000Y-108750000D02*
X129246380Y-108750000D01*
X135579904Y-108759904D02*
X137000356Y-110180356D01*
X129246380Y-108750000D02*
X129256284Y-108759904D01*
X139700000Y-110490000D02*
X145716000Y-110490000D01*
X145716000Y-110490000D02*
X146240000Y-109966000D01*
X146240000Y-109966000D02*
X146240000Y-109841000D01*
X146240000Y-109841000D02*
X146719000Y-109362000D01*
X146719000Y-109362000D02*
X146844000Y-109362000D01*
X128492000Y-109250000D02*
X134934358Y-109250000D01*
X134934358Y-109250000D02*
X137895559Y-112211201D01*
X137895559Y-112211201D02*
X144914799Y-112211201D01*
X145874000Y-111252000D02*
X146728000Y-111252000D01*
X144914799Y-112211201D02*
X145874000Y-111252000D01*
X146728000Y-111252000D02*
X146728000Y-110548000D01*
X146728000Y-110548000D02*
X147524201Y-109751799D01*
X147524201Y-109751799D02*
X147524201Y-108617201D01*
X147524201Y-108617201D02*
X146969000Y-108062000D01*
X146969000Y-108062000D02*
X146844000Y-108062000D01*
X146844000Y-108062000D02*
X146719000Y-108062000D01*
G36*
X161516479Y-107375942D02*
X161862238Y-107722305D01*
X162314225Y-107909986D01*
X162803628Y-107910413D01*
X163255942Y-107723521D01*
X163412599Y-107567137D01*
X163412599Y-110387823D01*
X160631345Y-113169077D01*
X160392775Y-113070014D01*
X159903372Y-113069587D01*
X159451058Y-113256479D01*
X159104695Y-113602238D01*
X158917014Y-114054225D01*
X158916587Y-114543628D01*
X159103479Y-114995942D01*
X159275237Y-115168000D01*
X158478770Y-115168000D01*
X158649305Y-114997762D01*
X158836986Y-114545775D01*
X158837413Y-114056372D01*
X158650521Y-113604058D01*
X158304762Y-113257695D01*
X157931663Y-113102771D01*
X157931663Y-112983908D01*
X157984952Y-113006035D01*
X158237570Y-113006256D01*
X158471043Y-112909786D01*
X158649828Y-112731314D01*
X158746704Y-112498009D01*
X158746925Y-112245391D01*
X158650455Y-112011918D01*
X158569015Y-111930335D01*
X158569015Y-110179867D01*
X161474511Y-107274372D01*
X161516479Y-107375942D01*
X161516479Y-107375942D01*
G37*
X161516479Y-107375942D02*
X161862238Y-107722305D01*
X162314225Y-107909986D01*
X162803628Y-107910413D01*
X163255942Y-107723521D01*
X163412599Y-107567137D01*
X163412599Y-110387823D01*
X160631345Y-113169077D01*
X160392775Y-113070014D01*
X159903372Y-113069587D01*
X159451058Y-113256479D01*
X159104695Y-113602238D01*
X158917014Y-114054225D01*
X158916587Y-114543628D01*
X159103479Y-114995942D01*
X159275237Y-115168000D01*
X158478770Y-115168000D01*
X158649305Y-114997762D01*
X158836986Y-114545775D01*
X158837413Y-114056372D01*
X158650521Y-113604058D01*
X158304762Y-113257695D01*
X157931663Y-113102771D01*
X157931663Y-112983908D01*
X157984952Y-113006035D01*
X158237570Y-113006256D01*
X158471043Y-112909786D01*
X158649828Y-112731314D01*
X158746704Y-112498009D01*
X158746925Y-112245391D01*
X158650455Y-112011918D01*
X158569015Y-111930335D01*
X158569015Y-110179867D01*
X161474511Y-107274372D01*
X161516479Y-107375942D01*
G36*
X156564695Y-93282238D02*
X156377014Y-93734225D01*
X156376587Y-94223628D01*
X156563479Y-94675942D01*
X156909238Y-95022305D01*
X157361225Y-95209986D01*
X157850628Y-95210413D01*
X158302942Y-95023521D01*
X158649305Y-94677762D01*
X158836986Y-94225775D01*
X158837413Y-93736372D01*
X158650521Y-93284058D01*
X158478763Y-93112000D01*
X159275230Y-93112000D01*
X159104695Y-93282238D01*
X158917014Y-93734225D01*
X158916587Y-94223628D01*
X159103479Y-94675942D01*
X159449238Y-95022305D01*
X159901225Y-95209986D01*
X160390628Y-95210413D01*
X160842942Y-95023521D01*
X161189305Y-94677762D01*
X161376986Y-94225775D01*
X161377413Y-93736372D01*
X161190521Y-93284058D01*
X161018763Y-93112000D01*
X161815230Y-93112000D01*
X161644695Y-93282238D01*
X161457014Y-93734225D01*
X161456587Y-94223628D01*
X161643479Y-94675942D01*
X161989238Y-95022305D01*
X162441225Y-95209986D01*
X162930628Y-95210413D01*
X163382942Y-95023521D01*
X163729305Y-94677762D01*
X163916986Y-94225775D01*
X163917413Y-93736372D01*
X163730521Y-93284058D01*
X163558763Y-93112000D01*
X164355230Y-93112000D01*
X164184695Y-93282238D01*
X163997014Y-93734225D01*
X163996587Y-94223628D01*
X164183479Y-94675942D01*
X164529238Y-95022305D01*
X164981225Y-95209986D01*
X165470628Y-95210413D01*
X165922942Y-95023521D01*
X166269305Y-94677762D01*
X166456986Y-94225775D01*
X166457413Y-93736372D01*
X166270521Y-93284058D01*
X166098763Y-93112000D01*
X166895230Y-93112000D01*
X166724695Y-93282238D01*
X166537014Y-93734225D01*
X166536587Y-94223628D01*
X166723479Y-94675942D01*
X167069238Y-95022305D01*
X167521225Y-95209986D01*
X168010628Y-95210413D01*
X168462942Y-95023521D01*
X168809305Y-94677762D01*
X168996986Y-94225775D01*
X168997413Y-93736372D01*
X168810521Y-93284058D01*
X168638763Y-93112000D01*
X171410405Y-93112000D01*
X171560143Y-93141785D01*
X171159493Y-93141435D01*
X170384361Y-93461713D01*
X169790797Y-94054241D01*
X169469167Y-94828813D01*
X169468435Y-95667507D01*
X169788713Y-96442639D01*
X170381241Y-97036203D01*
X171155813Y-97357833D01*
X171994507Y-97358565D01*
X172769639Y-97038287D01*
X173363203Y-96445759D01*
X173588000Y-95904387D01*
X173588000Y-112376368D01*
X173365287Y-111837361D01*
X172772759Y-111243797D01*
X171998187Y-110922167D01*
X171159493Y-110921435D01*
X170384361Y-111241713D01*
X169790797Y-111834241D01*
X169469167Y-112608813D01*
X169468435Y-113447507D01*
X169788713Y-114222639D01*
X170381241Y-114816203D01*
X171155813Y-115137833D01*
X171560290Y-115138186D01*
X171410405Y-115168000D01*
X168638770Y-115168000D01*
X168809305Y-114997762D01*
X168996986Y-114545775D01*
X168997413Y-114056372D01*
X168810521Y-113604058D01*
X168464762Y-113257695D01*
X168012775Y-113070014D01*
X167523372Y-113069587D01*
X167071058Y-113256479D01*
X166724695Y-113602238D01*
X166537014Y-114054225D01*
X166536587Y-114543628D01*
X166723479Y-114995942D01*
X166895237Y-115168000D01*
X166098770Y-115168000D01*
X166269305Y-114997762D01*
X166456986Y-114545775D01*
X166457413Y-114056372D01*
X166270521Y-113604058D01*
X165924762Y-113257695D01*
X165472775Y-113070014D01*
X164983372Y-113069587D01*
X164531058Y-113256479D01*
X164184695Y-113602238D01*
X163997014Y-114054225D01*
X163996587Y-114543628D01*
X164183479Y-114995942D01*
X164355237Y-115168000D01*
X163558770Y-115168000D01*
X163729305Y-114997762D01*
X163916986Y-114545775D01*
X163917413Y-114056372D01*
X163730521Y-113604058D01*
X163384762Y-113257695D01*
X162932775Y-113070014D01*
X162443372Y-113069587D01*
X161991058Y-113256479D01*
X161644695Y-113602238D01*
X161457014Y-114054225D01*
X161456587Y-114543628D01*
X161643479Y-114995942D01*
X161815237Y-115168000D01*
X161018770Y-115168000D01*
X161189305Y-114997762D01*
X161376986Y-114545775D01*
X161377413Y-114056372D01*
X161277943Y-113815635D01*
X164193088Y-110900490D01*
X164292197Y-110752164D01*
X164326999Y-110577201D01*
X164326999Y-107646935D01*
X164402238Y-107722305D01*
X164854225Y-107909986D01*
X165343628Y-107910413D01*
X165795942Y-107723521D01*
X166142305Y-107377762D01*
X166329986Y-106925775D01*
X166330413Y-106436372D01*
X166143521Y-105984058D01*
X165797762Y-105637695D01*
X165661716Y-105581204D01*
X165914148Y-105476643D01*
X166000554Y-105220159D01*
X165100000Y-104319605D01*
X165085858Y-104333748D01*
X164906253Y-104154143D01*
X164920395Y-104140000D01*
X165279605Y-104140000D01*
X166180159Y-105040554D01*
X166436643Y-104954148D01*
X166646458Y-104380664D01*
X166620839Y-103770540D01*
X166436643Y-103325852D01*
X166180159Y-103239446D01*
X165279605Y-104140000D01*
X164920395Y-104140000D01*
X164906253Y-104125858D01*
X165085858Y-103946253D01*
X165100000Y-103960395D01*
X166000554Y-103059841D01*
X165914148Y-102803357D01*
X165646287Y-102705357D01*
X165795942Y-102643521D01*
X166142305Y-102297762D01*
X166329986Y-101845775D01*
X166330413Y-101356372D01*
X166143521Y-100904058D01*
X165797762Y-100557695D01*
X165345775Y-100370014D01*
X164856372Y-100369587D01*
X164404058Y-100556479D01*
X164326999Y-100633404D01*
X164326999Y-100369799D01*
X164292197Y-100194836D01*
X164193088Y-100046510D01*
X163690923Y-99544345D01*
X163789986Y-99305775D01*
X163789987Y-99303628D01*
X163869587Y-99303628D01*
X164056479Y-99755942D01*
X164402238Y-100102305D01*
X164854225Y-100289986D01*
X165343628Y-100290413D01*
X165795942Y-100103521D01*
X166142305Y-99757762D01*
X166329986Y-99305775D01*
X166330413Y-98816372D01*
X166143521Y-98364058D01*
X165797762Y-98017695D01*
X165345775Y-97830014D01*
X164856372Y-97829587D01*
X164404058Y-98016479D01*
X164057695Y-98362238D01*
X163870014Y-98814225D01*
X163869587Y-99303628D01*
X163789987Y-99303628D01*
X163790413Y-98816372D01*
X163603521Y-98364058D01*
X163257762Y-98017695D01*
X162805775Y-97830014D01*
X162316372Y-97829587D01*
X161864058Y-98016479D01*
X161517695Y-98362238D01*
X161330014Y-98814225D01*
X161329587Y-99303628D01*
X161516479Y-99755942D01*
X161862238Y-100102305D01*
X162314225Y-100289986D01*
X162803628Y-100290413D01*
X163044365Y-100190943D01*
X163412599Y-100559177D01*
X163412599Y-100712802D01*
X163257762Y-100557695D01*
X162805775Y-100370014D01*
X162316372Y-100369587D01*
X162075635Y-100469057D01*
X156160661Y-94554083D01*
X156296986Y-94225775D01*
X156297413Y-93736372D01*
X156110521Y-93284058D01*
X155938763Y-93112000D01*
X156735230Y-93112000D01*
X156564695Y-93282238D01*
X156564695Y-93282238D01*
G37*
X156564695Y-93282238D02*
X156377014Y-93734225D01*
X156376587Y-94223628D01*
X156563479Y-94675942D01*
X156909238Y-95022305D01*
X157361225Y-95209986D01*
X157850628Y-95210413D01*
X158302942Y-95023521D01*
X158649305Y-94677762D01*
X158836986Y-94225775D01*
X158837413Y-93736372D01*
X158650521Y-93284058D01*
X158478763Y-93112000D01*
X159275230Y-93112000D01*
X159104695Y-93282238D01*
X158917014Y-93734225D01*
X158916587Y-94223628D01*
X159103479Y-94675942D01*
X159449238Y-95022305D01*
X159901225Y-95209986D01*
X160390628Y-95210413D01*
X160842942Y-95023521D01*
X161189305Y-94677762D01*
X161376986Y-94225775D01*
X161377413Y-93736372D01*
X161190521Y-93284058D01*
X161018763Y-93112000D01*
X161815230Y-93112000D01*
X161644695Y-93282238D01*
X161457014Y-93734225D01*
X161456587Y-94223628D01*
X161643479Y-94675942D01*
X161989238Y-95022305D01*
X162441225Y-95209986D01*
X162930628Y-95210413D01*
X163382942Y-95023521D01*
X163729305Y-94677762D01*
X163916986Y-94225775D01*
X163917413Y-93736372D01*
X163730521Y-93284058D01*
X163558763Y-93112000D01*
X164355230Y-93112000D01*
X164184695Y-93282238D01*
X163997014Y-93734225D01*
X163996587Y-94223628D01*
X164183479Y-94675942D01*
X164529238Y-95022305D01*
X164981225Y-95209986D01*
X165470628Y-95210413D01*
X165922942Y-95023521D01*
X166269305Y-94677762D01*
X166456986Y-94225775D01*
X166457413Y-93736372D01*
X166270521Y-93284058D01*
X166098763Y-93112000D01*
X166895230Y-93112000D01*
X166724695Y-93282238D01*
X166537014Y-93734225D01*
X166536587Y-94223628D01*
X166723479Y-94675942D01*
X167069238Y-95022305D01*
X167521225Y-95209986D01*
X168010628Y-95210413D01*
X168462942Y-95023521D01*
X168809305Y-94677762D01*
X168996986Y-94225775D01*
X168997413Y-93736372D01*
X168810521Y-93284058D01*
X168638763Y-93112000D01*
X171410405Y-93112000D01*
X171560143Y-93141785D01*
X171159493Y-93141435D01*
X170384361Y-93461713D01*
X169790797Y-94054241D01*
X169469167Y-94828813D01*
X169468435Y-95667507D01*
X169788713Y-96442639D01*
X170381241Y-97036203D01*
X171155813Y-97357833D01*
X171994507Y-97358565D01*
X172769639Y-97038287D01*
X173363203Y-96445759D01*
X173588000Y-95904387D01*
X173588000Y-112376368D01*
X173365287Y-111837361D01*
X172772759Y-111243797D01*
X171998187Y-110922167D01*
X171159493Y-110921435D01*
X170384361Y-111241713D01*
X169790797Y-111834241D01*
X169469167Y-112608813D01*
X169468435Y-113447507D01*
X169788713Y-114222639D01*
X170381241Y-114816203D01*
X171155813Y-115137833D01*
X171560290Y-115138186D01*
X171410405Y-115168000D01*
X168638770Y-115168000D01*
X168809305Y-114997762D01*
X168996986Y-114545775D01*
X168997413Y-114056372D01*
X168810521Y-113604058D01*
X168464762Y-113257695D01*
X168012775Y-113070014D01*
X167523372Y-113069587D01*
X167071058Y-113256479D01*
X166724695Y-113602238D01*
X166537014Y-114054225D01*
X166536587Y-114543628D01*
X166723479Y-114995942D01*
X166895237Y-115168000D01*
X166098770Y-115168000D01*
X166269305Y-114997762D01*
X166456986Y-114545775D01*
X166457413Y-114056372D01*
X166270521Y-113604058D01*
X165924762Y-113257695D01*
X165472775Y-113070014D01*
X164983372Y-113069587D01*
X164531058Y-113256479D01*
X164184695Y-113602238D01*
X163997014Y-114054225D01*
X163996587Y-114543628D01*
X164183479Y-114995942D01*
X164355237Y-115168000D01*
X163558770Y-115168000D01*
X163729305Y-114997762D01*
X163916986Y-114545775D01*
X163917413Y-114056372D01*
X163730521Y-113604058D01*
X163384762Y-113257695D01*
X162932775Y-113070014D01*
X162443372Y-113069587D01*
X161991058Y-113256479D01*
X161644695Y-113602238D01*
X161457014Y-114054225D01*
X161456587Y-114543628D01*
X161643479Y-114995942D01*
X161815237Y-115168000D01*
X161018770Y-115168000D01*
X161189305Y-114997762D01*
X161376986Y-114545775D01*
X161377413Y-114056372D01*
X161277943Y-113815635D01*
X164193088Y-110900490D01*
X164292197Y-110752164D01*
X164326999Y-110577201D01*
X164326999Y-107646935D01*
X164402238Y-107722305D01*
X164854225Y-107909986D01*
X165343628Y-107910413D01*
X165795942Y-107723521D01*
X166142305Y-107377762D01*
X166329986Y-106925775D01*
X166330413Y-106436372D01*
X166143521Y-105984058D01*
X165797762Y-105637695D01*
X165661716Y-105581204D01*
X165914148Y-105476643D01*
X166000554Y-105220159D01*
X165100000Y-104319605D01*
X165085858Y-104333748D01*
X164906253Y-104154143D01*
X164920395Y-104140000D01*
X165279605Y-104140000D01*
X166180159Y-105040554D01*
X166436643Y-104954148D01*
X166646458Y-104380664D01*
X166620839Y-103770540D01*
X166436643Y-103325852D01*
X166180159Y-103239446D01*
X165279605Y-104140000D01*
X164920395Y-104140000D01*
X164906253Y-104125858D01*
X165085858Y-103946253D01*
X165100000Y-103960395D01*
X166000554Y-103059841D01*
X165914148Y-102803357D01*
X165646287Y-102705357D01*
X165795942Y-102643521D01*
X166142305Y-102297762D01*
X166329986Y-101845775D01*
X166330413Y-101356372D01*
X166143521Y-100904058D01*
X165797762Y-100557695D01*
X165345775Y-100370014D01*
X164856372Y-100369587D01*
X164404058Y-100556479D01*
X164326999Y-100633404D01*
X164326999Y-100369799D01*
X164292197Y-100194836D01*
X164193088Y-100046510D01*
X163690923Y-99544345D01*
X163789986Y-99305775D01*
X163789987Y-99303628D01*
X163869587Y-99303628D01*
X164056479Y-99755942D01*
X164402238Y-100102305D01*
X164854225Y-100289986D01*
X165343628Y-100290413D01*
X165795942Y-100103521D01*
X166142305Y-99757762D01*
X166329986Y-99305775D01*
X166330413Y-98816372D01*
X166143521Y-98364058D01*
X165797762Y-98017695D01*
X165345775Y-97830014D01*
X164856372Y-97829587D01*
X164404058Y-98016479D01*
X164057695Y-98362238D01*
X163870014Y-98814225D01*
X163869587Y-99303628D01*
X163789987Y-99303628D01*
X163790413Y-98816372D01*
X163603521Y-98364058D01*
X163257762Y-98017695D01*
X162805775Y-97830014D01*
X162316372Y-97829587D01*
X161864058Y-98016479D01*
X161517695Y-98362238D01*
X161330014Y-98814225D01*
X161329587Y-99303628D01*
X161516479Y-99755942D01*
X161862238Y-100102305D01*
X162314225Y-100289986D01*
X162803628Y-100290413D01*
X163044365Y-100190943D01*
X163412599Y-100559177D01*
X163412599Y-100712802D01*
X163257762Y-100557695D01*
X162805775Y-100370014D01*
X162316372Y-100369587D01*
X162075635Y-100469057D01*
X156160661Y-94554083D01*
X156296986Y-94225775D01*
X156297413Y-93736372D01*
X156110521Y-93284058D01*
X155938763Y-93112000D01*
X156735230Y-93112000D01*
X156564695Y-93282238D01*
G36*
X128624695Y-93282238D02*
X128437014Y-93734225D01*
X128436587Y-94223628D01*
X128623479Y-94675942D01*
X128969238Y-95022305D01*
X129421225Y-95209986D01*
X129910628Y-95210413D01*
X130362942Y-95023521D01*
X130709305Y-94677762D01*
X130896986Y-94225775D01*
X130897413Y-93736372D01*
X130710521Y-93284058D01*
X130538763Y-93112000D01*
X131335230Y-93112000D01*
X131164695Y-93282238D01*
X130977014Y-93734225D01*
X130976587Y-94223628D01*
X131163479Y-94675942D01*
X131509238Y-95022305D01*
X131961225Y-95209986D01*
X132450628Y-95210413D01*
X132902942Y-95023521D01*
X133249305Y-94677762D01*
X133436986Y-94225775D01*
X133437413Y-93736372D01*
X133250521Y-93284058D01*
X133078763Y-93112000D01*
X133875230Y-93112000D01*
X133704695Y-93282238D01*
X133517014Y-93734225D01*
X133516587Y-94223628D01*
X133703479Y-94675942D01*
X134049238Y-95022305D01*
X134501225Y-95209986D01*
X134990628Y-95210413D01*
X135442942Y-95023521D01*
X135789305Y-94677762D01*
X135845796Y-94541716D01*
X135950357Y-94794148D01*
X136206841Y-94880554D01*
X137107395Y-93980000D01*
X137093253Y-93965858D01*
X137272858Y-93786253D01*
X137287000Y-93800395D01*
X137301143Y-93786253D01*
X137480748Y-93965858D01*
X137466605Y-93980000D01*
X138367159Y-94880554D01*
X138623643Y-94794148D01*
X138721643Y-94526287D01*
X138783479Y-94675942D01*
X139129238Y-95022305D01*
X139581225Y-95209986D01*
X140070628Y-95210413D01*
X140522942Y-95023521D01*
X140869305Y-94677762D01*
X141056986Y-94225775D01*
X141057413Y-93736372D01*
X140870521Y-93284058D01*
X140698763Y-93112000D01*
X141495230Y-93112000D01*
X141324695Y-93282238D01*
X141137014Y-93734225D01*
X141136587Y-94223628D01*
X141323479Y-94675942D01*
X141669238Y-95022305D01*
X142121225Y-95209986D01*
X142610628Y-95210413D01*
X143062942Y-95023521D01*
X143409305Y-94677762D01*
X143596986Y-94225775D01*
X143597413Y-93736372D01*
X143410521Y-93284058D01*
X143238763Y-93112000D01*
X144035230Y-93112000D01*
X143864695Y-93282238D01*
X143677014Y-93734225D01*
X143676587Y-94223628D01*
X143863479Y-94675942D01*
X144209238Y-95022305D01*
X144661225Y-95209986D01*
X145150628Y-95210413D01*
X145602942Y-95023521D01*
X145949305Y-94677762D01*
X146136986Y-94225775D01*
X146137413Y-93736372D01*
X145950521Y-93284058D01*
X145778763Y-93112000D01*
X146575230Y-93112000D01*
X146404695Y-93282238D01*
X146217014Y-93734225D01*
X146216587Y-94223628D01*
X146403479Y-94675942D01*
X146749238Y-95022305D01*
X147201225Y-95209986D01*
X147690628Y-95210413D01*
X148142942Y-95023521D01*
X148489305Y-94677762D01*
X148676986Y-94225775D01*
X148677413Y-93736372D01*
X148490521Y-93284058D01*
X148318763Y-93112000D01*
X149115230Y-93112000D01*
X148944695Y-93282238D01*
X148757014Y-93734225D01*
X148756587Y-94223628D01*
X148943479Y-94675942D01*
X149289238Y-95022305D01*
X149741225Y-95209986D01*
X150230628Y-95210413D01*
X150682942Y-95023521D01*
X151029305Y-94677762D01*
X151216986Y-94225775D01*
X151217413Y-93736372D01*
X151030521Y-93284058D01*
X150858763Y-93112000D01*
X151655230Y-93112000D01*
X151484695Y-93282238D01*
X151297014Y-93734225D01*
X151296587Y-94223628D01*
X151483479Y-94675942D01*
X151829238Y-95022305D01*
X152281225Y-95209986D01*
X152770628Y-95210413D01*
X153222942Y-95023521D01*
X153569305Y-94677762D01*
X153756986Y-94225775D01*
X153757413Y-93736372D01*
X153570521Y-93284058D01*
X153398763Y-93112000D01*
X154195230Y-93112000D01*
X154024695Y-93282238D01*
X153837014Y-93734225D01*
X153836587Y-94223628D01*
X154023479Y-94675942D01*
X154369238Y-95022305D01*
X154821225Y-95209986D01*
X155310628Y-95210413D01*
X155461497Y-95148075D01*
X161429077Y-101115655D01*
X161330014Y-101354225D01*
X161329587Y-101843628D01*
X161516479Y-102295942D01*
X161862238Y-102642305D01*
X162314225Y-102829986D01*
X162803628Y-102830413D01*
X163255942Y-102643521D01*
X163412599Y-102487137D01*
X163412599Y-103252802D01*
X163257762Y-103097695D01*
X162805775Y-102910014D01*
X162316372Y-102909587D01*
X161864058Y-103096479D01*
X161517695Y-103442238D01*
X161330014Y-103894225D01*
X161329587Y-104383628D01*
X161429057Y-104624365D01*
X161336712Y-104716710D01*
X161237603Y-104865036D01*
X161202801Y-105039999D01*
X161202801Y-105538729D01*
X157151174Y-109590356D01*
X157052065Y-109738682D01*
X157017263Y-109913645D01*
X157017263Y-113212596D01*
X156911058Y-113256479D01*
X156564695Y-113602238D01*
X156377014Y-114054225D01*
X156376587Y-114543628D01*
X156563479Y-114995942D01*
X156735237Y-115168000D01*
X155938770Y-115168000D01*
X156109305Y-114997762D01*
X156296986Y-114545775D01*
X156297413Y-114056372D01*
X156110521Y-113604058D01*
X155833516Y-113326570D01*
X156159285Y-113000801D01*
X156273472Y-113000901D01*
X156506945Y-112904431D01*
X156685730Y-112725959D01*
X156782606Y-112492654D01*
X156782827Y-112240036D01*
X156686357Y-112006563D01*
X156507885Y-111827778D01*
X156274580Y-111730902D01*
X156021962Y-111730681D01*
X155788489Y-111827151D01*
X155609704Y-112005623D01*
X155512828Y-112238928D01*
X155512727Y-112354203D01*
X154779015Y-113087915D01*
X154371058Y-113256479D01*
X154024695Y-113602238D01*
X153837014Y-114054225D01*
X153836587Y-114543628D01*
X154023479Y-114995942D01*
X154195237Y-115168000D01*
X153398770Y-115168000D01*
X153569305Y-114997762D01*
X153756986Y-114545775D01*
X153757413Y-114056372D01*
X153570521Y-113604058D01*
X153224762Y-113257695D01*
X152772775Y-113070014D01*
X152283372Y-113069587D01*
X151831058Y-113256479D01*
X151484695Y-113602238D01*
X151297014Y-114054225D01*
X151296587Y-114543628D01*
X151483479Y-114995942D01*
X151655237Y-115168000D01*
X150858770Y-115168000D01*
X151029305Y-114997762D01*
X151216986Y-114545775D01*
X151217413Y-114056372D01*
X151030521Y-113604058D01*
X150684762Y-113257695D01*
X150232775Y-113070014D01*
X149743372Y-113069587D01*
X149291058Y-113256479D01*
X148944695Y-113602238D01*
X148757014Y-114054225D01*
X148756587Y-114543628D01*
X148943479Y-114995942D01*
X149115237Y-115168000D01*
X148318770Y-115168000D01*
X148489305Y-114997762D01*
X148676986Y-114545775D01*
X148677413Y-114056372D01*
X148490521Y-113604058D01*
X148144762Y-113257695D01*
X147692775Y-113070014D01*
X147203372Y-113069587D01*
X146751058Y-113256479D01*
X146404695Y-113602238D01*
X146217014Y-114054225D01*
X146216587Y-114543628D01*
X146403479Y-114995942D01*
X146575237Y-115168000D01*
X145778770Y-115168000D01*
X145949305Y-114997762D01*
X146136986Y-114545775D01*
X146137413Y-114056372D01*
X145950521Y-113604058D01*
X145604762Y-113257695D01*
X145152775Y-113070014D01*
X144663372Y-113069587D01*
X144211058Y-113256479D01*
X143864695Y-113602238D01*
X143677014Y-114054225D01*
X143676587Y-114543628D01*
X143863479Y-114995942D01*
X144035237Y-115168000D01*
X143238770Y-115168000D01*
X143409305Y-114997762D01*
X143596986Y-114545775D01*
X143597413Y-114056372D01*
X143410521Y-113604058D01*
X143064762Y-113257695D01*
X142612775Y-113070014D01*
X142123372Y-113069587D01*
X141671058Y-113256479D01*
X141324695Y-113602238D01*
X141137014Y-114054225D01*
X141136587Y-114543628D01*
X141323479Y-114995942D01*
X141495237Y-115168000D01*
X140698770Y-115168000D01*
X140869305Y-114997762D01*
X141056986Y-114545775D01*
X141057413Y-114056372D01*
X140870521Y-113604058D01*
X140524762Y-113257695D01*
X140072775Y-113070014D01*
X139583372Y-113069587D01*
X139131058Y-113256479D01*
X138784695Y-113602238D01*
X138597014Y-114054225D01*
X138596587Y-114543628D01*
X138783479Y-114995942D01*
X138955237Y-115168000D01*
X125769595Y-115168000D01*
X124914838Y-114997978D01*
X124223775Y-114536225D01*
X123762022Y-113845164D01*
X123592000Y-112990405D01*
X123592000Y-112000000D01*
X124655331Y-112000000D01*
X124655331Y-113500000D01*
X124678356Y-113622365D01*
X124750673Y-113734749D01*
X124861017Y-113810144D01*
X124992000Y-113836669D01*
X127992000Y-113836669D01*
X128114365Y-113813644D01*
X128226749Y-113741327D01*
X128302144Y-113630983D01*
X128328669Y-113500000D01*
X128328669Y-112000000D01*
X128305644Y-111877635D01*
X128233327Y-111765251D01*
X128122983Y-111689856D01*
X127992000Y-111663331D01*
X124992000Y-111663331D01*
X124869635Y-111686356D01*
X124757251Y-111758673D01*
X124681856Y-111869017D01*
X124655331Y-112000000D01*
X123592000Y-112000000D01*
X123592000Y-106476060D01*
X127356620Y-106476060D01*
X127356620Y-106510929D01*
X127453293Y-106744318D01*
X127631921Y-106922947D01*
X127664719Y-106936532D01*
X127677459Y-107004235D01*
X127654951Y-107115380D01*
X127654951Y-107384620D01*
X127677459Y-107504235D01*
X127654951Y-107615380D01*
X127654951Y-107884620D01*
X127677459Y-108004235D01*
X127654951Y-108115380D01*
X127654951Y-108384620D01*
X127677459Y-108504235D01*
X127654951Y-108615380D01*
X127654951Y-108884620D01*
X127677459Y-109004235D01*
X127654951Y-109115380D01*
X127654951Y-109384620D01*
X127677459Y-109504235D01*
X127654951Y-109615380D01*
X127654951Y-109884620D01*
X127677976Y-110006985D01*
X127750293Y-110119369D01*
X127860637Y-110194764D01*
X127991620Y-110221289D01*
X128992380Y-110221289D01*
X129114745Y-110198264D01*
X129227129Y-110125947D01*
X129302524Y-110015603D01*
X129329049Y-109884620D01*
X129329049Y-109707200D01*
X134744980Y-109707200D01*
X137572270Y-112534490D01*
X137720596Y-112633599D01*
X137895559Y-112668401D01*
X144914799Y-112668401D01*
X145089762Y-112633599D01*
X145238088Y-112534490D01*
X145866766Y-111905812D01*
X145886673Y-111936749D01*
X145997017Y-112012144D01*
X146128000Y-112038669D01*
X147328000Y-112038669D01*
X147450365Y-112015644D01*
X147562749Y-111943327D01*
X147638144Y-111832983D01*
X147664669Y-111702000D01*
X147664669Y-111537750D01*
X147693000Y-111537750D01*
X147693000Y-111828310D01*
X147789673Y-112061699D01*
X147968302Y-112240327D01*
X148201691Y-112337000D01*
X148642250Y-112337000D01*
X148801000Y-112178250D01*
X148801000Y-111379000D01*
X149055000Y-111379000D01*
X149055000Y-112178250D01*
X149213750Y-112337000D01*
X149654309Y-112337000D01*
X149887698Y-112240327D01*
X150066327Y-112061699D01*
X150163000Y-111828310D01*
X150163000Y-111537750D01*
X150004250Y-111379000D01*
X149055000Y-111379000D01*
X148801000Y-111379000D01*
X147851750Y-111379000D01*
X147693000Y-111537750D01*
X147664669Y-111537750D01*
X147664669Y-110802000D01*
X147641644Y-110679635D01*
X147639106Y-110675690D01*
X147693000Y-110675690D01*
X147693000Y-110966250D01*
X147851750Y-111125000D01*
X148801000Y-111125000D01*
X148801000Y-110325750D01*
X149055000Y-110325750D01*
X149055000Y-111125000D01*
X150004250Y-111125000D01*
X150163000Y-110966250D01*
X150163000Y-110675690D01*
X150066327Y-110442301D01*
X149887698Y-110263673D01*
X149654309Y-110167000D01*
X149213750Y-110167000D01*
X149055000Y-110325750D01*
X148801000Y-110325750D01*
X148642250Y-110167000D01*
X148201691Y-110167000D01*
X147968302Y-110263673D01*
X147789673Y-110442301D01*
X147693000Y-110675690D01*
X147639106Y-110675690D01*
X147569327Y-110567251D01*
X147458983Y-110491856D01*
X147435481Y-110487097D01*
X147847490Y-110075088D01*
X147946599Y-109926762D01*
X147981401Y-109751799D01*
X147981401Y-108617201D01*
X147946599Y-108442238D01*
X147847490Y-108293912D01*
X147530669Y-107977091D01*
X147530669Y-107837000D01*
X147507644Y-107714635D01*
X147435327Y-107602251D01*
X147324983Y-107526856D01*
X147194000Y-107500331D01*
X146494000Y-107500331D01*
X146371635Y-107523356D01*
X146259251Y-107595673D01*
X146183856Y-107706017D01*
X146157331Y-107837000D01*
X146157331Y-108287000D01*
X146180356Y-108409365D01*
X146252673Y-108521749D01*
X146363017Y-108597144D01*
X146494000Y-108623669D01*
X146884091Y-108623669D01*
X147060753Y-108800331D01*
X146494000Y-108800331D01*
X146371635Y-108823356D01*
X146259251Y-108895673D01*
X146183856Y-109006017D01*
X146157331Y-109137000D01*
X146157331Y-109277091D01*
X145916711Y-109517711D01*
X145817602Y-109666037D01*
X145798785Y-109760637D01*
X145526622Y-110032800D01*
X141861187Y-110032800D01*
X141885000Y-109975310D01*
X141885000Y-109759750D01*
X141726250Y-109601000D01*
X140777000Y-109601000D01*
X140777000Y-109621000D01*
X140523000Y-109621000D01*
X140523000Y-109601000D01*
X140503000Y-109601000D01*
X140503000Y-109347000D01*
X140523000Y-109347000D01*
X140523000Y-108622750D01*
X140777000Y-108622750D01*
X140777000Y-109347000D01*
X141726250Y-109347000D01*
X141885000Y-109188250D01*
X141885000Y-108972690D01*
X141788327Y-108739301D01*
X141609698Y-108560673D01*
X141376309Y-108464000D01*
X140935750Y-108464000D01*
X140777000Y-108622750D01*
X140523000Y-108622750D01*
X140364250Y-108464000D01*
X139923691Y-108464000D01*
X139690302Y-108560673D01*
X139511673Y-108739301D01*
X139488905Y-108794269D01*
X139480983Y-108788856D01*
X139350000Y-108762331D01*
X138150000Y-108762331D01*
X138027635Y-108785356D01*
X137921944Y-108853366D01*
X136590771Y-107522193D01*
X136442445Y-107423084D01*
X136267482Y-107388282D01*
X131305782Y-107388282D01*
X131214969Y-107327602D01*
X131040006Y-107292800D01*
X129329049Y-107292800D01*
X129329049Y-107115380D01*
X129306541Y-106995765D01*
X129318468Y-106936869D01*
X129352079Y-106922947D01*
X129530707Y-106744318D01*
X129627380Y-106510929D01*
X129627380Y-106476060D01*
X129468630Y-106317310D01*
X129141034Y-106317310D01*
X129123363Y-106305236D01*
X128992380Y-106278711D01*
X127991620Y-106278711D01*
X127869255Y-106301736D01*
X127845052Y-106317310D01*
X127515370Y-106317310D01*
X127356620Y-106476060D01*
X123592000Y-106476060D01*
X123592000Y-101489071D01*
X127356620Y-101489071D01*
X127356620Y-101523940D01*
X127515370Y-101682690D01*
X127842966Y-101682690D01*
X127860637Y-101694764D01*
X127991620Y-101721289D01*
X128992380Y-101721289D01*
X129067255Y-101707200D01*
X132176000Y-101707200D01*
X132350963Y-101672398D01*
X132499289Y-101573289D01*
X132781804Y-101290774D01*
X134279144Y-101290774D01*
X134045908Y-101387146D01*
X133867123Y-101565618D01*
X133772789Y-101792800D01*
X129061953Y-101792800D01*
X128992380Y-101778711D01*
X127991620Y-101778711D01*
X127869255Y-101801736D01*
X127845052Y-101817310D01*
X127515370Y-101817310D01*
X127356620Y-101976060D01*
X127356620Y-102010929D01*
X127453293Y-102244318D01*
X127631921Y-102422947D01*
X127664719Y-102436532D01*
X127677459Y-102504235D01*
X127654951Y-102615380D01*
X127654951Y-102884620D01*
X127677459Y-103004235D01*
X127654951Y-103115380D01*
X127654951Y-103384620D01*
X127677459Y-103504235D01*
X127654951Y-103615380D01*
X127654951Y-103884620D01*
X127677459Y-104004235D01*
X127654951Y-104115380D01*
X127654951Y-104384620D01*
X127677459Y-104504235D01*
X127654951Y-104615380D01*
X127654951Y-104884620D01*
X127677459Y-105004235D01*
X127654951Y-105115380D01*
X127654951Y-105384620D01*
X127677459Y-105504235D01*
X127665532Y-105563131D01*
X127631921Y-105577053D01*
X127453293Y-105755682D01*
X127356620Y-105989071D01*
X127356620Y-106023940D01*
X127515370Y-106182690D01*
X127842966Y-106182690D01*
X127860637Y-106194764D01*
X127991620Y-106221289D01*
X128992380Y-106221289D01*
X129067255Y-106207200D01*
X133391396Y-106207200D01*
X134133234Y-106949038D01*
X134281560Y-107048147D01*
X134456523Y-107082949D01*
X135690271Y-107082949D01*
X135770943Y-107163762D01*
X136004248Y-107260638D01*
X136256866Y-107260859D01*
X136490339Y-107164389D01*
X136669124Y-106985917D01*
X136763056Y-106759702D01*
X136780934Y-106767126D01*
X137033552Y-106767347D01*
X137267025Y-106670877D01*
X137433056Y-106505136D01*
X137438800Y-106510880D01*
X137438800Y-106813000D01*
X137473602Y-106987963D01*
X137572711Y-107136289D01*
X137813331Y-107376909D01*
X137813331Y-107817000D01*
X137836356Y-107939365D01*
X137908673Y-108051749D01*
X138019017Y-108127144D01*
X138150000Y-108153669D01*
X139350000Y-108153669D01*
X139472365Y-108130644D01*
X139488339Y-108120365D01*
X139511673Y-108176699D01*
X139690302Y-108355327D01*
X139923691Y-108452000D01*
X140364250Y-108452000D01*
X140523000Y-108293250D01*
X140523000Y-107569000D01*
X140777000Y-107569000D01*
X140777000Y-108293250D01*
X140935750Y-108452000D01*
X141376309Y-108452000D01*
X141609698Y-108355327D01*
X141788327Y-108176699D01*
X141885000Y-107943310D01*
X141885000Y-107727750D01*
X141726250Y-107569000D01*
X140777000Y-107569000D01*
X140523000Y-107569000D01*
X140503000Y-107569000D01*
X140503000Y-107315000D01*
X140523000Y-107315000D01*
X140523000Y-106590750D01*
X140777000Y-106590750D01*
X140777000Y-107315000D01*
X141726250Y-107315000D01*
X141885000Y-107156250D01*
X141885000Y-106940690D01*
X141788327Y-106707301D01*
X141609698Y-106528673D01*
X141376309Y-106432000D01*
X140935750Y-106432000D01*
X140777000Y-106590750D01*
X140523000Y-106590750D01*
X140364250Y-106432000D01*
X139923691Y-106432000D01*
X139690302Y-106528673D01*
X139511673Y-106707301D01*
X139488905Y-106762269D01*
X139480983Y-106756856D01*
X139350000Y-106730331D01*
X138459909Y-106730331D01*
X138353200Y-106623622D01*
X138353200Y-106321502D01*
X138318398Y-106146539D01*
X138301780Y-106121669D01*
X139350000Y-106121669D01*
X139472365Y-106098644D01*
X139488339Y-106088365D01*
X139511673Y-106144699D01*
X139690302Y-106323327D01*
X139923691Y-106420000D01*
X140364250Y-106420000D01*
X140523000Y-106261250D01*
X140523000Y-105537000D01*
X140777000Y-105537000D01*
X140777000Y-106261250D01*
X140935750Y-106420000D01*
X141376309Y-106420000D01*
X141609698Y-106323327D01*
X141788327Y-106144699D01*
X141885000Y-105911310D01*
X141885000Y-105722000D01*
X145875331Y-105722000D01*
X145875331Y-106622000D01*
X145898356Y-106744365D01*
X145970673Y-106856749D01*
X146081017Y-106932144D01*
X146212000Y-106958669D01*
X147412000Y-106958669D01*
X147534365Y-106935644D01*
X147646749Y-106863327D01*
X147722144Y-106752983D01*
X147748669Y-106622000D01*
X147748669Y-106457750D01*
X147777000Y-106457750D01*
X147777000Y-106748310D01*
X147873673Y-106981699D01*
X148052302Y-107160327D01*
X148285691Y-107257000D01*
X148726250Y-107257000D01*
X148885000Y-107098250D01*
X148885000Y-106299000D01*
X149139000Y-106299000D01*
X149139000Y-107098250D01*
X149297750Y-107257000D01*
X149738309Y-107257000D01*
X149971698Y-107160327D01*
X150150327Y-106981699D01*
X150247000Y-106748310D01*
X150247000Y-106457750D01*
X150088250Y-106299000D01*
X149139000Y-106299000D01*
X148885000Y-106299000D01*
X147935750Y-106299000D01*
X147777000Y-106457750D01*
X147748669Y-106457750D01*
X147748669Y-105722000D01*
X147725644Y-105599635D01*
X147723106Y-105595690D01*
X147777000Y-105595690D01*
X147777000Y-105886250D01*
X147935750Y-106045000D01*
X148885000Y-106045000D01*
X148885000Y-105245750D01*
X148726250Y-105087000D01*
X148285691Y-105087000D01*
X148052302Y-105183673D01*
X147873673Y-105362301D01*
X147777000Y-105595690D01*
X147723106Y-105595690D01*
X147653327Y-105487251D01*
X147542983Y-105411856D01*
X147412000Y-105385331D01*
X146212000Y-105385331D01*
X146089635Y-105408356D01*
X145977251Y-105480673D01*
X145901856Y-105591017D01*
X145875331Y-105722000D01*
X141885000Y-105722000D01*
X141885000Y-105695750D01*
X141726250Y-105537000D01*
X140777000Y-105537000D01*
X140523000Y-105537000D01*
X140503000Y-105537000D01*
X140503000Y-105283000D01*
X140523000Y-105283000D01*
X140523000Y-105263000D01*
X140777000Y-105263000D01*
X140777000Y-105283000D01*
X141726250Y-105283000D01*
X141885000Y-105124250D01*
X141885000Y-104908690D01*
X141788327Y-104675301D01*
X141668866Y-104555841D01*
X142842413Y-104555841D01*
X143017376Y-104521039D01*
X143165430Y-104422112D01*
X145109534Y-104422112D01*
X145150711Y-104463289D01*
X145299037Y-104562398D01*
X145391331Y-104580756D01*
X145391331Y-104740000D01*
X145414356Y-104862365D01*
X145486673Y-104974749D01*
X145597017Y-105050144D01*
X145728000Y-105076669D01*
X146628000Y-105076669D01*
X146750365Y-105053644D01*
X146862749Y-104981327D01*
X146938144Y-104870983D01*
X146964669Y-104740000D01*
X146964669Y-103540000D01*
X146941644Y-103417635D01*
X146869327Y-103305251D01*
X146758983Y-103229856D01*
X146628000Y-103203331D01*
X145728000Y-103203331D01*
X145605635Y-103226356D01*
X145493251Y-103298673D01*
X145417856Y-103409017D01*
X145394038Y-103526634D01*
X145298912Y-103507712D01*
X142976142Y-103507712D01*
X142813818Y-103540000D01*
X142801179Y-103542514D01*
X142653125Y-103641441D01*
X141796691Y-103641441D01*
X141660250Y-103505000D01*
X140711000Y-103505000D01*
X140711000Y-103525000D01*
X140457000Y-103525000D01*
X140457000Y-103505000D01*
X140437000Y-103505000D01*
X140437000Y-103251000D01*
X140457000Y-103251000D01*
X140457000Y-102526750D01*
X140711000Y-102526750D01*
X140711000Y-103251000D01*
X141660250Y-103251000D01*
X141819000Y-103092250D01*
X141819000Y-102876690D01*
X141722327Y-102643301D01*
X141543698Y-102464673D01*
X141310309Y-102368000D01*
X140869750Y-102368000D01*
X140711000Y-102526750D01*
X140457000Y-102526750D01*
X140298250Y-102368000D01*
X139857691Y-102368000D01*
X139624302Y-102464673D01*
X139445673Y-102643301D01*
X139422905Y-102698269D01*
X139414983Y-102692856D01*
X139284000Y-102666331D01*
X138393909Y-102666331D01*
X138287200Y-102559622D01*
X138287200Y-102457792D01*
X138252398Y-102282829D01*
X138153289Y-102134503D01*
X138074539Y-102055753D01*
X138084000Y-102057669D01*
X139284000Y-102057669D01*
X139406365Y-102034644D01*
X139422339Y-102024365D01*
X139445673Y-102080699D01*
X139624302Y-102259327D01*
X139857691Y-102356000D01*
X140298250Y-102356000D01*
X140457000Y-102197250D01*
X140457000Y-101473000D01*
X140711000Y-101473000D01*
X140711000Y-102197250D01*
X140869750Y-102356000D01*
X141310309Y-102356000D01*
X141543698Y-102259327D01*
X141722327Y-102080699D01*
X141764139Y-101979755D01*
X144144890Y-101979755D01*
X144241360Y-102213228D01*
X144419832Y-102392013D01*
X144653137Y-102488889D01*
X144905755Y-102489110D01*
X145028965Y-102438200D01*
X145491331Y-102438200D01*
X145491331Y-102479000D01*
X145514356Y-102601365D01*
X145586673Y-102713749D01*
X145697017Y-102789144D01*
X145828000Y-102815669D01*
X147328000Y-102815669D01*
X147450365Y-102792644D01*
X147562749Y-102720327D01*
X147638144Y-102609983D01*
X147664669Y-102479000D01*
X147664669Y-101229000D01*
X147991331Y-101229000D01*
X147991331Y-102479000D01*
X148014356Y-102601365D01*
X148086673Y-102713749D01*
X148197017Y-102789144D01*
X148328000Y-102815669D01*
X148893800Y-102815669D01*
X148893800Y-103233972D01*
X148793251Y-103298673D01*
X148717856Y-103409017D01*
X148691331Y-103540000D01*
X148691331Y-104740000D01*
X148714356Y-104862365D01*
X148786673Y-104974749D01*
X148897017Y-105050144D01*
X149028000Y-105076669D01*
X149588486Y-105076669D01*
X149598817Y-105087000D01*
X149297750Y-105087000D01*
X149139000Y-105245750D01*
X149139000Y-106045000D01*
X150088250Y-106045000D01*
X150247000Y-105886250D01*
X150247000Y-105595690D01*
X150206160Y-105497093D01*
X150262000Y-105508200D01*
X152687616Y-105508200D01*
X152426908Y-105768908D01*
X152300270Y-105958436D01*
X152255800Y-106182000D01*
X152255800Y-107290016D01*
X151418016Y-108127800D01*
X148844000Y-108127800D01*
X148730730Y-108150331D01*
X148494000Y-108150331D01*
X148371635Y-108173356D01*
X148259251Y-108245673D01*
X148183856Y-108356017D01*
X148157331Y-108487000D01*
X148157331Y-108937000D01*
X148180356Y-109059365D01*
X148252673Y-109171749D01*
X148363017Y-109247144D01*
X148494000Y-109273669D01*
X148730730Y-109273669D01*
X148844000Y-109296200D01*
X151660000Y-109296200D01*
X151883564Y-109251730D01*
X152073092Y-109125092D01*
X153253092Y-107945092D01*
X153283756Y-107899200D01*
X153379730Y-107755564D01*
X153424200Y-107532000D01*
X153424200Y-106423984D01*
X153837515Y-106010669D01*
X157548000Y-106010669D01*
X157670365Y-105987644D01*
X157782749Y-105915327D01*
X157858144Y-105804983D01*
X157860976Y-105791000D01*
X157988000Y-105791000D01*
X158034159Y-105782315D01*
X158076553Y-105755035D01*
X158104994Y-105713410D01*
X158115000Y-105664000D01*
X158115000Y-100584000D01*
X158106315Y-100537841D01*
X158079035Y-100495447D01*
X158037410Y-100467006D01*
X157988000Y-100457000D01*
X157862654Y-100457000D01*
X157861644Y-100451635D01*
X157789327Y-100339251D01*
X157678983Y-100263856D01*
X157548000Y-100237331D01*
X155187515Y-100237331D01*
X154828200Y-99878016D01*
X154828200Y-99009669D01*
X154844000Y-99009669D01*
X154966365Y-98986644D01*
X154982339Y-98976365D01*
X155005673Y-99032699D01*
X155184302Y-99211327D01*
X155417691Y-99308000D01*
X155858250Y-99308000D01*
X156017000Y-99149250D01*
X156017000Y-98425000D01*
X156271000Y-98425000D01*
X156271000Y-99149250D01*
X156429750Y-99308000D01*
X156870309Y-99308000D01*
X157103698Y-99211327D01*
X157282327Y-99032699D01*
X157379000Y-98799310D01*
X157379000Y-98583750D01*
X157220250Y-98425000D01*
X156271000Y-98425000D01*
X156017000Y-98425000D01*
X155997000Y-98425000D01*
X155997000Y-98171000D01*
X156017000Y-98171000D01*
X156017000Y-97446750D01*
X156271000Y-97446750D01*
X156271000Y-98171000D01*
X157220250Y-98171000D01*
X157379000Y-98012250D01*
X157379000Y-97796690D01*
X157282327Y-97563301D01*
X157103698Y-97384673D01*
X156870309Y-97288000D01*
X156429750Y-97288000D01*
X156271000Y-97446750D01*
X156017000Y-97446750D01*
X155858250Y-97288000D01*
X155417691Y-97288000D01*
X155184302Y-97384673D01*
X155005673Y-97563301D01*
X154982905Y-97618269D01*
X154974983Y-97612856D01*
X154844000Y-97586331D01*
X154358515Y-97586331D01*
X154254200Y-97482016D01*
X154254200Y-96260937D01*
X154304889Y-96138863D01*
X154305110Y-95886245D01*
X154208640Y-95652772D01*
X154030168Y-95473987D01*
X153796863Y-95377111D01*
X153544245Y-95376890D01*
X153310772Y-95473360D01*
X153131987Y-95651832D01*
X153035111Y-95885137D01*
X153034890Y-96137755D01*
X153085800Y-96260965D01*
X153085800Y-97724000D01*
X153130270Y-97947564D01*
X153242401Y-98115380D01*
X153256908Y-98137092D01*
X153307331Y-98187515D01*
X153307331Y-98673000D01*
X153330356Y-98795365D01*
X153402673Y-98907749D01*
X153513017Y-98983144D01*
X153644000Y-99009669D01*
X153659800Y-99009669D01*
X153659800Y-100120000D01*
X153683139Y-100237331D01*
X153348000Y-100237331D01*
X153225635Y-100260356D01*
X153113251Y-100332673D01*
X153037856Y-100443017D01*
X153035024Y-100457000D01*
X152908000Y-100457000D01*
X152861841Y-100465685D01*
X152819447Y-100492965D01*
X152791006Y-100534590D01*
X152781000Y-100584000D01*
X152781000Y-104339800D01*
X150503983Y-104339800D01*
X150264669Y-104100485D01*
X150264669Y-103540000D01*
X150241644Y-103417635D01*
X150169327Y-103305251D01*
X150062200Y-103232054D01*
X150062200Y-102720680D01*
X150062749Y-102720327D01*
X150138144Y-102609983D01*
X150164669Y-102479000D01*
X150164669Y-101229000D01*
X150141644Y-101106635D01*
X150069327Y-100994251D01*
X149958983Y-100918856D01*
X149828000Y-100892331D01*
X148328000Y-100892331D01*
X148205635Y-100915356D01*
X148093251Y-100987673D01*
X148017856Y-101098017D01*
X147991331Y-101229000D01*
X147664669Y-101229000D01*
X147641644Y-101106635D01*
X147569327Y-100994251D01*
X147458983Y-100918856D01*
X147328000Y-100892331D01*
X147055694Y-100892331D01*
X147166327Y-100781699D01*
X147263000Y-100548310D01*
X147263000Y-100107750D01*
X147104250Y-99949000D01*
X146305000Y-99949000D01*
X146305000Y-99969000D01*
X146051000Y-99969000D01*
X146051000Y-99949000D01*
X145251750Y-99949000D01*
X145093000Y-100107750D01*
X145093000Y-100548310D01*
X145189673Y-100781699D01*
X145368302Y-100960327D01*
X145558193Y-101038982D01*
X145517856Y-101098017D01*
X145491331Y-101229000D01*
X145491331Y-101269800D01*
X145028937Y-101269800D01*
X144906863Y-101219111D01*
X144654245Y-101218890D01*
X144420772Y-101315360D01*
X144241987Y-101493832D01*
X144145111Y-101727137D01*
X144144890Y-101979755D01*
X141764139Y-101979755D01*
X141819000Y-101847310D01*
X141819000Y-101631750D01*
X141660250Y-101473000D01*
X140711000Y-101473000D01*
X140457000Y-101473000D01*
X140437000Y-101473000D01*
X140437000Y-101219000D01*
X140457000Y-101219000D01*
X140457000Y-101199000D01*
X140711000Y-101199000D01*
X140711000Y-101219000D01*
X141660250Y-101219000D01*
X141819000Y-101060250D01*
X141819000Y-100844690D01*
X141722327Y-100611301D01*
X141685026Y-100574000D01*
X141846309Y-100574000D01*
X142079698Y-100477327D01*
X142258327Y-100298699D01*
X142355000Y-100065310D01*
X142355000Y-99599750D01*
X142196250Y-99441000D01*
X141097000Y-99441000D01*
X141097000Y-99461000D01*
X140843000Y-99461000D01*
X140843000Y-99441000D01*
X139743750Y-99441000D01*
X139585000Y-99599750D01*
X139585000Y-100065310D01*
X139681673Y-100298699D01*
X139759604Y-100376629D01*
X139624302Y-100432673D01*
X139445673Y-100611301D01*
X139422905Y-100666269D01*
X139414983Y-100660856D01*
X139284000Y-100634331D01*
X138084000Y-100634331D01*
X137961635Y-100657356D01*
X137849251Y-100729673D01*
X137773856Y-100840017D01*
X137763977Y-100888800D01*
X137554178Y-100888800D01*
X135872578Y-99207200D01*
X136712622Y-99207200D01*
X137142710Y-99637289D01*
X137246902Y-99706908D01*
X137291037Y-99736398D01*
X137383331Y-99754756D01*
X137383331Y-99939000D01*
X137406356Y-100061365D01*
X137478673Y-100173749D01*
X137589017Y-100249144D01*
X137720000Y-100275669D01*
X139220000Y-100275669D01*
X139342365Y-100252644D01*
X139454749Y-100180327D01*
X139530144Y-100069983D01*
X139556669Y-99939000D01*
X139556669Y-99178515D01*
X139645967Y-99089217D01*
X139743750Y-99187000D01*
X140843000Y-99187000D01*
X140843000Y-99167000D01*
X141097000Y-99167000D01*
X141097000Y-99187000D01*
X142196250Y-99187000D01*
X142287560Y-99095690D01*
X145093000Y-99095690D01*
X145093000Y-99536250D01*
X145251750Y-99695000D01*
X146051000Y-99695000D01*
X146051000Y-98745750D01*
X146305000Y-98745750D01*
X146305000Y-99695000D01*
X147104250Y-99695000D01*
X147263000Y-99536250D01*
X147263000Y-99222000D01*
X148691331Y-99222000D01*
X148691331Y-100422000D01*
X148714356Y-100544365D01*
X148786673Y-100656749D01*
X148897017Y-100732144D01*
X149028000Y-100758669D01*
X149928000Y-100758669D01*
X150050365Y-100735644D01*
X150162749Y-100663327D01*
X150238144Y-100552983D01*
X150264669Y-100422000D01*
X150264669Y-100406200D01*
X150627063Y-100406200D01*
X150749137Y-100456889D01*
X151001755Y-100457110D01*
X151235228Y-100360640D01*
X151414013Y-100182168D01*
X151510889Y-99948863D01*
X151511110Y-99696245D01*
X151414640Y-99462772D01*
X151236168Y-99283987D01*
X151002863Y-99187111D01*
X150750245Y-99186890D01*
X150627035Y-99237800D01*
X150264669Y-99237800D01*
X150264669Y-99222000D01*
X150241644Y-99099635D01*
X150169327Y-98987251D01*
X150062200Y-98914054D01*
X150062200Y-98188672D01*
X150163749Y-98123327D01*
X150239144Y-98012983D01*
X150265669Y-97882000D01*
X150265669Y-96682000D01*
X150242644Y-96559635D01*
X150170327Y-96447251D01*
X150059983Y-96371856D01*
X149929000Y-96345331D01*
X149029000Y-96345331D01*
X148906635Y-96368356D01*
X148794251Y-96440673D01*
X148718856Y-96551017D01*
X148692331Y-96682000D01*
X148692331Y-97882000D01*
X148715356Y-98004365D01*
X148787673Y-98116749D01*
X148893800Y-98189263D01*
X148893800Y-98915972D01*
X148793251Y-98980673D01*
X148717856Y-99091017D01*
X148691331Y-99222000D01*
X147263000Y-99222000D01*
X147263000Y-99095690D01*
X147166327Y-98862301D01*
X146987698Y-98683673D01*
X146754309Y-98587000D01*
X146463750Y-98587000D01*
X146305000Y-98745750D01*
X146051000Y-98745750D01*
X145892250Y-98587000D01*
X145601691Y-98587000D01*
X145368302Y-98683673D01*
X145189673Y-98862301D01*
X145093000Y-99095690D01*
X142287560Y-99095690D01*
X142355000Y-99028250D01*
X142355000Y-98815999D01*
X144271201Y-98815999D01*
X144494765Y-98771529D01*
X144684293Y-98644891D01*
X145401018Y-97928166D01*
X145415356Y-98004365D01*
X145487673Y-98116749D01*
X145598017Y-98192144D01*
X145729000Y-98218669D01*
X146629000Y-98218669D01*
X146751365Y-98195644D01*
X146863749Y-98123327D01*
X146939144Y-98012983D01*
X146965669Y-97882000D01*
X146965669Y-96682000D01*
X146942644Y-96559635D01*
X146870327Y-96447251D01*
X146759983Y-96371856D01*
X146629000Y-96345331D01*
X145729000Y-96345331D01*
X145606635Y-96368356D01*
X145494251Y-96440673D01*
X145418856Y-96551017D01*
X145392331Y-96682000D01*
X145392331Y-96697800D01*
X145221005Y-96697800D01*
X145221000Y-96697799D01*
X144997437Y-96742269D01*
X144807908Y-96868908D01*
X144029217Y-97647599D01*
X141885000Y-97647599D01*
X141885000Y-97567750D01*
X141726250Y-97409000D01*
X140777000Y-97409000D01*
X140777000Y-97429000D01*
X140523000Y-97429000D01*
X140523000Y-97409000D01*
X140503000Y-97409000D01*
X140503000Y-97155000D01*
X140523000Y-97155000D01*
X140523000Y-97135000D01*
X140777000Y-97135000D01*
X140777000Y-97155000D01*
X141726250Y-97155000D01*
X141885000Y-96996250D01*
X141885000Y-96780690D01*
X141788327Y-96547301D01*
X141609698Y-96368673D01*
X141376309Y-96272000D01*
X141295606Y-96272000D01*
X141350889Y-96138863D01*
X141351110Y-95886245D01*
X141254640Y-95652772D01*
X141076168Y-95473987D01*
X140842863Y-95377111D01*
X140590245Y-95376890D01*
X140467035Y-95427800D01*
X137832792Y-95427800D01*
X138101148Y-95316643D01*
X138187554Y-95060159D01*
X137287000Y-94159605D01*
X136386446Y-95060159D01*
X136472852Y-95316643D01*
X136776676Y-95427800D01*
X136057640Y-95427800D01*
X135834076Y-95472270D01*
X135752978Y-95526458D01*
X135644548Y-95598908D01*
X135104292Y-96139164D01*
X134982132Y-96189640D01*
X134803347Y-96368112D01*
X134706471Y-96601417D01*
X134706250Y-96854035D01*
X134802720Y-97087508D01*
X134981192Y-97266293D01*
X135214497Y-97363169D01*
X135467115Y-97363390D01*
X135700588Y-97266920D01*
X135879373Y-97088448D01*
X135930497Y-96965327D01*
X136299624Y-96596200D01*
X138023215Y-96596200D01*
X137915251Y-96665673D01*
X137839856Y-96776017D01*
X137813331Y-96907000D01*
X137813331Y-97572091D01*
X137592622Y-97792800D01*
X129061953Y-97792800D01*
X128992380Y-97778711D01*
X127991620Y-97778711D01*
X127869255Y-97801736D01*
X127756871Y-97874053D01*
X127681476Y-97984397D01*
X127654951Y-98115380D01*
X127654951Y-98384620D01*
X127677459Y-98504235D01*
X127654951Y-98615380D01*
X127654951Y-98884620D01*
X127677459Y-99004235D01*
X127654951Y-99115380D01*
X127654951Y-99384620D01*
X127677459Y-99504235D01*
X127654951Y-99615380D01*
X127654951Y-99884620D01*
X127677459Y-100004235D01*
X127654951Y-100115380D01*
X127654951Y-100384620D01*
X127677459Y-100504235D01*
X127654951Y-100615380D01*
X127654951Y-100884620D01*
X127677459Y-101004235D01*
X127665532Y-101063131D01*
X127631921Y-101077053D01*
X127453293Y-101255682D01*
X127356620Y-101489071D01*
X123592000Y-101489071D01*
X123592000Y-95289595D01*
X123749060Y-94500000D01*
X124655331Y-94500000D01*
X124655331Y-96000000D01*
X124678356Y-96122365D01*
X124750673Y-96234749D01*
X124861017Y-96310144D01*
X124992000Y-96336669D01*
X127992000Y-96336669D01*
X128114365Y-96313644D01*
X128226749Y-96241327D01*
X128302144Y-96130983D01*
X128328669Y-96000000D01*
X128328669Y-94500000D01*
X128305644Y-94377635D01*
X128233327Y-94265251D01*
X128122983Y-94189856D01*
X127992000Y-94163331D01*
X124992000Y-94163331D01*
X124869635Y-94186356D01*
X124757251Y-94258673D01*
X124681856Y-94369017D01*
X124655331Y-94500000D01*
X123749060Y-94500000D01*
X123762022Y-94434836D01*
X124223775Y-93743775D01*
X124914838Y-93282022D01*
X125769595Y-93112000D01*
X128795230Y-93112000D01*
X128624695Y-93282238D01*
X128624695Y-93282238D01*
G37*
X128624695Y-93282238D02*
X128437014Y-93734225D01*
X128436587Y-94223628D01*
X128623479Y-94675942D01*
X128969238Y-95022305D01*
X129421225Y-95209986D01*
X129910628Y-95210413D01*
X130362942Y-95023521D01*
X130709305Y-94677762D01*
X130896986Y-94225775D01*
X130897413Y-93736372D01*
X130710521Y-93284058D01*
X130538763Y-93112000D01*
X131335230Y-93112000D01*
X131164695Y-93282238D01*
X130977014Y-93734225D01*
X130976587Y-94223628D01*
X131163479Y-94675942D01*
X131509238Y-95022305D01*
X131961225Y-95209986D01*
X132450628Y-95210413D01*
X132902942Y-95023521D01*
X133249305Y-94677762D01*
X133436986Y-94225775D01*
X133437413Y-93736372D01*
X133250521Y-93284058D01*
X133078763Y-93112000D01*
X133875230Y-93112000D01*
X133704695Y-93282238D01*
X133517014Y-93734225D01*
X133516587Y-94223628D01*
X133703479Y-94675942D01*
X134049238Y-95022305D01*
X134501225Y-95209986D01*
X134990628Y-95210413D01*
X135442942Y-95023521D01*
X135789305Y-94677762D01*
X135845796Y-94541716D01*
X135950357Y-94794148D01*
X136206841Y-94880554D01*
X137107395Y-93980000D01*
X137093253Y-93965858D01*
X137272858Y-93786253D01*
X137287000Y-93800395D01*
X137301143Y-93786253D01*
X137480748Y-93965858D01*
X137466605Y-93980000D01*
X138367159Y-94880554D01*
X138623643Y-94794148D01*
X138721643Y-94526287D01*
X138783479Y-94675942D01*
X139129238Y-95022305D01*
X139581225Y-95209986D01*
X140070628Y-95210413D01*
X140522942Y-95023521D01*
X140869305Y-94677762D01*
X141056986Y-94225775D01*
X141057413Y-93736372D01*
X140870521Y-93284058D01*
X140698763Y-93112000D01*
X141495230Y-93112000D01*
X141324695Y-93282238D01*
X141137014Y-93734225D01*
X141136587Y-94223628D01*
X141323479Y-94675942D01*
X141669238Y-95022305D01*
X142121225Y-95209986D01*
X142610628Y-95210413D01*
X143062942Y-95023521D01*
X143409305Y-94677762D01*
X143596986Y-94225775D01*
X143597413Y-93736372D01*
X143410521Y-93284058D01*
X143238763Y-93112000D01*
X144035230Y-93112000D01*
X143864695Y-93282238D01*
X143677014Y-93734225D01*
X143676587Y-94223628D01*
X143863479Y-94675942D01*
X144209238Y-95022305D01*
X144661225Y-95209986D01*
X145150628Y-95210413D01*
X145602942Y-95023521D01*
X145949305Y-94677762D01*
X146136986Y-94225775D01*
X146137413Y-93736372D01*
X145950521Y-93284058D01*
X145778763Y-93112000D01*
X146575230Y-93112000D01*
X146404695Y-93282238D01*
X146217014Y-93734225D01*
X146216587Y-94223628D01*
X146403479Y-94675942D01*
X146749238Y-95022305D01*
X147201225Y-95209986D01*
X147690628Y-95210413D01*
X148142942Y-95023521D01*
X148489305Y-94677762D01*
X148676986Y-94225775D01*
X148677413Y-93736372D01*
X148490521Y-93284058D01*
X148318763Y-93112000D01*
X149115230Y-93112000D01*
X148944695Y-93282238D01*
X148757014Y-93734225D01*
X148756587Y-94223628D01*
X148943479Y-94675942D01*
X149289238Y-95022305D01*
X149741225Y-95209986D01*
X150230628Y-95210413D01*
X150682942Y-95023521D01*
X151029305Y-94677762D01*
X151216986Y-94225775D01*
X151217413Y-93736372D01*
X151030521Y-93284058D01*
X150858763Y-93112000D01*
X151655230Y-93112000D01*
X151484695Y-93282238D01*
X151297014Y-93734225D01*
X151296587Y-94223628D01*
X151483479Y-94675942D01*
X151829238Y-95022305D01*
X152281225Y-95209986D01*
X152770628Y-95210413D01*
X153222942Y-95023521D01*
X153569305Y-94677762D01*
X153756986Y-94225775D01*
X153757413Y-93736372D01*
X153570521Y-93284058D01*
X153398763Y-93112000D01*
X154195230Y-93112000D01*
X154024695Y-93282238D01*
X153837014Y-93734225D01*
X153836587Y-94223628D01*
X154023479Y-94675942D01*
X154369238Y-95022305D01*
X154821225Y-95209986D01*
X155310628Y-95210413D01*
X155461497Y-95148075D01*
X161429077Y-101115655D01*
X161330014Y-101354225D01*
X161329587Y-101843628D01*
X161516479Y-102295942D01*
X161862238Y-102642305D01*
X162314225Y-102829986D01*
X162803628Y-102830413D01*
X163255942Y-102643521D01*
X163412599Y-102487137D01*
X163412599Y-103252802D01*
X163257762Y-103097695D01*
X162805775Y-102910014D01*
X162316372Y-102909587D01*
X161864058Y-103096479D01*
X161517695Y-103442238D01*
X161330014Y-103894225D01*
X161329587Y-104383628D01*
X161429057Y-104624365D01*
X161336712Y-104716710D01*
X161237603Y-104865036D01*
X161202801Y-105039999D01*
X161202801Y-105538729D01*
X157151174Y-109590356D01*
X157052065Y-109738682D01*
X157017263Y-109913645D01*
X157017263Y-113212596D01*
X156911058Y-113256479D01*
X156564695Y-113602238D01*
X156377014Y-114054225D01*
X156376587Y-114543628D01*
X156563479Y-114995942D01*
X156735237Y-115168000D01*
X155938770Y-115168000D01*
X156109305Y-114997762D01*
X156296986Y-114545775D01*
X156297413Y-114056372D01*
X156110521Y-113604058D01*
X155833516Y-113326570D01*
X156159285Y-113000801D01*
X156273472Y-113000901D01*
X156506945Y-112904431D01*
X156685730Y-112725959D01*
X156782606Y-112492654D01*
X156782827Y-112240036D01*
X156686357Y-112006563D01*
X156507885Y-111827778D01*
X156274580Y-111730902D01*
X156021962Y-111730681D01*
X155788489Y-111827151D01*
X155609704Y-112005623D01*
X155512828Y-112238928D01*
X155512727Y-112354203D01*
X154779015Y-113087915D01*
X154371058Y-113256479D01*
X154024695Y-113602238D01*
X153837014Y-114054225D01*
X153836587Y-114543628D01*
X154023479Y-114995942D01*
X154195237Y-115168000D01*
X153398770Y-115168000D01*
X153569305Y-114997762D01*
X153756986Y-114545775D01*
X153757413Y-114056372D01*
X153570521Y-113604058D01*
X153224762Y-113257695D01*
X152772775Y-113070014D01*
X152283372Y-113069587D01*
X151831058Y-113256479D01*
X151484695Y-113602238D01*
X151297014Y-114054225D01*
X151296587Y-114543628D01*
X151483479Y-114995942D01*
X151655237Y-115168000D01*
X150858770Y-115168000D01*
X151029305Y-114997762D01*
X151216986Y-114545775D01*
X151217413Y-114056372D01*
X151030521Y-113604058D01*
X150684762Y-113257695D01*
X150232775Y-113070014D01*
X149743372Y-113069587D01*
X149291058Y-113256479D01*
X148944695Y-113602238D01*
X148757014Y-114054225D01*
X148756587Y-114543628D01*
X148943479Y-114995942D01*
X149115237Y-115168000D01*
X148318770Y-115168000D01*
X148489305Y-114997762D01*
X148676986Y-114545775D01*
X148677413Y-114056372D01*
X148490521Y-113604058D01*
X148144762Y-113257695D01*
X147692775Y-113070014D01*
X147203372Y-113069587D01*
X146751058Y-113256479D01*
X146404695Y-113602238D01*
X146217014Y-114054225D01*
X146216587Y-114543628D01*
X146403479Y-114995942D01*
X146575237Y-115168000D01*
X145778770Y-115168000D01*
X145949305Y-114997762D01*
X146136986Y-114545775D01*
X146137413Y-114056372D01*
X145950521Y-113604058D01*
X145604762Y-113257695D01*
X145152775Y-113070014D01*
X144663372Y-113069587D01*
X144211058Y-113256479D01*
X143864695Y-113602238D01*
X143677014Y-114054225D01*
X143676587Y-114543628D01*
X143863479Y-114995942D01*
X144035237Y-115168000D01*
X143238770Y-115168000D01*
X143409305Y-114997762D01*
X143596986Y-114545775D01*
X143597413Y-114056372D01*
X143410521Y-113604058D01*
X143064762Y-113257695D01*
X142612775Y-113070014D01*
X142123372Y-113069587D01*
X141671058Y-113256479D01*
X141324695Y-113602238D01*
X141137014Y-114054225D01*
X141136587Y-114543628D01*
X141323479Y-114995942D01*
X141495237Y-115168000D01*
X140698770Y-115168000D01*
X140869305Y-114997762D01*
X141056986Y-114545775D01*
X141057413Y-114056372D01*
X140870521Y-113604058D01*
X140524762Y-113257695D01*
X140072775Y-113070014D01*
X139583372Y-113069587D01*
X139131058Y-113256479D01*
X138784695Y-113602238D01*
X138597014Y-114054225D01*
X138596587Y-114543628D01*
X138783479Y-114995942D01*
X138955237Y-115168000D01*
X125769595Y-115168000D01*
X124914838Y-114997978D01*
X124223775Y-114536225D01*
X123762022Y-113845164D01*
X123592000Y-112990405D01*
X123592000Y-112000000D01*
X124655331Y-112000000D01*
X124655331Y-113500000D01*
X124678356Y-113622365D01*
X124750673Y-113734749D01*
X124861017Y-113810144D01*
X124992000Y-113836669D01*
X127992000Y-113836669D01*
X128114365Y-113813644D01*
X128226749Y-113741327D01*
X128302144Y-113630983D01*
X128328669Y-113500000D01*
X128328669Y-112000000D01*
X128305644Y-111877635D01*
X128233327Y-111765251D01*
X128122983Y-111689856D01*
X127992000Y-111663331D01*
X124992000Y-111663331D01*
X124869635Y-111686356D01*
X124757251Y-111758673D01*
X124681856Y-111869017D01*
X124655331Y-112000000D01*
X123592000Y-112000000D01*
X123592000Y-106476060D01*
X127356620Y-106476060D01*
X127356620Y-106510929D01*
X127453293Y-106744318D01*
X127631921Y-106922947D01*
X127664719Y-106936532D01*
X127677459Y-107004235D01*
X127654951Y-107115380D01*
X127654951Y-107384620D01*
X127677459Y-107504235D01*
X127654951Y-107615380D01*
X127654951Y-107884620D01*
X127677459Y-108004235D01*
X127654951Y-108115380D01*
X127654951Y-108384620D01*
X127677459Y-108504235D01*
X127654951Y-108615380D01*
X127654951Y-108884620D01*
X127677459Y-109004235D01*
X127654951Y-109115380D01*
X127654951Y-109384620D01*
X127677459Y-109504235D01*
X127654951Y-109615380D01*
X127654951Y-109884620D01*
X127677976Y-110006985D01*
X127750293Y-110119369D01*
X127860637Y-110194764D01*
X127991620Y-110221289D01*
X128992380Y-110221289D01*
X129114745Y-110198264D01*
X129227129Y-110125947D01*
X129302524Y-110015603D01*
X129329049Y-109884620D01*
X129329049Y-109707200D01*
X134744980Y-109707200D01*
X137572270Y-112534490D01*
X137720596Y-112633599D01*
X137895559Y-112668401D01*
X144914799Y-112668401D01*
X145089762Y-112633599D01*
X145238088Y-112534490D01*
X145866766Y-111905812D01*
X145886673Y-111936749D01*
X145997017Y-112012144D01*
X146128000Y-112038669D01*
X147328000Y-112038669D01*
X147450365Y-112015644D01*
X147562749Y-111943327D01*
X147638144Y-111832983D01*
X147664669Y-111702000D01*
X147664669Y-111537750D01*
X147693000Y-111537750D01*
X147693000Y-111828310D01*
X147789673Y-112061699D01*
X147968302Y-112240327D01*
X148201691Y-112337000D01*
X148642250Y-112337000D01*
X148801000Y-112178250D01*
X148801000Y-111379000D01*
X149055000Y-111379000D01*
X149055000Y-112178250D01*
X149213750Y-112337000D01*
X149654309Y-112337000D01*
X149887698Y-112240327D01*
X150066327Y-112061699D01*
X150163000Y-111828310D01*
X150163000Y-111537750D01*
X150004250Y-111379000D01*
X149055000Y-111379000D01*
X148801000Y-111379000D01*
X147851750Y-111379000D01*
X147693000Y-111537750D01*
X147664669Y-111537750D01*
X147664669Y-110802000D01*
X147641644Y-110679635D01*
X147639106Y-110675690D01*
X147693000Y-110675690D01*
X147693000Y-110966250D01*
X147851750Y-111125000D01*
X148801000Y-111125000D01*
X148801000Y-110325750D01*
X149055000Y-110325750D01*
X149055000Y-111125000D01*
X150004250Y-111125000D01*
X150163000Y-110966250D01*
X150163000Y-110675690D01*
X150066327Y-110442301D01*
X149887698Y-110263673D01*
X149654309Y-110167000D01*
X149213750Y-110167000D01*
X149055000Y-110325750D01*
X148801000Y-110325750D01*
X148642250Y-110167000D01*
X148201691Y-110167000D01*
X147968302Y-110263673D01*
X147789673Y-110442301D01*
X147693000Y-110675690D01*
X147639106Y-110675690D01*
X147569327Y-110567251D01*
X147458983Y-110491856D01*
X147435481Y-110487097D01*
X147847490Y-110075088D01*
X147946599Y-109926762D01*
X147981401Y-109751799D01*
X147981401Y-108617201D01*
X147946599Y-108442238D01*
X147847490Y-108293912D01*
X147530669Y-107977091D01*
X147530669Y-107837000D01*
X147507644Y-107714635D01*
X147435327Y-107602251D01*
X147324983Y-107526856D01*
X147194000Y-107500331D01*
X146494000Y-107500331D01*
X146371635Y-107523356D01*
X146259251Y-107595673D01*
X146183856Y-107706017D01*
X146157331Y-107837000D01*
X146157331Y-108287000D01*
X146180356Y-108409365D01*
X146252673Y-108521749D01*
X146363017Y-108597144D01*
X146494000Y-108623669D01*
X146884091Y-108623669D01*
X147060753Y-108800331D01*
X146494000Y-108800331D01*
X146371635Y-108823356D01*
X146259251Y-108895673D01*
X146183856Y-109006017D01*
X146157331Y-109137000D01*
X146157331Y-109277091D01*
X145916711Y-109517711D01*
X145817602Y-109666037D01*
X145798785Y-109760637D01*
X145526622Y-110032800D01*
X141861187Y-110032800D01*
X141885000Y-109975310D01*
X141885000Y-109759750D01*
X141726250Y-109601000D01*
X140777000Y-109601000D01*
X140777000Y-109621000D01*
X140523000Y-109621000D01*
X140523000Y-109601000D01*
X140503000Y-109601000D01*
X140503000Y-109347000D01*
X140523000Y-109347000D01*
X140523000Y-108622750D01*
X140777000Y-108622750D01*
X140777000Y-109347000D01*
X141726250Y-109347000D01*
X141885000Y-109188250D01*
X141885000Y-108972690D01*
X141788327Y-108739301D01*
X141609698Y-108560673D01*
X141376309Y-108464000D01*
X140935750Y-108464000D01*
X140777000Y-108622750D01*
X140523000Y-108622750D01*
X140364250Y-108464000D01*
X139923691Y-108464000D01*
X139690302Y-108560673D01*
X139511673Y-108739301D01*
X139488905Y-108794269D01*
X139480983Y-108788856D01*
X139350000Y-108762331D01*
X138150000Y-108762331D01*
X138027635Y-108785356D01*
X137921944Y-108853366D01*
X136590771Y-107522193D01*
X136442445Y-107423084D01*
X136267482Y-107388282D01*
X131305782Y-107388282D01*
X131214969Y-107327602D01*
X131040006Y-107292800D01*
X129329049Y-107292800D01*
X129329049Y-107115380D01*
X129306541Y-106995765D01*
X129318468Y-106936869D01*
X129352079Y-106922947D01*
X129530707Y-106744318D01*
X129627380Y-106510929D01*
X129627380Y-106476060D01*
X129468630Y-106317310D01*
X129141034Y-106317310D01*
X129123363Y-106305236D01*
X128992380Y-106278711D01*
X127991620Y-106278711D01*
X127869255Y-106301736D01*
X127845052Y-106317310D01*
X127515370Y-106317310D01*
X127356620Y-106476060D01*
X123592000Y-106476060D01*
X123592000Y-101489071D01*
X127356620Y-101489071D01*
X127356620Y-101523940D01*
X127515370Y-101682690D01*
X127842966Y-101682690D01*
X127860637Y-101694764D01*
X127991620Y-101721289D01*
X128992380Y-101721289D01*
X129067255Y-101707200D01*
X132176000Y-101707200D01*
X132350963Y-101672398D01*
X132499289Y-101573289D01*
X132781804Y-101290774D01*
X134279144Y-101290774D01*
X134045908Y-101387146D01*
X133867123Y-101565618D01*
X133772789Y-101792800D01*
X129061953Y-101792800D01*
X128992380Y-101778711D01*
X127991620Y-101778711D01*
X127869255Y-101801736D01*
X127845052Y-101817310D01*
X127515370Y-101817310D01*
X127356620Y-101976060D01*
X127356620Y-102010929D01*
X127453293Y-102244318D01*
X127631921Y-102422947D01*
X127664719Y-102436532D01*
X127677459Y-102504235D01*
X127654951Y-102615380D01*
X127654951Y-102884620D01*
X127677459Y-103004235D01*
X127654951Y-103115380D01*
X127654951Y-103384620D01*
X127677459Y-103504235D01*
X127654951Y-103615380D01*
X127654951Y-103884620D01*
X127677459Y-104004235D01*
X127654951Y-104115380D01*
X127654951Y-104384620D01*
X127677459Y-104504235D01*
X127654951Y-104615380D01*
X127654951Y-104884620D01*
X127677459Y-105004235D01*
X127654951Y-105115380D01*
X127654951Y-105384620D01*
X127677459Y-105504235D01*
X127665532Y-105563131D01*
X127631921Y-105577053D01*
X127453293Y-105755682D01*
X127356620Y-105989071D01*
X127356620Y-106023940D01*
X127515370Y-106182690D01*
X127842966Y-106182690D01*
X127860637Y-106194764D01*
X127991620Y-106221289D01*
X128992380Y-106221289D01*
X129067255Y-106207200D01*
X133391396Y-106207200D01*
X134133234Y-106949038D01*
X134281560Y-107048147D01*
X134456523Y-107082949D01*
X135690271Y-107082949D01*
X135770943Y-107163762D01*
X136004248Y-107260638D01*
X136256866Y-107260859D01*
X136490339Y-107164389D01*
X136669124Y-106985917D01*
X136763056Y-106759702D01*
X136780934Y-106767126D01*
X137033552Y-106767347D01*
X137267025Y-106670877D01*
X137433056Y-106505136D01*
X137438800Y-106510880D01*
X137438800Y-106813000D01*
X137473602Y-106987963D01*
X137572711Y-107136289D01*
X137813331Y-107376909D01*
X137813331Y-107817000D01*
X137836356Y-107939365D01*
X137908673Y-108051749D01*
X138019017Y-108127144D01*
X138150000Y-108153669D01*
X139350000Y-108153669D01*
X139472365Y-108130644D01*
X139488339Y-108120365D01*
X139511673Y-108176699D01*
X139690302Y-108355327D01*
X139923691Y-108452000D01*
X140364250Y-108452000D01*
X140523000Y-108293250D01*
X140523000Y-107569000D01*
X140777000Y-107569000D01*
X140777000Y-108293250D01*
X140935750Y-108452000D01*
X141376309Y-108452000D01*
X141609698Y-108355327D01*
X141788327Y-108176699D01*
X141885000Y-107943310D01*
X141885000Y-107727750D01*
X141726250Y-107569000D01*
X140777000Y-107569000D01*
X140523000Y-107569000D01*
X140503000Y-107569000D01*
X140503000Y-107315000D01*
X140523000Y-107315000D01*
X140523000Y-106590750D01*
X140777000Y-106590750D01*
X140777000Y-107315000D01*
X141726250Y-107315000D01*
X141885000Y-107156250D01*
X141885000Y-106940690D01*
X141788327Y-106707301D01*
X141609698Y-106528673D01*
X141376309Y-106432000D01*
X140935750Y-106432000D01*
X140777000Y-106590750D01*
X140523000Y-106590750D01*
X140364250Y-106432000D01*
X139923691Y-106432000D01*
X139690302Y-106528673D01*
X139511673Y-106707301D01*
X139488905Y-106762269D01*
X139480983Y-106756856D01*
X139350000Y-106730331D01*
X138459909Y-106730331D01*
X138353200Y-106623622D01*
X138353200Y-106321502D01*
X138318398Y-106146539D01*
X138301780Y-106121669D01*
X139350000Y-106121669D01*
X139472365Y-106098644D01*
X139488339Y-106088365D01*
X139511673Y-106144699D01*
X139690302Y-106323327D01*
X139923691Y-106420000D01*
X140364250Y-106420000D01*
X140523000Y-106261250D01*
X140523000Y-105537000D01*
X140777000Y-105537000D01*
X140777000Y-106261250D01*
X140935750Y-106420000D01*
X141376309Y-106420000D01*
X141609698Y-106323327D01*
X141788327Y-106144699D01*
X141885000Y-105911310D01*
X141885000Y-105722000D01*
X145875331Y-105722000D01*
X145875331Y-106622000D01*
X145898356Y-106744365D01*
X145970673Y-106856749D01*
X146081017Y-106932144D01*
X146212000Y-106958669D01*
X147412000Y-106958669D01*
X147534365Y-106935644D01*
X147646749Y-106863327D01*
X147722144Y-106752983D01*
X147748669Y-106622000D01*
X147748669Y-106457750D01*
X147777000Y-106457750D01*
X147777000Y-106748310D01*
X147873673Y-106981699D01*
X148052302Y-107160327D01*
X148285691Y-107257000D01*
X148726250Y-107257000D01*
X148885000Y-107098250D01*
X148885000Y-106299000D01*
X149139000Y-106299000D01*
X149139000Y-107098250D01*
X149297750Y-107257000D01*
X149738309Y-107257000D01*
X149971698Y-107160327D01*
X150150327Y-106981699D01*
X150247000Y-106748310D01*
X150247000Y-106457750D01*
X150088250Y-106299000D01*
X149139000Y-106299000D01*
X148885000Y-106299000D01*
X147935750Y-106299000D01*
X147777000Y-106457750D01*
X147748669Y-106457750D01*
X147748669Y-105722000D01*
X147725644Y-105599635D01*
X147723106Y-105595690D01*
X147777000Y-105595690D01*
X147777000Y-105886250D01*
X147935750Y-106045000D01*
X148885000Y-106045000D01*
X148885000Y-105245750D01*
X148726250Y-105087000D01*
X148285691Y-105087000D01*
X148052302Y-105183673D01*
X147873673Y-105362301D01*
X147777000Y-105595690D01*
X147723106Y-105595690D01*
X147653327Y-105487251D01*
X147542983Y-105411856D01*
X147412000Y-105385331D01*
X146212000Y-105385331D01*
X146089635Y-105408356D01*
X145977251Y-105480673D01*
X145901856Y-105591017D01*
X145875331Y-105722000D01*
X141885000Y-105722000D01*
X141885000Y-105695750D01*
X141726250Y-105537000D01*
X140777000Y-105537000D01*
X140523000Y-105537000D01*
X140503000Y-105537000D01*
X140503000Y-105283000D01*
X140523000Y-105283000D01*
X140523000Y-105263000D01*
X140777000Y-105263000D01*
X140777000Y-105283000D01*
X141726250Y-105283000D01*
X141885000Y-105124250D01*
X141885000Y-104908690D01*
X141788327Y-104675301D01*
X141668866Y-104555841D01*
X142842413Y-104555841D01*
X143017376Y-104521039D01*
X143165430Y-104422112D01*
X145109534Y-104422112D01*
X145150711Y-104463289D01*
X145299037Y-104562398D01*
X145391331Y-104580756D01*
X145391331Y-104740000D01*
X145414356Y-104862365D01*
X145486673Y-104974749D01*
X145597017Y-105050144D01*
X145728000Y-105076669D01*
X146628000Y-105076669D01*
X146750365Y-105053644D01*
X146862749Y-104981327D01*
X146938144Y-104870983D01*
X146964669Y-104740000D01*
X146964669Y-103540000D01*
X146941644Y-103417635D01*
X146869327Y-103305251D01*
X146758983Y-103229856D01*
X146628000Y-103203331D01*
X145728000Y-103203331D01*
X145605635Y-103226356D01*
X145493251Y-103298673D01*
X145417856Y-103409017D01*
X145394038Y-103526634D01*
X145298912Y-103507712D01*
X142976142Y-103507712D01*
X142813818Y-103540000D01*
X142801179Y-103542514D01*
X142653125Y-103641441D01*
X141796691Y-103641441D01*
X141660250Y-103505000D01*
X140711000Y-103505000D01*
X140711000Y-103525000D01*
X140457000Y-103525000D01*
X140457000Y-103505000D01*
X140437000Y-103505000D01*
X140437000Y-103251000D01*
X140457000Y-103251000D01*
X140457000Y-102526750D01*
X140711000Y-102526750D01*
X140711000Y-103251000D01*
X141660250Y-103251000D01*
X141819000Y-103092250D01*
X141819000Y-102876690D01*
X141722327Y-102643301D01*
X141543698Y-102464673D01*
X141310309Y-102368000D01*
X140869750Y-102368000D01*
X140711000Y-102526750D01*
X140457000Y-102526750D01*
X140298250Y-102368000D01*
X139857691Y-102368000D01*
X139624302Y-102464673D01*
X139445673Y-102643301D01*
X139422905Y-102698269D01*
X139414983Y-102692856D01*
X139284000Y-102666331D01*
X138393909Y-102666331D01*
X138287200Y-102559622D01*
X138287200Y-102457792D01*
X138252398Y-102282829D01*
X138153289Y-102134503D01*
X138074539Y-102055753D01*
X138084000Y-102057669D01*
X139284000Y-102057669D01*
X139406365Y-102034644D01*
X139422339Y-102024365D01*
X139445673Y-102080699D01*
X139624302Y-102259327D01*
X139857691Y-102356000D01*
X140298250Y-102356000D01*
X140457000Y-102197250D01*
X140457000Y-101473000D01*
X140711000Y-101473000D01*
X140711000Y-102197250D01*
X140869750Y-102356000D01*
X141310309Y-102356000D01*
X141543698Y-102259327D01*
X141722327Y-102080699D01*
X141764139Y-101979755D01*
X144144890Y-101979755D01*
X144241360Y-102213228D01*
X144419832Y-102392013D01*
X144653137Y-102488889D01*
X144905755Y-102489110D01*
X145028965Y-102438200D01*
X145491331Y-102438200D01*
X145491331Y-102479000D01*
X145514356Y-102601365D01*
X145586673Y-102713749D01*
X145697017Y-102789144D01*
X145828000Y-102815669D01*
X147328000Y-102815669D01*
X147450365Y-102792644D01*
X147562749Y-102720327D01*
X147638144Y-102609983D01*
X147664669Y-102479000D01*
X147664669Y-101229000D01*
X147991331Y-101229000D01*
X147991331Y-102479000D01*
X148014356Y-102601365D01*
X148086673Y-102713749D01*
X148197017Y-102789144D01*
X148328000Y-102815669D01*
X148893800Y-102815669D01*
X148893800Y-103233972D01*
X148793251Y-103298673D01*
X148717856Y-103409017D01*
X148691331Y-103540000D01*
X148691331Y-104740000D01*
X148714356Y-104862365D01*
X148786673Y-104974749D01*
X148897017Y-105050144D01*
X149028000Y-105076669D01*
X149588486Y-105076669D01*
X149598817Y-105087000D01*
X149297750Y-105087000D01*
X149139000Y-105245750D01*
X149139000Y-106045000D01*
X150088250Y-106045000D01*
X150247000Y-105886250D01*
X150247000Y-105595690D01*
X150206160Y-105497093D01*
X150262000Y-105508200D01*
X152687616Y-105508200D01*
X152426908Y-105768908D01*
X152300270Y-105958436D01*
X152255800Y-106182000D01*
X152255800Y-107290016D01*
X151418016Y-108127800D01*
X148844000Y-108127800D01*
X148730730Y-108150331D01*
X148494000Y-108150331D01*
X148371635Y-108173356D01*
X148259251Y-108245673D01*
X148183856Y-108356017D01*
X148157331Y-108487000D01*
X148157331Y-108937000D01*
X148180356Y-109059365D01*
X148252673Y-109171749D01*
X148363017Y-109247144D01*
X148494000Y-109273669D01*
X148730730Y-109273669D01*
X148844000Y-109296200D01*
X151660000Y-109296200D01*
X151883564Y-109251730D01*
X152073092Y-109125092D01*
X153253092Y-107945092D01*
X153283756Y-107899200D01*
X153379730Y-107755564D01*
X153424200Y-107532000D01*
X153424200Y-106423984D01*
X153837515Y-106010669D01*
X157548000Y-106010669D01*
X157670365Y-105987644D01*
X157782749Y-105915327D01*
X157858144Y-105804983D01*
X157860976Y-105791000D01*
X157988000Y-105791000D01*
X158034159Y-105782315D01*
X158076553Y-105755035D01*
X158104994Y-105713410D01*
X158115000Y-105664000D01*
X158115000Y-100584000D01*
X158106315Y-100537841D01*
X158079035Y-100495447D01*
X158037410Y-100467006D01*
X157988000Y-100457000D01*
X157862654Y-100457000D01*
X157861644Y-100451635D01*
X157789327Y-100339251D01*
X157678983Y-100263856D01*
X157548000Y-100237331D01*
X155187515Y-100237331D01*
X154828200Y-99878016D01*
X154828200Y-99009669D01*
X154844000Y-99009669D01*
X154966365Y-98986644D01*
X154982339Y-98976365D01*
X155005673Y-99032699D01*
X155184302Y-99211327D01*
X155417691Y-99308000D01*
X155858250Y-99308000D01*
X156017000Y-99149250D01*
X156017000Y-98425000D01*
X156271000Y-98425000D01*
X156271000Y-99149250D01*
X156429750Y-99308000D01*
X156870309Y-99308000D01*
X157103698Y-99211327D01*
X157282327Y-99032699D01*
X157379000Y-98799310D01*
X157379000Y-98583750D01*
X157220250Y-98425000D01*
X156271000Y-98425000D01*
X156017000Y-98425000D01*
X155997000Y-98425000D01*
X155997000Y-98171000D01*
X156017000Y-98171000D01*
X156017000Y-97446750D01*
X156271000Y-97446750D01*
X156271000Y-98171000D01*
X157220250Y-98171000D01*
X157379000Y-98012250D01*
X157379000Y-97796690D01*
X157282327Y-97563301D01*
X157103698Y-97384673D01*
X156870309Y-97288000D01*
X156429750Y-97288000D01*
X156271000Y-97446750D01*
X156017000Y-97446750D01*
X155858250Y-97288000D01*
X155417691Y-97288000D01*
X155184302Y-97384673D01*
X155005673Y-97563301D01*
X154982905Y-97618269D01*
X154974983Y-97612856D01*
X154844000Y-97586331D01*
X154358515Y-97586331D01*
X154254200Y-97482016D01*
X154254200Y-96260937D01*
X154304889Y-96138863D01*
X154305110Y-95886245D01*
X154208640Y-95652772D01*
X154030168Y-95473987D01*
X153796863Y-95377111D01*
X153544245Y-95376890D01*
X153310772Y-95473360D01*
X153131987Y-95651832D01*
X153035111Y-95885137D01*
X153034890Y-96137755D01*
X153085800Y-96260965D01*
X153085800Y-97724000D01*
X153130270Y-97947564D01*
X153242401Y-98115380D01*
X153256908Y-98137092D01*
X153307331Y-98187515D01*
X153307331Y-98673000D01*
X153330356Y-98795365D01*
X153402673Y-98907749D01*
X153513017Y-98983144D01*
X153644000Y-99009669D01*
X153659800Y-99009669D01*
X153659800Y-100120000D01*
X153683139Y-100237331D01*
X153348000Y-100237331D01*
X153225635Y-100260356D01*
X153113251Y-100332673D01*
X153037856Y-100443017D01*
X153035024Y-100457000D01*
X152908000Y-100457000D01*
X152861841Y-100465685D01*
X152819447Y-100492965D01*
X152791006Y-100534590D01*
X152781000Y-100584000D01*
X152781000Y-104339800D01*
X150503983Y-104339800D01*
X150264669Y-104100485D01*
X150264669Y-103540000D01*
X150241644Y-103417635D01*
X150169327Y-103305251D01*
X150062200Y-103232054D01*
X150062200Y-102720680D01*
X150062749Y-102720327D01*
X150138144Y-102609983D01*
X150164669Y-102479000D01*
X150164669Y-101229000D01*
X150141644Y-101106635D01*
X150069327Y-100994251D01*
X149958983Y-100918856D01*
X149828000Y-100892331D01*
X148328000Y-100892331D01*
X148205635Y-100915356D01*
X148093251Y-100987673D01*
X148017856Y-101098017D01*
X147991331Y-101229000D01*
X147664669Y-101229000D01*
X147641644Y-101106635D01*
X147569327Y-100994251D01*
X147458983Y-100918856D01*
X147328000Y-100892331D01*
X147055694Y-100892331D01*
X147166327Y-100781699D01*
X147263000Y-100548310D01*
X147263000Y-100107750D01*
X147104250Y-99949000D01*
X146305000Y-99949000D01*
X146305000Y-99969000D01*
X146051000Y-99969000D01*
X146051000Y-99949000D01*
X145251750Y-99949000D01*
X145093000Y-100107750D01*
X145093000Y-100548310D01*
X145189673Y-100781699D01*
X145368302Y-100960327D01*
X145558193Y-101038982D01*
X145517856Y-101098017D01*
X145491331Y-101229000D01*
X145491331Y-101269800D01*
X145028937Y-101269800D01*
X144906863Y-101219111D01*
X144654245Y-101218890D01*
X144420772Y-101315360D01*
X144241987Y-101493832D01*
X144145111Y-101727137D01*
X144144890Y-101979755D01*
X141764139Y-101979755D01*
X141819000Y-101847310D01*
X141819000Y-101631750D01*
X141660250Y-101473000D01*
X140711000Y-101473000D01*
X140457000Y-101473000D01*
X140437000Y-101473000D01*
X140437000Y-101219000D01*
X140457000Y-101219000D01*
X140457000Y-101199000D01*
X140711000Y-101199000D01*
X140711000Y-101219000D01*
X141660250Y-101219000D01*
X141819000Y-101060250D01*
X141819000Y-100844690D01*
X141722327Y-100611301D01*
X141685026Y-100574000D01*
X141846309Y-100574000D01*
X142079698Y-100477327D01*
X142258327Y-100298699D01*
X142355000Y-100065310D01*
X142355000Y-99599750D01*
X142196250Y-99441000D01*
X141097000Y-99441000D01*
X141097000Y-99461000D01*
X140843000Y-99461000D01*
X140843000Y-99441000D01*
X139743750Y-99441000D01*
X139585000Y-99599750D01*
X139585000Y-100065310D01*
X139681673Y-100298699D01*
X139759604Y-100376629D01*
X139624302Y-100432673D01*
X139445673Y-100611301D01*
X139422905Y-100666269D01*
X139414983Y-100660856D01*
X139284000Y-100634331D01*
X138084000Y-100634331D01*
X137961635Y-100657356D01*
X137849251Y-100729673D01*
X137773856Y-100840017D01*
X137763977Y-100888800D01*
X137554178Y-100888800D01*
X135872578Y-99207200D01*
X136712622Y-99207200D01*
X137142710Y-99637289D01*
X137246902Y-99706908D01*
X137291037Y-99736398D01*
X137383331Y-99754756D01*
X137383331Y-99939000D01*
X137406356Y-100061365D01*
X137478673Y-100173749D01*
X137589017Y-100249144D01*
X137720000Y-100275669D01*
X139220000Y-100275669D01*
X139342365Y-100252644D01*
X139454749Y-100180327D01*
X139530144Y-100069983D01*
X139556669Y-99939000D01*
X139556669Y-99178515D01*
X139645967Y-99089217D01*
X139743750Y-99187000D01*
X140843000Y-99187000D01*
X140843000Y-99167000D01*
X141097000Y-99167000D01*
X141097000Y-99187000D01*
X142196250Y-99187000D01*
X142287560Y-99095690D01*
X145093000Y-99095690D01*
X145093000Y-99536250D01*
X145251750Y-99695000D01*
X146051000Y-99695000D01*
X146051000Y-98745750D01*
X146305000Y-98745750D01*
X146305000Y-99695000D01*
X147104250Y-99695000D01*
X147263000Y-99536250D01*
X147263000Y-99222000D01*
X148691331Y-99222000D01*
X148691331Y-100422000D01*
X148714356Y-100544365D01*
X148786673Y-100656749D01*
X148897017Y-100732144D01*
X149028000Y-100758669D01*
X149928000Y-100758669D01*
X150050365Y-100735644D01*
X150162749Y-100663327D01*
X150238144Y-100552983D01*
X150264669Y-100422000D01*
X150264669Y-100406200D01*
X150627063Y-100406200D01*
X150749137Y-100456889D01*
X151001755Y-100457110D01*
X151235228Y-100360640D01*
X151414013Y-100182168D01*
X151510889Y-99948863D01*
X151511110Y-99696245D01*
X151414640Y-99462772D01*
X151236168Y-99283987D01*
X151002863Y-99187111D01*
X150750245Y-99186890D01*
X150627035Y-99237800D01*
X150264669Y-99237800D01*
X150264669Y-99222000D01*
X150241644Y-99099635D01*
X150169327Y-98987251D01*
X150062200Y-98914054D01*
X150062200Y-98188672D01*
X150163749Y-98123327D01*
X150239144Y-98012983D01*
X150265669Y-97882000D01*
X150265669Y-96682000D01*
X150242644Y-96559635D01*
X150170327Y-96447251D01*
X150059983Y-96371856D01*
X149929000Y-96345331D01*
X149029000Y-96345331D01*
X148906635Y-96368356D01*
X148794251Y-96440673D01*
X148718856Y-96551017D01*
X148692331Y-96682000D01*
X148692331Y-97882000D01*
X148715356Y-98004365D01*
X148787673Y-98116749D01*
X148893800Y-98189263D01*
X148893800Y-98915972D01*
X148793251Y-98980673D01*
X148717856Y-99091017D01*
X148691331Y-99222000D01*
X147263000Y-99222000D01*
X147263000Y-99095690D01*
X147166327Y-98862301D01*
X146987698Y-98683673D01*
X146754309Y-98587000D01*
X146463750Y-98587000D01*
X146305000Y-98745750D01*
X146051000Y-98745750D01*
X145892250Y-98587000D01*
X145601691Y-98587000D01*
X145368302Y-98683673D01*
X145189673Y-98862301D01*
X145093000Y-99095690D01*
X142287560Y-99095690D01*
X142355000Y-99028250D01*
X142355000Y-98815999D01*
X144271201Y-98815999D01*
X144494765Y-98771529D01*
X144684293Y-98644891D01*
X145401018Y-97928166D01*
X145415356Y-98004365D01*
X145487673Y-98116749D01*
X145598017Y-98192144D01*
X145729000Y-98218669D01*
X146629000Y-98218669D01*
X146751365Y-98195644D01*
X146863749Y-98123327D01*
X146939144Y-98012983D01*
X146965669Y-97882000D01*
X146965669Y-96682000D01*
X146942644Y-96559635D01*
X146870327Y-96447251D01*
X146759983Y-96371856D01*
X146629000Y-96345331D01*
X145729000Y-96345331D01*
X145606635Y-96368356D01*
X145494251Y-96440673D01*
X145418856Y-96551017D01*
X145392331Y-96682000D01*
X145392331Y-96697800D01*
X145221005Y-96697800D01*
X145221000Y-96697799D01*
X144997437Y-96742269D01*
X144807908Y-96868908D01*
X144029217Y-97647599D01*
X141885000Y-97647599D01*
X141885000Y-97567750D01*
X141726250Y-97409000D01*
X140777000Y-97409000D01*
X140777000Y-97429000D01*
X140523000Y-97429000D01*
X140523000Y-97409000D01*
X140503000Y-97409000D01*
X140503000Y-97155000D01*
X140523000Y-97155000D01*
X140523000Y-97135000D01*
X140777000Y-97135000D01*
X140777000Y-97155000D01*
X141726250Y-97155000D01*
X141885000Y-96996250D01*
X141885000Y-96780690D01*
X141788327Y-96547301D01*
X141609698Y-96368673D01*
X141376309Y-96272000D01*
X141295606Y-96272000D01*
X141350889Y-96138863D01*
X141351110Y-95886245D01*
X141254640Y-95652772D01*
X141076168Y-95473987D01*
X140842863Y-95377111D01*
X140590245Y-95376890D01*
X140467035Y-95427800D01*
X137832792Y-95427800D01*
X138101148Y-95316643D01*
X138187554Y-95060159D01*
X137287000Y-94159605D01*
X136386446Y-95060159D01*
X136472852Y-95316643D01*
X136776676Y-95427800D01*
X136057640Y-95427800D01*
X135834076Y-95472270D01*
X135752978Y-95526458D01*
X135644548Y-95598908D01*
X135104292Y-96139164D01*
X134982132Y-96189640D01*
X134803347Y-96368112D01*
X134706471Y-96601417D01*
X134706250Y-96854035D01*
X134802720Y-97087508D01*
X134981192Y-97266293D01*
X135214497Y-97363169D01*
X135467115Y-97363390D01*
X135700588Y-97266920D01*
X135879373Y-97088448D01*
X135930497Y-96965327D01*
X136299624Y-96596200D01*
X138023215Y-96596200D01*
X137915251Y-96665673D01*
X137839856Y-96776017D01*
X137813331Y-96907000D01*
X137813331Y-97572091D01*
X137592622Y-97792800D01*
X129061953Y-97792800D01*
X128992380Y-97778711D01*
X127991620Y-97778711D01*
X127869255Y-97801736D01*
X127756871Y-97874053D01*
X127681476Y-97984397D01*
X127654951Y-98115380D01*
X127654951Y-98384620D01*
X127677459Y-98504235D01*
X127654951Y-98615380D01*
X127654951Y-98884620D01*
X127677459Y-99004235D01*
X127654951Y-99115380D01*
X127654951Y-99384620D01*
X127677459Y-99504235D01*
X127654951Y-99615380D01*
X127654951Y-99884620D01*
X127677459Y-100004235D01*
X127654951Y-100115380D01*
X127654951Y-100384620D01*
X127677459Y-100504235D01*
X127654951Y-100615380D01*
X127654951Y-100884620D01*
X127677459Y-101004235D01*
X127665532Y-101063131D01*
X127631921Y-101077053D01*
X127453293Y-101255682D01*
X127356620Y-101489071D01*
X123592000Y-101489071D01*
X123592000Y-95289595D01*
X123749060Y-94500000D01*
X124655331Y-94500000D01*
X124655331Y-96000000D01*
X124678356Y-96122365D01*
X124750673Y-96234749D01*
X124861017Y-96310144D01*
X124992000Y-96336669D01*
X127992000Y-96336669D01*
X128114365Y-96313644D01*
X128226749Y-96241327D01*
X128302144Y-96130983D01*
X128328669Y-96000000D01*
X128328669Y-94500000D01*
X128305644Y-94377635D01*
X128233327Y-94265251D01*
X128122983Y-94189856D01*
X127992000Y-94163331D01*
X124992000Y-94163331D01*
X124869635Y-94186356D01*
X124757251Y-94258673D01*
X124681856Y-94369017D01*
X124655331Y-94500000D01*
X123749060Y-94500000D01*
X123762022Y-94434836D01*
X124223775Y-93743775D01*
X124914838Y-93282022D01*
X125769595Y-93112000D01*
X128795230Y-93112000D01*
X128624695Y-93282238D01*
G36*
X144725421Y-111754001D02*
X141847251Y-111754001D01*
X141726250Y-111633000D01*
X140777000Y-111633000D01*
X140777000Y-111653000D01*
X140523000Y-111653000D01*
X140523000Y-111633000D01*
X140503000Y-111633000D01*
X140503000Y-111379000D01*
X140523000Y-111379000D01*
X140523000Y-111359000D01*
X140777000Y-111359000D01*
X140777000Y-111379000D01*
X141726250Y-111379000D01*
X141885000Y-111220250D01*
X141885000Y-111004690D01*
X141861187Y-110947200D01*
X145532222Y-110947200D01*
X144725421Y-111754001D01*
X144725421Y-111754001D01*
G37*
X144725421Y-111754001D02*
X141847251Y-111754001D01*
X141726250Y-111633000D01*
X140777000Y-111633000D01*
X140777000Y-111653000D01*
X140523000Y-111653000D01*
X140523000Y-111633000D01*
X140503000Y-111633000D01*
X140503000Y-111379000D01*
X140523000Y-111379000D01*
X140523000Y-111359000D01*
X140777000Y-111359000D01*
X140777000Y-111379000D01*
X141726250Y-111379000D01*
X141885000Y-111220250D01*
X141885000Y-111004690D01*
X141861187Y-110947200D01*
X145532222Y-110947200D01*
X144725421Y-111754001D01*
G36*
X135933489Y-102538371D02*
X135748672Y-102614737D01*
X135664661Y-102698601D01*
X135501885Y-102730979D01*
X135409363Y-102792800D01*
X130913778Y-102792800D01*
X130999378Y-102707200D01*
X134080922Y-102707200D01*
X134255885Y-102672398D01*
X134404211Y-102573289D01*
X134416704Y-102560796D01*
X134530891Y-102560896D01*
X134764364Y-102464426D01*
X134943149Y-102285954D01*
X135040025Y-102052649D01*
X135040246Y-101800031D01*
X134943776Y-101566558D01*
X134765304Y-101387773D01*
X134531999Y-101290897D01*
X134391402Y-101290774D01*
X134685892Y-101290774D01*
X135933489Y-102538371D01*
X135933489Y-102538371D01*
G37*
X135933489Y-102538371D02*
X135748672Y-102614737D01*
X135664661Y-102698601D01*
X135501885Y-102730979D01*
X135409363Y-102792800D01*
X130913778Y-102792800D01*
X130999378Y-102707200D01*
X134080922Y-102707200D01*
X134255885Y-102672398D01*
X134404211Y-102573289D01*
X134416704Y-102560796D01*
X134530891Y-102560896D01*
X134764364Y-102464426D01*
X134943149Y-102285954D01*
X135040025Y-102052649D01*
X135040246Y-101800031D01*
X134943776Y-101566558D01*
X134765304Y-101387773D01*
X134531999Y-101290897D01*
X134391402Y-101290774D01*
X134685892Y-101290774D01*
X135933489Y-102538371D01*
M02*
