G04 #@! TF.FileFunction,Copper,L2,Bot,Signal*
%FSLAX46Y46*%
G04 Gerber Fmt 4.6, Leading zero omitted, Abs format (unit mm)*
G04 Created by KiCad (PCBNEW 4.0.7) date 2018 March 18, Sunday 16:32:36*
%MOMM*%
%LPD*%
G01*
G04 APERTURE LIST*
%ADD10C,0.150000*%
%ADD11C,1.800000*%
%ADD12C,3.556000*%
%ADD13C,0.609600*%
%ADD14C,0.508000*%
%ADD15C,0.254000*%
G04 APERTURE END LIST*
D10*
D11*
X129667000Y-93980000D03*
X132207000Y-93980000D03*
X134747000Y-93980000D03*
X137287000Y-93980000D03*
X139827000Y-93980000D03*
X142367000Y-93980000D03*
X144907000Y-93980000D03*
X147447000Y-93980000D03*
X149987000Y-93980000D03*
X152527000Y-93980000D03*
X155067000Y-93980000D03*
X157607000Y-93980000D03*
X160147000Y-93980000D03*
X162687000Y-93980000D03*
X165227000Y-93980000D03*
X167767000Y-93980000D03*
X167767000Y-114300000D03*
X165227000Y-114300000D03*
X162687000Y-114300000D03*
X160147000Y-114300000D03*
X157607000Y-114300000D03*
X155067000Y-114300000D03*
X152527000Y-114300000D03*
X149987000Y-114300000D03*
X147447000Y-114300000D03*
X144907000Y-114300000D03*
X142367000Y-114300000D03*
X139827000Y-114300000D03*
D12*
X171577000Y-113030000D03*
X171577000Y-95250000D03*
D11*
X162560000Y-99060000D03*
X165100000Y-99060000D03*
X162560000Y-101600000D03*
X165100000Y-101600000D03*
X162560000Y-104140000D03*
X165100000Y-104140000D03*
X162560000Y-106680000D03*
X165100000Y-106680000D03*
D13*
X135341360Y-96728280D03*
X134405136Y-101925786D03*
X153670000Y-96012000D03*
X140716000Y-96012000D03*
X127000000Y-109855000D03*
X127000000Y-104140000D03*
X127000000Y-98425000D03*
X129540000Y-97155000D03*
X133350000Y-97155000D03*
X129540000Y-113665000D03*
X129540000Y-111125000D03*
X134620000Y-111125000D03*
X134620000Y-113665000D03*
X167132000Y-101600000D03*
X167005000Y-97790000D03*
X171450000Y-97790000D03*
X171450000Y-101600000D03*
X171450000Y-104140000D03*
X171450000Y-107950000D03*
X171450000Y-110490000D03*
X167640000Y-110490000D03*
X167132000Y-107950000D03*
X151765000Y-97407880D03*
X151130000Y-102870000D03*
X151130000Y-102870000D03*
X160020000Y-101600000D03*
X160020000Y-104775000D03*
X156210000Y-107950000D03*
X156210000Y-111125000D03*
X158242000Y-98250247D03*
X150835780Y-107624035D03*
X160020000Y-111760000D03*
X163830000Y-112014000D03*
X133390707Y-106648496D03*
X135399738Y-102548834D03*
X167132000Y-104140000D03*
X161036000Y-97282000D03*
X143280946Y-104616630D03*
X143256000Y-107580833D03*
X143256000Y-103329902D03*
X150876000Y-111252000D03*
X143256000Y-111506000D03*
X143256000Y-109474000D03*
X143256000Y-101346000D03*
X143271719Y-97407880D03*
X143256000Y-99314000D03*
X150876000Y-99822000D03*
X144780000Y-101854000D03*
X136107900Y-103153377D03*
X136157665Y-104129722D03*
X156147717Y-112365791D03*
X158111815Y-112371146D03*
X136907797Y-106132237D03*
X136078004Y-105497227D03*
X134557237Y-105743428D03*
X136131111Y-106625749D03*
X137305155Y-110485155D03*
X139700000Y-110490000D03*
D14*
X135036561Y-96423481D02*
X135341360Y-96728280D01*
X132593080Y-93980000D02*
X135036561Y-96423481D01*
X132080000Y-93980000D02*
X132593080Y-93980000D01*
X134405136Y-101925786D02*
X135341360Y-100989562D01*
X135341360Y-97159332D02*
X135341360Y-96728280D01*
X135341360Y-100989562D02*
X135341360Y-97159332D01*
X165100000Y-98060329D02*
X165100000Y-99060000D01*
X153670000Y-96012000D02*
X163051671Y-96012000D01*
X163051671Y-96012000D02*
X165100000Y-98060329D01*
X140716000Y-96012000D02*
X153670000Y-96012000D01*
X127000000Y-98425000D02*
X127000000Y-104140000D01*
X133350000Y-97155000D02*
X129540000Y-97155000D01*
X134620000Y-111125000D02*
X129540000Y-111125000D01*
X143256000Y-111506000D02*
X136779000Y-111506000D01*
X136779000Y-111506000D02*
X134620000Y-113665000D01*
X171450000Y-97790000D02*
X167005000Y-97790000D01*
X171450000Y-104140000D02*
X171450000Y-101600000D01*
X143271719Y-97407880D02*
X151765000Y-97407880D01*
X151765000Y-97407880D02*
X157399633Y-97407880D01*
X160020000Y-104775000D02*
X160020000Y-101600000D01*
X156210000Y-111125000D02*
X156210000Y-107950000D01*
X157399633Y-97407880D02*
X157937201Y-97945448D01*
X160067753Y-98250247D02*
X158673052Y-98250247D01*
X157937201Y-97945448D02*
X158242000Y-98250247D01*
X161036000Y-97282000D02*
X160067753Y-98250247D01*
X158673052Y-98250247D02*
X158242000Y-98250247D01*
X150792578Y-107580833D02*
X150835780Y-107624035D01*
X143256000Y-107580833D02*
X150792578Y-107580833D01*
D15*
X163830000Y-112014000D02*
X160274000Y-112014000D01*
X160274000Y-112014000D02*
X160020000Y-111760000D01*
D14*
X133390707Y-106217444D02*
X133390707Y-106648496D01*
X133390707Y-104557865D02*
X133390707Y-106217444D01*
X135399738Y-102548834D02*
X133390707Y-104557865D01*
X135704537Y-102244035D02*
X135399738Y-102548834D01*
X140540692Y-97407880D02*
X135704537Y-102244035D01*
X143271719Y-97407880D02*
X140540692Y-97407880D01*
X143271719Y-97407880D02*
X140714880Y-97407880D01*
X140714880Y-97407880D02*
X137287000Y-93980000D01*
X143256000Y-111506000D02*
X150622000Y-111506000D01*
X150622000Y-111506000D02*
X150876000Y-111252000D01*
X167132000Y-104140000D02*
X165100000Y-104140000D01*
X143256000Y-104591684D02*
X143280946Y-104616630D01*
X143256000Y-103329902D02*
X143256000Y-104591684D01*
X143256000Y-99314000D02*
X143256000Y-97423599D01*
X143256000Y-97423599D02*
X143271719Y-97407880D01*
X143256000Y-111506000D02*
X143256000Y-109474000D01*
D15*
X143271719Y-99298281D02*
X143256000Y-99314000D01*
D14*
X150876000Y-99822000D02*
X146812000Y-99822000D01*
X146812000Y-99822000D02*
X144780000Y-101854000D01*
D15*
X136412699Y-102848578D02*
X136107900Y-103153377D01*
X146354803Y-99186999D02*
X143560801Y-101981001D01*
X152079007Y-98885257D02*
X151777266Y-99186999D01*
X160491850Y-98885257D02*
X152079007Y-98885257D01*
X161976392Y-100369799D02*
X160491850Y-98885257D01*
X163869799Y-100369799D02*
X161976392Y-100369799D01*
X165100000Y-101600000D02*
X163869799Y-100369799D01*
X151777266Y-99186999D02*
X146354803Y-99186999D01*
X143560801Y-101981001D02*
X137280276Y-101981001D01*
X137280276Y-101981001D02*
X136412699Y-102848578D01*
X158927789Y-95427789D02*
X157480000Y-93980000D01*
X163293659Y-95427789D02*
X158927789Y-95427789D01*
X165100000Y-101600000D02*
X166370000Y-100330000D01*
X166370000Y-98504130D02*
X163293659Y-95427789D01*
X166370000Y-100330000D02*
X166370000Y-98504130D01*
X147294581Y-100457001D02*
X151153856Y-100457001D01*
X160302468Y-99342468D02*
X162560000Y-101600000D01*
X151153856Y-100457001D02*
X152268389Y-99342468D01*
X146050000Y-101523802D02*
X146126198Y-101523802D01*
X137798386Y-102489001D02*
X145084801Y-102489001D01*
X136157665Y-104129722D02*
X137798386Y-102489001D01*
X146126198Y-101523802D02*
X147243790Y-100406210D01*
X145084801Y-102489001D02*
X146050000Y-101523802D01*
X147243790Y-100406210D02*
X147294581Y-100457001D01*
X152268389Y-99342468D02*
X160302468Y-99342468D01*
X136907797Y-106132237D02*
X139034597Y-108259037D01*
X151792191Y-108259037D02*
X155594146Y-112060992D01*
X139034597Y-108259037D02*
X151792191Y-108259037D01*
X155594146Y-112060992D02*
X155842918Y-112060992D01*
X155842918Y-112060992D02*
X156147717Y-112365791D01*
X158111815Y-112371146D02*
X156153072Y-112371146D01*
X156153072Y-112371146D02*
X156147717Y-112365791D01*
X136078004Y-105497227D02*
X137250595Y-105497227D01*
X137250595Y-105497227D02*
X138699200Y-106945832D01*
X160473470Y-106945832D02*
X161969503Y-105449799D01*
X161969503Y-105449799D02*
X163869799Y-105449799D01*
X138699200Y-106945832D02*
X160473470Y-106945832D01*
X163869799Y-105449799D02*
X164200001Y-105780001D01*
X164200001Y-105780001D02*
X165100000Y-106680000D01*
X165100000Y-106680000D02*
X165100000Y-111760000D01*
X165100000Y-111760000D02*
X162560000Y-114300000D01*
X162560000Y-104140000D02*
X160215567Y-106484433D01*
X160215567Y-106484433D02*
X138884393Y-106484433D01*
X137262185Y-104862225D02*
X135438440Y-104862225D01*
X134862036Y-105438629D02*
X134557237Y-105743428D01*
X138884393Y-106484433D02*
X137262185Y-104862225D01*
X135438440Y-104862225D02*
X134862036Y-105438629D01*
X151633912Y-108750027D02*
X138255389Y-108750027D01*
X157805740Y-113069799D02*
X155953684Y-113069799D01*
X155953684Y-113069799D02*
X151633912Y-108750027D01*
X138255389Y-108750027D02*
X136435910Y-106930548D01*
X160020000Y-114300000D02*
X158791073Y-113071073D01*
X157807014Y-113071073D02*
X157805740Y-113069799D01*
X158791073Y-113071073D02*
X157807014Y-113071073D01*
X136435910Y-106930548D02*
X136131111Y-106625749D01*
X139700000Y-110490000D02*
X137310000Y-110490000D01*
X137310000Y-110490000D02*
X137305155Y-110485155D01*
G36*
X163969077Y-106195655D02*
X163870014Y-106434225D01*
X163869587Y-106923628D01*
X164056479Y-107375942D01*
X164402238Y-107722305D01*
X164642800Y-107822195D01*
X164642800Y-111570621D01*
X163081607Y-113131814D01*
X162932775Y-113070014D01*
X162443372Y-113069587D01*
X161991058Y-113256479D01*
X161644695Y-113602238D01*
X161457014Y-114054225D01*
X161456587Y-114543628D01*
X161643479Y-114995942D01*
X161815237Y-115168000D01*
X161018770Y-115168000D01*
X161189305Y-114997762D01*
X161376986Y-114545775D01*
X161377413Y-114056372D01*
X161190521Y-113604058D01*
X160844762Y-113257695D01*
X160392775Y-113070014D01*
X159903372Y-113069587D01*
X159572768Y-113206190D01*
X159114362Y-112747784D01*
X158966036Y-112648675D01*
X158791073Y-112613873D01*
X158698593Y-112613873D01*
X158746704Y-112498009D01*
X158746925Y-112245391D01*
X158650455Y-112011918D01*
X158471983Y-111833133D01*
X158238678Y-111736257D01*
X157986060Y-111736036D01*
X157752587Y-111832506D01*
X157671004Y-111913946D01*
X156593902Y-111913946D01*
X156507885Y-111827778D01*
X156274580Y-111730902D01*
X156155873Y-111730798D01*
X156017881Y-111638594D01*
X155842918Y-111603792D01*
X155783524Y-111603792D01*
X152115480Y-107935748D01*
X151967154Y-107836639D01*
X151792191Y-107801837D01*
X139223976Y-107801837D01*
X138825171Y-107403032D01*
X160473470Y-107403032D01*
X160648433Y-107368230D01*
X160796759Y-107269121D01*
X161329751Y-106736129D01*
X161329587Y-106923628D01*
X161516479Y-107375942D01*
X161862238Y-107722305D01*
X162314225Y-107909986D01*
X162803628Y-107910413D01*
X163255942Y-107723521D01*
X163602305Y-107377762D01*
X163789986Y-106925775D01*
X163790413Y-106436372D01*
X163603521Y-105984058D01*
X163526596Y-105906999D01*
X163680421Y-105906999D01*
X163969077Y-106195655D01*
X163969077Y-106195655D01*
G37*
X163969077Y-106195655D02*
X163870014Y-106434225D01*
X163869587Y-106923628D01*
X164056479Y-107375942D01*
X164402238Y-107722305D01*
X164642800Y-107822195D01*
X164642800Y-111570621D01*
X163081607Y-113131814D01*
X162932775Y-113070014D01*
X162443372Y-113069587D01*
X161991058Y-113256479D01*
X161644695Y-113602238D01*
X161457014Y-114054225D01*
X161456587Y-114543628D01*
X161643479Y-114995942D01*
X161815237Y-115168000D01*
X161018770Y-115168000D01*
X161189305Y-114997762D01*
X161376986Y-114545775D01*
X161377413Y-114056372D01*
X161190521Y-113604058D01*
X160844762Y-113257695D01*
X160392775Y-113070014D01*
X159903372Y-113069587D01*
X159572768Y-113206190D01*
X159114362Y-112747784D01*
X158966036Y-112648675D01*
X158791073Y-112613873D01*
X158698593Y-112613873D01*
X158746704Y-112498009D01*
X158746925Y-112245391D01*
X158650455Y-112011918D01*
X158471983Y-111833133D01*
X158238678Y-111736257D01*
X157986060Y-111736036D01*
X157752587Y-111832506D01*
X157671004Y-111913946D01*
X156593902Y-111913946D01*
X156507885Y-111827778D01*
X156274580Y-111730902D01*
X156155873Y-111730798D01*
X156017881Y-111638594D01*
X155842918Y-111603792D01*
X155783524Y-111603792D01*
X152115480Y-107935748D01*
X151967154Y-107836639D01*
X151792191Y-107801837D01*
X139223976Y-107801837D01*
X138825171Y-107403032D01*
X160473470Y-107403032D01*
X160648433Y-107368230D01*
X160796759Y-107269121D01*
X161329751Y-106736129D01*
X161329587Y-106923628D01*
X161516479Y-107375942D01*
X161862238Y-107722305D01*
X162314225Y-107909986D01*
X162803628Y-107910413D01*
X163255942Y-107723521D01*
X163602305Y-107377762D01*
X163789986Y-106925775D01*
X163790413Y-106436372D01*
X163603521Y-105984058D01*
X163526596Y-105906999D01*
X163680421Y-105906999D01*
X163969077Y-106195655D01*
G36*
X164184695Y-93282238D02*
X163997014Y-93734225D01*
X163996587Y-94223628D01*
X164183479Y-94675942D01*
X164529238Y-95022305D01*
X164981225Y-95209986D01*
X165470628Y-95210413D01*
X165922942Y-95023521D01*
X166269305Y-94677762D01*
X166456986Y-94225775D01*
X166457413Y-93736372D01*
X166270521Y-93284058D01*
X166098763Y-93112000D01*
X166895230Y-93112000D01*
X166724695Y-93282238D01*
X166537014Y-93734225D01*
X166536587Y-94223628D01*
X166723479Y-94675942D01*
X167069238Y-95022305D01*
X167521225Y-95209986D01*
X168010628Y-95210413D01*
X168462942Y-95023521D01*
X168809305Y-94677762D01*
X168996986Y-94225775D01*
X168997413Y-93736372D01*
X168810521Y-93284058D01*
X168638763Y-93112000D01*
X171410405Y-93112000D01*
X171560143Y-93141785D01*
X171159493Y-93141435D01*
X170384361Y-93461713D01*
X169790797Y-94054241D01*
X169469167Y-94828813D01*
X169468435Y-95667507D01*
X169788713Y-96442639D01*
X170381241Y-97036203D01*
X171155813Y-97357833D01*
X171994507Y-97358565D01*
X172769639Y-97038287D01*
X173363203Y-96445759D01*
X173588000Y-95904387D01*
X173588000Y-112376368D01*
X173365287Y-111837361D01*
X172772759Y-111243797D01*
X171998187Y-110922167D01*
X171159493Y-110921435D01*
X170384361Y-111241713D01*
X169790797Y-111834241D01*
X169469167Y-112608813D01*
X169468435Y-113447507D01*
X169788713Y-114222639D01*
X170381241Y-114816203D01*
X171155813Y-115137833D01*
X171560290Y-115138186D01*
X171410405Y-115168000D01*
X168638770Y-115168000D01*
X168809305Y-114997762D01*
X168996986Y-114545775D01*
X168997413Y-114056372D01*
X168810521Y-113604058D01*
X168464762Y-113257695D01*
X168012775Y-113070014D01*
X167523372Y-113069587D01*
X167071058Y-113256479D01*
X166724695Y-113602238D01*
X166537014Y-114054225D01*
X166536587Y-114543628D01*
X166723479Y-114995942D01*
X166895237Y-115168000D01*
X166098770Y-115168000D01*
X166269305Y-114997762D01*
X166456986Y-114545775D01*
X166457413Y-114056372D01*
X166270521Y-113604058D01*
X165924762Y-113257695D01*
X165472775Y-113070014D01*
X164983372Y-113069587D01*
X164531058Y-113256479D01*
X164184695Y-113602238D01*
X163997014Y-114054225D01*
X163996587Y-114543628D01*
X164183479Y-114995942D01*
X164355237Y-115168000D01*
X163558770Y-115168000D01*
X163729305Y-114997762D01*
X163916986Y-114545775D01*
X163917413Y-114056372D01*
X163780810Y-113725768D01*
X165423289Y-112083290D01*
X165522398Y-111934963D01*
X165557200Y-111760000D01*
X165557200Y-107822167D01*
X165795942Y-107723521D01*
X166142305Y-107377762D01*
X166329986Y-106925775D01*
X166330413Y-106436372D01*
X166143521Y-105984058D01*
X165797762Y-105637695D01*
X165661716Y-105581204D01*
X165914148Y-105476643D01*
X166000554Y-105220159D01*
X165100000Y-104319605D01*
X165085858Y-104333748D01*
X164906253Y-104154143D01*
X164920395Y-104140000D01*
X165279605Y-104140000D01*
X166180159Y-105040554D01*
X166436643Y-104954148D01*
X166646458Y-104380664D01*
X166620839Y-103770540D01*
X166436643Y-103325852D01*
X166180159Y-103239446D01*
X165279605Y-104140000D01*
X164920395Y-104140000D01*
X164019841Y-103239446D01*
X163763357Y-103325852D01*
X163665357Y-103593713D01*
X163603521Y-103444058D01*
X163257762Y-103097695D01*
X162805775Y-102910014D01*
X162316372Y-102909587D01*
X161864058Y-103096479D01*
X161517695Y-103442238D01*
X161330014Y-103894225D01*
X161329587Y-104383628D01*
X161429057Y-104624365D01*
X160026189Y-106027233D01*
X139073772Y-106027233D01*
X137585474Y-104538936D01*
X137437148Y-104439827D01*
X137262185Y-104405025D01*
X136730917Y-104405025D01*
X136792554Y-104256585D01*
X136792655Y-104141310D01*
X137987764Y-102946201D01*
X145084801Y-102946201D01*
X145259764Y-102911399D01*
X145408090Y-102812290D01*
X146267482Y-101952899D01*
X146301161Y-101946200D01*
X146449487Y-101847091D01*
X147382377Y-100914201D01*
X151153856Y-100914201D01*
X151328819Y-100879399D01*
X151477145Y-100780290D01*
X152457767Y-99799668D01*
X160113090Y-99799668D01*
X161429077Y-101115655D01*
X161330014Y-101354225D01*
X161329587Y-101843628D01*
X161516479Y-102295942D01*
X161862238Y-102642305D01*
X162314225Y-102829986D01*
X162803628Y-102830413D01*
X163255942Y-102643521D01*
X163602305Y-102297762D01*
X163789986Y-101845775D01*
X163790413Y-101356372D01*
X163603521Y-100904058D01*
X163526596Y-100826999D01*
X163680421Y-100826999D01*
X163969077Y-101115655D01*
X163870014Y-101354225D01*
X163869587Y-101843628D01*
X164056479Y-102295942D01*
X164402238Y-102642305D01*
X164538284Y-102698796D01*
X164285852Y-102803357D01*
X164199446Y-103059841D01*
X165100000Y-103960395D01*
X166000554Y-103059841D01*
X165914148Y-102803357D01*
X165646287Y-102705357D01*
X165795942Y-102643521D01*
X166142305Y-102297762D01*
X166329986Y-101845775D01*
X166330413Y-101356372D01*
X166230943Y-101115635D01*
X166693289Y-100653289D01*
X166792398Y-100504963D01*
X166827200Y-100330000D01*
X166827200Y-98504130D01*
X166792398Y-98329167D01*
X166693289Y-98180841D01*
X163616948Y-95104500D01*
X163468622Y-95005391D01*
X163412322Y-94994192D01*
X163729305Y-94677762D01*
X163916986Y-94225775D01*
X163917413Y-93736372D01*
X163730521Y-93284058D01*
X163558763Y-93112000D01*
X164355230Y-93112000D01*
X164184695Y-93282238D01*
X164184695Y-93282238D01*
G37*
X164184695Y-93282238D02*
X163997014Y-93734225D01*
X163996587Y-94223628D01*
X164183479Y-94675942D01*
X164529238Y-95022305D01*
X164981225Y-95209986D01*
X165470628Y-95210413D01*
X165922942Y-95023521D01*
X166269305Y-94677762D01*
X166456986Y-94225775D01*
X166457413Y-93736372D01*
X166270521Y-93284058D01*
X166098763Y-93112000D01*
X166895230Y-93112000D01*
X166724695Y-93282238D01*
X166537014Y-93734225D01*
X166536587Y-94223628D01*
X166723479Y-94675942D01*
X167069238Y-95022305D01*
X167521225Y-95209986D01*
X168010628Y-95210413D01*
X168462942Y-95023521D01*
X168809305Y-94677762D01*
X168996986Y-94225775D01*
X168997413Y-93736372D01*
X168810521Y-93284058D01*
X168638763Y-93112000D01*
X171410405Y-93112000D01*
X171560143Y-93141785D01*
X171159493Y-93141435D01*
X170384361Y-93461713D01*
X169790797Y-94054241D01*
X169469167Y-94828813D01*
X169468435Y-95667507D01*
X169788713Y-96442639D01*
X170381241Y-97036203D01*
X171155813Y-97357833D01*
X171994507Y-97358565D01*
X172769639Y-97038287D01*
X173363203Y-96445759D01*
X173588000Y-95904387D01*
X173588000Y-112376368D01*
X173365287Y-111837361D01*
X172772759Y-111243797D01*
X171998187Y-110922167D01*
X171159493Y-110921435D01*
X170384361Y-111241713D01*
X169790797Y-111834241D01*
X169469167Y-112608813D01*
X169468435Y-113447507D01*
X169788713Y-114222639D01*
X170381241Y-114816203D01*
X171155813Y-115137833D01*
X171560290Y-115138186D01*
X171410405Y-115168000D01*
X168638770Y-115168000D01*
X168809305Y-114997762D01*
X168996986Y-114545775D01*
X168997413Y-114056372D01*
X168810521Y-113604058D01*
X168464762Y-113257695D01*
X168012775Y-113070014D01*
X167523372Y-113069587D01*
X167071058Y-113256479D01*
X166724695Y-113602238D01*
X166537014Y-114054225D01*
X166536587Y-114543628D01*
X166723479Y-114995942D01*
X166895237Y-115168000D01*
X166098770Y-115168000D01*
X166269305Y-114997762D01*
X166456986Y-114545775D01*
X166457413Y-114056372D01*
X166270521Y-113604058D01*
X165924762Y-113257695D01*
X165472775Y-113070014D01*
X164983372Y-113069587D01*
X164531058Y-113256479D01*
X164184695Y-113602238D01*
X163997014Y-114054225D01*
X163996587Y-114543628D01*
X164183479Y-114995942D01*
X164355237Y-115168000D01*
X163558770Y-115168000D01*
X163729305Y-114997762D01*
X163916986Y-114545775D01*
X163917413Y-114056372D01*
X163780810Y-113725768D01*
X165423289Y-112083290D01*
X165522398Y-111934963D01*
X165557200Y-111760000D01*
X165557200Y-107822167D01*
X165795942Y-107723521D01*
X166142305Y-107377762D01*
X166329986Y-106925775D01*
X166330413Y-106436372D01*
X166143521Y-105984058D01*
X165797762Y-105637695D01*
X165661716Y-105581204D01*
X165914148Y-105476643D01*
X166000554Y-105220159D01*
X165100000Y-104319605D01*
X165085858Y-104333748D01*
X164906253Y-104154143D01*
X164920395Y-104140000D01*
X165279605Y-104140000D01*
X166180159Y-105040554D01*
X166436643Y-104954148D01*
X166646458Y-104380664D01*
X166620839Y-103770540D01*
X166436643Y-103325852D01*
X166180159Y-103239446D01*
X165279605Y-104140000D01*
X164920395Y-104140000D01*
X164019841Y-103239446D01*
X163763357Y-103325852D01*
X163665357Y-103593713D01*
X163603521Y-103444058D01*
X163257762Y-103097695D01*
X162805775Y-102910014D01*
X162316372Y-102909587D01*
X161864058Y-103096479D01*
X161517695Y-103442238D01*
X161330014Y-103894225D01*
X161329587Y-104383628D01*
X161429057Y-104624365D01*
X160026189Y-106027233D01*
X139073772Y-106027233D01*
X137585474Y-104538936D01*
X137437148Y-104439827D01*
X137262185Y-104405025D01*
X136730917Y-104405025D01*
X136792554Y-104256585D01*
X136792655Y-104141310D01*
X137987764Y-102946201D01*
X145084801Y-102946201D01*
X145259764Y-102911399D01*
X145408090Y-102812290D01*
X146267482Y-101952899D01*
X146301161Y-101946200D01*
X146449487Y-101847091D01*
X147382377Y-100914201D01*
X151153856Y-100914201D01*
X151328819Y-100879399D01*
X151477145Y-100780290D01*
X152457767Y-99799668D01*
X160113090Y-99799668D01*
X161429077Y-101115655D01*
X161330014Y-101354225D01*
X161329587Y-101843628D01*
X161516479Y-102295942D01*
X161862238Y-102642305D01*
X162314225Y-102829986D01*
X162803628Y-102830413D01*
X163255942Y-102643521D01*
X163602305Y-102297762D01*
X163789986Y-101845775D01*
X163790413Y-101356372D01*
X163603521Y-100904058D01*
X163526596Y-100826999D01*
X163680421Y-100826999D01*
X163969077Y-101115655D01*
X163870014Y-101354225D01*
X163869587Y-101843628D01*
X164056479Y-102295942D01*
X164402238Y-102642305D01*
X164538284Y-102698796D01*
X164285852Y-102803357D01*
X164199446Y-103059841D01*
X165100000Y-103960395D01*
X166000554Y-103059841D01*
X165914148Y-102803357D01*
X165646287Y-102705357D01*
X165795942Y-102643521D01*
X166142305Y-102297762D01*
X166329986Y-101845775D01*
X166330413Y-101356372D01*
X166230943Y-101115635D01*
X166693289Y-100653289D01*
X166792398Y-100504963D01*
X166827200Y-100330000D01*
X166827200Y-98504130D01*
X166792398Y-98329167D01*
X166693289Y-98180841D01*
X163616948Y-95104500D01*
X163468622Y-95005391D01*
X163412322Y-94994192D01*
X163729305Y-94677762D01*
X163916986Y-94225775D01*
X163917413Y-93736372D01*
X163730521Y-93284058D01*
X163558763Y-93112000D01*
X164355230Y-93112000D01*
X164184695Y-93282238D01*
G36*
X128624695Y-93282238D02*
X128437014Y-93734225D01*
X128436587Y-94223628D01*
X128623479Y-94675942D01*
X128969238Y-95022305D01*
X129421225Y-95209986D01*
X129910628Y-95210413D01*
X130362942Y-95023521D01*
X130709305Y-94677762D01*
X130896986Y-94225775D01*
X130897413Y-93736372D01*
X130710521Y-93284058D01*
X130538763Y-93112000D01*
X131335230Y-93112000D01*
X131164695Y-93282238D01*
X130977014Y-93734225D01*
X130976587Y-94223628D01*
X131163479Y-94675942D01*
X131509238Y-95022305D01*
X131961225Y-95209986D01*
X132450628Y-95210413D01*
X132837470Y-95050574D01*
X134752244Y-96965348D01*
X134757160Y-96977245D01*
X134757160Y-100747578D01*
X134168068Y-101336670D01*
X134045908Y-101387146D01*
X133867123Y-101565618D01*
X133770247Y-101798923D01*
X133770026Y-102051541D01*
X133866496Y-102285014D01*
X134044968Y-102463799D01*
X134278273Y-102560675D01*
X134530891Y-102560896D01*
X134764364Y-102464426D01*
X134943149Y-102285954D01*
X134994273Y-102162833D01*
X135754452Y-101402654D01*
X135881091Y-101213125D01*
X135925561Y-100989562D01*
X135925560Y-100989557D01*
X135925560Y-96977217D01*
X135976249Y-96855143D01*
X135976470Y-96602525D01*
X135880000Y-96369052D01*
X135701528Y-96190267D01*
X135578407Y-96139143D01*
X134649379Y-95210115D01*
X134990628Y-95210413D01*
X135354271Y-95060159D01*
X136386446Y-95060159D01*
X136472852Y-95316643D01*
X137046336Y-95526458D01*
X137656460Y-95500839D01*
X138101148Y-95316643D01*
X138187554Y-95060159D01*
X137287000Y-94159605D01*
X136386446Y-95060159D01*
X135354271Y-95060159D01*
X135442942Y-95023521D01*
X135789305Y-94677762D01*
X135845796Y-94541716D01*
X135950357Y-94794148D01*
X136206841Y-94880554D01*
X137107395Y-93980000D01*
X137093253Y-93965858D01*
X137272858Y-93786253D01*
X137287000Y-93800395D01*
X137301143Y-93786253D01*
X137480748Y-93965858D01*
X137466605Y-93980000D01*
X138367159Y-94880554D01*
X138623643Y-94794148D01*
X138721643Y-94526287D01*
X138783479Y-94675942D01*
X139129238Y-95022305D01*
X139581225Y-95209986D01*
X140070628Y-95210413D01*
X140522942Y-95023521D01*
X140869305Y-94677762D01*
X141056986Y-94225775D01*
X141057413Y-93736372D01*
X140870521Y-93284058D01*
X140698763Y-93112000D01*
X141495230Y-93112000D01*
X141324695Y-93282238D01*
X141137014Y-93734225D01*
X141136587Y-94223628D01*
X141323479Y-94675942D01*
X141669238Y-95022305D01*
X142121225Y-95209986D01*
X142610628Y-95210413D01*
X143062942Y-95023521D01*
X143409305Y-94677762D01*
X143596986Y-94225775D01*
X143597413Y-93736372D01*
X143410521Y-93284058D01*
X143238763Y-93112000D01*
X144035230Y-93112000D01*
X143864695Y-93282238D01*
X143677014Y-93734225D01*
X143676587Y-94223628D01*
X143863479Y-94675942D01*
X144209238Y-95022305D01*
X144661225Y-95209986D01*
X145150628Y-95210413D01*
X145602942Y-95023521D01*
X145949305Y-94677762D01*
X146136986Y-94225775D01*
X146137413Y-93736372D01*
X145950521Y-93284058D01*
X145778763Y-93112000D01*
X146575230Y-93112000D01*
X146404695Y-93282238D01*
X146217014Y-93734225D01*
X146216587Y-94223628D01*
X146403479Y-94675942D01*
X146749238Y-95022305D01*
X147201225Y-95209986D01*
X147690628Y-95210413D01*
X148142942Y-95023521D01*
X148489305Y-94677762D01*
X148676986Y-94225775D01*
X148677413Y-93736372D01*
X148490521Y-93284058D01*
X148318763Y-93112000D01*
X149115230Y-93112000D01*
X148944695Y-93282238D01*
X148757014Y-93734225D01*
X148756587Y-94223628D01*
X148943479Y-94675942D01*
X149289238Y-95022305D01*
X149741225Y-95209986D01*
X150230628Y-95210413D01*
X150682942Y-95023521D01*
X151029305Y-94677762D01*
X151216986Y-94225775D01*
X151217413Y-93736372D01*
X151030521Y-93284058D01*
X150858763Y-93112000D01*
X151655230Y-93112000D01*
X151484695Y-93282238D01*
X151297014Y-93734225D01*
X151296587Y-94223628D01*
X151483479Y-94675942D01*
X151829238Y-95022305D01*
X152281225Y-95209986D01*
X152770628Y-95210413D01*
X153222942Y-95023521D01*
X153569305Y-94677762D01*
X153756986Y-94225775D01*
X153757413Y-93736372D01*
X153570521Y-93284058D01*
X153398763Y-93112000D01*
X154195230Y-93112000D01*
X154024695Y-93282238D01*
X153837014Y-93734225D01*
X153836587Y-94223628D01*
X154023479Y-94675942D01*
X154369238Y-95022305D01*
X154821225Y-95209986D01*
X155310628Y-95210413D01*
X155762942Y-95023521D01*
X156109305Y-94677762D01*
X156296986Y-94225775D01*
X156297413Y-93736372D01*
X156110521Y-93284058D01*
X155938763Y-93112000D01*
X156735230Y-93112000D01*
X156564695Y-93282238D01*
X156377014Y-93734225D01*
X156376587Y-94223628D01*
X156563479Y-94675942D01*
X156909238Y-95022305D01*
X157361225Y-95209986D01*
X157850628Y-95210413D01*
X158001497Y-95148075D01*
X158281222Y-95427800D01*
X153918937Y-95427800D01*
X153796863Y-95377111D01*
X153544245Y-95376890D01*
X153421035Y-95427800D01*
X140964937Y-95427800D01*
X140842863Y-95377111D01*
X140590245Y-95376890D01*
X140356772Y-95473360D01*
X140177987Y-95651832D01*
X140081111Y-95885137D01*
X140080890Y-96137755D01*
X140177360Y-96371228D01*
X140355832Y-96550013D01*
X140589137Y-96646889D01*
X140841755Y-96647110D01*
X140964965Y-96596200D01*
X153421063Y-96596200D01*
X153543137Y-96646889D01*
X153795755Y-96647110D01*
X153918965Y-96596200D01*
X162809687Y-96596200D01*
X164316936Y-98103449D01*
X164057695Y-98362238D01*
X163870014Y-98814225D01*
X163869587Y-99303628D01*
X164056479Y-99755942D01*
X164402238Y-100102305D01*
X164854225Y-100289986D01*
X165343628Y-100290413D01*
X165795942Y-100103521D01*
X165912800Y-99986867D01*
X165912800Y-100140622D01*
X165584345Y-100469077D01*
X165345775Y-100370014D01*
X164856372Y-100369587D01*
X164615635Y-100469057D01*
X164193088Y-100046510D01*
X164044762Y-99947401D01*
X163869799Y-99912599D01*
X163447198Y-99912599D01*
X163602305Y-99757762D01*
X163789986Y-99305775D01*
X163790413Y-98816372D01*
X163603521Y-98364058D01*
X163257762Y-98017695D01*
X162805775Y-97830014D01*
X162316372Y-97829587D01*
X161864058Y-98016479D01*
X161517695Y-98362238D01*
X161330014Y-98814225D01*
X161329785Y-99076614D01*
X160815139Y-98561968D01*
X160666813Y-98462859D01*
X160491850Y-98428057D01*
X152079007Y-98428057D01*
X151904043Y-98462859D01*
X151755717Y-98561968D01*
X151587887Y-98729799D01*
X146354803Y-98729799D01*
X146179840Y-98764601D01*
X146031514Y-98863709D01*
X143371423Y-101523801D01*
X137280276Y-101523801D01*
X137105313Y-101558603D01*
X136956987Y-101657712D01*
X136096332Y-102518367D01*
X135982145Y-102518267D01*
X135748672Y-102614737D01*
X135569887Y-102793209D01*
X135473011Y-103026514D01*
X135472790Y-103279132D01*
X135569260Y-103512605D01*
X135722886Y-103666501D01*
X135619652Y-103769554D01*
X135522776Y-104002859D01*
X135522555Y-104255477D01*
X135584348Y-104405025D01*
X135438440Y-104405025D01*
X135263477Y-104439827D01*
X135115151Y-104538936D01*
X134545669Y-105108418D01*
X134431482Y-105108318D01*
X134198009Y-105204788D01*
X134019224Y-105383260D01*
X133922348Y-105616565D01*
X133922127Y-105869183D01*
X134018597Y-106102656D01*
X134197069Y-106281441D01*
X134430374Y-106378317D01*
X134682992Y-106378538D01*
X134916465Y-106282068D01*
X135095250Y-106103596D01*
X135192126Y-105870291D01*
X135192227Y-105755016D01*
X135442998Y-105504245D01*
X135442894Y-105622982D01*
X135539364Y-105856455D01*
X135717836Y-106035240D01*
X135807404Y-106072432D01*
X135771883Y-106087109D01*
X135593098Y-106265581D01*
X135496222Y-106498886D01*
X135496001Y-106751504D01*
X135592471Y-106984977D01*
X135770943Y-107163762D01*
X136004248Y-107260638D01*
X136119523Y-107260739D01*
X137932100Y-109073316D01*
X138080426Y-109172425D01*
X138255389Y-109207227D01*
X151444534Y-109207227D01*
X155307316Y-113070009D01*
X154823372Y-113069587D01*
X154371058Y-113256479D01*
X154024695Y-113602238D01*
X153837014Y-114054225D01*
X153836587Y-114543628D01*
X154023479Y-114995942D01*
X154195237Y-115168000D01*
X153398770Y-115168000D01*
X153569305Y-114997762D01*
X153756986Y-114545775D01*
X153757413Y-114056372D01*
X153570521Y-113604058D01*
X153224762Y-113257695D01*
X152772775Y-113070014D01*
X152283372Y-113069587D01*
X151831058Y-113256479D01*
X151484695Y-113602238D01*
X151297014Y-114054225D01*
X151296587Y-114543628D01*
X151483479Y-114995942D01*
X151655237Y-115168000D01*
X150858770Y-115168000D01*
X151029305Y-114997762D01*
X151216986Y-114545775D01*
X151217413Y-114056372D01*
X151030521Y-113604058D01*
X150684762Y-113257695D01*
X150232775Y-113070014D01*
X149743372Y-113069587D01*
X149291058Y-113256479D01*
X148944695Y-113602238D01*
X148757014Y-114054225D01*
X148756587Y-114543628D01*
X148943479Y-114995942D01*
X149115237Y-115168000D01*
X148318770Y-115168000D01*
X148489305Y-114997762D01*
X148676986Y-114545775D01*
X148677413Y-114056372D01*
X148490521Y-113604058D01*
X148144762Y-113257695D01*
X147692775Y-113070014D01*
X147203372Y-113069587D01*
X146751058Y-113256479D01*
X146404695Y-113602238D01*
X146217014Y-114054225D01*
X146216587Y-114543628D01*
X146403479Y-114995942D01*
X146575237Y-115168000D01*
X145778770Y-115168000D01*
X145949305Y-114997762D01*
X146136986Y-114545775D01*
X146137413Y-114056372D01*
X145950521Y-113604058D01*
X145604762Y-113257695D01*
X145152775Y-113070014D01*
X144663372Y-113069587D01*
X144211058Y-113256479D01*
X143864695Y-113602238D01*
X143677014Y-114054225D01*
X143676587Y-114543628D01*
X143863479Y-114995942D01*
X144035237Y-115168000D01*
X143238770Y-115168000D01*
X143409305Y-114997762D01*
X143596986Y-114545775D01*
X143597413Y-114056372D01*
X143410521Y-113604058D01*
X143064762Y-113257695D01*
X142612775Y-113070014D01*
X142123372Y-113069587D01*
X141671058Y-113256479D01*
X141324695Y-113602238D01*
X141137014Y-114054225D01*
X141136587Y-114543628D01*
X141323479Y-114995942D01*
X141495237Y-115168000D01*
X140698770Y-115168000D01*
X140869305Y-114997762D01*
X141056986Y-114545775D01*
X141057413Y-114056372D01*
X140870521Y-113604058D01*
X140524762Y-113257695D01*
X140072775Y-113070014D01*
X139583372Y-113069587D01*
X139131058Y-113256479D01*
X138784695Y-113602238D01*
X138597014Y-114054225D01*
X138596587Y-114543628D01*
X138783479Y-114995942D01*
X138955237Y-115168000D01*
X125769595Y-115168000D01*
X124914838Y-114997978D01*
X124223775Y-114536225D01*
X123762022Y-113845164D01*
X123592000Y-112990405D01*
X123592000Y-110610910D01*
X136670045Y-110610910D01*
X136766515Y-110844383D01*
X136944987Y-111023168D01*
X137178292Y-111120044D01*
X137430910Y-111120265D01*
X137664383Y-111023795D01*
X137741112Y-110947200D01*
X139259160Y-110947200D01*
X139339832Y-111028013D01*
X139573137Y-111124889D01*
X139825755Y-111125110D01*
X140059228Y-111028640D01*
X140238013Y-110850168D01*
X140334889Y-110616863D01*
X140335110Y-110364245D01*
X140238640Y-110130772D01*
X140060168Y-109951987D01*
X139826863Y-109855111D01*
X139574245Y-109854890D01*
X139340772Y-109951360D01*
X139259189Y-110032800D01*
X137750831Y-110032800D01*
X137665323Y-109947142D01*
X137432018Y-109850266D01*
X137179400Y-109850045D01*
X136945927Y-109946515D01*
X136767142Y-110124987D01*
X136670266Y-110358292D01*
X136670045Y-110610910D01*
X123592000Y-110610910D01*
X123592000Y-95289595D01*
X123762022Y-94434836D01*
X124223775Y-93743775D01*
X124914838Y-93282022D01*
X125769595Y-93112000D01*
X128795230Y-93112000D01*
X128624695Y-93282238D01*
X128624695Y-93282238D01*
G37*
X128624695Y-93282238D02*
X128437014Y-93734225D01*
X128436587Y-94223628D01*
X128623479Y-94675942D01*
X128969238Y-95022305D01*
X129421225Y-95209986D01*
X129910628Y-95210413D01*
X130362942Y-95023521D01*
X130709305Y-94677762D01*
X130896986Y-94225775D01*
X130897413Y-93736372D01*
X130710521Y-93284058D01*
X130538763Y-93112000D01*
X131335230Y-93112000D01*
X131164695Y-93282238D01*
X130977014Y-93734225D01*
X130976587Y-94223628D01*
X131163479Y-94675942D01*
X131509238Y-95022305D01*
X131961225Y-95209986D01*
X132450628Y-95210413D01*
X132837470Y-95050574D01*
X134752244Y-96965348D01*
X134757160Y-96977245D01*
X134757160Y-100747578D01*
X134168068Y-101336670D01*
X134045908Y-101387146D01*
X133867123Y-101565618D01*
X133770247Y-101798923D01*
X133770026Y-102051541D01*
X133866496Y-102285014D01*
X134044968Y-102463799D01*
X134278273Y-102560675D01*
X134530891Y-102560896D01*
X134764364Y-102464426D01*
X134943149Y-102285954D01*
X134994273Y-102162833D01*
X135754452Y-101402654D01*
X135881091Y-101213125D01*
X135925561Y-100989562D01*
X135925560Y-100989557D01*
X135925560Y-96977217D01*
X135976249Y-96855143D01*
X135976470Y-96602525D01*
X135880000Y-96369052D01*
X135701528Y-96190267D01*
X135578407Y-96139143D01*
X134649379Y-95210115D01*
X134990628Y-95210413D01*
X135354271Y-95060159D01*
X136386446Y-95060159D01*
X136472852Y-95316643D01*
X137046336Y-95526458D01*
X137656460Y-95500839D01*
X138101148Y-95316643D01*
X138187554Y-95060159D01*
X137287000Y-94159605D01*
X136386446Y-95060159D01*
X135354271Y-95060159D01*
X135442942Y-95023521D01*
X135789305Y-94677762D01*
X135845796Y-94541716D01*
X135950357Y-94794148D01*
X136206841Y-94880554D01*
X137107395Y-93980000D01*
X137093253Y-93965858D01*
X137272858Y-93786253D01*
X137287000Y-93800395D01*
X137301143Y-93786253D01*
X137480748Y-93965858D01*
X137466605Y-93980000D01*
X138367159Y-94880554D01*
X138623643Y-94794148D01*
X138721643Y-94526287D01*
X138783479Y-94675942D01*
X139129238Y-95022305D01*
X139581225Y-95209986D01*
X140070628Y-95210413D01*
X140522942Y-95023521D01*
X140869305Y-94677762D01*
X141056986Y-94225775D01*
X141057413Y-93736372D01*
X140870521Y-93284058D01*
X140698763Y-93112000D01*
X141495230Y-93112000D01*
X141324695Y-93282238D01*
X141137014Y-93734225D01*
X141136587Y-94223628D01*
X141323479Y-94675942D01*
X141669238Y-95022305D01*
X142121225Y-95209986D01*
X142610628Y-95210413D01*
X143062942Y-95023521D01*
X143409305Y-94677762D01*
X143596986Y-94225775D01*
X143597413Y-93736372D01*
X143410521Y-93284058D01*
X143238763Y-93112000D01*
X144035230Y-93112000D01*
X143864695Y-93282238D01*
X143677014Y-93734225D01*
X143676587Y-94223628D01*
X143863479Y-94675942D01*
X144209238Y-95022305D01*
X144661225Y-95209986D01*
X145150628Y-95210413D01*
X145602942Y-95023521D01*
X145949305Y-94677762D01*
X146136986Y-94225775D01*
X146137413Y-93736372D01*
X145950521Y-93284058D01*
X145778763Y-93112000D01*
X146575230Y-93112000D01*
X146404695Y-93282238D01*
X146217014Y-93734225D01*
X146216587Y-94223628D01*
X146403479Y-94675942D01*
X146749238Y-95022305D01*
X147201225Y-95209986D01*
X147690628Y-95210413D01*
X148142942Y-95023521D01*
X148489305Y-94677762D01*
X148676986Y-94225775D01*
X148677413Y-93736372D01*
X148490521Y-93284058D01*
X148318763Y-93112000D01*
X149115230Y-93112000D01*
X148944695Y-93282238D01*
X148757014Y-93734225D01*
X148756587Y-94223628D01*
X148943479Y-94675942D01*
X149289238Y-95022305D01*
X149741225Y-95209986D01*
X150230628Y-95210413D01*
X150682942Y-95023521D01*
X151029305Y-94677762D01*
X151216986Y-94225775D01*
X151217413Y-93736372D01*
X151030521Y-93284058D01*
X150858763Y-93112000D01*
X151655230Y-93112000D01*
X151484695Y-93282238D01*
X151297014Y-93734225D01*
X151296587Y-94223628D01*
X151483479Y-94675942D01*
X151829238Y-95022305D01*
X152281225Y-95209986D01*
X152770628Y-95210413D01*
X153222942Y-95023521D01*
X153569305Y-94677762D01*
X153756986Y-94225775D01*
X153757413Y-93736372D01*
X153570521Y-93284058D01*
X153398763Y-93112000D01*
X154195230Y-93112000D01*
X154024695Y-93282238D01*
X153837014Y-93734225D01*
X153836587Y-94223628D01*
X154023479Y-94675942D01*
X154369238Y-95022305D01*
X154821225Y-95209986D01*
X155310628Y-95210413D01*
X155762942Y-95023521D01*
X156109305Y-94677762D01*
X156296986Y-94225775D01*
X156297413Y-93736372D01*
X156110521Y-93284058D01*
X155938763Y-93112000D01*
X156735230Y-93112000D01*
X156564695Y-93282238D01*
X156377014Y-93734225D01*
X156376587Y-94223628D01*
X156563479Y-94675942D01*
X156909238Y-95022305D01*
X157361225Y-95209986D01*
X157850628Y-95210413D01*
X158001497Y-95148075D01*
X158281222Y-95427800D01*
X153918937Y-95427800D01*
X153796863Y-95377111D01*
X153544245Y-95376890D01*
X153421035Y-95427800D01*
X140964937Y-95427800D01*
X140842863Y-95377111D01*
X140590245Y-95376890D01*
X140356772Y-95473360D01*
X140177987Y-95651832D01*
X140081111Y-95885137D01*
X140080890Y-96137755D01*
X140177360Y-96371228D01*
X140355832Y-96550013D01*
X140589137Y-96646889D01*
X140841755Y-96647110D01*
X140964965Y-96596200D01*
X153421063Y-96596200D01*
X153543137Y-96646889D01*
X153795755Y-96647110D01*
X153918965Y-96596200D01*
X162809687Y-96596200D01*
X164316936Y-98103449D01*
X164057695Y-98362238D01*
X163870014Y-98814225D01*
X163869587Y-99303628D01*
X164056479Y-99755942D01*
X164402238Y-100102305D01*
X164854225Y-100289986D01*
X165343628Y-100290413D01*
X165795942Y-100103521D01*
X165912800Y-99986867D01*
X165912800Y-100140622D01*
X165584345Y-100469077D01*
X165345775Y-100370014D01*
X164856372Y-100369587D01*
X164615635Y-100469057D01*
X164193088Y-100046510D01*
X164044762Y-99947401D01*
X163869799Y-99912599D01*
X163447198Y-99912599D01*
X163602305Y-99757762D01*
X163789986Y-99305775D01*
X163790413Y-98816372D01*
X163603521Y-98364058D01*
X163257762Y-98017695D01*
X162805775Y-97830014D01*
X162316372Y-97829587D01*
X161864058Y-98016479D01*
X161517695Y-98362238D01*
X161330014Y-98814225D01*
X161329785Y-99076614D01*
X160815139Y-98561968D01*
X160666813Y-98462859D01*
X160491850Y-98428057D01*
X152079007Y-98428057D01*
X151904043Y-98462859D01*
X151755717Y-98561968D01*
X151587887Y-98729799D01*
X146354803Y-98729799D01*
X146179840Y-98764601D01*
X146031514Y-98863709D01*
X143371423Y-101523801D01*
X137280276Y-101523801D01*
X137105313Y-101558603D01*
X136956987Y-101657712D01*
X136096332Y-102518367D01*
X135982145Y-102518267D01*
X135748672Y-102614737D01*
X135569887Y-102793209D01*
X135473011Y-103026514D01*
X135472790Y-103279132D01*
X135569260Y-103512605D01*
X135722886Y-103666501D01*
X135619652Y-103769554D01*
X135522776Y-104002859D01*
X135522555Y-104255477D01*
X135584348Y-104405025D01*
X135438440Y-104405025D01*
X135263477Y-104439827D01*
X135115151Y-104538936D01*
X134545669Y-105108418D01*
X134431482Y-105108318D01*
X134198009Y-105204788D01*
X134019224Y-105383260D01*
X133922348Y-105616565D01*
X133922127Y-105869183D01*
X134018597Y-106102656D01*
X134197069Y-106281441D01*
X134430374Y-106378317D01*
X134682992Y-106378538D01*
X134916465Y-106282068D01*
X135095250Y-106103596D01*
X135192126Y-105870291D01*
X135192227Y-105755016D01*
X135442998Y-105504245D01*
X135442894Y-105622982D01*
X135539364Y-105856455D01*
X135717836Y-106035240D01*
X135807404Y-106072432D01*
X135771883Y-106087109D01*
X135593098Y-106265581D01*
X135496222Y-106498886D01*
X135496001Y-106751504D01*
X135592471Y-106984977D01*
X135770943Y-107163762D01*
X136004248Y-107260638D01*
X136119523Y-107260739D01*
X137932100Y-109073316D01*
X138080426Y-109172425D01*
X138255389Y-109207227D01*
X151444534Y-109207227D01*
X155307316Y-113070009D01*
X154823372Y-113069587D01*
X154371058Y-113256479D01*
X154024695Y-113602238D01*
X153837014Y-114054225D01*
X153836587Y-114543628D01*
X154023479Y-114995942D01*
X154195237Y-115168000D01*
X153398770Y-115168000D01*
X153569305Y-114997762D01*
X153756986Y-114545775D01*
X153757413Y-114056372D01*
X153570521Y-113604058D01*
X153224762Y-113257695D01*
X152772775Y-113070014D01*
X152283372Y-113069587D01*
X151831058Y-113256479D01*
X151484695Y-113602238D01*
X151297014Y-114054225D01*
X151296587Y-114543628D01*
X151483479Y-114995942D01*
X151655237Y-115168000D01*
X150858770Y-115168000D01*
X151029305Y-114997762D01*
X151216986Y-114545775D01*
X151217413Y-114056372D01*
X151030521Y-113604058D01*
X150684762Y-113257695D01*
X150232775Y-113070014D01*
X149743372Y-113069587D01*
X149291058Y-113256479D01*
X148944695Y-113602238D01*
X148757014Y-114054225D01*
X148756587Y-114543628D01*
X148943479Y-114995942D01*
X149115237Y-115168000D01*
X148318770Y-115168000D01*
X148489305Y-114997762D01*
X148676986Y-114545775D01*
X148677413Y-114056372D01*
X148490521Y-113604058D01*
X148144762Y-113257695D01*
X147692775Y-113070014D01*
X147203372Y-113069587D01*
X146751058Y-113256479D01*
X146404695Y-113602238D01*
X146217014Y-114054225D01*
X146216587Y-114543628D01*
X146403479Y-114995942D01*
X146575237Y-115168000D01*
X145778770Y-115168000D01*
X145949305Y-114997762D01*
X146136986Y-114545775D01*
X146137413Y-114056372D01*
X145950521Y-113604058D01*
X145604762Y-113257695D01*
X145152775Y-113070014D01*
X144663372Y-113069587D01*
X144211058Y-113256479D01*
X143864695Y-113602238D01*
X143677014Y-114054225D01*
X143676587Y-114543628D01*
X143863479Y-114995942D01*
X144035237Y-115168000D01*
X143238770Y-115168000D01*
X143409305Y-114997762D01*
X143596986Y-114545775D01*
X143597413Y-114056372D01*
X143410521Y-113604058D01*
X143064762Y-113257695D01*
X142612775Y-113070014D01*
X142123372Y-113069587D01*
X141671058Y-113256479D01*
X141324695Y-113602238D01*
X141137014Y-114054225D01*
X141136587Y-114543628D01*
X141323479Y-114995942D01*
X141495237Y-115168000D01*
X140698770Y-115168000D01*
X140869305Y-114997762D01*
X141056986Y-114545775D01*
X141057413Y-114056372D01*
X140870521Y-113604058D01*
X140524762Y-113257695D01*
X140072775Y-113070014D01*
X139583372Y-113069587D01*
X139131058Y-113256479D01*
X138784695Y-113602238D01*
X138597014Y-114054225D01*
X138596587Y-114543628D01*
X138783479Y-114995942D01*
X138955237Y-115168000D01*
X125769595Y-115168000D01*
X124914838Y-114997978D01*
X124223775Y-114536225D01*
X123762022Y-113845164D01*
X123592000Y-112990405D01*
X123592000Y-110610910D01*
X136670045Y-110610910D01*
X136766515Y-110844383D01*
X136944987Y-111023168D01*
X137178292Y-111120044D01*
X137430910Y-111120265D01*
X137664383Y-111023795D01*
X137741112Y-110947200D01*
X139259160Y-110947200D01*
X139339832Y-111028013D01*
X139573137Y-111124889D01*
X139825755Y-111125110D01*
X140059228Y-111028640D01*
X140238013Y-110850168D01*
X140334889Y-110616863D01*
X140335110Y-110364245D01*
X140238640Y-110130772D01*
X140060168Y-109951987D01*
X139826863Y-109855111D01*
X139574245Y-109854890D01*
X139340772Y-109951360D01*
X139259189Y-110032800D01*
X137750831Y-110032800D01*
X137665323Y-109947142D01*
X137432018Y-109850266D01*
X137179400Y-109850045D01*
X136945927Y-109946515D01*
X136767142Y-110124987D01*
X136670266Y-110358292D01*
X136670045Y-110610910D01*
X123592000Y-110610910D01*
X123592000Y-95289595D01*
X123762022Y-94434836D01*
X124223775Y-93743775D01*
X124914838Y-93282022D01*
X125769595Y-93112000D01*
X128795230Y-93112000D01*
X128624695Y-93282238D01*
M02*
