M48
;DRILL file {KiCad 4.0.7} date 2018 March 24, Saturday 15:14:01
;FORMAT={-:-/ absolute / inch / decimal}
FMAT,2
INCH,TZ
T1C0.016
T2C0.039
T3C0.100
%
G90
G05
M72
T1
X5.Y-3.875
X5.Y-4.1
X5.Y-4.325
X5.1Y-3.825
X5.1Y-4.375
X5.1Y-4.475
X5.25Y-3.825
X5.2516Y-4.1988
X5.2915Y-4.0128
X5.2975Y-4.1631
X5.3Y-4.375
X5.3Y-4.475
X5.3284Y-3.8082
X5.3307Y-4.0374
X5.3574Y-4.1534
X5.3586Y-4.0612
X5.3595Y-4.1979
X5.3605Y-4.0996
X5.3901Y-4.1784
X5.4057Y-4.3498
X5.5Y-4.35
X5.54Y-3.78
X5.64Y-3.91
X5.64Y-3.99
X5.64Y-4.0681
X5.64Y-4.2355
X5.64Y-4.31
X5.64Y-4.39
X5.6406Y-3.835
X5.641Y-4.1188
X5.7Y-4.01
X5.9384Y-4.2372
X5.94Y-3.93
X5.94Y-4.38
X5.95Y-4.05
X5.95Y-4.05
X5.975Y-3.835
X6.05Y-3.78
X6.1475Y-4.4239
X6.15Y-4.25
X6.15Y-4.375
X6.2249Y-4.4241
X6.23Y-3.8681
X6.3Y-4.
X6.3Y-4.125
X6.3Y-4.4
X6.34Y-3.83
X6.45Y-4.41
X6.575Y-3.85
X6.58Y-4.
X6.58Y-4.1
X6.58Y-4.25
X6.6Y-4.35
X6.75Y-3.85
X6.75Y-4.
X6.75Y-4.1
X6.75Y-4.25
X6.75Y-4.35
T2
X5.105Y-3.7
X5.205Y-3.7
X5.305Y-3.7
X5.405Y-3.7
X5.505Y-3.7
X5.505Y-4.5
X5.605Y-3.7
X5.605Y-4.5
X5.705Y-3.7
X5.705Y-4.5
X5.805Y-3.7
X5.805Y-4.5
X5.905Y-3.7
X5.905Y-4.5
X6.005Y-3.7
X6.005Y-4.5
X6.105Y-3.7
X6.105Y-4.5
X6.205Y-3.7
X6.205Y-4.5
X6.305Y-3.7
X6.305Y-4.5
X6.4Y-3.9
X6.4Y-4.
X6.4Y-4.1
X6.4Y-4.2
X6.405Y-3.7
X6.405Y-4.5
X6.5Y-3.9
X6.5Y-4.
X6.5Y-4.1
X6.5Y-4.2
X6.505Y-3.7
X6.505Y-4.5
X6.605Y-3.7
X6.605Y-4.5
T3
X6.755Y-3.75
X6.755Y-4.45
T0
M30
