M48
; DRILL file {KiCad (5.1.8-0-10_14)} date Saturday, February 06, 2021 at 12:21:19 PM
; FORMAT={-:-/ absolute / inch / decimal}
; #@! TF.CreationDate,2021-02-06T12:21:19+09:00
; #@! TF.GenerationSoftware,Kicad,Pcbnew,(5.1.8-0-10_14)
; #@! TF.FileFunction,Plated,1,2,PTH
FMAT,2
INCH
T1C0.0157
T2C0.0276
T3C0.0315
T4C0.0354
T5C0.0394
%
G90
G05
T1
X4.5Y-2.9
X4.5Y-3.0
X4.5Y-3.1
X4.5Y-3.2
X4.5Y-3.3
X4.55Y-2.85
X4.55Y-2.95
X4.55Y-3.05
X4.55Y-3.15
X4.55Y-3.25
X4.55Y-3.35
X4.6Y-3.1
X4.65Y-3.25
X4.65Y-3.35
X4.7215Y-3.1538
X4.75Y-2.85
X4.75Y-2.95
X4.773Y-3.312
X4.8Y-3.1
X4.85Y-2.85
X4.85Y-2.945
X4.85Y-3.05
X4.85Y-3.15
X4.8517Y-3.25
X4.95Y-3.35
X5.025Y-2.94
X5.025Y-3.02
X5.025Y-3.09
X5.05Y-2.85
X5.05Y-3.15
X5.05Y-3.25
X5.15Y-3.35
X5.25Y-3.35
X5.315Y-2.945
X5.315Y-3.02
X5.35Y-2.855
X5.355Y-3.1
X5.355Y-3.182
X5.379Y-3.259
X5.4993Y-3.3397
X5.547Y-3.172
X5.55Y-2.855
X5.585Y-3.04
X5.585Y-3.14
X5.595Y-3.325
T2
X4.9459Y-2.9416
X4.9459Y-3.0203
X4.9459Y-3.0991
X4.9459Y-3.1778
X4.9459Y-3.2565
X5.1546Y-2.9416
X5.1546Y-3.0203
X5.1546Y-3.0991
X5.1546Y-3.1778
X5.1546Y-3.2565
X5.2459Y-2.9416
X5.2459Y-3.0203
X5.2459Y-3.0991
X5.2459Y-3.1778
X5.2459Y-3.2565
X5.4546Y-2.9416
X5.4546Y-3.0203
X5.4546Y-3.0991
X5.4546Y-3.1778
X5.4546Y-3.2565
T3
X4.6Y-2.9404
X4.6Y-3.2404
X4.7Y-3.2404
X4.8Y-2.9404
X4.8Y-3.2404
T4
X4.5Y-2.8
X4.5Y-3.4
X4.6Y-2.8
X4.6Y-3.4
X4.7Y-2.8
X4.7Y-3.4
X4.8Y-2.8
X4.8Y-3.4
X4.9Y-2.8
X4.9Y-3.4
X5.0Y-2.8
X5.0Y-3.4
X5.1Y-2.8
X5.1Y-3.4
X5.2Y-2.8
X5.2Y-3.4
X5.3Y-2.8
X5.3Y-3.4
X5.4Y-2.8
X5.4Y-3.4
X5.5Y-2.8
X5.5Y-3.4
X5.6Y-2.8
X5.6Y-3.4
T5
X5.585Y-2.95
X5.585Y-3.25
T0
M30
