%TF.GenerationSoftware,KiCad,Pcbnew,(5.1.8-0-10_14)*%
%TF.CreationDate,2021-02-06T12:21:22+09:00*%
%TF.ProjectId,usb-pidvid-fixture,7573622d-7069-4647-9669-642d66697874,rev?*%
%TF.SameCoordinates,Original*%
%TF.FileFunction,Legend,Bot*%
%TF.FilePolarity,Positive*%
%FSLAX46Y46*%
G04 Gerber Fmt 4.6, Leading zero omitted, Abs format (unit mm)*
G04 Created by KiCad (PCBNEW (5.1.8-0-10_14)) date 2021-02-06 12:21:22*
%MOMM*%
%LPD*%
G01*
G04 APERTURE LIST*
%ADD10C,0.120000*%
%ADD11C,0.200000*%
%ADD12C,0.150000*%
G04 APERTURE END LIST*
D10*
%TO.C,JP1*%
X118380000Y-76070000D02*
X118380000Y-78870000D01*
X119080000Y-79520000D02*
X119680000Y-79520000D01*
X120380000Y-78870000D02*
X120380000Y-76070000D01*
X119680000Y-75420000D02*
X119080000Y-75420000D01*
X118380000Y-78820000D02*
G75*
G03*
X119080000Y-79520000I700000J0D01*
G01*
X119680000Y-79520000D02*
G75*
G03*
X120380000Y-78820000I0J700000D01*
G01*
X120380000Y-76120000D02*
G75*
G03*
X119680000Y-75420000I-700000J0D01*
G01*
X119080000Y-75420000D02*
G75*
G03*
X118380000Y-76120000I0J-700000D01*
G01*
%TO.C,R1*%
X136129500Y-76454724D02*
X136129500Y-75945276D01*
X137174500Y-76454724D02*
X137174500Y-75945276D01*
%TO.C,R2*%
X129681500Y-76454724D02*
X129681500Y-75945276D01*
X128636500Y-76454724D02*
X128636500Y-75945276D01*
%TO.C,J1*%
D11*
X142830476Y-85197904D02*
X142830476Y-84397904D01*
X142640000Y-84397904D01*
X142525714Y-84436000D01*
X142449523Y-84512190D01*
X142411428Y-84588380D01*
X142373333Y-84740761D01*
X142373333Y-84855047D01*
X142411428Y-85007428D01*
X142449523Y-85083619D01*
X142525714Y-85159809D01*
X142640000Y-85197904D01*
X142830476Y-85197904D01*
X141992380Y-85197904D02*
X141840000Y-85197904D01*
X141763809Y-85159809D01*
X141725714Y-85121714D01*
X141649523Y-85007428D01*
X141611428Y-84855047D01*
X141611428Y-84550285D01*
X141649523Y-84474095D01*
X141687619Y-84436000D01*
X141763809Y-84397904D01*
X141916190Y-84397904D01*
X141992380Y-84436000D01*
X142030476Y-84474095D01*
X142068571Y-84550285D01*
X142068571Y-84740761D01*
X142030476Y-84816952D01*
X141992380Y-84855047D01*
X141916190Y-84893142D01*
X141763809Y-84893142D01*
X141687619Y-84855047D01*
X141649523Y-84816952D01*
X141611428Y-84740761D01*
X140271428Y-84969333D02*
X139890476Y-84969333D01*
X140347619Y-85197904D02*
X140080952Y-84397904D01*
X139814285Y-85197904D01*
X139166666Y-84397904D02*
X139547619Y-84397904D01*
X139585714Y-84778857D01*
X139547619Y-84740761D01*
X139471428Y-84702666D01*
X139280952Y-84702666D01*
X139204761Y-84740761D01*
X139166666Y-84778857D01*
X139128571Y-84855047D01*
X139128571Y-85045523D01*
X139166666Y-85121714D01*
X139204761Y-85159809D01*
X139280952Y-85197904D01*
X139471428Y-85197904D01*
X139547619Y-85159809D01*
X139585714Y-85121714D01*
X137750476Y-85197904D02*
X137750476Y-84397904D01*
X137560000Y-84397904D01*
X137445714Y-84436000D01*
X137369523Y-84512190D01*
X137331428Y-84588380D01*
X137293333Y-84740761D01*
X137293333Y-84855047D01*
X137331428Y-85007428D01*
X137369523Y-85083619D01*
X137445714Y-85159809D01*
X137560000Y-85197904D01*
X137750476Y-85197904D01*
X137026666Y-84397904D02*
X136493333Y-84397904D01*
X136836190Y-85197904D01*
X135210476Y-85197904D02*
X135210476Y-84397904D01*
X135020000Y-84397904D01*
X134905714Y-84436000D01*
X134829523Y-84512190D01*
X134791428Y-84588380D01*
X134753333Y-84740761D01*
X134753333Y-84855047D01*
X134791428Y-85007428D01*
X134829523Y-85083619D01*
X134905714Y-85159809D01*
X135020000Y-85197904D01*
X135210476Y-85197904D01*
X134067619Y-84397904D02*
X134220000Y-84397904D01*
X134296190Y-84436000D01*
X134334285Y-84474095D01*
X134410476Y-84588380D01*
X134448571Y-84740761D01*
X134448571Y-85045523D01*
X134410476Y-85121714D01*
X134372380Y-85159809D01*
X134296190Y-85197904D01*
X134143809Y-85197904D01*
X134067619Y-85159809D01*
X134029523Y-85121714D01*
X133991428Y-85045523D01*
X133991428Y-84855047D01*
X134029523Y-84778857D01*
X134067619Y-84740761D01*
X134143809Y-84702666D01*
X134296190Y-84702666D01*
X134372380Y-84740761D01*
X134410476Y-84778857D01*
X134448571Y-84855047D01*
X132670476Y-85197904D02*
X132670476Y-84397904D01*
X132480000Y-84397904D01*
X132365714Y-84436000D01*
X132289523Y-84512190D01*
X132251428Y-84588380D01*
X132213333Y-84740761D01*
X132213333Y-84855047D01*
X132251428Y-85007428D01*
X132289523Y-85083619D01*
X132365714Y-85159809D01*
X132480000Y-85197904D01*
X132670476Y-85197904D01*
X131489523Y-84397904D02*
X131870476Y-84397904D01*
X131908571Y-84778857D01*
X131870476Y-84740761D01*
X131794285Y-84702666D01*
X131603809Y-84702666D01*
X131527619Y-84740761D01*
X131489523Y-84778857D01*
X131451428Y-84855047D01*
X131451428Y-85045523D01*
X131489523Y-85121714D01*
X131527619Y-85159809D01*
X131603809Y-85197904D01*
X131794285Y-85197904D01*
X131870476Y-85159809D01*
X131908571Y-85121714D01*
X130111428Y-84969333D02*
X129730476Y-84969333D01*
X130187619Y-85197904D02*
X129920952Y-84397904D01*
X129654285Y-85197904D01*
X129044761Y-84664571D02*
X129044761Y-85197904D01*
X129235238Y-84359809D02*
X129425714Y-84931238D01*
X128930476Y-84931238D01*
X127952380Y-85159809D02*
X127838095Y-85197904D01*
X127647619Y-85197904D01*
X127571428Y-85159809D01*
X127533333Y-85121714D01*
X127495238Y-85045523D01*
X127495238Y-84969333D01*
X127533333Y-84893142D01*
X127571428Y-84855047D01*
X127647619Y-84816952D01*
X127800000Y-84778857D01*
X127876190Y-84740761D01*
X127914285Y-84702666D01*
X127952380Y-84626476D01*
X127952380Y-84550285D01*
X127914285Y-84474095D01*
X127876190Y-84436000D01*
X127800000Y-84397904D01*
X127609523Y-84397904D01*
X127495238Y-84436000D01*
X126695238Y-85121714D02*
X126733333Y-85159809D01*
X126847619Y-85197904D01*
X126923809Y-85197904D01*
X127038095Y-85159809D01*
X127114285Y-85083619D01*
X127152380Y-85007428D01*
X127190476Y-84855047D01*
X127190476Y-84740761D01*
X127152380Y-84588380D01*
X127114285Y-84512190D01*
X127038095Y-84436000D01*
X126923809Y-84397904D01*
X126847619Y-84397904D01*
X126733333Y-84436000D01*
X126695238Y-84474095D01*
X125971428Y-85197904D02*
X126352380Y-85197904D01*
X126352380Y-84397904D01*
X125431428Y-85159809D02*
X125317142Y-85197904D01*
X125126666Y-85197904D01*
X125050476Y-85159809D01*
X125012380Y-85121714D01*
X124974285Y-85045523D01*
X124974285Y-84969333D01*
X125012380Y-84893142D01*
X125050476Y-84855047D01*
X125126666Y-84816952D01*
X125279047Y-84778857D01*
X125355238Y-84740761D01*
X125393333Y-84702666D01*
X125431428Y-84626476D01*
X125431428Y-84550285D01*
X125393333Y-84474095D01*
X125355238Y-84436000D01*
X125279047Y-84397904D01*
X125088571Y-84397904D01*
X124974285Y-84436000D01*
X124631428Y-85197904D02*
X124631428Y-84397904D01*
X124440952Y-84397904D01*
X124326666Y-84436000D01*
X124250476Y-84512190D01*
X124212380Y-84588380D01*
X124174285Y-84740761D01*
X124174285Y-84855047D01*
X124212380Y-85007428D01*
X124250476Y-85083619D01*
X124326666Y-85159809D01*
X124440952Y-85197904D01*
X124631428Y-85197904D01*
X123869523Y-84969333D02*
X123488571Y-84969333D01*
X123945714Y-85197904D02*
X123679047Y-84397904D01*
X123412380Y-85197904D01*
X122529523Y-84436000D02*
X122605714Y-84397904D01*
X122720000Y-84397904D01*
X122834285Y-84436000D01*
X122910476Y-84512190D01*
X122948571Y-84588380D01*
X122986666Y-84740761D01*
X122986666Y-84855047D01*
X122948571Y-85007428D01*
X122910476Y-85083619D01*
X122834285Y-85159809D01*
X122720000Y-85197904D01*
X122643809Y-85197904D01*
X122529523Y-85159809D01*
X122491428Y-85121714D01*
X122491428Y-84855047D01*
X122643809Y-84855047D01*
X122148571Y-85197904D02*
X122148571Y-84397904D01*
X121691428Y-85197904D01*
X121691428Y-84397904D01*
X121310476Y-85197904D02*
X121310476Y-84397904D01*
X121120000Y-84397904D01*
X121005714Y-84436000D01*
X120929523Y-84512190D01*
X120891428Y-84588380D01*
X120853333Y-84740761D01*
X120853333Y-84855047D01*
X120891428Y-85007428D01*
X120929523Y-85083619D01*
X121005714Y-85159809D01*
X121120000Y-85197904D01*
X121310476Y-85197904D01*
X120008571Y-85197904D02*
X120008571Y-84397904D01*
X119551428Y-85197904D01*
X119551428Y-84397904D01*
X118713333Y-85121714D02*
X118751428Y-85159809D01*
X118865714Y-85197904D01*
X118941904Y-85197904D01*
X119056190Y-85159809D01*
X119132380Y-85083619D01*
X119170476Y-85007428D01*
X119208571Y-84855047D01*
X119208571Y-84740761D01*
X119170476Y-84588380D01*
X119132380Y-84512190D01*
X119056190Y-84436000D01*
X118941904Y-84397904D01*
X118865714Y-84397904D01*
X118751428Y-84436000D01*
X118713333Y-84474095D01*
X117659047Y-84397904D02*
X117582857Y-84397904D01*
X117506666Y-84436000D01*
X117468571Y-84474095D01*
X117430476Y-84550285D01*
X117392380Y-84702666D01*
X117392380Y-84893142D01*
X117430476Y-85045523D01*
X117468571Y-85121714D01*
X117506666Y-85159809D01*
X117582857Y-85197904D01*
X117659047Y-85197904D01*
X117735238Y-85159809D01*
X117773333Y-85121714D01*
X117811428Y-85045523D01*
X117849523Y-84893142D01*
X117849523Y-84702666D01*
X117811428Y-84550285D01*
X117773333Y-84474095D01*
X117735238Y-84436000D01*
X117659047Y-84397904D01*
X116592380Y-85197904D02*
X116859047Y-84816952D01*
X117049523Y-85197904D02*
X117049523Y-84397904D01*
X116744761Y-84397904D01*
X116668571Y-84436000D01*
X116630476Y-84474095D01*
X116592380Y-84550285D01*
X116592380Y-84664571D01*
X116630476Y-84740761D01*
X116668571Y-84778857D01*
X116744761Y-84816952D01*
X117049523Y-84816952D01*
X116325714Y-84397904D02*
X115792380Y-85197904D01*
X115792380Y-84397904D02*
X116325714Y-85197904D01*
X114757142Y-85197904D02*
X115214285Y-85197904D01*
X114985714Y-85197904D02*
X114985714Y-84397904D01*
X115061904Y-84512190D01*
X115138095Y-84588380D01*
X115214285Y-84626476D01*
X114528571Y-84397904D02*
X114071428Y-84397904D01*
X114300000Y-85197904D02*
X114300000Y-84397904D01*
X113880952Y-84397904D02*
X113347619Y-85197904D01*
X113347619Y-84397904D02*
X113880952Y-85197904D01*
X143211428Y-73132904D02*
X143211428Y-72332904D01*
X143020952Y-72332904D01*
X142906666Y-72371000D01*
X142830476Y-72447190D01*
X142792380Y-72523380D01*
X142754285Y-72675761D01*
X142754285Y-72790047D01*
X142792380Y-72942428D01*
X142830476Y-73018619D01*
X142906666Y-73094809D01*
X143020952Y-73132904D01*
X143211428Y-73132904D01*
X141992380Y-73132904D02*
X142449523Y-73132904D01*
X142220952Y-73132904D02*
X142220952Y-72332904D01*
X142297142Y-72447190D01*
X142373333Y-72523380D01*
X142449523Y-72561476D01*
X141497142Y-72332904D02*
X141420952Y-72332904D01*
X141344761Y-72371000D01*
X141306666Y-72409095D01*
X141268571Y-72485285D01*
X141230476Y-72637666D01*
X141230476Y-72828142D01*
X141268571Y-72980523D01*
X141306666Y-73056714D01*
X141344761Y-73094809D01*
X141420952Y-73132904D01*
X141497142Y-73132904D01*
X141573333Y-73094809D01*
X141611428Y-73056714D01*
X141649523Y-72980523D01*
X141687619Y-72828142D01*
X141687619Y-72637666D01*
X141649523Y-72485285D01*
X141611428Y-72409095D01*
X141573333Y-72371000D01*
X141497142Y-72332904D01*
X140385714Y-73132904D02*
X140385714Y-72332904D01*
X140119047Y-72904333D01*
X139852380Y-72332904D01*
X139852380Y-73132904D01*
X139319047Y-72332904D02*
X139166666Y-72332904D01*
X139090476Y-72371000D01*
X139014285Y-72447190D01*
X138976190Y-72599571D01*
X138976190Y-72866238D01*
X139014285Y-73018619D01*
X139090476Y-73094809D01*
X139166666Y-73132904D01*
X139319047Y-73132904D01*
X139395238Y-73094809D01*
X139471428Y-73018619D01*
X139509523Y-72866238D01*
X139509523Y-72599571D01*
X139471428Y-72447190D01*
X139395238Y-72371000D01*
X139319047Y-72332904D01*
X137807619Y-73094809D02*
X137693333Y-73132904D01*
X137502857Y-73132904D01*
X137426666Y-73094809D01*
X137388571Y-73056714D01*
X137350476Y-72980523D01*
X137350476Y-72904333D01*
X137388571Y-72828142D01*
X137426666Y-72790047D01*
X137502857Y-72751952D01*
X137655238Y-72713857D01*
X137731428Y-72675761D01*
X137769523Y-72637666D01*
X137807619Y-72561476D01*
X137807619Y-72485285D01*
X137769523Y-72409095D01*
X137731428Y-72371000D01*
X137655238Y-72332904D01*
X137464761Y-72332904D01*
X137350476Y-72371000D01*
X136855238Y-72332904D02*
X136702857Y-72332904D01*
X136626666Y-72371000D01*
X136550476Y-72447190D01*
X136512380Y-72599571D01*
X136512380Y-72866238D01*
X136550476Y-73018619D01*
X136626666Y-73094809D01*
X136702857Y-73132904D01*
X136855238Y-73132904D01*
X136931428Y-73094809D01*
X137007619Y-73018619D01*
X137045714Y-72866238D01*
X137045714Y-72599571D01*
X137007619Y-72447190D01*
X136931428Y-72371000D01*
X136855238Y-72332904D01*
X135648571Y-73094809D02*
X135534285Y-73132904D01*
X135343809Y-73132904D01*
X135267619Y-73094809D01*
X135229523Y-73056714D01*
X135191428Y-72980523D01*
X135191428Y-72904333D01*
X135229523Y-72828142D01*
X135267619Y-72790047D01*
X135343809Y-72751952D01*
X135496190Y-72713857D01*
X135572380Y-72675761D01*
X135610476Y-72637666D01*
X135648571Y-72561476D01*
X135648571Y-72485285D01*
X135610476Y-72409095D01*
X135572380Y-72371000D01*
X135496190Y-72332904D01*
X135305714Y-72332904D01*
X135191428Y-72371000D01*
X134391428Y-73056714D02*
X134429523Y-73094809D01*
X134543809Y-73132904D01*
X134620000Y-73132904D01*
X134734285Y-73094809D01*
X134810476Y-73018619D01*
X134848571Y-72942428D01*
X134886666Y-72790047D01*
X134886666Y-72675761D01*
X134848571Y-72523380D01*
X134810476Y-72447190D01*
X134734285Y-72371000D01*
X134620000Y-72332904D01*
X134543809Y-72332904D01*
X134429523Y-72371000D01*
X134391428Y-72409095D01*
X134048571Y-73132904D02*
X134048571Y-72332904D01*
X133591428Y-73132904D02*
X133934285Y-72675761D01*
X133591428Y-72332904D02*
X134048571Y-72790047D01*
X132651428Y-72904333D02*
X132270476Y-72904333D01*
X132727619Y-73132904D02*
X132460952Y-72332904D01*
X132194285Y-73132904D01*
X131775238Y-72332904D02*
X131699047Y-72332904D01*
X131622857Y-72371000D01*
X131584761Y-72409095D01*
X131546666Y-72485285D01*
X131508571Y-72637666D01*
X131508571Y-72828142D01*
X131546666Y-72980523D01*
X131584761Y-73056714D01*
X131622857Y-73094809D01*
X131699047Y-73132904D01*
X131775238Y-73132904D01*
X131851428Y-73094809D01*
X131889523Y-73056714D01*
X131927619Y-72980523D01*
X131965714Y-72828142D01*
X131965714Y-72637666D01*
X131927619Y-72485285D01*
X131889523Y-72409095D01*
X131851428Y-72371000D01*
X131775238Y-72332904D01*
X130111428Y-72904333D02*
X129730476Y-72904333D01*
X130187619Y-73132904D02*
X129920952Y-72332904D01*
X129654285Y-73132904D01*
X128968571Y-73132904D02*
X129425714Y-73132904D01*
X129197142Y-73132904D02*
X129197142Y-72332904D01*
X129273333Y-72447190D01*
X129349523Y-72523380D01*
X129425714Y-72561476D01*
X127571428Y-72904333D02*
X127190476Y-72904333D01*
X127647619Y-73132904D02*
X127380952Y-72332904D01*
X127114285Y-73132904D01*
X126885714Y-72409095D02*
X126847619Y-72371000D01*
X126771428Y-72332904D01*
X126580952Y-72332904D01*
X126504761Y-72371000D01*
X126466666Y-72409095D01*
X126428571Y-72485285D01*
X126428571Y-72561476D01*
X126466666Y-72675761D01*
X126923809Y-73132904D01*
X126428571Y-73132904D01*
X125031428Y-72904333D02*
X124650476Y-72904333D01*
X125107619Y-73132904D02*
X124840952Y-72332904D01*
X124574285Y-73132904D01*
X124383809Y-72332904D02*
X123888571Y-72332904D01*
X124155238Y-72637666D01*
X124040952Y-72637666D01*
X123964761Y-72675761D01*
X123926666Y-72713857D01*
X123888571Y-72790047D01*
X123888571Y-72980523D01*
X123926666Y-73056714D01*
X123964761Y-73094809D01*
X124040952Y-73132904D01*
X124269523Y-73132904D01*
X124345714Y-73094809D01*
X124383809Y-73056714D01*
X122986666Y-72332904D02*
X122720000Y-73132904D01*
X122453333Y-72332904D01*
X121729523Y-73056714D02*
X121767619Y-73094809D01*
X121881904Y-73132904D01*
X121958095Y-73132904D01*
X122072380Y-73094809D01*
X122148571Y-73018619D01*
X122186666Y-72942428D01*
X122224761Y-72790047D01*
X122224761Y-72675761D01*
X122186666Y-72523380D01*
X122148571Y-72447190D01*
X122072380Y-72371000D01*
X121958095Y-72332904D01*
X121881904Y-72332904D01*
X121767619Y-72371000D01*
X121729523Y-72409095D01*
X120929523Y-73056714D02*
X120967619Y-73094809D01*
X121081904Y-73132904D01*
X121158095Y-73132904D01*
X121272380Y-73094809D01*
X121348571Y-73018619D01*
X121386666Y-72942428D01*
X121424761Y-72790047D01*
X121424761Y-72675761D01*
X121386666Y-72523380D01*
X121348571Y-72447190D01*
X121272380Y-72371000D01*
X121158095Y-72332904D01*
X121081904Y-72332904D01*
X120967619Y-72371000D01*
X120929523Y-72409095D01*
X119818095Y-73132904D02*
X120084761Y-72751952D01*
X120275238Y-73132904D02*
X120275238Y-72332904D01*
X119970476Y-72332904D01*
X119894285Y-72371000D01*
X119856190Y-72409095D01*
X119818095Y-72485285D01*
X119818095Y-72599571D01*
X119856190Y-72675761D01*
X119894285Y-72713857D01*
X119970476Y-72751952D01*
X120275238Y-72751952D01*
X119513333Y-73094809D02*
X119399047Y-73132904D01*
X119208571Y-73132904D01*
X119132380Y-73094809D01*
X119094285Y-73056714D01*
X119056190Y-72980523D01*
X119056190Y-72904333D01*
X119094285Y-72828142D01*
X119132380Y-72790047D01*
X119208571Y-72751952D01*
X119360952Y-72713857D01*
X119437142Y-72675761D01*
X119475238Y-72637666D01*
X119513333Y-72561476D01*
X119513333Y-72485285D01*
X119475238Y-72409095D01*
X119437142Y-72371000D01*
X119360952Y-72332904D01*
X119170476Y-72332904D01*
X119056190Y-72371000D01*
X118827619Y-72332904D02*
X118370476Y-72332904D01*
X118599047Y-73132904D02*
X118599047Y-72332904D01*
X117449523Y-72371000D02*
X117525714Y-72332904D01*
X117640000Y-72332904D01*
X117754285Y-72371000D01*
X117830476Y-72447190D01*
X117868571Y-72523380D01*
X117906666Y-72675761D01*
X117906666Y-72790047D01*
X117868571Y-72942428D01*
X117830476Y-73018619D01*
X117754285Y-73094809D01*
X117640000Y-73132904D01*
X117563809Y-73132904D01*
X117449523Y-73094809D01*
X117411428Y-73056714D01*
X117411428Y-72790047D01*
X117563809Y-72790047D01*
X117068571Y-73132904D02*
X117068571Y-72332904D01*
X116611428Y-73132904D01*
X116611428Y-72332904D01*
X116230476Y-73132904D02*
X116230476Y-72332904D01*
X116040000Y-72332904D01*
X115925714Y-72371000D01*
X115849523Y-72447190D01*
X115811428Y-72523380D01*
X115773333Y-72675761D01*
X115773333Y-72790047D01*
X115811428Y-72942428D01*
X115849523Y-73018619D01*
X115925714Y-73094809D01*
X116040000Y-73132904D01*
X116230476Y-73132904D01*
X115119047Y-72332904D02*
X114852380Y-73132904D01*
X114585714Y-72332904D01*
X114319047Y-73132904D02*
X114319047Y-72599571D01*
X114319047Y-72332904D02*
X114357142Y-72371000D01*
X114319047Y-72409095D01*
X114280952Y-72371000D01*
X114319047Y-72332904D01*
X114319047Y-72409095D01*
X113938095Y-72599571D02*
X113938095Y-73132904D01*
X113938095Y-72675761D02*
X113900000Y-72637666D01*
X113823809Y-72599571D01*
X113709523Y-72599571D01*
X113633333Y-72637666D01*
X113595238Y-72713857D01*
X113595238Y-73132904D01*
%TO.C,JP1*%
D12*
X117032380Y-76636666D02*
X117746666Y-76636666D01*
X117889523Y-76589047D01*
X117984761Y-76493809D01*
X118032380Y-76350952D01*
X118032380Y-76255714D01*
X118032380Y-77112857D02*
X117032380Y-77112857D01*
X117032380Y-77493809D01*
X117080000Y-77589047D01*
X117127619Y-77636666D01*
X117222857Y-77684285D01*
X117365714Y-77684285D01*
X117460952Y-77636666D01*
X117508571Y-77589047D01*
X117556190Y-77493809D01*
X117556190Y-77112857D01*
X118032380Y-78636666D02*
X118032380Y-78065238D01*
X118032380Y-78350952D02*
X117032380Y-78350952D01*
X117175238Y-78255714D01*
X117270476Y-78160476D01*
X117318095Y-78065238D01*
X118832380Y-79736666D02*
X118832380Y-80355714D01*
X119213333Y-80022380D01*
X119213333Y-80165238D01*
X119260952Y-80260476D01*
X119308571Y-80308095D01*
X119403809Y-80355714D01*
X119641904Y-80355714D01*
X119737142Y-80308095D01*
X119784761Y-80260476D01*
X119832380Y-80165238D01*
X119832380Y-79879523D01*
X119784761Y-79784285D01*
X119737142Y-79736666D01*
X119832380Y-75155714D02*
X119832380Y-74584285D01*
X119832380Y-74870000D02*
X118832380Y-74870000D01*
X118975238Y-74774761D01*
X119070476Y-74679523D01*
X119118095Y-74584285D01*
%TO.C,R1*%
X137521904Y-78733666D02*
X137140952Y-78467000D01*
X137521904Y-78276523D02*
X136721904Y-78276523D01*
X136721904Y-78581285D01*
X136760000Y-78657476D01*
X136798095Y-78695571D01*
X136874285Y-78733666D01*
X136988571Y-78733666D01*
X137064761Y-78695571D01*
X137102857Y-78657476D01*
X137140952Y-78581285D01*
X137140952Y-78276523D01*
X137521904Y-79495571D02*
X137521904Y-79038428D01*
X137521904Y-79267000D02*
X136721904Y-79267000D01*
X136836190Y-79190809D01*
X136912380Y-79114619D01*
X136950476Y-79038428D01*
%TO.C,R2*%
X129647904Y-78733666D02*
X129266952Y-78467000D01*
X129647904Y-78276523D02*
X128847904Y-78276523D01*
X128847904Y-78581285D01*
X128886000Y-78657476D01*
X128924095Y-78695571D01*
X129000285Y-78733666D01*
X129114571Y-78733666D01*
X129190761Y-78695571D01*
X129228857Y-78657476D01*
X129266952Y-78581285D01*
X129266952Y-78276523D01*
X128924095Y-79038428D02*
X128886000Y-79076523D01*
X128847904Y-79152714D01*
X128847904Y-79343190D01*
X128886000Y-79419380D01*
X128924095Y-79457476D01*
X129000285Y-79495571D01*
X129076476Y-79495571D01*
X129190761Y-79457476D01*
X129647904Y-79000333D01*
X129647904Y-79495571D01*
%TD*%
M02*
