%TF.GenerationSoftware,KiCad,Pcbnew,(5.1.8-0-10_14)*%
%TF.CreationDate,2021-02-06T12:21:22+09:00*%
%TF.ProjectId,usb-pidvid-fixture,7573622d-7069-4647-9669-642d66697874,rev?*%
%TF.SameCoordinates,Original*%
%TF.FileFunction,Copper,L1,Top*%
%TF.FilePolarity,Positive*%
%FSLAX46Y46*%
G04 Gerber Fmt 4.6, Leading zero omitted, Abs format (unit mm)*
G04 Created by KiCad (PCBNEW (5.1.8-0-10_14)) date 2021-02-06 12:21:22*
%MOMM*%
%LPD*%
G01*
G04 APERTURE LIST*
%TA.AperFunction,ComponentPad*%
%ADD10O,1.400000X1.200000*%
%TD*%
%TA.AperFunction,ComponentPad*%
%ADD11C,1.800000*%
%TD*%
%TA.AperFunction,ComponentPad*%
%ADD12C,2.000000*%
%TD*%
%TA.AperFunction,ComponentPad*%
%ADD13O,1.200000X2.000000*%
%TD*%
%TA.AperFunction,ViaPad*%
%ADD14C,0.800000*%
%TD*%
%TA.AperFunction,Conductor*%
%ADD15C,0.250000*%
%TD*%
%TA.AperFunction,Conductor*%
%ADD16C,0.254000*%
%TD*%
%TA.AperFunction,Conductor*%
%ADD17C,0.100000*%
%TD*%
G04 APERTURE END LIST*
D10*
%TO.P,D1,5*%
%TO.N,D8*%
X133246040Y-82716200D03*
%TO.P,D1,6*%
%TO.N,Net-(D1-Pad6)*%
X138546040Y-82716200D03*
%TO.P,D1,4*%
%TO.N,D7*%
X133246040Y-80716200D03*
%TO.P,D1,7*%
%TO.N,D9*%
X138546040Y-80716200D03*
%TO.P,D1,3*%
%TO.N,D6*%
X133246040Y-78716200D03*
%TO.P,D1,8*%
%TO.N,D10*%
X138546040Y-78716200D03*
%TO.P,D1,2*%
%TO.N,D5*%
X133246040Y-76716200D03*
%TO.P,D1,9*%
%TO.N,Net-(D1-Pad6)*%
X138546040Y-76716200D03*
%TO.P,D1,1*%
%TO.N,D4*%
X133246040Y-74716200D03*
%TO.P,D1,10*%
%TO.N,D11*%
X138546040Y-74716200D03*
%TD*%
%TO.P,D2,5*%
%TO.N,D8*%
X125626040Y-82716200D03*
%TO.P,D2,6*%
%TO.N,Net-(D2-Pad6)*%
X130926040Y-82716200D03*
%TO.P,D2,4*%
%TO.N,D7*%
X125626040Y-80716200D03*
%TO.P,D2,7*%
%TO.N,D9*%
X130926040Y-80716200D03*
%TO.P,D2,3*%
%TO.N,D6*%
X125626040Y-78716200D03*
%TO.P,D2,8*%
%TO.N,D10*%
X130926040Y-78716200D03*
%TO.P,D2,2*%
%TO.N,D5*%
X125626040Y-76716200D03*
%TO.P,D2,9*%
%TO.N,Net-(D2-Pad6)*%
X130926040Y-76716200D03*
%TO.P,D2,1*%
%TO.N,D4*%
X125626040Y-74716200D03*
%TO.P,D2,10*%
%TO.N,D11*%
X130926040Y-74716200D03*
%TD*%
D11*
%TO.P,J1,1*%
%TO.N,Net-(J1-Pad1)*%
X114300000Y-86360000D03*
%TO.P,J1,2*%
%TO.N,Net-(J1-Pad2)*%
X116840000Y-86360000D03*
%TO.P,J1,3*%
%TO.N,RESET2*%
X119380000Y-86360000D03*
%TO.P,J1,4*%
%TO.N,GND*%
X121920000Y-86360000D03*
%TO.P,J1,5*%
%TO.N,Net-(J1-Pad5)*%
X124460000Y-86360000D03*
%TO.P,J1,6*%
%TO.N,Net-(J1-Pad6)*%
X127000000Y-86360000D03*
%TO.P,J1,7*%
%TO.N,D4*%
X129540000Y-86360000D03*
%TO.P,J1,8*%
%TO.N,D5*%
X132080000Y-86360000D03*
%TO.P,J1,9*%
%TO.N,D6*%
X134620000Y-86360000D03*
%TO.P,J1,10*%
%TO.N,D7*%
X137160000Y-86360000D03*
%TO.P,J1,11*%
%TO.N,D8*%
X139700000Y-86360000D03*
%TO.P,J1,12*%
%TO.N,D9*%
X142240000Y-86360000D03*
%TO.P,J1,13*%
%TO.N,D10*%
X142240000Y-71120000D03*
%TO.P,J1,14*%
%TO.N,D11*%
X139700000Y-71120000D03*
%TO.P,J1,15*%
%TO.N,D12*%
X137160000Y-71120000D03*
%TO.P,J1,16*%
%TO.N,D13*%
X134620000Y-71120000D03*
%TO.P,J1,17*%
%TO.N,D14*%
X132080000Y-71120000D03*
%TO.P,J1,18*%
%TO.N,D15*%
X129540000Y-71120000D03*
%TO.P,J1,19*%
%TO.N,D16*%
X127000000Y-71120000D03*
%TO.P,J1,20*%
%TO.N,D18*%
X124460000Y-71120000D03*
%TO.P,J1,21*%
%TO.N,VCC*%
X121920000Y-71120000D03*
%TO.P,J1,22*%
%TO.N,RESET*%
X119380000Y-71120000D03*
%TO.P,J1,23*%
%TO.N,GND*%
X116840000Y-71120000D03*
%TO.P,J1,24*%
%TO.N,Net-(J1-Pad24)*%
X114300000Y-71120000D03*
%TD*%
D12*
%TO.P,S1,1*%
%TO.N,Net-(JP1-Pad2)*%
X141859000Y-82550000D03*
%TO.P,S1,2*%
%TO.N,GND*%
X141859000Y-74930000D03*
%TD*%
D13*
%TO.P,SW1,4*%
%TO.N,D16*%
X121920000Y-82307100D03*
%TO.P,SW1,1*%
%TO.N,D14*%
X121920000Y-74687100D03*
%TO.P,SW1,C*%
%TO.N,GND*%
X119380000Y-82307100D03*
%TO.P,SW1,8*%
%TO.N,D18*%
X116840000Y-82307100D03*
%TO.P,SW1,2*%
%TO.N,D15*%
X116840000Y-74687100D03*
%TD*%
D14*
%TO.N,D9*%
X140893800Y-80568800D03*
%TO.N,D7*%
X136017000Y-80822800D03*
%TO.N,D8*%
X136626600Y-82778600D03*
%TO.N,RESET2*%
X119927210Y-80105965D03*
%TO.N,GND*%
X139682640Y-84827958D03*
X123190000Y-80010000D03*
X123190000Y-77470000D03*
X123232205Y-82550000D03*
X121920000Y-78740000D03*
X120650000Y-74930000D03*
X115570000Y-80010000D03*
X114300000Y-78740000D03*
X115570000Y-77470000D03*
X114300000Y-76200000D03*
X115570000Y-74930000D03*
X114300000Y-73660000D03*
X114300000Y-81280000D03*
X115570000Y-82550000D03*
X114300000Y-83820000D03*
X115570000Y-85090000D03*
X118110000Y-85090000D03*
X118110000Y-82550000D03*
X116840000Y-78740000D03*
X115570000Y-72390000D03*
X128270000Y-82550000D03*
X128270000Y-80010000D03*
X130810000Y-85090000D03*
X125730000Y-85090000D03*
X127635000Y-76708000D03*
X127635000Y-78486000D03*
X127635000Y-74676000D03*
X136017000Y-78740000D03*
X135001000Y-76708000D03*
X135001000Y-74803000D03*
X141859000Y-79756000D03*
X141859000Y-77216000D03*
X133350000Y-85090000D03*
X128270000Y-72390000D03*
X135890000Y-72517000D03*
X120650000Y-72390000D03*
X123190000Y-72390000D03*
X140970000Y-72517000D03*
X142113000Y-84455000D03*
%TO.N,D18*%
X123190000Y-74803000D03*
%TO.N,Net-(JP1-Pad2)*%
X121234200Y-84124800D03*
%TD*%
D15*
%TO.N,D11*%
X131851050Y-73791190D02*
X137621390Y-73791190D01*
X130926040Y-74716200D02*
X131851050Y-73791190D01*
X137621390Y-73791190D02*
X138531600Y-74701400D01*
%TO.N,D4*%
X132323601Y-74726800D02*
X133273800Y-74726800D01*
X131409191Y-75641210D02*
X132323601Y-74726800D01*
X126551050Y-75641210D02*
X131409191Y-75641210D01*
X125626040Y-74716200D02*
X126551050Y-75641210D01*
%TO.N,D5*%
X131409191Y-77641210D02*
X132342401Y-76708000D01*
X132342401Y-76708000D02*
X133248400Y-76708000D01*
X126551050Y-77641210D02*
X131409191Y-77641210D01*
X125626040Y-76716200D02*
X126551050Y-77641210D01*
%TO.N,D10*%
X131951050Y-77791190D02*
X137633590Y-77791190D01*
X131026040Y-78716200D02*
X131951050Y-77791190D01*
X130926040Y-78716200D02*
X131026040Y-78716200D01*
X137633590Y-77791190D02*
X138557000Y-78714600D01*
X142189200Y-72440800D02*
X142189200Y-71145400D01*
X140533999Y-74096001D02*
X142189200Y-72440800D01*
X140533999Y-76728241D02*
X140533999Y-74096001D01*
X138546040Y-78716200D02*
X140533999Y-76728241D01*
%TO.N,D6*%
X131409191Y-79641210D02*
X132335801Y-78714600D01*
X128974212Y-79641210D02*
X131409191Y-79641210D01*
X128618001Y-79284999D02*
X128974212Y-79641210D01*
X127921999Y-79284999D02*
X128618001Y-79284999D01*
X127565788Y-79641210D02*
X127921999Y-79284999D01*
X132335801Y-78714600D02*
X133223000Y-78714600D01*
X126551050Y-79641210D02*
X127565788Y-79641210D01*
X125626040Y-78716200D02*
X126551050Y-79641210D01*
%TO.N,D9*%
X132762889Y-79791190D02*
X137550790Y-79791190D01*
X132308288Y-80245791D02*
X132762889Y-79791190D01*
X131396449Y-80245791D02*
X132308288Y-80245791D01*
X130926040Y-80716200D02*
X131396449Y-80245791D01*
X137550790Y-79791190D02*
X138531600Y-80772000D01*
X140893800Y-80568800D02*
X138684000Y-80568800D01*
X138684000Y-80568800D02*
X138531600Y-80721200D01*
%TO.N,D7*%
X133197600Y-80695800D02*
X133223000Y-80670400D01*
X132354601Y-80695800D02*
X133197600Y-80695800D01*
X131409191Y-81641210D02*
X132354601Y-80695800D01*
X126551050Y-81641210D02*
X131409191Y-81641210D01*
X125626040Y-80716200D02*
X126551050Y-81641210D01*
X133680200Y-80264000D02*
X133197600Y-80746600D01*
X135458200Y-80264000D02*
X133680200Y-80264000D01*
X136017000Y-80822800D02*
X135458200Y-80264000D01*
%TO.N,D8*%
X126551050Y-83641210D02*
X131445990Y-83641210D01*
X125626040Y-82716200D02*
X126551050Y-83641210D01*
X131445990Y-83641210D02*
X132308600Y-82778600D01*
X132308600Y-82778600D02*
X132384800Y-82702400D01*
X132384800Y-82702400D02*
X133248400Y-82702400D01*
X136626600Y-82778600D02*
X133375400Y-82778600D01*
X133375400Y-82778600D02*
X133299200Y-82702400D01*
%TO.N,RESET2*%
X120327209Y-80505964D02*
X119927210Y-80105965D01*
X120327209Y-85412791D02*
X120327209Y-80505964D01*
X119380000Y-86360000D02*
X120327209Y-85412791D01*
%TO.N,GND*%
X123452042Y-84827958D02*
X139682640Y-84827958D01*
X121920000Y-86360000D02*
X123452042Y-84827958D01*
X123190000Y-82507795D02*
X123232205Y-82550000D01*
X123190000Y-80010000D02*
X123190000Y-82507795D01*
%TO.N,D14*%
X121412000Y-74676000D02*
X122428000Y-74676000D01*
X131749800Y-71247000D02*
X132105400Y-71247000D01*
X129209800Y-73787000D02*
X131749800Y-71247000D01*
X122820100Y-73787000D02*
X129209800Y-73787000D01*
X121920000Y-74687100D02*
X122820100Y-73787000D01*
%TO.N,D15*%
X128593010Y-73336990D02*
X129514600Y-72415400D01*
X129514600Y-72415400D02*
X129514600Y-71196200D01*
X122633700Y-73336990D02*
X128593010Y-73336990D01*
X122564690Y-73406000D02*
X122633700Y-73336990D01*
X122303151Y-73362090D02*
X122347061Y-73406000D01*
X117690000Y-74687100D02*
X118971100Y-73406000D01*
X121536849Y-73362090D02*
X122303151Y-73362090D01*
X122347061Y-73406000D02*
X122564690Y-73406000D01*
X121492939Y-73406000D02*
X121536849Y-73362090D01*
X118971100Y-73406000D02*
X121492939Y-73406000D01*
X116840000Y-74687100D02*
X117690000Y-74687100D01*
%TO.N,D18*%
X116840000Y-81534000D02*
X123190000Y-75184000D01*
X123190000Y-75184000D02*
X123190000Y-74803000D01*
X116840000Y-82307100D02*
X116840000Y-81534000D01*
%TO.N,Net-(JP1-Pad2)*%
X138869987Y-84124800D02*
X135729279Y-84124800D01*
X140444787Y-82550000D02*
X138869987Y-84124800D01*
X135729279Y-84124800D02*
X121234200Y-84124800D01*
X141859000Y-82550000D02*
X140444787Y-82550000D01*
%TD*%
D16*
%TO.N,GND*%
X143383000Y-74334238D02*
X143351795Y-74243912D01*
X143258814Y-74069956D01*
X142994413Y-73974192D01*
X142038605Y-74930000D01*
X142994413Y-75885808D01*
X143258814Y-75790044D01*
X143383000Y-75534766D01*
X143383000Y-85772033D01*
X143375207Y-85753219D01*
X143235018Y-85543410D01*
X143056590Y-85364982D01*
X142846781Y-85224793D01*
X142613654Y-85128228D01*
X142366167Y-85079000D01*
X142113833Y-85079000D01*
X141866346Y-85128228D01*
X141633219Y-85224793D01*
X141423410Y-85364982D01*
X141244982Y-85543410D01*
X141104793Y-85753219D01*
X141008228Y-85986346D01*
X140970000Y-86178532D01*
X140931772Y-85986346D01*
X140835207Y-85753219D01*
X140695018Y-85543410D01*
X140516590Y-85364982D01*
X140306781Y-85224793D01*
X140073654Y-85128228D01*
X139826167Y-85079000D01*
X139573833Y-85079000D01*
X139326346Y-85128228D01*
X139093219Y-85224793D01*
X138883410Y-85364982D01*
X138704982Y-85543410D01*
X138564793Y-85753219D01*
X138468228Y-85986346D01*
X138430000Y-86178532D01*
X138391772Y-85986346D01*
X138295207Y-85753219D01*
X138155018Y-85543410D01*
X137976590Y-85364982D01*
X137766781Y-85224793D01*
X137533654Y-85128228D01*
X137286167Y-85079000D01*
X137033833Y-85079000D01*
X136786346Y-85128228D01*
X136553219Y-85224793D01*
X136343410Y-85364982D01*
X136164982Y-85543410D01*
X136024793Y-85753219D01*
X135928228Y-85986346D01*
X135890000Y-86178532D01*
X135851772Y-85986346D01*
X135755207Y-85753219D01*
X135615018Y-85543410D01*
X135436590Y-85364982D01*
X135226781Y-85224793D01*
X134993654Y-85128228D01*
X134746167Y-85079000D01*
X134493833Y-85079000D01*
X134246346Y-85128228D01*
X134013219Y-85224793D01*
X133803410Y-85364982D01*
X133624982Y-85543410D01*
X133484793Y-85753219D01*
X133388228Y-85986346D01*
X133350000Y-86178532D01*
X133311772Y-85986346D01*
X133215207Y-85753219D01*
X133075018Y-85543410D01*
X132896590Y-85364982D01*
X132686781Y-85224793D01*
X132453654Y-85128228D01*
X132206167Y-85079000D01*
X131953833Y-85079000D01*
X131706346Y-85128228D01*
X131473219Y-85224793D01*
X131263410Y-85364982D01*
X131084982Y-85543410D01*
X130944793Y-85753219D01*
X130848228Y-85986346D01*
X130810000Y-86178532D01*
X130771772Y-85986346D01*
X130675207Y-85753219D01*
X130535018Y-85543410D01*
X130356590Y-85364982D01*
X130146781Y-85224793D01*
X129913654Y-85128228D01*
X129666167Y-85079000D01*
X129413833Y-85079000D01*
X129166346Y-85128228D01*
X128933219Y-85224793D01*
X128723410Y-85364982D01*
X128544982Y-85543410D01*
X128404793Y-85753219D01*
X128308228Y-85986346D01*
X128270000Y-86178532D01*
X128231772Y-85986346D01*
X128135207Y-85753219D01*
X127995018Y-85543410D01*
X127816590Y-85364982D01*
X127606781Y-85224793D01*
X127373654Y-85128228D01*
X127126167Y-85079000D01*
X126873833Y-85079000D01*
X126626346Y-85128228D01*
X126393219Y-85224793D01*
X126183410Y-85364982D01*
X126004982Y-85543410D01*
X125864793Y-85753219D01*
X125768228Y-85986346D01*
X125730000Y-86178532D01*
X125691772Y-85986346D01*
X125595207Y-85753219D01*
X125455018Y-85543410D01*
X125276590Y-85364982D01*
X125066781Y-85224793D01*
X124833654Y-85128228D01*
X124586167Y-85079000D01*
X124333833Y-85079000D01*
X124086346Y-85128228D01*
X123853219Y-85224793D01*
X123643410Y-85364982D01*
X123464982Y-85543410D01*
X123330709Y-85744364D01*
X123318222Y-85708801D01*
X123238261Y-85559208D01*
X122984080Y-85475525D01*
X122099605Y-86360000D01*
X122113748Y-86374143D01*
X121934143Y-86553748D01*
X121920000Y-86539605D01*
X121905858Y-86553748D01*
X121726253Y-86374143D01*
X121740395Y-86360000D01*
X121726253Y-86345858D01*
X121905858Y-86166253D01*
X121920000Y-86180395D01*
X122804475Y-85295920D01*
X122720792Y-85041739D01*
X122448225Y-84910842D01*
X122155358Y-84835635D01*
X121853447Y-84819009D01*
X121554093Y-84861603D01*
X121268801Y-84961778D01*
X121119208Y-85041739D01*
X121035526Y-85295918D01*
X120919578Y-85179970D01*
X120833209Y-85266339D01*
X120833209Y-84796167D01*
X120864258Y-84816913D01*
X121006391Y-84875787D01*
X121157278Y-84905800D01*
X121311122Y-84905800D01*
X121462009Y-84875787D01*
X121604142Y-84816913D01*
X121732059Y-84731442D01*
X121832701Y-84630800D01*
X138845141Y-84630800D01*
X138869987Y-84633247D01*
X138894833Y-84630800D01*
X138894841Y-84630800D01*
X138969180Y-84623478D01*
X139064562Y-84594545D01*
X139152466Y-84547559D01*
X139229514Y-84484327D01*
X139245363Y-84465015D01*
X140597407Y-83112972D01*
X140635174Y-83204149D01*
X140786307Y-83430336D01*
X140978664Y-83622693D01*
X141204851Y-83773826D01*
X141456177Y-83877929D01*
X141722983Y-83931000D01*
X141995017Y-83931000D01*
X142261823Y-83877929D01*
X142513149Y-83773826D01*
X142739336Y-83622693D01*
X142931693Y-83430336D01*
X143082826Y-83204149D01*
X143186929Y-82952823D01*
X143240000Y-82686017D01*
X143240000Y-82413983D01*
X143186929Y-82147177D01*
X143082826Y-81895851D01*
X142931693Y-81669664D01*
X142739336Y-81477307D01*
X142513149Y-81326174D01*
X142261823Y-81222071D01*
X141995017Y-81169000D01*
X141722983Y-81169000D01*
X141456177Y-81222071D01*
X141204851Y-81326174D01*
X140978664Y-81477307D01*
X140786307Y-81669664D01*
X140635174Y-81895851D01*
X140573808Y-82044000D01*
X140469641Y-82044000D01*
X140444787Y-82041552D01*
X140419933Y-82044000D01*
X140345594Y-82051322D01*
X140250212Y-82080255D01*
X140162308Y-82127241D01*
X140085260Y-82190473D01*
X140069415Y-82209780D01*
X139625618Y-82653577D01*
X139612845Y-82523890D01*
X139556751Y-82338971D01*
X139465658Y-82168549D01*
X139343068Y-82019172D01*
X139193691Y-81896582D01*
X139023269Y-81805489D01*
X138838350Y-81749395D01*
X138694227Y-81735200D01*
X138397853Y-81735200D01*
X138253730Y-81749395D01*
X138068811Y-81805489D01*
X137898389Y-81896582D01*
X137749012Y-82019172D01*
X137626422Y-82168549D01*
X137535329Y-82338971D01*
X137479235Y-82523890D01*
X137460294Y-82716200D01*
X137479235Y-82908510D01*
X137535329Y-83093429D01*
X137626422Y-83263851D01*
X137749012Y-83413228D01*
X137898389Y-83535818D01*
X138053636Y-83618800D01*
X133738444Y-83618800D01*
X133893691Y-83535818D01*
X134043068Y-83413228D01*
X134148630Y-83284600D01*
X136028099Y-83284600D01*
X136128741Y-83385242D01*
X136256658Y-83470713D01*
X136398791Y-83529587D01*
X136549678Y-83559600D01*
X136703522Y-83559600D01*
X136854409Y-83529587D01*
X136996542Y-83470713D01*
X137124459Y-83385242D01*
X137233242Y-83276459D01*
X137318713Y-83148542D01*
X137377587Y-83006409D01*
X137407600Y-82855522D01*
X137407600Y-82701678D01*
X137377587Y-82550791D01*
X137318713Y-82408658D01*
X137233242Y-82280741D01*
X137124459Y-82171958D01*
X136996542Y-82086487D01*
X136854409Y-82027613D01*
X136703522Y-81997600D01*
X136549678Y-81997600D01*
X136398791Y-82027613D01*
X136256658Y-82086487D01*
X136128741Y-82171958D01*
X136028099Y-82272600D01*
X134221275Y-82272600D01*
X134165658Y-82168549D01*
X134043068Y-82019172D01*
X133893691Y-81896582D01*
X133723269Y-81805489D01*
X133538350Y-81749395D01*
X133394227Y-81735200D01*
X133097853Y-81735200D01*
X132953730Y-81749395D01*
X132768811Y-81805489D01*
X132598389Y-81896582D01*
X132449012Y-82019172D01*
X132326422Y-82168549D01*
X132308845Y-82201433D01*
X132285607Y-82203722D01*
X132190225Y-82232655D01*
X132102321Y-82279641D01*
X132025273Y-82342873D01*
X132009424Y-82362185D01*
X131968384Y-82403225D01*
X131968378Y-82403230D01*
X131959068Y-82412540D01*
X131936751Y-82338971D01*
X131845658Y-82168549D01*
X131732400Y-82030543D01*
X131768718Y-82000737D01*
X131784567Y-81981425D01*
X132405628Y-81360364D01*
X132449012Y-81413228D01*
X132598389Y-81535818D01*
X132768811Y-81626911D01*
X132953730Y-81683005D01*
X133097853Y-81697200D01*
X133394227Y-81697200D01*
X133538350Y-81683005D01*
X133723269Y-81626911D01*
X133893691Y-81535818D01*
X134043068Y-81413228D01*
X134165658Y-81263851D01*
X134256751Y-81093429D01*
X134312845Y-80908510D01*
X134326487Y-80770000D01*
X135236000Y-80770000D01*
X135236000Y-80899722D01*
X135266013Y-81050609D01*
X135324887Y-81192742D01*
X135410358Y-81320659D01*
X135519141Y-81429442D01*
X135647058Y-81514913D01*
X135789191Y-81573787D01*
X135940078Y-81603800D01*
X136093922Y-81603800D01*
X136244809Y-81573787D01*
X136386942Y-81514913D01*
X136514859Y-81429442D01*
X136623642Y-81320659D01*
X136709113Y-81192742D01*
X136767987Y-81050609D01*
X136798000Y-80899722D01*
X136798000Y-80745878D01*
X136767987Y-80594991D01*
X136709113Y-80452858D01*
X136623642Y-80324941D01*
X136595891Y-80297190D01*
X137341199Y-80297190D01*
X137499871Y-80455862D01*
X137479235Y-80523890D01*
X137460294Y-80716200D01*
X137479235Y-80908510D01*
X137535329Y-81093429D01*
X137626422Y-81263851D01*
X137749012Y-81413228D01*
X137898389Y-81535818D01*
X138068811Y-81626911D01*
X138253730Y-81683005D01*
X138397853Y-81697200D01*
X138694227Y-81697200D01*
X138838350Y-81683005D01*
X139023269Y-81626911D01*
X139193691Y-81535818D01*
X139343068Y-81413228D01*
X139465658Y-81263851D01*
X139556751Y-81093429D01*
X139562402Y-81074800D01*
X140295299Y-81074800D01*
X140395941Y-81175442D01*
X140523858Y-81260913D01*
X140665991Y-81319787D01*
X140816878Y-81349800D01*
X140970722Y-81349800D01*
X141121609Y-81319787D01*
X141263742Y-81260913D01*
X141391659Y-81175442D01*
X141500442Y-81066659D01*
X141585913Y-80938742D01*
X141644787Y-80796609D01*
X141674800Y-80645722D01*
X141674800Y-80491878D01*
X141644787Y-80340991D01*
X141585913Y-80198858D01*
X141500442Y-80070941D01*
X141391659Y-79962158D01*
X141263742Y-79876687D01*
X141121609Y-79817813D01*
X140970722Y-79787800D01*
X140816878Y-79787800D01*
X140665991Y-79817813D01*
X140523858Y-79876687D01*
X140395941Y-79962158D01*
X140295299Y-80062800D01*
X139378872Y-80062800D01*
X139343068Y-80019172D01*
X139193691Y-79896582D01*
X139023269Y-79805489D01*
X138838350Y-79749395D01*
X138694227Y-79735200D01*
X138397853Y-79735200D01*
X138253730Y-79749395D01*
X138231369Y-79756178D01*
X138116598Y-79641407D01*
X138253730Y-79683005D01*
X138397853Y-79697200D01*
X138694227Y-79697200D01*
X138838350Y-79683005D01*
X139023269Y-79626911D01*
X139193691Y-79535818D01*
X139343068Y-79413228D01*
X139465658Y-79263851D01*
X139556751Y-79093429D01*
X139612845Y-78908510D01*
X139631786Y-78716200D01*
X139612845Y-78523890D01*
X139575861Y-78401970D01*
X140874219Y-77103613D01*
X140893526Y-77087768D01*
X140956758Y-77010720D01*
X141003744Y-76922816D01*
X141032677Y-76827434D01*
X141039999Y-76753095D01*
X141039999Y-76753094D01*
X141042447Y-76728241D01*
X141039999Y-76703387D01*
X141039999Y-76349780D01*
X141288571Y-76470704D01*
X141600108Y-76552384D01*
X141921595Y-76571718D01*
X142240675Y-76527961D01*
X142545088Y-76422795D01*
X142719044Y-76329814D01*
X142814808Y-76065413D01*
X141859000Y-75109605D01*
X141844858Y-75123748D01*
X141665253Y-74944143D01*
X141679395Y-74930000D01*
X141665253Y-74915858D01*
X141844858Y-74736253D01*
X141859000Y-74750395D01*
X142814808Y-73794587D01*
X142719044Y-73530186D01*
X142429429Y-73389296D01*
X142117892Y-73307616D01*
X142042509Y-73303083D01*
X142529420Y-72816172D01*
X142548727Y-72800327D01*
X142611959Y-72723279D01*
X142658945Y-72635375D01*
X142687878Y-72539993D01*
X142695200Y-72465654D01*
X142695200Y-72465653D01*
X142697648Y-72440800D01*
X142695200Y-72415946D01*
X142695200Y-72317994D01*
X142846781Y-72255207D01*
X143056590Y-72115018D01*
X143235018Y-71936590D01*
X143375207Y-71726781D01*
X143383000Y-71707967D01*
X143383000Y-74334238D01*
%TA.AperFunction,Conductor*%
D17*
G36*
X143383000Y-74334238D02*
G01*
X143351795Y-74243912D01*
X143258814Y-74069956D01*
X142994413Y-73974192D01*
X142038605Y-74930000D01*
X142994413Y-75885808D01*
X143258814Y-75790044D01*
X143383000Y-75534766D01*
X143383000Y-85772033D01*
X143375207Y-85753219D01*
X143235018Y-85543410D01*
X143056590Y-85364982D01*
X142846781Y-85224793D01*
X142613654Y-85128228D01*
X142366167Y-85079000D01*
X142113833Y-85079000D01*
X141866346Y-85128228D01*
X141633219Y-85224793D01*
X141423410Y-85364982D01*
X141244982Y-85543410D01*
X141104793Y-85753219D01*
X141008228Y-85986346D01*
X140970000Y-86178532D01*
X140931772Y-85986346D01*
X140835207Y-85753219D01*
X140695018Y-85543410D01*
X140516590Y-85364982D01*
X140306781Y-85224793D01*
X140073654Y-85128228D01*
X139826167Y-85079000D01*
X139573833Y-85079000D01*
X139326346Y-85128228D01*
X139093219Y-85224793D01*
X138883410Y-85364982D01*
X138704982Y-85543410D01*
X138564793Y-85753219D01*
X138468228Y-85986346D01*
X138430000Y-86178532D01*
X138391772Y-85986346D01*
X138295207Y-85753219D01*
X138155018Y-85543410D01*
X137976590Y-85364982D01*
X137766781Y-85224793D01*
X137533654Y-85128228D01*
X137286167Y-85079000D01*
X137033833Y-85079000D01*
X136786346Y-85128228D01*
X136553219Y-85224793D01*
X136343410Y-85364982D01*
X136164982Y-85543410D01*
X136024793Y-85753219D01*
X135928228Y-85986346D01*
X135890000Y-86178532D01*
X135851772Y-85986346D01*
X135755207Y-85753219D01*
X135615018Y-85543410D01*
X135436590Y-85364982D01*
X135226781Y-85224793D01*
X134993654Y-85128228D01*
X134746167Y-85079000D01*
X134493833Y-85079000D01*
X134246346Y-85128228D01*
X134013219Y-85224793D01*
X133803410Y-85364982D01*
X133624982Y-85543410D01*
X133484793Y-85753219D01*
X133388228Y-85986346D01*
X133350000Y-86178532D01*
X133311772Y-85986346D01*
X133215207Y-85753219D01*
X133075018Y-85543410D01*
X132896590Y-85364982D01*
X132686781Y-85224793D01*
X132453654Y-85128228D01*
X132206167Y-85079000D01*
X131953833Y-85079000D01*
X131706346Y-85128228D01*
X131473219Y-85224793D01*
X131263410Y-85364982D01*
X131084982Y-85543410D01*
X130944793Y-85753219D01*
X130848228Y-85986346D01*
X130810000Y-86178532D01*
X130771772Y-85986346D01*
X130675207Y-85753219D01*
X130535018Y-85543410D01*
X130356590Y-85364982D01*
X130146781Y-85224793D01*
X129913654Y-85128228D01*
X129666167Y-85079000D01*
X129413833Y-85079000D01*
X129166346Y-85128228D01*
X128933219Y-85224793D01*
X128723410Y-85364982D01*
X128544982Y-85543410D01*
X128404793Y-85753219D01*
X128308228Y-85986346D01*
X128270000Y-86178532D01*
X128231772Y-85986346D01*
X128135207Y-85753219D01*
X127995018Y-85543410D01*
X127816590Y-85364982D01*
X127606781Y-85224793D01*
X127373654Y-85128228D01*
X127126167Y-85079000D01*
X126873833Y-85079000D01*
X126626346Y-85128228D01*
X126393219Y-85224793D01*
X126183410Y-85364982D01*
X126004982Y-85543410D01*
X125864793Y-85753219D01*
X125768228Y-85986346D01*
X125730000Y-86178532D01*
X125691772Y-85986346D01*
X125595207Y-85753219D01*
X125455018Y-85543410D01*
X125276590Y-85364982D01*
X125066781Y-85224793D01*
X124833654Y-85128228D01*
X124586167Y-85079000D01*
X124333833Y-85079000D01*
X124086346Y-85128228D01*
X123853219Y-85224793D01*
X123643410Y-85364982D01*
X123464982Y-85543410D01*
X123330709Y-85744364D01*
X123318222Y-85708801D01*
X123238261Y-85559208D01*
X122984080Y-85475525D01*
X122099605Y-86360000D01*
X122113748Y-86374143D01*
X121934143Y-86553748D01*
X121920000Y-86539605D01*
X121905858Y-86553748D01*
X121726253Y-86374143D01*
X121740395Y-86360000D01*
X121726253Y-86345858D01*
X121905858Y-86166253D01*
X121920000Y-86180395D01*
X122804475Y-85295920D01*
X122720792Y-85041739D01*
X122448225Y-84910842D01*
X122155358Y-84835635D01*
X121853447Y-84819009D01*
X121554093Y-84861603D01*
X121268801Y-84961778D01*
X121119208Y-85041739D01*
X121035526Y-85295918D01*
X120919578Y-85179970D01*
X120833209Y-85266339D01*
X120833209Y-84796167D01*
X120864258Y-84816913D01*
X121006391Y-84875787D01*
X121157278Y-84905800D01*
X121311122Y-84905800D01*
X121462009Y-84875787D01*
X121604142Y-84816913D01*
X121732059Y-84731442D01*
X121832701Y-84630800D01*
X138845141Y-84630800D01*
X138869987Y-84633247D01*
X138894833Y-84630800D01*
X138894841Y-84630800D01*
X138969180Y-84623478D01*
X139064562Y-84594545D01*
X139152466Y-84547559D01*
X139229514Y-84484327D01*
X139245363Y-84465015D01*
X140597407Y-83112972D01*
X140635174Y-83204149D01*
X140786307Y-83430336D01*
X140978664Y-83622693D01*
X141204851Y-83773826D01*
X141456177Y-83877929D01*
X141722983Y-83931000D01*
X141995017Y-83931000D01*
X142261823Y-83877929D01*
X142513149Y-83773826D01*
X142739336Y-83622693D01*
X142931693Y-83430336D01*
X143082826Y-83204149D01*
X143186929Y-82952823D01*
X143240000Y-82686017D01*
X143240000Y-82413983D01*
X143186929Y-82147177D01*
X143082826Y-81895851D01*
X142931693Y-81669664D01*
X142739336Y-81477307D01*
X142513149Y-81326174D01*
X142261823Y-81222071D01*
X141995017Y-81169000D01*
X141722983Y-81169000D01*
X141456177Y-81222071D01*
X141204851Y-81326174D01*
X140978664Y-81477307D01*
X140786307Y-81669664D01*
X140635174Y-81895851D01*
X140573808Y-82044000D01*
X140469641Y-82044000D01*
X140444787Y-82041552D01*
X140419933Y-82044000D01*
X140345594Y-82051322D01*
X140250212Y-82080255D01*
X140162308Y-82127241D01*
X140085260Y-82190473D01*
X140069415Y-82209780D01*
X139625618Y-82653577D01*
X139612845Y-82523890D01*
X139556751Y-82338971D01*
X139465658Y-82168549D01*
X139343068Y-82019172D01*
X139193691Y-81896582D01*
X139023269Y-81805489D01*
X138838350Y-81749395D01*
X138694227Y-81735200D01*
X138397853Y-81735200D01*
X138253730Y-81749395D01*
X138068811Y-81805489D01*
X137898389Y-81896582D01*
X137749012Y-82019172D01*
X137626422Y-82168549D01*
X137535329Y-82338971D01*
X137479235Y-82523890D01*
X137460294Y-82716200D01*
X137479235Y-82908510D01*
X137535329Y-83093429D01*
X137626422Y-83263851D01*
X137749012Y-83413228D01*
X137898389Y-83535818D01*
X138053636Y-83618800D01*
X133738444Y-83618800D01*
X133893691Y-83535818D01*
X134043068Y-83413228D01*
X134148630Y-83284600D01*
X136028099Y-83284600D01*
X136128741Y-83385242D01*
X136256658Y-83470713D01*
X136398791Y-83529587D01*
X136549678Y-83559600D01*
X136703522Y-83559600D01*
X136854409Y-83529587D01*
X136996542Y-83470713D01*
X137124459Y-83385242D01*
X137233242Y-83276459D01*
X137318713Y-83148542D01*
X137377587Y-83006409D01*
X137407600Y-82855522D01*
X137407600Y-82701678D01*
X137377587Y-82550791D01*
X137318713Y-82408658D01*
X137233242Y-82280741D01*
X137124459Y-82171958D01*
X136996542Y-82086487D01*
X136854409Y-82027613D01*
X136703522Y-81997600D01*
X136549678Y-81997600D01*
X136398791Y-82027613D01*
X136256658Y-82086487D01*
X136128741Y-82171958D01*
X136028099Y-82272600D01*
X134221275Y-82272600D01*
X134165658Y-82168549D01*
X134043068Y-82019172D01*
X133893691Y-81896582D01*
X133723269Y-81805489D01*
X133538350Y-81749395D01*
X133394227Y-81735200D01*
X133097853Y-81735200D01*
X132953730Y-81749395D01*
X132768811Y-81805489D01*
X132598389Y-81896582D01*
X132449012Y-82019172D01*
X132326422Y-82168549D01*
X132308845Y-82201433D01*
X132285607Y-82203722D01*
X132190225Y-82232655D01*
X132102321Y-82279641D01*
X132025273Y-82342873D01*
X132009424Y-82362185D01*
X131968384Y-82403225D01*
X131968378Y-82403230D01*
X131959068Y-82412540D01*
X131936751Y-82338971D01*
X131845658Y-82168549D01*
X131732400Y-82030543D01*
X131768718Y-82000737D01*
X131784567Y-81981425D01*
X132405628Y-81360364D01*
X132449012Y-81413228D01*
X132598389Y-81535818D01*
X132768811Y-81626911D01*
X132953730Y-81683005D01*
X133097853Y-81697200D01*
X133394227Y-81697200D01*
X133538350Y-81683005D01*
X133723269Y-81626911D01*
X133893691Y-81535818D01*
X134043068Y-81413228D01*
X134165658Y-81263851D01*
X134256751Y-81093429D01*
X134312845Y-80908510D01*
X134326487Y-80770000D01*
X135236000Y-80770000D01*
X135236000Y-80899722D01*
X135266013Y-81050609D01*
X135324887Y-81192742D01*
X135410358Y-81320659D01*
X135519141Y-81429442D01*
X135647058Y-81514913D01*
X135789191Y-81573787D01*
X135940078Y-81603800D01*
X136093922Y-81603800D01*
X136244809Y-81573787D01*
X136386942Y-81514913D01*
X136514859Y-81429442D01*
X136623642Y-81320659D01*
X136709113Y-81192742D01*
X136767987Y-81050609D01*
X136798000Y-80899722D01*
X136798000Y-80745878D01*
X136767987Y-80594991D01*
X136709113Y-80452858D01*
X136623642Y-80324941D01*
X136595891Y-80297190D01*
X137341199Y-80297190D01*
X137499871Y-80455862D01*
X137479235Y-80523890D01*
X137460294Y-80716200D01*
X137479235Y-80908510D01*
X137535329Y-81093429D01*
X137626422Y-81263851D01*
X137749012Y-81413228D01*
X137898389Y-81535818D01*
X138068811Y-81626911D01*
X138253730Y-81683005D01*
X138397853Y-81697200D01*
X138694227Y-81697200D01*
X138838350Y-81683005D01*
X139023269Y-81626911D01*
X139193691Y-81535818D01*
X139343068Y-81413228D01*
X139465658Y-81263851D01*
X139556751Y-81093429D01*
X139562402Y-81074800D01*
X140295299Y-81074800D01*
X140395941Y-81175442D01*
X140523858Y-81260913D01*
X140665991Y-81319787D01*
X140816878Y-81349800D01*
X140970722Y-81349800D01*
X141121609Y-81319787D01*
X141263742Y-81260913D01*
X141391659Y-81175442D01*
X141500442Y-81066659D01*
X141585913Y-80938742D01*
X141644787Y-80796609D01*
X141674800Y-80645722D01*
X141674800Y-80491878D01*
X141644787Y-80340991D01*
X141585913Y-80198858D01*
X141500442Y-80070941D01*
X141391659Y-79962158D01*
X141263742Y-79876687D01*
X141121609Y-79817813D01*
X140970722Y-79787800D01*
X140816878Y-79787800D01*
X140665991Y-79817813D01*
X140523858Y-79876687D01*
X140395941Y-79962158D01*
X140295299Y-80062800D01*
X139378872Y-80062800D01*
X139343068Y-80019172D01*
X139193691Y-79896582D01*
X139023269Y-79805489D01*
X138838350Y-79749395D01*
X138694227Y-79735200D01*
X138397853Y-79735200D01*
X138253730Y-79749395D01*
X138231369Y-79756178D01*
X138116598Y-79641407D01*
X138253730Y-79683005D01*
X138397853Y-79697200D01*
X138694227Y-79697200D01*
X138838350Y-79683005D01*
X139023269Y-79626911D01*
X139193691Y-79535818D01*
X139343068Y-79413228D01*
X139465658Y-79263851D01*
X139556751Y-79093429D01*
X139612845Y-78908510D01*
X139631786Y-78716200D01*
X139612845Y-78523890D01*
X139575861Y-78401970D01*
X140874219Y-77103613D01*
X140893526Y-77087768D01*
X140956758Y-77010720D01*
X141003744Y-76922816D01*
X141032677Y-76827434D01*
X141039999Y-76753095D01*
X141039999Y-76753094D01*
X141042447Y-76728241D01*
X141039999Y-76703387D01*
X141039999Y-76349780D01*
X141288571Y-76470704D01*
X141600108Y-76552384D01*
X141921595Y-76571718D01*
X142240675Y-76527961D01*
X142545088Y-76422795D01*
X142719044Y-76329814D01*
X142814808Y-76065413D01*
X141859000Y-75109605D01*
X141844858Y-75123748D01*
X141665253Y-74944143D01*
X141679395Y-74930000D01*
X141665253Y-74915858D01*
X141844858Y-74736253D01*
X141859000Y-74750395D01*
X142814808Y-73794587D01*
X142719044Y-73530186D01*
X142429429Y-73389296D01*
X142117892Y-73307616D01*
X142042509Y-73303083D01*
X142529420Y-72816172D01*
X142548727Y-72800327D01*
X142611959Y-72723279D01*
X142658945Y-72635375D01*
X142687878Y-72539993D01*
X142695200Y-72465654D01*
X142695200Y-72465653D01*
X142697648Y-72440800D01*
X142695200Y-72415946D01*
X142695200Y-72317994D01*
X142846781Y-72255207D01*
X143056590Y-72115018D01*
X143235018Y-71936590D01*
X143375207Y-71726781D01*
X143383000Y-71707967D01*
X143383000Y-74334238D01*
G37*
%TD.AperFunction*%
D16*
X117033748Y-71105858D02*
X117019605Y-71120000D01*
X117904080Y-72004475D01*
X118158261Y-71920792D01*
X118248656Y-71732562D01*
X118384982Y-71936590D01*
X118563410Y-72115018D01*
X118773219Y-72255207D01*
X119006346Y-72351772D01*
X119253833Y-72401000D01*
X119506167Y-72401000D01*
X119753654Y-72351772D01*
X119986781Y-72255207D01*
X120196590Y-72115018D01*
X120375018Y-71936590D01*
X120515207Y-71726781D01*
X120611772Y-71493654D01*
X120650000Y-71301468D01*
X120688228Y-71493654D01*
X120784793Y-71726781D01*
X120924982Y-71936590D01*
X121103410Y-72115018D01*
X121313219Y-72255207D01*
X121546346Y-72351772D01*
X121793833Y-72401000D01*
X122046167Y-72401000D01*
X122293654Y-72351772D01*
X122526781Y-72255207D01*
X122736590Y-72115018D01*
X122915018Y-71936590D01*
X123055207Y-71726781D01*
X123151772Y-71493654D01*
X123190000Y-71301468D01*
X123228228Y-71493654D01*
X123324793Y-71726781D01*
X123464982Y-71936590D01*
X123643410Y-72115018D01*
X123853219Y-72255207D01*
X124086346Y-72351772D01*
X124333833Y-72401000D01*
X124586167Y-72401000D01*
X124833654Y-72351772D01*
X125066781Y-72255207D01*
X125276590Y-72115018D01*
X125455018Y-71936590D01*
X125595207Y-71726781D01*
X125691772Y-71493654D01*
X125730000Y-71301468D01*
X125768228Y-71493654D01*
X125864793Y-71726781D01*
X126004982Y-71936590D01*
X126183410Y-72115018D01*
X126393219Y-72255207D01*
X126626346Y-72351772D01*
X126873833Y-72401000D01*
X127126167Y-72401000D01*
X127373654Y-72351772D01*
X127606781Y-72255207D01*
X127816590Y-72115018D01*
X127995018Y-71936590D01*
X128135207Y-71726781D01*
X128231772Y-71493654D01*
X128270000Y-71301468D01*
X128308228Y-71493654D01*
X128404793Y-71726781D01*
X128544982Y-71936590D01*
X128723410Y-72115018D01*
X128933219Y-72255207D01*
X128951591Y-72262817D01*
X128383419Y-72830990D01*
X122658554Y-72830990D01*
X122633700Y-72828542D01*
X122608846Y-72830990D01*
X122534507Y-72838312D01*
X122439125Y-72867245D01*
X122430384Y-72871917D01*
X122402344Y-72863412D01*
X122328005Y-72856090D01*
X122327997Y-72856090D01*
X122303151Y-72853643D01*
X122278305Y-72856090D01*
X121561694Y-72856090D01*
X121536848Y-72853643D01*
X121512002Y-72856090D01*
X121511995Y-72856090D01*
X121437656Y-72863412D01*
X121342274Y-72892345D01*
X121327953Y-72900000D01*
X118995946Y-72900000D01*
X118971100Y-72897553D01*
X118946254Y-72900000D01*
X118946246Y-72900000D01*
X118871907Y-72907322D01*
X118776525Y-72936255D01*
X118688621Y-72983241D01*
X118611573Y-73046473D01*
X118595729Y-73065779D01*
X117750927Y-73910582D01*
X117750711Y-73909871D01*
X117659618Y-73739449D01*
X117537028Y-73590072D01*
X117387651Y-73467482D01*
X117217229Y-73376389D01*
X117032310Y-73320295D01*
X116840000Y-73301354D01*
X116647691Y-73320295D01*
X116462772Y-73376389D01*
X116292350Y-73467482D01*
X116142973Y-73590072D01*
X116020383Y-73739449D01*
X115929290Y-73909871D01*
X115873196Y-74094790D01*
X115859000Y-74238913D01*
X115859000Y-75135286D01*
X115873195Y-75279409D01*
X115929289Y-75464328D01*
X116020382Y-75634751D01*
X116142972Y-75784128D01*
X116292349Y-75906718D01*
X116462771Y-75997811D01*
X116647690Y-76053905D01*
X116840000Y-76072846D01*
X117032309Y-76053905D01*
X117217228Y-75997811D01*
X117387651Y-75906718D01*
X117537028Y-75784128D01*
X117659618Y-75634751D01*
X117750711Y-75464329D01*
X117806805Y-75279410D01*
X117816853Y-75177388D01*
X117884575Y-75156845D01*
X117972479Y-75109859D01*
X118049527Y-75046627D01*
X118065376Y-75027315D01*
X119180692Y-73912000D01*
X121008644Y-73912000D01*
X120953196Y-74094790D01*
X120939000Y-74238913D01*
X120939000Y-74492156D01*
X120913322Y-74576807D01*
X120903552Y-74676000D01*
X120913322Y-74775193D01*
X120939000Y-74859844D01*
X120939000Y-75135286D01*
X120953195Y-75279409D01*
X121009289Y-75464328D01*
X121100382Y-75634751D01*
X121222972Y-75784128D01*
X121372349Y-75906718D01*
X121542771Y-75997811D01*
X121633174Y-76025234D01*
X116725808Y-80932601D01*
X116647691Y-80940295D01*
X116462772Y-80996389D01*
X116292350Y-81087482D01*
X116142973Y-81210072D01*
X116020383Y-81359449D01*
X115929290Y-81529871D01*
X115873196Y-81714790D01*
X115859000Y-81858913D01*
X115859000Y-82755286D01*
X115873195Y-82899409D01*
X115929289Y-83084328D01*
X116020382Y-83254751D01*
X116142972Y-83404128D01*
X116292349Y-83526718D01*
X116462771Y-83617811D01*
X116647690Y-83673905D01*
X116840000Y-83692846D01*
X117032309Y-83673905D01*
X117217228Y-83617811D01*
X117387651Y-83526718D01*
X117537028Y-83404128D01*
X117659618Y-83254751D01*
X117750711Y-83084329D01*
X117806805Y-82899410D01*
X117821000Y-82755287D01*
X117821000Y-82434100D01*
X118145000Y-82434100D01*
X118145000Y-82834100D01*
X118193507Y-83072596D01*
X118287610Y-83297046D01*
X118423693Y-83498825D01*
X118596526Y-83670178D01*
X118799467Y-83804521D01*
X119024718Y-83896691D01*
X119062391Y-83900562D01*
X119253000Y-83775831D01*
X119253000Y-82434100D01*
X118145000Y-82434100D01*
X117821000Y-82434100D01*
X117821000Y-81858914D01*
X117813238Y-81780100D01*
X118145000Y-81780100D01*
X118145000Y-82180100D01*
X119253000Y-82180100D01*
X119253000Y-80838369D01*
X119062391Y-80713638D01*
X119024718Y-80717509D01*
X118799467Y-80809679D01*
X118596526Y-80944022D01*
X118423693Y-81115375D01*
X118287610Y-81317154D01*
X118193507Y-81541604D01*
X118145000Y-81780100D01*
X117813238Y-81780100D01*
X117806805Y-81714791D01*
X117750711Y-81529871D01*
X117684184Y-81405408D01*
X119167480Y-79922112D01*
X119146210Y-80029043D01*
X119146210Y-80182887D01*
X119176223Y-80333774D01*
X119235097Y-80475907D01*
X119320568Y-80603824D01*
X119429351Y-80712607D01*
X119557268Y-80798078D01*
X119564190Y-80800945D01*
X119507000Y-80838369D01*
X119507000Y-82180100D01*
X119527000Y-82180100D01*
X119527000Y-82434100D01*
X119507000Y-82434100D01*
X119507000Y-83775831D01*
X119697609Y-83900562D01*
X119735282Y-83896691D01*
X119821209Y-83861531D01*
X119821209Y-85156210D01*
X119753654Y-85128228D01*
X119506167Y-85079000D01*
X119253833Y-85079000D01*
X119006346Y-85128228D01*
X118773219Y-85224793D01*
X118563410Y-85364982D01*
X118384982Y-85543410D01*
X118244793Y-85753219D01*
X118148228Y-85986346D01*
X118110000Y-86178532D01*
X118071772Y-85986346D01*
X117975207Y-85753219D01*
X117835018Y-85543410D01*
X117656590Y-85364982D01*
X117446781Y-85224793D01*
X117213654Y-85128228D01*
X116966167Y-85079000D01*
X116713833Y-85079000D01*
X116466346Y-85128228D01*
X116233219Y-85224793D01*
X116023410Y-85364982D01*
X115844982Y-85543410D01*
X115704793Y-85753219D01*
X115608228Y-85986346D01*
X115570000Y-86178532D01*
X115531772Y-85986346D01*
X115435207Y-85753219D01*
X115295018Y-85543410D01*
X115116590Y-85364982D01*
X114906781Y-85224793D01*
X114673654Y-85128228D01*
X114426167Y-85079000D01*
X114173833Y-85079000D01*
X113926346Y-85128228D01*
X113693219Y-85224793D01*
X113483410Y-85364982D01*
X113304982Y-85543410D01*
X113164793Y-85753219D01*
X113157000Y-85772033D01*
X113157000Y-71707967D01*
X113164793Y-71726781D01*
X113304982Y-71936590D01*
X113483410Y-72115018D01*
X113693219Y-72255207D01*
X113926346Y-72351772D01*
X114173833Y-72401000D01*
X114426167Y-72401000D01*
X114673654Y-72351772D01*
X114906781Y-72255207D01*
X115013230Y-72184080D01*
X115955525Y-72184080D01*
X116039208Y-72438261D01*
X116311775Y-72569158D01*
X116604642Y-72644365D01*
X116906553Y-72660991D01*
X117205907Y-72618397D01*
X117491199Y-72518222D01*
X117640792Y-72438261D01*
X117724475Y-72184080D01*
X116840000Y-71299605D01*
X115955525Y-72184080D01*
X115013230Y-72184080D01*
X115116590Y-72115018D01*
X115295018Y-71936590D01*
X115429291Y-71735636D01*
X115441778Y-71771199D01*
X115521739Y-71920792D01*
X115775920Y-72004475D01*
X116660395Y-71120000D01*
X116646253Y-71105858D01*
X116825858Y-70926253D01*
X116840000Y-70940395D01*
X116854143Y-70926253D01*
X117033748Y-71105858D01*
%TA.AperFunction,Conductor*%
D17*
G36*
X117033748Y-71105858D02*
G01*
X117019605Y-71120000D01*
X117904080Y-72004475D01*
X118158261Y-71920792D01*
X118248656Y-71732562D01*
X118384982Y-71936590D01*
X118563410Y-72115018D01*
X118773219Y-72255207D01*
X119006346Y-72351772D01*
X119253833Y-72401000D01*
X119506167Y-72401000D01*
X119753654Y-72351772D01*
X119986781Y-72255207D01*
X120196590Y-72115018D01*
X120375018Y-71936590D01*
X120515207Y-71726781D01*
X120611772Y-71493654D01*
X120650000Y-71301468D01*
X120688228Y-71493654D01*
X120784793Y-71726781D01*
X120924982Y-71936590D01*
X121103410Y-72115018D01*
X121313219Y-72255207D01*
X121546346Y-72351772D01*
X121793833Y-72401000D01*
X122046167Y-72401000D01*
X122293654Y-72351772D01*
X122526781Y-72255207D01*
X122736590Y-72115018D01*
X122915018Y-71936590D01*
X123055207Y-71726781D01*
X123151772Y-71493654D01*
X123190000Y-71301468D01*
X123228228Y-71493654D01*
X123324793Y-71726781D01*
X123464982Y-71936590D01*
X123643410Y-72115018D01*
X123853219Y-72255207D01*
X124086346Y-72351772D01*
X124333833Y-72401000D01*
X124586167Y-72401000D01*
X124833654Y-72351772D01*
X125066781Y-72255207D01*
X125276590Y-72115018D01*
X125455018Y-71936590D01*
X125595207Y-71726781D01*
X125691772Y-71493654D01*
X125730000Y-71301468D01*
X125768228Y-71493654D01*
X125864793Y-71726781D01*
X126004982Y-71936590D01*
X126183410Y-72115018D01*
X126393219Y-72255207D01*
X126626346Y-72351772D01*
X126873833Y-72401000D01*
X127126167Y-72401000D01*
X127373654Y-72351772D01*
X127606781Y-72255207D01*
X127816590Y-72115018D01*
X127995018Y-71936590D01*
X128135207Y-71726781D01*
X128231772Y-71493654D01*
X128270000Y-71301468D01*
X128308228Y-71493654D01*
X128404793Y-71726781D01*
X128544982Y-71936590D01*
X128723410Y-72115018D01*
X128933219Y-72255207D01*
X128951591Y-72262817D01*
X128383419Y-72830990D01*
X122658554Y-72830990D01*
X122633700Y-72828542D01*
X122608846Y-72830990D01*
X122534507Y-72838312D01*
X122439125Y-72867245D01*
X122430384Y-72871917D01*
X122402344Y-72863412D01*
X122328005Y-72856090D01*
X122327997Y-72856090D01*
X122303151Y-72853643D01*
X122278305Y-72856090D01*
X121561694Y-72856090D01*
X121536848Y-72853643D01*
X121512002Y-72856090D01*
X121511995Y-72856090D01*
X121437656Y-72863412D01*
X121342274Y-72892345D01*
X121327953Y-72900000D01*
X118995946Y-72900000D01*
X118971100Y-72897553D01*
X118946254Y-72900000D01*
X118946246Y-72900000D01*
X118871907Y-72907322D01*
X118776525Y-72936255D01*
X118688621Y-72983241D01*
X118611573Y-73046473D01*
X118595729Y-73065779D01*
X117750927Y-73910582D01*
X117750711Y-73909871D01*
X117659618Y-73739449D01*
X117537028Y-73590072D01*
X117387651Y-73467482D01*
X117217229Y-73376389D01*
X117032310Y-73320295D01*
X116840000Y-73301354D01*
X116647691Y-73320295D01*
X116462772Y-73376389D01*
X116292350Y-73467482D01*
X116142973Y-73590072D01*
X116020383Y-73739449D01*
X115929290Y-73909871D01*
X115873196Y-74094790D01*
X115859000Y-74238913D01*
X115859000Y-75135286D01*
X115873195Y-75279409D01*
X115929289Y-75464328D01*
X116020382Y-75634751D01*
X116142972Y-75784128D01*
X116292349Y-75906718D01*
X116462771Y-75997811D01*
X116647690Y-76053905D01*
X116840000Y-76072846D01*
X117032309Y-76053905D01*
X117217228Y-75997811D01*
X117387651Y-75906718D01*
X117537028Y-75784128D01*
X117659618Y-75634751D01*
X117750711Y-75464329D01*
X117806805Y-75279410D01*
X117816853Y-75177388D01*
X117884575Y-75156845D01*
X117972479Y-75109859D01*
X118049527Y-75046627D01*
X118065376Y-75027315D01*
X119180692Y-73912000D01*
X121008644Y-73912000D01*
X120953196Y-74094790D01*
X120939000Y-74238913D01*
X120939000Y-74492156D01*
X120913322Y-74576807D01*
X120903552Y-74676000D01*
X120913322Y-74775193D01*
X120939000Y-74859844D01*
X120939000Y-75135286D01*
X120953195Y-75279409D01*
X121009289Y-75464328D01*
X121100382Y-75634751D01*
X121222972Y-75784128D01*
X121372349Y-75906718D01*
X121542771Y-75997811D01*
X121633174Y-76025234D01*
X116725808Y-80932601D01*
X116647691Y-80940295D01*
X116462772Y-80996389D01*
X116292350Y-81087482D01*
X116142973Y-81210072D01*
X116020383Y-81359449D01*
X115929290Y-81529871D01*
X115873196Y-81714790D01*
X115859000Y-81858913D01*
X115859000Y-82755286D01*
X115873195Y-82899409D01*
X115929289Y-83084328D01*
X116020382Y-83254751D01*
X116142972Y-83404128D01*
X116292349Y-83526718D01*
X116462771Y-83617811D01*
X116647690Y-83673905D01*
X116840000Y-83692846D01*
X117032309Y-83673905D01*
X117217228Y-83617811D01*
X117387651Y-83526718D01*
X117537028Y-83404128D01*
X117659618Y-83254751D01*
X117750711Y-83084329D01*
X117806805Y-82899410D01*
X117821000Y-82755287D01*
X117821000Y-82434100D01*
X118145000Y-82434100D01*
X118145000Y-82834100D01*
X118193507Y-83072596D01*
X118287610Y-83297046D01*
X118423693Y-83498825D01*
X118596526Y-83670178D01*
X118799467Y-83804521D01*
X119024718Y-83896691D01*
X119062391Y-83900562D01*
X119253000Y-83775831D01*
X119253000Y-82434100D01*
X118145000Y-82434100D01*
X117821000Y-82434100D01*
X117821000Y-81858914D01*
X117813238Y-81780100D01*
X118145000Y-81780100D01*
X118145000Y-82180100D01*
X119253000Y-82180100D01*
X119253000Y-80838369D01*
X119062391Y-80713638D01*
X119024718Y-80717509D01*
X118799467Y-80809679D01*
X118596526Y-80944022D01*
X118423693Y-81115375D01*
X118287610Y-81317154D01*
X118193507Y-81541604D01*
X118145000Y-81780100D01*
X117813238Y-81780100D01*
X117806805Y-81714791D01*
X117750711Y-81529871D01*
X117684184Y-81405408D01*
X119167480Y-79922112D01*
X119146210Y-80029043D01*
X119146210Y-80182887D01*
X119176223Y-80333774D01*
X119235097Y-80475907D01*
X119320568Y-80603824D01*
X119429351Y-80712607D01*
X119557268Y-80798078D01*
X119564190Y-80800945D01*
X119507000Y-80838369D01*
X119507000Y-82180100D01*
X119527000Y-82180100D01*
X119527000Y-82434100D01*
X119507000Y-82434100D01*
X119507000Y-83775831D01*
X119697609Y-83900562D01*
X119735282Y-83896691D01*
X119821209Y-83861531D01*
X119821209Y-85156210D01*
X119753654Y-85128228D01*
X119506167Y-85079000D01*
X119253833Y-85079000D01*
X119006346Y-85128228D01*
X118773219Y-85224793D01*
X118563410Y-85364982D01*
X118384982Y-85543410D01*
X118244793Y-85753219D01*
X118148228Y-85986346D01*
X118110000Y-86178532D01*
X118071772Y-85986346D01*
X117975207Y-85753219D01*
X117835018Y-85543410D01*
X117656590Y-85364982D01*
X117446781Y-85224793D01*
X117213654Y-85128228D01*
X116966167Y-85079000D01*
X116713833Y-85079000D01*
X116466346Y-85128228D01*
X116233219Y-85224793D01*
X116023410Y-85364982D01*
X115844982Y-85543410D01*
X115704793Y-85753219D01*
X115608228Y-85986346D01*
X115570000Y-86178532D01*
X115531772Y-85986346D01*
X115435207Y-85753219D01*
X115295018Y-85543410D01*
X115116590Y-85364982D01*
X114906781Y-85224793D01*
X114673654Y-85128228D01*
X114426167Y-85079000D01*
X114173833Y-85079000D01*
X113926346Y-85128228D01*
X113693219Y-85224793D01*
X113483410Y-85364982D01*
X113304982Y-85543410D01*
X113164793Y-85753219D01*
X113157000Y-85772033D01*
X113157000Y-71707967D01*
X113164793Y-71726781D01*
X113304982Y-71936590D01*
X113483410Y-72115018D01*
X113693219Y-72255207D01*
X113926346Y-72351772D01*
X114173833Y-72401000D01*
X114426167Y-72401000D01*
X114673654Y-72351772D01*
X114906781Y-72255207D01*
X115013230Y-72184080D01*
X115955525Y-72184080D01*
X116039208Y-72438261D01*
X116311775Y-72569158D01*
X116604642Y-72644365D01*
X116906553Y-72660991D01*
X117205907Y-72618397D01*
X117491199Y-72518222D01*
X117640792Y-72438261D01*
X117724475Y-72184080D01*
X116840000Y-71299605D01*
X115955525Y-72184080D01*
X115013230Y-72184080D01*
X115116590Y-72115018D01*
X115295018Y-71936590D01*
X115429291Y-71735636D01*
X115441778Y-71771199D01*
X115521739Y-71920792D01*
X115775920Y-72004475D01*
X116660395Y-71120000D01*
X116646253Y-71105858D01*
X116825858Y-70926253D01*
X116840000Y-70940395D01*
X116854143Y-70926253D01*
X117033748Y-71105858D01*
G37*
%TD.AperFunction*%
D16*
X124615329Y-74338971D02*
X124559235Y-74523890D01*
X124540294Y-74716200D01*
X124559235Y-74908510D01*
X124615329Y-75093429D01*
X124706422Y-75263851D01*
X124829012Y-75413228D01*
X124978389Y-75535818D01*
X125148811Y-75626911D01*
X125333730Y-75683005D01*
X125477853Y-75697200D01*
X125774227Y-75697200D01*
X125880938Y-75686690D01*
X125954657Y-75760408D01*
X125918350Y-75749395D01*
X125774227Y-75735200D01*
X125477853Y-75735200D01*
X125333730Y-75749395D01*
X125148811Y-75805489D01*
X124978389Y-75896582D01*
X124829012Y-76019172D01*
X124706422Y-76168549D01*
X124615329Y-76338971D01*
X124559235Y-76523890D01*
X124540294Y-76716200D01*
X124559235Y-76908510D01*
X124615329Y-77093429D01*
X124706422Y-77263851D01*
X124829012Y-77413228D01*
X124978389Y-77535818D01*
X125148811Y-77626911D01*
X125333730Y-77683005D01*
X125477853Y-77697200D01*
X125774227Y-77697200D01*
X125880938Y-77686690D01*
X125954657Y-77760408D01*
X125918350Y-77749395D01*
X125774227Y-77735200D01*
X125477853Y-77735200D01*
X125333730Y-77749395D01*
X125148811Y-77805489D01*
X124978389Y-77896582D01*
X124829012Y-78019172D01*
X124706422Y-78168549D01*
X124615329Y-78338971D01*
X124559235Y-78523890D01*
X124540294Y-78716200D01*
X124559235Y-78908510D01*
X124615329Y-79093429D01*
X124706422Y-79263851D01*
X124829012Y-79413228D01*
X124978389Y-79535818D01*
X125148811Y-79626911D01*
X125333730Y-79683005D01*
X125477853Y-79697200D01*
X125774227Y-79697200D01*
X125880938Y-79686690D01*
X125954657Y-79760408D01*
X125918350Y-79749395D01*
X125774227Y-79735200D01*
X125477853Y-79735200D01*
X125333730Y-79749395D01*
X125148811Y-79805489D01*
X124978389Y-79896582D01*
X124829012Y-80019172D01*
X124706422Y-80168549D01*
X124615329Y-80338971D01*
X124559235Y-80523890D01*
X124540294Y-80716200D01*
X124559235Y-80908510D01*
X124615329Y-81093429D01*
X124706422Y-81263851D01*
X124829012Y-81413228D01*
X124978389Y-81535818D01*
X125148811Y-81626911D01*
X125333730Y-81683005D01*
X125477853Y-81697200D01*
X125774227Y-81697200D01*
X125880938Y-81686690D01*
X125954657Y-81760408D01*
X125918350Y-81749395D01*
X125774227Y-81735200D01*
X125477853Y-81735200D01*
X125333730Y-81749395D01*
X125148811Y-81805489D01*
X124978389Y-81896582D01*
X124829012Y-82019172D01*
X124706422Y-82168549D01*
X124615329Y-82338971D01*
X124559235Y-82523890D01*
X124540294Y-82716200D01*
X124559235Y-82908510D01*
X124615329Y-83093429D01*
X124706422Y-83263851D01*
X124829012Y-83413228D01*
X124978389Y-83535818D01*
X125133636Y-83618800D01*
X122293968Y-83618800D01*
X122297228Y-83617811D01*
X122467651Y-83526718D01*
X122617028Y-83404128D01*
X122739618Y-83254751D01*
X122830711Y-83084329D01*
X122886805Y-82899410D01*
X122901000Y-82755287D01*
X122901000Y-81858914D01*
X122886805Y-81714791D01*
X122830711Y-81529871D01*
X122739618Y-81359449D01*
X122617028Y-81210072D01*
X122467651Y-81087482D01*
X122297229Y-80996389D01*
X122112310Y-80940295D01*
X121920000Y-80921354D01*
X121727691Y-80940295D01*
X121542772Y-80996389D01*
X121372350Y-81087482D01*
X121222973Y-81210072D01*
X121100383Y-81359449D01*
X121009290Y-81529871D01*
X120953196Y-81714790D01*
X120939000Y-81858913D01*
X120939000Y-82755286D01*
X120953195Y-82899409D01*
X121009289Y-83084328D01*
X121100382Y-83254751D01*
X121173462Y-83343800D01*
X121157278Y-83343800D01*
X121006391Y-83373813D01*
X120864258Y-83432687D01*
X120833209Y-83453433D01*
X120833209Y-80530809D01*
X120835656Y-80505963D01*
X120833209Y-80481117D01*
X120833209Y-80481110D01*
X120825887Y-80406771D01*
X120796954Y-80311389D01*
X120749968Y-80223485D01*
X120708210Y-80172603D01*
X120708210Y-80029043D01*
X120678197Y-79878156D01*
X120619323Y-79736023D01*
X120533852Y-79608106D01*
X120425069Y-79499323D01*
X120297152Y-79413852D01*
X120155019Y-79354978D01*
X120004132Y-79324965D01*
X119850288Y-79324965D01*
X119743357Y-79346235D01*
X123530220Y-75559372D01*
X123549527Y-75543527D01*
X123612759Y-75466479D01*
X123618294Y-75456124D01*
X123687859Y-75409642D01*
X123796642Y-75300859D01*
X123882113Y-75172942D01*
X123940987Y-75030809D01*
X123971000Y-74879922D01*
X123971000Y-74726078D01*
X123940987Y-74575191D01*
X123882113Y-74433058D01*
X123796642Y-74305141D01*
X123784501Y-74293000D01*
X124639901Y-74293000D01*
X124615329Y-74338971D01*
%TA.AperFunction,Conductor*%
D17*
G36*
X124615329Y-74338971D02*
G01*
X124559235Y-74523890D01*
X124540294Y-74716200D01*
X124559235Y-74908510D01*
X124615329Y-75093429D01*
X124706422Y-75263851D01*
X124829012Y-75413228D01*
X124978389Y-75535818D01*
X125148811Y-75626911D01*
X125333730Y-75683005D01*
X125477853Y-75697200D01*
X125774227Y-75697200D01*
X125880938Y-75686690D01*
X125954657Y-75760408D01*
X125918350Y-75749395D01*
X125774227Y-75735200D01*
X125477853Y-75735200D01*
X125333730Y-75749395D01*
X125148811Y-75805489D01*
X124978389Y-75896582D01*
X124829012Y-76019172D01*
X124706422Y-76168549D01*
X124615329Y-76338971D01*
X124559235Y-76523890D01*
X124540294Y-76716200D01*
X124559235Y-76908510D01*
X124615329Y-77093429D01*
X124706422Y-77263851D01*
X124829012Y-77413228D01*
X124978389Y-77535818D01*
X125148811Y-77626911D01*
X125333730Y-77683005D01*
X125477853Y-77697200D01*
X125774227Y-77697200D01*
X125880938Y-77686690D01*
X125954657Y-77760408D01*
X125918350Y-77749395D01*
X125774227Y-77735200D01*
X125477853Y-77735200D01*
X125333730Y-77749395D01*
X125148811Y-77805489D01*
X124978389Y-77896582D01*
X124829012Y-78019172D01*
X124706422Y-78168549D01*
X124615329Y-78338971D01*
X124559235Y-78523890D01*
X124540294Y-78716200D01*
X124559235Y-78908510D01*
X124615329Y-79093429D01*
X124706422Y-79263851D01*
X124829012Y-79413228D01*
X124978389Y-79535818D01*
X125148811Y-79626911D01*
X125333730Y-79683005D01*
X125477853Y-79697200D01*
X125774227Y-79697200D01*
X125880938Y-79686690D01*
X125954657Y-79760408D01*
X125918350Y-79749395D01*
X125774227Y-79735200D01*
X125477853Y-79735200D01*
X125333730Y-79749395D01*
X125148811Y-79805489D01*
X124978389Y-79896582D01*
X124829012Y-80019172D01*
X124706422Y-80168549D01*
X124615329Y-80338971D01*
X124559235Y-80523890D01*
X124540294Y-80716200D01*
X124559235Y-80908510D01*
X124615329Y-81093429D01*
X124706422Y-81263851D01*
X124829012Y-81413228D01*
X124978389Y-81535818D01*
X125148811Y-81626911D01*
X125333730Y-81683005D01*
X125477853Y-81697200D01*
X125774227Y-81697200D01*
X125880938Y-81686690D01*
X125954657Y-81760408D01*
X125918350Y-81749395D01*
X125774227Y-81735200D01*
X125477853Y-81735200D01*
X125333730Y-81749395D01*
X125148811Y-81805489D01*
X124978389Y-81896582D01*
X124829012Y-82019172D01*
X124706422Y-82168549D01*
X124615329Y-82338971D01*
X124559235Y-82523890D01*
X124540294Y-82716200D01*
X124559235Y-82908510D01*
X124615329Y-83093429D01*
X124706422Y-83263851D01*
X124829012Y-83413228D01*
X124978389Y-83535818D01*
X125133636Y-83618800D01*
X122293968Y-83618800D01*
X122297228Y-83617811D01*
X122467651Y-83526718D01*
X122617028Y-83404128D01*
X122739618Y-83254751D01*
X122830711Y-83084329D01*
X122886805Y-82899410D01*
X122901000Y-82755287D01*
X122901000Y-81858914D01*
X122886805Y-81714791D01*
X122830711Y-81529871D01*
X122739618Y-81359449D01*
X122617028Y-81210072D01*
X122467651Y-81087482D01*
X122297229Y-80996389D01*
X122112310Y-80940295D01*
X121920000Y-80921354D01*
X121727691Y-80940295D01*
X121542772Y-80996389D01*
X121372350Y-81087482D01*
X121222973Y-81210072D01*
X121100383Y-81359449D01*
X121009290Y-81529871D01*
X120953196Y-81714790D01*
X120939000Y-81858913D01*
X120939000Y-82755286D01*
X120953195Y-82899409D01*
X121009289Y-83084328D01*
X121100382Y-83254751D01*
X121173462Y-83343800D01*
X121157278Y-83343800D01*
X121006391Y-83373813D01*
X120864258Y-83432687D01*
X120833209Y-83453433D01*
X120833209Y-80530809D01*
X120835656Y-80505963D01*
X120833209Y-80481117D01*
X120833209Y-80481110D01*
X120825887Y-80406771D01*
X120796954Y-80311389D01*
X120749968Y-80223485D01*
X120708210Y-80172603D01*
X120708210Y-80029043D01*
X120678197Y-79878156D01*
X120619323Y-79736023D01*
X120533852Y-79608106D01*
X120425069Y-79499323D01*
X120297152Y-79413852D01*
X120155019Y-79354978D01*
X120004132Y-79324965D01*
X119850288Y-79324965D01*
X119743357Y-79346235D01*
X123530220Y-75559372D01*
X123549527Y-75543527D01*
X123612759Y-75466479D01*
X123618294Y-75456124D01*
X123687859Y-75409642D01*
X123796642Y-75300859D01*
X123882113Y-75172942D01*
X123940987Y-75030809D01*
X123971000Y-74879922D01*
X123971000Y-74726078D01*
X123940987Y-74575191D01*
X123882113Y-74433058D01*
X123796642Y-74305141D01*
X123784501Y-74293000D01*
X124639901Y-74293000D01*
X124615329Y-74338971D01*
G37*
%TD.AperFunction*%
D16*
X130006422Y-82168549D02*
X129915329Y-82338971D01*
X129859235Y-82523890D01*
X129840294Y-82716200D01*
X129859235Y-82908510D01*
X129915329Y-83093429D01*
X129937662Y-83135210D01*
X126760642Y-83135210D01*
X126655861Y-83030430D01*
X126692845Y-82908510D01*
X126711786Y-82716200D01*
X126692845Y-82523890D01*
X126636751Y-82338971D01*
X126545658Y-82168549D01*
X126528317Y-82147419D01*
X126551050Y-82149658D01*
X126575904Y-82147210D01*
X130023934Y-82147210D01*
X130006422Y-82168549D01*
%TA.AperFunction,Conductor*%
D17*
G36*
X130006422Y-82168549D02*
G01*
X129915329Y-82338971D01*
X129859235Y-82523890D01*
X129840294Y-82716200D01*
X129859235Y-82908510D01*
X129915329Y-83093429D01*
X129937662Y-83135210D01*
X126760642Y-83135210D01*
X126655861Y-83030430D01*
X126692845Y-82908510D01*
X126711786Y-82716200D01*
X126692845Y-82523890D01*
X126636751Y-82338971D01*
X126545658Y-82168549D01*
X126528317Y-82147419D01*
X126551050Y-82149658D01*
X126575904Y-82147210D01*
X130023934Y-82147210D01*
X130006422Y-82168549D01*
G37*
%TD.AperFunction*%
D16*
X128598840Y-79981430D02*
X128614685Y-80000737D01*
X128691733Y-80063969D01*
X128779637Y-80110955D01*
X128847077Y-80131412D01*
X128875018Y-80139888D01*
X128884906Y-80140862D01*
X128949358Y-80147210D01*
X128949365Y-80147210D01*
X128974211Y-80149657D01*
X128999057Y-80147210D01*
X130023934Y-80147210D01*
X130006422Y-80168549D01*
X129915329Y-80338971D01*
X129859235Y-80523890D01*
X129840294Y-80716200D01*
X129859235Y-80908510D01*
X129915329Y-81093429D01*
X129937662Y-81135210D01*
X126760642Y-81135210D01*
X126655861Y-81030430D01*
X126692845Y-80908510D01*
X126711786Y-80716200D01*
X126692845Y-80523890D01*
X126636751Y-80338971D01*
X126545658Y-80168549D01*
X126528317Y-80147419D01*
X126551050Y-80149658D01*
X126575904Y-80147210D01*
X127540942Y-80147210D01*
X127565788Y-80149657D01*
X127590634Y-80147210D01*
X127590642Y-80147210D01*
X127664981Y-80139888D01*
X127760363Y-80110955D01*
X127848267Y-80063969D01*
X127925315Y-80000737D01*
X127941164Y-79981425D01*
X128131591Y-79790999D01*
X128408410Y-79790999D01*
X128598840Y-79981430D01*
%TA.AperFunction,Conductor*%
D17*
G36*
X128598840Y-79981430D02*
G01*
X128614685Y-80000737D01*
X128691733Y-80063969D01*
X128779637Y-80110955D01*
X128847077Y-80131412D01*
X128875018Y-80139888D01*
X128884906Y-80140862D01*
X128949358Y-80147210D01*
X128949365Y-80147210D01*
X128974211Y-80149657D01*
X128999057Y-80147210D01*
X130023934Y-80147210D01*
X130006422Y-80168549D01*
X129915329Y-80338971D01*
X129859235Y-80523890D01*
X129840294Y-80716200D01*
X129859235Y-80908510D01*
X129915329Y-81093429D01*
X129937662Y-81135210D01*
X126760642Y-81135210D01*
X126655861Y-81030430D01*
X126692845Y-80908510D01*
X126711786Y-80716200D01*
X126692845Y-80523890D01*
X126636751Y-80338971D01*
X126545658Y-80168549D01*
X126528317Y-80147419D01*
X126551050Y-80149658D01*
X126575904Y-80147210D01*
X127540942Y-80147210D01*
X127565788Y-80149657D01*
X127590634Y-80147210D01*
X127590642Y-80147210D01*
X127664981Y-80139888D01*
X127760363Y-80110955D01*
X127848267Y-80063969D01*
X127925315Y-80000737D01*
X127941164Y-79981425D01*
X128131591Y-79790999D01*
X128408410Y-79790999D01*
X128598840Y-79981430D01*
G37*
%TD.AperFunction*%
D16*
X137519142Y-78392333D02*
X137479235Y-78523890D01*
X137460294Y-78716200D01*
X137479235Y-78908510D01*
X137535329Y-79093429D01*
X137626422Y-79263851D01*
X137649940Y-79292508D01*
X137575644Y-79285190D01*
X137575636Y-79285190D01*
X137550790Y-79282743D01*
X137525944Y-79285190D01*
X134148146Y-79285190D01*
X134165658Y-79263851D01*
X134256751Y-79093429D01*
X134312845Y-78908510D01*
X134331786Y-78716200D01*
X134312845Y-78523890D01*
X134256751Y-78338971D01*
X134234418Y-78297190D01*
X137423999Y-78297190D01*
X137519142Y-78392333D01*
%TA.AperFunction,Conductor*%
D17*
G36*
X137519142Y-78392333D02*
G01*
X137479235Y-78523890D01*
X137460294Y-78716200D01*
X137479235Y-78908510D01*
X137535329Y-79093429D01*
X137626422Y-79263851D01*
X137649940Y-79292508D01*
X137575644Y-79285190D01*
X137575636Y-79285190D01*
X137550790Y-79282743D01*
X137525944Y-79285190D01*
X134148146Y-79285190D01*
X134165658Y-79263851D01*
X134256751Y-79093429D01*
X134312845Y-78908510D01*
X134331786Y-78716200D01*
X134312845Y-78523890D01*
X134256751Y-78338971D01*
X134234418Y-78297190D01*
X137423999Y-78297190D01*
X137519142Y-78392333D01*
G37*
%TD.AperFunction*%
D16*
X130006422Y-78168549D02*
X129915329Y-78338971D01*
X129859235Y-78523890D01*
X129840294Y-78716200D01*
X129859235Y-78908510D01*
X129915329Y-79093429D01*
X129937662Y-79135210D01*
X129183804Y-79135210D01*
X128993377Y-78944784D01*
X128977528Y-78925472D01*
X128900480Y-78862240D01*
X128812576Y-78815254D01*
X128717194Y-78786321D01*
X128642855Y-78778999D01*
X128642847Y-78778999D01*
X128618001Y-78776552D01*
X128593155Y-78778999D01*
X127946844Y-78778999D01*
X127921998Y-78776552D01*
X127897152Y-78778999D01*
X127897145Y-78778999D01*
X127832693Y-78785347D01*
X127822805Y-78786321D01*
X127800606Y-78793055D01*
X127727424Y-78815254D01*
X127639520Y-78862240D01*
X127562472Y-78925472D01*
X127546627Y-78944779D01*
X127356197Y-79135210D01*
X126760642Y-79135210D01*
X126655861Y-79030430D01*
X126692845Y-78908510D01*
X126711786Y-78716200D01*
X126692845Y-78523890D01*
X126636751Y-78338971D01*
X126545658Y-78168549D01*
X126528317Y-78147419D01*
X126551050Y-78149658D01*
X126575904Y-78147210D01*
X130023934Y-78147210D01*
X130006422Y-78168549D01*
%TA.AperFunction,Conductor*%
D17*
G36*
X130006422Y-78168549D02*
G01*
X129915329Y-78338971D01*
X129859235Y-78523890D01*
X129840294Y-78716200D01*
X129859235Y-78908510D01*
X129915329Y-79093429D01*
X129937662Y-79135210D01*
X129183804Y-79135210D01*
X128993377Y-78944784D01*
X128977528Y-78925472D01*
X128900480Y-78862240D01*
X128812576Y-78815254D01*
X128717194Y-78786321D01*
X128642855Y-78778999D01*
X128642847Y-78778999D01*
X128618001Y-78776552D01*
X128593155Y-78778999D01*
X127946844Y-78778999D01*
X127921998Y-78776552D01*
X127897152Y-78778999D01*
X127897145Y-78778999D01*
X127832693Y-78785347D01*
X127822805Y-78786321D01*
X127800606Y-78793055D01*
X127727424Y-78815254D01*
X127639520Y-78862240D01*
X127562472Y-78925472D01*
X127546627Y-78944779D01*
X127356197Y-79135210D01*
X126760642Y-79135210D01*
X126655861Y-79030430D01*
X126692845Y-78908510D01*
X126711786Y-78716200D01*
X126692845Y-78523890D01*
X126636751Y-78338971D01*
X126545658Y-78168549D01*
X126528317Y-78147419D01*
X126551050Y-78149658D01*
X126575904Y-78147210D01*
X130023934Y-78147210D01*
X130006422Y-78168549D01*
G37*
%TD.AperFunction*%
D16*
X141008228Y-71493654D02*
X141104793Y-71726781D01*
X141244982Y-71936590D01*
X141423410Y-72115018D01*
X141633219Y-72255207D01*
X141651591Y-72262817D01*
X140193779Y-73720629D01*
X140174473Y-73736474D01*
X140111241Y-73813522D01*
X140099404Y-73835668D01*
X140064254Y-73901427D01*
X140035321Y-73996809D01*
X140025552Y-74096001D01*
X140028000Y-74120857D01*
X140027999Y-76518649D01*
X139601832Y-76944817D01*
X139612845Y-76908510D01*
X139631786Y-76716200D01*
X139612845Y-76523890D01*
X139556751Y-76338971D01*
X139465658Y-76168549D01*
X139343068Y-76019172D01*
X139193691Y-75896582D01*
X139023269Y-75805489D01*
X138838350Y-75749395D01*
X138694227Y-75735200D01*
X138397853Y-75735200D01*
X138253730Y-75749395D01*
X138068811Y-75805489D01*
X137898389Y-75896582D01*
X137749012Y-76019172D01*
X137626422Y-76168549D01*
X137535329Y-76338971D01*
X137479235Y-76523890D01*
X137460294Y-76716200D01*
X137479235Y-76908510D01*
X137535329Y-77093429D01*
X137626422Y-77263851D01*
X137642659Y-77283636D01*
X137633590Y-77282743D01*
X137608744Y-77285190D01*
X134148146Y-77285190D01*
X134165658Y-77263851D01*
X134256751Y-77093429D01*
X134312845Y-76908510D01*
X134331786Y-76716200D01*
X134312845Y-76523890D01*
X134256751Y-76338971D01*
X134165658Y-76168549D01*
X134043068Y-76019172D01*
X133893691Y-75896582D01*
X133723269Y-75805489D01*
X133538350Y-75749395D01*
X133394227Y-75735200D01*
X133097853Y-75735200D01*
X132953730Y-75749395D01*
X132768811Y-75805489D01*
X132598389Y-75896582D01*
X132449012Y-76019172D01*
X132326422Y-76168549D01*
X132308042Y-76202936D01*
X132259138Y-76207753D01*
X132243207Y-76209322D01*
X132176480Y-76229563D01*
X132147826Y-76238255D01*
X132059922Y-76285241D01*
X131982874Y-76348473D01*
X131967029Y-76367780D01*
X131950503Y-76384306D01*
X131936751Y-76338971D01*
X131845658Y-76168549D01*
X131732400Y-76030543D01*
X131768718Y-76000737D01*
X131784567Y-75981425D01*
X132405628Y-75360364D01*
X132449012Y-75413228D01*
X132598389Y-75535818D01*
X132768811Y-75626911D01*
X132953730Y-75683005D01*
X133097853Y-75697200D01*
X133394227Y-75697200D01*
X133538350Y-75683005D01*
X133723269Y-75626911D01*
X133893691Y-75535818D01*
X134043068Y-75413228D01*
X134165658Y-75263851D01*
X134256751Y-75093429D01*
X134312845Y-74908510D01*
X134331786Y-74716200D01*
X134312845Y-74523890D01*
X134256751Y-74338971D01*
X134234418Y-74297190D01*
X137411799Y-74297190D01*
X137516302Y-74401694D01*
X137479235Y-74523890D01*
X137460294Y-74716200D01*
X137479235Y-74908510D01*
X137535329Y-75093429D01*
X137626422Y-75263851D01*
X137749012Y-75413228D01*
X137898389Y-75535818D01*
X138068811Y-75626911D01*
X138253730Y-75683005D01*
X138397853Y-75697200D01*
X138694227Y-75697200D01*
X138838350Y-75683005D01*
X139023269Y-75626911D01*
X139193691Y-75535818D01*
X139343068Y-75413228D01*
X139465658Y-75263851D01*
X139556751Y-75093429D01*
X139612845Y-74908510D01*
X139631786Y-74716200D01*
X139612845Y-74523890D01*
X139556751Y-74338971D01*
X139465658Y-74168549D01*
X139343068Y-74019172D01*
X139193691Y-73896582D01*
X139023269Y-73805489D01*
X138838350Y-73749395D01*
X138694227Y-73735200D01*
X138397853Y-73735200D01*
X138291469Y-73745678D01*
X137996766Y-73450975D01*
X137980917Y-73431663D01*
X137903869Y-73368431D01*
X137815965Y-73321445D01*
X137720583Y-73292512D01*
X137646244Y-73285190D01*
X137646236Y-73285190D01*
X137621390Y-73282743D01*
X137596544Y-73285190D01*
X131875904Y-73285190D01*
X131851050Y-73282742D01*
X131826196Y-73285190D01*
X131751857Y-73292512D01*
X131656475Y-73321445D01*
X131568571Y-73368431D01*
X131491523Y-73431663D01*
X131475678Y-73450970D01*
X131180938Y-73745710D01*
X131074227Y-73735200D01*
X130777853Y-73735200D01*
X130633730Y-73749395D01*
X130448811Y-73805489D01*
X130278389Y-73896582D01*
X130129012Y-74019172D01*
X130006422Y-74168549D01*
X129915329Y-74338971D01*
X129859235Y-74523890D01*
X129840294Y-74716200D01*
X129859235Y-74908510D01*
X129915329Y-75093429D01*
X129937662Y-75135210D01*
X126760642Y-75135210D01*
X126655861Y-75030430D01*
X126692845Y-74908510D01*
X126711786Y-74716200D01*
X126692845Y-74523890D01*
X126636751Y-74338971D01*
X126612179Y-74293000D01*
X129184954Y-74293000D01*
X129209800Y-74295447D01*
X129234646Y-74293000D01*
X129234654Y-74293000D01*
X129308993Y-74285678D01*
X129404375Y-74256745D01*
X129492279Y-74209759D01*
X129569327Y-74146527D01*
X129585176Y-74127215D01*
X131463607Y-72248785D01*
X131473219Y-72255207D01*
X131706346Y-72351772D01*
X131953833Y-72401000D01*
X132206167Y-72401000D01*
X132453654Y-72351772D01*
X132686781Y-72255207D01*
X132896590Y-72115018D01*
X133075018Y-71936590D01*
X133215207Y-71726781D01*
X133311772Y-71493654D01*
X133350000Y-71301468D01*
X133388228Y-71493654D01*
X133484793Y-71726781D01*
X133624982Y-71936590D01*
X133803410Y-72115018D01*
X134013219Y-72255207D01*
X134246346Y-72351772D01*
X134493833Y-72401000D01*
X134746167Y-72401000D01*
X134993654Y-72351772D01*
X135226781Y-72255207D01*
X135436590Y-72115018D01*
X135615018Y-71936590D01*
X135755207Y-71726781D01*
X135851772Y-71493654D01*
X135890000Y-71301468D01*
X135928228Y-71493654D01*
X136024793Y-71726781D01*
X136164982Y-71936590D01*
X136343410Y-72115018D01*
X136553219Y-72255207D01*
X136786346Y-72351772D01*
X137033833Y-72401000D01*
X137286167Y-72401000D01*
X137533654Y-72351772D01*
X137766781Y-72255207D01*
X137976590Y-72115018D01*
X138155018Y-71936590D01*
X138295207Y-71726781D01*
X138391772Y-71493654D01*
X138430000Y-71301468D01*
X138468228Y-71493654D01*
X138564793Y-71726781D01*
X138704982Y-71936590D01*
X138883410Y-72115018D01*
X139093219Y-72255207D01*
X139326346Y-72351772D01*
X139573833Y-72401000D01*
X139826167Y-72401000D01*
X140073654Y-72351772D01*
X140306781Y-72255207D01*
X140516590Y-72115018D01*
X140695018Y-71936590D01*
X140835207Y-71726781D01*
X140931772Y-71493654D01*
X140970000Y-71301468D01*
X141008228Y-71493654D01*
%TA.AperFunction,Conductor*%
D17*
G36*
X141008228Y-71493654D02*
G01*
X141104793Y-71726781D01*
X141244982Y-71936590D01*
X141423410Y-72115018D01*
X141633219Y-72255207D01*
X141651591Y-72262817D01*
X140193779Y-73720629D01*
X140174473Y-73736474D01*
X140111241Y-73813522D01*
X140099404Y-73835668D01*
X140064254Y-73901427D01*
X140035321Y-73996809D01*
X140025552Y-74096001D01*
X140028000Y-74120857D01*
X140027999Y-76518649D01*
X139601832Y-76944817D01*
X139612845Y-76908510D01*
X139631786Y-76716200D01*
X139612845Y-76523890D01*
X139556751Y-76338971D01*
X139465658Y-76168549D01*
X139343068Y-76019172D01*
X139193691Y-75896582D01*
X139023269Y-75805489D01*
X138838350Y-75749395D01*
X138694227Y-75735200D01*
X138397853Y-75735200D01*
X138253730Y-75749395D01*
X138068811Y-75805489D01*
X137898389Y-75896582D01*
X137749012Y-76019172D01*
X137626422Y-76168549D01*
X137535329Y-76338971D01*
X137479235Y-76523890D01*
X137460294Y-76716200D01*
X137479235Y-76908510D01*
X137535329Y-77093429D01*
X137626422Y-77263851D01*
X137642659Y-77283636D01*
X137633590Y-77282743D01*
X137608744Y-77285190D01*
X134148146Y-77285190D01*
X134165658Y-77263851D01*
X134256751Y-77093429D01*
X134312845Y-76908510D01*
X134331786Y-76716200D01*
X134312845Y-76523890D01*
X134256751Y-76338971D01*
X134165658Y-76168549D01*
X134043068Y-76019172D01*
X133893691Y-75896582D01*
X133723269Y-75805489D01*
X133538350Y-75749395D01*
X133394227Y-75735200D01*
X133097853Y-75735200D01*
X132953730Y-75749395D01*
X132768811Y-75805489D01*
X132598389Y-75896582D01*
X132449012Y-76019172D01*
X132326422Y-76168549D01*
X132308042Y-76202936D01*
X132259138Y-76207753D01*
X132243207Y-76209322D01*
X132176480Y-76229563D01*
X132147826Y-76238255D01*
X132059922Y-76285241D01*
X131982874Y-76348473D01*
X131967029Y-76367780D01*
X131950503Y-76384306D01*
X131936751Y-76338971D01*
X131845658Y-76168549D01*
X131732400Y-76030543D01*
X131768718Y-76000737D01*
X131784567Y-75981425D01*
X132405628Y-75360364D01*
X132449012Y-75413228D01*
X132598389Y-75535818D01*
X132768811Y-75626911D01*
X132953730Y-75683005D01*
X133097853Y-75697200D01*
X133394227Y-75697200D01*
X133538350Y-75683005D01*
X133723269Y-75626911D01*
X133893691Y-75535818D01*
X134043068Y-75413228D01*
X134165658Y-75263851D01*
X134256751Y-75093429D01*
X134312845Y-74908510D01*
X134331786Y-74716200D01*
X134312845Y-74523890D01*
X134256751Y-74338971D01*
X134234418Y-74297190D01*
X137411799Y-74297190D01*
X137516302Y-74401694D01*
X137479235Y-74523890D01*
X137460294Y-74716200D01*
X137479235Y-74908510D01*
X137535329Y-75093429D01*
X137626422Y-75263851D01*
X137749012Y-75413228D01*
X137898389Y-75535818D01*
X138068811Y-75626911D01*
X138253730Y-75683005D01*
X138397853Y-75697200D01*
X138694227Y-75697200D01*
X138838350Y-75683005D01*
X139023269Y-75626911D01*
X139193691Y-75535818D01*
X139343068Y-75413228D01*
X139465658Y-75263851D01*
X139556751Y-75093429D01*
X139612845Y-74908510D01*
X139631786Y-74716200D01*
X139612845Y-74523890D01*
X139556751Y-74338971D01*
X139465658Y-74168549D01*
X139343068Y-74019172D01*
X139193691Y-73896582D01*
X139023269Y-73805489D01*
X138838350Y-73749395D01*
X138694227Y-73735200D01*
X138397853Y-73735200D01*
X138291469Y-73745678D01*
X137996766Y-73450975D01*
X137980917Y-73431663D01*
X137903869Y-73368431D01*
X137815965Y-73321445D01*
X137720583Y-73292512D01*
X137646244Y-73285190D01*
X137646236Y-73285190D01*
X137621390Y-73282743D01*
X137596544Y-73285190D01*
X131875904Y-73285190D01*
X131851050Y-73282742D01*
X131826196Y-73285190D01*
X131751857Y-73292512D01*
X131656475Y-73321445D01*
X131568571Y-73368431D01*
X131491523Y-73431663D01*
X131475678Y-73450970D01*
X131180938Y-73745710D01*
X131074227Y-73735200D01*
X130777853Y-73735200D01*
X130633730Y-73749395D01*
X130448811Y-73805489D01*
X130278389Y-73896582D01*
X130129012Y-74019172D01*
X130006422Y-74168549D01*
X129915329Y-74338971D01*
X129859235Y-74523890D01*
X129840294Y-74716200D01*
X129859235Y-74908510D01*
X129915329Y-75093429D01*
X129937662Y-75135210D01*
X126760642Y-75135210D01*
X126655861Y-75030430D01*
X126692845Y-74908510D01*
X126711786Y-74716200D01*
X126692845Y-74523890D01*
X126636751Y-74338971D01*
X126612179Y-74293000D01*
X129184954Y-74293000D01*
X129209800Y-74295447D01*
X129234646Y-74293000D01*
X129234654Y-74293000D01*
X129308993Y-74285678D01*
X129404375Y-74256745D01*
X129492279Y-74209759D01*
X129569327Y-74146527D01*
X129585176Y-74127215D01*
X131463607Y-72248785D01*
X131473219Y-72255207D01*
X131706346Y-72351772D01*
X131953833Y-72401000D01*
X132206167Y-72401000D01*
X132453654Y-72351772D01*
X132686781Y-72255207D01*
X132896590Y-72115018D01*
X133075018Y-71936590D01*
X133215207Y-71726781D01*
X133311772Y-71493654D01*
X133350000Y-71301468D01*
X133388228Y-71493654D01*
X133484793Y-71726781D01*
X133624982Y-71936590D01*
X133803410Y-72115018D01*
X134013219Y-72255207D01*
X134246346Y-72351772D01*
X134493833Y-72401000D01*
X134746167Y-72401000D01*
X134993654Y-72351772D01*
X135226781Y-72255207D01*
X135436590Y-72115018D01*
X135615018Y-71936590D01*
X135755207Y-71726781D01*
X135851772Y-71493654D01*
X135890000Y-71301468D01*
X135928228Y-71493654D01*
X136024793Y-71726781D01*
X136164982Y-71936590D01*
X136343410Y-72115018D01*
X136553219Y-72255207D01*
X136786346Y-72351772D01*
X137033833Y-72401000D01*
X137286167Y-72401000D01*
X137533654Y-72351772D01*
X137766781Y-72255207D01*
X137976590Y-72115018D01*
X138155018Y-71936590D01*
X138295207Y-71726781D01*
X138391772Y-71493654D01*
X138430000Y-71301468D01*
X138468228Y-71493654D01*
X138564793Y-71726781D01*
X138704982Y-71936590D01*
X138883410Y-72115018D01*
X139093219Y-72255207D01*
X139326346Y-72351772D01*
X139573833Y-72401000D01*
X139826167Y-72401000D01*
X140073654Y-72351772D01*
X140306781Y-72255207D01*
X140516590Y-72115018D01*
X140695018Y-71936590D01*
X140835207Y-71726781D01*
X140931772Y-71493654D01*
X140970000Y-71301468D01*
X141008228Y-71493654D01*
G37*
%TD.AperFunction*%
D16*
X130006422Y-76168549D02*
X129915329Y-76338971D01*
X129859235Y-76523890D01*
X129840294Y-76716200D01*
X129859235Y-76908510D01*
X129915329Y-77093429D01*
X129937662Y-77135210D01*
X126760642Y-77135210D01*
X126655861Y-77030430D01*
X126692845Y-76908510D01*
X126711786Y-76716200D01*
X126692845Y-76523890D01*
X126636751Y-76338971D01*
X126545658Y-76168549D01*
X126528317Y-76147419D01*
X126551050Y-76149658D01*
X126575904Y-76147210D01*
X130023934Y-76147210D01*
X130006422Y-76168549D01*
%TA.AperFunction,Conductor*%
D17*
G36*
X130006422Y-76168549D02*
G01*
X129915329Y-76338971D01*
X129859235Y-76523890D01*
X129840294Y-76716200D01*
X129859235Y-76908510D01*
X129915329Y-77093429D01*
X129937662Y-77135210D01*
X126760642Y-77135210D01*
X126655861Y-77030430D01*
X126692845Y-76908510D01*
X126711786Y-76716200D01*
X126692845Y-76523890D01*
X126636751Y-76338971D01*
X126545658Y-76168549D01*
X126528317Y-76147419D01*
X126551050Y-76149658D01*
X126575904Y-76147210D01*
X130023934Y-76147210D01*
X130006422Y-76168549D01*
G37*
%TD.AperFunction*%
%TD*%
M02*
