%TF.GenerationSoftware,KiCad,Pcbnew,(5.1.8-0-10_14)*%
%TF.CreationDate,2021-02-06T12:21:22+09:00*%
%TF.ProjectId,usb-pidvid-fixture,7573622d-7069-4647-9669-642d66697874,rev?*%
%TF.SameCoordinates,Original*%
%TF.FileFunction,Copper,L2,Bot*%
%TF.FilePolarity,Positive*%
%FSLAX46Y46*%
G04 Gerber Fmt 4.6, Leading zero omitted, Abs format (unit mm)*
G04 Created by KiCad (PCBNEW (5.1.8-0-10_14)) date 2021-02-06 12:21:22*
%MOMM*%
%LPD*%
G01*
G04 APERTURE LIST*
%TA.AperFunction,EtchedComponent*%
%ADD10C,0.100000*%
%TD*%
%TA.AperFunction,ComponentPad*%
%ADD11O,1.400000X1.200000*%
%TD*%
%TA.AperFunction,ComponentPad*%
%ADD12C,1.800000*%
%TD*%
%TA.AperFunction,SMDPad,CuDef*%
%ADD13C,0.100000*%
%TD*%
%TA.AperFunction,SMDPad,CuDef*%
%ADD14R,1.500000X1.000000*%
%TD*%
%TA.AperFunction,ComponentPad*%
%ADD15C,2.000000*%
%TD*%
%TA.AperFunction,ComponentPad*%
%ADD16O,1.200000X2.000000*%
%TD*%
%TA.AperFunction,ViaPad*%
%ADD17C,0.800000*%
%TD*%
%TA.AperFunction,Conductor*%
%ADD18C,0.250000*%
%TD*%
%TA.AperFunction,Conductor*%
%ADD19C,0.254000*%
%TD*%
%TA.AperFunction,Conductor*%
%ADD20C,0.100000*%
%TD*%
G04 APERTURE END LIST*
D10*
%TO.C,JP1*%
G36*
X119080000Y-76570000D02*
G01*
X119080000Y-77070000D01*
X119680000Y-77070000D01*
X119680000Y-76570000D01*
X119080000Y-76570000D01*
G37*
%TD*%
D11*
%TO.P,D1,5*%
%TO.N,D8*%
X133246040Y-82716200D03*
%TO.P,D1,6*%
%TO.N,Net-(D1-Pad6)*%
X138546040Y-82716200D03*
%TO.P,D1,4*%
%TO.N,D7*%
X133246040Y-80716200D03*
%TO.P,D1,7*%
%TO.N,D9*%
X138546040Y-80716200D03*
%TO.P,D1,3*%
%TO.N,D6*%
X133246040Y-78716200D03*
%TO.P,D1,8*%
%TO.N,D10*%
X138546040Y-78716200D03*
%TO.P,D1,2*%
%TO.N,D5*%
X133246040Y-76716200D03*
%TO.P,D1,9*%
%TO.N,Net-(D1-Pad6)*%
X138546040Y-76716200D03*
%TO.P,D1,1*%
%TO.N,D4*%
X133246040Y-74716200D03*
%TO.P,D1,10*%
%TO.N,D11*%
X138546040Y-74716200D03*
%TD*%
%TO.P,D2,5*%
%TO.N,D8*%
X125626040Y-82716200D03*
%TO.P,D2,6*%
%TO.N,Net-(D2-Pad6)*%
X130926040Y-82716200D03*
%TO.P,D2,4*%
%TO.N,D7*%
X125626040Y-80716200D03*
%TO.P,D2,7*%
%TO.N,D9*%
X130926040Y-80716200D03*
%TO.P,D2,3*%
%TO.N,D6*%
X125626040Y-78716200D03*
%TO.P,D2,8*%
%TO.N,D10*%
X130926040Y-78716200D03*
%TO.P,D2,2*%
%TO.N,D5*%
X125626040Y-76716200D03*
%TO.P,D2,9*%
%TO.N,Net-(D2-Pad6)*%
X130926040Y-76716200D03*
%TO.P,D2,1*%
%TO.N,D4*%
X125626040Y-74716200D03*
%TO.P,D2,10*%
%TO.N,D11*%
X130926040Y-74716200D03*
%TD*%
D12*
%TO.P,J1,1*%
%TO.N,Net-(J1-Pad1)*%
X114300000Y-86360000D03*
%TO.P,J1,2*%
%TO.N,Net-(J1-Pad2)*%
X116840000Y-86360000D03*
%TO.P,J1,3*%
%TO.N,RESET2*%
X119380000Y-86360000D03*
%TO.P,J1,4*%
%TO.N,GND*%
X121920000Y-86360000D03*
%TO.P,J1,5*%
%TO.N,Net-(J1-Pad5)*%
X124460000Y-86360000D03*
%TO.P,J1,6*%
%TO.N,Net-(J1-Pad6)*%
X127000000Y-86360000D03*
%TO.P,J1,7*%
%TO.N,D4*%
X129540000Y-86360000D03*
%TO.P,J1,8*%
%TO.N,D5*%
X132080000Y-86360000D03*
%TO.P,J1,9*%
%TO.N,D6*%
X134620000Y-86360000D03*
%TO.P,J1,10*%
%TO.N,D7*%
X137160000Y-86360000D03*
%TO.P,J1,11*%
%TO.N,D8*%
X139700000Y-86360000D03*
%TO.P,J1,12*%
%TO.N,D9*%
X142240000Y-86360000D03*
%TO.P,J1,13*%
%TO.N,D10*%
X142240000Y-71120000D03*
%TO.P,J1,14*%
%TO.N,D11*%
X139700000Y-71120000D03*
%TO.P,J1,15*%
%TO.N,D12*%
X137160000Y-71120000D03*
%TO.P,J1,16*%
%TO.N,D13*%
X134620000Y-71120000D03*
%TO.P,J1,17*%
%TO.N,D14*%
X132080000Y-71120000D03*
%TO.P,J1,18*%
%TO.N,D15*%
X129540000Y-71120000D03*
%TO.P,J1,19*%
%TO.N,D16*%
X127000000Y-71120000D03*
%TO.P,J1,20*%
%TO.N,D18*%
X124460000Y-71120000D03*
%TO.P,J1,21*%
%TO.N,VCC*%
X121920000Y-71120000D03*
%TO.P,J1,22*%
%TO.N,RESET*%
X119380000Y-71120000D03*
%TO.P,J1,23*%
%TO.N,GND*%
X116840000Y-71120000D03*
%TO.P,J1,24*%
%TO.N,Net-(J1-Pad24)*%
X114300000Y-71120000D03*
%TD*%
%TA.AperFunction,SMDPad,CuDef*%
D13*
%TO.P,JP1,3*%
%TO.N,RESET2*%
G36*
X120129398Y-78770000D02*
G01*
X120129398Y-78794534D01*
X120124588Y-78843365D01*
X120115016Y-78891490D01*
X120100772Y-78938445D01*
X120081995Y-78983778D01*
X120058864Y-79027051D01*
X120031604Y-79067850D01*
X120000476Y-79105779D01*
X119965779Y-79140476D01*
X119927850Y-79171604D01*
X119887051Y-79198864D01*
X119843778Y-79221995D01*
X119798445Y-79240772D01*
X119751490Y-79255016D01*
X119703365Y-79264588D01*
X119654534Y-79269398D01*
X119630000Y-79269398D01*
X119630000Y-79270000D01*
X119130000Y-79270000D01*
X119130000Y-79269398D01*
X119105466Y-79269398D01*
X119056635Y-79264588D01*
X119008510Y-79255016D01*
X118961555Y-79240772D01*
X118916222Y-79221995D01*
X118872949Y-79198864D01*
X118832150Y-79171604D01*
X118794221Y-79140476D01*
X118759524Y-79105779D01*
X118728396Y-79067850D01*
X118701136Y-79027051D01*
X118678005Y-78983778D01*
X118659228Y-78938445D01*
X118644984Y-78891490D01*
X118635412Y-78843365D01*
X118630602Y-78794534D01*
X118630602Y-78770000D01*
X118630000Y-78770000D01*
X118630000Y-78220000D01*
X120130000Y-78220000D01*
X120130000Y-78770000D01*
X120129398Y-78770000D01*
G37*
%TD.AperFunction*%
D14*
%TO.P,JP1,2*%
%TO.N,Net-(JP1-Pad2)*%
X119380000Y-77470000D03*
%TA.AperFunction,SMDPad,CuDef*%
D13*
%TO.P,JP1,1*%
%TO.N,RESET*%
G36*
X118630000Y-76720000D02*
G01*
X118630000Y-76170000D01*
X118630602Y-76170000D01*
X118630602Y-76145466D01*
X118635412Y-76096635D01*
X118644984Y-76048510D01*
X118659228Y-76001555D01*
X118678005Y-75956222D01*
X118701136Y-75912949D01*
X118728396Y-75872150D01*
X118759524Y-75834221D01*
X118794221Y-75799524D01*
X118832150Y-75768396D01*
X118872949Y-75741136D01*
X118916222Y-75718005D01*
X118961555Y-75699228D01*
X119008510Y-75684984D01*
X119056635Y-75675412D01*
X119105466Y-75670602D01*
X119130000Y-75670602D01*
X119130000Y-75670000D01*
X119630000Y-75670000D01*
X119630000Y-75670602D01*
X119654534Y-75670602D01*
X119703365Y-75675412D01*
X119751490Y-75684984D01*
X119798445Y-75699228D01*
X119843778Y-75718005D01*
X119887051Y-75741136D01*
X119927850Y-75768396D01*
X119965779Y-75799524D01*
X120000476Y-75834221D01*
X120031604Y-75872150D01*
X120058864Y-75912949D01*
X120081995Y-75956222D01*
X120100772Y-76001555D01*
X120115016Y-76048510D01*
X120124588Y-76096635D01*
X120129398Y-76145466D01*
X120129398Y-76170000D01*
X120130000Y-76170000D01*
X120130000Y-76720000D01*
X118630000Y-76720000D01*
G37*
%TD.AperFunction*%
%TD*%
%TO.P,R1,1*%
%TO.N,Net-(D1-Pad6)*%
%TA.AperFunction,SMDPad,CuDef*%
G36*
G01*
X136889500Y-77600000D02*
X136414500Y-77600000D01*
G75*
G02*
X136177000Y-77362500I0J237500D01*
G01*
X136177000Y-76862500D01*
G75*
G02*
X136414500Y-76625000I237500J0D01*
G01*
X136889500Y-76625000D01*
G75*
G02*
X137127000Y-76862500I0J-237500D01*
G01*
X137127000Y-77362500D01*
G75*
G02*
X136889500Y-77600000I-237500J0D01*
G01*
G37*
%TD.AperFunction*%
%TO.P,R1,2*%
%TO.N,D12*%
%TA.AperFunction,SMDPad,CuDef*%
G36*
G01*
X136889500Y-75775000D02*
X136414500Y-75775000D01*
G75*
G02*
X136177000Y-75537500I0J237500D01*
G01*
X136177000Y-75037500D01*
G75*
G02*
X136414500Y-74800000I237500J0D01*
G01*
X136889500Y-74800000D01*
G75*
G02*
X137127000Y-75037500I0J-237500D01*
G01*
X137127000Y-75537500D01*
G75*
G02*
X136889500Y-75775000I-237500J0D01*
G01*
G37*
%TD.AperFunction*%
%TD*%
%TO.P,R2,2*%
%TO.N,D13*%
%TA.AperFunction,SMDPad,CuDef*%
G36*
G01*
X129396500Y-75775000D02*
X128921500Y-75775000D01*
G75*
G02*
X128684000Y-75537500I0J237500D01*
G01*
X128684000Y-75037500D01*
G75*
G02*
X128921500Y-74800000I237500J0D01*
G01*
X129396500Y-74800000D01*
G75*
G02*
X129634000Y-75037500I0J-237500D01*
G01*
X129634000Y-75537500D01*
G75*
G02*
X129396500Y-75775000I-237500J0D01*
G01*
G37*
%TD.AperFunction*%
%TO.P,R2,1*%
%TO.N,Net-(D2-Pad6)*%
%TA.AperFunction,SMDPad,CuDef*%
G36*
G01*
X129396500Y-77600000D02*
X128921500Y-77600000D01*
G75*
G02*
X128684000Y-77362500I0J237500D01*
G01*
X128684000Y-76862500D01*
G75*
G02*
X128921500Y-76625000I237500J0D01*
G01*
X129396500Y-76625000D01*
G75*
G02*
X129634000Y-76862500I0J-237500D01*
G01*
X129634000Y-77362500D01*
G75*
G02*
X129396500Y-77600000I-237500J0D01*
G01*
G37*
%TD.AperFunction*%
%TD*%
D15*
%TO.P,S1,1*%
%TO.N,Net-(JP1-Pad2)*%
X141859000Y-82550000D03*
%TO.P,S1,2*%
%TO.N,GND*%
X141859000Y-74930000D03*
%TD*%
D16*
%TO.P,SW1,4*%
%TO.N,D16*%
X121920000Y-82307100D03*
%TO.P,SW1,1*%
%TO.N,D14*%
X121920000Y-74687100D03*
%TO.P,SW1,C*%
%TO.N,GND*%
X119380000Y-82307100D03*
%TO.P,SW1,8*%
%TO.N,D18*%
X116840000Y-82307100D03*
%TO.P,SW1,2*%
%TO.N,D15*%
X116840000Y-74687100D03*
%TD*%
D17*
%TO.N,D9*%
X140893800Y-80568800D03*
%TO.N,D7*%
X136017000Y-80822800D03*
%TO.N,D8*%
X136626600Y-82778600D03*
%TO.N,RESET2*%
X119927210Y-80105965D03*
%TO.N,GND*%
X139682640Y-84827958D03*
X123190000Y-80010000D03*
X123190000Y-77470000D03*
X123232205Y-82550000D03*
X121920000Y-78740000D03*
X120650000Y-74930000D03*
X115570000Y-80010000D03*
X114300000Y-78740000D03*
X115570000Y-77470000D03*
X114300000Y-76200000D03*
X115570000Y-74930000D03*
X114300000Y-73660000D03*
X114300000Y-81280000D03*
X115570000Y-82550000D03*
X114300000Y-83820000D03*
X115570000Y-85090000D03*
X118110000Y-85090000D03*
X118110000Y-82550000D03*
X116840000Y-78740000D03*
X115570000Y-72390000D03*
X128270000Y-82550000D03*
X128270000Y-80010000D03*
X130810000Y-85090000D03*
X125730000Y-85090000D03*
X127635000Y-76708000D03*
X127635000Y-78486000D03*
X127635000Y-74676000D03*
X136017000Y-78740000D03*
X135001000Y-76708000D03*
X135001000Y-74803000D03*
X141859000Y-79756000D03*
X141859000Y-77216000D03*
X133350000Y-85090000D03*
X128270000Y-72390000D03*
X135890000Y-72517000D03*
X120650000Y-72390000D03*
X123190000Y-72390000D03*
X140970000Y-72517000D03*
X142113000Y-84455000D03*
%TO.N,D18*%
X123190000Y-74803000D03*
%TO.N,Net-(JP1-Pad2)*%
X121234200Y-84124800D03*
%TD*%
D18*
%TO.N,D11*%
X137922000Y-72872600D02*
X139674600Y-71120000D01*
X137922000Y-74092160D02*
X137922000Y-72872600D01*
X138546040Y-74716200D02*
X137922000Y-74092160D01*
%TO.N,D4*%
X126746000Y-83566000D02*
X126746000Y-75819000D01*
X126746000Y-75819000D02*
X125603000Y-74676000D01*
X129540000Y-86360000D02*
X126746000Y-83566000D01*
%TO.N,Net-(D1-Pad6)*%
X139571050Y-77696650D02*
X138557000Y-76682600D01*
X138546040Y-82716200D02*
X138546040Y-82588740D01*
X139571050Y-81563730D02*
X139571050Y-77696650D01*
X138546040Y-82588740D02*
X139571050Y-81563730D01*
X136652000Y-77112500D02*
X138152500Y-77112500D01*
X138152500Y-77112500D02*
X138557000Y-76708000D01*
%TO.N,D5*%
X132080000Y-86360000D02*
X132080000Y-77851000D01*
X132080000Y-77851000D02*
X133223000Y-76708000D01*
%TO.N,D6*%
X134620000Y-86360000D02*
X134620000Y-80111600D01*
X134620000Y-80111600D02*
X133248400Y-78740000D01*
%TO.N,D9*%
X140462000Y-84582000D02*
X140462000Y-81945602D01*
X142240000Y-86360000D02*
X140462000Y-84582000D01*
X140480210Y-81927391D02*
X140480210Y-80982390D01*
X140480210Y-80982390D02*
X140893800Y-80568800D01*
X140462000Y-81945602D02*
X140480210Y-81927391D01*
%TO.N,D7*%
X135661400Y-81178400D02*
X136017000Y-80822800D01*
X135661400Y-84861400D02*
X135661400Y-81178400D01*
X137160000Y-86360000D02*
X135661400Y-84861400D01*
%TO.N,D8*%
X136626600Y-83286600D02*
X136626600Y-82778600D01*
X139700000Y-86360000D02*
X136626600Y-83286600D01*
%TO.N,Net-(D2-Pad6)*%
X129844800Y-77851000D02*
X130911600Y-76784200D01*
X129844800Y-81634960D02*
X129844800Y-77851000D01*
X130926040Y-82716200D02*
X129844800Y-81634960D01*
X129159000Y-77112500D02*
X130532500Y-77112500D01*
X130532500Y-77112500D02*
X130937000Y-76708000D01*
%TO.N,RESET2*%
X119927210Y-79338010D02*
X119927210Y-80105965D01*
X119380000Y-78790800D02*
X119927210Y-79338010D01*
%TO.N,GND*%
X141757400Y-74955400D02*
X140030200Y-76682600D01*
X140030200Y-81740991D02*
X139682640Y-82088551D01*
X139682640Y-82088551D02*
X139682640Y-84827958D01*
X140030200Y-76682600D02*
X140030200Y-81740991D01*
X130810000Y-85090000D02*
X128270000Y-82550000D01*
X119202200Y-83165802D02*
X121920000Y-85883602D01*
X118838010Y-79595010D02*
X119202200Y-79959200D01*
X118294989Y-72574989D02*
X118294989Y-75721400D01*
X119202200Y-79959200D02*
X119202200Y-83165802D01*
X116840000Y-71120000D02*
X118294989Y-72574989D01*
X118294989Y-75721400D02*
X118304990Y-75731401D01*
X118791672Y-79595010D02*
X118838010Y-79595010D01*
X118304990Y-75731401D02*
X118304990Y-79108328D01*
X121920000Y-85883602D02*
X121920000Y-86410800D01*
X118304990Y-79108328D02*
X118791672Y-79595010D01*
%TO.N,D12*%
X137414000Y-74525500D02*
X137414000Y-71374000D01*
X137414000Y-71374000D02*
X137160000Y-71120000D01*
X136652000Y-75287500D02*
X137414000Y-74525500D01*
%TO.N,D13*%
X129159000Y-74800000D02*
X130934000Y-73025000D01*
X129159000Y-75287500D02*
X129159000Y-74800000D01*
X130934000Y-73025000D02*
X132715000Y-73025000D01*
X132715000Y-73025000D02*
X134620000Y-71120000D01*
%TO.N,D16*%
X124460000Y-80010000D02*
X124460000Y-73456800D01*
X126771400Y-71145400D02*
X126974600Y-71145400D01*
X122162900Y-82307100D02*
X124460000Y-80010000D01*
X124460000Y-73456800D02*
X126771400Y-71145400D01*
X121920000Y-82307100D02*
X122162900Y-82307100D01*
%TO.N,D18*%
X123571000Y-73660000D02*
X123571000Y-74422000D01*
X123571000Y-74422000D02*
X123190000Y-74803000D01*
X124434600Y-72796400D02*
X123571000Y-73660000D01*
X124434600Y-71170800D02*
X124434600Y-72796400D01*
%TO.N,RESET*%
X119380000Y-76170000D02*
X118745000Y-75535000D01*
X118745000Y-71780400D02*
X119354600Y-71170800D01*
X118745000Y-75535000D02*
X118745000Y-71780400D01*
%TO.N,Net-(JP1-Pad2)*%
X120834201Y-78464565D02*
X119941236Y-77571600D01*
X120834201Y-83724801D02*
X120834201Y-78464565D01*
X121234200Y-84124800D02*
X120834201Y-83724801D01*
X119941236Y-77571600D02*
X119430800Y-77571600D01*
%TD*%
D19*
%TO.N,GND*%
X117033748Y-71105858D02*
X117019605Y-71120000D01*
X117904080Y-72004475D01*
X118158261Y-71920792D01*
X118239357Y-71751925D01*
X118236553Y-71780400D01*
X118239001Y-71805256D01*
X118239000Y-75510154D01*
X118236553Y-75535000D01*
X118239000Y-75559846D01*
X118239000Y-75559853D01*
X118246322Y-75634192D01*
X118275255Y-75729574D01*
X118322241Y-75817479D01*
X118322773Y-75818128D01*
X118297828Y-75878352D01*
X118276043Y-75950169D01*
X118256921Y-76046302D01*
X118249565Y-76120991D01*
X118249565Y-76145550D01*
X118247157Y-76170000D01*
X118247157Y-76720000D01*
X118254513Y-76794689D01*
X118269775Y-76845000D01*
X118254513Y-76895311D01*
X118247157Y-76970000D01*
X118247157Y-77970000D01*
X118254513Y-78044689D01*
X118269775Y-78095000D01*
X118254513Y-78145311D01*
X118247157Y-78220000D01*
X118247157Y-78770000D01*
X118249565Y-78794450D01*
X118249565Y-78819009D01*
X118256921Y-78893698D01*
X118276043Y-78989831D01*
X118297828Y-79061648D01*
X118335337Y-79152204D01*
X118370717Y-79218394D01*
X118425173Y-79299893D01*
X118472784Y-79357908D01*
X118542092Y-79427216D01*
X118600107Y-79474827D01*
X118681606Y-79529283D01*
X118747796Y-79564663D01*
X118838352Y-79602172D01*
X118910169Y-79623957D01*
X119006302Y-79643079D01*
X119080991Y-79650435D01*
X119105550Y-79650435D01*
X119130000Y-79652843D01*
X119290676Y-79652843D01*
X119235097Y-79736023D01*
X119176223Y-79878156D01*
X119146210Y-80029043D01*
X119146210Y-80182887D01*
X119176223Y-80333774D01*
X119235097Y-80475907D01*
X119320568Y-80603824D01*
X119429351Y-80712607D01*
X119557268Y-80798078D01*
X119564190Y-80800945D01*
X119507000Y-80838369D01*
X119507000Y-82180100D01*
X119527000Y-82180100D01*
X119527000Y-82434100D01*
X119507000Y-82434100D01*
X119507000Y-83775831D01*
X119697609Y-83900562D01*
X119735282Y-83896691D01*
X119960533Y-83804521D01*
X120163474Y-83670178D01*
X120328201Y-83506862D01*
X120328201Y-83699955D01*
X120325754Y-83724801D01*
X120328201Y-83749647D01*
X120328201Y-83749654D01*
X120335523Y-83823993D01*
X120364456Y-83919375D01*
X120411442Y-84007280D01*
X120453200Y-84058162D01*
X120453200Y-84201722D01*
X120483213Y-84352609D01*
X120542087Y-84494742D01*
X120627558Y-84622659D01*
X120736341Y-84731442D01*
X120864258Y-84816913D01*
X121006391Y-84875787D01*
X121157278Y-84905800D01*
X121311122Y-84905800D01*
X121462009Y-84875787D01*
X121604142Y-84816913D01*
X121732059Y-84731442D01*
X121840842Y-84622659D01*
X121926313Y-84494742D01*
X121985187Y-84352609D01*
X122015200Y-84201722D01*
X122015200Y-84047878D01*
X121985187Y-83896991D01*
X121926313Y-83754858D01*
X121882404Y-83689143D01*
X121920000Y-83692846D01*
X122112309Y-83673905D01*
X122297228Y-83617811D01*
X122467651Y-83526718D01*
X122617028Y-83404128D01*
X122739618Y-83254751D01*
X122830711Y-83084329D01*
X122886805Y-82899410D01*
X122901000Y-82755287D01*
X122901000Y-82284591D01*
X124548040Y-80637552D01*
X124540294Y-80716200D01*
X124559235Y-80908510D01*
X124615329Y-81093429D01*
X124706422Y-81263851D01*
X124829012Y-81413228D01*
X124978389Y-81535818D01*
X125148811Y-81626911D01*
X125333730Y-81683005D01*
X125477853Y-81697200D01*
X125774227Y-81697200D01*
X125918350Y-81683005D01*
X126103269Y-81626911D01*
X126240000Y-81553826D01*
X126240000Y-81878574D01*
X126103269Y-81805489D01*
X125918350Y-81749395D01*
X125774227Y-81735200D01*
X125477853Y-81735200D01*
X125333730Y-81749395D01*
X125148811Y-81805489D01*
X124978389Y-81896582D01*
X124829012Y-82019172D01*
X124706422Y-82168549D01*
X124615329Y-82338971D01*
X124559235Y-82523890D01*
X124540294Y-82716200D01*
X124559235Y-82908510D01*
X124615329Y-83093429D01*
X124706422Y-83263851D01*
X124829012Y-83413228D01*
X124978389Y-83535818D01*
X125148811Y-83626911D01*
X125333730Y-83683005D01*
X125477853Y-83697200D01*
X125774227Y-83697200D01*
X125918350Y-83683005D01*
X126103269Y-83626911D01*
X126238683Y-83554531D01*
X126237553Y-83566000D01*
X126240000Y-83590846D01*
X126240000Y-83590853D01*
X126247322Y-83665192D01*
X126276255Y-83760574D01*
X126323241Y-83848479D01*
X126386473Y-83925527D01*
X126405785Y-83941376D01*
X128349973Y-85885565D01*
X128308228Y-85986346D01*
X128270000Y-86178532D01*
X128231772Y-85986346D01*
X128135207Y-85753219D01*
X127995018Y-85543410D01*
X127816590Y-85364982D01*
X127606781Y-85224793D01*
X127373654Y-85128228D01*
X127126167Y-85079000D01*
X126873833Y-85079000D01*
X126626346Y-85128228D01*
X126393219Y-85224793D01*
X126183410Y-85364982D01*
X126004982Y-85543410D01*
X125864793Y-85753219D01*
X125768228Y-85986346D01*
X125730000Y-86178532D01*
X125691772Y-85986346D01*
X125595207Y-85753219D01*
X125455018Y-85543410D01*
X125276590Y-85364982D01*
X125066781Y-85224793D01*
X124833654Y-85128228D01*
X124586167Y-85079000D01*
X124333833Y-85079000D01*
X124086346Y-85128228D01*
X123853219Y-85224793D01*
X123643410Y-85364982D01*
X123464982Y-85543410D01*
X123330709Y-85744364D01*
X123318222Y-85708801D01*
X123238261Y-85559208D01*
X122984080Y-85475525D01*
X122099605Y-86360000D01*
X122113748Y-86374143D01*
X121934143Y-86553748D01*
X121920000Y-86539605D01*
X121905858Y-86553748D01*
X121726253Y-86374143D01*
X121740395Y-86360000D01*
X120855920Y-85475525D01*
X120601739Y-85559208D01*
X120511344Y-85747438D01*
X120375018Y-85543410D01*
X120196590Y-85364982D01*
X120093231Y-85295920D01*
X121035525Y-85295920D01*
X121920000Y-86180395D01*
X122804475Y-85295920D01*
X122720792Y-85041739D01*
X122448225Y-84910842D01*
X122155358Y-84835635D01*
X121853447Y-84819009D01*
X121554093Y-84861603D01*
X121268801Y-84961778D01*
X121119208Y-85041739D01*
X121035525Y-85295920D01*
X120093231Y-85295920D01*
X119986781Y-85224793D01*
X119753654Y-85128228D01*
X119506167Y-85079000D01*
X119253833Y-85079000D01*
X119006346Y-85128228D01*
X118773219Y-85224793D01*
X118563410Y-85364982D01*
X118384982Y-85543410D01*
X118244793Y-85753219D01*
X118148228Y-85986346D01*
X118110000Y-86178532D01*
X118071772Y-85986346D01*
X117975207Y-85753219D01*
X117835018Y-85543410D01*
X117656590Y-85364982D01*
X117446781Y-85224793D01*
X117213654Y-85128228D01*
X116966167Y-85079000D01*
X116713833Y-85079000D01*
X116466346Y-85128228D01*
X116233219Y-85224793D01*
X116023410Y-85364982D01*
X115844982Y-85543410D01*
X115704793Y-85753219D01*
X115608228Y-85986346D01*
X115570000Y-86178532D01*
X115531772Y-85986346D01*
X115435207Y-85753219D01*
X115295018Y-85543410D01*
X115116590Y-85364982D01*
X114906781Y-85224793D01*
X114673654Y-85128228D01*
X114426167Y-85079000D01*
X114173833Y-85079000D01*
X113926346Y-85128228D01*
X113693219Y-85224793D01*
X113483410Y-85364982D01*
X113304982Y-85543410D01*
X113164793Y-85753219D01*
X113157000Y-85772033D01*
X113157000Y-81858913D01*
X115859000Y-81858913D01*
X115859000Y-82755286D01*
X115873195Y-82899409D01*
X115929289Y-83084328D01*
X116020382Y-83254751D01*
X116142972Y-83404128D01*
X116292349Y-83526718D01*
X116462771Y-83617811D01*
X116647690Y-83673905D01*
X116840000Y-83692846D01*
X117032309Y-83673905D01*
X117217228Y-83617811D01*
X117387651Y-83526718D01*
X117537028Y-83404128D01*
X117659618Y-83254751D01*
X117750711Y-83084329D01*
X117806805Y-82899410D01*
X117821000Y-82755287D01*
X117821000Y-82434100D01*
X118145000Y-82434100D01*
X118145000Y-82834100D01*
X118193507Y-83072596D01*
X118287610Y-83297046D01*
X118423693Y-83498825D01*
X118596526Y-83670178D01*
X118799467Y-83804521D01*
X119024718Y-83896691D01*
X119062391Y-83900562D01*
X119253000Y-83775831D01*
X119253000Y-82434100D01*
X118145000Y-82434100D01*
X117821000Y-82434100D01*
X117821000Y-81858914D01*
X117813238Y-81780100D01*
X118145000Y-81780100D01*
X118145000Y-82180100D01*
X119253000Y-82180100D01*
X119253000Y-80838369D01*
X119062391Y-80713638D01*
X119024718Y-80717509D01*
X118799467Y-80809679D01*
X118596526Y-80944022D01*
X118423693Y-81115375D01*
X118287610Y-81317154D01*
X118193507Y-81541604D01*
X118145000Y-81780100D01*
X117813238Y-81780100D01*
X117806805Y-81714791D01*
X117750711Y-81529871D01*
X117659618Y-81359449D01*
X117537028Y-81210072D01*
X117387651Y-81087482D01*
X117217229Y-80996389D01*
X117032310Y-80940295D01*
X116840000Y-80921354D01*
X116647691Y-80940295D01*
X116462772Y-80996389D01*
X116292350Y-81087482D01*
X116142973Y-81210072D01*
X116020383Y-81359449D01*
X115929290Y-81529871D01*
X115873196Y-81714790D01*
X115859000Y-81858913D01*
X113157000Y-81858913D01*
X113157000Y-74238913D01*
X115859000Y-74238913D01*
X115859000Y-75135286D01*
X115873195Y-75279409D01*
X115929289Y-75464328D01*
X116020382Y-75634751D01*
X116142972Y-75784128D01*
X116292349Y-75906718D01*
X116462771Y-75997811D01*
X116647690Y-76053905D01*
X116840000Y-76072846D01*
X117032309Y-76053905D01*
X117217228Y-75997811D01*
X117387651Y-75906718D01*
X117537028Y-75784128D01*
X117659618Y-75634751D01*
X117750711Y-75464329D01*
X117806805Y-75279410D01*
X117821000Y-75135287D01*
X117821000Y-74238914D01*
X117806805Y-74094791D01*
X117750711Y-73909871D01*
X117659618Y-73739449D01*
X117537028Y-73590072D01*
X117387651Y-73467482D01*
X117217229Y-73376389D01*
X117032310Y-73320295D01*
X116840000Y-73301354D01*
X116647691Y-73320295D01*
X116462772Y-73376389D01*
X116292350Y-73467482D01*
X116142973Y-73590072D01*
X116020383Y-73739449D01*
X115929290Y-73909871D01*
X115873196Y-74094790D01*
X115859000Y-74238913D01*
X113157000Y-74238913D01*
X113157000Y-71707967D01*
X113164793Y-71726781D01*
X113304982Y-71936590D01*
X113483410Y-72115018D01*
X113693219Y-72255207D01*
X113926346Y-72351772D01*
X114173833Y-72401000D01*
X114426167Y-72401000D01*
X114673654Y-72351772D01*
X114906781Y-72255207D01*
X115013230Y-72184080D01*
X115955525Y-72184080D01*
X116039208Y-72438261D01*
X116311775Y-72569158D01*
X116604642Y-72644365D01*
X116906553Y-72660991D01*
X117205907Y-72618397D01*
X117491199Y-72518222D01*
X117640792Y-72438261D01*
X117724475Y-72184080D01*
X116840000Y-71299605D01*
X115955525Y-72184080D01*
X115013230Y-72184080D01*
X115116590Y-72115018D01*
X115295018Y-71936590D01*
X115429291Y-71735636D01*
X115441778Y-71771199D01*
X115521739Y-71920792D01*
X115775920Y-72004475D01*
X116660395Y-71120000D01*
X116646253Y-71105858D01*
X116825858Y-70926253D01*
X116840000Y-70940395D01*
X116854143Y-70926253D01*
X117033748Y-71105858D01*
%TA.AperFunction,Conductor*%
D20*
G36*
X117033748Y-71105858D02*
G01*
X117019605Y-71120000D01*
X117904080Y-72004475D01*
X118158261Y-71920792D01*
X118239357Y-71751925D01*
X118236553Y-71780400D01*
X118239001Y-71805256D01*
X118239000Y-75510154D01*
X118236553Y-75535000D01*
X118239000Y-75559846D01*
X118239000Y-75559853D01*
X118246322Y-75634192D01*
X118275255Y-75729574D01*
X118322241Y-75817479D01*
X118322773Y-75818128D01*
X118297828Y-75878352D01*
X118276043Y-75950169D01*
X118256921Y-76046302D01*
X118249565Y-76120991D01*
X118249565Y-76145550D01*
X118247157Y-76170000D01*
X118247157Y-76720000D01*
X118254513Y-76794689D01*
X118269775Y-76845000D01*
X118254513Y-76895311D01*
X118247157Y-76970000D01*
X118247157Y-77970000D01*
X118254513Y-78044689D01*
X118269775Y-78095000D01*
X118254513Y-78145311D01*
X118247157Y-78220000D01*
X118247157Y-78770000D01*
X118249565Y-78794450D01*
X118249565Y-78819009D01*
X118256921Y-78893698D01*
X118276043Y-78989831D01*
X118297828Y-79061648D01*
X118335337Y-79152204D01*
X118370717Y-79218394D01*
X118425173Y-79299893D01*
X118472784Y-79357908D01*
X118542092Y-79427216D01*
X118600107Y-79474827D01*
X118681606Y-79529283D01*
X118747796Y-79564663D01*
X118838352Y-79602172D01*
X118910169Y-79623957D01*
X119006302Y-79643079D01*
X119080991Y-79650435D01*
X119105550Y-79650435D01*
X119130000Y-79652843D01*
X119290676Y-79652843D01*
X119235097Y-79736023D01*
X119176223Y-79878156D01*
X119146210Y-80029043D01*
X119146210Y-80182887D01*
X119176223Y-80333774D01*
X119235097Y-80475907D01*
X119320568Y-80603824D01*
X119429351Y-80712607D01*
X119557268Y-80798078D01*
X119564190Y-80800945D01*
X119507000Y-80838369D01*
X119507000Y-82180100D01*
X119527000Y-82180100D01*
X119527000Y-82434100D01*
X119507000Y-82434100D01*
X119507000Y-83775831D01*
X119697609Y-83900562D01*
X119735282Y-83896691D01*
X119960533Y-83804521D01*
X120163474Y-83670178D01*
X120328201Y-83506862D01*
X120328201Y-83699955D01*
X120325754Y-83724801D01*
X120328201Y-83749647D01*
X120328201Y-83749654D01*
X120335523Y-83823993D01*
X120364456Y-83919375D01*
X120411442Y-84007280D01*
X120453200Y-84058162D01*
X120453200Y-84201722D01*
X120483213Y-84352609D01*
X120542087Y-84494742D01*
X120627558Y-84622659D01*
X120736341Y-84731442D01*
X120864258Y-84816913D01*
X121006391Y-84875787D01*
X121157278Y-84905800D01*
X121311122Y-84905800D01*
X121462009Y-84875787D01*
X121604142Y-84816913D01*
X121732059Y-84731442D01*
X121840842Y-84622659D01*
X121926313Y-84494742D01*
X121985187Y-84352609D01*
X122015200Y-84201722D01*
X122015200Y-84047878D01*
X121985187Y-83896991D01*
X121926313Y-83754858D01*
X121882404Y-83689143D01*
X121920000Y-83692846D01*
X122112309Y-83673905D01*
X122297228Y-83617811D01*
X122467651Y-83526718D01*
X122617028Y-83404128D01*
X122739618Y-83254751D01*
X122830711Y-83084329D01*
X122886805Y-82899410D01*
X122901000Y-82755287D01*
X122901000Y-82284591D01*
X124548040Y-80637552D01*
X124540294Y-80716200D01*
X124559235Y-80908510D01*
X124615329Y-81093429D01*
X124706422Y-81263851D01*
X124829012Y-81413228D01*
X124978389Y-81535818D01*
X125148811Y-81626911D01*
X125333730Y-81683005D01*
X125477853Y-81697200D01*
X125774227Y-81697200D01*
X125918350Y-81683005D01*
X126103269Y-81626911D01*
X126240000Y-81553826D01*
X126240000Y-81878574D01*
X126103269Y-81805489D01*
X125918350Y-81749395D01*
X125774227Y-81735200D01*
X125477853Y-81735200D01*
X125333730Y-81749395D01*
X125148811Y-81805489D01*
X124978389Y-81896582D01*
X124829012Y-82019172D01*
X124706422Y-82168549D01*
X124615329Y-82338971D01*
X124559235Y-82523890D01*
X124540294Y-82716200D01*
X124559235Y-82908510D01*
X124615329Y-83093429D01*
X124706422Y-83263851D01*
X124829012Y-83413228D01*
X124978389Y-83535818D01*
X125148811Y-83626911D01*
X125333730Y-83683005D01*
X125477853Y-83697200D01*
X125774227Y-83697200D01*
X125918350Y-83683005D01*
X126103269Y-83626911D01*
X126238683Y-83554531D01*
X126237553Y-83566000D01*
X126240000Y-83590846D01*
X126240000Y-83590853D01*
X126247322Y-83665192D01*
X126276255Y-83760574D01*
X126323241Y-83848479D01*
X126386473Y-83925527D01*
X126405785Y-83941376D01*
X128349973Y-85885565D01*
X128308228Y-85986346D01*
X128270000Y-86178532D01*
X128231772Y-85986346D01*
X128135207Y-85753219D01*
X127995018Y-85543410D01*
X127816590Y-85364982D01*
X127606781Y-85224793D01*
X127373654Y-85128228D01*
X127126167Y-85079000D01*
X126873833Y-85079000D01*
X126626346Y-85128228D01*
X126393219Y-85224793D01*
X126183410Y-85364982D01*
X126004982Y-85543410D01*
X125864793Y-85753219D01*
X125768228Y-85986346D01*
X125730000Y-86178532D01*
X125691772Y-85986346D01*
X125595207Y-85753219D01*
X125455018Y-85543410D01*
X125276590Y-85364982D01*
X125066781Y-85224793D01*
X124833654Y-85128228D01*
X124586167Y-85079000D01*
X124333833Y-85079000D01*
X124086346Y-85128228D01*
X123853219Y-85224793D01*
X123643410Y-85364982D01*
X123464982Y-85543410D01*
X123330709Y-85744364D01*
X123318222Y-85708801D01*
X123238261Y-85559208D01*
X122984080Y-85475525D01*
X122099605Y-86360000D01*
X122113748Y-86374143D01*
X121934143Y-86553748D01*
X121920000Y-86539605D01*
X121905858Y-86553748D01*
X121726253Y-86374143D01*
X121740395Y-86360000D01*
X120855920Y-85475525D01*
X120601739Y-85559208D01*
X120511344Y-85747438D01*
X120375018Y-85543410D01*
X120196590Y-85364982D01*
X120093231Y-85295920D01*
X121035525Y-85295920D01*
X121920000Y-86180395D01*
X122804475Y-85295920D01*
X122720792Y-85041739D01*
X122448225Y-84910842D01*
X122155358Y-84835635D01*
X121853447Y-84819009D01*
X121554093Y-84861603D01*
X121268801Y-84961778D01*
X121119208Y-85041739D01*
X121035525Y-85295920D01*
X120093231Y-85295920D01*
X119986781Y-85224793D01*
X119753654Y-85128228D01*
X119506167Y-85079000D01*
X119253833Y-85079000D01*
X119006346Y-85128228D01*
X118773219Y-85224793D01*
X118563410Y-85364982D01*
X118384982Y-85543410D01*
X118244793Y-85753219D01*
X118148228Y-85986346D01*
X118110000Y-86178532D01*
X118071772Y-85986346D01*
X117975207Y-85753219D01*
X117835018Y-85543410D01*
X117656590Y-85364982D01*
X117446781Y-85224793D01*
X117213654Y-85128228D01*
X116966167Y-85079000D01*
X116713833Y-85079000D01*
X116466346Y-85128228D01*
X116233219Y-85224793D01*
X116023410Y-85364982D01*
X115844982Y-85543410D01*
X115704793Y-85753219D01*
X115608228Y-85986346D01*
X115570000Y-86178532D01*
X115531772Y-85986346D01*
X115435207Y-85753219D01*
X115295018Y-85543410D01*
X115116590Y-85364982D01*
X114906781Y-85224793D01*
X114673654Y-85128228D01*
X114426167Y-85079000D01*
X114173833Y-85079000D01*
X113926346Y-85128228D01*
X113693219Y-85224793D01*
X113483410Y-85364982D01*
X113304982Y-85543410D01*
X113164793Y-85753219D01*
X113157000Y-85772033D01*
X113157000Y-81858913D01*
X115859000Y-81858913D01*
X115859000Y-82755286D01*
X115873195Y-82899409D01*
X115929289Y-83084328D01*
X116020382Y-83254751D01*
X116142972Y-83404128D01*
X116292349Y-83526718D01*
X116462771Y-83617811D01*
X116647690Y-83673905D01*
X116840000Y-83692846D01*
X117032309Y-83673905D01*
X117217228Y-83617811D01*
X117387651Y-83526718D01*
X117537028Y-83404128D01*
X117659618Y-83254751D01*
X117750711Y-83084329D01*
X117806805Y-82899410D01*
X117821000Y-82755287D01*
X117821000Y-82434100D01*
X118145000Y-82434100D01*
X118145000Y-82834100D01*
X118193507Y-83072596D01*
X118287610Y-83297046D01*
X118423693Y-83498825D01*
X118596526Y-83670178D01*
X118799467Y-83804521D01*
X119024718Y-83896691D01*
X119062391Y-83900562D01*
X119253000Y-83775831D01*
X119253000Y-82434100D01*
X118145000Y-82434100D01*
X117821000Y-82434100D01*
X117821000Y-81858914D01*
X117813238Y-81780100D01*
X118145000Y-81780100D01*
X118145000Y-82180100D01*
X119253000Y-82180100D01*
X119253000Y-80838369D01*
X119062391Y-80713638D01*
X119024718Y-80717509D01*
X118799467Y-80809679D01*
X118596526Y-80944022D01*
X118423693Y-81115375D01*
X118287610Y-81317154D01*
X118193507Y-81541604D01*
X118145000Y-81780100D01*
X117813238Y-81780100D01*
X117806805Y-81714791D01*
X117750711Y-81529871D01*
X117659618Y-81359449D01*
X117537028Y-81210072D01*
X117387651Y-81087482D01*
X117217229Y-80996389D01*
X117032310Y-80940295D01*
X116840000Y-80921354D01*
X116647691Y-80940295D01*
X116462772Y-80996389D01*
X116292350Y-81087482D01*
X116142973Y-81210072D01*
X116020383Y-81359449D01*
X115929290Y-81529871D01*
X115873196Y-81714790D01*
X115859000Y-81858913D01*
X113157000Y-81858913D01*
X113157000Y-74238913D01*
X115859000Y-74238913D01*
X115859000Y-75135286D01*
X115873195Y-75279409D01*
X115929289Y-75464328D01*
X116020382Y-75634751D01*
X116142972Y-75784128D01*
X116292349Y-75906718D01*
X116462771Y-75997811D01*
X116647690Y-76053905D01*
X116840000Y-76072846D01*
X117032309Y-76053905D01*
X117217228Y-75997811D01*
X117387651Y-75906718D01*
X117537028Y-75784128D01*
X117659618Y-75634751D01*
X117750711Y-75464329D01*
X117806805Y-75279410D01*
X117821000Y-75135287D01*
X117821000Y-74238914D01*
X117806805Y-74094791D01*
X117750711Y-73909871D01*
X117659618Y-73739449D01*
X117537028Y-73590072D01*
X117387651Y-73467482D01*
X117217229Y-73376389D01*
X117032310Y-73320295D01*
X116840000Y-73301354D01*
X116647691Y-73320295D01*
X116462772Y-73376389D01*
X116292350Y-73467482D01*
X116142973Y-73590072D01*
X116020383Y-73739449D01*
X115929290Y-73909871D01*
X115873196Y-74094790D01*
X115859000Y-74238913D01*
X113157000Y-74238913D01*
X113157000Y-71707967D01*
X113164793Y-71726781D01*
X113304982Y-71936590D01*
X113483410Y-72115018D01*
X113693219Y-72255207D01*
X113926346Y-72351772D01*
X114173833Y-72401000D01*
X114426167Y-72401000D01*
X114673654Y-72351772D01*
X114906781Y-72255207D01*
X115013230Y-72184080D01*
X115955525Y-72184080D01*
X116039208Y-72438261D01*
X116311775Y-72569158D01*
X116604642Y-72644365D01*
X116906553Y-72660991D01*
X117205907Y-72618397D01*
X117491199Y-72518222D01*
X117640792Y-72438261D01*
X117724475Y-72184080D01*
X116840000Y-71299605D01*
X115955525Y-72184080D01*
X115013230Y-72184080D01*
X115116590Y-72115018D01*
X115295018Y-71936590D01*
X115429291Y-71735636D01*
X115441778Y-71771199D01*
X115521739Y-71920792D01*
X115775920Y-72004475D01*
X116660395Y-71120000D01*
X116646253Y-71105858D01*
X116825858Y-70926253D01*
X116840000Y-70940395D01*
X116854143Y-70926253D01*
X117033748Y-71105858D01*
G37*
%TD.AperFunction*%
D19*
X141008228Y-71493654D02*
X141104793Y-71726781D01*
X141244982Y-71936590D01*
X141423410Y-72115018D01*
X141633219Y-72255207D01*
X141866346Y-72351772D01*
X142113833Y-72401000D01*
X142366167Y-72401000D01*
X142613654Y-72351772D01*
X142846781Y-72255207D01*
X143056590Y-72115018D01*
X143235018Y-71936590D01*
X143375207Y-71726781D01*
X143383000Y-71707967D01*
X143383000Y-74334238D01*
X143351795Y-74243912D01*
X143258814Y-74069956D01*
X142994413Y-73974192D01*
X142038605Y-74930000D01*
X142994413Y-75885808D01*
X143258814Y-75790044D01*
X143383000Y-75534766D01*
X143383000Y-85772033D01*
X143375207Y-85753219D01*
X143235018Y-85543410D01*
X143056590Y-85364982D01*
X142846781Y-85224793D01*
X142613654Y-85128228D01*
X142366167Y-85079000D01*
X142113833Y-85079000D01*
X141866346Y-85128228D01*
X141765565Y-85169973D01*
X140968000Y-84372409D01*
X140968000Y-83612029D01*
X140978664Y-83622693D01*
X141204851Y-83773826D01*
X141456177Y-83877929D01*
X141722983Y-83931000D01*
X141995017Y-83931000D01*
X142261823Y-83877929D01*
X142513149Y-83773826D01*
X142739336Y-83622693D01*
X142931693Y-83430336D01*
X143082826Y-83204149D01*
X143186929Y-82952823D01*
X143240000Y-82686017D01*
X143240000Y-82413983D01*
X143186929Y-82147177D01*
X143082826Y-81895851D01*
X142931693Y-81669664D01*
X142739336Y-81477307D01*
X142513149Y-81326174D01*
X142261823Y-81222071D01*
X141995017Y-81169000D01*
X141722983Y-81169000D01*
X141456177Y-81222071D01*
X141204851Y-81326174D01*
X140986210Y-81472265D01*
X140986210Y-81346719D01*
X141121609Y-81319787D01*
X141263742Y-81260913D01*
X141391659Y-81175442D01*
X141500442Y-81066659D01*
X141585913Y-80938742D01*
X141644787Y-80796609D01*
X141674800Y-80645722D01*
X141674800Y-80491878D01*
X141644787Y-80340991D01*
X141585913Y-80198858D01*
X141500442Y-80070941D01*
X141391659Y-79962158D01*
X141263742Y-79876687D01*
X141121609Y-79817813D01*
X140970722Y-79787800D01*
X140816878Y-79787800D01*
X140665991Y-79817813D01*
X140523858Y-79876687D01*
X140395941Y-79962158D01*
X140287158Y-80070941D01*
X140201687Y-80198858D01*
X140142813Y-80340991D01*
X140112800Y-80491878D01*
X140112800Y-80632470D01*
X140077050Y-80676031D01*
X140077050Y-77721495D01*
X140079497Y-77696649D01*
X140077050Y-77671803D01*
X140077050Y-77671796D01*
X140069728Y-77597457D01*
X140040795Y-77502075D01*
X139993809Y-77414171D01*
X139930577Y-77337123D01*
X139911270Y-77321278D01*
X139586232Y-76996241D01*
X139612845Y-76908510D01*
X139631786Y-76716200D01*
X139612845Y-76523890D01*
X139556751Y-76338971D01*
X139465658Y-76168549D01*
X139381017Y-76065413D01*
X140903192Y-76065413D01*
X140998956Y-76329814D01*
X141288571Y-76470704D01*
X141600108Y-76552384D01*
X141921595Y-76571718D01*
X142240675Y-76527961D01*
X142545088Y-76422795D01*
X142719044Y-76329814D01*
X142814808Y-76065413D01*
X141859000Y-75109605D01*
X140903192Y-76065413D01*
X139381017Y-76065413D01*
X139343068Y-76019172D01*
X139193691Y-75896582D01*
X139023269Y-75805489D01*
X138838350Y-75749395D01*
X138694227Y-75735200D01*
X138397853Y-75735200D01*
X138253730Y-75749395D01*
X138068811Y-75805489D01*
X137898389Y-75896582D01*
X137749012Y-76019172D01*
X137626422Y-76168549D01*
X137535329Y-76338971D01*
X137479235Y-76523890D01*
X137471099Y-76606500D01*
X137452677Y-76606500D01*
X137405296Y-76517856D01*
X137328149Y-76423851D01*
X137234144Y-76346704D01*
X137126895Y-76289378D01*
X137010523Y-76254077D01*
X136889500Y-76242157D01*
X136414500Y-76242157D01*
X136293477Y-76254077D01*
X136177105Y-76289378D01*
X136069856Y-76346704D01*
X135975851Y-76423851D01*
X135898704Y-76517856D01*
X135841378Y-76625105D01*
X135806077Y-76741477D01*
X135794157Y-76862500D01*
X135794157Y-77362500D01*
X135806077Y-77483523D01*
X135841378Y-77599895D01*
X135898704Y-77707144D01*
X135975851Y-77801149D01*
X136069856Y-77878296D01*
X136177105Y-77935622D01*
X136293477Y-77970923D01*
X136414500Y-77982843D01*
X136889500Y-77982843D01*
X137010523Y-77970923D01*
X137126895Y-77935622D01*
X137234144Y-77878296D01*
X137328149Y-77801149D01*
X137405296Y-77707144D01*
X137452677Y-77618500D01*
X138053075Y-77618500D01*
X138068811Y-77626911D01*
X138253730Y-77683005D01*
X138397853Y-77697200D01*
X138694227Y-77697200D01*
X138838350Y-77683005D01*
X138841007Y-77682199D01*
X138938619Y-77779811D01*
X138838350Y-77749395D01*
X138694227Y-77735200D01*
X138397853Y-77735200D01*
X138253730Y-77749395D01*
X138068811Y-77805489D01*
X137898389Y-77896582D01*
X137749012Y-78019172D01*
X137626422Y-78168549D01*
X137535329Y-78338971D01*
X137479235Y-78523890D01*
X137460294Y-78716200D01*
X137479235Y-78908510D01*
X137535329Y-79093429D01*
X137626422Y-79263851D01*
X137749012Y-79413228D01*
X137898389Y-79535818D01*
X138068811Y-79626911D01*
X138253730Y-79683005D01*
X138397853Y-79697200D01*
X138694227Y-79697200D01*
X138838350Y-79683005D01*
X139023269Y-79626911D01*
X139065051Y-79604578D01*
X139065050Y-79827822D01*
X139023269Y-79805489D01*
X138838350Y-79749395D01*
X138694227Y-79735200D01*
X138397853Y-79735200D01*
X138253730Y-79749395D01*
X138068811Y-79805489D01*
X137898389Y-79896582D01*
X137749012Y-80019172D01*
X137626422Y-80168549D01*
X137535329Y-80338971D01*
X137479235Y-80523890D01*
X137460294Y-80716200D01*
X137479235Y-80908510D01*
X137535329Y-81093429D01*
X137626422Y-81263851D01*
X137749012Y-81413228D01*
X137898389Y-81535818D01*
X138068811Y-81626911D01*
X138253730Y-81683005D01*
X138397853Y-81697200D01*
X138694227Y-81697200D01*
X138725021Y-81694167D01*
X138683989Y-81735200D01*
X138397853Y-81735200D01*
X138253730Y-81749395D01*
X138068811Y-81805489D01*
X137898389Y-81896582D01*
X137749012Y-82019172D01*
X137626422Y-82168549D01*
X137535329Y-82338971D01*
X137479235Y-82523890D01*
X137460294Y-82716200D01*
X137479235Y-82908510D01*
X137535329Y-83093429D01*
X137626422Y-83263851D01*
X137749012Y-83413228D01*
X137898389Y-83535818D01*
X138068811Y-83626911D01*
X138253730Y-83683005D01*
X138397853Y-83697200D01*
X138694227Y-83697200D01*
X138838350Y-83683005D01*
X139023269Y-83626911D01*
X139193691Y-83535818D01*
X139343068Y-83413228D01*
X139465658Y-83263851D01*
X139556751Y-83093429D01*
X139612845Y-82908510D01*
X139631786Y-82716200D01*
X139612845Y-82523890D01*
X139556751Y-82338971D01*
X139540954Y-82309417D01*
X139911270Y-81939102D01*
X139930577Y-81923257D01*
X139959186Y-81888396D01*
X139953553Y-81945615D01*
X139956001Y-81970464D01*
X139956000Y-84557154D01*
X139953553Y-84582000D01*
X139956000Y-84606846D01*
X139956000Y-84606853D01*
X139963322Y-84681192D01*
X139992255Y-84776574D01*
X140039241Y-84864479D01*
X140102473Y-84941527D01*
X140121785Y-84957376D01*
X141049973Y-85885565D01*
X141008228Y-85986346D01*
X140970000Y-86178532D01*
X140931772Y-85986346D01*
X140835207Y-85753219D01*
X140695018Y-85543410D01*
X140516590Y-85364982D01*
X140306781Y-85224793D01*
X140073654Y-85128228D01*
X139826167Y-85079000D01*
X139573833Y-85079000D01*
X139326346Y-85128228D01*
X139225565Y-85169973D01*
X137272819Y-83217228D01*
X137318713Y-83148542D01*
X137377587Y-83006409D01*
X137407600Y-82855522D01*
X137407600Y-82701678D01*
X137377587Y-82550791D01*
X137318713Y-82408658D01*
X137233242Y-82280741D01*
X137124459Y-82171958D01*
X136996542Y-82086487D01*
X136854409Y-82027613D01*
X136703522Y-81997600D01*
X136549678Y-81997600D01*
X136398791Y-82027613D01*
X136256658Y-82086487D01*
X136167400Y-82146127D01*
X136167400Y-81589184D01*
X136244809Y-81573787D01*
X136386942Y-81514913D01*
X136514859Y-81429442D01*
X136623642Y-81320659D01*
X136709113Y-81192742D01*
X136767987Y-81050609D01*
X136798000Y-80899722D01*
X136798000Y-80745878D01*
X136767987Y-80594991D01*
X136709113Y-80452858D01*
X136623642Y-80324941D01*
X136514859Y-80216158D01*
X136386942Y-80130687D01*
X136244809Y-80071813D01*
X136093922Y-80041800D01*
X135940078Y-80041800D01*
X135789191Y-80071813D01*
X135647058Y-80130687D01*
X135519141Y-80216158D01*
X135410358Y-80324941D01*
X135324887Y-80452858D01*
X135266013Y-80594991D01*
X135236000Y-80745878D01*
X135236000Y-80899722D01*
X135236166Y-80900554D01*
X135225048Y-80921354D01*
X135191655Y-80983826D01*
X135162722Y-81079208D01*
X135152953Y-81178400D01*
X135155401Y-81203256D01*
X135155400Y-84836554D01*
X135152953Y-84861400D01*
X135155400Y-84886246D01*
X135155400Y-84886253D01*
X135162722Y-84960592D01*
X135191655Y-85055974D01*
X135238641Y-85143879D01*
X135301873Y-85220927D01*
X135321185Y-85236776D01*
X135969973Y-85885565D01*
X135928228Y-85986346D01*
X135890000Y-86178532D01*
X135851772Y-85986346D01*
X135755207Y-85753219D01*
X135615018Y-85543410D01*
X135436590Y-85364982D01*
X135226781Y-85224793D01*
X135126000Y-85183048D01*
X135126000Y-80136445D01*
X135128447Y-80111599D01*
X135126000Y-80086753D01*
X135126000Y-80086746D01*
X135118678Y-80012407D01*
X135089745Y-79917025D01*
X135042759Y-79829121D01*
X134979527Y-79752073D01*
X134960220Y-79736228D01*
X134270871Y-79046880D01*
X134312845Y-78908510D01*
X134331786Y-78716200D01*
X134312845Y-78523890D01*
X134256751Y-78338971D01*
X134165658Y-78168549D01*
X134043068Y-78019172D01*
X133893691Y-77896582D01*
X133723269Y-77805489D01*
X133538350Y-77749395D01*
X133394227Y-77735200D01*
X133097853Y-77735200D01*
X132953730Y-77749395D01*
X132872580Y-77774011D01*
X132962703Y-77683889D01*
X133097853Y-77697200D01*
X133394227Y-77697200D01*
X133538350Y-77683005D01*
X133723269Y-77626911D01*
X133893691Y-77535818D01*
X134043068Y-77413228D01*
X134165658Y-77263851D01*
X134256751Y-77093429D01*
X134312845Y-76908510D01*
X134331786Y-76716200D01*
X134312845Y-76523890D01*
X134256751Y-76338971D01*
X134165658Y-76168549D01*
X134043068Y-76019172D01*
X133893691Y-75896582D01*
X133723269Y-75805489D01*
X133538350Y-75749395D01*
X133394227Y-75735200D01*
X133097853Y-75735200D01*
X132953730Y-75749395D01*
X132768811Y-75805489D01*
X132598389Y-75896582D01*
X132449012Y-76019172D01*
X132326422Y-76168549D01*
X132235329Y-76338971D01*
X132179235Y-76523890D01*
X132160294Y-76716200D01*
X132179235Y-76908510D01*
X132208948Y-77006461D01*
X131739780Y-77475629D01*
X131720474Y-77491473D01*
X131657242Y-77568521D01*
X131641776Y-77597456D01*
X131610255Y-77656426D01*
X131581322Y-77751808D01*
X131571553Y-77851000D01*
X131574001Y-77875856D01*
X131574001Y-77896836D01*
X131573691Y-77896582D01*
X131403269Y-77805489D01*
X131218350Y-77749395D01*
X131074227Y-77735200D01*
X130777853Y-77735200D01*
X130665085Y-77746307D01*
X130719899Y-77691492D01*
X130777853Y-77697200D01*
X131074227Y-77697200D01*
X131218350Y-77683005D01*
X131403269Y-77626911D01*
X131573691Y-77535818D01*
X131723068Y-77413228D01*
X131845658Y-77263851D01*
X131936751Y-77093429D01*
X131992845Y-76908510D01*
X132011786Y-76716200D01*
X131992845Y-76523890D01*
X131936751Y-76338971D01*
X131845658Y-76168549D01*
X131723068Y-76019172D01*
X131573691Y-75896582D01*
X131403269Y-75805489D01*
X131218350Y-75749395D01*
X131074227Y-75735200D01*
X130777853Y-75735200D01*
X130633730Y-75749395D01*
X130448811Y-75805489D01*
X130278389Y-75896582D01*
X130129012Y-76019172D01*
X130006422Y-76168549D01*
X129915329Y-76338971D01*
X129874891Y-76472278D01*
X129835149Y-76423851D01*
X129741144Y-76346704D01*
X129633895Y-76289378D01*
X129517523Y-76254077D01*
X129396500Y-76242157D01*
X128921500Y-76242157D01*
X128800477Y-76254077D01*
X128684105Y-76289378D01*
X128576856Y-76346704D01*
X128482851Y-76423851D01*
X128405704Y-76517856D01*
X128348378Y-76625105D01*
X128313077Y-76741477D01*
X128301157Y-76862500D01*
X128301157Y-77362500D01*
X128313077Y-77483523D01*
X128348378Y-77599895D01*
X128405704Y-77707144D01*
X128482851Y-77801149D01*
X128576856Y-77878296D01*
X128684105Y-77935622D01*
X128800477Y-77970923D01*
X128921500Y-77982843D01*
X129338801Y-77982843D01*
X129338800Y-81610114D01*
X129336353Y-81634960D01*
X129338800Y-81659806D01*
X129338800Y-81659813D01*
X129346122Y-81734152D01*
X129375055Y-81829534D01*
X129422041Y-81917439D01*
X129485273Y-81994487D01*
X129504585Y-82010336D01*
X129896219Y-82401970D01*
X129859235Y-82523890D01*
X129840294Y-82716200D01*
X129859235Y-82908510D01*
X129915329Y-83093429D01*
X130006422Y-83263851D01*
X130129012Y-83413228D01*
X130278389Y-83535818D01*
X130448811Y-83626911D01*
X130633730Y-83683005D01*
X130777853Y-83697200D01*
X131074227Y-83697200D01*
X131218350Y-83683005D01*
X131403269Y-83626911D01*
X131573691Y-83535818D01*
X131574000Y-83535564D01*
X131574000Y-85183048D01*
X131473219Y-85224793D01*
X131263410Y-85364982D01*
X131084982Y-85543410D01*
X130944793Y-85753219D01*
X130848228Y-85986346D01*
X130810000Y-86178532D01*
X130771772Y-85986346D01*
X130675207Y-85753219D01*
X130535018Y-85543410D01*
X130356590Y-85364982D01*
X130146781Y-85224793D01*
X129913654Y-85128228D01*
X129666167Y-85079000D01*
X129413833Y-85079000D01*
X129166346Y-85128228D01*
X129065565Y-85169973D01*
X127252000Y-83356409D01*
X127252000Y-75843845D01*
X127254447Y-75818999D01*
X127252000Y-75794153D01*
X127252000Y-75794146D01*
X127244678Y-75719807D01*
X127241782Y-75710258D01*
X127215745Y-75624425D01*
X127193117Y-75582092D01*
X127168759Y-75536521D01*
X127105527Y-75459473D01*
X127086220Y-75443628D01*
X126659855Y-75017264D01*
X126692845Y-74908510D01*
X126711786Y-74716200D01*
X126692845Y-74523890D01*
X126636751Y-74338971D01*
X126545658Y-74168549D01*
X126423068Y-74019172D01*
X126273691Y-73896582D01*
X126103269Y-73805489D01*
X125918350Y-73749395D01*
X125774227Y-73735200D01*
X125477853Y-73735200D01*
X125333730Y-73749395D01*
X125148811Y-73805489D01*
X124978389Y-73896582D01*
X124966000Y-73906749D01*
X124966000Y-73666391D01*
X126383607Y-72248785D01*
X126393219Y-72255207D01*
X126626346Y-72351772D01*
X126873833Y-72401000D01*
X127126167Y-72401000D01*
X127373654Y-72351772D01*
X127606781Y-72255207D01*
X127816590Y-72115018D01*
X127995018Y-71936590D01*
X128135207Y-71726781D01*
X128231772Y-71493654D01*
X128270000Y-71301468D01*
X128308228Y-71493654D01*
X128404793Y-71726781D01*
X128544982Y-71936590D01*
X128723410Y-72115018D01*
X128933219Y-72255207D01*
X129166346Y-72351772D01*
X129413833Y-72401000D01*
X129666167Y-72401000D01*
X129913654Y-72351772D01*
X130146781Y-72255207D01*
X130356590Y-72115018D01*
X130535018Y-71936590D01*
X130675207Y-71726781D01*
X130771772Y-71493654D01*
X130810000Y-71301468D01*
X130848228Y-71493654D01*
X130944793Y-71726781D01*
X131084982Y-71936590D01*
X131263410Y-72115018D01*
X131473219Y-72255207D01*
X131706346Y-72351772D01*
X131953833Y-72401000D01*
X132206167Y-72401000D01*
X132453654Y-72351772D01*
X132686781Y-72255207D01*
X132896590Y-72115018D01*
X133075018Y-71936590D01*
X133215207Y-71726781D01*
X133311772Y-71493654D01*
X133350000Y-71301468D01*
X133388228Y-71493654D01*
X133429973Y-71594435D01*
X132505409Y-72519000D01*
X130958845Y-72519000D01*
X130933999Y-72516553D01*
X130909153Y-72519000D01*
X130909146Y-72519000D01*
X130834807Y-72526322D01*
X130739425Y-72555255D01*
X130651521Y-72602241D01*
X130574473Y-72665473D01*
X130558629Y-72684779D01*
X128818781Y-74424628D01*
X128815117Y-74427635D01*
X128800477Y-74429077D01*
X128684105Y-74464378D01*
X128576856Y-74521704D01*
X128482851Y-74598851D01*
X128405704Y-74692856D01*
X128348378Y-74800105D01*
X128313077Y-74916477D01*
X128301157Y-75037500D01*
X128301157Y-75537500D01*
X128313077Y-75658523D01*
X128348378Y-75774895D01*
X128405704Y-75882144D01*
X128482851Y-75976149D01*
X128576856Y-76053296D01*
X128684105Y-76110622D01*
X128800477Y-76145923D01*
X128921500Y-76157843D01*
X129396500Y-76157843D01*
X129517523Y-76145923D01*
X129633895Y-76110622D01*
X129741144Y-76053296D01*
X129835149Y-75976149D01*
X129912296Y-75882144D01*
X129969622Y-75774895D01*
X130004923Y-75658523D01*
X130016843Y-75537500D01*
X130016843Y-75276549D01*
X130129012Y-75413228D01*
X130278389Y-75535818D01*
X130448811Y-75626911D01*
X130633730Y-75683005D01*
X130777853Y-75697200D01*
X131074227Y-75697200D01*
X131218350Y-75683005D01*
X131403269Y-75626911D01*
X131573691Y-75535818D01*
X131723068Y-75413228D01*
X131845658Y-75263851D01*
X131936751Y-75093429D01*
X131992845Y-74908510D01*
X132011786Y-74716200D01*
X132160294Y-74716200D01*
X132179235Y-74908510D01*
X132235329Y-75093429D01*
X132326422Y-75263851D01*
X132449012Y-75413228D01*
X132598389Y-75535818D01*
X132768811Y-75626911D01*
X132953730Y-75683005D01*
X133097853Y-75697200D01*
X133394227Y-75697200D01*
X133538350Y-75683005D01*
X133723269Y-75626911D01*
X133893691Y-75535818D01*
X134043068Y-75413228D01*
X134165658Y-75263851D01*
X134256751Y-75093429D01*
X134312845Y-74908510D01*
X134331786Y-74716200D01*
X134312845Y-74523890D01*
X134256751Y-74338971D01*
X134165658Y-74168549D01*
X134043068Y-74019172D01*
X133893691Y-73896582D01*
X133723269Y-73805489D01*
X133538350Y-73749395D01*
X133394227Y-73735200D01*
X133097853Y-73735200D01*
X132953730Y-73749395D01*
X132768811Y-73805489D01*
X132598389Y-73896582D01*
X132449012Y-74019172D01*
X132326422Y-74168549D01*
X132235329Y-74338971D01*
X132179235Y-74523890D01*
X132160294Y-74716200D01*
X132011786Y-74716200D01*
X131992845Y-74523890D01*
X131936751Y-74338971D01*
X131845658Y-74168549D01*
X131723068Y-74019172D01*
X131573691Y-73896582D01*
X131403269Y-73805489D01*
X131218350Y-73749395D01*
X131074227Y-73735200D01*
X130939392Y-73735200D01*
X131143592Y-73531000D01*
X132690154Y-73531000D01*
X132715000Y-73533447D01*
X132739846Y-73531000D01*
X132739854Y-73531000D01*
X132814193Y-73523678D01*
X132909575Y-73494745D01*
X132997479Y-73447759D01*
X133074527Y-73384527D01*
X133090376Y-73365215D01*
X134145565Y-72310027D01*
X134246346Y-72351772D01*
X134493833Y-72401000D01*
X134746167Y-72401000D01*
X134993654Y-72351772D01*
X135226781Y-72255207D01*
X135436590Y-72115018D01*
X135615018Y-71936590D01*
X135755207Y-71726781D01*
X135851772Y-71493654D01*
X135890000Y-71301468D01*
X135928228Y-71493654D01*
X136024793Y-71726781D01*
X136164982Y-71936590D01*
X136343410Y-72115018D01*
X136553219Y-72255207D01*
X136786346Y-72351772D01*
X136908001Y-72375971D01*
X136908000Y-74315908D01*
X136806751Y-74417157D01*
X136414500Y-74417157D01*
X136293477Y-74429077D01*
X136177105Y-74464378D01*
X136069856Y-74521704D01*
X135975851Y-74598851D01*
X135898704Y-74692856D01*
X135841378Y-74800105D01*
X135806077Y-74916477D01*
X135794157Y-75037500D01*
X135794157Y-75537500D01*
X135806077Y-75658523D01*
X135841378Y-75774895D01*
X135898704Y-75882144D01*
X135975851Y-75976149D01*
X136069856Y-76053296D01*
X136177105Y-76110622D01*
X136293477Y-76145923D01*
X136414500Y-76157843D01*
X136889500Y-76157843D01*
X137010523Y-76145923D01*
X137126895Y-76110622D01*
X137234144Y-76053296D01*
X137328149Y-75976149D01*
X137405296Y-75882144D01*
X137462622Y-75774895D01*
X137497923Y-75658523D01*
X137509843Y-75537500D01*
X137509843Y-75145249D01*
X137544502Y-75110590D01*
X137626422Y-75263851D01*
X137749012Y-75413228D01*
X137898389Y-75535818D01*
X138068811Y-75626911D01*
X138253730Y-75683005D01*
X138397853Y-75697200D01*
X138694227Y-75697200D01*
X138838350Y-75683005D01*
X139023269Y-75626911D01*
X139193691Y-75535818D01*
X139343068Y-75413228D01*
X139465658Y-75263851D01*
X139556751Y-75093429D01*
X139587338Y-74992595D01*
X140217282Y-74992595D01*
X140261039Y-75311675D01*
X140366205Y-75616088D01*
X140459186Y-75790044D01*
X140723587Y-75885808D01*
X141679395Y-74930000D01*
X140723587Y-73974192D01*
X140459186Y-74069956D01*
X140318296Y-74359571D01*
X140236616Y-74671108D01*
X140217282Y-74992595D01*
X139587338Y-74992595D01*
X139612845Y-74908510D01*
X139631786Y-74716200D01*
X139612845Y-74523890D01*
X139556751Y-74338971D01*
X139465658Y-74168549D01*
X139343068Y-74019172D01*
X139193691Y-73896582D01*
X139023269Y-73805489D01*
X138987330Y-73794587D01*
X140903192Y-73794587D01*
X141859000Y-74750395D01*
X142814808Y-73794587D01*
X142719044Y-73530186D01*
X142429429Y-73389296D01*
X142117892Y-73307616D01*
X141796405Y-73288282D01*
X141477325Y-73332039D01*
X141172912Y-73437205D01*
X140998956Y-73530186D01*
X140903192Y-73794587D01*
X138987330Y-73794587D01*
X138838350Y-73749395D01*
X138694227Y-73735200D01*
X138428000Y-73735200D01*
X138428000Y-73082191D01*
X139207604Y-72302587D01*
X139326346Y-72351772D01*
X139573833Y-72401000D01*
X139826167Y-72401000D01*
X140073654Y-72351772D01*
X140306781Y-72255207D01*
X140516590Y-72115018D01*
X140695018Y-71936590D01*
X140835207Y-71726781D01*
X140931772Y-71493654D01*
X140970000Y-71301468D01*
X141008228Y-71493654D01*
%TA.AperFunction,Conductor*%
D20*
G36*
X141008228Y-71493654D02*
G01*
X141104793Y-71726781D01*
X141244982Y-71936590D01*
X141423410Y-72115018D01*
X141633219Y-72255207D01*
X141866346Y-72351772D01*
X142113833Y-72401000D01*
X142366167Y-72401000D01*
X142613654Y-72351772D01*
X142846781Y-72255207D01*
X143056590Y-72115018D01*
X143235018Y-71936590D01*
X143375207Y-71726781D01*
X143383000Y-71707967D01*
X143383000Y-74334238D01*
X143351795Y-74243912D01*
X143258814Y-74069956D01*
X142994413Y-73974192D01*
X142038605Y-74930000D01*
X142994413Y-75885808D01*
X143258814Y-75790044D01*
X143383000Y-75534766D01*
X143383000Y-85772033D01*
X143375207Y-85753219D01*
X143235018Y-85543410D01*
X143056590Y-85364982D01*
X142846781Y-85224793D01*
X142613654Y-85128228D01*
X142366167Y-85079000D01*
X142113833Y-85079000D01*
X141866346Y-85128228D01*
X141765565Y-85169973D01*
X140968000Y-84372409D01*
X140968000Y-83612029D01*
X140978664Y-83622693D01*
X141204851Y-83773826D01*
X141456177Y-83877929D01*
X141722983Y-83931000D01*
X141995017Y-83931000D01*
X142261823Y-83877929D01*
X142513149Y-83773826D01*
X142739336Y-83622693D01*
X142931693Y-83430336D01*
X143082826Y-83204149D01*
X143186929Y-82952823D01*
X143240000Y-82686017D01*
X143240000Y-82413983D01*
X143186929Y-82147177D01*
X143082826Y-81895851D01*
X142931693Y-81669664D01*
X142739336Y-81477307D01*
X142513149Y-81326174D01*
X142261823Y-81222071D01*
X141995017Y-81169000D01*
X141722983Y-81169000D01*
X141456177Y-81222071D01*
X141204851Y-81326174D01*
X140986210Y-81472265D01*
X140986210Y-81346719D01*
X141121609Y-81319787D01*
X141263742Y-81260913D01*
X141391659Y-81175442D01*
X141500442Y-81066659D01*
X141585913Y-80938742D01*
X141644787Y-80796609D01*
X141674800Y-80645722D01*
X141674800Y-80491878D01*
X141644787Y-80340991D01*
X141585913Y-80198858D01*
X141500442Y-80070941D01*
X141391659Y-79962158D01*
X141263742Y-79876687D01*
X141121609Y-79817813D01*
X140970722Y-79787800D01*
X140816878Y-79787800D01*
X140665991Y-79817813D01*
X140523858Y-79876687D01*
X140395941Y-79962158D01*
X140287158Y-80070941D01*
X140201687Y-80198858D01*
X140142813Y-80340991D01*
X140112800Y-80491878D01*
X140112800Y-80632470D01*
X140077050Y-80676031D01*
X140077050Y-77721495D01*
X140079497Y-77696649D01*
X140077050Y-77671803D01*
X140077050Y-77671796D01*
X140069728Y-77597457D01*
X140040795Y-77502075D01*
X139993809Y-77414171D01*
X139930577Y-77337123D01*
X139911270Y-77321278D01*
X139586232Y-76996241D01*
X139612845Y-76908510D01*
X139631786Y-76716200D01*
X139612845Y-76523890D01*
X139556751Y-76338971D01*
X139465658Y-76168549D01*
X139381017Y-76065413D01*
X140903192Y-76065413D01*
X140998956Y-76329814D01*
X141288571Y-76470704D01*
X141600108Y-76552384D01*
X141921595Y-76571718D01*
X142240675Y-76527961D01*
X142545088Y-76422795D01*
X142719044Y-76329814D01*
X142814808Y-76065413D01*
X141859000Y-75109605D01*
X140903192Y-76065413D01*
X139381017Y-76065413D01*
X139343068Y-76019172D01*
X139193691Y-75896582D01*
X139023269Y-75805489D01*
X138838350Y-75749395D01*
X138694227Y-75735200D01*
X138397853Y-75735200D01*
X138253730Y-75749395D01*
X138068811Y-75805489D01*
X137898389Y-75896582D01*
X137749012Y-76019172D01*
X137626422Y-76168549D01*
X137535329Y-76338971D01*
X137479235Y-76523890D01*
X137471099Y-76606500D01*
X137452677Y-76606500D01*
X137405296Y-76517856D01*
X137328149Y-76423851D01*
X137234144Y-76346704D01*
X137126895Y-76289378D01*
X137010523Y-76254077D01*
X136889500Y-76242157D01*
X136414500Y-76242157D01*
X136293477Y-76254077D01*
X136177105Y-76289378D01*
X136069856Y-76346704D01*
X135975851Y-76423851D01*
X135898704Y-76517856D01*
X135841378Y-76625105D01*
X135806077Y-76741477D01*
X135794157Y-76862500D01*
X135794157Y-77362500D01*
X135806077Y-77483523D01*
X135841378Y-77599895D01*
X135898704Y-77707144D01*
X135975851Y-77801149D01*
X136069856Y-77878296D01*
X136177105Y-77935622D01*
X136293477Y-77970923D01*
X136414500Y-77982843D01*
X136889500Y-77982843D01*
X137010523Y-77970923D01*
X137126895Y-77935622D01*
X137234144Y-77878296D01*
X137328149Y-77801149D01*
X137405296Y-77707144D01*
X137452677Y-77618500D01*
X138053075Y-77618500D01*
X138068811Y-77626911D01*
X138253730Y-77683005D01*
X138397853Y-77697200D01*
X138694227Y-77697200D01*
X138838350Y-77683005D01*
X138841007Y-77682199D01*
X138938619Y-77779811D01*
X138838350Y-77749395D01*
X138694227Y-77735200D01*
X138397853Y-77735200D01*
X138253730Y-77749395D01*
X138068811Y-77805489D01*
X137898389Y-77896582D01*
X137749012Y-78019172D01*
X137626422Y-78168549D01*
X137535329Y-78338971D01*
X137479235Y-78523890D01*
X137460294Y-78716200D01*
X137479235Y-78908510D01*
X137535329Y-79093429D01*
X137626422Y-79263851D01*
X137749012Y-79413228D01*
X137898389Y-79535818D01*
X138068811Y-79626911D01*
X138253730Y-79683005D01*
X138397853Y-79697200D01*
X138694227Y-79697200D01*
X138838350Y-79683005D01*
X139023269Y-79626911D01*
X139065051Y-79604578D01*
X139065050Y-79827822D01*
X139023269Y-79805489D01*
X138838350Y-79749395D01*
X138694227Y-79735200D01*
X138397853Y-79735200D01*
X138253730Y-79749395D01*
X138068811Y-79805489D01*
X137898389Y-79896582D01*
X137749012Y-80019172D01*
X137626422Y-80168549D01*
X137535329Y-80338971D01*
X137479235Y-80523890D01*
X137460294Y-80716200D01*
X137479235Y-80908510D01*
X137535329Y-81093429D01*
X137626422Y-81263851D01*
X137749012Y-81413228D01*
X137898389Y-81535818D01*
X138068811Y-81626911D01*
X138253730Y-81683005D01*
X138397853Y-81697200D01*
X138694227Y-81697200D01*
X138725021Y-81694167D01*
X138683989Y-81735200D01*
X138397853Y-81735200D01*
X138253730Y-81749395D01*
X138068811Y-81805489D01*
X137898389Y-81896582D01*
X137749012Y-82019172D01*
X137626422Y-82168549D01*
X137535329Y-82338971D01*
X137479235Y-82523890D01*
X137460294Y-82716200D01*
X137479235Y-82908510D01*
X137535329Y-83093429D01*
X137626422Y-83263851D01*
X137749012Y-83413228D01*
X137898389Y-83535818D01*
X138068811Y-83626911D01*
X138253730Y-83683005D01*
X138397853Y-83697200D01*
X138694227Y-83697200D01*
X138838350Y-83683005D01*
X139023269Y-83626911D01*
X139193691Y-83535818D01*
X139343068Y-83413228D01*
X139465658Y-83263851D01*
X139556751Y-83093429D01*
X139612845Y-82908510D01*
X139631786Y-82716200D01*
X139612845Y-82523890D01*
X139556751Y-82338971D01*
X139540954Y-82309417D01*
X139911270Y-81939102D01*
X139930577Y-81923257D01*
X139959186Y-81888396D01*
X139953553Y-81945615D01*
X139956001Y-81970464D01*
X139956000Y-84557154D01*
X139953553Y-84582000D01*
X139956000Y-84606846D01*
X139956000Y-84606853D01*
X139963322Y-84681192D01*
X139992255Y-84776574D01*
X140039241Y-84864479D01*
X140102473Y-84941527D01*
X140121785Y-84957376D01*
X141049973Y-85885565D01*
X141008228Y-85986346D01*
X140970000Y-86178532D01*
X140931772Y-85986346D01*
X140835207Y-85753219D01*
X140695018Y-85543410D01*
X140516590Y-85364982D01*
X140306781Y-85224793D01*
X140073654Y-85128228D01*
X139826167Y-85079000D01*
X139573833Y-85079000D01*
X139326346Y-85128228D01*
X139225565Y-85169973D01*
X137272819Y-83217228D01*
X137318713Y-83148542D01*
X137377587Y-83006409D01*
X137407600Y-82855522D01*
X137407600Y-82701678D01*
X137377587Y-82550791D01*
X137318713Y-82408658D01*
X137233242Y-82280741D01*
X137124459Y-82171958D01*
X136996542Y-82086487D01*
X136854409Y-82027613D01*
X136703522Y-81997600D01*
X136549678Y-81997600D01*
X136398791Y-82027613D01*
X136256658Y-82086487D01*
X136167400Y-82146127D01*
X136167400Y-81589184D01*
X136244809Y-81573787D01*
X136386942Y-81514913D01*
X136514859Y-81429442D01*
X136623642Y-81320659D01*
X136709113Y-81192742D01*
X136767987Y-81050609D01*
X136798000Y-80899722D01*
X136798000Y-80745878D01*
X136767987Y-80594991D01*
X136709113Y-80452858D01*
X136623642Y-80324941D01*
X136514859Y-80216158D01*
X136386942Y-80130687D01*
X136244809Y-80071813D01*
X136093922Y-80041800D01*
X135940078Y-80041800D01*
X135789191Y-80071813D01*
X135647058Y-80130687D01*
X135519141Y-80216158D01*
X135410358Y-80324941D01*
X135324887Y-80452858D01*
X135266013Y-80594991D01*
X135236000Y-80745878D01*
X135236000Y-80899722D01*
X135236166Y-80900554D01*
X135225048Y-80921354D01*
X135191655Y-80983826D01*
X135162722Y-81079208D01*
X135152953Y-81178400D01*
X135155401Y-81203256D01*
X135155400Y-84836554D01*
X135152953Y-84861400D01*
X135155400Y-84886246D01*
X135155400Y-84886253D01*
X135162722Y-84960592D01*
X135191655Y-85055974D01*
X135238641Y-85143879D01*
X135301873Y-85220927D01*
X135321185Y-85236776D01*
X135969973Y-85885565D01*
X135928228Y-85986346D01*
X135890000Y-86178532D01*
X135851772Y-85986346D01*
X135755207Y-85753219D01*
X135615018Y-85543410D01*
X135436590Y-85364982D01*
X135226781Y-85224793D01*
X135126000Y-85183048D01*
X135126000Y-80136445D01*
X135128447Y-80111599D01*
X135126000Y-80086753D01*
X135126000Y-80086746D01*
X135118678Y-80012407D01*
X135089745Y-79917025D01*
X135042759Y-79829121D01*
X134979527Y-79752073D01*
X134960220Y-79736228D01*
X134270871Y-79046880D01*
X134312845Y-78908510D01*
X134331786Y-78716200D01*
X134312845Y-78523890D01*
X134256751Y-78338971D01*
X134165658Y-78168549D01*
X134043068Y-78019172D01*
X133893691Y-77896582D01*
X133723269Y-77805489D01*
X133538350Y-77749395D01*
X133394227Y-77735200D01*
X133097853Y-77735200D01*
X132953730Y-77749395D01*
X132872580Y-77774011D01*
X132962703Y-77683889D01*
X133097853Y-77697200D01*
X133394227Y-77697200D01*
X133538350Y-77683005D01*
X133723269Y-77626911D01*
X133893691Y-77535818D01*
X134043068Y-77413228D01*
X134165658Y-77263851D01*
X134256751Y-77093429D01*
X134312845Y-76908510D01*
X134331786Y-76716200D01*
X134312845Y-76523890D01*
X134256751Y-76338971D01*
X134165658Y-76168549D01*
X134043068Y-76019172D01*
X133893691Y-75896582D01*
X133723269Y-75805489D01*
X133538350Y-75749395D01*
X133394227Y-75735200D01*
X133097853Y-75735200D01*
X132953730Y-75749395D01*
X132768811Y-75805489D01*
X132598389Y-75896582D01*
X132449012Y-76019172D01*
X132326422Y-76168549D01*
X132235329Y-76338971D01*
X132179235Y-76523890D01*
X132160294Y-76716200D01*
X132179235Y-76908510D01*
X132208948Y-77006461D01*
X131739780Y-77475629D01*
X131720474Y-77491473D01*
X131657242Y-77568521D01*
X131641776Y-77597456D01*
X131610255Y-77656426D01*
X131581322Y-77751808D01*
X131571553Y-77851000D01*
X131574001Y-77875856D01*
X131574001Y-77896836D01*
X131573691Y-77896582D01*
X131403269Y-77805489D01*
X131218350Y-77749395D01*
X131074227Y-77735200D01*
X130777853Y-77735200D01*
X130665085Y-77746307D01*
X130719899Y-77691492D01*
X130777853Y-77697200D01*
X131074227Y-77697200D01*
X131218350Y-77683005D01*
X131403269Y-77626911D01*
X131573691Y-77535818D01*
X131723068Y-77413228D01*
X131845658Y-77263851D01*
X131936751Y-77093429D01*
X131992845Y-76908510D01*
X132011786Y-76716200D01*
X131992845Y-76523890D01*
X131936751Y-76338971D01*
X131845658Y-76168549D01*
X131723068Y-76019172D01*
X131573691Y-75896582D01*
X131403269Y-75805489D01*
X131218350Y-75749395D01*
X131074227Y-75735200D01*
X130777853Y-75735200D01*
X130633730Y-75749395D01*
X130448811Y-75805489D01*
X130278389Y-75896582D01*
X130129012Y-76019172D01*
X130006422Y-76168549D01*
X129915329Y-76338971D01*
X129874891Y-76472278D01*
X129835149Y-76423851D01*
X129741144Y-76346704D01*
X129633895Y-76289378D01*
X129517523Y-76254077D01*
X129396500Y-76242157D01*
X128921500Y-76242157D01*
X128800477Y-76254077D01*
X128684105Y-76289378D01*
X128576856Y-76346704D01*
X128482851Y-76423851D01*
X128405704Y-76517856D01*
X128348378Y-76625105D01*
X128313077Y-76741477D01*
X128301157Y-76862500D01*
X128301157Y-77362500D01*
X128313077Y-77483523D01*
X128348378Y-77599895D01*
X128405704Y-77707144D01*
X128482851Y-77801149D01*
X128576856Y-77878296D01*
X128684105Y-77935622D01*
X128800477Y-77970923D01*
X128921500Y-77982843D01*
X129338801Y-77982843D01*
X129338800Y-81610114D01*
X129336353Y-81634960D01*
X129338800Y-81659806D01*
X129338800Y-81659813D01*
X129346122Y-81734152D01*
X129375055Y-81829534D01*
X129422041Y-81917439D01*
X129485273Y-81994487D01*
X129504585Y-82010336D01*
X129896219Y-82401970D01*
X129859235Y-82523890D01*
X129840294Y-82716200D01*
X129859235Y-82908510D01*
X129915329Y-83093429D01*
X130006422Y-83263851D01*
X130129012Y-83413228D01*
X130278389Y-83535818D01*
X130448811Y-83626911D01*
X130633730Y-83683005D01*
X130777853Y-83697200D01*
X131074227Y-83697200D01*
X131218350Y-83683005D01*
X131403269Y-83626911D01*
X131573691Y-83535818D01*
X131574000Y-83535564D01*
X131574000Y-85183048D01*
X131473219Y-85224793D01*
X131263410Y-85364982D01*
X131084982Y-85543410D01*
X130944793Y-85753219D01*
X130848228Y-85986346D01*
X130810000Y-86178532D01*
X130771772Y-85986346D01*
X130675207Y-85753219D01*
X130535018Y-85543410D01*
X130356590Y-85364982D01*
X130146781Y-85224793D01*
X129913654Y-85128228D01*
X129666167Y-85079000D01*
X129413833Y-85079000D01*
X129166346Y-85128228D01*
X129065565Y-85169973D01*
X127252000Y-83356409D01*
X127252000Y-75843845D01*
X127254447Y-75818999D01*
X127252000Y-75794153D01*
X127252000Y-75794146D01*
X127244678Y-75719807D01*
X127241782Y-75710258D01*
X127215745Y-75624425D01*
X127193117Y-75582092D01*
X127168759Y-75536521D01*
X127105527Y-75459473D01*
X127086220Y-75443628D01*
X126659855Y-75017264D01*
X126692845Y-74908510D01*
X126711786Y-74716200D01*
X126692845Y-74523890D01*
X126636751Y-74338971D01*
X126545658Y-74168549D01*
X126423068Y-74019172D01*
X126273691Y-73896582D01*
X126103269Y-73805489D01*
X125918350Y-73749395D01*
X125774227Y-73735200D01*
X125477853Y-73735200D01*
X125333730Y-73749395D01*
X125148811Y-73805489D01*
X124978389Y-73896582D01*
X124966000Y-73906749D01*
X124966000Y-73666391D01*
X126383607Y-72248785D01*
X126393219Y-72255207D01*
X126626346Y-72351772D01*
X126873833Y-72401000D01*
X127126167Y-72401000D01*
X127373654Y-72351772D01*
X127606781Y-72255207D01*
X127816590Y-72115018D01*
X127995018Y-71936590D01*
X128135207Y-71726781D01*
X128231772Y-71493654D01*
X128270000Y-71301468D01*
X128308228Y-71493654D01*
X128404793Y-71726781D01*
X128544982Y-71936590D01*
X128723410Y-72115018D01*
X128933219Y-72255207D01*
X129166346Y-72351772D01*
X129413833Y-72401000D01*
X129666167Y-72401000D01*
X129913654Y-72351772D01*
X130146781Y-72255207D01*
X130356590Y-72115018D01*
X130535018Y-71936590D01*
X130675207Y-71726781D01*
X130771772Y-71493654D01*
X130810000Y-71301468D01*
X130848228Y-71493654D01*
X130944793Y-71726781D01*
X131084982Y-71936590D01*
X131263410Y-72115018D01*
X131473219Y-72255207D01*
X131706346Y-72351772D01*
X131953833Y-72401000D01*
X132206167Y-72401000D01*
X132453654Y-72351772D01*
X132686781Y-72255207D01*
X132896590Y-72115018D01*
X133075018Y-71936590D01*
X133215207Y-71726781D01*
X133311772Y-71493654D01*
X133350000Y-71301468D01*
X133388228Y-71493654D01*
X133429973Y-71594435D01*
X132505409Y-72519000D01*
X130958845Y-72519000D01*
X130933999Y-72516553D01*
X130909153Y-72519000D01*
X130909146Y-72519000D01*
X130834807Y-72526322D01*
X130739425Y-72555255D01*
X130651521Y-72602241D01*
X130574473Y-72665473D01*
X130558629Y-72684779D01*
X128818781Y-74424628D01*
X128815117Y-74427635D01*
X128800477Y-74429077D01*
X128684105Y-74464378D01*
X128576856Y-74521704D01*
X128482851Y-74598851D01*
X128405704Y-74692856D01*
X128348378Y-74800105D01*
X128313077Y-74916477D01*
X128301157Y-75037500D01*
X128301157Y-75537500D01*
X128313077Y-75658523D01*
X128348378Y-75774895D01*
X128405704Y-75882144D01*
X128482851Y-75976149D01*
X128576856Y-76053296D01*
X128684105Y-76110622D01*
X128800477Y-76145923D01*
X128921500Y-76157843D01*
X129396500Y-76157843D01*
X129517523Y-76145923D01*
X129633895Y-76110622D01*
X129741144Y-76053296D01*
X129835149Y-75976149D01*
X129912296Y-75882144D01*
X129969622Y-75774895D01*
X130004923Y-75658523D01*
X130016843Y-75537500D01*
X130016843Y-75276549D01*
X130129012Y-75413228D01*
X130278389Y-75535818D01*
X130448811Y-75626911D01*
X130633730Y-75683005D01*
X130777853Y-75697200D01*
X131074227Y-75697200D01*
X131218350Y-75683005D01*
X131403269Y-75626911D01*
X131573691Y-75535818D01*
X131723068Y-75413228D01*
X131845658Y-75263851D01*
X131936751Y-75093429D01*
X131992845Y-74908510D01*
X132011786Y-74716200D01*
X132160294Y-74716200D01*
X132179235Y-74908510D01*
X132235329Y-75093429D01*
X132326422Y-75263851D01*
X132449012Y-75413228D01*
X132598389Y-75535818D01*
X132768811Y-75626911D01*
X132953730Y-75683005D01*
X133097853Y-75697200D01*
X133394227Y-75697200D01*
X133538350Y-75683005D01*
X133723269Y-75626911D01*
X133893691Y-75535818D01*
X134043068Y-75413228D01*
X134165658Y-75263851D01*
X134256751Y-75093429D01*
X134312845Y-74908510D01*
X134331786Y-74716200D01*
X134312845Y-74523890D01*
X134256751Y-74338971D01*
X134165658Y-74168549D01*
X134043068Y-74019172D01*
X133893691Y-73896582D01*
X133723269Y-73805489D01*
X133538350Y-73749395D01*
X133394227Y-73735200D01*
X133097853Y-73735200D01*
X132953730Y-73749395D01*
X132768811Y-73805489D01*
X132598389Y-73896582D01*
X132449012Y-74019172D01*
X132326422Y-74168549D01*
X132235329Y-74338971D01*
X132179235Y-74523890D01*
X132160294Y-74716200D01*
X132011786Y-74716200D01*
X131992845Y-74523890D01*
X131936751Y-74338971D01*
X131845658Y-74168549D01*
X131723068Y-74019172D01*
X131573691Y-73896582D01*
X131403269Y-73805489D01*
X131218350Y-73749395D01*
X131074227Y-73735200D01*
X130939392Y-73735200D01*
X131143592Y-73531000D01*
X132690154Y-73531000D01*
X132715000Y-73533447D01*
X132739846Y-73531000D01*
X132739854Y-73531000D01*
X132814193Y-73523678D01*
X132909575Y-73494745D01*
X132997479Y-73447759D01*
X133074527Y-73384527D01*
X133090376Y-73365215D01*
X134145565Y-72310027D01*
X134246346Y-72351772D01*
X134493833Y-72401000D01*
X134746167Y-72401000D01*
X134993654Y-72351772D01*
X135226781Y-72255207D01*
X135436590Y-72115018D01*
X135615018Y-71936590D01*
X135755207Y-71726781D01*
X135851772Y-71493654D01*
X135890000Y-71301468D01*
X135928228Y-71493654D01*
X136024793Y-71726781D01*
X136164982Y-71936590D01*
X136343410Y-72115018D01*
X136553219Y-72255207D01*
X136786346Y-72351772D01*
X136908001Y-72375971D01*
X136908000Y-74315908D01*
X136806751Y-74417157D01*
X136414500Y-74417157D01*
X136293477Y-74429077D01*
X136177105Y-74464378D01*
X136069856Y-74521704D01*
X135975851Y-74598851D01*
X135898704Y-74692856D01*
X135841378Y-74800105D01*
X135806077Y-74916477D01*
X135794157Y-75037500D01*
X135794157Y-75537500D01*
X135806077Y-75658523D01*
X135841378Y-75774895D01*
X135898704Y-75882144D01*
X135975851Y-75976149D01*
X136069856Y-76053296D01*
X136177105Y-76110622D01*
X136293477Y-76145923D01*
X136414500Y-76157843D01*
X136889500Y-76157843D01*
X137010523Y-76145923D01*
X137126895Y-76110622D01*
X137234144Y-76053296D01*
X137328149Y-75976149D01*
X137405296Y-75882144D01*
X137462622Y-75774895D01*
X137497923Y-75658523D01*
X137509843Y-75537500D01*
X137509843Y-75145249D01*
X137544502Y-75110590D01*
X137626422Y-75263851D01*
X137749012Y-75413228D01*
X137898389Y-75535818D01*
X138068811Y-75626911D01*
X138253730Y-75683005D01*
X138397853Y-75697200D01*
X138694227Y-75697200D01*
X138838350Y-75683005D01*
X139023269Y-75626911D01*
X139193691Y-75535818D01*
X139343068Y-75413228D01*
X139465658Y-75263851D01*
X139556751Y-75093429D01*
X139587338Y-74992595D01*
X140217282Y-74992595D01*
X140261039Y-75311675D01*
X140366205Y-75616088D01*
X140459186Y-75790044D01*
X140723587Y-75885808D01*
X141679395Y-74930000D01*
X140723587Y-73974192D01*
X140459186Y-74069956D01*
X140318296Y-74359571D01*
X140236616Y-74671108D01*
X140217282Y-74992595D01*
X139587338Y-74992595D01*
X139612845Y-74908510D01*
X139631786Y-74716200D01*
X139612845Y-74523890D01*
X139556751Y-74338971D01*
X139465658Y-74168549D01*
X139343068Y-74019172D01*
X139193691Y-73896582D01*
X139023269Y-73805489D01*
X138987330Y-73794587D01*
X140903192Y-73794587D01*
X141859000Y-74750395D01*
X142814808Y-73794587D01*
X142719044Y-73530186D01*
X142429429Y-73389296D01*
X142117892Y-73307616D01*
X141796405Y-73288282D01*
X141477325Y-73332039D01*
X141172912Y-73437205D01*
X140998956Y-73530186D01*
X140903192Y-73794587D01*
X138987330Y-73794587D01*
X138838350Y-73749395D01*
X138694227Y-73735200D01*
X138428000Y-73735200D01*
X138428000Y-73082191D01*
X139207604Y-72302587D01*
X139326346Y-72351772D01*
X139573833Y-72401000D01*
X139826167Y-72401000D01*
X140073654Y-72351772D01*
X140306781Y-72255207D01*
X140516590Y-72115018D01*
X140695018Y-71936590D01*
X140835207Y-71726781D01*
X140931772Y-71493654D01*
X140970000Y-71301468D01*
X141008228Y-71493654D01*
G37*
%TD.AperFunction*%
D19*
X134114000Y-85183048D02*
X134013219Y-85224793D01*
X133803410Y-85364982D01*
X133624982Y-85543410D01*
X133484793Y-85753219D01*
X133388228Y-85986346D01*
X133350000Y-86178532D01*
X133311772Y-85986346D01*
X133215207Y-85753219D01*
X133075018Y-85543410D01*
X132896590Y-85364982D01*
X132686781Y-85224793D01*
X132586000Y-85183048D01*
X132586000Y-83525651D01*
X132598389Y-83535818D01*
X132768811Y-83626911D01*
X132953730Y-83683005D01*
X133097853Y-83697200D01*
X133394227Y-83697200D01*
X133538350Y-83683005D01*
X133723269Y-83626911D01*
X133893691Y-83535818D01*
X134043068Y-83413228D01*
X134114000Y-83326796D01*
X134114000Y-85183048D01*
%TA.AperFunction,Conductor*%
D20*
G36*
X134114000Y-85183048D02*
G01*
X134013219Y-85224793D01*
X133803410Y-85364982D01*
X133624982Y-85543410D01*
X133484793Y-85753219D01*
X133388228Y-85986346D01*
X133350000Y-86178532D01*
X133311772Y-85986346D01*
X133215207Y-85753219D01*
X133075018Y-85543410D01*
X132896590Y-85364982D01*
X132686781Y-85224793D01*
X132586000Y-85183048D01*
X132586000Y-83525651D01*
X132598389Y-83535818D01*
X132768811Y-83626911D01*
X132953730Y-83683005D01*
X133097853Y-83697200D01*
X133394227Y-83697200D01*
X133538350Y-83683005D01*
X133723269Y-83626911D01*
X133893691Y-83535818D01*
X134043068Y-83413228D01*
X134114000Y-83326796D01*
X134114000Y-85183048D01*
G37*
%TD.AperFunction*%
D19*
X123228228Y-71493654D02*
X123324793Y-71726781D01*
X123464982Y-71936590D01*
X123643410Y-72115018D01*
X123853219Y-72255207D01*
X123928601Y-72286431D01*
X123928601Y-72586807D01*
X123230785Y-73284624D01*
X123211473Y-73300473D01*
X123148241Y-73377521D01*
X123101255Y-73465426D01*
X123072322Y-73560808D01*
X123065000Y-73635147D01*
X123065000Y-73635154D01*
X123062553Y-73660000D01*
X123065000Y-73684847D01*
X123065000Y-74031563D01*
X122962191Y-74052013D01*
X122883692Y-74084529D01*
X122830711Y-73909871D01*
X122739618Y-73739449D01*
X122617028Y-73590072D01*
X122467651Y-73467482D01*
X122297229Y-73376389D01*
X122112310Y-73320295D01*
X121920000Y-73301354D01*
X121727691Y-73320295D01*
X121542772Y-73376389D01*
X121372350Y-73467482D01*
X121222973Y-73590072D01*
X121100383Y-73739449D01*
X121009290Y-73909871D01*
X120953196Y-74094790D01*
X120939000Y-74238913D01*
X120939000Y-75135286D01*
X120953195Y-75279409D01*
X121009289Y-75464328D01*
X121100382Y-75634751D01*
X121222972Y-75784128D01*
X121372349Y-75906718D01*
X121542771Y-75997811D01*
X121727690Y-76053905D01*
X121920000Y-76072846D01*
X122112309Y-76053905D01*
X122297228Y-75997811D01*
X122467651Y-75906718D01*
X122617028Y-75784128D01*
X122739618Y-75634751D01*
X122815783Y-75492257D01*
X122820058Y-75495113D01*
X122962191Y-75553987D01*
X123113078Y-75584000D01*
X123266922Y-75584000D01*
X123417809Y-75553987D01*
X123559942Y-75495113D01*
X123687859Y-75409642D01*
X123796642Y-75300859D01*
X123882113Y-75172942D01*
X123940987Y-75030809D01*
X123954001Y-74965384D01*
X123954000Y-79800408D01*
X122577103Y-81177306D01*
X122467651Y-81087482D01*
X122297229Y-80996389D01*
X122112310Y-80940295D01*
X121920000Y-80921354D01*
X121727691Y-80940295D01*
X121542772Y-80996389D01*
X121372350Y-81087482D01*
X121340201Y-81113866D01*
X121340201Y-78489410D01*
X121342648Y-78464564D01*
X121340201Y-78439718D01*
X121340201Y-78439711D01*
X121332879Y-78365372D01*
X121329079Y-78352843D01*
X121303946Y-78269990D01*
X121256960Y-78182086D01*
X121193728Y-78105038D01*
X121174421Y-78089193D01*
X120512843Y-77427616D01*
X120512843Y-76970000D01*
X120505487Y-76895311D01*
X120490225Y-76845000D01*
X120505487Y-76794689D01*
X120512843Y-76720000D01*
X120512843Y-76170000D01*
X120510435Y-76145550D01*
X120510435Y-76120991D01*
X120503079Y-76046302D01*
X120483957Y-75950169D01*
X120462172Y-75878352D01*
X120424663Y-75787796D01*
X120389283Y-75721606D01*
X120334827Y-75640107D01*
X120287216Y-75582092D01*
X120217908Y-75512784D01*
X120159893Y-75465173D01*
X120078394Y-75410717D01*
X120012204Y-75375337D01*
X119921648Y-75337828D01*
X119849831Y-75316043D01*
X119753698Y-75296921D01*
X119679009Y-75289565D01*
X119654450Y-75289565D01*
X119630000Y-75287157D01*
X119251000Y-75287157D01*
X119251000Y-72400436D01*
X119253833Y-72401000D01*
X119506167Y-72401000D01*
X119753654Y-72351772D01*
X119986781Y-72255207D01*
X120196590Y-72115018D01*
X120375018Y-71936590D01*
X120515207Y-71726781D01*
X120611772Y-71493654D01*
X120650000Y-71301468D01*
X120688228Y-71493654D01*
X120784793Y-71726781D01*
X120924982Y-71936590D01*
X121103410Y-72115018D01*
X121313219Y-72255207D01*
X121546346Y-72351772D01*
X121793833Y-72401000D01*
X122046167Y-72401000D01*
X122293654Y-72351772D01*
X122526781Y-72255207D01*
X122736590Y-72115018D01*
X122915018Y-71936590D01*
X123055207Y-71726781D01*
X123151772Y-71493654D01*
X123190000Y-71301468D01*
X123228228Y-71493654D01*
%TA.AperFunction,Conductor*%
D20*
G36*
X123228228Y-71493654D02*
G01*
X123324793Y-71726781D01*
X123464982Y-71936590D01*
X123643410Y-72115018D01*
X123853219Y-72255207D01*
X123928601Y-72286431D01*
X123928601Y-72586807D01*
X123230785Y-73284624D01*
X123211473Y-73300473D01*
X123148241Y-73377521D01*
X123101255Y-73465426D01*
X123072322Y-73560808D01*
X123065000Y-73635147D01*
X123065000Y-73635154D01*
X123062553Y-73660000D01*
X123065000Y-73684847D01*
X123065000Y-74031563D01*
X122962191Y-74052013D01*
X122883692Y-74084529D01*
X122830711Y-73909871D01*
X122739618Y-73739449D01*
X122617028Y-73590072D01*
X122467651Y-73467482D01*
X122297229Y-73376389D01*
X122112310Y-73320295D01*
X121920000Y-73301354D01*
X121727691Y-73320295D01*
X121542772Y-73376389D01*
X121372350Y-73467482D01*
X121222973Y-73590072D01*
X121100383Y-73739449D01*
X121009290Y-73909871D01*
X120953196Y-74094790D01*
X120939000Y-74238913D01*
X120939000Y-75135286D01*
X120953195Y-75279409D01*
X121009289Y-75464328D01*
X121100382Y-75634751D01*
X121222972Y-75784128D01*
X121372349Y-75906718D01*
X121542771Y-75997811D01*
X121727690Y-76053905D01*
X121920000Y-76072846D01*
X122112309Y-76053905D01*
X122297228Y-75997811D01*
X122467651Y-75906718D01*
X122617028Y-75784128D01*
X122739618Y-75634751D01*
X122815783Y-75492257D01*
X122820058Y-75495113D01*
X122962191Y-75553987D01*
X123113078Y-75584000D01*
X123266922Y-75584000D01*
X123417809Y-75553987D01*
X123559942Y-75495113D01*
X123687859Y-75409642D01*
X123796642Y-75300859D01*
X123882113Y-75172942D01*
X123940987Y-75030809D01*
X123954001Y-74965384D01*
X123954000Y-79800408D01*
X122577103Y-81177306D01*
X122467651Y-81087482D01*
X122297229Y-80996389D01*
X122112310Y-80940295D01*
X121920000Y-80921354D01*
X121727691Y-80940295D01*
X121542772Y-80996389D01*
X121372350Y-81087482D01*
X121340201Y-81113866D01*
X121340201Y-78489410D01*
X121342648Y-78464564D01*
X121340201Y-78439718D01*
X121340201Y-78439711D01*
X121332879Y-78365372D01*
X121329079Y-78352843D01*
X121303946Y-78269990D01*
X121256960Y-78182086D01*
X121193728Y-78105038D01*
X121174421Y-78089193D01*
X120512843Y-77427616D01*
X120512843Y-76970000D01*
X120505487Y-76895311D01*
X120490225Y-76845000D01*
X120505487Y-76794689D01*
X120512843Y-76720000D01*
X120512843Y-76170000D01*
X120510435Y-76145550D01*
X120510435Y-76120991D01*
X120503079Y-76046302D01*
X120483957Y-75950169D01*
X120462172Y-75878352D01*
X120424663Y-75787796D01*
X120389283Y-75721606D01*
X120334827Y-75640107D01*
X120287216Y-75582092D01*
X120217908Y-75512784D01*
X120159893Y-75465173D01*
X120078394Y-75410717D01*
X120012204Y-75375337D01*
X119921648Y-75337828D01*
X119849831Y-75316043D01*
X119753698Y-75296921D01*
X119679009Y-75289565D01*
X119654450Y-75289565D01*
X119630000Y-75287157D01*
X119251000Y-75287157D01*
X119251000Y-72400436D01*
X119253833Y-72401000D01*
X119506167Y-72401000D01*
X119753654Y-72351772D01*
X119986781Y-72255207D01*
X120196590Y-72115018D01*
X120375018Y-71936590D01*
X120515207Y-71726781D01*
X120611772Y-71493654D01*
X120650000Y-71301468D01*
X120688228Y-71493654D01*
X120784793Y-71726781D01*
X120924982Y-71936590D01*
X121103410Y-72115018D01*
X121313219Y-72255207D01*
X121546346Y-72351772D01*
X121793833Y-72401000D01*
X122046167Y-72401000D01*
X122293654Y-72351772D01*
X122526781Y-72255207D01*
X122736590Y-72115018D01*
X122915018Y-71936590D01*
X123055207Y-71726781D01*
X123151772Y-71493654D01*
X123190000Y-71301468D01*
X123228228Y-71493654D01*
G37*
%TD.AperFunction*%
%TD*%
M02*
