%TF.GenerationSoftware,KiCad,Pcbnew,(5.1.8-0-10_14)*%
%TF.CreationDate,2021-02-06T12:21:22+09:00*%
%TF.ProjectId,usb-pidvid-fixture,7573622d-7069-4647-9669-642d66697874,rev?*%
%TF.SameCoordinates,Original*%
%TF.FileFunction,Legend,Top*%
%TF.FilePolarity,Positive*%
%FSLAX46Y46*%
G04 Gerber Fmt 4.6, Leading zero omitted, Abs format (unit mm)*
G04 Created by KiCad (PCBNEW (5.1.8-0-10_14)) date 2021-02-06 12:21:22*
%MOMM*%
%LPD*%
G01*
G04 APERTURE LIST*
%ADD10C,0.101600*%
%ADD11C,0.150000*%
%ADD12C,0.120000*%
%ADD13C,0.381000*%
%ADD14C,0.100000*%
G04 APERTURE END LIST*
D10*
X113427666Y-73017000D02*
X113461000Y-72983666D01*
X113494333Y-72917000D01*
X113494333Y-72850333D01*
X113461000Y-72783666D01*
X113427666Y-72750333D01*
X113361000Y-72717000D01*
X113294333Y-72717000D01*
X113227666Y-72750333D01*
X113194333Y-72783666D01*
X113161000Y-72850333D01*
X113161000Y-72917000D01*
X113194333Y-72983666D01*
X113227666Y-73017000D01*
X113494333Y-73017000D02*
X113227666Y-73017000D01*
X113194333Y-73050333D01*
X113194333Y-73083666D01*
X113227666Y-73150333D01*
X113294333Y-73183666D01*
X113461000Y-73183666D01*
X113561000Y-73117000D01*
X113627666Y-73017000D01*
X113661000Y-72883666D01*
X113627666Y-72750333D01*
X113561000Y-72650333D01*
X113461000Y-72583666D01*
X113327666Y-72550333D01*
X113194333Y-72583666D01*
X113094333Y-72650333D01*
X113027666Y-72750333D01*
X112994333Y-72883666D01*
X113027666Y-73017000D01*
X113094333Y-73117000D01*
X113094333Y-73483666D02*
X113794333Y-73483666D01*
X113094333Y-73783666D02*
X113461000Y-73783666D01*
X113527666Y-73750333D01*
X113561000Y-73683666D01*
X113561000Y-73583666D01*
X113527666Y-73517000D01*
X113494333Y-73483666D01*
X113094333Y-74417000D02*
X113461000Y-74417000D01*
X113527666Y-74383666D01*
X113561000Y-74317000D01*
X113561000Y-74183666D01*
X113527666Y-74117000D01*
X113127666Y-74417000D02*
X113094333Y-74350333D01*
X113094333Y-74183666D01*
X113127666Y-74117000D01*
X113194333Y-74083666D01*
X113261000Y-74083666D01*
X113327666Y-74117000D01*
X113361000Y-74183666D01*
X113361000Y-74350333D01*
X113394333Y-74417000D01*
X113561000Y-74750333D02*
X113094333Y-74750333D01*
X113494333Y-74750333D02*
X113527666Y-74783666D01*
X113561000Y-74850333D01*
X113561000Y-74950333D01*
X113527666Y-75017000D01*
X113461000Y-75050333D01*
X113094333Y-75050333D01*
X113561000Y-75317000D02*
X113094333Y-75483666D01*
X113561000Y-75650333D02*
X113094333Y-75483666D01*
X112927666Y-75417000D01*
X112894333Y-75383666D01*
X112861000Y-75317000D01*
X113094333Y-76217000D02*
X113461000Y-76217000D01*
X113527666Y-76183666D01*
X113561000Y-76117000D01*
X113561000Y-75983666D01*
X113527666Y-75917000D01*
X113127666Y-76217000D02*
X113094333Y-76150333D01*
X113094333Y-75983666D01*
X113127666Y-75917000D01*
X113194333Y-75883666D01*
X113261000Y-75883666D01*
X113327666Y-75917000D01*
X113361000Y-75983666D01*
X113361000Y-76150333D01*
X113394333Y-76217000D01*
X113561000Y-76483666D02*
X113561000Y-76850333D01*
X113094333Y-76483666D01*
X113094333Y-76850333D01*
X113094333Y-77217000D02*
X113127666Y-77150333D01*
X113161000Y-77117000D01*
X113227666Y-77083666D01*
X113427666Y-77083666D01*
X113494333Y-77117000D01*
X113527666Y-77150333D01*
X113561000Y-77217000D01*
X113561000Y-77317000D01*
X113527666Y-77383666D01*
X113494333Y-77417000D01*
X113427666Y-77450333D01*
X113227666Y-77450333D01*
X113161000Y-77417000D01*
X113127666Y-77383666D01*
X113094333Y-77317000D01*
X113094333Y-77217000D01*
X113561000Y-78050333D02*
X113094333Y-78050333D01*
X113561000Y-77750333D02*
X113194333Y-77750333D01*
X113127666Y-77783666D01*
X113094333Y-77850333D01*
X113094333Y-77950333D01*
X113127666Y-78017000D01*
X113161000Y-78050333D01*
X113461000Y-79150333D02*
X113461000Y-78917000D01*
X113094333Y-78917000D02*
X113794333Y-78917000D01*
X113794333Y-79250333D01*
X113127666Y-79783666D02*
X113094333Y-79717000D01*
X113094333Y-79583666D01*
X113127666Y-79517000D01*
X113194333Y-79483666D01*
X113461000Y-79483666D01*
X113527666Y-79517000D01*
X113561000Y-79583666D01*
X113561000Y-79717000D01*
X113527666Y-79783666D01*
X113461000Y-79817000D01*
X113394333Y-79817000D01*
X113327666Y-79483666D01*
X113094333Y-80117000D02*
X113794333Y-80117000D01*
X113527666Y-80117000D02*
X113561000Y-80183666D01*
X113561000Y-80317000D01*
X113527666Y-80383666D01*
X113494333Y-80417000D01*
X113427666Y-80450333D01*
X113227666Y-80450333D01*
X113161000Y-80417000D01*
X113127666Y-80383666D01*
X113094333Y-80317000D01*
X113094333Y-80183666D01*
X113127666Y-80117000D01*
X113794333Y-81583666D02*
X113794333Y-81450333D01*
X113761000Y-81383666D01*
X113727666Y-81350333D01*
X113627666Y-81283666D01*
X113494333Y-81250333D01*
X113227666Y-81250333D01*
X113161000Y-81283666D01*
X113127666Y-81317000D01*
X113094333Y-81383666D01*
X113094333Y-81517000D01*
X113127666Y-81583666D01*
X113161000Y-81617000D01*
X113227666Y-81650333D01*
X113394333Y-81650333D01*
X113461000Y-81617000D01*
X113494333Y-81583666D01*
X113527666Y-81517000D01*
X113527666Y-81383666D01*
X113494333Y-81317000D01*
X113461000Y-81283666D01*
X113394333Y-81250333D01*
X113127666Y-81983666D02*
X113094333Y-81983666D01*
X113027666Y-81950333D01*
X112994333Y-81917000D01*
X113727666Y-82783666D02*
X113761000Y-82817000D01*
X113794333Y-82883666D01*
X113794333Y-83050333D01*
X113761000Y-83117000D01*
X113727666Y-83150333D01*
X113661000Y-83183666D01*
X113594333Y-83183666D01*
X113494333Y-83150333D01*
X113094333Y-82750333D01*
X113094333Y-83183666D01*
X113794333Y-83617000D02*
X113794333Y-83683666D01*
X113761000Y-83750333D01*
X113727666Y-83783666D01*
X113661000Y-83817000D01*
X113527666Y-83850333D01*
X113361000Y-83850333D01*
X113227666Y-83817000D01*
X113161000Y-83783666D01*
X113127666Y-83750333D01*
X113094333Y-83683666D01*
X113094333Y-83617000D01*
X113127666Y-83550333D01*
X113161000Y-83517000D01*
X113227666Y-83483666D01*
X113361000Y-83450333D01*
X113527666Y-83450333D01*
X113661000Y-83483666D01*
X113727666Y-83517000D01*
X113761000Y-83550333D01*
X113794333Y-83617000D01*
X113727666Y-84117000D02*
X113761000Y-84150333D01*
X113794333Y-84217000D01*
X113794333Y-84383666D01*
X113761000Y-84450333D01*
X113727666Y-84483666D01*
X113661000Y-84517000D01*
X113594333Y-84517000D01*
X113494333Y-84483666D01*
X113094333Y-84083666D01*
X113094333Y-84517000D01*
X113094333Y-85183666D02*
X113094333Y-84783666D01*
X113094333Y-84983666D02*
X113794333Y-84983666D01*
X113694333Y-84917000D01*
X113627666Y-84850333D01*
X113594333Y-84783666D01*
D11*
X143744904Y-79901904D02*
X143363952Y-80168571D01*
X143744904Y-80359047D02*
X142944904Y-80359047D01*
X142944904Y-80054285D01*
X142983000Y-79978095D01*
X143021095Y-79940000D01*
X143097285Y-79901904D01*
X143211571Y-79901904D01*
X143287761Y-79940000D01*
X143325857Y-79978095D01*
X143363952Y-80054285D01*
X143363952Y-80359047D01*
X143325857Y-79559047D02*
X143325857Y-79292380D01*
X143744904Y-79178095D02*
X143744904Y-79559047D01*
X142944904Y-79559047D01*
X142944904Y-79178095D01*
X143706809Y-78873333D02*
X143744904Y-78759047D01*
X143744904Y-78568571D01*
X143706809Y-78492380D01*
X143668714Y-78454285D01*
X143592523Y-78416190D01*
X143516333Y-78416190D01*
X143440142Y-78454285D01*
X143402047Y-78492380D01*
X143363952Y-78568571D01*
X143325857Y-78720952D01*
X143287761Y-78797142D01*
X143249666Y-78835238D01*
X143173476Y-78873333D01*
X143097285Y-78873333D01*
X143021095Y-78835238D01*
X142983000Y-78797142D01*
X142944904Y-78720952D01*
X142944904Y-78530476D01*
X142983000Y-78416190D01*
X143325857Y-78073333D02*
X143325857Y-77806666D01*
X143744904Y-77692380D02*
X143744904Y-78073333D01*
X142944904Y-78073333D01*
X142944904Y-77692380D01*
X142944904Y-77463809D02*
X142944904Y-77006666D01*
X143744904Y-77235238D02*
X142944904Y-77235238D01*
D12*
%TO.C,D1*%
X132390000Y-84240000D02*
X132390000Y-73240000D01*
X139390000Y-84240000D02*
X132390000Y-84240000D01*
X139390000Y-73240000D02*
X139390000Y-84240000D01*
X132390000Y-73240000D02*
X139390000Y-73240000D01*
D13*
X137914605Y-81688000D02*
G75*
G03*
X137914605Y-81688000I-179605J0D01*
G01*
D14*
G36*
X136973000Y-81307000D02*
G01*
X136719000Y-81561000D01*
X134687000Y-81561000D01*
X134433000Y-81307000D01*
X134687000Y-81053000D01*
X136719000Y-81053000D01*
X136973000Y-81307000D01*
G37*
X136973000Y-81307000D02*
X136719000Y-81561000D01*
X134687000Y-81561000D01*
X134433000Y-81307000D01*
X134687000Y-81053000D01*
X136719000Y-81053000D01*
X136973000Y-81307000D01*
G36*
X134306000Y-81180000D02*
G01*
X134052000Y-80926000D01*
X134306000Y-78894000D01*
X134560000Y-78640000D01*
X134814000Y-78894000D01*
X134560000Y-80926000D01*
X134306000Y-81180000D01*
G37*
X134306000Y-81180000D02*
X134052000Y-80926000D01*
X134306000Y-78894000D01*
X134560000Y-78640000D01*
X134814000Y-78894000D01*
X134560000Y-80926000D01*
X134306000Y-81180000D01*
G36*
X137100000Y-81180000D02*
G01*
X136846000Y-80926000D01*
X137100000Y-78894000D01*
X137354000Y-78640000D01*
X137608000Y-78894000D01*
X137354000Y-80926000D01*
X137100000Y-81180000D01*
G37*
X137100000Y-81180000D02*
X136846000Y-80926000D01*
X137100000Y-78894000D01*
X137354000Y-78640000D01*
X137608000Y-78894000D01*
X137354000Y-80926000D01*
X137100000Y-81180000D01*
G36*
X137100000Y-78640000D02*
G01*
X136846000Y-78894000D01*
X135068000Y-78894000D01*
X134814000Y-78640000D01*
X135068000Y-78386000D01*
X136973000Y-78386000D01*
X137100000Y-78640000D01*
G37*
X137100000Y-78640000D02*
X136846000Y-78894000D01*
X135068000Y-78894000D01*
X134814000Y-78640000D01*
X135068000Y-78386000D01*
X136973000Y-78386000D01*
X137100000Y-78640000D01*
G36*
X137481000Y-78513000D02*
G01*
X137227000Y-78259000D01*
X137481000Y-76227000D01*
X137735000Y-75973000D01*
X137989000Y-76227000D01*
X137735000Y-78259000D01*
X137481000Y-78513000D01*
G37*
X137481000Y-78513000D02*
X137227000Y-78259000D01*
X137481000Y-76227000D01*
X137735000Y-75973000D01*
X137989000Y-76227000D01*
X137735000Y-78259000D01*
X137481000Y-78513000D01*
G36*
X134687000Y-78513000D02*
G01*
X134433000Y-78259000D01*
X134687000Y-76227000D01*
X134941000Y-75973000D01*
X135195000Y-76227000D01*
X134941000Y-78259000D01*
X134687000Y-78513000D01*
G37*
X134687000Y-78513000D02*
X134433000Y-78259000D01*
X134687000Y-76227000D01*
X134941000Y-75973000D01*
X135195000Y-76227000D01*
X134941000Y-78259000D01*
X134687000Y-78513000D01*
G36*
X137608000Y-75846000D02*
G01*
X137354000Y-76100000D01*
X135322000Y-76100000D01*
X135068000Y-75846000D01*
X135322000Y-75592000D01*
X137354000Y-75592000D01*
X137608000Y-75846000D01*
G37*
X137608000Y-75846000D02*
X137354000Y-76100000D01*
X135322000Y-76100000D01*
X135068000Y-75846000D01*
X135322000Y-75592000D01*
X137354000Y-75592000D01*
X137608000Y-75846000D01*
D12*
%TO.C,D2*%
X124770000Y-84240000D02*
X124770000Y-73240000D01*
X131770000Y-84240000D02*
X124770000Y-84240000D01*
X131770000Y-73240000D02*
X131770000Y-84240000D01*
X124770000Y-73240000D02*
X131770000Y-73240000D01*
D13*
X130294605Y-81688000D02*
G75*
G03*
X130294605Y-81688000I-179605J0D01*
G01*
D14*
G36*
X129353000Y-81307000D02*
G01*
X129099000Y-81561000D01*
X127067000Y-81561000D01*
X126813000Y-81307000D01*
X127067000Y-81053000D01*
X129099000Y-81053000D01*
X129353000Y-81307000D01*
G37*
X129353000Y-81307000D02*
X129099000Y-81561000D01*
X127067000Y-81561000D01*
X126813000Y-81307000D01*
X127067000Y-81053000D01*
X129099000Y-81053000D01*
X129353000Y-81307000D01*
G36*
X126686000Y-81180000D02*
G01*
X126432000Y-80926000D01*
X126686000Y-78894000D01*
X126940000Y-78640000D01*
X127194000Y-78894000D01*
X126940000Y-80926000D01*
X126686000Y-81180000D01*
G37*
X126686000Y-81180000D02*
X126432000Y-80926000D01*
X126686000Y-78894000D01*
X126940000Y-78640000D01*
X127194000Y-78894000D01*
X126940000Y-80926000D01*
X126686000Y-81180000D01*
G36*
X129480000Y-81180000D02*
G01*
X129226000Y-80926000D01*
X129480000Y-78894000D01*
X129734000Y-78640000D01*
X129988000Y-78894000D01*
X129734000Y-80926000D01*
X129480000Y-81180000D01*
G37*
X129480000Y-81180000D02*
X129226000Y-80926000D01*
X129480000Y-78894000D01*
X129734000Y-78640000D01*
X129988000Y-78894000D01*
X129734000Y-80926000D01*
X129480000Y-81180000D01*
G36*
X129480000Y-78640000D02*
G01*
X129226000Y-78894000D01*
X127448000Y-78894000D01*
X127194000Y-78640000D01*
X127448000Y-78386000D01*
X129353000Y-78386000D01*
X129480000Y-78640000D01*
G37*
X129480000Y-78640000D02*
X129226000Y-78894000D01*
X127448000Y-78894000D01*
X127194000Y-78640000D01*
X127448000Y-78386000D01*
X129353000Y-78386000D01*
X129480000Y-78640000D01*
G36*
X129861000Y-78513000D02*
G01*
X129607000Y-78259000D01*
X129861000Y-76227000D01*
X130115000Y-75973000D01*
X130369000Y-76227000D01*
X130115000Y-78259000D01*
X129861000Y-78513000D01*
G37*
X129861000Y-78513000D02*
X129607000Y-78259000D01*
X129861000Y-76227000D01*
X130115000Y-75973000D01*
X130369000Y-76227000D01*
X130115000Y-78259000D01*
X129861000Y-78513000D01*
G36*
X127067000Y-78513000D02*
G01*
X126813000Y-78259000D01*
X127067000Y-76227000D01*
X127321000Y-75973000D01*
X127575000Y-76227000D01*
X127321000Y-78259000D01*
X127067000Y-78513000D01*
G37*
X127067000Y-78513000D02*
X126813000Y-78259000D01*
X127067000Y-76227000D01*
X127321000Y-75973000D01*
X127575000Y-76227000D01*
X127321000Y-78259000D01*
X127067000Y-78513000D01*
G36*
X129988000Y-75846000D02*
G01*
X129734000Y-76100000D01*
X127702000Y-76100000D01*
X127448000Y-75846000D01*
X127702000Y-75592000D01*
X129734000Y-75592000D01*
X129988000Y-75846000D01*
G37*
X129988000Y-75846000D02*
X129734000Y-76100000D01*
X127702000Y-76100000D01*
X127448000Y-75846000D01*
X127702000Y-75592000D01*
X129734000Y-75592000D01*
X129988000Y-75846000D01*
%TO.C,SW1*%
G36*
X114380000Y-76486000D02*
G01*
X114380000Y-73486000D01*
X117380000Y-73486000D01*
X114380000Y-76486000D01*
G37*
X114380000Y-76486000D02*
X114380000Y-73486000D01*
X117380000Y-73486000D01*
X114380000Y-76486000D01*
D12*
X114380000Y-83486000D02*
X114380000Y-73486000D01*
X124380000Y-83486000D02*
X114380000Y-83486000D01*
X124380000Y-73486000D02*
X124380000Y-83486000D01*
X114380000Y-73486000D02*
X124380000Y-73486000D01*
%TO.C,D1*%
D11*
X132759523Y-73005904D02*
X132759523Y-72205904D01*
X132950000Y-72205904D01*
X133064285Y-72244000D01*
X133140476Y-72320190D01*
X133178571Y-72396380D01*
X133216666Y-72548761D01*
X133216666Y-72663047D01*
X133178571Y-72815428D01*
X133140476Y-72891619D01*
X133064285Y-72967809D01*
X132950000Y-73005904D01*
X132759523Y-73005904D01*
X133978571Y-73005904D02*
X133521428Y-73005904D01*
X133750000Y-73005904D02*
X133750000Y-72205904D01*
X133673809Y-72320190D01*
X133597619Y-72396380D01*
X133521428Y-72434476D01*
%TO.C,D2*%
X125139523Y-73005904D02*
X125139523Y-72205904D01*
X125330000Y-72205904D01*
X125444285Y-72244000D01*
X125520476Y-72320190D01*
X125558571Y-72396380D01*
X125596666Y-72548761D01*
X125596666Y-72663047D01*
X125558571Y-72815428D01*
X125520476Y-72891619D01*
X125444285Y-72967809D01*
X125330000Y-73005904D01*
X125139523Y-73005904D01*
X125901428Y-72282095D02*
X125939523Y-72244000D01*
X126015714Y-72205904D01*
X126206190Y-72205904D01*
X126282380Y-72244000D01*
X126320476Y-72282095D01*
X126358571Y-72358285D01*
X126358571Y-72434476D01*
X126320476Y-72548761D01*
X125863333Y-73005904D01*
X126358571Y-73005904D01*
%TO.C,S1*%
X142009761Y-79501904D02*
X142057380Y-79359047D01*
X142057380Y-79120952D01*
X142009761Y-79025714D01*
X141962142Y-78978095D01*
X141866904Y-78930476D01*
X141771666Y-78930476D01*
X141676428Y-78978095D01*
X141628809Y-79025714D01*
X141581190Y-79120952D01*
X141533571Y-79311428D01*
X141485952Y-79406666D01*
X141438333Y-79454285D01*
X141343095Y-79501904D01*
X141247857Y-79501904D01*
X141152619Y-79454285D01*
X141105000Y-79406666D01*
X141057380Y-79311428D01*
X141057380Y-79073333D01*
X141105000Y-78930476D01*
X142057380Y-77978095D02*
X142057380Y-78549523D01*
X142057380Y-78263809D02*
X141057380Y-78263809D01*
X141200238Y-78359047D01*
X141295476Y-78454285D01*
X141343095Y-78549523D01*
%TO.C,SW1*%
X116903666Y-84859761D02*
X117046523Y-84907380D01*
X117284619Y-84907380D01*
X117379857Y-84859761D01*
X117427476Y-84812142D01*
X117475095Y-84716904D01*
X117475095Y-84621666D01*
X117427476Y-84526428D01*
X117379857Y-84478809D01*
X117284619Y-84431190D01*
X117094142Y-84383571D01*
X116998904Y-84335952D01*
X116951285Y-84288333D01*
X116903666Y-84193095D01*
X116903666Y-84097857D01*
X116951285Y-84002619D01*
X116998904Y-83955000D01*
X117094142Y-83907380D01*
X117332238Y-83907380D01*
X117475095Y-83955000D01*
X117808428Y-83907380D02*
X118046523Y-84907380D01*
X118237000Y-84193095D01*
X118427476Y-84907380D01*
X118665571Y-83907380D01*
X119570333Y-84907380D02*
X118998904Y-84907380D01*
X119284619Y-84907380D02*
X119284619Y-83907380D01*
X119189380Y-84050238D01*
X119094142Y-84145476D01*
X118998904Y-84193095D01*
%TD*%
M02*
