M48
;DRILL file {KiCad 4.0.6} date 2017 July 29, Saturday 01:49:42
;FORMAT={-:-/ absolute / inch / decimal}
FMAT,2
INCH,TZ
T1C0.013
T2C0.031
T3C0.039
%
G90
G05
M72
T1
X5.2Y-3.9
X5.4517Y-4.504
X5.5026Y-4.104
X5.5789Y-4.2404
X5.5793Y-4.3838
X5.5841Y-4.3012
X5.5951Y-4.2692
X5.6Y-4.51
X5.6165Y-4.2947
X5.6347Y-4.3222
X5.6531Y-4.3671
X5.6578Y-4.2338
X5.6752Y-4.1025
X5.6797Y-4.4535
X5.6812Y-4.2764
X5.6898Y-4.2244
X5.7215Y-4.2337
X5.7337Y-4.3396
X5.75Y-4.5
X5.75Y-4.5
X5.7726Y-4.29
X5.7727Y-4.335
X5.7786Y-4.221
X5.8101Y-4.2881
X5.8179Y-4.4531
X5.8189Y-4.1025
X5.8305Y-4.3691
X5.8489Y-4.3001
X5.9109Y-4.5009
X5.9253Y-4.3357
X5.931Y-4.2547
X6.Y-4.2918
X6.0022Y-4.1025
X6.0742Y-4.3466
X6.0792Y-4.3016
X6.1375Y-4.5024
X6.1609Y-4.2112
X6.1663Y-4.0067
X6.1699Y-4.3842
X6.1936Y-4.1788
X6.194Y-4.212
X6.2035Y-4.3834
X6.2653Y-4.101
X6.327Y-4.1664
T2
X6.33Y-4.2213
X6.33Y-4.3
X6.33Y-4.3787
X6.48Y-4.2213
X6.48Y-4.3
X6.48Y-4.3787
T3
X5.Y-4.
X5.Y-4.6
X5.Y-4.7
X5.1Y-4.
X5.1Y-4.6
X5.1Y-4.7
X5.2Y-4.
X5.2Y-4.6
X5.2Y-4.7
X5.3Y-4.
X5.3Y-4.6
X5.3Y-4.7
X5.4Y-3.9
X5.4Y-4.
X5.4Y-4.6
X5.4Y-4.7
X5.5Y-3.9
X5.5Y-4.
X5.5Y-4.6
X5.5Y-4.7
X5.6Y-3.9
X5.6Y-4.
X5.6Y-4.6
X5.6Y-4.7
X5.7Y-3.9
X5.7Y-4.
X5.7Y-4.6
X5.7Y-4.7
X5.8Y-3.9
X5.8Y-4.
X5.8Y-4.6
X5.8Y-4.7
X5.9Y-3.9
X5.9Y-4.
X5.9Y-4.6
X5.9Y-4.7
X6.Y-3.9
X6.Y-4.
X6.Y-4.6
X6.Y-4.7
X6.1Y-3.9
X6.1Y-4.
X6.1Y-4.6
X6.1Y-4.7
X6.2Y-3.9
X6.2Y-4.7
X6.3Y-3.9
X6.3Y-4.7
X6.4Y-3.9
X6.4Y-4.7
X6.5Y-3.9
X6.5Y-4.7
T0
M30
