G04 #@! TF.FileFunction,Soldermask,Top*
%FSLAX46Y46*%
G04 Gerber Fmt 4.6, Leading zero omitted, Abs format (unit mm)*
G04 Created by KiCad (PCBNEW 4.0.6) date 2017 July 29, Saturday 01:49:35*
%MOMM*%
%LPD*%
G01*
G04 APERTURE LIST*
%ADD10C,0.100000*%
%ADD11R,1.451600X1.451600*%
%ADD12O,1.451600X1.451600*%
%ADD13C,1.901600*%
G04 APERTURE END LIST*
D10*
D11*
X164592000Y-111220000D03*
D12*
X164592000Y-109220000D03*
X164592000Y-107220000D03*
D13*
X127000000Y-119380000D03*
X129540000Y-119380000D03*
X132080000Y-119380000D03*
X134620000Y-119380000D03*
X137160000Y-119380000D03*
X139700000Y-119380000D03*
X142240000Y-119380000D03*
X144780000Y-119380000D03*
X147320000Y-119380000D03*
X149860000Y-119380000D03*
X152400000Y-119380000D03*
X154940000Y-119380000D03*
X157480000Y-119380000D03*
X160020000Y-119380000D03*
X162560000Y-119380000D03*
X165100000Y-119380000D03*
X165100000Y-99060000D03*
X162560000Y-99060000D03*
X160020000Y-99060000D03*
X157480000Y-99060000D03*
X154940000Y-99060000D03*
X152400000Y-99060000D03*
X149860000Y-99060000D03*
X147320000Y-99060000D03*
X144780000Y-99060000D03*
X142240000Y-99060000D03*
X139700000Y-99060000D03*
X137160000Y-99060000D03*
X127000000Y-116840000D03*
X129540000Y-116840000D03*
X132080000Y-116840000D03*
X134620000Y-116840000D03*
X137160000Y-116840000D03*
X139700000Y-116840000D03*
X142240000Y-116840000D03*
X144780000Y-116840000D03*
X147320000Y-116840000D03*
X149860000Y-116840000D03*
X152400000Y-116840000D03*
X154940000Y-116840000D03*
X154940000Y-101600000D03*
X152400000Y-101600000D03*
X149860000Y-101600000D03*
X147320000Y-101600000D03*
X144780000Y-101600000D03*
X142240000Y-101600000D03*
X139700000Y-101600000D03*
X137160000Y-101600000D03*
X134620000Y-101600000D03*
X132080000Y-101600000D03*
X129540000Y-101600000D03*
X127000000Y-101600000D03*
D11*
X160782000Y-111220000D03*
D12*
X160782000Y-109220000D03*
X160782000Y-107220000D03*
M02*
