G04 #@! TF.FileFunction,Copper,L1,Top,Signal*
%FSLAX46Y46*%
G04 Gerber Fmt 4.6, Leading zero omitted, Abs format (unit mm)*
G04 Created by KiCad (PCBNEW 4.0.6) date 2017 July 29, Saturday 01:49:35*
%MOMM*%
%LPD*%
G01*
G04 APERTURE LIST*
%ADD10C,0.100000*%
%ADD11R,1.350000X1.350000*%
%ADD12O,1.350000X1.350000*%
%ADD13C,1.800000*%
%ADD14C,0.685800*%
%ADD15C,0.152400*%
%ADD16C,0.406400*%
%ADD17C,0.254000*%
G04 APERTURE END LIST*
D10*
D11*
X164592000Y-111220000D03*
D12*
X164592000Y-109220000D03*
X164592000Y-107220000D03*
D13*
X127000000Y-119380000D03*
X129540000Y-119380000D03*
X132080000Y-119380000D03*
X134620000Y-119380000D03*
X137160000Y-119380000D03*
X139700000Y-119380000D03*
X142240000Y-119380000D03*
X144780000Y-119380000D03*
X147320000Y-119380000D03*
X149860000Y-119380000D03*
X152400000Y-119380000D03*
X154940000Y-119380000D03*
X157480000Y-119380000D03*
X160020000Y-119380000D03*
X162560000Y-119380000D03*
X165100000Y-119380000D03*
X165100000Y-99060000D03*
X162560000Y-99060000D03*
X160020000Y-99060000D03*
X157480000Y-99060000D03*
X154940000Y-99060000D03*
X152400000Y-99060000D03*
X149860000Y-99060000D03*
X147320000Y-99060000D03*
X144780000Y-99060000D03*
X142240000Y-99060000D03*
X139700000Y-99060000D03*
X137160000Y-99060000D03*
X127000000Y-116840000D03*
X129540000Y-116840000D03*
X132080000Y-116840000D03*
X134620000Y-116840000D03*
X137160000Y-116840000D03*
X139700000Y-116840000D03*
X142240000Y-116840000D03*
X144780000Y-116840000D03*
X147320000Y-116840000D03*
X149860000Y-116840000D03*
X152400000Y-116840000D03*
X154940000Y-116840000D03*
X154940000Y-101600000D03*
X152400000Y-101600000D03*
X149860000Y-101600000D03*
X147320000Y-101600000D03*
X144780000Y-101600000D03*
X142240000Y-101600000D03*
X139700000Y-101600000D03*
X137160000Y-101600000D03*
X134620000Y-101600000D03*
X132080000Y-101600000D03*
X129540000Y-101600000D03*
X127000000Y-101600000D03*
D11*
X160782000Y-111220000D03*
D12*
X160782000Y-109220000D03*
X160782000Y-107220000D03*
D14*
X157569759Y-111338306D03*
X156716527Y-111358500D03*
X139766219Y-104241422D03*
X144150587Y-104202795D03*
X147801009Y-104202793D03*
X152455778Y-104202793D03*
X159138559Y-104164166D03*
X155893740Y-114362166D03*
X150138050Y-114323537D03*
X138472154Y-114400795D03*
X142240000Y-114554000D03*
X132080000Y-99060000D03*
X156623409Y-101771370D03*
X146050000Y-114300000D03*
X146050000Y-114300000D03*
X141836590Y-109250985D03*
X157318415Y-106141892D03*
X141713785Y-111347806D03*
X157326489Y-106983603D03*
X143120815Y-109785057D03*
X143588588Y-110924348D03*
X156487149Y-106964686D03*
X144302752Y-108621634D03*
X146625324Y-110109547D03*
X154410990Y-109260695D03*
X146623589Y-108966535D03*
X148561418Y-109222583D03*
X152401029Y-109010583D03*
X154285271Y-110403706D03*
X150503823Y-110126186D03*
X142658393Y-109085940D03*
X144520564Y-107300854D03*
X142116171Y-108437098D03*
X143707504Y-107539631D03*
X144264343Y-113118913D03*
X141704880Y-107706729D03*
X145325408Y-107535004D03*
X145636698Y-110226056D03*
X147775784Y-113108562D03*
X148095246Y-110975216D03*
X160705100Y-105826194D03*
X150646514Y-108068741D03*
X146776462Y-107213902D03*
X147576712Y-108917772D03*
D15*
X162560000Y-119380000D02*
X162560000Y-117193662D01*
X162560000Y-117193662D02*
X157569759Y-112203421D01*
X157569759Y-112203421D02*
X157569759Y-111823239D01*
X157569759Y-111823239D02*
X157569759Y-111338306D01*
X157059426Y-112124154D02*
X157059426Y-111701399D01*
X160020000Y-119380000D02*
X160020000Y-115084728D01*
X160020000Y-115084728D02*
X157059426Y-112124154D01*
X157059426Y-111701399D02*
X156716527Y-111358500D01*
D16*
X158795660Y-104507065D02*
X159138559Y-104164166D01*
X158333894Y-110351740D02*
X158330563Y-110348409D01*
X158333894Y-112356884D02*
X158333894Y-110351740D01*
X158330563Y-110348409D02*
X158330563Y-104972162D01*
X158330563Y-104972162D02*
X158795660Y-104507065D01*
X164200001Y-118222991D02*
X158333894Y-112356884D01*
X164200001Y-118480001D02*
X164200001Y-118222991D01*
X165100000Y-119380000D02*
X164200001Y-118480001D01*
X137987221Y-114400795D02*
X138472154Y-114400795D01*
X137740915Y-114400795D02*
X137987221Y-114400795D01*
X135301710Y-116840000D02*
X137740915Y-114400795D01*
X134620000Y-116840000D02*
X135301710Y-116840000D01*
X141836590Y-110220691D02*
X141836590Y-109735918D01*
X134620000Y-116840000D02*
X135217281Y-116840000D01*
X135217281Y-116840000D02*
X141836590Y-110220691D01*
X141836590Y-109735918D02*
X141836590Y-109250985D01*
D15*
X165100000Y-99060000D02*
X163898577Y-100261423D01*
X163898577Y-100261423D02*
X161006167Y-100261423D01*
X161006167Y-100261423D02*
X157099143Y-104168447D01*
X157099143Y-104168447D02*
X157099143Y-105922620D01*
X157099143Y-105922620D02*
X157318415Y-106141892D01*
X137160000Y-116840000D02*
X138059999Y-115940001D01*
X138059999Y-115940001D02*
X138534121Y-115940001D01*
X138534121Y-115940001D02*
X141713785Y-112760337D01*
X141713785Y-112760337D02*
X141713785Y-111347806D01*
X161776523Y-99060000D02*
X156746914Y-104089609D01*
X156983590Y-106640704D02*
X157326489Y-106983603D01*
X156746914Y-106404028D02*
X156983590Y-106640704D01*
X156746914Y-104089609D02*
X156746914Y-106404028D01*
X162560000Y-99060000D02*
X161776523Y-99060000D01*
X139700000Y-116840000D02*
X139693806Y-116833806D01*
X139693806Y-116833806D02*
X139693806Y-115673077D01*
X139693806Y-115673077D02*
X142323407Y-113043476D01*
X142323407Y-113043476D02*
X142323407Y-112471768D01*
X142323407Y-112471768D02*
X142701360Y-112093816D01*
X142777916Y-110127956D02*
X143120815Y-109785057D01*
X142701360Y-112093816D02*
X142701360Y-110204512D01*
X142701360Y-110204512D02*
X142777916Y-110127956D01*
X142240000Y-116840000D02*
X143083211Y-115996789D01*
X143083211Y-115996789D02*
X143083211Y-112618284D01*
X143083211Y-112618284D02*
X143588588Y-112112907D01*
X143588588Y-112112907D02*
X143588588Y-111409281D01*
X143588588Y-111409281D02*
X143588588Y-110924348D01*
X156372218Y-103980574D02*
X156372218Y-106849755D01*
X156372218Y-106849755D02*
X156487149Y-106964686D01*
X160020000Y-99060000D02*
X160020000Y-100332792D01*
X160020000Y-100332792D02*
X156372218Y-103980574D01*
X144645651Y-108964533D02*
X144302752Y-108621634D01*
X143692833Y-115752833D02*
X143692833Y-112870796D01*
X143692833Y-112870796D02*
X144645651Y-111917978D01*
X144645651Y-111917978D02*
X144645651Y-108964533D01*
X144780000Y-116840000D02*
X143692833Y-115752833D01*
X154753889Y-108917796D02*
X154410990Y-109260695D01*
X155915647Y-106690364D02*
X155915647Y-107756038D01*
X159183722Y-100123875D02*
X159183722Y-100733536D01*
X157480000Y-99060000D02*
X158379999Y-99959999D01*
X158379999Y-99959999D02*
X159019846Y-99959999D01*
X159183722Y-100733536D02*
X156055685Y-103861573D01*
X155915647Y-107756038D02*
X154753889Y-108917796D01*
X156055685Y-106550326D02*
X155915647Y-106690364D01*
X159019846Y-99959999D02*
X159183722Y-100123875D01*
X156055685Y-103861573D02*
X156055685Y-106550326D01*
X146968223Y-110452446D02*
X146625324Y-110109547D01*
X146968223Y-110810912D02*
X146968223Y-110452446D01*
X148364520Y-115795480D02*
X148364520Y-112207209D01*
X147320000Y-116840000D02*
X148364520Y-115795480D01*
X148364520Y-112207209D02*
X146968223Y-110810912D01*
X146280690Y-108623636D02*
X146623589Y-108966535D01*
X146182094Y-100462094D02*
X146182094Y-108525040D01*
X144780000Y-99060000D02*
X146182094Y-100462094D01*
X146182094Y-108525040D02*
X146280690Y-108623636D01*
X149860000Y-116840000D02*
X149007272Y-115987272D01*
X149007272Y-115987272D02*
X149007272Y-109668437D01*
X149007272Y-109668437D02*
X148904317Y-109565482D01*
X148904317Y-109565482D02*
X148561418Y-109222583D01*
X152400000Y-116840000D02*
X151518914Y-115958914D01*
X151518914Y-115958914D02*
X151518914Y-109892698D01*
X151518914Y-109892698D02*
X152058130Y-109353482D01*
X152058130Y-109353482D02*
X152401029Y-109010583D01*
X155610836Y-106564108D02*
X155610836Y-107212988D01*
X155750874Y-104048101D02*
X155750874Y-106424070D01*
X152128536Y-110695288D02*
X152128536Y-114540092D01*
X152128536Y-114540092D02*
X153528445Y-115940001D01*
X153528445Y-115940001D02*
X154040001Y-115940001D01*
X154040001Y-115940001D02*
X154940000Y-116840000D01*
X155610836Y-107212988D02*
X152128536Y-110695288D01*
X153679016Y-100320984D02*
X153679016Y-101976243D01*
X153679016Y-101976243D02*
X155750874Y-104048101D01*
X154940000Y-99060000D02*
X153679016Y-100320984D01*
X155750874Y-106424070D02*
X155610836Y-106564108D01*
X154940000Y-119380000D02*
X153673826Y-118113826D01*
X153673826Y-118113826D02*
X153673826Y-116516449D01*
X153673826Y-116516449D02*
X151823725Y-114666348D01*
X151823725Y-114666348D02*
X151823725Y-110569032D01*
X151823725Y-110569032D02*
X155305102Y-107087655D01*
X155305102Y-107087655D02*
X155305102Y-104033396D01*
X155305102Y-104033396D02*
X153771705Y-102499999D01*
X153771705Y-102499999D02*
X153299999Y-102499999D01*
X153299999Y-102499999D02*
X152400000Y-101600000D01*
X157480000Y-119380000D02*
X159661679Y-117198321D01*
X159661679Y-117198321D02*
X159661679Y-115233304D01*
X159661679Y-115233304D02*
X155174980Y-110746605D01*
X155174980Y-110746605D02*
X154628170Y-110746605D01*
X154628170Y-110746605D02*
X154285271Y-110403706D01*
X150160924Y-109783287D02*
X150503823Y-110126186D01*
X149860000Y-101600000D02*
X149860000Y-109482363D01*
X149860000Y-109482363D02*
X150160924Y-109783287D01*
X148731399Y-102141729D02*
X149318271Y-102728601D01*
X149318271Y-102728601D02*
X149406256Y-102728601D01*
X149406256Y-102728601D02*
X149553884Y-102876229D01*
X149553884Y-110022071D02*
X151214103Y-111682290D01*
X151214103Y-118194103D02*
X151500001Y-118480001D01*
X151500001Y-118480001D02*
X152400000Y-119380000D01*
X148731399Y-101738607D02*
X148731399Y-102141729D01*
X147320000Y-101600000D02*
X148592792Y-101600000D01*
X151214103Y-111682290D02*
X151214103Y-118194103D01*
X148592792Y-101600000D02*
X148731399Y-101738607D01*
X149553884Y-102876229D02*
X149553884Y-110022071D01*
X142018596Y-112345513D02*
X142396549Y-111967560D01*
X138435236Y-116500581D02*
X142018596Y-112917221D01*
X142431175Y-109313158D02*
X142658393Y-109085940D01*
X142431175Y-109744608D02*
X142431175Y-109313158D01*
X142396549Y-109779234D02*
X142431175Y-109744608D01*
X142396549Y-111967560D02*
X142396549Y-109779234D01*
X142018596Y-112917221D02*
X142018596Y-112345513D01*
X138435236Y-118104764D02*
X138435236Y-116500581D01*
X137160000Y-119380000D02*
X138435236Y-118104764D01*
X144780000Y-101600000D02*
X145875463Y-102695463D01*
X145875463Y-102695463D02*
X145875463Y-105945955D01*
X145875463Y-105945955D02*
X144520564Y-107300854D01*
X143867561Y-109877471D02*
X143867561Y-109582422D01*
X143388473Y-110356559D02*
X143867561Y-109877471D01*
X142628218Y-112642211D02*
X143006171Y-112264258D01*
X142628218Y-113169732D02*
X142628218Y-112642211D01*
X140969938Y-114828012D02*
X142628218Y-113169732D01*
X139700000Y-119380000D02*
X140969938Y-118110062D01*
X142240000Y-103708933D02*
X142240000Y-102872792D01*
X142763881Y-104232814D02*
X142240000Y-103708933D01*
X142763881Y-107526429D02*
X142763881Y-104232814D01*
X143229151Y-107991700D02*
X142763881Y-107526429D01*
X143229151Y-108944012D02*
X143229151Y-107991700D01*
X143867561Y-109582422D02*
X143229151Y-108944012D01*
X143070849Y-110356559D02*
X143388473Y-110356559D01*
X140969938Y-118110062D02*
X140969938Y-114828012D01*
X143006171Y-112264258D02*
X143006171Y-110421237D01*
X143006171Y-110421237D02*
X143070849Y-110356559D01*
X142240000Y-102872792D02*
X142240000Y-101600000D01*
X143388022Y-112744540D02*
X144178973Y-111953589D01*
X144178973Y-111953589D02*
X144178973Y-109462767D01*
X142240000Y-119380000D02*
X143388022Y-118231978D01*
X143388022Y-118231978D02*
X143388022Y-112744540D01*
X143707504Y-108024564D02*
X143707504Y-107539631D01*
X143707504Y-108991298D02*
X143707504Y-108024564D01*
X144178973Y-109462767D02*
X143707504Y-108991298D01*
X139700000Y-101600000D02*
X142459070Y-104359070D01*
X142459070Y-104359070D02*
X142459070Y-108094199D01*
X142459070Y-108094199D02*
X142116171Y-108437098D01*
X144607242Y-112776014D02*
X144264343Y-113118913D01*
X145325408Y-107535004D02*
X144959687Y-107900725D01*
X144959687Y-112423569D02*
X144607242Y-112776014D01*
X144959687Y-107900725D02*
X144959687Y-112423569D01*
X140991675Y-107363830D02*
X141361981Y-107363830D01*
X141361981Y-107363830D02*
X141704880Y-107706729D01*
X137160000Y-101600000D02*
X137160000Y-103532155D01*
X137160000Y-103532155D02*
X140991675Y-107363830D01*
D16*
X130439999Y-118480001D02*
X129540000Y-119380000D01*
X130824399Y-118095601D02*
X130439999Y-118480001D01*
X130824399Y-116237311D02*
X130824399Y-118095601D01*
X131477311Y-115584399D02*
X130824399Y-116237311D01*
X135680857Y-115584399D02*
X131477311Y-115584399D01*
X140898270Y-110366986D02*
X135680857Y-115584399D01*
X140898270Y-107881097D02*
X140898270Y-110366986D01*
X135519999Y-102502826D02*
X140898270Y-107881097D01*
X135519999Y-102499999D02*
X135519999Y-102502826D01*
X134620000Y-101600000D02*
X135519999Y-102499999D01*
D15*
X128285280Y-118094720D02*
X127899999Y-118480001D01*
X140466459Y-108112766D02*
X140466459Y-110188125D01*
X135501996Y-115152588D02*
X129557082Y-115152588D01*
X133208601Y-102728601D02*
X135082294Y-102728601D01*
X129557082Y-115152588D02*
X128285280Y-116424390D01*
X128285280Y-116424390D02*
X128285280Y-118094720D01*
X140466459Y-110188125D02*
X135501996Y-115152588D01*
X135082294Y-102728601D02*
X140466459Y-108112766D01*
X132080000Y-101600000D02*
X133208601Y-102728601D01*
X127899999Y-118480001D02*
X127000000Y-119380000D01*
D16*
X142240000Y-99060000D02*
X140955601Y-100344399D01*
X140955601Y-100344399D02*
X128255601Y-100344399D01*
X128255601Y-100344399D02*
X127899999Y-100700001D01*
X127899999Y-100700001D02*
X127000000Y-101600000D01*
D15*
X147775784Y-113108562D02*
X147775784Y-112365142D01*
X147775784Y-112365142D02*
X145636698Y-110226056D01*
X148438145Y-111318115D02*
X148095246Y-110975216D01*
X148669331Y-111549301D02*
X148438145Y-111318115D01*
X148669331Y-118189331D02*
X148669331Y-111549301D01*
X149860000Y-119380000D02*
X148669331Y-118189331D01*
X164592000Y-107220000D02*
X162098906Y-107220000D01*
X162098906Y-107220000D02*
X161047999Y-106169093D01*
X161047999Y-106169093D02*
X160705100Y-105826194D01*
X149860000Y-99060000D02*
X150988601Y-100188601D01*
X150221985Y-107644212D02*
X150646514Y-108068741D01*
X150988601Y-100188601D02*
X150988601Y-102141729D01*
X150988601Y-102141729D02*
X150221985Y-102908345D01*
X150221985Y-102908345D02*
X150221985Y-107644212D01*
X146776462Y-108117522D02*
X146776462Y-107698835D01*
X146776462Y-107698835D02*
X146776462Y-107213902D01*
X147576712Y-108917772D02*
X146776462Y-108117522D01*
D17*
G36*
X165914000Y-118043303D02*
X165340664Y-117833542D01*
X164730540Y-117859161D01*
X164285852Y-118043357D01*
X164199446Y-118299841D01*
X165100000Y-119200395D01*
X165114143Y-119186253D01*
X165293748Y-119365858D01*
X165279605Y-119380000D01*
X165293748Y-119394143D01*
X165114143Y-119573748D01*
X165100000Y-119559605D01*
X165085858Y-119573748D01*
X164906253Y-119394143D01*
X164920395Y-119380000D01*
X164019841Y-118479446D01*
X163763357Y-118565852D01*
X163691170Y-118763159D01*
X163646612Y-118655320D01*
X163286575Y-118294655D01*
X163017200Y-118182800D01*
X163017200Y-117193662D01*
X162982398Y-117018699D01*
X162975763Y-117008769D01*
X162883290Y-116870373D01*
X158026959Y-112014043D01*
X158026959Y-111904760D01*
X158183094Y-111748898D01*
X158293533Y-111482930D01*
X158293784Y-111194945D01*
X158183809Y-110928785D01*
X157980351Y-110724971D01*
X157714383Y-110614532D01*
X157426398Y-110614281D01*
X157160238Y-110724256D01*
X157133195Y-110751252D01*
X157127119Y-110745165D01*
X156861151Y-110634726D01*
X156573166Y-110634475D01*
X156307006Y-110744450D01*
X156103192Y-110947908D01*
X156079623Y-111004670D01*
X155498269Y-110423316D01*
X155349943Y-110324207D01*
X155174980Y-110289405D01*
X155009271Y-110289405D01*
X155009296Y-110260345D01*
X154899321Y-109994185D01*
X154791893Y-109886570D01*
X154820511Y-109874745D01*
X155024325Y-109671287D01*
X155134764Y-109405319D01*
X155134958Y-109183305D01*
X156238936Y-108079327D01*
X156338045Y-107931001D01*
X156372847Y-107756038D01*
X156372847Y-107688486D01*
X156630510Y-107688711D01*
X156896670Y-107578736D01*
X156897199Y-107578208D01*
X156915897Y-107596938D01*
X157181865Y-107707377D01*
X157469850Y-107707628D01*
X157736010Y-107597653D01*
X157939824Y-107394195D01*
X158012155Y-107220000D01*
X159705312Y-107220000D01*
X159785695Y-107624114D01*
X160014607Y-107966705D01*
X160357198Y-108195617D01*
X160479780Y-108220000D01*
X160357198Y-108244383D01*
X160014607Y-108473295D01*
X159785695Y-108815886D01*
X159705312Y-109220000D01*
X159785695Y-109624114D01*
X160014607Y-109966705D01*
X160298709Y-110156536D01*
X160107000Y-110156536D01*
X159965810Y-110183103D01*
X159836135Y-110266546D01*
X159749141Y-110393866D01*
X159718536Y-110545000D01*
X159718536Y-111895000D01*
X159745103Y-112036190D01*
X159828546Y-112165865D01*
X159955866Y-112252859D01*
X160107000Y-112283464D01*
X161457000Y-112283464D01*
X161598190Y-112256897D01*
X161727865Y-112173454D01*
X161814859Y-112046134D01*
X161845464Y-111895000D01*
X161845464Y-110545000D01*
X161818897Y-110403810D01*
X161735454Y-110274135D01*
X161608134Y-110187141D01*
X161457000Y-110156536D01*
X161265291Y-110156536D01*
X161549393Y-109966705D01*
X161778305Y-109624114D01*
X161858688Y-109220000D01*
X161778305Y-108815886D01*
X161549393Y-108473295D01*
X161206802Y-108244383D01*
X161084220Y-108220000D01*
X161206802Y-108195617D01*
X161549393Y-107966705D01*
X161778305Y-107624114D01*
X161792181Y-107554357D01*
X161923943Y-107642398D01*
X162098906Y-107677200D01*
X163631166Y-107677200D01*
X163824607Y-107966705D01*
X164167198Y-108195617D01*
X164289780Y-108220000D01*
X164167198Y-108244383D01*
X163824607Y-108473295D01*
X163595695Y-108815886D01*
X163515312Y-109220000D01*
X163595695Y-109624114D01*
X163824607Y-109966705D01*
X164108709Y-110156536D01*
X163917000Y-110156536D01*
X163775810Y-110183103D01*
X163646135Y-110266546D01*
X163559141Y-110393866D01*
X163528536Y-110545000D01*
X163528536Y-111895000D01*
X163555103Y-112036190D01*
X163638546Y-112165865D01*
X163765866Y-112252859D01*
X163917000Y-112283464D01*
X165267000Y-112283464D01*
X165408190Y-112256897D01*
X165537865Y-112173454D01*
X165624859Y-112046134D01*
X165655464Y-111895000D01*
X165655464Y-110545000D01*
X165628897Y-110403810D01*
X165545454Y-110274135D01*
X165418134Y-110187141D01*
X165267000Y-110156536D01*
X165075291Y-110156536D01*
X165359393Y-109966705D01*
X165588305Y-109624114D01*
X165668688Y-109220000D01*
X165588305Y-108815886D01*
X165359393Y-108473295D01*
X165016802Y-108244383D01*
X164894220Y-108220000D01*
X165016802Y-108195617D01*
X165359393Y-107966705D01*
X165588305Y-107624114D01*
X165668688Y-107220000D01*
X165588305Y-106815886D01*
X165359393Y-106473295D01*
X165016802Y-106244383D01*
X164612688Y-106164000D01*
X164571312Y-106164000D01*
X164167198Y-106244383D01*
X163824607Y-106473295D01*
X163631166Y-106762800D01*
X162288284Y-106762800D01*
X161428933Y-105903449D01*
X161429125Y-105682833D01*
X161319150Y-105416673D01*
X161115692Y-105212859D01*
X160849724Y-105102420D01*
X160561739Y-105102169D01*
X160295579Y-105212144D01*
X160091765Y-105415602D01*
X159981326Y-105681570D01*
X159981075Y-105969555D01*
X160091050Y-106235715D01*
X160202733Y-106347593D01*
X160014607Y-106473295D01*
X159785695Y-106815886D01*
X159705312Y-107220000D01*
X158012155Y-107220000D01*
X158050263Y-107128227D01*
X158050514Y-106840242D01*
X157940539Y-106574082D01*
X157925353Y-106558870D01*
X157931750Y-106552484D01*
X158042189Y-106286516D01*
X158042440Y-105998531D01*
X157932465Y-105732371D01*
X157729007Y-105528557D01*
X157556343Y-105456861D01*
X157556343Y-104357825D01*
X161195545Y-100718623D01*
X163898577Y-100718623D01*
X164073540Y-100683821D01*
X164221866Y-100584712D01*
X164576789Y-100229789D01*
X164844076Y-100340777D01*
X165353689Y-100341222D01*
X165824680Y-100146612D01*
X165914000Y-100057448D01*
X165914000Y-118043303D01*
X165914000Y-118043303D01*
G37*
X165914000Y-118043303D02*
X165340664Y-117833542D01*
X164730540Y-117859161D01*
X164285852Y-118043357D01*
X164199446Y-118299841D01*
X165100000Y-119200395D01*
X165114143Y-119186253D01*
X165293748Y-119365858D01*
X165279605Y-119380000D01*
X165293748Y-119394143D01*
X165114143Y-119573748D01*
X165100000Y-119559605D01*
X165085858Y-119573748D01*
X164906253Y-119394143D01*
X164920395Y-119380000D01*
X164019841Y-118479446D01*
X163763357Y-118565852D01*
X163691170Y-118763159D01*
X163646612Y-118655320D01*
X163286575Y-118294655D01*
X163017200Y-118182800D01*
X163017200Y-117193662D01*
X162982398Y-117018699D01*
X162975763Y-117008769D01*
X162883290Y-116870373D01*
X158026959Y-112014043D01*
X158026959Y-111904760D01*
X158183094Y-111748898D01*
X158293533Y-111482930D01*
X158293784Y-111194945D01*
X158183809Y-110928785D01*
X157980351Y-110724971D01*
X157714383Y-110614532D01*
X157426398Y-110614281D01*
X157160238Y-110724256D01*
X157133195Y-110751252D01*
X157127119Y-110745165D01*
X156861151Y-110634726D01*
X156573166Y-110634475D01*
X156307006Y-110744450D01*
X156103192Y-110947908D01*
X156079623Y-111004670D01*
X155498269Y-110423316D01*
X155349943Y-110324207D01*
X155174980Y-110289405D01*
X155009271Y-110289405D01*
X155009296Y-110260345D01*
X154899321Y-109994185D01*
X154791893Y-109886570D01*
X154820511Y-109874745D01*
X155024325Y-109671287D01*
X155134764Y-109405319D01*
X155134958Y-109183305D01*
X156238936Y-108079327D01*
X156338045Y-107931001D01*
X156372847Y-107756038D01*
X156372847Y-107688486D01*
X156630510Y-107688711D01*
X156896670Y-107578736D01*
X156897199Y-107578208D01*
X156915897Y-107596938D01*
X157181865Y-107707377D01*
X157469850Y-107707628D01*
X157736010Y-107597653D01*
X157939824Y-107394195D01*
X158012155Y-107220000D01*
X159705312Y-107220000D01*
X159785695Y-107624114D01*
X160014607Y-107966705D01*
X160357198Y-108195617D01*
X160479780Y-108220000D01*
X160357198Y-108244383D01*
X160014607Y-108473295D01*
X159785695Y-108815886D01*
X159705312Y-109220000D01*
X159785695Y-109624114D01*
X160014607Y-109966705D01*
X160298709Y-110156536D01*
X160107000Y-110156536D01*
X159965810Y-110183103D01*
X159836135Y-110266546D01*
X159749141Y-110393866D01*
X159718536Y-110545000D01*
X159718536Y-111895000D01*
X159745103Y-112036190D01*
X159828546Y-112165865D01*
X159955866Y-112252859D01*
X160107000Y-112283464D01*
X161457000Y-112283464D01*
X161598190Y-112256897D01*
X161727865Y-112173454D01*
X161814859Y-112046134D01*
X161845464Y-111895000D01*
X161845464Y-110545000D01*
X161818897Y-110403810D01*
X161735454Y-110274135D01*
X161608134Y-110187141D01*
X161457000Y-110156536D01*
X161265291Y-110156536D01*
X161549393Y-109966705D01*
X161778305Y-109624114D01*
X161858688Y-109220000D01*
X161778305Y-108815886D01*
X161549393Y-108473295D01*
X161206802Y-108244383D01*
X161084220Y-108220000D01*
X161206802Y-108195617D01*
X161549393Y-107966705D01*
X161778305Y-107624114D01*
X161792181Y-107554357D01*
X161923943Y-107642398D01*
X162098906Y-107677200D01*
X163631166Y-107677200D01*
X163824607Y-107966705D01*
X164167198Y-108195617D01*
X164289780Y-108220000D01*
X164167198Y-108244383D01*
X163824607Y-108473295D01*
X163595695Y-108815886D01*
X163515312Y-109220000D01*
X163595695Y-109624114D01*
X163824607Y-109966705D01*
X164108709Y-110156536D01*
X163917000Y-110156536D01*
X163775810Y-110183103D01*
X163646135Y-110266546D01*
X163559141Y-110393866D01*
X163528536Y-110545000D01*
X163528536Y-111895000D01*
X163555103Y-112036190D01*
X163638546Y-112165865D01*
X163765866Y-112252859D01*
X163917000Y-112283464D01*
X165267000Y-112283464D01*
X165408190Y-112256897D01*
X165537865Y-112173454D01*
X165624859Y-112046134D01*
X165655464Y-111895000D01*
X165655464Y-110545000D01*
X165628897Y-110403810D01*
X165545454Y-110274135D01*
X165418134Y-110187141D01*
X165267000Y-110156536D01*
X165075291Y-110156536D01*
X165359393Y-109966705D01*
X165588305Y-109624114D01*
X165668688Y-109220000D01*
X165588305Y-108815886D01*
X165359393Y-108473295D01*
X165016802Y-108244383D01*
X164894220Y-108220000D01*
X165016802Y-108195617D01*
X165359393Y-107966705D01*
X165588305Y-107624114D01*
X165668688Y-107220000D01*
X165588305Y-106815886D01*
X165359393Y-106473295D01*
X165016802Y-106244383D01*
X164612688Y-106164000D01*
X164571312Y-106164000D01*
X164167198Y-106244383D01*
X163824607Y-106473295D01*
X163631166Y-106762800D01*
X162288284Y-106762800D01*
X161428933Y-105903449D01*
X161429125Y-105682833D01*
X161319150Y-105416673D01*
X161115692Y-105212859D01*
X160849724Y-105102420D01*
X160561739Y-105102169D01*
X160295579Y-105212144D01*
X160091765Y-105415602D01*
X159981326Y-105681570D01*
X159981075Y-105969555D01*
X160091050Y-106235715D01*
X160202733Y-106347593D01*
X160014607Y-106473295D01*
X159785695Y-106815886D01*
X159705312Y-107220000D01*
X158012155Y-107220000D01*
X158050263Y-107128227D01*
X158050514Y-106840242D01*
X157940539Y-106574082D01*
X157925353Y-106558870D01*
X157931750Y-106552484D01*
X158042189Y-106286516D01*
X158042440Y-105998531D01*
X157932465Y-105732371D01*
X157729007Y-105528557D01*
X157556343Y-105456861D01*
X157556343Y-104357825D01*
X161195545Y-100718623D01*
X163898577Y-100718623D01*
X164073540Y-100683821D01*
X164221866Y-100584712D01*
X164576789Y-100229789D01*
X164844076Y-100340777D01*
X165353689Y-100341222D01*
X165824680Y-100146612D01*
X165914000Y-100057448D01*
X165914000Y-118043303D01*
G36*
X134813748Y-116825858D02*
X134799605Y-116840000D01*
X135700159Y-117740554D01*
X135956643Y-117654148D01*
X136028830Y-117456841D01*
X136073388Y-117564680D01*
X136433425Y-117925345D01*
X136878636Y-118110213D01*
X136435320Y-118293388D01*
X136074655Y-118653425D01*
X136033736Y-118751970D01*
X135956643Y-118565852D01*
X135700159Y-118479446D01*
X134799605Y-119380000D01*
X134813748Y-119394143D01*
X134634143Y-119573748D01*
X134620000Y-119559605D01*
X134605858Y-119573748D01*
X134426253Y-119394143D01*
X134440395Y-119380000D01*
X133539841Y-118479446D01*
X133283357Y-118565852D01*
X133211170Y-118763159D01*
X133166612Y-118655320D01*
X132806575Y-118294655D01*
X132361364Y-118109787D01*
X132804680Y-117926612D01*
X132811144Y-117920159D01*
X133719446Y-117920159D01*
X133783401Y-118110000D01*
X133719446Y-118299841D01*
X134620000Y-119200395D01*
X135520554Y-118299841D01*
X135456599Y-118110000D01*
X135520554Y-117920159D01*
X134620000Y-117019605D01*
X133719446Y-117920159D01*
X132811144Y-117920159D01*
X133165345Y-117566575D01*
X133206264Y-117468030D01*
X133283357Y-117654148D01*
X133539841Y-117740554D01*
X134440395Y-116840000D01*
X134426253Y-116825858D01*
X134605858Y-116646253D01*
X134620000Y-116660395D01*
X134634143Y-116646253D01*
X134813748Y-116825858D01*
X134813748Y-116825858D01*
G37*
X134813748Y-116825858D02*
X134799605Y-116840000D01*
X135700159Y-117740554D01*
X135956643Y-117654148D01*
X136028830Y-117456841D01*
X136073388Y-117564680D01*
X136433425Y-117925345D01*
X136878636Y-118110213D01*
X136435320Y-118293388D01*
X136074655Y-118653425D01*
X136033736Y-118751970D01*
X135956643Y-118565852D01*
X135700159Y-118479446D01*
X134799605Y-119380000D01*
X134813748Y-119394143D01*
X134634143Y-119573748D01*
X134620000Y-119559605D01*
X134605858Y-119573748D01*
X134426253Y-119394143D01*
X134440395Y-119380000D01*
X133539841Y-118479446D01*
X133283357Y-118565852D01*
X133211170Y-118763159D01*
X133166612Y-118655320D01*
X132806575Y-118294655D01*
X132361364Y-118109787D01*
X132804680Y-117926612D01*
X132811144Y-117920159D01*
X133719446Y-117920159D01*
X133783401Y-118110000D01*
X133719446Y-118299841D01*
X134620000Y-119200395D01*
X135520554Y-118299841D01*
X135456599Y-118110000D01*
X135520554Y-117920159D01*
X134620000Y-117019605D01*
X133719446Y-117920159D01*
X132811144Y-117920159D01*
X133165345Y-117566575D01*
X133206264Y-117468030D01*
X133283357Y-117654148D01*
X133539841Y-117740554D01*
X134440395Y-116840000D01*
X134426253Y-116825858D01*
X134605858Y-116646253D01*
X134620000Y-116660395D01*
X134634143Y-116646253D01*
X134813748Y-116825858D01*
G36*
X153904368Y-109777831D02*
X153875750Y-109789656D01*
X153671936Y-109993114D01*
X153561497Y-110259082D01*
X153561246Y-110547067D01*
X153671221Y-110813227D01*
X153874679Y-111017041D01*
X154140647Y-111127480D01*
X154391391Y-111127699D01*
X154425035Y-111150179D01*
X154453207Y-111169003D01*
X154628170Y-111203805D01*
X154985602Y-111203805D01*
X159204479Y-115422683D01*
X159204479Y-117008943D01*
X158003211Y-118210211D01*
X157735924Y-118099223D01*
X157226311Y-118098778D01*
X156755320Y-118293388D01*
X156394655Y-118653425D01*
X156209787Y-119098636D01*
X156026612Y-118655320D01*
X155666575Y-118294655D01*
X155221364Y-118109787D01*
X155664680Y-117926612D01*
X156025345Y-117566575D01*
X156220777Y-117095924D01*
X156221222Y-116586311D01*
X156026612Y-116115320D01*
X155666575Y-115754655D01*
X155195924Y-115559223D01*
X154686311Y-115558778D01*
X154416741Y-115670163D01*
X154363290Y-115616712D01*
X154214964Y-115517603D01*
X154040001Y-115482801D01*
X153717823Y-115482801D01*
X152585736Y-114350714D01*
X152585736Y-110884666D01*
X153798562Y-109671840D01*
X153904368Y-109777831D01*
X153904368Y-109777831D01*
G37*
X153904368Y-109777831D02*
X153875750Y-109789656D01*
X153671936Y-109993114D01*
X153561497Y-110259082D01*
X153561246Y-110547067D01*
X153671221Y-110813227D01*
X153874679Y-111017041D01*
X154140647Y-111127480D01*
X154391391Y-111127699D01*
X154425035Y-111150179D01*
X154453207Y-111169003D01*
X154628170Y-111203805D01*
X154985602Y-111203805D01*
X159204479Y-115422683D01*
X159204479Y-117008943D01*
X158003211Y-118210211D01*
X157735924Y-118099223D01*
X157226311Y-118098778D01*
X156755320Y-118293388D01*
X156394655Y-118653425D01*
X156209787Y-119098636D01*
X156026612Y-118655320D01*
X155666575Y-118294655D01*
X155221364Y-118109787D01*
X155664680Y-117926612D01*
X156025345Y-117566575D01*
X156220777Y-117095924D01*
X156221222Y-116586311D01*
X156026612Y-116115320D01*
X155666575Y-115754655D01*
X155195924Y-115559223D01*
X154686311Y-115558778D01*
X154416741Y-115670163D01*
X154363290Y-115616712D01*
X154214964Y-115517603D01*
X154040001Y-115482801D01*
X153717823Y-115482801D01*
X152585736Y-114350714D01*
X152585736Y-110884666D01*
X153798562Y-109671840D01*
X153904368Y-109777831D01*
G36*
X145492074Y-110949830D02*
X145714087Y-110950024D01*
X147312372Y-112548309D01*
X147162449Y-112697970D01*
X147052010Y-112963938D01*
X147051759Y-113251923D01*
X147161734Y-113518083D01*
X147365192Y-113721897D01*
X147631160Y-113832336D01*
X147907320Y-113832577D01*
X147907320Y-115606102D01*
X147843211Y-115670211D01*
X147575924Y-115559223D01*
X147066311Y-115558778D01*
X146595320Y-115753388D01*
X146234655Y-116113425D01*
X146049787Y-116558636D01*
X145866612Y-116115320D01*
X145506575Y-115754655D01*
X145035924Y-115559223D01*
X144526311Y-115558778D01*
X144256741Y-115670163D01*
X144150033Y-115563455D01*
X144150033Y-113842713D01*
X144407704Y-113842938D01*
X144673864Y-113732963D01*
X144877678Y-113529505D01*
X144988117Y-113263537D01*
X144988311Y-113041524D01*
X145282976Y-112746859D01*
X145382085Y-112598532D01*
X145392424Y-112546552D01*
X145416887Y-112423569D01*
X145416887Y-110918610D01*
X145492074Y-110949830D01*
X145492074Y-110949830D01*
G37*
X145492074Y-110949830D02*
X145714087Y-110950024D01*
X147312372Y-112548309D01*
X147162449Y-112697970D01*
X147052010Y-112963938D01*
X147051759Y-113251923D01*
X147161734Y-113518083D01*
X147365192Y-113721897D01*
X147631160Y-113832336D01*
X147907320Y-113832577D01*
X147907320Y-115606102D01*
X147843211Y-115670211D01*
X147575924Y-115559223D01*
X147066311Y-115558778D01*
X146595320Y-115753388D01*
X146234655Y-116113425D01*
X146049787Y-116558636D01*
X145866612Y-116115320D01*
X145506575Y-115754655D01*
X145035924Y-115559223D01*
X144526311Y-115558778D01*
X144256741Y-115670163D01*
X144150033Y-115563455D01*
X144150033Y-113842713D01*
X144407704Y-113842938D01*
X144673864Y-113732963D01*
X144877678Y-113529505D01*
X144988117Y-113263537D01*
X144988311Y-113041524D01*
X145282976Y-112746859D01*
X145382085Y-112598532D01*
X145392424Y-112546552D01*
X145416887Y-112423569D01*
X145416887Y-110918610D01*
X145492074Y-110949830D01*
G36*
X140990011Y-111203182D02*
X140989760Y-111491167D01*
X141099735Y-111757327D01*
X141256585Y-111914451D01*
X141256585Y-112570959D01*
X138344743Y-115482801D01*
X138059999Y-115482801D01*
X137885036Y-115517603D01*
X137736710Y-115616712D01*
X137683211Y-115670211D01*
X137415924Y-115559223D01*
X136906311Y-115558778D01*
X136435320Y-115753388D01*
X136074655Y-116113425D01*
X136033736Y-116211970D01*
X135977206Y-116075496D01*
X136093949Y-115997491D01*
X141062264Y-111029176D01*
X140990011Y-111203182D01*
X140990011Y-111203182D01*
G37*
X140990011Y-111203182D02*
X140989760Y-111491167D01*
X141099735Y-111757327D01*
X141256585Y-111914451D01*
X141256585Y-112570959D01*
X138344743Y-115482801D01*
X138059999Y-115482801D01*
X137885036Y-115517603D01*
X137736710Y-115616712D01*
X137683211Y-115670211D01*
X137415924Y-115559223D01*
X136906311Y-115558778D01*
X136435320Y-115753388D01*
X136074655Y-116113425D01*
X136033736Y-116211970D01*
X135977206Y-116075496D01*
X136093949Y-115997491D01*
X141062264Y-111029176D01*
X140990011Y-111203182D01*
G36*
X129733748Y-101585858D02*
X129719605Y-101600000D01*
X130620159Y-102500554D01*
X130876643Y-102414148D01*
X130948830Y-102216841D01*
X130993388Y-102324680D01*
X131353425Y-102685345D01*
X131824076Y-102880777D01*
X132333689Y-102881222D01*
X132603259Y-102769837D01*
X132885312Y-103051890D01*
X133033638Y-103150999D01*
X133208601Y-103185801D01*
X134892916Y-103185801D01*
X140009259Y-108302144D01*
X140009259Y-109998747D01*
X135312618Y-114695388D01*
X129557082Y-114695388D01*
X129382119Y-114730190D01*
X129233793Y-114829299D01*
X128017252Y-116045840D01*
X127726575Y-115754655D01*
X127255924Y-115559223D01*
X126746311Y-115558778D01*
X126275320Y-115753388D01*
X126186000Y-115842552D01*
X126186000Y-102597768D01*
X126273425Y-102685345D01*
X126744076Y-102880777D01*
X127253689Y-102881222D01*
X127724680Y-102686612D01*
X127731144Y-102680159D01*
X128639446Y-102680159D01*
X128725852Y-102936643D01*
X129299336Y-103146458D01*
X129909460Y-103120839D01*
X130354148Y-102936643D01*
X130440554Y-102680159D01*
X129540000Y-101779605D01*
X128639446Y-102680159D01*
X127731144Y-102680159D01*
X128085345Y-102326575D01*
X128126264Y-102228030D01*
X128203357Y-102414148D01*
X128459841Y-102500554D01*
X129360395Y-101600000D01*
X129346253Y-101585858D01*
X129525858Y-101406253D01*
X129540000Y-101420395D01*
X129554143Y-101406253D01*
X129733748Y-101585858D01*
X129733748Y-101585858D01*
G37*
X129733748Y-101585858D02*
X129719605Y-101600000D01*
X130620159Y-102500554D01*
X130876643Y-102414148D01*
X130948830Y-102216841D01*
X130993388Y-102324680D01*
X131353425Y-102685345D01*
X131824076Y-102880777D01*
X132333689Y-102881222D01*
X132603259Y-102769837D01*
X132885312Y-103051890D01*
X133033638Y-103150999D01*
X133208601Y-103185801D01*
X134892916Y-103185801D01*
X140009259Y-108302144D01*
X140009259Y-109998747D01*
X135312618Y-114695388D01*
X129557082Y-114695388D01*
X129382119Y-114730190D01*
X129233793Y-114829299D01*
X128017252Y-116045840D01*
X127726575Y-115754655D01*
X127255924Y-115559223D01*
X126746311Y-115558778D01*
X126275320Y-115753388D01*
X126186000Y-115842552D01*
X126186000Y-102597768D01*
X126273425Y-102685345D01*
X126744076Y-102880777D01*
X127253689Y-102881222D01*
X127724680Y-102686612D01*
X127731144Y-102680159D01*
X128639446Y-102680159D01*
X128725852Y-102936643D01*
X129299336Y-103146458D01*
X129909460Y-103120839D01*
X130354148Y-102936643D01*
X130440554Y-102680159D01*
X129540000Y-101779605D01*
X128639446Y-102680159D01*
X127731144Y-102680159D01*
X128085345Y-102326575D01*
X128126264Y-102228030D01*
X128203357Y-102414148D01*
X128459841Y-102500554D01*
X129360395Y-101600000D01*
X129346253Y-101585858D01*
X129525858Y-101406253D01*
X129540000Y-101420395D01*
X129554143Y-101406253D01*
X129733748Y-101585858D01*
G36*
X150756903Y-111871668D02*
X150756903Y-115925280D01*
X150586575Y-115754655D01*
X150115924Y-115559223D01*
X149606311Y-115558778D01*
X149464472Y-115617385D01*
X149464472Y-110579237D01*
X150756903Y-111871668D01*
X150756903Y-111871668D01*
G37*
X150756903Y-111871668D02*
X150756903Y-115925280D01*
X150586575Y-115754655D01*
X150115924Y-115559223D01*
X149606311Y-115558778D01*
X149464472Y-115617385D01*
X149464472Y-110579237D01*
X150756903Y-111871668D01*
G36*
X142626011Y-115613240D02*
X142495924Y-115559223D01*
X141986311Y-115558778D01*
X141515320Y-115753388D01*
X141427138Y-115841416D01*
X141427138Y-115017390D01*
X142626011Y-113818517D01*
X142626011Y-115613240D01*
X142626011Y-115613240D01*
G37*
X142626011Y-115613240D02*
X142495924Y-115559223D01*
X141986311Y-115558778D01*
X141515320Y-115753388D01*
X141427138Y-115841416D01*
X141427138Y-115017390D01*
X142626011Y-113818517D01*
X142626011Y-115613240D01*
G36*
X141502121Y-108846619D02*
X141705579Y-109050433D01*
X141934441Y-109145464D01*
X141934368Y-109229301D01*
X141973975Y-109325157D01*
X141973975Y-109605156D01*
X141939349Y-109779234D01*
X141939349Y-110657641D01*
X141858409Y-110624032D01*
X141570424Y-110623781D01*
X141356824Y-110712039D01*
X141438000Y-110590550D01*
X141482470Y-110366986D01*
X141482470Y-108799060D01*
X141502121Y-108846619D01*
X141502121Y-108846619D01*
G37*
X141502121Y-108846619D02*
X141705579Y-109050433D01*
X141934441Y-109145464D01*
X141934368Y-109229301D01*
X141973975Y-109325157D01*
X141973975Y-109605156D01*
X141939349Y-109779234D01*
X141939349Y-110657641D01*
X141858409Y-110624032D01*
X141570424Y-110623781D01*
X141356824Y-110712039D01*
X141438000Y-110590550D01*
X141482470Y-110366986D01*
X141482470Y-108799060D01*
X141502121Y-108846619D01*
G36*
X151673425Y-102685345D02*
X152144076Y-102880777D01*
X152653689Y-102881222D01*
X152923259Y-102769837D01*
X152976710Y-102823288D01*
X153125036Y-102922397D01*
X153299999Y-102957199D01*
X153582327Y-102957199D01*
X154847902Y-104222774D01*
X154847902Y-106898276D01*
X153053100Y-108693079D01*
X153015079Y-108601062D01*
X152811621Y-108397248D01*
X152545653Y-108286809D01*
X152257668Y-108286558D01*
X151991508Y-108396533D01*
X151787694Y-108599991D01*
X151677255Y-108865959D01*
X151677061Y-109087972D01*
X151195625Y-109569409D01*
X151105508Y-109704278D01*
X150914415Y-109512851D01*
X150648447Y-109402412D01*
X150426433Y-109402218D01*
X150317200Y-109292985D01*
X150317200Y-108715825D01*
X150501890Y-108792515D01*
X150789875Y-108792766D01*
X151056035Y-108682791D01*
X151259849Y-108479333D01*
X151370288Y-108213365D01*
X151370539Y-107925380D01*
X151260564Y-107659220D01*
X151057106Y-107455406D01*
X150791138Y-107344967D01*
X150679185Y-107344869D01*
X150679185Y-103097723D01*
X151311890Y-102465018D01*
X151368663Y-102380052D01*
X151673425Y-102685345D01*
X151673425Y-102685345D01*
G37*
X151673425Y-102685345D02*
X152144076Y-102880777D01*
X152653689Y-102881222D01*
X152923259Y-102769837D01*
X152976710Y-102823288D01*
X153125036Y-102922397D01*
X153299999Y-102957199D01*
X153582327Y-102957199D01*
X154847902Y-104222774D01*
X154847902Y-106898276D01*
X153053100Y-108693079D01*
X153015079Y-108601062D01*
X152811621Y-108397248D01*
X152545653Y-108286809D01*
X152257668Y-108286558D01*
X151991508Y-108396533D01*
X151787694Y-108599991D01*
X151677255Y-108865959D01*
X151677061Y-109087972D01*
X151195625Y-109569409D01*
X151105508Y-109704278D01*
X150914415Y-109512851D01*
X150648447Y-109402412D01*
X150426433Y-109402218D01*
X150317200Y-109292985D01*
X150317200Y-108715825D01*
X150501890Y-108792515D01*
X150789875Y-108792766D01*
X151056035Y-108682791D01*
X151259849Y-108479333D01*
X151370288Y-108213365D01*
X151370539Y-107925380D01*
X151260564Y-107659220D01*
X151057106Y-107455406D01*
X150791138Y-107344967D01*
X150679185Y-107344869D01*
X150679185Y-103097723D01*
X151311890Y-102465018D01*
X151368663Y-102380052D01*
X151673425Y-102685345D01*
G36*
X148408110Y-102465018D02*
X148994982Y-103051890D01*
X149096684Y-103119846D01*
X149096684Y-108734140D01*
X148972010Y-108609248D01*
X148706042Y-108498809D01*
X148418057Y-108498558D01*
X148220487Y-108580192D01*
X148190762Y-108508251D01*
X147987304Y-108304437D01*
X147721336Y-108193998D01*
X147499323Y-108193804D01*
X147233662Y-107928144D01*
X147233662Y-107780356D01*
X147389797Y-107624494D01*
X147500236Y-107358526D01*
X147500487Y-107070541D01*
X147390512Y-106804381D01*
X147187054Y-106600567D01*
X146921086Y-106490128D01*
X146639294Y-106489882D01*
X146639294Y-102704392D01*
X147064076Y-102880777D01*
X147573689Y-102881222D01*
X148044680Y-102686612D01*
X148351512Y-102380314D01*
X148408110Y-102465018D01*
X148408110Y-102465018D01*
G37*
X148408110Y-102465018D02*
X148994982Y-103051890D01*
X149096684Y-103119846D01*
X149096684Y-108734140D01*
X148972010Y-108609248D01*
X148706042Y-108498809D01*
X148418057Y-108498558D01*
X148220487Y-108580192D01*
X148190762Y-108508251D01*
X147987304Y-108304437D01*
X147721336Y-108193998D01*
X147499323Y-108193804D01*
X147233662Y-107928144D01*
X147233662Y-107780356D01*
X147389797Y-107624494D01*
X147500236Y-107358526D01*
X147500487Y-107070541D01*
X147390512Y-106804381D01*
X147187054Y-106600567D01*
X146921086Y-106490128D01*
X146639294Y-106489882D01*
X146639294Y-102704392D01*
X147064076Y-102880777D01*
X147573689Y-102881222D01*
X148044680Y-102686612D01*
X148351512Y-102380314D01*
X148408110Y-102465018D01*
G36*
X138613388Y-102324680D02*
X138973425Y-102685345D01*
X139444076Y-102880777D01*
X139953689Y-102881222D01*
X140223259Y-102769837D01*
X142001870Y-104548448D01*
X142001870Y-107046223D01*
X141849504Y-106982955D01*
X141598760Y-106982736D01*
X141536944Y-106941432D01*
X141361981Y-106906630D01*
X141181053Y-106906630D01*
X137617200Y-103342777D01*
X137617200Y-102797133D01*
X137884680Y-102686612D01*
X138245345Y-102326575D01*
X138430213Y-101881364D01*
X138613388Y-102324680D01*
X138613388Y-102324680D01*
G37*
X138613388Y-102324680D02*
X138973425Y-102685345D01*
X139444076Y-102880777D01*
X139953689Y-102881222D01*
X140223259Y-102769837D01*
X142001870Y-104548448D01*
X142001870Y-107046223D01*
X141849504Y-106982955D01*
X141598760Y-106982736D01*
X141536944Y-106941432D01*
X141361981Y-106906630D01*
X141181053Y-106906630D01*
X137617200Y-103342777D01*
X137617200Y-102797133D01*
X137884680Y-102686612D01*
X138245345Y-102326575D01*
X138430213Y-101881364D01*
X138613388Y-102324680D01*
G36*
X143693388Y-102324680D02*
X144053425Y-102685345D01*
X144524076Y-102880777D01*
X145033689Y-102881222D01*
X145303259Y-102769837D01*
X145418263Y-102884841D01*
X145418263Y-105756576D01*
X144597818Y-106577021D01*
X144377203Y-106576829D01*
X144111043Y-106686804D01*
X143943682Y-106853873D01*
X143852128Y-106815857D01*
X143564143Y-106815606D01*
X143297983Y-106925581D01*
X143221081Y-107002349D01*
X143221081Y-104232814D01*
X143186279Y-104057851D01*
X143087170Y-103909525D01*
X142697200Y-103519555D01*
X142697200Y-102797133D01*
X142964680Y-102686612D01*
X143325345Y-102326575D01*
X143510213Y-101881364D01*
X143693388Y-102324680D01*
X143693388Y-102324680D01*
G37*
X143693388Y-102324680D02*
X144053425Y-102685345D01*
X144524076Y-102880777D01*
X145033689Y-102881222D01*
X145303259Y-102769837D01*
X145418263Y-102884841D01*
X145418263Y-105756576D01*
X144597818Y-106577021D01*
X144377203Y-106576829D01*
X144111043Y-106686804D01*
X143943682Y-106853873D01*
X143852128Y-106815857D01*
X143564143Y-106815606D01*
X143297983Y-106925581D01*
X143221081Y-107002349D01*
X143221081Y-104232814D01*
X143186279Y-104057851D01*
X143087170Y-103909525D01*
X142697200Y-103519555D01*
X142697200Y-102797133D01*
X142964680Y-102686612D01*
X143325345Y-102326575D01*
X143510213Y-101881364D01*
X143693388Y-102324680D01*
G36*
X156393388Y-99784680D02*
X156753425Y-100145345D01*
X157224076Y-100340777D01*
X157733689Y-100341222D01*
X158003259Y-100229837D01*
X158056710Y-100283288D01*
X158205036Y-100382397D01*
X158379999Y-100417199D01*
X158726522Y-100417199D01*
X158726522Y-100544158D01*
X155810016Y-103460665D01*
X155219789Y-102870438D01*
X155664680Y-102686612D01*
X156025345Y-102326575D01*
X156220777Y-101855924D01*
X156221222Y-101346311D01*
X156026612Y-100875320D01*
X155666575Y-100514655D01*
X155221364Y-100329787D01*
X155664680Y-100146612D01*
X156025345Y-99786575D01*
X156210213Y-99341364D01*
X156393388Y-99784680D01*
X156393388Y-99784680D01*
G37*
X156393388Y-99784680D02*
X156753425Y-100145345D01*
X157224076Y-100340777D01*
X157733689Y-100341222D01*
X158003259Y-100229837D01*
X158056710Y-100283288D01*
X158205036Y-100382397D01*
X158379999Y-100417199D01*
X158726522Y-100417199D01*
X158726522Y-100544158D01*
X155810016Y-103460665D01*
X155219789Y-102870438D01*
X155664680Y-102686612D01*
X156025345Y-102326575D01*
X156220777Y-101855924D01*
X156221222Y-101346311D01*
X156026612Y-100875320D01*
X155666575Y-100514655D01*
X155221364Y-100329787D01*
X155664680Y-100146612D01*
X156025345Y-99786575D01*
X156210213Y-99341364D01*
X156393388Y-99784680D01*
G36*
X136074655Y-98333425D02*
X135879223Y-98804076D01*
X135878778Y-99313689D01*
X136063273Y-99760199D01*
X128255601Y-99760199D01*
X128032037Y-99804669D01*
X127943565Y-99863784D01*
X127842509Y-99931307D01*
X127396303Y-100377513D01*
X127255924Y-100319223D01*
X126746311Y-100318778D01*
X126275320Y-100513388D01*
X126186000Y-100602552D01*
X126186000Y-98246000D01*
X136162232Y-98246000D01*
X136074655Y-98333425D01*
X136074655Y-98333425D01*
G37*
X136074655Y-98333425D02*
X135879223Y-98804076D01*
X135878778Y-99313689D01*
X136063273Y-99760199D01*
X128255601Y-99760199D01*
X128032037Y-99804669D01*
X127943565Y-99863784D01*
X127842509Y-99931307D01*
X127396303Y-100377513D01*
X127255924Y-100319223D01*
X126746311Y-100318778D01*
X126275320Y-100513388D01*
X126186000Y-100602552D01*
X126186000Y-98246000D01*
X136162232Y-98246000D01*
X136074655Y-98333425D01*
M02*
